<svg xmlns="http://www.w3.org/2000/svg" width="210" height="199" viewBox="0 0 210 199">
  <g id="Grupo_117449" data-name="Grupo 117449" transform="translate(-390 -1645)">
    <g id="Elipse_5462" data-name="Elipse 5462" transform="translate(391 1645)" fill="none" stroke="#a7e446" stroke-width="10">
      <circle cx="99.5" cy="99.5" r="99.5" stroke="none"/>
      <circle cx="99.5" cy="99.5" r="94.5" fill="none"/>
    </g>
    <g id="Grupo_117447" data-name="Grupo 117447">
      <g id="Grupo_115967" data-name="Grupo 115967" transform="translate(293.044 1292.038)">
        <path id="Trazado_160085" data-name="Trazado 160085" d="M252.137,429.922l-33.469-70.441-3.114-4.281s-35.025,48.647.778,107.413C216.332,462.613,216.4,440.217,252.137,429.922Z" transform="translate(-9.492 -0.089)" fill="#dff7f9"/>
        <path id="Trazado_160086" data-name="Trazado 160086" d="M100.607,406.628s65.467.222,69.663,0a8.162,8.162,0,0,1,6.615,3.113s1.055,45.877-2.335,47.868-5.06,1.946-5.06,1.946l-63.824-1.946s-8.3-.163-7.784-5.448S94.38,408.184,100.607,406.628Z" transform="translate(-0.011 -4.815)" fill="#dff7f9"/>
        <path id="Trazado_160087" data-name="Trazado 160087" d="M142.619,503.776l3.211-7.589,13.426-2.773h2.773a23.542,23.542,0,0,0,3.356,3.357,9.6,9.6,0,0,0,4.086.584c1.168,0,1.752-.73,2.482,0s3.794,7.151,3.648,8.9-2.188,1.9-2.188,1.9-1.605,6.276-8.319,2.482l-15.615,4.086h-2.919s-.584,3.794-2.627,4.524-4.232-1.314-4.378-1.752-1.605-.438-1.605-.438l-6.567,2.043-1.168-.146.438-2.772.292-.584.875-1.168s-3.334-3.908,1.9-6.421a41.683,41.683,0,0,1,8.611-3.211Z" transform="translate(-3.057 -12.794)" fill="#dff7f9"/>
        <path id="Trazado_160088" data-name="Trazado 160088" d="M192.221,505.2s41.837,4.865,50.788,10.7l-5.254,30.939s-.584,1.362-1.168,1.362-52.149-9.145-52.149-9.145l-.973-1.362s.39-5.254.584-5.838S192.221,505.2,192.221,505.2Z" transform="translate(-7.952 -13.877)" fill="#dff7f9"/>
        <path id="Trazado_160089" data-name="Trazado 160089" d="M258.166,405.175h5.254l2.773.584s15.031,8.61,16.783,10.507,3.21.439,3.21.439,17.659-8.465,22.33-7.006,4.086,4.524,2.188,5.546-13.572,9.633-13.572,9.633a17.552,17.552,0,0,1,1.9,1.751c.292.438,3.5,3.649,4.379,3.94a11.989,11.989,0,0,0,3.649,1.022c1.313,0,8.61-2.188,8.61-2.188s5.108,1.313,5.108,1.9-4.816,5.254-6.276,5.838l2.335,3.94H316.1c-.875,0-3.795-1.605-3.795-1.605s.146,2.627-7.735.438c0,0-9.048-2.772-22.62-10.362l-11.968,6.86-2.481-.292.292-2.773L264.15,431.3l-1.9-1.459a3.682,3.682,0,0,1,1.605-4.816c3.065-1.9,3.357-.729,3.357-.729l2.772,2.919.73.291,1.9-3.356s-16.2-10.8-17.221-15.324S258.166,405.175,258.166,405.175Z" transform="translate(-14.548 -4.676)" fill="#dff7f9"/>
        <g id="Grupo_115966" data-name="Grupo 115966" transform="translate(96.956 354.236)">
          <g id="Grupo_115954" data-name="Grupo 115954" transform="translate(0 39.065)">
            <path id="Trazado_160090" data-name="Trazado 160090" d="M111.034,431.937c-.07-.261-.521-.219-.488.066a11.431,11.431,0,0,1,.078,1.806c-.019.479.029.967-.5,1.221a3.607,3.607,0,0,1-.606.106,2.2,2.2,0,0,0-.226.074,13.6,13.6,0,0,0-.029-1.58c-.035-.389-.125-.726-.544-.822a.319.319,0,0,0-.4.3c-.016.474-.035.947-.065,1.42a3.411,3.411,0,0,1-.058.709l0,.009c-.115-.038-.244-.058-.375-.094a.585.585,0,0,1-.676-.242,3.549,3.549,0,0,1-.2-.967c0-.085,0-.17.007-.255.015-.478.032-.955.047-1.434a.258.258,0,0,0-.06-.172.208.208,0,0,0-.047-.181.168.168,0,0,0-.143-.083c-.961.081-.833,1.476-.781,2.13.078,1.005-.018,2.112,1.12,2.442a1.7,1.7,0,0,0,1.354-.184.9.9,0,0,0,.13-.05c-.025.34-.045.6-.047.682a.358.358,0,0,0,.7.1.725.725,0,0,0,.011-.1h0v-.025c.011-.134.007-.294.019-.429.845.03,1.711-.1,2.022-1A6.416,6.416,0,0,0,111.034,431.937Z" transform="translate(-97.781 -400.428)" fill="#2bb3ac"/>
            <path id="Trazado_160091" data-name="Trazado 160091" d="M176.18,431.925c-.052-.369-.621-.262-.63.084-.018.749-.061,1.5-.1,2.245-.021.439.1.874-.42,1.1a.827.827,0,0,1-1.074-.31c-.017-.313-.054-.626-.092-.936-.034-.279-.452-.392-.529-.072a1.789,1.789,0,0,0,.042,1.383l0,.071c-.488-.044-.975-.083-1.467-.1-.006,0-.012,0-.018,0,0-.065,0-.134-.005-.208-.011-.953-.045-1.909-.078-2.861a.274.274,0,0,0-.142-.227v-.013c.016-.223-.311-.249-.375-.051a6.68,6.68,0,0,0-.291,2.314,2.8,2.8,0,0,0,.027,1.208,1.11,1.11,0,0,0,.138.259c.006.036.012.072.018.108a.29.29,0,0,0,.329.2,2.384,2.384,0,0,0,1.212.214.337.337,0,0,0,.16.052c.124.006.265.015.414.025a2.936,2.936,0,0,0-.014.365.652.652,0,0,0,.047.352c.009.038.014.074.025.114a.286.286,0,0,0,.548,0v0a.323.323,0,0,0,.1-.221v-.057a.3.3,0,0,0-.015-.088l.1-.43a2.569,2.569,0,0,0,2.151-.693C176.952,434.758,176.333,433.014,176.18,431.925Z" transform="translate(-103.758 -400.421)" fill="#2bb3ac"/>
            <g id="Grupo_115948" data-name="Grupo 115948" transform="translate(15.41 9.875)">
              <path id="Trazado_160092" data-name="Trazado 160092" d="M158.081,455.506h-.012c-.127,0-.255,0-.383-.006a.189.189,0,0,1,.006-.379h.006c.124,0,.247.006.37.006a.194.194,0,0,1,.2.189A.184.184,0,0,1,158.081,455.506Zm1.129-.075a.189.189,0,0,1-.026-.376c.123-.018.243-.039.359-.064a.193.193,0,0,1,.225.145.19.19,0,0,1-.146.225c-.124.025-.252.048-.384.067A.132.132,0,0,1,159.21,455.431Zm-2.647,0h-.016l-.378-.034a.19.19,0,0,1-.171-.207.192.192,0,0,1,.207-.17l.374.035a.189.189,0,0,1-.016.378Zm-1.5-.132h-.011l-.231-.011-.143,0a.189.189,0,0,1,.007-.379h.007l.141,0c.078,0,.157.007.241.012a.19.19,0,0,1-.012.379Zm-1.508-.055h-.006l-.377-.013a.189.189,0,0,1-.183-.2.182.182,0,0,1,.2-.183l.364.013a.2.2,0,0,1,.189.2A.183.183,0,0,1,153.55,455.241Zm-1.508-.052h-.006l-.377-.013a.19.19,0,0,1-.183-.2.187.187,0,0,1,.2-.182l.364.013a.2.2,0,0,1,.189.2A.184.184,0,0,1,152.042,455.189Zm-1.508-.053h-.007l-.377-.014a.19.19,0,0,1-.183-.2.2.2,0,0,1,.2-.183l.377.014a.189.189,0,0,1-.006.379Zm-1.509-.054h-.006l-.378-.014a.189.189,0,0,1,.007-.379h.007l.376.014a.189.189,0,0,1-.006.379Zm-1.508-.055h-.007l-.376-.014a.19.19,0,0,1-.183-.2.2.2,0,0,1,.2-.182l.363.015a.194.194,0,0,1,.189.2A.183.183,0,0,1,147.516,455.028Zm13.133-.033a.189.189,0,0,1-.088-.357,2.9,2.9,0,0,0,.3-.183.19.19,0,1,1,.213.313,3.646,3.646,0,0,1-.341.205A.192.192,0,0,1,160.648,454.995Zm-14.642-.025H146l-.377-.014a.189.189,0,0,1,.007-.379h.007l.377.015a.189.189,0,0,1-.007.379Zm-1.508-.057h-.007l-.377-.015a.189.189,0,0,1,.015-.379l.376.015a.189.189,0,0,1-.007.379Zm-1.508-.06h-.007l-.377-.015a.189.189,0,0,1,.015-.378l.362.015a.2.2,0,0,1,.189.2A.183.183,0,0,1,142.99,454.853Zm-1.508-.061h-.007l-.378-.015a.189.189,0,0,1-.181-.2.191.191,0,0,1,.2-.182l.377.015a.189.189,0,0,1-.008.379Zm-1.508-.063h-.007l-.378-.016a.189.189,0,0,1-.181-.2.175.175,0,0,1,.2-.181l.377.015a.189.189,0,0,1-.008.379Zm-1.508-.064h-.008l-.376-.016a.19.19,0,0,1-.182-.2.187.187,0,0,1,.2-.182l.361.016a.2.2,0,0,1,.189.2A.182.182,0,0,1,138.465,454.666Zm-1.507-.066h-.008l-.378-.016a.19.19,0,0,1-.181-.2.183.183,0,0,1,.2-.181l.378.016a.189.189,0,0,1-.008.379Zm-1.508-.066h-.009l-.378-.017a.189.189,0,0,1,.018-.378l.377.017a.189.189,0,0,1-.008.379Zm-1.507-.07h-.009l-.379-.018a.188.188,0,0,1-.18-.2.186.186,0,0,1,.2-.18l.378.017a.189.189,0,0,1-.008.378Zm-1.511-.071h-.008l-.38-.018a.188.188,0,0,1-.179-.2.18.18,0,0,1,.2-.18l.378.018a.189.189,0,0,1-.009.378Zm-1.509-.073h-.008l-.376-.016a.189.189,0,1,1,.015-.379l.379.017a.189.189,0,0,1-.009.378Zm-1.509-.049h0l-.377-.006a.189.189,0,0,1,0-.379h0l.379.007a.189.189,0,0,1,0,.378Zm-4.906-.005a.189.189,0,1,1,0-.379h.378a.189.189,0,1,1,0,.378l-.378,0Zm-1.133,0v0Zm-.012,0-.367,0a.189.189,0,0,1,0-.379h0l.366,0,.01.189Zm2.655-.005a.189.189,0,0,1,0-.379l.377,0h0a.189.189,0,1,1,0,.379l-.378,0Zm1.887,0h-.378a.189.189,0,1,1,0-.378h.373a.192.192,0,0,1,.192.19A.188.188,0,0,1,127.9,454.255Zm-6.04-.012h0l-.379-.01a.188.188,0,0,1-.183-.194.2.2,0,0,1,.194-.184l.376.01a.189.189,0,0,1,0,.379Zm-1.507-.054h-.01l-.379-.02a.188.188,0,0,1-.177-.2.184.184,0,0,1,.2-.178l.375.02a.189.189,0,0,1-.009.379Zm-1.5-.122-.03,0c-.131-.02-.258-.044-.382-.073a.189.189,0,1,1,.082-.37c.118.026.237.049.36.069a.189.189,0,0,1-.029.376Zm42.94-.04a.189.189,0,0,1-.148-.307c.074-.093.146-.19.217-.292a.189.189,0,0,1,.311.214c-.075.111-.153.215-.232.314A.187.187,0,0,1,161.793,454.027Zm-44.381-.391a.2.2,0,0,1-.08-.017c-.12-.056-.235-.116-.349-.181a.189.189,0,0,1,.187-.329q.157.089.321.166a.189.189,0,0,1-.08.36Zm-1.237-.852a.19.19,0,0,1-.133-.055c-.094-.092-.183-.187-.268-.288a.189.189,0,0,1,.288-.245c.078.092.161.179.246.263a.189.189,0,0,1,0,.268A.191.191,0,0,1,116.174,452.785Zm46.4-.045a.192.192,0,0,1-.08-.017.19.19,0,0,1-.092-.252c.05-.109.1-.223.148-.339a.189.189,0,1,1,.35.145c-.051.121-.1.239-.154.352A.19.19,0,0,1,162.572,452.739ZM115.3,451.566a.189.189,0,0,1-.17-.105c-.057-.115-.11-.234-.161-.357a.189.189,0,1,1,.351-.143c.046.114.1.225.149.332a.189.189,0,0,1-.085.253A.185.185,0,0,1,115.3,451.566Zm47.794-.242a.185.185,0,0,1-.05-.006.189.189,0,0,1-.133-.232c.032-.119.063-.239.091-.36a.189.189,0,0,1,.369.086c-.029.124-.061.25-.094.373A.191.191,0,0,1,163.093,451.324Zm-48.267-1.186a.191.191,0,0,1-.186-.153c-.024-.124-.045-.252-.064-.382a.189.189,0,0,1,.162-.213.192.192,0,0,1,.213.162c.017.123.037.243.061.361a.19.19,0,0,1-.15.222A.244.244,0,0,1,114.826,450.138Zm48.558-.294h-.024a.19.19,0,0,1-.164-.212c.015-.123.029-.246.041-.37a.2.2,0,0,1,.207-.171.19.19,0,0,1,.17.207c-.012.127-.026.254-.042.38A.189.189,0,0,1,163.383,449.843Zm-48.713-1.206a.189.189,0,0,1-.188-.179l-.02-.379a.189.189,0,0,1,.18-.2.187.187,0,0,1,.2.18l.019.375a.188.188,0,0,1-.178.2Zm48.822-.3h0a.188.188,0,0,1-.185-.193q0-.187.005-.373a.189.189,0,0,1,.189-.189h0a.19.19,0,0,1,.189.19q0,.191-.005.381A.19.19,0,0,1,163.492,448.338Zm-48.882-1.21a.188.188,0,0,1-.189-.184l-.007-.379a.189.189,0,0,1,.186-.192h0a.188.188,0,0,1,.189.186l.008.376a.19.19,0,0,1-.185.193Zm48.863-.3a.19.19,0,0,1-.19-.181c0-.125-.011-.25-.018-.374a.189.189,0,0,1,.178-.2.182.182,0,0,1,.2.178c.007.126.014.252.019.38a.189.189,0,0,1-.181.2Zm-48.878-1.21h0a.19.19,0,0,1-.189-.19l0-.376a.19.19,0,0,1,.189-.189h0a.188.188,0,0,1,.188.189l0,.377A.19.19,0,0,1,114.6,445.619Zm48.779-.3a.189.189,0,0,1-.188-.173l-.033-.375a.189.189,0,0,1,.172-.205.192.192,0,0,1,.205.172l.033.377a.189.189,0,0,1-.173.2Zm-48.761-1.213h0a.189.189,0,0,1-.185-.193l.008-.378a.19.19,0,0,1,.19-.184h0a.189.189,0,0,1,.185.193l-.008.377A.189.189,0,0,1,114.613,444.11Zm48.627-.291a.189.189,0,0,1-.188-.173l-.034-.376a.189.189,0,0,1,.172-.205.194.194,0,0,1,.205.172l.034.376a.189.189,0,0,1-.172.205ZM114.65,442.6h-.005a.189.189,0,0,1-.183-.194l.011-.378a.194.194,0,0,1,.2-.183.189.189,0,0,1,.183.194l-.011.378A.19.19,0,0,1,114.65,442.6Zm48.469-.285a.19.19,0,0,1-.189-.177c-.008-.128-.015-.255-.021-.38a.188.188,0,0,1,.18-.2.182.182,0,0,1,.2.18c.005.123.013.248.021.373a.189.189,0,0,1-.176.2ZM114.574,441.1a.189.189,0,0,1-.187-.163c-.018-.126-.034-.252-.048-.379a.189.189,0,0,1,.166-.21.193.193,0,0,1,.21.166c.014.124.03.248.046.371a.189.189,0,0,1-.162.213Zm48.488-.292a.189.189,0,0,1-.189-.184l-.008-.378a.189.189,0,0,1,.185-.193h0a.19.19,0,0,1,.19.185l.008.377a.19.19,0,0,1-.185.193ZM114.421,439.6a.189.189,0,0,1-.188-.176q-.014-.189-.025-.379a.189.189,0,0,1,.178-.2.187.187,0,0,1,.2.177c.007.125.015.25.025.375a.189.189,0,0,1-.176.2Zm48.617-.3a.189.189,0,0,1-.19-.187l0-.378a.189.189,0,0,1,.187-.191h0a.189.189,0,0,1,.189.187l0,.377a.19.19,0,0,1-.187.192Zm-48.689-1.208a.189.189,0,0,1-.189-.183l-.009-.379a.189.189,0,0,1,.185-.193h0a.189.189,0,0,1,.189.185l.01.376a.189.189,0,0,1-.184.194Zm48.49-.49v-.378a.189.189,0,1,1,.378,0v.375Zm-48.514-1.019a.19.19,0,0,1-.189-.188v-.379a.189.189,0,1,1,.378,0l0,.376a.19.19,0,0,1-.189.191Zm48.7-.3a.189.189,0,0,1-.189-.189v-.378a.189.189,0,1,1,.378,0v.378A.189.189,0,0,1,163.027,436.278Zm-48.7-1.207a.19.19,0,0,1-.19-.189v-.377a.189.189,0,0,1,.188-.19h0a.189.189,0,0,1,.19.188v.378a.19.19,0,0,1-.189.19Zm48.7-.3a.189.189,0,0,1-.189-.188V434.2a.188.188,0,0,1,.188-.189h0a.188.188,0,0,1,.189.188l0,.378a.19.19,0,0,1-.19.19Zm-48.714-1.208a.189.189,0,0,1-.189-.187l0-.379a.19.19,0,0,1,.188-.191h0a.19.19,0,0,1,.189.188l0,.377a.19.19,0,0,1-.188.192Zm48.706-.3a.19.19,0,0,1-.19-.187l0-.378a.187.187,0,0,1,.186-.191.18.18,0,0,1,.192.186l0,.378a.19.19,0,0,1-.187.192Zm-48.72-1.209a.189.189,0,0,1-.19-.187l0-.378a.189.189,0,0,1,.187-.191h0a.189.189,0,0,1,.189.188l0,.377a.189.189,0,0,1-.187.191Zm48.7-.3a.19.19,0,0,1-.19-.184l-.009-.377a.19.19,0,0,1,.184-.194h.005a.19.19,0,0,1,.189.184l.009.378a.189.189,0,0,1-.184.193Zm-48.9-1.394.189,0-.189,0-.005-.373a.189.189,0,0,1,.187-.191h0a.188.188,0,0,1,.189.187l.005.371Zm48.858-.114a.191.191,0,0,1-.19-.182l-.014-.349.187-.036.19-.007v.028l.015.349a.19.19,0,0,1-.182.2Zm-48.69-1.209a.19.19,0,0,1-.19-.186l-.005-.378a.188.188,0,0,1,.186-.192h0a.19.19,0,0,1,.19.186l.005.377a.19.19,0,0,1-.187.193Zm48.616-.3a.189.189,0,0,1-.189-.178l-.023-.377a.189.189,0,0,1,.178-.2.182.182,0,0,1,.2.178l.023.376a.188.188,0,0,1-.178.2Zm-48.639-1.211a.189.189,0,0,1-.189-.186l-.006-.377a.189.189,0,0,1,.186-.192.186.186,0,0,1,.193.185l.006.379a.189.189,0,0,1-.186.192Zm48.545-.3a.19.19,0,0,1-.189-.177l-.025-.376a.189.189,0,0,1,.175-.2.187.187,0,0,1,.2.176l.025.377a.19.19,0,0,1-.176.2Zm-48.569-1.213a.189.189,0,0,1-.189-.186l-.006-.378a.188.188,0,0,1,.186-.192h0a.189.189,0,0,1,.189.186l.006.377a.19.19,0,0,1-.186.193Zm48.469-.293a.189.189,0,0,1-.188-.177l-.025-.377a.189.189,0,0,1,.177-.2.178.178,0,0,1,.2.177l.025.376a.189.189,0,0,1-.177.2ZM114.187,424.5a.188.188,0,0,1-.189-.186l-.006-.377a.19.19,0,0,1,.186-.193.2.2,0,0,1,.193.186l.005.378a.188.188,0,0,1-.186.192Zm48.4-.29a.189.189,0,0,1-.189-.18l-.019-.377a.19.19,0,0,1,.179-.2.178.178,0,0,1,.2.18l.019.377a.189.189,0,0,1-.179.2Zm-48.427-1.22a.189.189,0,0,1-.189-.186l-.005-.377a.19.19,0,0,1,.186-.193h0a.19.19,0,0,1,.19.186l.005.378a.189.189,0,0,1-.186.192Zm48.361-.288a.189.189,0,0,1-.189-.183l-.012-.379a.191.191,0,0,1,.184-.194h.005a.189.189,0,0,1,.189.184l.011.376a.19.19,0,0,1-.183.2Zm-48.381-1.221a.19.19,0,0,1-.19-.187l0-.377a.188.188,0,0,1,.186-.192h0a.19.19,0,0,1,.19.186l0,.378a.19.19,0,0,1-.187.192Zm48.355-.3h0a.183.183,0,0,1-.189-.181l0-.38a.189.189,0,0,1,.189-.187h0a.19.19,0,0,1,.188.192l0,.359A.2.2,0,0,1,162.5,421.187Zm-48.373-1.212a.19.19,0,0,1-.19-.187l0-.379a.19.19,0,0,1,.188-.191h0a.189.189,0,0,1,.189.188l0,.377a.189.189,0,0,1-.187.192Zm48.4-.289h-.007a.189.189,0,0,1-.182-.2c.005-.126.011-.252.018-.379a.186.186,0,0,1,.2-.179.19.19,0,0,1,.179.2c-.007.124-.013.25-.017.375A.19.19,0,0,1,162.528,419.686Zm-48.412-1.221h0a.189.189,0,0,1-.189-.19l0-.377a.19.19,0,0,1,.189-.189h0a.19.19,0,0,1,.189.19l0,.377A.189.189,0,0,1,114.116,418.465Zm48.527-.283-.023,0a.188.188,0,0,1-.165-.21c.015-.122.03-.248.047-.377a.189.189,0,1,1,.375.049c-.016.127-.032.252-.046.372A.19.19,0,0,1,162.642,418.182Zm-48.506-1.226h-.005a.189.189,0,0,1-.183-.194l.012-.379a.21.21,0,0,1,.2-.183.189.189,0,0,1,.183.2l-.012.376A.188.188,0,0,1,114.137,416.956Zm48.7-.272-.024,0a.188.188,0,0,1-.164-.211c.015-.123.03-.248.045-.373a.2.2,0,0,1,.21-.166.189.189,0,0,1,.166.21c-.015.126-.03.252-.045.377A.189.189,0,0,1,162.836,416.684Zm-48.629-1.237h-.013a.189.189,0,0,1-.176-.2l.028-.379a.2.2,0,0,1,.2-.174.189.189,0,0,1,.174.2l-.027.375A.189.189,0,0,1,114.207,415.447Zm48.78-.265h-.013a.189.189,0,0,1-.176-.2c.008-.124.015-.248.021-.372a.185.185,0,0,1,.2-.181.19.19,0,0,1,.181.2c-.005.127-.013.254-.021.381A.19.19,0,0,1,162.987,415.182Zm-48.64-1.238a.127.127,0,0,1-.026,0,.189.189,0,0,1-.162-.213c.017-.127.038-.256.065-.386a.189.189,0,0,1,.371.078c-.025.121-.044.241-.061.359A.189.189,0,0,1,114.346,413.944Zm48.662-.272a.19.19,0,0,1-.189-.18c-.006-.124-.015-.247-.025-.369a.189.189,0,0,1,.172-.205.193.193,0,0,1,.205.172c.012.127.02.255.026.384a.189.189,0,0,1-.18.2Zm-48.194-1.151a.189.189,0,0,1-.161-.289,2.62,2.62,0,0,1,.238-.327.189.189,0,0,1,.289.245,2.277,2.277,0,0,0-.205.282A.191.191,0,0,1,114.814,412.521Zm47.983-.34a.19.19,0,0,1-.183-.142c-.031-.119-.064-.236-.1-.351a.189.189,0,0,1,.36-.119c.04.123.076.247.109.374a.189.189,0,0,1-.135.231A.17.17,0,0,1,162.8,412.182Zm-46.869-.647a.189.189,0,0,1-.084-.359,3.783,3.783,0,0,1,.365-.156.189.189,0,0,1,.131.355,3.541,3.541,0,0,0-.329.141A.193.193,0,0,1,115.928,411.534Zm1.437-.447a.189.189,0,0,1-.041-.374c.123-.027.248-.054.373-.078a.189.189,0,1,1,.074.37c-.123.025-.244.05-.365.077A.215.215,0,0,1,117.366,411.088Zm1.486-.265a.189.189,0,0,1-.026-.377c.125-.017.251-.034.377-.05a.191.191,0,0,1,.212.163.189.189,0,0,1-.163.212l-.372.05Zm43.361-.025a.188.188,0,0,1-.16-.087c-.064-.1-.133-.2-.207-.294a.189.189,0,1,1,.3-.232c.081.105.157.213.228.323a.189.189,0,0,1-.16.291Zm-41.862-.152a.189.189,0,0,1-.019-.378l.378-.037a.189.189,0,0,1,.035.377l-.374.037Zm1.5-.148a.189.189,0,0,1-.019-.378l.375-.039a.2.2,0,0,1,.208.168.189.189,0,0,1-.169.208l-.376.039Zm1.5-.172a.19.19,0,0,1-.022-.378l.375-.043a.189.189,0,0,1,.044.376l-.375.044Zm1.5-.168a.189.189,0,0,1-.019-.377l.375-.04a.2.2,0,0,1,.208.168.189.189,0,0,1-.168.208l-.375.04Zm1.5-.156a.189.189,0,0,1-.02-.377l.342-.035a.2.2,0,0,1,.224.168.175.175,0,0,1-.153.205l-.375.038Zm1.5-.151a.189.189,0,0,1-.018-.378l.374-.038a.192.192,0,0,1,.208.169.189.189,0,0,1-.169.208l-.376.038Zm33.329-.149a.186.186,0,0,1-.113-.037c-.1-.073-.2-.141-.3-.2a.189.189,0,1,1,.2-.321c.11.069.218.143.323.222a.189.189,0,0,1-.113.341Zm-31.826,0a.189.189,0,0,1-.018-.378l.376-.038a.189.189,0,0,1,.038.377l-.377.037Zm1.5-.145a.189.189,0,0,1-.016-.378l.377-.034a.2.2,0,0,1,.205.172.189.189,0,0,1-.172.205l-.377.034Zm1.506-.131a.189.189,0,0,1-.015-.378l.377-.031a.189.189,0,0,1,.031.377l-.377.031Zm1.507-.118a.189.189,0,0,1-.014-.378l.377-.028a.194.194,0,0,1,.2.175.19.19,0,0,1-.175.2l-.377.028Zm1.508-.105a.189.189,0,0,1-.012-.378l.378-.025a.189.189,0,1,1,.025.378l-.378.025Zm1.51-.094a.189.189,0,0,1-.011-.379l.379-.022a.184.184,0,0,1,.2.179.188.188,0,0,1-.179.2l-.377.022Zm1.51-.084a.189.189,0,0,1-.01-.378l.378-.019a.178.178,0,0,1,.2.179.189.189,0,0,1-.179.2l-.377.019ZM159.856,409a.178.178,0,0,1-.064-.012c-.115-.042-.232-.08-.349-.115a.189.189,0,1,1,.11-.362q.185.056.368.123a.189.189,0,0,1-.064.367Zm-19.919-.05-.025-.188.007-.19.362-.015a.2.2,0,0,1,.2.181.19.19,0,0,1-.182.2Zm1.506-.062-.022-.188.007-.19.363-.014a.192.192,0,0,1,.2.182.19.19,0,0,1-.183.2Zm1.5-.052-.018-.189.006-.19.366-.012a.189.189,0,0,1,.011.379Zm1.506-.044-.015-.189,0-.19.369-.009a.189.189,0,0,1,.009.378Zm1.495-.036a.189.189,0,0,1,0-.379l.377-.007h0a.189.189,0,0,1,0,.379l-.377.007Zm1.516-.029-.007-.378.376-.006h0a.189.189,0,0,1,0,.379Zm1.5-.022a.189.189,0,0,1,0-.378l.378,0h0a.189.189,0,0,1,0,.378l-.378,0Zm1.509-.016a.189.189,0,0,1,0-.379l.377,0h0a.189.189,0,0,1,0,.378l-.378,0Zm1.51-.012a.189.189,0,0,1,0-.378l.378,0h0a.189.189,0,0,1,0,.379l-.378,0Zm1.509-.035a.189.189,0,0,1-.011-.378l.375-.023a.189.189,0,0,1,.024.378l-.378.023Zm4.9,0-.029,0c-.124-.019-.246-.034-.368-.048a.19.19,0,0,1-.166-.21.193.193,0,0,1,.21-.167c.125.015.252.032.38.051a.189.189,0,0,1-.027.376ZM155,408.551a.189.189,0,0,1-.01-.378l.379-.019a.185.185,0,0,1,.2.182.189.189,0,0,1-.181.2l-.375.017Zm-7.545-.015h0Zm9.431-.024h0c-.128,0-.252,0-.373-.005a.189.189,0,1,1,0-.378h0c.124,0,.251,0,.381,0a.189.189,0,0,1,0,.379Z" transform="translate(-113.926 -408.13)" fill="#fbb03b"/>
              <path id="Trazado_160093" data-name="Trazado 160093" d="M162.085,441.609c-.129-3.907.024-7.818-.151-11.723a100.744,100.744,0,0,1-.367-11.054c.142-2.2,1.213-6.173-.562-7.961-1.888-1.9-5.918-1.131-8.283-1.119-7.87.042-15.687.249-23.521,1.061-2.07.214-4.142.406-6.208.659a39.456,39.456,0,0,0-5.977.854,1.79,1.79,0,0,0-1.427,1.838,54.806,54.806,0,0,0-.184,6.779c.055,4.521.157,9.042.183,13.564a42.45,42.45,0,0,0,.359,7.118,71.581,71.581,0,0,0,.033,7.533,3.686,3.686,0,0,0,3.661,3.788c3.821.271,7.724,0,11.563.191q11.894.579,23.79.958c1.5.05,3.777.54,5.183-.122a4.087,4.087,0,0,0,1.725-2.308C163.062,448.649,162.188,444.745,162.085,441.609Z" transform="translate(-114.06 -408.264)" fill="#fc4b52"/>
            </g>
            <g id="Grupo_115951" data-name="Grupo 115951">
              <g id="Grupo_115950" data-name="Grupo 115950">
                <g id="Grupo_115949" data-name="Grupo 115949">
                  <path id="Trazado_160094" data-name="Trazado 160094" d="M128.289,403.628v0c-.164-.16-.353-.3-.513-.456-.039-.038.01-.1.058-.077a3.013,3.013,0,0,1,.581.4l.179.15c.136.01.267.015.4.019a12.28,12.28,0,0,0-.944-1c-.054-.049.019-.122.073-.078a11.138,11.138,0,0,1,1.119,1.081.02.02,0,0,0,.015,0c0-.092,0-.179,0-.266s0-.174,0-.262c-.092-.122-.183-.238-.281-.354a7.139,7.139,0,0,0-.591-.6c-.039-.039.019-.093.058-.058a6.532,6.532,0,0,1,.814.779l.015.015a3.9,3.9,0,0,1,.064-.426c-.093-.092-.18-.2-.257-.291a5.907,5.907,0,0,1-.363-.5c-.02-.029.024-.068.048-.039.135.16.282.315.431.465.063.058.126.112.189.17a2.408,2.408,0,0,1,1.4-1.594c1.536-.867,4.006-.925,5.589-.993.3-.015.586-.019.882-.019a39.639,39.639,0,0,1,4.272.262c.116,0,.238,0,.354,0,.567-.005,1.318-.087,2.044-.093a4.291,4.291,0,0,1,1.637.209c1.22.494,1.123,2.179.963,3.487.208.019.378.039.489.044.828.039,1.86-.092,2.809-.087.015-.272.02-.557.01-.843a8.05,8.05,0,0,0-.915-3.1,2.911,2.911,0,0,0-.523-.658c-1.071-.751-2.553-.722-3.895-.838-.169-.015-.339-.025-.509-.039a1.388,1.388,0,0,1-.15-.01c-2.04-.009-4.078-.038-6.122-.038-.213,0-.426-.005-.645-.005-1.4-.009-2.819-.044-4.228,0a24.593,24.593,0,0,0-2.829.349,4.081,4.081,0,0,0-3.472,2.538,8.435,8.435,0,0,0-.379,2.509,9.427,9.427,0,0,0,1.265.218C127.713,403.594,128,403.613,128.289,403.628ZM165.44,432.08a5.552,5.552,0,0,1,.706,0,.515.515,0,0,1,.126.019,3.933,3.933,0,0,1,.368-1.531.148.148,0,0,1,.228-.029c0,.005.005.005.005.01a.252.252,0,0,1,.285-.189c.276.025.291.334.33.533a6.572,6.572,0,0,1,.083,1.283c.32-.058.785.058,1-.131.305-8.728.291-17.5.823-26.218a.577.577,0,0,0-.053-.145c-.194-.3-.7-.291-1-.311-.63-.044-1.259-.048-1.894-.067-.344-.015-.465.038-.519.212.223,8.728-.343,17.534-.484,26.262C165.44,431.876,165.44,431.978,165.44,432.08Zm9.014-26.534c3.25.344,3.119,3.856,3.066,6.34-.106,4.689-.227,9.378-.392,14.066-.16,4.568-.349,9.131-.421,13.7a81.386,81.386,0,0,1-.746,12.39c-.281,1.656-.252,3.584-1.38,4.94a5.5,5.5,0,0,1-3.43,1.759c-3.923.692-8.263.2-12.23.169q-4.816-.035-9.629-.154c-7.275.063-14.555-.427-21.82-.678-3.729-.131-7.459-.305-11.188-.286a82.3,82.3,0,0,1-10.206-.3,9.394,9.394,0,0,1-6.04-2.576c-1.657-1.812-1.89-4.331-2.054-6.665-.4-5.7-.687-11.435-.7-17.161-.073-2.412-.126-4.829-.174-7.246a100.05,100.05,0,0,1,.183-13.892c-.024-2.277.935-4.223,3.715-4.534,1.512-.169,3.047-.247,4.592-.281a.073.073,0,0,1,0-.034.183.183,0,0,1,.136-.18,8.727,8.727,0,0,1,2.916-.32c.339.014.823-.015,1.046.311a.792.792,0,0,1,.1.212c2.107.029,4.213.078,6.278.054q3.864-.05,7.735-.121c-.334-.639-.32-1.526.431-1.773a2.516,2.516,0,0,1,1.055-.058c-.3-1.912.32-4.47,2.214-5.226,3.013-1.2,7.023-.591,10.181-.591.359-.009.716-.019,1.075-.024.649-.01,1.3-.01,1.942,0,1.017-.01,2.034-.02,3.047-.025,1.376,0,3.173-.32,4.461.324,1.971.989,2.5,3.866,2.082,5.846a4.283,4.283,0,0,1,.814.126c.049,0,.1,0,.145,0a.265.265,0,0,1,.247.165.8.8,0,0,1,.315.644.274.274,0,0,1-.087.238c3.206.019,6.413.073,9.615.212,1.4.058,2.8.141,4.209.232.16-.445.726-.392,1.182-.411a16.362,16.362,0,0,1,1.889.039,1.95,1.95,0,0,1,1.042.189.669.669,0,0,1,.232.513c.547.048,1.094.1,1.636.131C172.507,405.672,173.5,405.444,174.454,405.546Zm1.812,41.253c.417-7.924.179-15.882.1-23.806-.044-4.074-.078-8.146-.151-12.22a7.453,7.453,0,0,0-.266-2.558c-.479-1.22-1.889-1.506-3.057-1.8a20.114,20.114,0,0,0-3.018-.479,3.212,3.212,0,0,1-.106.431c.068,7.28-.305,14.6-.62,21.884h0c.509.208.63.474.722,1.032a10.693,10.693,0,0,1,.078,2.809,1.423,1.423,0,0,1-1.018,1.3q-.479,12.352-1.1,24.7a19.156,19.156,0,0,0,2.31-.164c-.135-.3-.257-.61-.373-.911-.019-.044.054-.073.073-.029.165.291.34.6.485.911.15-.025.3-.049.445-.083-.038-.092-.073-.193-.111-.286-.087-.212-.165-.43-.247-.648-.02-.049.063-.083.087-.035.1.209.2.417.3.625.044.1.1.2.141.305.155-.038.315-.073.465-.121s.291-.092.431-.145c-.238-.141-.465-.315-.668-.455-.039-.029-.005-.093.038-.068.2.126.4.242.61.353.064.035.126.064.189.093a4.184,4.184,0,0,0,.422-.2,1.674,1.674,0,0,0-.417-.208.03.03,0,0,1,.015-.058,1.435,1.435,0,0,1,.513.208,5.414,5.414,0,0,0,1.685-1.521,4.931,4.931,0,0,1-1.351.436,16.714,16.714,0,0,1-4.165.3c-.039-.005-.039-.064,0-.064a19.225,19.225,0,0,0,3.2-.252,4.889,4.889,0,0,0,2.659-.94C175.98,452.767,176.13,449.371,176.266,446.8Zm-6.612-15.092a3.293,3.293,0,0,0-.528-2.974c-.049,1.027-.087,2.049-.126,3.071a.125.125,0,0,1,.029.111.572.572,0,0,1-.044.17v.063h-.029c-.232.431-.92.34-1.385.3-.005.193-.005.387,0,.571v.17a3.637,3.637,0,0,1,.9-.136C169.2,432.966,169.519,432.379,169.654,431.707Zm-1.434,9.59q.153-3.916.3-7.832a2.55,2.55,0,0,1-.949-.131,2.058,2.058,0,0,1-.286,1.187c-.509.683-.795-.025-.892-.542-.029-.151-.053-.311-.073-.475a2.068,2.068,0,0,1-.905.092q-.05,3.524-.087,7.058c.213.828.334,2.194,1.25,2.4a1.38,1.38,0,0,0,1.429-.785C168.114,441.961,168.138,441.621,168.22,441.3Zm-.063,1.5c-.019.034-.039.063-.058.1a1.823,1.823,0,0,1-1.424.746c-.911-.058-1.23-.726-1.361-1.487-.058,5.338-.1,10.681-.179,16.023.43-.015.862-.025,1.288-.044.344-.015.7-.019,1.052-.029Q167.852,450.453,168.157,442.8Zm-1.385-8.656c.683.232.5-1.361.494-1.691-.015-.31-.025-.619-.039-.934,0-.1-.092-.921-.193-.809a.075.075,0,0,1-.058.034.115.115,0,0,0,0,.039c.01.077-.1.1-.141.039.141.218-.1,1.245-.131,1.579C166.69,432.665,166.525,434.06,166.773,434.143Zm-.485-.973c-.019-.218-.025-.446-.025-.674a1.159,1.159,0,0,0-.44-.077c-.189-.015-.378-.039-.571-.058a.141.141,0,0,1-.131-.174.564.564,0,0,1,.019-.083h-.068c.005-.106.005-.218.01-.324q.022-1.534.039-3.066l-.436.378c-.064.189-.131.382-.194.571a6.931,6.931,0,0,0-.092,1,4.351,4.351,0,0,0,.039,1.565C164.708,433.053,165.513,433.135,166.288,433.169Zm-.678-25.966c0-.073-.009-.145-.009-.218-.024-.422-.1-.916-.1-1.367-7.672-.542-15.349-.6-23.042-.4-8.055.208-16.1.552-24.149.905q-4.266.189-8.525.388c-.01.092-.025.18-.035.262.344,7.168.18,14.4.087,21.579a.21.21,0,0,1,.151.063,2.076,2.076,0,0,1,.523,1.376,8.608,8.608,0,0,1,.1,2.364,1.631,1.631,0,0,1-.815,1.123c-.058,7.251-.106,14.512-.382,21.753-.015.567-.039,1.133-.063,1.7.538.035,1.061.064,1.55.093q5.006.283,10.012.542c1.831.092,3.657.184,5.487.266a4.7,4.7,0,0,1,.746-1.719.041.041,0,0,1,.034-.015.036.036,0,0,1,.034.058,14.05,14.05,0,0,0-.76,1.675c.174.01.349.02.523.025a14.9,14.9,0,0,1,.625-1.356c.015-.035.068-.01.058.024a12.936,12.936,0,0,1-.6,1.337q5.775.262,11.557.427c1.744.058,3.482.1,5.226.135.029-.212.077-.426.121-.629a7.135,7.135,0,0,1,.276-1.1.043.043,0,0,1,.083.024c-.054.349-.15.687-.213,1.036-.044.218-.067.45-.106.674.174,0,.353,0,.528.009a4.128,4.128,0,0,1,.093-.469c.048-.232.1-.47.145-.7,0-.038.063-.019.058.014-.039.238-.073.475-.112.717a3.439,3.439,0,0,1-.068.446c.479.009.96.019,1.439.024q6.974.117,13.954.035c.16,0,.32-.005.479-.01-.01-.344.019-.7.019-1.032a.059.059,0,0,1,.063-.058.056.056,0,0,1,.058.058c0,.334.029.687.02,1.027.183,0,.363-.005.542-.01a5.918,5.918,0,0,0-.034-.819c-.01-.063.087-.1.1-.029a4.436,4.436,0,0,1,.092.848q1.693-.037,3.4-.087c-.009-8.224.131-16.444.272-24.664a1.864,1.864,0,0,1-.479-.208,1.453,1.453,0,0,1-.494-1.453c.039-.731-.083-3.478,1.046-3.652C165.188,421.22,165.144,414.173,165.609,407.2Zm-18.319-2.5q1.861-.007,3.72,0a.5.5,0,0,0-.257-.407c-.891-.077-3.076-.073-3.439-.067a6.784,6.784,0,0,0-2.858.334.9.9,0,0,0-.121.154C145.32,404.713,146.308,404.7,147.291,404.7Zm-1.356-1.21a3.728,3.728,0,0,0-.048-1.608,2.4,2.4,0,0,0-.562-.9,11.574,11.574,0,0,0-4.011-.5c-1.293-.049-2.586,0-3.879.077a38.6,38.6,0,0,0-4.427.421,6.117,6.117,0,0,0-1.919.514c-.808.518-.862,1.37-1,2.165a6.4,6.4,0,0,0,1.38-.189.51.51,0,0,1,.616.615c-.015.257-.029.514-.039.77,0,.01,0,.025,0,.034q6-.117,12-.174v-.039C143.058,403.381,144.685,403.381,145.935,403.493Zm-21.384,1.55q3.219-.065,6.436-.126c-.092-.562-.222-.528-.9-.625a11.55,11.55,0,0,0-1.957-.073,30.892,30.892,0,0,1-3.507.31A1.158,1.158,0,0,1,124.551,405.043Zm-14.182,26.291c.029-.693.112-2.03-.533-2.509-.01.756-.019,1.507-.025,2.262,0,.232,0,.47,0,.7a1,1,0,0,1-.116,0,1.27,1.27,0,0,1-1.3.281,10.6,10.6,0,0,1-.019,1.158C109.511,433.091,110.306,432.636,110.368,431.333Zm-.95-23.142c-.009-.116-.019-.232-.029-.344-.044-.731.073-1.855-.45-2.378a2.989,2.989,0,0,0-2.339-.242c-.33-.077-.519.039-.571.359a.892.892,0,0,0-.16.31c.59,8.341.343,16.827.43,25.187,0,.145,0,.291.005.436a.03.03,0,0,1,.019,0,5.686,5.686,0,0,0,.577.145.907.907,0,0,1,.3.093c-.019-.838.015-2.166.514-2.262h0a.156.156,0,0,1,.058-.025c.877-.135.606,1.807.6,2.258a.987.987,0,0,0,0,.111c.2-.067.455-.024.658-.087a1.723,1.723,0,0,0,.354-.2c0-.154,0-.31,0-.465C109.467,423.468,109.23,415.814,109.418,408.191Zm-.213,34.38q.094-4.548.16-9.1a1.888,1.888,0,0,1-1.027.015c-.063.451-.193.819-.469.863-.412.063-.568-.382-.626-.872a1.988,1.988,0,0,1-.924.087q.044,4.541.067,9.082c.141.983.688,2.073,1.8,1.428A2.731,2.731,0,0,0,109.206,442.571Zm-.252,14.139c.049-4.321.141-8.646.228-12.972a1.851,1.851,0,0,1-1.419.925,1.32,1.32,0,0,1-1.366-.872q.037,6.343.063,12.686C107.3,456.588,108.145,456.656,108.953,456.71Zm-.939-23.9c.029-.359.048-.717.053-1.075,0-.194-.019-1.967-.2-1.938a.151.151,0,0,1-.15-.048,5.553,5.553,0,0,0-.252,2.131,2.917,2.917,0,0,0,.248,1.714C108.164,434.2,107.985,433.14,108.015,432.806Zm-.785.474c-.024-.382,0-.756-.009-.915,0-.063-.005-.174-.01-.31a.58.58,0,0,1-.218.048,3.067,3.067,0,0,1-.785-.15.192.192,0,0,1-.145-.15h-.073c0-.242,0-.479,0-.722-.01-.8-.025-1.613-.039-2.422-1.051.382-.833,1.981-.795,2.853a1.525,1.525,0,0,0,1.085,1.617C106.575,433.218,106.9,433.208,107.229,433.28Zm-1.157,23.139c.044-7.643.009-15.287-.064-22.93a1.849,1.849,0,0,1-1.215-1.836c.019-.905-.17-3.186,1.148-3.3-.145-7.212-.514-14.458-.359-21.656-1.961,0-5.265-.354-6.427,1.162-.736.964-.94,2.737-1.124,3.908a.3.3,0,0,1-.038.093c0,4-.349,7.977-.421,11.978-.044,2.32-.035,4.64.009,6.955.2,5.076.4,10.152.8,15.218.189,2.33.212,5.091,1.361,7.184a3.511,3.511,0,0,0,1.912,1.206c1.091.266,2.233.131,3.318.4.087.019.049.145-.034.131-1.4-.276-3.212-.1-4.461-.92a3.29,3.29,0,0,1-.5-.421c.1.145.193.285.3.421a7.21,7.21,0,0,0,2.616,1.623,3.177,3.177,0,0,1,.262-.553.061.061,0,0,1,.111.049,3.341,3.341,0,0,1-.237.557,3.078,3.078,0,0,0,.3.1.529.529,0,0,1,.237-.4c.034-.019.073.024.054.058a1.311,1.311,0,0,0-.151.388A16.259,16.259,0,0,0,106.072,456.419Z" transform="translate(-96.956 -397.256)" fill="#333"/>
                  <path id="Trazado_160095" data-name="Trazado 160095" d="M182.5,451.484c.029.019.029.077-.015.082a1.194,1.194,0,0,1-.5-.067c-.112-.029-.064-.194.048-.17A1.211,1.211,0,0,1,182.5,451.484Z" transform="translate(-104.766 -402.226)" fill="#333"/>
                  <path id="Trazado_160096" data-name="Trazado 160096" d="M181.487,452.369c.305-.024.765.228.716.587a.082.082,0,0,1-.131.034,2.325,2.325,0,0,0-.189-.3.642.642,0,0,0-.4-.174A.075.075,0,0,1,181.487,452.369Z" transform="translate(-104.72 -402.322)" fill="#333"/>
                  <path id="Trazado_160097" data-name="Trazado 160097" d="M181.5,413.226c.048.029.019.122-.044.1l-.194-.073c-.116-.044-.034-.208.058-.145C181.38,413.149,181.438,413.188,181.5,413.226Z" transform="translate(-104.7 -398.712)" fill="#333"/>
                  <path id="Trazado_160098" data-name="Trazado 160098" d="M180.726,414.372c.222-.126.639.092.469.372a.067.067,0,0,1-.121-.015c-.029-.106-.116-.276-.262-.212C180.712,414.561,180.625,414.425,180.726,414.372Z" transform="translate(-104.652 -398.826)" fill="#333"/>
                  <path id="Trazado_160099" data-name="Trazado 160099" d="M174.345,442.394a.383.383,0,0,1,.063.363.429.429,0,0,1-.45.417.5.5,0,0,1-.311-.877.436.436,0,0,1,.616.025.047.047,0,0,1,0-.025c.019.02.034.049.053.073l.015.015a.184.184,0,0,1-.015-.029C174.316,442.351,174.325,442.365,174.345,442.394Z" transform="translate(-103.991 -401.385)" fill="#333"/>
                  <path id="Trazado_160100" data-name="Trazado 160100" d="M174.111,445.014a.5.5,0,0,1,0,.993A.5.5,0,0,1,174.111,445.014Z" transform="translate(-104.004 -401.646)" fill="#333"/>
                  <path id="Trazado_160101" data-name="Trazado 160101" d="M173.961,439.8a.4.4,0,0,1,0,.79A.4.4,0,0,1,173.961,439.8Z" transform="translate(-104 -401.167)" fill="#333"/>
                  <path id="Trazado_160102" data-name="Trazado 160102" d="M165.52,462.153c.145,0,.145.232,0,.227-1.182-.034-2.359-.067-3.541-.1q-7.47-.2-14.933-.369l-7.463-.174q-5.522-.131-11.039-.281-3.255-.087-6.5-.184-5.18-.153-10.35-.349a.011.011,0,0,1-.01-.01c0-.009.005-.015.01-.015C129.634,461.058,147.584,461.7,165.52,462.153Z" transform="translate(-98.31 -403.106)" fill="#333"/>
                  <path id="Trazado_160103" data-name="Trazado 160103" d="M169.337,463.665c.048.048-.015.111-.068.087a1.03,1.03,0,0,1-.407-.392c-.039-.064.058-.112.1-.058A2.236,2.236,0,0,0,169.337,463.665Z" transform="translate(-103.565 -403.325)" fill="#333"/>
                  <path id="Trazado_160104" data-name="Trazado 160104" d="M155.807,405.409q-1.861-.007-3.72,0c-.983,0-1.971.01-2.954.015a.9.9,0,0,1,.121-.154,6.783,6.783,0,0,1,2.858-.334c.363-.005,2.548-.01,3.439.067A.5.5,0,0,1,155.807,405.409Z" transform="translate(-101.752 -397.961)" fill="#2bb3ac"/>
                  <path id="Trazado_160105" data-name="Trazado 160105" d="M154.593,402.747c.01.286,0,.571-.01.843-.949,0-1.981.126-2.809.087-.112,0-.282-.025-.489-.044.16-1.308.257-2.993-.963-3.487a4.29,4.29,0,0,0-1.637-.209l-.01-.571a.054.054,0,0,0,.058-.039.4.4,0,0,0,.01-.111.063.063,0,0,0-.068-.064l.077-1.046c.17.014.34.025.509.039,1.342.116,2.824.087,3.895.838a2.912,2.912,0,0,1,.523.658A8.05,8.05,0,0,1,154.593,402.747Zm-2.243.126c.068.019.116-.083.049-.116a2.288,2.288,0,0,0-.4-.131c-.053-.015-.087.063-.038.087A2.839,2.839,0,0,0,152.35,402.873Zm0,.576a.063.063,0,0,0,.048-.116c-.189-.1-.387-.164-.576-.276-.044-.024-.083.044-.039.073A1.528,1.528,0,0,0,152.345,403.449Zm-.15-1.283c.063,0,.063-.121,0-.131a.553.553,0,0,0-.16,0,.073.073,0,1,0,0,.145A.592.592,0,0,0,152.2,402.166Z" transform="translate(-101.71 -397.334)" fill="#a7e446"/>
                  <path id="Trazado_160106" data-name="Trazado 160106" d="M152.729,403.215c.067.034.019.135-.049.116a2.831,2.831,0,0,1-.387-.16c-.049-.024-.015-.1.038-.087A2.288,2.288,0,0,1,152.729,403.215Z" transform="translate(-102.041 -397.791)" fill="#a7e446"/>
                  <path id="Trazado_160107" data-name="Trazado 160107" d="M152.706,403.834a.063.063,0,0,1-.048.116,1.528,1.528,0,0,1-.567-.32c-.044-.029,0-.1.039-.073C152.319,403.669,152.517,403.732,152.706,403.834Z" transform="translate(-102.023 -397.834)" fill="#a7e446"/>
                  <path id="Trazado_160108" data-name="Trazado 160108" d="M152.528,402.432c.063.01.063.126,0,.131a.592.592,0,0,1-.16.01.073.073,0,1,1,0-.145A.555.555,0,0,1,152.528,402.432Z" transform="translate(-102.043 -397.731)" fill="#a7e446"/>
                  <path id="Trazado_160109" data-name="Trazado 160109" d="M151.5,462.9c.009.058-.078.058-.093.014a5.908,5.908,0,0,1-.164-.828.03.03,0,1,1,.058-.015A6.2,6.2,0,0,1,151.5,462.9Z" transform="translate(-101.946 -403.212)" fill="#333"/>
                  <path id="Trazado_160110" data-name="Trazado 160110" d="M151.083,463.4a.046.046,0,0,1-.048.049.051.051,0,0,1-.039-.025,6.906,6.906,0,0,1-.407-1.327.036.036,0,0,1,.034-.044.034.034,0,0,1,.029.024A6.487,6.487,0,0,1,151.083,463.4Z" transform="translate(-101.886 -403.212)" fill="#333"/>
                  <path id="Trazado_160111" data-name="Trazado 160111" d="M148.058,398.1l-.077,1.046a.064.064,0,0,0-.063.064.28.28,0,0,0,.009.111.052.052,0,0,0,.054.039l.01.571c-.726.005-1.477.087-2.044.093-.116,0-.238,0-.354,0a39.647,39.647,0,0,0-4.272-.262l0-.382a.081.081,0,0,0,.063-.116,1.148,1.148,0,0,0-.193-.262.061.061,0,0,0-.054-.025l.009-.935c.219,0,.431.005.645.005,2.044,0,4.083.029,6.122.038A1.388,1.388,0,0,0,148.058,398.1Z" transform="translate(-101.017 -397.328)" fill="#a7e446"/>
                  <path id="Trazado_160112" data-name="Trazado 160112" d="M148.736,399.323a.4.4,0,0,1-.01.111.054.054,0,0,1-.058.039.052.052,0,0,1-.054-.039.28.28,0,0,1-.009-.111.064.064,0,0,1,.063-.064A.063.063,0,0,1,148.736,399.323Z" transform="translate(-101.704 -397.44)" fill="#a7e446"/>
                  <path id="Trazado_160113" data-name="Trazado 160113" d="M143.5,462.45a.046.046,0,0,1,0,.093A.046.046,0,0,1,143.5,462.45Z" transform="translate(-101.23 -403.248)" fill="#333"/>
                  <path id="Trazado_160114" data-name="Trazado 160114" d="M142.871,462.972a.063.063,0,0,1-.044.1.072.072,0,0,1-.029-.009,2.9,2.9,0,0,1-.44-.4.041.041,0,0,1,.029-.068s.009.005.019.01A2.865,2.865,0,0,1,142.871,462.972Z" transform="translate(-101.129 -403.262)" fill="#333"/>
                  <path id="Trazado_160115" data-name="Trazado 160115" d="M141.369,399.364a.081.081,0,0,1-.063.116.083.083,0,0,1-.044-.014,1.144,1.144,0,0,1-.223-.257c-.044-.058.019-.131.083-.131a.061.061,0,0,1,.054.025A1.149,1.149,0,0,1,141.369,399.364Z" transform="translate(-101.007 -397.423)" fill="#a7e446"/>
                  <path id="Trazado_160116" data-name="Trazado 160116" d="M140.213,399.383l0,.382c-.3,0-.587,0-.882.019-1.584.068-4.054.126-5.589.993a2.408,2.408,0,0,0-1.4,1.594c-.063-.058-.126-.112-.189-.17-.15-.15-.3-.305-.431-.465-.025-.029-.068.01-.048.039a5.9,5.9,0,0,0,.363.5c.077.092.164.2.257.291a3.906,3.906,0,0,0-.064.426l-.015-.015a6.53,6.53,0,0,0-.814-.779c-.039-.035-.1.019-.058.058a7.146,7.146,0,0,1,.591.6c.1.116.189.232.281.354,0,.087,0,.174,0,.262s0,.174,0,.266a.02.02,0,0,1-.015,0,11.135,11.135,0,0,0-1.119-1.081c-.054-.044-.126.029-.073.078a12.288,12.288,0,0,1,.944,1c-.135,0-.266-.009-.4-.019l-.179-.15a3.014,3.014,0,0,0-.581-.4c-.048-.019-.1.039-.058.077.16.16.349.3.513.456v0c-.291-.015-.576-.034-.852-.044a9.422,9.422,0,0,1-1.265-.218,8.435,8.435,0,0,1,.379-2.509,4.081,4.081,0,0,1,3.473-2.538,24.587,24.587,0,0,1,2.829-.349c1.409-.039,2.824,0,4.228,0l-.009.935c-.064,0-.126.073-.083.131a1.143,1.143,0,0,0,.223.257A.083.083,0,0,0,140.213,399.383Zm-.611.2a.493.493,0,0,0-.247-.4c-.087-.063-.174.068-.111.135a2.037,2.037,0,0,1,.183.315A.1.1,0,0,0,139.6,399.587Zm-7.221,1.38a.073.073,0,0,0,.029-.122c-.189-.169-.553-.092-.78-.048a.064.064,0,0,0,.015.126,2.222,2.222,0,0,1,.44.024A.609.609,0,0,0,132.381,400.967Zm-.02-.572c.058.005.068-.077.025-.106a1.343,1.343,0,0,0-.436-.155c-.083-.024-.107.093-.035.126A1.432,1.432,0,0,0,132.361,400.395Z" transform="translate(-99.914 -397.326)" fill="#a7e446"/>
                  <path id="Trazado_160117" data-name="Trazado 160117" d="M140.377,399.3a.493.493,0,0,1,.247.4.1.1,0,0,1-.174.048,2.036,2.036,0,0,0-.183-.315C140.2,399.368,140.289,399.238,140.377,399.3Z" transform="translate(-100.935 -397.442)" fill="#a7e446"/>
                  <path id="Trazado_160118" data-name="Trazado 160118" d="M133.78,405.62q-3.219.065-6.436.126a1.158,1.158,0,0,0,.077-.514,30.871,30.871,0,0,0,3.507-.31,11.547,11.547,0,0,1,1.957.073C133.558,405.093,133.689,405.058,133.78,405.62Z" transform="translate(-99.749 -397.959)" fill="#2bb3ac"/>
                  <path id="Trazado_160119" data-name="Trazado 160119" d="M132.658,401.12a.073.073,0,0,1-.029.122.61.61,0,0,1-.3-.02,2.217,2.217,0,0,0-.44-.024.064.064,0,0,1-.015-.126C132.105,401.029,132.469,400.952,132.658,401.12Z" transform="translate(-100.162 -397.601)" fill="#a7e446"/>
                  <path id="Trazado_160120" data-name="Trazado 160120" d="M132.663,400.5c.044.029.034.112-.025.106a1.432,1.432,0,0,1-.446-.135c-.073-.034-.048-.15.035-.126A1.342,1.342,0,0,1,132.663,400.5Z" transform="translate(-100.191 -397.539)" fill="#a7e446"/>
                  <path id="Trazado_160121" data-name="Trazado 160121" d="M124.034,462.215a3.832,3.832,0,0,1-.009.707.051.051,0,0,1-.1,0,4.274,4.274,0,0,1-.01-.707A.058.058,0,0,1,124.034,462.215Z" transform="translate(-99.434 -403.222)" fill="#333"/>
                  <path id="Trazado_160122" data-name="Trazado 160122" d="M123.367,463.021a.047.047,0,0,1-.044.038.026.026,0,0,1-.025-.015,1.076,1.076,0,0,1-.184-.469,4.284,4.284,0,0,1-.092-.567.04.04,0,0,1,.044-.048.053.053,0,0,1,.058.048,3.861,3.861,0,0,0,.116.571A2.01,2.01,0,0,1,123.367,463.021Z" transform="translate(-99.352 -403.203)" fill="#333"/>
                  <path id="Trazado_160123" data-name="Trazado 160123" d="M109,445.957a.531.531,0,0,1,.257.62.417.417,0,0,1-.6.247.544.544,0,0,1-.266-.62.415.415,0,0,1,.455-.3A.49.49,0,0,1,109,445.957Z" transform="translate(-98.006 -401.727)" fill="#333"/>
                  <path id="Trazado_160124" data-name="Trazado 160124" d="M109.206,440.939a.375.375,0,0,1-.151.407.407.407,0,0,1-.063.1.281.281,0,0,1-.46-.1.406.406,0,0,1-.193-.285.46.46,0,0,1,.8-.33l.005,0A1.668,1.668,0,0,1,109.206,440.939Z" transform="translate(-98.002 -401.228)" fill="#333"/>
                  <path id="Trazado_160125" data-name="Trazado 160125" d="M109.07,443.82c.126.291-.232.677-.523.459a.072.072,0,0,1-.024-.019.39.39,0,0,1-.175-.421.378.378,0,0,1,.364-.276.373.373,0,0,1,.329.2c.005,0,.01.009.01.015s.01.024.015.034S109.07,443.814,109.07,443.82Z" transform="translate(-98.002 -401.512)" fill="#333"/>
                  <path id="Trazado_160126" data-name="Trazado 160126" d="M100.96,413.851a.428.428,0,0,1,.1.32.052.052,0,0,1-.083.024c-.145-.189-.388-.3-.489-.523-.058-.131.015-.324.189-.247.058.025.054.106.02.151l-.01,0s.01,0,.01.01a.518.518,0,0,1,.053.058c.025.019.049.044.073.063A1.715,1.715,0,0,1,100.96,413.851Z" transform="translate(-97.279 -398.74)" fill="#333"/>
                  <path id="Trazado_160127" data-name="Trazado 160127" d="M100.653,415.61c.044.044.005.136-.063.112a1.955,1.955,0,0,1-.31-.174c-.1-.063-.005-.228.092-.16A2.037,2.037,0,0,1,100.653,415.61Z" transform="translate(-97.258 -398.921)" fill="#333"/>
                  <path id="Trazado_160128" data-name="Trazado 160128" d="M100.388,443.109a.068.068,0,0,1,.053.122,1.379,1.379,0,0,1-.183.106c-.093.049-.17-.092-.078-.135A1.594,1.594,0,0,1,100.388,443.109Z" transform="translate(-97.249 -401.47)" fill="#333"/>
                  <path id="Trazado_160129" data-name="Trazado 160129" d="M100.308,441.443a.071.071,0,0,1,0,.136.609.609,0,0,0-.339.179c-.058.068-.145-.019-.112-.087A.364.364,0,0,1,100.308,441.443Z" transform="translate(-97.222 -401.315)" fill="#333"/>
                </g>
              </g>
            </g>
            <g id="Grupo_115952" data-name="Grupo 115952" transform="translate(19.365 40.479)">
              <path id="Trazado_160130" data-name="Trazado 160130" d="M126.727,441.833c-1.31.106-2.633.033-3.937.191a8.292,8.292,0,0,0-3.663,1.557,1.777,1.777,0,1,0,2.162,2.8c1.764-1.374,3.4-3.362,5.486-4.2C126.944,442.115,126.946,441.815,126.727,441.833Z" transform="translate(-118.281 -441.832)" fill="#fff" opacity="0.5"/>
              <path id="Trazado_160131" data-name="Trazado 160131" d="M125.481,446.757c-1.259,1.25-3.326,2.969-3.481,4.831a1.081,1.081,0,0,0,2,.541,9.781,9.781,0,0,0,.563-2.589,7.873,7.873,0,0,1,1.087-2.653C125.716,446.783,125.568,446.672,125.481,446.757Z" transform="translate(-118.623 -442.282)" fill="#fff"/>
            </g>
            <g id="Grupo_115953" data-name="Grupo 115953" transform="translate(52.344 13.086)">
              <path id="Trazado_160132" data-name="Trazado 160132" d="M156.632,412.434a27.427,27.427,0,0,1-.381,3.429,7.948,7.948,0,0,1-1.641,3.411c-.035.038.018.094.06.066,2.155-1.441,4.4-3.929,3.895-6.783C158.387,411.559,156.777,411.244,156.632,412.434Z" transform="translate(-154.599 -411.667)" fill="#fff" opacity="0.43"/>
              <path id="Trazado_160133" data-name="Trazado 160133" d="M161.476,412.99a7.789,7.789,0,0,1-.427,2.266,6.325,6.325,0,0,1-1.424,2.073.135.135,0,0,0,.153.222,5.614,5.614,0,0,0,3.3-4.459C163.107,412.17,161.624,412.1,161.476,412.99Z" transform="translate(-155.056 -411.731)" fill="#fff"/>
            </g>
          </g>
          <g id="Grupo_115956" data-name="Grupo 115956" transform="translate(142.56 45.395)">
            <path id="Trazado_160134" data-name="Trazado 160134" d="M258.4,405.086a1.025,1.025,0,0,0-.291-.236.861.861,0,0,0-.717-.175c-.041.009-.075.031-.114.044a1.975,1.975,0,0,0-.449.114,2.042,2.042,0,0,0-.432.241h-.01a1.784,1.784,0,0,0-1.39,1.275,1.725,1.725,0,0,0,0,.948c.1.342.58.837.491,1.2a.554.554,0,0,0,.863.575,2.619,2.619,0,0,0,.841-.489,4.53,4.53,0,0,0,1.234-1.724A1.685,1.685,0,0,0,258.4,405.086Z" transform="translate(-254.038 -404.265)" fill="#a7e446"/>
            <path id="Trazado_160135" data-name="Trazado 160135" d="M271.863,438.243a.456.456,0,0,0,0-.778,8.077,8.077,0,0,0-2.935-1.327.42.42,0,0,0-.528.412c-.2-.026-.421.12-.34.369.008.026.022.048.031.074h0a2.973,2.973,0,0,0,1.175,1.524l.041.042a.472.472,0,0,0,.388.267c.3.031.6.064.9.1a.472.472,0,0,0,.7.308c.152-.088.3-.183.445-.278a.467.467,0,0,0,.113-.707Z" transform="translate(-255.243 -407.158)" fill="#a7e446"/>
            <path id="Trazado_160136" data-name="Trazado 160136" d="M315.433,414.429c-.025-.025-.053-.049-.078-.074a.482.482,0,0,0,.178-.169,1.851,1.851,0,0,0,.033-1.935.454.454,0,0,0-.158-.167,2.817,2.817,0,0,0-.933-.971.4.4,0,0,0-.286-.607,15.022,15.022,0,0,0-3.606-.288c-.38.018-.684.539-.341.824q1.184.983,2.369,1.963c.213.175,1.112.786,1.718,1.319a.273.273,0,0,0-.074.272,1.4,1.4,0,0,0,.855.855.314.314,0,0,0,.382-.217.9.9,0,0,0,.005-.532A.241.241,0,0,0,315.433,414.429Z" transform="translate(-259.109 -404.775)" fill="#a7e446"/>
            <path id="Trazado_160137" data-name="Trazado 160137" d="M326.134,433.175c-.808-1.181-2.379-1.608-3.693-1.892a.478.478,0,0,0-.472.166,6.2,6.2,0,0,0-1.9.542.263.263,0,0,0-.083.37.08.08,0,0,0,.012.084,24.2,24.2,0,0,0,2.965,3.156.268.268,0,0,0,.152.3,2.951,2.951,0,0,1,.863.6.324.324,0,0,0,.534-.233.462.462,0,0,0,.133-.075C325.54,435.43,327.007,434.45,326.134,433.175Z" transform="translate(-260.015 -406.712)" fill="#a7e446"/>
            <g id="Grupo_115955" data-name="Grupo 115955">
              <path id="Trazado_160138" data-name="Trazado 160138" d="M321.353,431.361c-.123-.235-.251-.448-.382-.65l.19-.141c.048-.035-.005-.112-.057-.085l-.212.1c-2.524-3.709-6.525-1.6-10.173-.412-1.768.576-3.366,1.053-5.2.492a10.985,10.985,0,0,1-3.9-2.566,19.055,19.055,0,0,0-3.077-2.17,10.437,10.437,0,0,0-1.309-1.071c2.83-1.977,5.649-3.967,8.431-6.012,1.9-1.4,4.8-2.851,5.643-5.231a3.114,3.114,0,0,0-1.676-3.868c-2.014-1.092-4.45-.283-6.463.354-3.126.99-6.313,1.839-9.4,2.939-2.847,1.012-5.9,1.951-8.632,3.194-.718-.487-1.457-.924-2.129-1.332a.493.493,0,0,0-.371-.052,1.506,1.506,0,0,0-.53-.041.432.432,0,0,0-.089-.109,60.994,60.994,0,0,0-10.2-6.843c-2.667-1.415-5.653-3.188-8.746-3.229-.658-.009-1.309.083-1.965.105a30.933,30.933,0,0,1-3.773-.464,4.038,4.038,0,0,0-2.188.228,1.935,1.935,0,0,0-1.066,1.23.22.22,0,0,0-.123.24c.018.085.045.167.065.252a1.69,1.69,0,0,0,.152.587c1.489,5.216,6.057,9.021,10.234,12.175,2.514,1.9,5.136,3.653,7.81,5.33-.133.228-.27.453-.406.679a19.266,19.266,0,0,0-1.253,1.951,21.729,21.729,0,0,0-2.648-2.375,1.812,1.812,0,0,0-.646-1.086,1.627,1.627,0,0,0-1.867-.214c-2.359-.1-6.5,5.3-3.729,6.877a1.776,1.776,0,0,0,.529.2,16.453,16.453,0,0,0,4.6,2.832l.033.015c-1.651,1.488-1.137,4.041,1.522,3.9,1.751-.09,3.413-1.539,4.875-2.37,2.55-1.448,5.145-2.814,7.81-4.038a.168.168,0,0,0,.045-.01c.017-.009.033-.022.05-.031a.2.2,0,0,0,.175-.009c.075-.042.145-.09.219-.134.212-.113.438-.186.646-.308l1.066.607c6.258,3.558,12.745,6.921,19.733,8.788a46.077,46.077,0,0,0,4.727,1.006c1.175.184,2.84.706,4.026.306a1.418,1.418,0,0,0,1.062-1.076,15.321,15.321,0,0,0,3.189,1.639c1.677.531,2.188-.7,1.3-2.158a8.252,8.252,0,0,0-2.649-2.386c.866-.615,1.711-1.264,2.547-1.923.151.137.3.272.459.4.058.048.142-.046.089-.1-.135-.138-.276-.272-.418-.405,1.32-1.044,2.624-2.112,3.966-3.117A.349.349,0,0,0,321.353,431.361ZM303.1,420.3c-2.1,1.447-4.219,2.935-6.45,4.176a15.013,15.013,0,0,1-2.112.984,9.079,9.079,0,0,1-1.724-1.332c-.5-.979.6-2.186,1.234-2.74a26.376,26.376,0,0,1,4.724-2.986l.175-.1a.022.022,0,0,0,0,.028c1.027.874,2.053,1.77,3.129,2.583.071.053.14-.056.076-.112-1.021-.877-2.112-1.688-3.183-2.5a.017.017,0,0,0-.026,0c1.719-.973,9.81-5.723,10.544-2.982a.285.285,0,0,0,.024.05c-.11.141-.224.281-.354.42C307.519,417.559,305.069,418.945,303.1,420.3Zm-6.663-7.727a66.506,66.506,0,0,1,6.8-2.168,11.849,11.849,0,0,1,3.96-.618c2.955.255,4.177,2.682,2.656,5.107-.711-2.524-5.808.715-6.927,1.249-3.838,1.832-8.728,3.772-11.032,7.565a.185.185,0,0,0,.048.252c.781.552,1.558,1.091,2.376,1.58a9.058,9.058,0,0,1-5.843.092c-1.035-.315-2.062-.7-3.079-1.119a3.2,3.2,0,0,0,2.148-.218,3.786,3.786,0,0,0,.936-4.449,7.537,7.537,0,0,0-2.562-3.054c.483-.205.983-.411,1.477-.634C290.5,415.545,293.657,413.64,296.433,412.578Zm-15.06,3.05c.223-.072.473.019.752.284a1.462,1.462,0,0,0-.665.378c-.536.508-2.627,2.486-2.391,3.6a.67.67,0,0,1-.09-.556,1.732,1.732,0,0,1,.113-.232,4.833,4.833,0,0,1,.347-.776,12.8,12.8,0,0,1,1.885-2.6A.22.22,0,0,0,281.373,415.628Zm1.322,1.063a1.153,1.153,0,0,0,0-.466q1.036.285.455,1.314a3.471,3.471,0,0,1-.353.812,6.107,6.107,0,0,1-1.189,1.6c-.656.647-.707.8-1.427.485a1.647,1.647,0,0,0,.47-.339.446.446,0,0,0,.174-.137c.094-.13.181-.263.27-.395A6.144,6.144,0,0,0,282.695,416.691Zm-2.249,4.791a6.865,6.865,0,0,0,3.131-4.3,3.179,3.179,0,0,0,.044-.889c.834.549,1.916,1.44,2.145,1.625,1.326,1.073,2.749,2.8,2.11,4.654-.735,2.129-2.779,1.04-4.24.5a14.6,14.6,0,0,1-3.307-1.549C280.367,421.511,280.406,421.5,280.446,421.482Zm5.117-5.127c-.047.027-.1.051-.143.078l-.113-.079C285.392,416.356,285.477,416.356,285.563,416.355Zm-23.644,10.93a8.436,8.436,0,0,1,1.993-2.759,12.513,12.513,0,0,0-1,1.412c-.076.124-.157.266-.235.42-.766,1.2-1.359,2.718.31,2.8a2.006,2.006,0,0,0,1.426-.681,5.729,5.729,0,0,0,1.2-1.236,11.9,11.9,0,0,0,1.652-2.366q.158.142.318.281a5.764,5.764,0,0,1-1.947,3.307,4.149,4.149,0,0,1-2.564,1.246C261.615,429.7,261.494,428.339,261.918,427.286Zm3.352,4.279c-.688-.389-1.433-.785-2.135-1.236a7.078,7.078,0,0,0,4.773-4.89c.568.484,1.142.96,1.694,1.466a16.61,16.61,0,0,1,1.58,1.579l.781,1.123q1.3,2.016-.924,2.747c-1.507,1.137-1.633,1.049-3.248.455A17.5,17.5,0,0,1,265.27,431.564Zm4.871,2.64a.34.34,0,0,0,.04.087c0,.014,0,.029,0,.044-.048-.094-.093-.185-.125-.266l.032,0A.523.523,0,0,1,270.141,434.2Zm-.507,2q-3.732-1.244-2.514-2.879a7.178,7.178,0,0,0,2.8.746,2.005,2.005,0,0,0,.939,1.512C270.462,435.808,270.055,436.017,269.634,436.2Zm11.244-6.006a.226.226,0,0,0-.077.072c-2.17,1.115-4.346,2.218-6.489,3.386-.982.536-1.947,1.1-2.928,1.641,0-.007,0-.015-.006-.022a2.453,2.453,0,0,0-.364-.341,2.8,2.8,0,0,1-.356-.444c-.014-.021-.037-.063-.067-.111a1.709,1.709,0,0,1-.044-.3c-.014-.023-.022-.043-.034-.064a2.616,2.616,0,0,0,1.34-.665,2.966,2.966,0,0,0,.845-1.277c.279-.15.55-.294.79-.436l.182-.11a2.625,2.625,0,0,0,2.139,1.22.083.083,0,0,0,.01-.166,2.98,2.98,0,0,1-2.042-1.119c1.6-.994,4.381-2.969,5.946-1.688.083.067.178-.072.094-.138a2.237,2.237,0,0,0-2.176-.341,17.2,17.2,0,0,0-3.983,2.008c-.042-.058-.142-.011-.1.054l0,.006c-.272.169-.539.334-.8.493.324-1.424-.559-3.024-1.778-4.443a.266.266,0,0,0,.063-.068,17.7,17.7,0,0,0,1.293-2.2l.346-.538c2.906,1.807,5.869,3.524,8.835,5.215Zm29.695,10.062q-.714-.059-1.424-.152c-.63-.076-1.258-.166-1.883-.274a47.024,47.024,0,0,1-4.992-1.148,61.991,61.991,0,0,1-8.039-2.975,161.632,161.632,0,0,1-15.986-8.6c-8.441-4.956-19.327-10.6-23.38-20.064.533-1.73,1.52-2.316,2.973-1.725q.462.133.933.223c.243.036.476.065.706.09a7.794,7.794,0,0,0,.915.617c.637.361,1.318.624,1.965.961a.629.629,0,0,0,.931-.312,1.407,1.407,0,0,0-.071-1.161,15.732,15.732,0,0,1,5.214,1.483,58.457,58.457,0,0,1,12.764,7.892,4.757,4.757,0,0,0-1.331,1.282,5.288,5.288,0,0,0-1.69,3.816,1.625,1.625,0,0,0,.992,1.383,9.57,9.57,0,0,0,3.916,2.327c3.675,1.776,7.269,3.7,10.99,2.606a.912.912,0,0,0,.153.538,1.214,1.214,0,0,0,.637.633.9.9,0,0,0,.873-.171,1.108,1.108,0,0,0,.247-1.357.718.718,0,0,0-.245-.339c.094-.052.19-.11.285-.166.793.537,1.645.956,2.482,1.475,1.4.871,2.56,2.029,3.907,2.969a7.8,7.8,0,0,0,6.8,1.244c1.359-.34,2.68-.867,4.012-1.3a16.5,16.5,0,0,1,2.259-.692c1.234-.2,3.935.248,4.474,1.673-2.613,1.237-5.535,2.493-7.555,4.489a20.948,20.948,0,0,0-4.906-2.267.178.178,0,0,0-.094-.066c-1.553-.483-2.04.888-1.363,2.093.942,1.679,3.507,2.711,5.111,3.569.233.124.471.262.712.4Zm4.925-.8a85.574,85.574,0,0,1-7.782-4.538.024.024,0,0,0-.027.039,56.945,56.945,0,0,0,7.857,4.766.721.721,0,0,1-.013.147c-.235,1.15-.933.173-1.671-.234-.439-.243-.876-.49-1.314-.735-.033-.051-.056-.1-.1-.153a.289.289,0,0,0-.356-.1c-.2-.11-.393-.218-.589-.329-.805-.457-1.625-.9-2.393-1.42l-.759-.529q-2.1-.814-1.049-2.76c1.238.761,3.942,2.168,5.916,3.555-.234.208.063.657.34.476.055-.036.108-.075.163-.112A4.905,4.905,0,0,1,315.5,439.462Zm-1.407-2.882c-.319-.2-.631-.388-.915-.569q-.36-.229-.725-.45a17.3,17.3,0,0,1,3.152-2.077c.436.416.864.849,1.306,1.266C315.905,435.445,314.857,436.089,314.092,436.58Zm2.953-1.924c-.453-.41-.923-.8-1.375-1.209.3-.164.609-.326.915-.489.674-.358,1.346-.716,2.021-1.07.37-.194.928-.389,1.417-.619C320.189,432.21,318.7,433.5,317.045,434.656Z" transform="translate(-253.948 -404.226)" fill="#333"/>
              <path id="Trazado_160139" data-name="Trazado 160139" d="M267.225,407.39a1.524,1.524,0,0,0-.431-.074,1.046,1.046,0,0,0-1,.67l.074-.152a.637.637,0,0,0-.121.309.845.845,0,0,0,.063.525c.012.025.023.05.033.075a.979.979,0,0,0,.831.551,1.506,1.506,0,0,0,.429-.034.971.971,0,0,0,.119-1.871Z" transform="translate(-255.031 -404.51)" fill="#333"/>
              <path id="Trazado_160140" data-name="Trazado 160140" d="M270.522,409.574a1.688,1.688,0,0,0-.233.042.793.793,0,0,0-.608.7,1.038,1.038,0,0,0,.243.775.928.928,0,0,0,1.46-.086l.044-.073A.894.894,0,0,0,270.522,409.574Z" transform="translate(-255.393 -404.717)" fill="#333"/>
              <path id="Trazado_160141" data-name="Trazado 160141" d="M273.738,411.29a.911.911,0,0,0-.808,1.04.927.927,0,0,0,.275.529.971.971,0,0,0,1.518-.089,1.045,1.045,0,0,0,.164-.483A.972.972,0,0,0,273.738,411.29Z" transform="translate(-255.692 -404.874)" fill="#333"/>
              <path id="Trazado_160142" data-name="Trazado 160142" d="M277.53,413.293a.841.841,0,0,0-.864.769,1.5,1.5,0,0,0,.055.618.96.96,0,0,0,.993.746.937.937,0,0,0,.877-.879A1.194,1.194,0,0,0,277.53,413.293Z" transform="translate(-256.035 -405.059)" fill="#333"/>
              <path id="Trazado_160143" data-name="Trazado 160143" d="M281.4,416.337a.734.734,0,0,0-.874.056,1.09,1.09,0,0,0-.1.036.308.308,0,0,0-.148.439.714.714,0,0,0,.3.677.731.731,0,1,0,.821-1.209Z" transform="translate(-256.364 -405.328)" fill="#333"/>
              <path id="Trazado_160144" data-name="Trazado 160144" d="M303.444,430.6a.963.963,0,1,0,.6,1.22A.973.973,0,0,0,303.444,430.6Z" transform="translate(-258.381 -406.646)" fill="#333"/>
              <path id="Trazado_160145" data-name="Trazado 160145" d="M307.23,434.893a.676.676,0,0,0,.358-.728.7.7,0,0,0-.724-.53l-.04-.044a.22.22,0,0,0-.379.187l.011.056a.7.7,0,0,0-.068.827A.666.666,0,0,0,307.23,434.893Z" transform="translate(-258.758 -406.919)" fill="#333"/>
              <path id="Trazado_160146" data-name="Trazado 160146" d="M306.065,439.371a.962.962,0,0,0,.049-.291.127.127,0,0,0-.085-.1.592.592,0,0,0-.5.153,1.045,1.045,0,0,0-.333.646c-.085.546.877.6.854.05A1.948,1.948,0,0,1,306.065,439.371Z" transform="translate(-258.658 -407.419)" fill="#333"/>
              <path id="Trazado_160147" data-name="Trazado 160147" d="M304.636,438.575c-.311.044-.683.334-.53.68a.189.189,0,0,0,.289.058c.128-.1.16-.271.328-.319A.214.214,0,0,0,304.636,438.575Z" transform="translate(-258.555 -407.383)" fill="#333"/>
              <path id="Trazado_160148" data-name="Trazado 160148" d="M303.393,438.289a.757.757,0,0,1-.341-.08.1.1,0,0,0-.125.143.481.481,0,0,0,.523.215C303.632,438.551,303.575,438.267,303.393,438.289Z" transform="translate(-258.449 -407.349)" fill="#333"/>
              <path id="Trazado_160149" data-name="Trazado 160149" d="M283.786,429.23a.256.256,0,0,0-.394.194.292.292,0,0,0-.009.145.154.154,0,0,0,.181.156.672.672,0,0,0,.193-.061A.254.254,0,0,0,283.786,429.23Z" transform="translate(-256.653 -406.52)" fill="#333"/>
              <path id="Trazado_160150" data-name="Trazado 160150" d="M283.069,428.091a.847.847,0,0,0-.209-.029c-.227-.008-.172.354.021.29a.844.844,0,0,0,.2-.085C283.145,428.23,283.155,428.111,283.069,428.091Z" transform="translate(-256.592 -406.417)" fill="#333"/>
              <path id="Trazado_160151" data-name="Trazado 160151" d="M286.117,422.354a1.111,1.111,0,0,0-.717.265c-.119.077-.076.31.089.26a1.147,1.147,0,0,0,.695-.389A.088.088,0,0,0,286.117,422.354Z" transform="translate(-256.833 -405.892)" fill="#333"/>
              <path id="Trazado_160152" data-name="Trazado 160152" d="M286.7,423.071a1.331,1.331,0,0,0-.514.047.131.131,0,0,0,.052.256,1.348,1.348,0,0,0,.492-.153A.08.08,0,0,0,286.7,423.071Z" transform="translate(-256.902 -405.957)" fill="#333"/>
              <path id="Trazado_160153" data-name="Trazado 160153" d="M287.173,423.74a4.31,4.31,0,0,0,.715-.228.088.088,0,0,0-.056-.164,4.117,4.117,0,0,0-.695.213C287.027,423.6,287.058,423.774,287.173,423.74Z" transform="translate(-256.992 -405.984)" fill="#333"/>
              <path id="Trazado_160154" data-name="Trazado 160154" d="M266.929,433.066a8.351,8.351,0,0,0-.9-.045c-.153-.02-.168.191-.048.247a1.033,1.033,0,0,0,.991.027A.135.135,0,0,0,266.929,433.066Z" transform="translate(-255.047 -406.873)" fill="#333"/>
              <path id="Trazado_160155" data-name="Trazado 160155" d="M267.657,433.766a1.294,1.294,0,0,0-.291-.03c-.148,0-.161.232-.013.23a1.314,1.314,0,0,0,.292-.024C267.728,433.922,267.749,433.789,267.657,433.766Z" transform="translate(-255.17 -406.939)" fill="#333"/>
              <path id="Trazado_160156" data-name="Trazado 160156" d="M268.72,434.066a.362.362,0,0,0-.366.193.056.056,0,0,0,.093.062.36.36,0,0,1,.281-.144C268.793,434.165,268.778,434.076,268.72,434.066Z" transform="translate(-255.271 -406.968)" fill="#333"/>
              <path id="Trazado_160157" data-name="Trazado 160157" d="M261.015,413.164a1.13,1.13,0,0,0,.2.418.06.06,0,0,0,.1-.035,1.1,1.1,0,0,0-.088-.457A.115.115,0,0,0,261.015,413.164Z" transform="translate(-254.597 -405.035)" fill="#333"/>
              <path id="Trazado_160158" data-name="Trazado 160158" d="M262.249,414.365l-.185-.01c-.141-.007-.107.221.013.181l.181-.061C262.312,414.456,262.317,414.369,262.249,414.365Z" transform="translate(-254.685 -405.157)" fill="#333"/>
              <path id="Trazado_160159" data-name="Trazado 160159" d="M263.172,414.935a.083.083,0,0,0-.054.157A.083.083,0,0,0,263.172,414.935Z" transform="translate(-254.786 -405.21)" fill="#333"/>
              <path id="Trazado_160160" data-name="Trazado 160160" d="M272.754,421.827a.651.651,0,0,0-.484.144c-.11.076.017.271.131.2a1.294,1.294,0,0,1,.367-.145A.1.1,0,0,0,272.754,421.827Z" transform="translate(-255.628 -405.843)" fill="#333"/>
              <path id="Trazado_160161" data-name="Trazado 160161" d="M273.3,422.706a3,3,0,0,0-.54.182c-.125.047-.053.266.076.222a2.97,2.97,0,0,0,.533-.2A.108.108,0,0,0,273.3,422.706Z" transform="translate(-255.671 -405.924)" fill="#333"/>
              <path id="Trazado_160162" data-name="Trazado 160162" d="M273.911,423.153a2.027,2.027,0,0,0-.267-.016c-.1,0-.112.157-.009.159a2.136,2.136,0,0,0,.285-.01C274,423.277,273.981,423.163,273.911,423.153Z" transform="translate(-255.751 -405.964)" fill="#333"/>
              <path id="Trazado_160163" data-name="Trazado 160163" d="M277.175,423.455a3.367,3.367,0,0,0,.054.74.068.068,0,0,0,.134-.009,3.244,3.244,0,0,0-.005-.721C277.349,423.351,277.174,423.334,277.175,423.455Z" transform="translate(-256.083 -405.986)" fill="#333"/>
              <path id="Trazado_160164" data-name="Trazado 160164" d="M278.457,424.088c.065-.13-.121-.261-.19-.129a.9.9,0,0,0-.109.756.06.06,0,0,0,.11-.007A3.654,3.654,0,0,1,278.457,424.088Z" transform="translate(-256.169 -406.035)" fill="#333"/>
              <path id="Trazado_160165" data-name="Trazado 160165" d="M297.105,421.291a.088.088,0,0,0,.144-.1,2.917,2.917,0,0,0-.279-.462c-.071-.109-.256-.022-.184.091A3.042,3.042,0,0,0,297.105,421.291Z" transform="translate(-257.884 -405.739)" fill="#333"/>
              <path id="Trazado_160166" data-name="Trazado 160166" d="M298.692,420.1a.079.079,0,0,0,.051-.15A.079.079,0,0,0,298.692,420.1Z" transform="translate(-258.056 -405.671)" fill="#333"/>
              <path id="Trazado_160167" data-name="Trazado 160167" d="M301.4,418.628l.086-.418c.026-.125-.163-.158-.17-.033l-.024.429C301.289,418.667,301.387,418.691,301.4,418.628Z" transform="translate(-258.3 -405.501)" fill="#333"/>
              <path id="Trazado_160168" data-name="Trazado 160168" d="M295.451,434.807a2.446,2.446,0,0,0,.066.372c.025.084.164.089.164-.012a2.449,2.449,0,0,0-.044-.4C295.618,434.648,295.435,434.687,295.451,434.807Z" transform="translate(-257.763 -407.027)" fill="#333"/>
              <path id="Trazado_160169" data-name="Trazado 160169" d="M297.26,434.712c-.039-.141-.262-.1-.225.046a.9.9,0,0,0,.358.551c.041.033.1-.021.074-.065A3.08,3.08,0,0,1,297.26,434.712Z" transform="translate(-257.908 -407.02)" fill="#333"/>
            </g>
          </g>
          <g id="Grupo_115958" data-name="Grupo 115958" transform="translate(29.941 125.125)">
            <path id="Trazado_160170" data-name="Trazado 160170" d="M152.175,497.537a2.4,2.4,0,0,0-2.395-1.491c-.963.02-2.884.252-3.5,1.048a.667.667,0,0,0-.137.329c-1.1,1.033-1.593,4.944-1.681,5.756-.086.792-.094,1.34.8,1.359,1.608.034,3.633-.91,5.093-1.5,1.041-.42,2.006-.791,2.346-1.949A5.475,5.475,0,0,0,152.175,497.537Z" transform="translate(-131.26 -492.396)" fill="#fc4b52"/>
            <path id="Trazado_160171" data-name="Trazado 160171" d="M160.665,496.922c-.414-1-.746-1.769-1.939-1.816-1.11-.044-3.289.207-3.94,1.221a.155.155,0,0,0-.059-.046l-.162-.059a.3.3,0,0,0-.341.138,2.749,2.749,0,0,0-.024,1.813c.185,1.165.429,2.322.651,3.48a.48.48,0,0,0,.584.332,19.861,19.861,0,0,0,5.271-1.935C161.945,499.265,161.1,497.978,160.665,496.922Z" transform="translate(-132.145 -492.309)" fill="#fc4b52"/>
            <path id="Trazado_160172" data-name="Trazado 160172" d="M168.662,497.8a8.59,8.59,0,0,0-1.082-1.886,4.621,4.621,0,0,0-1.381-1.624.263.263,0,0,0-.188-.029,4.3,4.3,0,0,0-2.936.092c-.784.23-1.1.576-.811,1.376a21.265,21.265,0,0,0,.905,2.014c.217.448.341.846.857.964a5.8,5.8,0,0,0,1.647-.111l2.561-.235A.449.449,0,0,0,168.662,497.8Z" transform="translate(-132.89 -492.211)" fill="#fc4b52"/>
            <g id="Grupo_115957" data-name="Grupo 115957">
              <path id="Trazado_160173" data-name="Trazado 160173" d="M172.921,507.374a1.311,1.311,0,0,0-1.146.289,1.293,1.293,0,0,0-.23.3,1.354,1.354,0,0,0-.247.228,1.607,1.607,0,0,0-.079,1.871c.944,1.528,3.21.619,3.266-1.045A1.513,1.513,0,0,0,172.921,507.374Z" transform="translate(-133.699 -493.435)" fill="#333"/>
              <path id="Trazado_160174" data-name="Trazado 160174" d="M174.393,501.564c-.207-1.011-.237-2.14-.546-3.125-.728-2.327-2.252-2.72-4.508-2.138-1.436.371-3.073.44-4.2-.945-.251-.308-.326-1.145-.56-1.53a3.656,3.656,0,0,0-2.048-1.654c-1.273-.386-2.705.084-3.948.346-2.335.494-4.664,1.011-7,1.516-2.555.553-5.284.736-7,2.68l-.167.068a.318.318,0,0,0-.187.383c-.09.127-.178.255-.26.4a13.206,13.206,0,0,0-1.615,4.135c-.153.828.042,1.7-.451,2.39-.593.828-2.035.959-2.983,1.281-2.585.879-6.225,1.862-7.9,4.223a4.015,4.015,0,0,0,.216,5.082,2.8,2.8,0,0,0-.628.359,1.07,1.07,0,0,0-.494.837,20.9,20.9,0,0,0-.189,2.767.721.721,0,0,0,.512.7c1,.282,2.2-.229,3.185-.461a28.8,28.8,0,0,0,4.081-1.131.53.53,0,0,0,.291-.312c.011.018.019.038.03.056a4.72,4.72,0,0,0,5.527,2.211,5.332,5.332,0,0,0,3.053-4.541.9.9,0,0,0,1,.105,48.464,48.464,0,0,0,7.769-1.951c.768-.217,6.778-1.7,9.16-2.557.032.086.061.175.094.259.947,2.285,3.506,2.484,5.656,1.866a4.335,4.335,0,0,0,3.2-4.019,5.57,5.57,0,0,0,.038-.593.928.928,0,0,0,1.128-.675l.086.016a.8.8,0,0,0,.867-.342,1.806,1.806,0,0,0,.214-1.616C175.6,504.371,174.675,502.947,174.393,501.564Zm-10.259-5.879a5.859,5.859,0,0,0,1.426,1.9,16.318,16.318,0,0,1-3.567.594,2.012,2.012,0,0,1-1.3.022c-.453-.236-.476-.635-.636-1.1-.277-.807-.548-1.614-.886-2.4a14.576,14.576,0,0,1,3.348-.38.185.185,0,0,0,.211-.113A3.919,3.919,0,0,1,164.133,495.686ZM144.363,498.3a4.706,4.706,0,0,1,.886-1.238,10.654,10.654,0,0,1,3.308-.984c1.788-.082,1.816.761,2.245,2.1a3.276,3.276,0,0,1,.183,2.618c-.678,1.415-3.369,1.9-4.846,2.379-.9.292-1.827.519-2.719.837A13.1,13.1,0,0,1,144.363,498.3Zm-8.511,8.707a54.049,54.049,0,0,1,7.132-1.773.583.583,0,0,0,.407-.393,24.994,24.994,0,0,0,6.344-1.915c1.508-.59,2.189-.973,1.942-2.642-.157-1.061-.734-4.06-1.793-4.67a1.645,1.645,0,0,0-.685-.187c.693-.112,1.4-.2,2.087-.323,1.811-.322,3.619-.656,5.428-.985a12.619,12.619,0,0,1,4.967-.334c-.137.026-.27.056-.385.074a3.936,3.936,0,0,0-2.373.756.087.087,0,0,0-.014.114c0,.009-.006.015,0,.025a12.742,12.742,0,0,0,1.032,3.771c.451.716,1.268.506,1.99.409,1.013-.137,3.547-.055,4.681-.921a4.864,4.864,0,0,0,1.389-.005c.444-.056.865-.2,1.3-.294,1.8-.379,2.875.161,3.93,1.828a24.554,24.554,0,0,1,1.016,3.984,5.273,5.273,0,0,0-.615.254c-.146.062-.286.131-.424.2a5.469,5.469,0,0,0-6.242-2.237,5.371,5.371,0,0,0-3.446,6.835,153.89,153.89,0,0,0-15.623,3.882,6.28,6.28,0,0,0-2.207-3.946,6.2,6.2,0,0,0-5.878-.362,6.609,6.609,0,0,0-3.783,4.075,7.271,7.271,0,0,0-.262,1.191c-.823.216-1.643.445-2.463.67-.4.111-.881.206-1.347.337C131.392,511.118,132.316,508.349,135.851,507.006Zm5.19,2.927a4.53,4.53,0,0,0-2,1.7c-.007,0-.015,0-.021,0a2.8,2.8,0,0,0-.634.45,4.627,4.627,0,0,1,2.078-1.922A5.306,5.306,0,0,1,141.041,509.932Zm-6.949,7.333c-.652.11-1.3.224-1.95.351l-.832.163q-.951.467-.539-.686c-.008-.808-.258-1.088.606-1.283.567-.128,1.157-.2,1.727-.317q1.314-.275,2.624-.575a3.1,3.1,0,0,0,.842,1.964C135.74,516.973,134.918,517.125,134.092,517.265Zm7.571,1.252c-.029-.008-.055-.02-.084-.029a6.769,6.769,0,0,0,3.352-3.057c.778-1.747-.029-3.076-1.324-3.347a2.209,2.209,0,0,0-1.709-.239c-1.486.326-1.868,1.287-1.678,2.252a2.283,2.283,0,0,0-.083,1c.351,2.433,2.766,2.655,4.144,1.272a3.427,3.427,0,0,1-1.977,1.7,2.542,2.542,0,0,1-2.484-.559,3.674,3.674,0,0,1-.989-1.533,5.6,5.6,0,0,1,.3-3.627c1.218-2.061,3.941-3.2,5.964-1.11C147.512,513.743,145.689,519.652,141.663,518.517Zm14.645-6.375a75.268,75.268,0,0,0-8.066,2.376.719.719,0,0,0-.072-.406c-.068-.523-.152-1.07-.269-1.615a158.363,158.363,0,0,1,15.668-3.76,5.855,5.855,0,0,0,.346.823.621.621,0,0,0,.337.275c0,.014.006.026.011.039C161.637,510.234,158.768,511.46,156.308,512.143Zm12.9-.837c-.879.158-2.227.2-2.82-.68a6.983,6.983,0,0,1-.626-2.932,3.231,3.231,0,0,1,2.958-3.741c1.311.744,2.705,1.434,3.227,2.965A3.337,3.337,0,0,1,169.209,511.305Zm5.459-5.215a.647.647,0,0,0-.319.062,8.614,8.614,0,0,0-.964-1.911c.126-.039.252-.081.377-.131.182-.071.378-.13.556-.217A14.253,14.253,0,0,1,174.668,506.09Z" transform="translate(-129.928 -492.027)" fill="#333"/>
              <path id="Trazado_160175" data-name="Trazado 160175" d="M154.92,502.4a19.776,19.776,0,0,0,5.969-2.2c1.367-.776.736-1.674.237-2.948-.387-.988-.636-2.4-1.885-2.533a9.173,9.173,0,0,0-2.5.333,8.891,8.891,0,0,0-3.07.929.3.3,0,0,0,.142.56l.047,0a20.367,20.367,0,0,0,.755,5.687A.256.256,0,0,0,154.92,502.4Zm-.528-3.66c-.1-.743-.151-1.489-.228-2.233,1.452-.143,2.855-.921,4.323-.917a1.8,1.8,0,0,1,1.834,1.122,10.392,10.392,0,0,1,.42,1.124c.453,1.211.266,1.672-.865,2.244-.874.441-4.361,2.337-4.982,1.251A8.251,8.251,0,0,1,154.393,498.737Z" transform="translate(-132.097 -492.272)" fill="#333"/>
              <path id="Trazado_160176" data-name="Trazado 160176" d="M173.148,500.956a2.221,2.221,0,0,1,1.189.551c.08.059.153-.048.123-.12a1.371,1.371,0,0,0-1.3-.721A.145.145,0,0,0,173.148,500.956Z" transform="translate(-133.888 -492.821)" fill="#333"/>
              <path id="Trazado_160177" data-name="Trazado 160177" d="M175.1,500.858a.09.09,0,0,0,.065-.152,3.276,3.276,0,0,0-.9-.46c-.136-.058-.237.173-.1.238A3.3,3.3,0,0,0,175.1,500.858Z" transform="translate(-133.988 -492.781)" fill="#333"/>
              <path id="Trazado_160178" data-name="Trazado 160178" d="M157.924,509.824a2.162,2.162,0,0,0,.872.943.161.161,0,0,0,.22-.216,2.151,2.151,0,0,0-.9-.916A.142.142,0,0,0,157.924,509.824Z" transform="translate(-132.5 -493.644)" fill="#333"/>
              <path id="Trazado_160179" data-name="Trazado 160179" d="M158.837,509.418a5.53,5.53,0,0,0,.538.825c.117.134.306-.034.237-.179a5.3,5.3,0,0,0-.523-.789C158.983,509.127,158.74,509.254,158.837,509.418Z" transform="translate(-132.583 -493.606)" fill="#333"/>
              <path id="Trazado_160180" data-name="Trazado 160180" d="M134.707,513.469c.1.065.237-.064.168-.164a4.341,4.341,0,0,0-.632-.647.131.131,0,0,0-.186.184A4.37,4.37,0,0,0,134.707,513.469Z" transform="translate(-130.304 -493.92)" fill="#333"/>
              <path id="Trazado_160181" data-name="Trazado 160181" d="M135.516,512.213c.086.053.161-.061.1-.132a3.147,3.147,0,0,0-.4-.366c-.094-.081-.235.053-.14.138A3.139,3.139,0,0,0,135.516,512.213Z" transform="translate(-130.399 -493.834)" fill="#333"/>
            </g>
          </g>
          <g id="Grupo_115960" data-name="Grupo 115960" transform="translate(62.539)">
            <path id="Trazado_160182" data-name="Trazado 160182" d="M241.839,414.361q-2.905-6.586-5.9-13.127a.912.912,0,0,0-1.42-.183c-8.54,8.34-17.076,16.1-21.7,27.346-2.239,5.452-4.865,12.028-5.537,17.917-.54,4.748,3.11,9.248,5.215,13.225a.855.855,0,0,0,.147.179c.007.089.006.178.015.267a.289.289,0,0,0,.578,0v-.014a.92.92,0,0,0,.806-1.337c-.211-.4-.446-.8-.688-1.216,1.344-16.927,14.84-32.742,28.181-41.938A.85.85,0,0,0,241.839,414.361Z" transform="translate(-169.632 -358.515)" fill="#fc4b52"/>
            <path id="Trazado_160183" data-name="Trazado 160183" d="M222.763,368.485a.861.861,0,0,0-1.347-.173,138.1,138.1,0,0,0-17.977,27.694c-4.5,9.543-2.971,19.364-2.269,29.509-.1,1.308-.181,2.619-.2,3.938,0,.092.151.118.164.022.094-.627.2-1.253.3-1.879a.555.555,0,0,0,.984-.352c-.067-1.247-.143-2.5-.217-3.75a81.378,81.378,0,0,1,12.122-29.6,71.2,71.2,0,0,1,6.268-7.941c1.533-1.677,4.338-3.542,5.492-5.445C228.3,376.849,224.334,372.029,222.763,368.485Z" transform="translate(-168.999 -355.506)" fill="#fc4b52"/>
            <g id="Grupo_115959" data-name="Grupo 115959">
              <path id="Trazado_160184" data-name="Trazado 160184" d="M272.858,473.48a22.617,22.617,0,0,0-5.817.178c-1.827.23-3.2.449-4.39.563a97.348,97.348,0,0,0,3.943-9.365,1.637,1.637,0,0,0-1.568-2.059q-24.845.71-49.69,1.44a.649.649,0,0,0,0-.624c-4.035-7.7,7.229-18.026,12.691-21.732,5.65-3.835,15.071-9.722,22.035-9.437a.882.882,0,0,0,.756-1.319c-15.862-23.869-21.433-52.812-36.935-76.709a.377.377,0,0,0-.627-.027.631.631,0,0,0-.845.15c-11.819,14.248-17.067,35.866-17.149,54.157-.056.184-.116.371-.173.555-.033.108.1.154.167.091,0,.221-.008.448-.006.667a96.588,96.588,0,0,0,5.235,30.426c2.85,8.293,6.671,17.371,12.836,23.861q-19.865.575-39.732,1.151a1.317,1.317,0,0,0-1.128,1.966c1.706,2.415,3.356,5.05,5.191,7.505-4.43,1.838-8.454,2.295-10.964-2.647a.459.459,0,0,0-.836.352c2.164,6.681,9.788,5.5,14.767,2.886,3.016-1.582,6.07-4.211,9.586-4.379,4.436-.212,7.233,2.961,10.953,4.816.054.027.11.044.164.07a6.911,6.911,0,0,0-4.556,1.869.094.094,0,0,0,.091.155c4.358-1.365,7.6.126,11.729,1.259,2.735.75,5.529,1.349,7.957-.414a.7.7,0,0,0-.349-1.288,51.992,51.992,0,0,1-6.545-.686,16.242,16.242,0,0,0,2.688-.84c1.817-.744,3.435-2.014,5.27-2.694,7.384-2.738,7,.353,11.688,2.486a8.717,8.717,0,0,0,1.242.455c-.353-.015-.706-.017-1.059,0-1.125.064-4.214.348-3.4,2.129a.226.226,0,0,0,.418-.113c-.143-1.6,10.841,1.242,12.35,1.329,2.468.142,4.617-.262,6.131-2.291.343-.461-.228-1.154-.749-.973a14.6,14.6,0,0,1-7.274.955c-1.287-.18-2.592-.493-3.9-.732a14.97,14.97,0,0,0,5.828-1.61c4.889-2.258,8.342-4.709,13.558-1.7,1.548.893,2.566,2.041,4.35,2.571.364.107.733.192,1.1.262-.012.029-.026.057-.038.086.111-.014.22-.025.331-.039,4.766.788,9.973-1.2,14.677-1.22C273.844,474.97,273.788,473.589,272.858,473.48Zm-35.745-38.654a58.208,58.208,0,0,0-14.16,8.672c-4.184,3.694-10.475,11.457-9.707,17.912-1.192-1.852-2.337-3.719-3.412-5.611,2.4-18.1,12.522-34.924,28.3-44.476A156.438,156.438,0,0,0,248.5,430.73C244.5,431.051,240.691,433.158,237.114,434.826Zm-5.265-38.2c1.954,4.806,3.957,9.589,6.1,14.3-.011,0-.02,0-.032,0-15.453,10.454-25.873,26.268-28.157,44.733a104.921,104.921,0,0,1-5.587-11.425c2.3-18.866,11.76-36.686,27.653-47.579C231.84,396.648,231.838,396.633,231.849,396.622ZM199.041,427.86c2.188-19.106,10.248-36.3,25.069-49.115.319-.276-.145-.737-.462-.462-13.94,12.086-23.547,29.613-24.9,48.13a90.417,90.417,0,0,1-1.7-16.4c-.024-2.068.034-4.134.147-6.2,4.842-13.452,10.681-25.967,21.614-35.855.244-.221-.11-.558-.357-.356-10.729,8.731-16.773,21.8-21.175,34.806a93.9,93.9,0,0,1,3.764-20.577c2.907-9.631,7.857-17.554,12.541-26.283,6.582,13.088,12.3,26.375,17.8,39.96.1.237.193.472.29.709a.165.165,0,0,0-.1.022c-15.268,11.722-25.723,28.419-27.516,47.741A93.074,93.074,0,0,1,199.041,427.86Zm54.65,44.2c-2.9-1.413-3.889-2.718-7.607-2.072-5.757,1-10.155,6.968-16.579,4.021-3.381-1.55-4.924-4.036-8.988-3.483-4.949.674-8.461,5.048-13.7,5.027-5.474-.024-8.056-5.133-12.968-6.24-3.947-.89-8.948,2.152-13.722,4.479-1.269-1.982-2.682-3.895-4.055-5.785q43.255-.919,86.509-1.9c-1.171,2.685-2.514,5.3-3.748,7.948A23.825,23.825,0,0,1,253.691,472.06Z" transform="translate(-165.826 -354.236)" fill="#333"/>
              <path id="Trazado_160185" data-name="Trazado 160185" d="M237.388,482.466a8,8,0,0,0,1.528,2.142.226.226,0,0,0,.375-.218,7.853,7.853,0,0,0-1.355-2.245C237.7,481.82,237.173,482.11,237.388,482.466Z" transform="translate(-172.4 -365.981)" fill="#333"/>
              <path id="Trazado_160186" data-name="Trazado 160186" d="M240.793,481.161a.206.206,0,0,0-.291.29,5.689,5.689,0,0,0,1.19,1.294c.219.147.493-.142.358-.358A5.747,5.747,0,0,0,240.793,481.161Z" transform="translate(-172.686 -365.898)" fill="#333"/>
            </g>
          </g>
          <g id="Grupo_115962" data-name="Grupo 115962" transform="translate(77.979 132.709)">
            <path id="Trazado_160187" data-name="Trazado 160187" d="M234.692,519.71a7.137,7.137,0,0,0-2.64-2.316,12.639,12.639,0,0,0-11.528.886c-.012,0-.023,0-.034,0-9.073,1.938-8.757,15.172-2.159,19.625a10.253,10.253,0,0,0,4.4,1.666,9.518,9.518,0,0,0,2.284.917C234.59,542.816,241.846,525.389,234.692,519.71Zm-1.952,3.281c2.728,6.134-2.032,14.132-8.744,13.6a10.3,10.3,0,0,1-1.653-.884c-3.166-2.08-4.135-4.638-3.422-8.376a12.67,12.67,0,0,1,1.553-4.631C223.19,518.733,230.715,518.436,232.74,522.991Z" transform="translate(-185.649 -501.851)" fill="#fc4b52"/>
            <g id="Grupo_115961" data-name="Grupo 115961">
              <path id="Trazado_160188" data-name="Trazado 160188" d="M244.921,515.807a.866.866,0,0,0-.445-.935c-8.086-4.1-17.8-5.134-26.572-7.045-2.835-.618-5.648-1.289-8.464-1.909a.614.614,0,0,0,.049-.065,4.394,4.394,0,0,0,.593-1.762.936.936,0,0,0-.958-1.105,39.654,39.654,0,0,1-6.375-1.056c-1.773-.406-3.814-.594-5.439-1.44a1,1,0,0,0-1.437.939,11.048,11.048,0,0,0,.311,2.4c-1.585-.105-3.179-.148-4.789-.1a.958.958,0,0,0-.944,1.089c-4.717,10.11-6.368,22.238-7.619,33.219a.638.638,0,0,0,.486.744c18.2,2.537,36.415,5.616,54.41,9.4a.726.726,0,0,0,.849-.555C240.533,536.986,242.314,526.305,244.921,515.807ZM197.66,502.813a28.488,28.488,0,0,0,4.683,1.062c1.925.361,3.844.684,5.789.856a7.233,7.233,0,0,0,.053.848c0,.026.015.046.019.071a89.138,89.138,0,0,0-10.821-1.73A10.114,10.114,0,0,0,197.66,502.813Zm-8.216,35.852c-1.261-.227-4.114-.272-4.883-1.311s.16-3.841.369-5.132q.437-2.692.974-5.363c1.442-7.116,3.808-13.993,5.373-21.058a1.187,1.187,0,0,0,.252.016,77.256,77.256,0,0,1,10.929.346,1.347,1.347,0,0,0-.143,1.074c-1.225,5.427-1.705,10.933-2.821,16.393q-.825,4.037-1.653,8.074c-.545,2.661-1.644,5.423-1.718,8.115l-1.443-.245Q192.058,539.134,189.443,538.665Zm7.305,1.261c.919-2.306.993-4.992,1.508-7.433q.921-4.368,1.842-8.736c1.237-5.856,3.178-11.461,4.171-17.37,0-.011,0-.019,0-.029,9.574,1.108,19.137,3.585,28.277,5.959,1.442.374,2.88.766,4.3,1.236.952.315,5.006,1.322,5.693,2.308.916,1.318-.106,3.445-.417,4.883q-.572,2.642-1.115,5.291c-1.4,6.841-2.72,13.713-3.728,20.624C223.724,544.734,210.245,542.218,196.749,539.927Z" transform="translate(-182.828 -500.379)" fill="#333"/>
              <path id="Trazado_160189" data-name="Trazado 160189" d="M234,517.2a12.232,12.232,0,0,0-11.5-1.344c-2.885.346-5.6,2.52-7.364,4.753a13.706,13.706,0,0,0-2.771,11.479A12.369,12.369,0,0,0,220.471,541c3.626,1.1,9.136,1.11,12.217-1.307C239.489,534.355,242.015,522.557,234,517.2Zm-.7,19.117c-4.813,5.911-15.6,3.909-18.547-2.982-1.455-3.4-.826-7.574,1.129-10.913,3.891-4.478,10.2-7.183,15.845-4.366C239.263,521.818,237.845,530.746,233.305,536.321Z" transform="translate(-185.514 -501.723)" fill="#333"/>
              <path id="Trazado_160190" data-name="Trazado 160190" d="M223.9,520.095c-4.647.118-8.152,7.04-6.917,11.1,1.587,5.219,8.448,6.973,12.943,4.733,4.816-2.4,6.33-7.935,4.092-12.745C231.8,518.417,227.467,518.048,223.9,520.095Zm-.278,1.893c.128-.061.256-.119.385-.176a2.077,2.077,0,0,1,1.312.96c.538.906.349,2.422-.909,2.5C222.488,525.394,222.519,523.042,223.623,521.988Zm1,10.149c-3.179-.4-1.915-3.917-.086-5.64a.6.6,0,0,0,.606.08C228.011,525.483,229.25,532.712,224.624,532.137Z" transform="translate(-185.945 -502.083)" fill="#333"/>
              <path id="Trazado_160191" data-name="Trazado 160191" d="M196.612,542.648a9.568,9.568,0,0,1-2.448-1.813c-.061-.066-.155.026-.114.1a4.733,4.733,0,0,0,2.42,2.12C196.708,543.135,196.813,542.762,196.612,542.648Z" transform="translate(-183.859 -504.095)" fill="#333"/>
              <path id="Trazado_160192" data-name="Trazado 160192" d="M195.147,540.294a4.245,4.245,0,0,0,1.477.806.169.169,0,0,0,.146-.288,4.249,4.249,0,0,0-1.49-.777A.146.146,0,0,0,195.147,540.294Z" transform="translate(-183.954 -504.023)" fill="#333"/>
              <path id="Trazado_160193" data-name="Trazado 160193" d="M197.051,537.959a.137.137,0,0,0-.012-.233c-.328-.154-.635-.1-.865-.445a.173.173,0,0,0-.289.189C196.087,537.83,196.646,538.257,197.051,537.959Z" transform="translate(-184.026 -503.764)" fill="#333"/>
              <path id="Trazado_160194" data-name="Trazado 160194" d="M198.44,523.919c.037-.114-.091-.18-.182-.162a.858.858,0,0,1-.665-.03c-.241-.182-.548.144-.319.353C197.626,524.4,198.267,524.449,198.44,523.919Z" transform="translate(-184.149 -502.52)" fill="#333"/>
              <path id="Trazado_160195" data-name="Trazado 160195" d="M238.135,547.09a5.179,5.179,0,0,0-.733-.8.141.141,0,0,0-.227.149,5.147,5.147,0,0,0,.467.979,2.7,2.7,0,0,0,.65.9.266.266,0,0,0,.428-.28A2.7,2.7,0,0,0,238.135,547.09Z" transform="translate(-187.824 -504.596)" fill="#333"/>
              <path id="Trazado_160196" data-name="Trazado 160196" d="M239.777,546a1.621,1.621,0,0,1-.315-.735c-.04-.242-.406-.231-.389.024.038.536.3,1.374.94,1.4a.13.13,0,0,0,.114-.171A1.657,1.657,0,0,0,239.777,546Z" transform="translate(-187.999 -504.489)" fill="#333"/>
              <path id="Trazado_160197" data-name="Trazado 160197" d="M208.487,511.441c-.154-.27-.288-.558-.425-.836-.121-.246-.478-.074-.465.158l0,0,0,.014,0,.011c.064.563.351,1.5.983,1.628a.2.2,0,0,0,.234-.2A1.579,1.579,0,0,0,208.487,511.441Z" transform="translate(-185.105 -501.308)" fill="#333"/>
              <path id="Trazado_160198" data-name="Trazado 160198" d="M209.858,510.487c-.153-.18-.464.006-.316.207l.471.639a2.3,2.3,0,0,0,.46.549c.145.1.408-.006.323-.212A5.175,5.175,0,0,0,209.858,510.487Z" transform="translate(-185.281 -501.301)" fill="#333"/>
              <path id="Trazado_160199" data-name="Trazado 160199" d="M244.541,521.333c-.214-.159-.495.138-.282.312a7.689,7.689,0,0,0,1.58,1.2c.159.069.37-.111.245-.271A7.565,7.565,0,0,0,244.541,521.333Z" transform="translate(-188.468 -502.301)" fill="#333"/>
              <path id="Trazado_160200" data-name="Trazado 160200" d="M245.3,520.323a4.452,4.452,0,0,1,1.116.321c.12.037.21-.119.146-.214a1.456,1.456,0,0,0-1.289-.528C244.994,519.9,245.029,520.313,245.3,520.323Z" transform="translate(-188.551 -502.173)" fill="#333"/>
            </g>
          </g>
          <g id="Grupo_115965" data-name="Grupo 115965" transform="translate(145.284 85.445)">
            <g id="Grupo_115964" data-name="Grupo 115964">
              <g id="Grupo_115963" data-name="Grupo 115963">
                <path id="Trazado_160201" data-name="Trazado 160201" d="M303.741,481.352a.544.544,0,0,1-.112.851c-4.286,2.143-8.427,4.523-12.5,7.048-3.982,2.466-7.985,5.552-12.277,7.424a.411.411,0,0,1-.488-.145.393.393,0,0,1-.382-.164.789.789,0,0,1-1.154-.283c-2.7-4.728-6.165-9.034-9.264-13.5-3.35-4.826-6.389-10.056-10.286-14.46a1.037,1.037,0,0,1,.059-1.569.709.709,0,0,1,.316-.5c8.17-5.671,16.511-10.457,23.625-17.572a.52.52,0,0,1,.8.105c6.191,9.383,12.68,18.522,19.082,27.76a.719.719,0,0,1-.113.85c-.178.2-.349.41-.527.614.019.019.045.026.059.053A39.7,39.7,0,0,0,303.741,481.352Zm-3.31,1.358c2.545-1.589.864-2.255-.554-4.161a70.561,70.561,0,0,1-9.422,9.561c.672-.363,1.345-.732,2-1.088C295.083,485.572,297.879,484.3,300.431,482.711Zm-1.682-4.088c.95-2.479-.059-3.415-1.457-5.578-2.177-3.363-4.286-6.759-6.515-10.089s-4.464-6.659-6.785-9.93q-.91-1.325-1.88-2.611a1.531,1.531,0,0,0-2.248.837c-1.589.95-3.046,2.683-4.49,3.858a154.468,154.468,0,0,1-16.319,11.75c.026.053.059.105.086.172,2.109,5.182,5.512,9.9,8.67,14.5,3.2,4.648,6.376,9.495,10.378,13.5a.922.922,0,0,1,.244.435c1.015-.639,2.037-1.286,3.046-1.925a48.554,48.554,0,0,1,4.115-2.691A57.941,57.941,0,0,0,295.162,483C296.369,481.734,298.13,480.258,298.749,478.622Z" transform="translate(-256.947 -448.33)" fill="#333"/>
                <path id="Trazado_160202" data-name="Trazado 160202" d="M303.269,481.609c1.418,1.906,3.1,2.572.554,4.161s-5.348,2.861-7.978,4.312c-.653.356-1.326.725-2,1.088A70.559,70.559,0,0,0,303.269,481.609Z" transform="translate(-260.339 -451.389)" fill="#fff"/>
                <path id="Trazado_160203" data-name="Trazado 160203" d="M297.506,473.233c1.4,2.163,2.406,3.1,1.457,5.578-.619,1.635-2.38,3.112-3.587,4.378a57.939,57.939,0,0,1-9.568,7.847,48.559,48.559,0,0,0-4.115,2.691c-1.009.639-2.03,1.286-3.046,1.925a.923.923,0,0,0-.244-.435c-4-4-7.18-8.849-10.378-13.5-3.158-4.6-6.561-9.317-8.67-14.5-.027-.066-.06-.119-.086-.172a154.472,154.472,0,0,0,16.319-11.75c1.445-1.174,2.9-2.908,4.49-3.857a1.531,1.531,0,0,1,2.248-.837q.97,1.286,1.88,2.611c2.321,3.271,4.556,6.6,6.785,9.93S295.33,469.871,297.506,473.233Zm-5.73,6.706c.494-.792-.323-1.576-1.115-1.445-1.588.271-3.118,1.741-4.437,2.651a14.526,14.526,0,0,0-3.732,3.04c-.495.686.316,1.589,1.055,1.378,1.622-.455,3.033-1.727,4.418-2.657C289.264,482.029,290.925,481.278,291.776,479.94Zm-2.242-4.062a.876.876,0,0,0-.837-1.1c-1.662.046-2.968,1.629-4.253,2.565a26.268,26.268,0,0,0-4.345,3.29c-.619.7-.033,2.011.976,1.668a19.431,19.431,0,0,0,4.846-3.019C287.173,478.377,289.106,477.433,289.534,475.878Zm-7.022-1.484a8.181,8.181,0,0,0,.231-11.618c-3.166-3.257-8.368-2.849-11.553.105a.254.254,0,0,0-.039.33c-2.77,2.38-2.624,7.325-.5,10.121A8.137,8.137,0,0,0,282.512,474.394Z" transform="translate(-257.16 -448.519)" fill="#fff"/>
                <path id="Trazado_160204" data-name="Trazado 160204" d="M293,481.338c.792-.132,1.609.653,1.115,1.445-.851,1.339-2.513,2.089-3.811,2.967-1.385.93-2.8,2.2-4.418,2.657-.739.212-1.55-.692-1.055-1.378a14.524,14.524,0,0,1,3.732-3.04C289.878,483.079,291.408,481.609,293,481.338Z" transform="translate(-259.495 -451.363)" fill="#a7e446"/>
                <path id="Trazado_160205" data-name="Trazado 160205" d="M290.78,477.245a.877.877,0,0,1,.837,1.1c-.429,1.556-2.361,2.5-3.613,3.4a19.431,19.431,0,0,1-4.846,3.019c-1.009.343-1.6-.969-.976-1.668a26.269,26.269,0,0,1,4.345-3.29C287.812,478.874,289.118,477.291,290.78,477.245Z" transform="translate(-259.243 -450.988)" fill="#a7e446"/>
                <path id="Trazado_160206" data-name="Trazado 160206" d="M286.312,467.348a7.763,7.763,0,0,1-.192,5.954,19.37,19.37,0,0,0-1.509-3.435A20.6,20.6,0,0,0,286.312,467.348Z" transform="translate(-259.49 -450.078)" fill="#fff"/>
                <path id="Trazado_160207" data-name="Trazado 160207" d="M283.734,463.8a8.045,8.045,0,1,1-12.093,10.556c-2.123-2.8-2.268-7.741.5-10.121a.254.254,0,0,1,.039-.33C275.366,460.95,280.569,460.542,283.734,463.8Zm1.048,8.967a7.763,7.763,0,0,0,.192-5.954,20.6,20.6,0,0,1-1.7,2.519A19.375,19.375,0,0,1,284.782,472.766Zm-1.4,1.965a6.786,6.786,0,0,0,1.24-1.648,26.824,26.824,0,0,0-1.583-3.462,20.452,20.452,0,0,1-6.145,4.985,7.826,7.826,0,0,0,3.158,2.024A7.734,7.734,0,0,0,283.385,474.731Zm-.231-5.618a24.173,24.173,0,0,0,1.741-2.512,7.56,7.56,0,0,0-1.556-2.4,6.784,6.784,0,0,0-1.484-1.154,14.979,14.979,0,0,0-3.033,1.1A14.758,14.758,0,0,1,283.154,469.113Zm-.231.3a14.922,14.922,0,0,0-4.365-5.13,13.635,13.635,0,0,0-5.374,4.952,12.423,12.423,0,0,0,1.477,2.809,18.269,18.269,0,0,0,2.137,2.466A21.144,21.144,0,0,0,282.923,469.41Zm-4.379-5.439a12.5,12.5,0,0,1,3.079-1.055,7.837,7.837,0,0,0-7.3.164A5.925,5.925,0,0,1,278.545,463.971Zm-4.384,11.855a7.459,7.459,0,0,0,5.545.89,9.167,9.167,0,0,1-2.974-2.03A20.455,20.455,0,0,1,274.16,475.826Zm-1.061-6.844a13.522,13.522,0,0,1,5.176-4.879,5.9,5.9,0,0,0-4.266-.845c-.232.139-.462.284-.679.442-.238.251-.449.514-.659.785A9.289,9.289,0,0,0,273.1,468.982Zm3.541,5.611a19.324,19.324,0,0,1-1.682-1.832,12.908,12.908,0,0,1-1.905-3.317,14.285,14.285,0,0,0-1.516,3.653,7.538,7.538,0,0,0,1.048,1.451,7.769,7.769,0,0,0,1.5,1.232A21.856,21.856,0,0,0,276.639,474.592Zm-3.673-5.393a9.024,9.024,0,0,1-.474-4.484c-1.793,2.46-2.454,5.552-1.023,8.249A13.037,13.037,0,0,1,272.966,469.2Z" transform="translate(-258.151 -449.542)" fill="#333"/>
                <path id="Trazado_160208" data-name="Trazado 160208" d="M285.317,473.9a6.786,6.786,0,0,1-1.24,1.648,7.734,7.734,0,0,1-3.33,1.9,7.826,7.826,0,0,1-3.158-2.024,20.452,20.452,0,0,0,6.145-4.985A26.822,26.822,0,0,1,285.317,473.9Z" transform="translate(-258.844 -450.362)" fill="#fff"/>
                <path id="Trazado_160209" data-name="Trazado 160209" d="M285.782,466.756a24.173,24.173,0,0,1-1.741,2.512,14.758,14.758,0,0,0-4.332-4.964,14.981,14.981,0,0,1,3.033-1.1,6.781,6.781,0,0,1,1.484,1.154A7.56,7.56,0,0,1,285.782,466.756Z" transform="translate(-259.039 -449.697)" fill="#fff"/>
                <path id="Trazado_160210" data-name="Trazado 160210" d="M278.875,464.56a14.922,14.922,0,0,1,4.365,5.13,21.143,21.143,0,0,1-6.126,5.1,18.268,18.268,0,0,1-2.137-2.466,12.421,12.421,0,0,1-1.477-2.809A13.635,13.635,0,0,1,278.875,464.56Z" transform="translate(-258.468 -449.822)" fill="#fff"/>
                <path id="Trazado_160211" data-name="Trazado 160211" d="M282.056,462.974a12.5,12.5,0,0,0-3.079,1.055,5.925,5.925,0,0,0-4.22-.891A7.837,7.837,0,0,1,282.056,462.974Z" transform="translate(-258.584 -449.6)" fill="#fff"/>
                <path id="Trazado_160212" data-name="Trazado 160212" d="M280.121,478.048a7.459,7.459,0,0,1-5.545-.89,20.466,20.466,0,0,0,2.571-1.141A9.167,9.167,0,0,0,280.121,478.048Z" transform="translate(-258.567 -450.875)" fill="#fff"/>
                <path id="Trazado_160213" data-name="Trazado 160213" d="M278.529,464.268a13.522,13.522,0,0,0-5.176,4.879,9.289,9.289,0,0,1-.429-4.5c.211-.271.421-.534.659-.785.217-.158.448-.3.679-.442A5.9,5.9,0,0,1,278.529,464.268Z" transform="translate(-258.405 -449.708)" fill="#fff"/>
                <path id="Trazado_160214" data-name="Trazado 160214" d="M275.108,473.562a19.324,19.324,0,0,0,1.682,1.832,21.876,21.876,0,0,1-2.552,1.187,7.771,7.771,0,0,1-1.5-1.232,7.537,7.537,0,0,1-1.048-1.451,14.286,14.286,0,0,1,1.516-3.653A12.907,12.907,0,0,0,275.108,473.562Z" transform="translate(-258.301 -450.344)" fill="#fff"/>
                <path id="Trazado_160215" data-name="Trazado 160215" d="M272.557,465.039a9.025,9.025,0,0,0,.474,4.484,13.04,13.04,0,0,0-1.5,3.765C270.1,470.591,270.763,467.5,272.557,465.039Z" transform="translate(-258.216 -449.866)" fill="#fff"/>
              </g>
            </g>
          </g>
        </g>
      </g>
    </g>
  </g>
</svg>
