<svg xmlns="http://www.w3.org/2000/svg" xmlns:xlink="http://www.w3.org/1999/xlink" width="199" height="199" viewBox="0 0 199 199">
  <defs>
    <linearGradient id="linear-gradient" x1="-81.422" y1="1.743" x2="-80.54" y2="-0.512" gradientUnits="objectBoundingBox">
      <stop offset="0.004" stop-color="#ec6969" stop-opacity="0"/>
      <stop offset="1" stop-color="#ec6969" stop-opacity="0.8"/>
    </linearGradient>
    <linearGradient id="linear-gradient-2" x1="-401.148" y1="2.101" x2="-397.827" y2="-0.459" xlink:href="#linear-gradient"/>
    <linearGradient id="linear-gradient-3" x1="-0.046" y1="4.05" x2="0.836" y2="1.795" gradientUnits="objectBoundingBox">
      <stop offset="0.004" stop-color="#ec6969" stop-opacity="0"/>
      <stop offset="1" stop-color="#ec6969" stop-opacity="0.6"/>
    </linearGradient>
    <linearGradient id="linear-gradient-4" x1="-1.512" y1="2.101" x2="1.81" y2="-0.459" xlink:href="#linear-gradient-3"/>
  </defs>
  <g id="Grupo_117451" data-name="Grupo 117451" transform="translate(-1011 -1645)">
    <g id="Grupo_117450" data-name="Grupo 117450">
      <ellipse id="Elipse_156" data-name="Elipse 156" cx="91.5" cy="92" rx="91.5" ry="92" transform="translate(1019 1653)" fill="#fff"/>
      <g id="Elipse_5462" data-name="Elipse 5462" transform="translate(1011 1645)" fill="none" stroke="#a7e446" stroke-width="10">
        <circle cx="99.5" cy="99.5" r="99.5" stroke="none"/>
        <circle cx="99.5" cy="99.5" r="94.5" fill="none"/>
      </g>
    </g>
    <g id="Grupo_117448" data-name="Grupo 117448">
      <g id="Grupo_116082" data-name="Grupo 116082" transform="translate(961.335 1576.615)">
        <g id="Grupo_116005" data-name="Grupo 116005" transform="translate(119.74 75.383)">
          <g id="Grupo_115972" data-name="Grupo 115972" transform="translate(6.331 103.163)">
            <g id="Grupo_115968" data-name="Grupo 115968" transform="translate(8.105 28.108)">
              <path id="Trazado_160216" data-name="Trazado 160216" d="M164.581,253.057a2.351,2.351,0,0,1-2.433.385,12.679,12.679,0,0,1-1.856-.744A49.67,49.67,0,0,1,153,248.453a5.908,5.908,0,0,1-2.381-2.587,6.275,6.275,0,0,1-.112-2.834q.225-1.969.449-3.938a.965.965,0,0,1,.252-.667.676.676,0,0,1,.27-.128c.059-.017.123-.03.183-.043,1.381-.248,3.613-1.39,4.935-.77.41.192.367,1.4.332,1.754a6.649,6.649,0,0,0-.051.679,5.719,5.719,0,0,0,.539,2.3,9.7,9.7,0,0,0,.876,1.441,36.338,36.338,0,0,0,4.972,5.712,6.146,6.146,0,0,1,1.42,1.633A1.894,1.894,0,0,1,164.581,253.057Z" transform="translate(-150.404 -237.303)" fill="#ff887f"/>
              <path id="Trazado_160217" data-name="Trazado 160217" d="M164.581,253.289a2.351,2.351,0,0,1-2.433.385,12.679,12.679,0,0,1-1.856-.744A49.67,49.67,0,0,1,153,248.685a5.908,5.908,0,0,1-2.381-2.587,6.275,6.275,0,0,1-.112-2.834q.225-1.969.449-3.938a.965.965,0,0,1,.252-.667.676.676,0,0,1,.27-.128,4.509,4.509,0,0,0,.414.406,5.848,5.848,0,0,0,1.659.94,3.677,3.677,0,0,0,3.194-.286c.059-.039.119-.082.183-.12a6.649,6.649,0,0,0-.051.679,5.719,5.719,0,0,0,.539,2.3,3.081,3.081,0,0,0,.141.278.894.894,0,0,0,.051.094,11.29,11.29,0,0,0,.684,1.069.058.058,0,0,0,.017.021,1.026,1.026,0,0,0,.064.09c.308.44.628.868.953,1.291.026.03.047.06.068.085q.936,1.2,1.963,2.313c.03.03.055.056.077.082.589.632,1.2,1.244,1.83,1.83a6.146,6.146,0,0,1,1.42,1.633A1.894,1.894,0,0,1,164.581,253.289Z" transform="translate(-150.404 -237.536)" fill="#020d18"/>
              <path id="Trazado_160218" data-name="Trazado 160218" d="M158.7,243.809a6.858,6.858,0,0,0-.718.218,3.793,3.793,0,0,0-1.74,1.171.062.062,0,0,1-.043.021.046.046,0,0,1-.034-.013.052.052,0,0,1-.009-.072,3.946,3.946,0,0,1,1.788-1.21,5.729,5.729,0,0,1,.705-.209A.894.894,0,0,0,158.7,243.809Z" transform="translate(-151.491 -238.517)" fill="#ffe3d8"/>
              <path id="Trazado_160219" data-name="Trazado 160219" d="M159.718,245.265c-.133.039-.265.081-.393.128a3.888,3.888,0,0,0-1.741,1.172.051.051,0,0,1-.042.022.067.067,0,0,1-.035-.013.054.054,0,0,1-.008-.073,3.965,3.965,0,0,1,1.787-1.206c.124-.043.244-.085.368-.12A1.026,1.026,0,0,0,159.718,245.265Z" transform="translate(-151.745 -238.793)" fill="#ffe3d8"/>
              <path id="Trazado_160220" data-name="Trazado 160220" d="M161.042,246.964c-.042.013-.081.026-.124.043a3.891,3.891,0,0,0-1.74,1.176.05.05,0,0,1-.043.017.087.087,0,0,1-.03-.008.051.051,0,0,1-.008-.077,3.961,3.961,0,0,1,1.783-1.206.7.7,0,0,1,.094-.03C161,246.909,161.021,246.939,161.042,246.964Z" transform="translate(-152.047 -239.116)" fill="#ffe3d8"/>
              <path id="Trazado_160221" data-name="Trazado 160221" d="M163.5,249.919a6.475,6.475,0,0,0-2.117,1.7.056.056,0,0,1-.042.021.061.061,0,0,1-.035-.012.059.059,0,0,1-.008-.077,6.645,6.645,0,0,1,2.125-1.711C163.451,249.867,163.477,249.893,163.5,249.919Z" transform="translate(-152.464 -239.676)" fill="#ffe3d8"/>
            </g>
            <g id="Grupo_115970" data-name="Grupo 115970" transform="translate(1.764 33.455)">
              <path id="Trazado_160222" data-name="Trazado 160222" d="M163.212,255.362a1.261,1.261,0,0,1-.2.367l-.013.013a5.182,5.182,0,0,1-2.638.983c-3.822.62-14.155-2.181-16.195-2.945a5.145,5.145,0,0,1-1.15-.577,1.108,1.108,0,0,1-.12-.133,2.323,2.323,0,0,1-.312-1.343c0-.043,0-.085,0-.132,0-.133.009-.265.017-.406,0-.039,0-.073.009-.111.008-.1.017-.206.03-.312.017-.141.034-.287.055-.432.1-.727.248-1.463.359-2.065.022-.133.052-.274.077-.423s.06-.3.094-.466.064-.321.1-.483c.012-.055.021-.111.034-.167l.064-.294c.021-.1.043-.2.064-.291.094-.436.184-.851.265-1.206.026-.124.051-.24.077-.346.09-.419.154-.693.154-.693l5.083.047,1.03.009a7.391,7.391,0,0,0,.316.914,4.384,4.384,0,0,0,.227.449,3.045,3.045,0,0,0,.508.474c.039.035.081.069.124.1.09.073.188.15.291.235.081.06.162.124.252.2.252.192.534.406.842.632.03.022.06.047.09.069.448.333.944.692,1.462,1.06.03.022.06.043.086.064.457.325.932.659,1.4.983.034.022.064.043.094.065.654.448,1.3.889,1.9,1.274.115.077.231.15.342.222.679.436,1.266.791,1.693,1.013.068.039.137.073.2.1a6.158,6.158,0,0,1,.842.5,7.575,7.575,0,0,1,2.1,2.2v0c.038.068.077.132.111.2.017.039.034.073.051.107A2.868,2.868,0,0,1,163.212,255.362Z" transform="translate(-142.583 -243.899)" fill="#ff887f"/>
              <g id="Grupo_115969" data-name="Grupo 115969" transform="translate(0 0.607)">
                <path id="Trazado_160223" data-name="Trazado 160223" d="M163.212,255.5a1.261,1.261,0,0,1-.2.367l-.013.013a5.182,5.182,0,0,1-2.638.983c-3.822.62-14.155-2.181-16.195-2.945a5.145,5.145,0,0,1-1.15-.577,1.108,1.108,0,0,1-.12-.133,2.323,2.323,0,0,1-.312-1.343c0-.043,0-.085,0-.132,0-.133.009-.265.017-.406,0-.039,0-.073.009-.111.008-.1.017-.206.03-.312.017-.141.034-.287.055-.432.1-.727.248-1.463.359-2.065.022-.133.052-.274.077-.423s.06-.3.094-.466.064-.321.1-.483c.012-.055.021-.111.034-.167l.064-.294c.021-.1.043-.2.064-.291.094-.436.184-.851.265-1.206.026-.124.051-.24.077-.346a.931.931,0,0,1,.615-.06c1.094.235,2.112.671,3.241.829a5.806,5.806,0,0,0,1.244.06,2.628,2.628,0,0,0,1.21-.359,2.886,2.886,0,0,0,.273-.193,4.384,4.384,0,0,0,.227.449,3.045,3.045,0,0,0,.508.474c.039.035.081.069.124.1.09.073.188.15.291.235.081.06.162.124.252.2.252.192.534.406.842.632.03.022.06.047.09.069.448.333.944.692,1.462,1.06.03.022.06.043.086.064.457.325.932.659,1.4.983.034.022.064.043.094.065.654.448,1.3.889,1.9,1.274.115.077.231.15.342.222.679.436,1.266.791,1.693,1.013.068.039.137.073.2.1a6.158,6.158,0,0,1,.842.5,9.664,9.664,0,0,1,2.224,2.1l.013.013c.025.043.059.086.089.128a.168.168,0,0,1,.03.047l.039.052s0,0-.009.008A.956.956,0,0,1,163.212,255.5Z" transform="translate(-142.583 -244.648)" fill="#020d18"/>
                <path id="Trazado_160224" data-name="Trazado 160224" d="M163.161,256.453s0,0-.009.008a.859.859,0,0,1-.124.158,1.823,1.823,0,0,1-.679.423,6.91,6.91,0,0,1-2.373.312h-.167a49.924,49.924,0,0,1-11.83-1.586,20.53,20.53,0,0,1-3.5-1.15h0a.288.288,0,0,1-.068-.03,9.83,9.83,0,0,1-1.826-1.064c0-.043,0-.085,0-.132a9.41,9.41,0,0,0,1.83,1.081.5.5,0,0,0,.107.047v0a20.977,20.977,0,0,0,3.48,1.141,49.705,49.705,0,0,0,11.8,1.582,6.988,6.988,0,0,0,2.5-.307,1.627,1.627,0,0,0,.667-.428.673.673,0,0,0,.115-.158.168.168,0,0,1,.03.047Z" transform="translate(-142.583 -246.303)" fill="#ffe3d8"/>
                <path id="Trazado_160225" data-name="Trazado 160225" d="M144.7,253.384c0,.034,0,.068-.008.1l-.035,0-.072,0v-.026a1.1,1.1,0,0,0,.008-.115,11.617,11.617,0,0,0-1.09-5.78c.012-.055.021-.111.034-.167A11.768,11.768,0,0,1,144.7,253.384Z" transform="translate(-142.757 -245.167)" fill="#ffe3d8"/>
                <path id="Trazado_160226" data-name="Trazado 160226" d="M154.618,247.744a6.193,6.193,0,0,0-2.066,2.4.049.049,0,0,1-.047.03.053.053,0,0,1-.051-.077,6.353,6.353,0,0,1,2.074-2.424C154.558,247.7,154.588,247.722,154.618,247.744Z" transform="translate(-144.45 -245.221)" fill="#ffe3d8"/>
                <path id="Trazado_160227" data-name="Trazado 160227" d="M156.539,249.131a9.46,9.46,0,0,0-2.019,1.954.041.041,0,0,1-.042.022c-.013,0-.022,0-.03-.009a.055.055,0,0,1-.013-.077,9.228,9.228,0,0,1,2.018-1.954C156.483,249.089,156.513,249.11,156.539,249.131Z" transform="translate(-144.825 -245.485)" fill="#ffe3d8"/>
                <path id="Trazado_160228" data-name="Trazado 160228" d="M158.455,250.424a9.341,9.341,0,0,0-1.714,1.727.053.053,0,0,1-.043.021.048.048,0,0,1-.03-.012.051.051,0,0,1-.013-.073,9.327,9.327,0,0,1,1.706-1.728C158.4,250.381,158.425,250.4,158.455,250.424Z" transform="translate(-145.245 -245.729)" fill="#ffe3d8"/>
              </g>
            </g>
            <g id="Grupo_115971" data-name="Grupo 115971">
              <path id="Trazado_160229" data-name="Trazado 160229" d="M140.407,202.633l2.511,33.4,6.768.109,5.567-33.075Z" transform="translate(-140.407 -202.633)" fill="#ffb247"/>
              <path id="Trazado_160230" data-name="Trazado 160230" d="M167.211,203.666a23.211,23.211,0,0,1-1.091,5.459c-.983,3.056-8.406,23.033-8.406,23.033l-5.458-.437,2.511-28.818Z" transform="translate(-142.65 -202.684)" fill="#ffb247"/>
              <line id="Línea_251" data-name="Línea 251" y1="28.527" x2="5.749" transform="translate(9.97 0.509)" fill="none" stroke="#020d18" stroke-linecap="round" stroke-linejoin="round" stroke-width="0.272"/>
              <path id="Trazado_160231" data-name="Trazado 160231" d="M144.165,202.633q0,16.705.568,33.406" transform="translate(-141.118 -202.633)" fill="none" stroke="#020d18" stroke-linecap="round" stroke-linejoin="round" stroke-width="0.272"/>
            </g>
          </g>
          <g id="Grupo_116004" data-name="Grupo 116004">
            <g id="Grupo_115986" data-name="Grupo 115986" transform="translate(24.45 24.7)">
              <g id="Grupo_115976" data-name="Grupo 115976">
                <g id="Grupo_115973" data-name="Grupo 115973" transform="translate(15.994 22.429)">
                  <path id="Trazado_160232" data-name="Trazado 160232" d="M182.484,137.154s3.064-.194,4.494-.473c1.492-.291,2.383-.564,2.383-.564s.928-1.91,1.747-2.074,8.5-.528,8.5-.528-1.928,2.584-2.365,3.238a30.8,30.8,0,0,1-3.457,3.021c-.218.164-10.588,1.856-10.588,1.856Z" transform="translate(-182.484 -133.515)" fill="#ff887f"/>
                  <path id="Trazado_160233" data-name="Trazado 160233" d="M192.245,137.074s.847-.822,1.092-1.129c.436-.546.873-1.6,1.2-1.891" transform="translate(-184.332 -133.617)" fill="none" stroke="#020d18" stroke-linecap="round" stroke-linejoin="round" stroke-width="0.262"/>
                  <path id="Trazado_160234" data-name="Trazado 160234" d="M197.16,137.5s1.31-1.555,1.692-2.128,1.019-1.592,1.019-1.592" transform="translate(-185.262 -133.566)" fill="none" stroke="#020d18" stroke-linecap="round" stroke-linejoin="round" stroke-width="0.262"/>
                  <path id="Trazado_160235" data-name="Trazado 160235" d="M195.14,137.089s1.31-1.556,1.692-2.129.692-1.064.692-1.064" transform="translate(-184.88 -133.587)" fill="none" stroke="#020d18" stroke-linecap="round" stroke-linejoin="round" stroke-width="0.262"/>
                </g>
                <g id="Grupo_115975" data-name="Grupo 115975">
                  <path id="Trazado_160236" data-name="Trazado 160236" d="M163.777,106.593s2.692-1.892,4.731.363,2.546,11.644,2.474,15.5-.145,6.986-.145,6.986l7.714,1.31.946,5.895s-12.354,2.783-14.609,1.546-2.129-7.587-2.129-7.587Z" transform="translate(-162.756 -105.85)" fill="#dff7f9"/>
                  <g id="Grupo_115974" data-name="Grupo 115974" transform="translate(2.249 23.411)">
                    <line id="Línea_252" data-name="Línea 252" x2="8.987" y2="1.492" transform="translate(4.557)" fill="none" stroke="#020d18" stroke-linecap="round" stroke-linejoin="round" stroke-width="0.262"/>
                    <line id="Línea_253" data-name="Línea 253" x2="0.928" y2="6.604" transform="translate(11.725 1.183)" fill="none" stroke="#020d18" stroke-linecap="round" stroke-linejoin="round" stroke-width="0.272"/>
                    <path id="Trazado_160237" data-name="Trazado 160237" d="M165.53,139.561a2.072,2.072,0,0,1,1.01.953,8.132,8.132,0,0,1,1.549,4.407" transform="translate(-165.53 -135.642)" fill="none" stroke="#020d18" stroke-linecap="round" stroke-linejoin="round" stroke-width="0.272"/>
                  </g>
                </g>
              </g>
              <rect id="Rectángulo_40607" data-name="Rectángulo 40607" width="30.028" height="1.538" rx="0.769" transform="translate(11.423 22.445) rotate(-4.13)" fill="#142332"/>
              <g id="Grupo_115985" data-name="Grupo 115985" transform="translate(9.498 6.531)">
                <g id="Grupo_115981" data-name="Grupo 115981" transform="translate(15.227)">
                  <g id="Grupo_115978" data-name="Grupo 115978" transform="translate(1.151)">
                    <path id="Trazado_160238" data-name="Trazado 160238" d="M197.666,117.351a1.8,1.8,0,0,0-2.4.585,4.33,4.33,0,0,0-.59,2.636,7.093,7.093,0,0,0,.754,3.36,3.37,3.37,0,0,0,2.782,1.812,4.2,4.2,0,0,0,1.9-.557" transform="translate(-194.675 -114.51)" fill="none" stroke="#a3e1d6" stroke-miterlimit="10" stroke-width="2.355"/>
                    <g id="Grupo_115977" data-name="Grupo 115977" transform="translate(2.148)">
                      <path id="Trazado_160239" data-name="Trazado 160239" d="M207.285,113.906l-.226,1.428-.2,1.264-.04.255-.263,1.635-.2,1.269-.178,1.1-.085.526v0l-.2,1.264-.307,1.916v.014l-.2,1.249-.122.758-6.23.186-.019-.158-.191-1.42-.067-.507-.068-.5-.2-1.454v0l-.136-1-.191-1.42-.007-.058-.129-.947-.2-1.467-.135-1-.093-.688-.1-.765-.131-1-.036-.268a1.985,1.985,0,0,0,.4.012c.086,0,.186,0,.3,0,.321,0,.734-.007,1.209-.017l.058,0c.667-.011,1.458-.029,2.274-.049.523-.011,1.06-.027,1.578-.037l.245-.007c.8-.019,1.569-.037,2.2-.056h0c.369-.006.7-.015.959-.023.283,0,.5-.011.619-.014Z" transform="translate(-197.324 -113.906)" fill="#a3e1d6"/>
                      <path id="Trazado_160240" data-name="Trazado 160240" d="M199.3,114.142q-.9.646-1.8,1.278l-.131-1c.122-.081.245-.166.362-.256.086,0,.186,0,.3,0,.321,0,.734-.007,1.209-.017Z" transform="translate(-197.333 -113.951)" fill="#fff"/>
                      <path id="Trazado_160241" data-name="Trazado 160241" d="M203.229,114.035q-2.643,1.923-5.32,3.823l-.135-1c1.3-.917,2.589-1.849,3.877-2.781C202.174,114.062,202.711,114.046,203.229,114.035Z" transform="translate(-197.409 -113.93)" fill="#fff"/>
                      <path id="Trazado_160242" data-name="Trazado 160242" d="M207.337,113.91c-2.528,1.861-5.415,3.878-8.213,5.829-.273.191-.541.376-.8.567l-.007-.058-.129-.947c.141-.1.282-.2.428-.3,2.412-1.681,4.89-3.411,7.141-5.052h0c.369-.006.7-.015.959-.024C207,113.92,207.217,113.913,207.337,113.91Z" transform="translate(-197.487 -113.907)" fill="#fff"/>
                      <path id="Trazado_160243" data-name="Trazado 160243" d="M207.3,115.667l-.2,1.264c-2.578,1.911-5.636,4.168-8.371,6.131l-.136-1C201.483,119.969,204.7,117.593,207.3,115.667Z" transform="translate(-197.563 -114.239)" fill="#fff"/>
                      <path id="Trazado_160244" data-name="Trazado 160244" d="M206.869,119.558l-.2,1.269c-2.33,1.707-4.99,3.63-7.533,5.439l-.067-.507-.068-.5C201.692,123.338,204.492,121.31,206.869,119.558Z" transform="translate(-197.641 -114.976)" fill="#fff"/>
                      <path id="Trazado_160245" data-name="Trazado 160245" d="M206.48,123.134l-.2,1.264c-.151.11-.3.221-.451.336-1.621,1.206-3.358,2.5-5.068,3.747l-1.339.041-.019-.158c1.964-1.432,4.007-2.953,5.89-4.353C205.692,123.715,206.09,123.419,206.48,123.134Z" transform="translate(-197.717 -115.653)" fill="#fff"/>
                      <path id="Trazado_160246" data-name="Trazado 160246" d="M206.837,127.056v.014l-.2,1.249c-.357.26-.714.521-1.071.786l-1.592.047C204.934,128.457,205.888,127.761,206.837,127.056Z" transform="translate(-198.583 -116.395)" fill="#fff"/>
                    </g>
                    <path id="Trazado_160247" data-name="Trazado 160247" d="M206.738,114c.007.264-1.962.534-4.394.607s-4.414-.079-4.422-.343c0-.053.073-.1.216-.151,1.819-.016,6.679-.142,8.53-.193C206.712,113.947,206.737,113.975,206.738,114Z" transform="translate(-195.289 -113.909)" fill="#3a272e"/>
                  </g>
                  <g id="Grupo_115979" data-name="Grupo 115979" transform="translate(0 11.69)">
                    <path id="Trazado_160248" data-name="Trazado 160248" d="M193.255,128.876l17.52-.551s-1.225,2.88-9.005,2.88C194.215,131.2,193.255,128.876,193.255,128.876Z" transform="translate(-193.255 -128.325)" fill="#a3e1d6"/>
                  </g>
                  <g id="Grupo_115980" data-name="Grupo 115980" transform="translate(0 11.69)" opacity="0.39" style="mix-blend-mode: multiply;isolation: isolate">
                    <path id="Trazado_160249" data-name="Trazado 160249" d="M193.255,128.876l17.52-.551s-1.225,2.88-9.005,2.88C194.215,131.2,193.255,128.876,193.255,128.876Z" transform="translate(-193.255 -128.325)" fill="#a3e1d6"/>
                  </g>
                </g>
                <g id="Grupo_115984" data-name="Grupo 115984" transform="translate(0 4.618)">
                  <g id="Grupo_115983" data-name="Grupo 115983" transform="translate(2.074)">
                    <path id="Trazado_160250" data-name="Trazado 160250" d="M186.928,127.588l-9.316.872-.376-3.373-.205-1.864,9.752-.838.034,1.214Z" transform="translate(-177.03 -120.129)" fill="#ffd3ca"/>
                    <path id="Trazado_160251" data-name="Trazado 160251" d="M186.816,123.6a.92.92,0,0,1-.269.038c-.4,0-.778-.247-1.18-.23-.615.021-1.06.636-1.663.769-.786.171-1.633-.509-2.36-.167-.329.154-.568.5-.923.569s-.7-.158-1.047-.24a1.335,1.335,0,0,0-1.137.291c-.273.239-.547.624-.893.513a.406.406,0,0,1-.107-.056l-.205-1.864,9.752-.838Z" transform="translate(-177.03 -120.129)" fill="#ff887f"/>
                    <path id="Trazado_160252" data-name="Trazado 160252" d="M177.454,126.858l9.424-.655-.036-.946-9.5.837Z" transform="translate(-177.09 -120.672)" fill="#ff887f"/>
                    <g id="Grupo_115982" data-name="Grupo 115982" transform="translate(3.772)">
                      <path id="Trazado_160253" data-name="Trazado 160253" d="M181.882,122.224a.7.7,0,0,0,.257.156,1.29,1.29,0,0,0,.852.088c.883-.278.629-1.452-.147-1.678C182.1,120.575,181.3,121.607,181.882,122.224Z" transform="translate(-181.683 -119.821)" fill="#ff887f"/>
                      <path id="Trazado_160254" data-name="Trazado 160254" d="M182.953,120.729a2.738,2.738,0,0,1,.62-1.127" transform="translate(-181.923 -119.602)" fill="none" stroke="#523e3f" stroke-linecap="round" stroke-linejoin="round" stroke-width="0.262"/>
                    </g>
                  </g>
                  <path id="Trazado_160255" data-name="Trazado 160255" d="M174.8,128.239l3.384,3.784,8.151-.655,2.8-5.349-14.664,1.71Z" transform="translate(-174.472 -120.817)" fill="#fff"/>
                </g>
              </g>
            </g>
            <path id="Trazado_160256" data-name="Trazado 160256" d="M160.186,133.927l.872,16.157-26.306,1.42c.654-4.912,2.291-17.683,2.073-23.579s.872-10.372,3.275-13.647a30.561,30.561,0,0,1,5.135-4.874c.376-.3.747-.586,1.1-.863,1.864-1.424,3.369-2.45,3.369-2.45l10.179.829,3.463,9.325C163.132,122.029,160.186,133.927,160.186,133.927Z" transform="translate(-133.006 -81.196)" fill="#dff7f9"/>
            <g id="Grupo_115989" data-name="Grupo 115989" transform="translate(0 24.515)">
              <path id="Trazado_160257" data-name="Trazado 160257" d="M168.412,123.508l-1.274-.152a46.905,46.905,0,0,0,.075-10.159,12.111,12.111,0,0,0-3.71-6.6l.828-.979a13.213,13.213,0,0,1,4.15,7.378A47.285,47.285,0,0,1,168.412,123.508Z" transform="translate(-138.448 -105.622)" fill="#020d18"/>
              <path id="Trazado_160258" data-name="Trazado 160258" d="M162.726,126.962l-13.1,1.565c-2.568,5.138-4.76,10.187-7.919,14.99q-.213.323-.428.645a10.878,10.878,0,0,1-1.461,1.86,4.547,4.547,0,0,1-2.667,1.2c-.228.03-1.442.226-1.756-.066a.071.071,0,0,0-.118.041c-.368,1.992-2.679,14.863-2.679,24.407,0,10.37.328,16.483.328,16.483l31.765,1.2s-2.729-26.2-3.165-30.237-1.856-20.413-1.856-20.413Z" transform="translate(-132.598 -109.661)" fill="#020d18"/>
              <g id="Grupo_115988" data-name="Grupo 115988" transform="translate(0.436 37.518)">
                <line id="Línea_254" data-name="Línea 254" x2="31.11" y2="0.327" transform="translate(0 38.51)" fill="none" stroke="#ffe3d8" stroke-linecap="round" stroke-linejoin="round" stroke-width="0.272"/>
                <g id="Grupo_115987" data-name="Grupo 115987" transform="translate(2.187)">
                  <path id="Trazado_160259" data-name="Trazado 160259" d="M140.939,163.855l9.279.109s-.109,12.334-5.022,12.007S140.939,163.855,140.939,163.855Z" transform="translate(-136.795 -154.163)" fill="none" stroke="#ffe3d8" stroke-linecap="round" stroke-linejoin="round" stroke-width="0.272"/>
                  <line id="Línea_255" data-name="Línea 255" x2="9.279" transform="translate(4.144 11.329)" fill="none" stroke="#ffe3d8" stroke-linecap="round" stroke-linejoin="round" stroke-width="0.272"/>
                  <path id="Trazado_160260" data-name="Trazado 160260" d="M138.044,151.9a164.241,164.241,0,0,0-1.625,40.7" transform="translate(-135.834 -151.9)" fill="none" stroke="#ffe3d8" stroke-linecap="round" stroke-linejoin="round" stroke-width="0.272"/>
                </g>
              </g>
              <path id="Trazado_160261" data-name="Trazado 160261" d="M154.579,125.273l-1.356-.03c.145-5.814-.406-12.155-5.54-15.267.376-.3.747-.586,1.1-.863C154.173,112.673,154.724,119.578,154.579,125.273Z" transform="translate(-135.453 -106.283)" fill="#020d18"/>
            </g>
            <path id="Trazado_160262" data-name="Trazado 160262" d="M151.806,107.036a28.446,28.446,0,0,0,2.76,3.668,8.693,8.693,0,0,0,3.255,2.527,3.706,3.706,0,0,0,3.888-.606,3.259,3.259,0,0,0,.865-2.606,4.55,4.55,0,0,0-1.179-2.529" transform="translate(-136.234 -81.375)" fill="none" stroke="#020d18" stroke-linecap="round" stroke-linejoin="round" stroke-width="0.272"/>
            <g id="Grupo_115991" data-name="Grupo 115991" transform="translate(19.593 75.585)">
              <g id="Grupo_115990" data-name="Grupo 115990">
                <path id="Trazado_160263" data-name="Trazado 160263" d="M157.2,171.578s-.382,6-.437,6.768,3.657,3.438,4.258,3.548,5.24.382,5.076-.382-4.094-2.129-4.367-2.293a10.065,10.065,0,0,1-1.092-1.091l.491-4.257s4.476,5.348,5.185,5.076-.218-3.6-.873-4.585-3.493-5.677-3.493-5.677a3.978,3.978,0,0,0-3.33.873C157.2,170.869,157.2,171.578,157.2,171.578Z" transform="translate(-156.765 -168.616)" fill="#ff887f"/>
                <path id="Trazado_160264" data-name="Trazado 160264" d="M158.777,176.826a14.822,14.822,0,0,0-.073,2.983c.182.582,2.656,2.511,2.91,2.838s3.93.727,4.476.837" transform="translate(-157.12 -170.17)" fill="none" stroke="#020d18" stroke-linecap="round" stroke-linejoin="round" stroke-width="0.272"/>
                <path id="Trazado_160265" data-name="Trazado 160265" d="M157.223,177.387a12.849,12.849,0,0,0,.027,2.7,16.355,16.355,0,0,0,3.685,3.438" transform="translate(-156.839 -170.276)" fill="none" stroke="#020d18" stroke-linecap="round" stroke-linejoin="round" stroke-width="0.272"/>
              </g>
            </g>
            <g id="Grupo_115993" data-name="Grupo 115993" transform="translate(4.167 31.119)">
              <path id="Trazado_160266" data-name="Trazado 160266" d="M158.836,160.331c-2.446-.137-5.143,2.706-5.494,3.086-.025.03-.038.043-.038.043s-.492-.675-1.283-1.757c-.022-.03-.043-.064-.069-.1-.141-.2-.294-.41-.457-.632a.411.411,0,0,0-.068-.09c-2.241-3.1-5.977-8.286-8.187-11.531a.312.312,0,0,1-.034-.051c-.039-.056-.073-.107-.107-.158-.026-.034-.047-.073-.073-.107-.658-.974-1.159-1.745-1.407-2.189a12.36,12.36,0,0,1-.782-2.031c-.632-2.031-1.321-4.976-1.877-7.58l0-.013c-.035-.171-.073-.337-.107-.5-.291-1.368-.543-2.617-.722-3.544a.489.489,0,0,0-.022-.09c-.188-.97-.3-1.573-.3-1.573l.039-.026,12.21-7.324.1-.064.018-.008.038.41.261,2.757a.806.806,0,0,0,.008.094l1.279,13.661.009.111.008.068,6.247,16.939.038.1Z" transform="translate(-137.751 -115.722)" fill="#dff7f9"/>
              <path id="Trazado_160267" data-name="Trazado 160267" d="M152.844,127.083a.054.054,0,0,1-.053-.048c0-.032-.334-3.261-.927-6.874a12.413,12.413,0,0,0-2.78-6.287.049.049,0,0,1-.061-.039.056.056,0,0,1,.043-.065.135.135,0,0,1,.1.028,12.774,12.774,0,0,1,2.8,6.346c.593,3.617.924,6.848.928,6.881a.054.054,0,0,1-.048.058Z" transform="translate(-139.874 -113.768)" fill="#020d18"/>
              <g id="Grupo_115992" data-name="Grupo 115992" transform="translate(0 15.737)">
                <path id="Trazado_160268" data-name="Trazado 160268" d="M153.293,165.234a.054.054,0,0,1-.043-.021c-.469-.615-11.494-15.087-12.235-17.921-.726-2.78-3.249-13.935-3.274-14.047a.054.054,0,1,1,.1-.023c.025.113,2.548,11.265,3.274,14.043.735,2.814,12.1,17.733,12.217,17.883a.054.054,0,0,1-.042.087Z" transform="translate(-137.738 -133.179)" fill="#020d18"/>
                <path id="Trazado_160269" data-name="Trazado 160269" d="M139.349,140.494a.054.054,0,0,1-.049-.032l-1.31-3.056a.053.053,0,0,1,.028-.07.052.052,0,0,1,.07.028l1.31,3.056a.053.053,0,0,1-.028.071A.069.069,0,0,1,139.349,140.494Z" transform="translate(-137.785 -133.965)" fill="#020d18"/>
                <path id="Trazado_160270" data-name="Trazado 160270" d="M154.262,145.043c-1.334-.129-2.976-.133-3.232-.133a.052.052,0,0,1-.052-.051.057.057,0,0,1,.052-.056c.256,0,1.885,0,3.223.129Z" transform="translate(-140.244 -135.38)" fill="#020d18"/>
                <path id="Trazado_160271" data-name="Trazado 160271" d="M155.273,169.678a.076.076,0,0,1-.023,0,.055.055,0,0,1-.027-.071c.019-.041.475-1.015,3.137-2.319,2.566-1.257,2.941-1.219,2.991-1.2a.053.053,0,0,1-.04.1c-.009,0-.367-.044-2.9,1.2-2.617,1.282-3.082,2.256-3.086,2.266A.054.054,0,0,1,155.273,169.678Z" transform="translate(-141.047 -139.406)" fill="#020d18"/>
                <path id="Trazado_160272" data-name="Trazado 160272" d="M143.546,153.382a.053.053,0,0,1-.04-.089,1.748,1.748,0,0,0,.356-.869,6.1,6.1,0,0,0-1.457-5.108,2.913,2.913,0,0,0-1.677-1.027.053.053,0,0,1-.045-.061.05.05,0,0,1,.061-.045,3.012,3.012,0,0,1,1.739,1.061,6.211,6.211,0,0,1,1.484,5.2,2.335,2.335,0,0,1-.2.658.055.055,0,0,1,.072.014.054.054,0,0,1-.011.075l-.247.182A.053.053,0,0,1,143.546,153.382Z" transform="translate(-138.296 -135.64)" fill="#020d18"/>
              </g>
            </g>
            <g id="Grupo_116003" data-name="Grupo 116003" transform="translate(12.08)">
              <g id="Grupo_115994" data-name="Grupo 115994" transform="translate(0.24 6.861)">
                <path id="Trazado_160273" data-name="Trazado 160273" d="M148.115,97.143a4.162,4.162,0,0,0,1.253,1.965,3.472,3.472,0,0,1,.695.8,3.056,3.056,0,0,0,.251.469c.4.508,1.195.3,1.841.346.478.036,1.021.227,1.393-.075a1.3,1.3,0,0,0,.289-1.141q-.129-1.772-.346-3.536a11.539,11.539,0,0,0-.786-3.35,3.7,3.7,0,0,0-1.036-1.42c-1.087-.854-3.545-.73-3.848.923a7.6,7.6,0,0,0,.227,1.929A23.316,23.316,0,0,0,148.115,97.143Z" transform="translate(-147.795 -85.14)" fill="#3a272e"/>
                <path id="Trazado_160274" data-name="Trazado 160274" d="M170.822,86.96c.094.319.249.618.33.94a4.305,4.305,0,0,1-.018,1.664q-.12.852-.24,1.706a1.815,1.815,0,0,1-.255.82.622.622,0,0,1-.756.242.919.919,0,0,1-.359-.661l-.674-3.137q-.274-1.272-.546-2.544c-.2-.913.066-2.458,1.364-2.088S170.536,85.994,170.822,86.96Z" transform="translate(-151.666 -83.847)" fill="#3a272e"/>
              </g>
              <path id="Trazado_160275" data-name="Trazado 160275" d="M153.879,100.873s-.272,3.03-.636,4.632c0,0,4.367,6.477,6.987,5.677s.582-5.24.582-5.24Z" transform="translate(-148.586 -80.208)" fill="#ff887f"/>
              <path id="Trazado_160276" data-name="Trazado 160276" d="M167.7,92.39a21.266,21.266,0,0,1-.811,5.118,10.776,10.776,0,0,1-.454,1.286,5.683,5.683,0,0,1-3.18,3.427c-3.76,1.274-8.018-1.979-9.543-5.228a12.827,12.827,0,0,1-.292-10.09c1.013-2.523,3.265-5.069,6.034-5.561a5.52,5.52,0,0,1,2.377.106c2.961.774,4.818,3.544,5.483,6.411.036.138.065.281.093.418.053.272.1.551.138.835.036.251.065.511.089.771.012.138.024.276.032.413C167.709,90.987,167.721,91.689,167.7,92.39Z" transform="translate(-148.45 -76.496)" fill="#ff887f"/>
              <g id="Grupo_115999" data-name="Grupo 115999" transform="translate(8.41 10.695)">
                <g id="Grupo_115998" data-name="Grupo 115998" transform="translate(2.496 2.892)">
                  <g id="Grupo_115997" data-name="Grupo 115997" transform="translate(0 0.812)">
                    <g id="Grupo_115996" data-name="Grupo 115996">
                      <g id="Grupo_115995" data-name="Grupo 115995">
                        <path id="Trazado_160277" data-name="Trazado 160277" d="M162.011,93.73a.532.532,0,1,1-.474-.584A.531.531,0,0,1,162.011,93.73Z" transform="translate(-160.951 -93.144)" fill="#3a272e"/>
                        <path id="Trazado_160278" data-name="Trazado 160278" d="M169.111,94.318a.531.531,0,1,1-.473-.584A.532.532,0,0,1,169.111,94.318Z" transform="translate(-162.295 -93.255)" fill="#3a272e"/>
                      </g>
                    </g>
                  </g>
                  <path id="Trazado_160279" data-name="Trazado 160279" d="M167.092,92.142a5.327,5.327,0,0,0-.233,3.261A2.919,2.919,0,0,1,167,97.366a2.29,2.29,0,0,1-1.383.943" transform="translate(-161.834 -92.142)" fill="none" stroke="#453239" stroke-linecap="round" stroke-linejoin="round" stroke-width="0.348"/>
                </g>
                <path id="Trazado_160280" data-name="Trazado 160280" d="M158.69,89.605a1.763,1.763,0,0,0-.783.786.626.626,0,0,0,.482.83,1.245,1.245,0,0,0,.57-.117,12.856,12.856,0,0,1,2.922-.7.688.688,0,0,0,.446-.16.435.435,0,0,0,.087-.242,1.274,1.274,0,0,0-.3-1.022C161.172,87.982,159.531,89.074,158.69,89.605Z" transform="translate(-157.872 -88.575)" fill="#3a272e"/>
                <path id="Trazado_160281" data-name="Trazado 160281" d="M170.554,91.374a12.387,12.387,0,0,0-2.048-.414.712.712,0,0,1-.45-.158.475.475,0,0,1-.085-.243,1.277,1.277,0,0,1,.3-1.021,1.678,1.678,0,0,1,1.959-.187c.036.138.065.281.093.418.053.272.1.551.138.835C170.5,90.854,170.529,91.114,170.554,91.374Z" transform="translate(-159.781 -88.68)" fill="#3a272e"/>
              </g>
              <g id="Grupo_116002" data-name="Grupo 116002">
                <path id="Trazado_160282" data-name="Trazado 160282" d="M154.2,88.8a7.312,7.312,0,0,1,.071-2.218c.193-.527.649-1,.585-1.553a2.866,2.866,0,0,1-.073-.479,1.138,1.138,0,0,1,.187-.482,2.306,2.306,0,0,0,.409-1.783,1.659,1.659,0,0,0-1.141-1,3.844,3.844,0,0,0-1.59-.053,10.051,10.051,0,0,0-1.748.4,2.334,2.334,0,0,0-1.44.987c-.4.778.1,1.765-.26,2.558a3.9,3.9,0,0,1-.885,1.012,2.613,2.613,0,0,0-.814,1.6,11.671,11.671,0,0,0,.113,1.319,6.4,6.4,0,0,0,.043,1.5,2.14,2.14,0,0,0,1.778,1.352C151.645,92.308,154.1,91.174,154.2,88.8Z" transform="translate(-147.499 -76.48)" fill="#3a272e"/>
                <g id="Grupo_116001" data-name="Grupo 116001" transform="translate(1.175 14.235)">
                  <path id="Trazado_160283" data-name="Trazado 160283" d="M153.371,95.421s-1.463-3.656-3.455-2.089-.65,6.311,1.667,6.268,2.154-1.176,2.154-1.176Z" transform="translate(-148.948 -92.941)" fill="#ff887f"/>
                  <g id="Grupo_116000" data-name="Grupo 116000" transform="translate(0.735 1.171)">
                    <path id="Trazado_160284" data-name="Trazado 160284" d="M152.671,95.879a5.571,5.571,0,0,0-.743-.962,1.948,1.948,0,0,0-.573-.442.83.83,0,0,0-.7-.023,1.066,1.066,0,0,0-.418.422,2.629,2.629,0,0,0-.36,1.735,2.583,2.583,0,0,0,.829,1.554,1.319,1.319,0,0,0,.957.387,1.825,1.825,0,0,0,.97-.549" transform="translate(-149.855 -94.386)" fill="none" stroke="#453239" stroke-linecap="round" stroke-linejoin="round" stroke-width="0.308"/>
                    <path id="Trazado_160285" data-name="Trazado 160285" d="M152.51,95.547a4.312,4.312,0,0,1-.267,1.553,3.742,3.742,0,0,1-.349.865,1.371,1.371,0,0,1-.676.6" transform="translate(-150.113 -94.606)" fill="none" stroke="#453239" stroke-linecap="round" stroke-linejoin="round" stroke-width="0.308"/>
                  </g>
                </g>
                <path id="Trazado_160286" data-name="Trazado 160286" d="M153.593,93.733a1.839,1.839,0,0,0,.388.64.436.436,0,0,0,.586.062,1.059,1.059,0,0,0,.261-.527,12.556,12.556,0,0,0,.306-2.741l.112-2.956a4.919,4.919,0,0,0-.089-1.448c-.124-.458-.426-.867-.791-.883a.888.888,0,0,0-.727.522,3.8,3.8,0,0,0-.35,1.038A10.268,10.268,0,0,0,153.593,93.733Z" transform="translate(-148.529 -77.37)" fill="#3a272e"/>
                <path id="Trazado_160287" data-name="Trazado 160287" d="M157.186,82.614c.675-.173,1.224-.7,1.907-.831a2.95,2.95,0,0,1,2.193.681,9.607,9.607,0,0,0,1.964,1.3,1.865,1.865,0,0,0,2.157-.416c.14-.19.226-.415.37-.6.392-.507,1.129-.632,1.55-1.113a1.913,1.913,0,0,0,.383-.8,3.642,3.642,0,0,0-.3-2.547,2.2,2.2,0,0,0-.542-.7,3.29,3.29,0,0,0-2.01-.492,12.95,12.95,0,0,1-3.435-.464,24.979,24.979,0,0,0-3.426-1.187,4.886,4.886,0,0,0-3.84,1.09c-.766.645-1.328,1.513-2.13,2.112a6.4,6.4,0,0,0-1,.77,1.08,1.08,0,0,0-.253,1.16c.232.453.829.543,1.336.578.782.053,2.075-.118,2.74.371C155.627,82.092,156.032,82.908,157.186,82.614Z" transform="translate(-148.103 -75.383)" fill="#3a272e"/>
              </g>
            </g>
          </g>
        </g>
        <g id="Grupo_116048" data-name="Grupo 116048" transform="translate(171.623 97.774)">
          <g id="Grupo_116006" data-name="Grupo 116006" transform="translate(24.083 43.963)">
            <path id="Trazado_160288" data-name="Trazado 160288" d="M260.741,159.67a3.917,3.917,0,0,1,4.5-2.344,5.532,5.532,0,0,1,4.527,4.292c.971,4.326-3.841,28.432-7.681,40.957a9.161,9.161,0,0,1-8.831,6.487c-8.884-.072-24.066-.263-25.3-.724-1.747-.655-2.511-4.585-.328-5.349,1.682-.589,14.973-2.085,20.978-2.741a3.919,3.919,0,0,0,3.436-3.206C253.448,189.253,257.454,167.862,260.741,159.67Z" transform="translate(-226.3 -157.229)" fill="#fc4b52"/>
            <path id="Trazado_160289" data-name="Trazado 160289" d="M267.413,158c.2,3.184-1.587,11.221-2.208,14.35q-2.664,13.435-5.721,26.788c-.532,2.324-1.213,4.859-3.172,6.217a9.266,9.266,0,0,1-4.055,1.27c-8.288,1.175-17.571.446-25.924-.1" transform="translate(-226.306 -157.374)" fill="none" stroke="#523e3f" stroke-linecap="round" stroke-linejoin="round" stroke-width="0.262"/>
          </g>
          <g id="Grupo_116046" data-name="Grupo 116046">
            <g id="Grupo_116018" data-name="Grupo 116018" transform="translate(0.499 73.896)">
              <g id="Grupo_116012" data-name="Grupo 116012" transform="translate(12.167 19.066)">
                <g id="Grupo_116009" data-name="Grupo 116009" transform="translate(4.025 13.813)">
                  <path id="Trazado_160290" data-name="Trazado 160290" d="M234.992,242.832c-.578,1.121-9.286,8.123-11.694,9.6s-5.516,2.108-6.084.995,6.9-10.673,7.4-12.051a6.728,6.728,0,0,0,.3-2.013,7.414,7.414,0,0,0-.188-1.69l4.6-2.97s.327.365.828.945C231.827,237.6,235.438,241.972,234.992,242.832Z" transform="translate(-217.183 -234.706)" fill="#ff887f"/>
                  <g id="Grupo_116008" data-name="Grupo 116008" transform="translate(0 0.945)">
                    <path id="Trazado_160291" data-name="Trazado 160291" d="M234.992,243.053c-.578,1.121-9.286,8.123-11.694,9.6a10.941,10.941,0,0,1-3.947,1.5,3.609,3.609,0,0,1-.442.047h0c-.832.057-1.462-.107-1.693-.554-.337-.666,2.168-4.315,4.358-7.455.021-.028.038-.054.058-.082.606-.872,1.185-1.7,1.669-2.409a1.023,1.023,0,0,0,.062-.087c.277-.4.523-.774.72-1.086.021-.028.041-.059.062-.087a5.7,5.7,0,0,0,.467-.845,3.821,3.821,0,0,0,.114-.387.586.586,0,0,0,.023-.1,7.8,7.8,0,0,0,.163-1.526c.411-.169.872-.272,1.278-.46A9.966,9.966,0,0,0,230,236.054a2.028,2.028,0,0,1,.149-.182c.442.515,1.013,1.2,1.614,1.934.023.031.05.064.078.1a37.42,37.42,0,0,1,2.511,3.416v0a1.069,1.069,0,0,1,.055.092C234.877,242.181,235.132,242.785,234.992,243.053Z" transform="translate(-217.183 -235.872)" fill="#61a7ff"/>
                    <path id="Trazado_160292" data-name="Trazado 160292" d="M234.992,243.053c-.578,1.121-9.286,8.123-11.694,9.6a10.941,10.941,0,0,1-3.947,1.5,3.609,3.609,0,0,1-.442.047h0c-.832.057-1.462-.107-1.693-.554-.337-.666,2.168-4.315,4.358-7.455.021-.028.038-.054.058-.082.606-.872,1.185-1.7,1.669-2.409a1.023,1.023,0,0,0,.062-.087c.277-.4.523-.774.72-1.086.021-.028.041-.059.062-.087a5.7,5.7,0,0,0,.467-.845,3.821,3.821,0,0,0,.114-.387.586.586,0,0,0,.023-.1,7.8,7.8,0,0,0,.163-1.526c.411-.169.872-.272,1.278-.46A9.966,9.966,0,0,0,230,236.054a2.028,2.028,0,0,1,.149-.182c.442.515,1.013,1.2,1.614,1.934.023.031.05.064.078.1a37.42,37.42,0,0,1,2.511,3.416v0a1.069,1.069,0,0,1,.055.092C234.877,242.181,235.132,242.785,234.992,243.053Z" transform="translate(-217.183 -235.872)" fill="#61a7ff" opacity="0.16" style="mix-blend-mode: multiply;isolation: isolate"/>
                    <g id="Grupo_116007" data-name="Grupo 116007" transform="translate(0.943 1.934)">
                      <path id="Trazado_160293" data-name="Trazado 160293" d="M234.631,242.689c-.089.134-.184.261-.276.383a51.135,51.135,0,0,1-7.172,7.212c-2.522,2.211-4.872,4.139-7.611,5.146q-.268.1-.538.182c-.219.07-.439.135-.666.195l-.023-.1c.266-.067.525-.145.781-.23h0a21.31,21.31,0,0,0,6.976-4.392c.028-.021.053-.046.08-.067.31-.263.616-.533.932-.807,1.693-1.483,3.27-2.891,4.7-4.371.015-.018.035-.036.05-.054a32.906,32.906,0,0,0,2.407-2.773c.1-.13.205-.272.3-.416A1.069,1.069,0,0,1,234.631,242.689Z" transform="translate(-218.346 -239.079)" fill="#ffe3d8"/>
                      <path id="Trazado_160294" data-name="Trazado 160294" d="M235.14,238.356a16.371,16.371,0,0,0-.195,6.609.16.16,0,0,0,.006.045l-.056.01-.045.006a16.458,16.458,0,0,1,.212-6.767C235.085,238.289,235.113,238.322,235.14,238.356Z" transform="translate(-221.422 -238.258)" fill="#ffe3d8"/>
                      <path id="Trazado_160295" data-name="Trazado 160295" d="M227.011,252.16l-.082.064-.019-.019a15.808,15.808,0,0,0-3.1-2.92,5.745,5.745,0,0,0-1.214-.7c.021-.028.038-.054.058-.082a5.537,5.537,0,0,1,1.21.7,16.09,16.09,0,0,1,3.127,2.933Z" transform="translate(-219.15 -240.198)" fill="#ffe3d8"/>
                      <path id="Trazado_160296" data-name="Trazado 160296" d="M227.529,247.367a.054.054,0,0,1-.021.015.057.057,0,0,1-.049-.01,8.86,8.86,0,0,0-2.731-1.859,1.023,1.023,0,0,0,.062-.087,9,9,0,0,1,2.735,1.87A.048.048,0,0,1,227.529,247.367Z" transform="translate(-219.554 -239.615)" fill="#ffe3d8"/>
                      <path id="Trazado_160297" data-name="Trazado 160297" d="M228.348,245.865a.067.067,0,0,1-.024.016.054.054,0,0,1-.049-.01,9.23,9.23,0,0,0-2.583-1.8c.021-.028.041-.059.062-.087a9.572,9.572,0,0,1,2.59,1.815A.05.05,0,0,1,228.348,245.865Z" transform="translate(-219.736 -239.341)" fill="#ffe3d8"/>
                      <path id="Trazado_160298" data-name="Trazado 160298" d="M229.175,244.249a.054.054,0,0,1-.021.015.053.053,0,0,1-.05-.014,9.148,9.148,0,0,0-2.62-1.814.585.585,0,0,0,.023-.1,9.162,9.162,0,0,1,2.662,1.843A.048.048,0,0,1,229.175,244.249Z" transform="translate(-219.886 -239.03)" fill="#ffe3d8"/>
                    </g>
                  </g>
                </g>
                <g id="Grupo_116011" data-name="Grupo 116011">
                  <g id="Grupo_116010" data-name="Grupo 116010">
                    <path id="Trazado_160299" data-name="Trazado 160299" d="M215.274,217.668l13.681,13.317-5.385,5.676-11.353-8.078Z" transform="translate(-212.218 -217.668)" fill="#a3e1d6"/>
                    <path id="Trazado_160300" data-name="Trazado 160300" d="M215.274,217.668l13.681,13.317-5.385,5.676-11.353-8.078Z" transform="translate(-212.218 -217.668)" fill="#a3e1d6" opacity="0.43" style="mix-blend-mode: multiply;isolation: isolate"/>
                  </g>
                  <line id="Línea_256" data-name="Línea 256" x2="13.354" y2="12.844" transform="translate(2.329 1.637)" fill="none" stroke="#3a272e" stroke-linecap="round" stroke-linejoin="round" stroke-width="0.262"/>
                </g>
              </g>
              <g id="Grupo_116014" data-name="Grupo 116014">
                <path id="Trazado_160301" data-name="Trazado 160301" d="M225.5,194.15s-22.268,5.785-24.779,8.514a10.234,10.234,0,0,0-2.4,6.55s-1.965,4.039-.655,7.1S212.615,235.3,212.615,235.3l6.55-1.746-6.877-20.086s28.437,1.611,33.949-3.275c4.8-4.257,4.148-13.536,4.148-13.536Z" transform="translate(-197.21 -194.15)" fill="#a3e1d6"/>
                <g id="Grupo_116013" data-name="Grupo 116013" transform="translate(0 1.419)">
                  <path id="Trazado_160302" data-name="Trazado 160302" d="M226.7,195.9s-23.578,7.2-26.089,9.934a14.18,14.18,0,0,0-3.384,9.279c.219,3.33,15.391,20.522,15.391,20.522" transform="translate(-197.21 -195.9)" fill="none" stroke="#3a272e" stroke-linecap="round" stroke-linejoin="round" stroke-width="0.262"/>
                  <path id="Trazado_160303" data-name="Trazado 160303" d="M246.352,198.6c-.467,2.289-1.013,4.729-2.7,6.346a10.444,10.444,0,0,1-4.9,2.254c-7.64,1.852-15.666,1.888-23.2,4.151-1.579.474-3.345,1.271-3.744,2.872a4.174,4.174,0,0,0,.192,2.227c.811,2.612,2.523,4.83,3.873,7.208a56.606,56.606,0,0,1,4.372,11.089" transform="translate(-199.959 -196.412)" fill="none" stroke="#3a272e" stroke-linecap="round" stroke-linejoin="round" stroke-width="0.262"/>
                  <path id="Trazado_160304" data-name="Trazado 160304" d="M244.092,198.1a20.225,20.225,0,0,0-2.256,9.535" transform="translate(-205.656 -196.316)" fill="none" stroke="#3a272e" stroke-linecap="round" stroke-linejoin="round" stroke-width="0.262"/>
                </g>
              </g>
              <g id="Grupo_116017" data-name="Grupo 116017" transform="translate(3.214 39.514)">
                <path id="Trazado_160305" data-name="Trazado 160305" d="M222.571,252.932c-.945.949-12.006,5.241-14.917,5.969s-6.259.363-6.477-.945,10.406-8.589,11.351-9.824a7.15,7.15,0,0,0,.949-1.942,7.857,7.857,0,0,0,.352-1.771l5.612-1.53s.214.475.535,1.223C221.045,246.626,223.3,252.2,222.571,252.932Z" transform="translate(-201.174 -242.889)" fill="#ff887f"/>
                <g id="Grupo_116016" data-name="Grupo 116016" transform="translate(0 1.223)">
                  <path id="Trazado_160306" data-name="Trazado 160306" d="M222.571,253.218c-.945.949-12.006,5.241-14.917,5.969a11.623,11.623,0,0,1-4.476.252,3.815,3.815,0,0,1-.462-.094h0c-.859-.21-1.446-.577-1.535-1.1-.129-.782,3.578-3.673,6.8-6.148.03-.022.055-.043.085-.064.894-.688,1.745-1.339,2.463-1.9.03-.021.06-.043.09-.068.41-.321.778-.616,1.077-.868.03-.021.059-.047.089-.068a6.007,6.007,0,0,0,.744-.705c.085-.112.162-.231.239-.355a.638.638,0,0,0,.056-.094,8.276,8.276,0,0,0,.654-1.493c.47-.038.97,0,1.441-.055a10.573,10.573,0,0,0,4.848-1.886,2.329,2.329,0,0,1,.21-.137c.282.663.641,1.536,1.013,2.476.013.038.03.081.047.124a39.475,39.475,0,0,1,1.445,4.262v0c.008.038.021.072.026.111C222.733,252.3,222.8,252.991,222.571,253.218Z" transform="translate(-201.174 -244.397)" fill="#61a7ff"/>
                  <g id="Grupo_116015" data-name="Grupo 116015" transform="translate(0.666 2.476)">
                    <path id="Trazado_160307" data-name="Trazado 160307" d="M222.663,252.978c-.133.107-.27.205-.4.3a54.289,54.289,0,0,1-9.573,5c-3.262,1.428-6.259,2.625-9.354,2.766-.2.008-.4.013-.6.013-.243,0-.487,0-.735-.017l.009-.107c.29.017.576.021.863.017h0a22.636,22.636,0,0,0,8.47-2.206c.034-.013.068-.03.1-.043.4-.167.8-.342,1.2-.517,2.189-.957,4.237-1.877,6.161-2.916.021-.013.047-.025.068-.038a35.131,35.131,0,0,0,3.326-2.035c.145-.1.3-.21.436-.325C222.645,252.905,222.658,252.939,222.663,252.978Z" transform="translate(-201.995 -248.476)" fill="#ffe3d8"/>
                    <path id="Trazado_160308" data-name="Trazado 160308" d="M225.105,247.575a17.4,17.4,0,0,0-2.317,6.627.19.19,0,0,0-.008.047l-.06-.009-.047-.008a17.468,17.468,0,0,1,2.385-6.781C225.071,247.489,225.088,247.532,225.105,247.575Z" transform="translate(-205.909 -247.451)" fill="#ffe3d8"/>
                    <path id="Trazado_160309" data-name="Trazado 160309" d="M212.89,258.907l-.1.038-.013-.025a16.769,16.769,0,0,0-2.2-3.951,6.082,6.082,0,0,0-1-1.094c.03-.022.055-.043.085-.064a5.888,5.888,0,0,1,1,1.094,17.083,17.083,0,0,1,2.224,3.972C212.881,258.885,212.885,258.9,212.89,258.907Z" transform="translate(-203.428 -248.655)" fill="#ffe3d8"/>
                    <path id="Trazado_160310" data-name="Trazado 160310" d="M214.951,254.223a.061.061,0,0,1-.025.008.056.056,0,0,1-.047-.026,9.422,9.422,0,0,0-2.168-2.757c.03-.021.06-.043.09-.068a9.563,9.563,0,0,1,2.167,2.77A.051.051,0,0,1,214.951,254.223Z" transform="translate(-204.023 -248.195)" fill="#ffe3d8"/>
                    <path id="Trazado_160311" data-name="Trazado 160311" d="M216.263,252.965a.09.09,0,0,1-.03.009.06.06,0,0,1-.047-.026,9.8,9.8,0,0,0-2.035-2.655c.03-.021.059-.047.089-.068a10.158,10.158,0,0,1,2.04,2.667A.054.054,0,0,1,216.263,252.965Z" transform="translate(-204.296 -247.976)" fill="#ffe3d8"/>
                    <path id="Trazado_160312" data-name="Trazado 160312" d="M217.616,251.592a.052.052,0,0,1-.025.009.058.058,0,0,1-.047-.03,9.722,9.722,0,0,0-2.07-2.676.639.639,0,0,0,.056-.094,9.73,9.73,0,0,1,2.1,2.719A.05.05,0,0,1,217.616,251.592Z" transform="translate(-204.546 -247.707)" fill="#ffe3d8"/>
                  </g>
                </g>
              </g>
            </g>
            <g id="Grupo_116045" data-name="Grupo 116045">
              <g id="Grupo_116021" data-name="Grupo 116021" transform="translate(0.357 27.447)">
                <path id="Trazado_160313" data-name="Trazado 160313" d="M206.421,138.593l.978,23.485-8.074,3.4-2.289-25.543Z" transform="translate(-197.035 -137.186)" fill="#fff9f7"/>
                <g id="Grupo_116020" data-name="Grupo 116020" transform="translate(8.394)">
                  <g id="Grupo_116019" data-name="Grupo 116019" transform="translate(0 9.72)">
                    <path id="Trazado_160314" data-name="Trazado 160314" d="M207.57,148.861c.557-.248,3.157,2.709,3.621,3.33a22.546,22.546,0,0,1,1.561,4.167,4.248,4.248,0,0,0,.6,1.283l9.056,5.615,4.459-12.167,5.419,2.209-.013,8.851s-2.343,5.96-5.625,8.49-6.44-1.381-6.44-1.381l-9.114-8.766c-1.039.008-1.994-1.483-1.994-1.483l-.083-6.232s.17.254-.49-.868S207.012,149.109,207.57,148.861Z" transform="translate(-207.389 -148.846)" fill="#ff817f"/>
                    <path id="Trazado_160315" data-name="Trazado 160315" d="M225.912,166.621a13.564,13.564,0,0,1,2.234,3.359" transform="translate(-210.895 -152.21)" fill="none" stroke="#3a272e" stroke-linecap="round" stroke-linejoin="round" stroke-width="0.319"/>
                  </g>
                  <path id="Trazado_160316" data-name="Trazado 160316" d="M236.816,136.857s-2.19.5-4.061,4.462-5.255,11.64-5.255,11.64l6.695,2.692Z" transform="translate(-211.196 -136.857)" fill="#fff9f7"/>
                </g>
              </g>
              <g id="Grupo_116036" data-name="Grupo 116036" transform="translate(24.982)">
                <path id="Trazado_160317" data-name="Trazado 160317" d="M228.581,111.954a18.484,18.484,0,0,1-.007,1.884,10.927,10.927,0,0,0-.155,1.176,1.3,1.3,0,0,0,.43,1.061,2.878,2.878,0,0,0,.448-.859c.435-1.124.869-2.252,1.2-3.412a2.95,2.95,0,0,0,.154-1.15,1.116,1.116,0,0,0-.626-.919C228.931,109.3,228.591,111.283,228.581,111.954Z" transform="translate(-227.6 -104.265)" fill="#523e3f"/>
                <path id="Trazado_160318" data-name="Trazado 160318" d="M246.138,107.1a1.8,1.8,0,0,1,1.334-.358c.579.165.824.833.985,1.413a20.593,20.593,0,0,1,.951,4.976,7.124,7.124,0,0,0,.082,1.275c.094.447.3.863.406,1.308a3.874,3.874,0,0,1-.181,2.138,11.547,11.547,0,0,1-.967,1.943l-1.017,1.759a6.962,6.962,0,0,1-.606.928,3.48,3.48,0,0,1-1.114.9.842.842,0,0,1-.823.065.9.9,0,0,1-.3-.5,10.9,10.9,0,0,1-.537-3.767,10.949,10.949,0,0,0,.018-1.421,9.664,9.664,0,0,0-.234-1.191,15.117,15.117,0,0,1,.3-7.772,1.859,1.859,0,0,1,.481-.98A8.894,8.894,0,0,1,246.138,107.1Z" transform="translate(-230.505 -103.704)" fill="#523e3f"/>
                <path id="Trazado_160319" data-name="Trazado 160319" d="M245.23,132.077a16.877,16.877,0,0,0-2.4,1.774c-1.522,1.286-6.386,7.267-6.933,6.9s.339-6.216.687-7.709a4.19,4.19,0,0,0,.084-.853,16.222,16.222,0,0,0-.489-3.446c-.041-.163-.065-.258-.065-.258l7.515-5.07Z" transform="translate(-228.983 -106.866)" fill="#ff887f"/>
                <path id="Trazado_160320" data-name="Trazado 160320" d="M242.974,125.117c-.131.239-4.343,7.806-6.095,7.847a.62.62,0,0,0-.1,0,16.273,16.273,0,0,0-.49-3.447A15.537,15.537,0,0,0,242.974,125.117Z" transform="translate(-229.089 -107.188)" fill="#ff655c"/>
                <path id="Trazado_160321" data-name="Trazado 160321" d="M242.823,118.423a3.237,3.237,0,0,1,.414.7c.1.3.079.682.345.85a.268.268,0,0,0,.176.045c.119-.018.192-.139.24-.251.442-1.033.205-2.3.82-3.244.258-.394.673-.777.584-1.24a.851.851,0,0,0-1.1-.529,1.909,1.909,0,0,0-.976.932C242.911,116.4,242.322,117.638,242.823,118.423Z" transform="translate(-230.29 -105.217)" fill="#523e3f"/>
                <g id="Grupo_116032" data-name="Grupo 116032" transform="translate(0.825 2.243)">
                  <g id="Grupo_116030" data-name="Grupo 116030">
                    <path id="Trazado_160322" data-name="Trazado 160322" d="M241.476,121.648a13.047,13.047,0,0,1-2.7,2.873,9.328,9.328,0,0,1-3.24,1.667,4.849,4.849,0,0,1-6.208-3.257c-.069-.188-.133-.376-.188-.569a15.412,15.412,0,0,1-.637-3.27c-.021-.256-.039-.513-.051-.769,0-.022,0-.047,0-.069a19.771,19.771,0,0,1,.107-3.018c.064-.559.15-1.111.257-1.637.008-.047.021-.1.029-.146.689-3.2,2.271-6.623,5.729-7.494a7.168,7.168,0,0,1,7.106,2.492,10.175,10.175,0,0,1,2.125,5.6A11.941,11.941,0,0,1,241.476,121.648Z" transform="translate(-228.427 -105.768)" fill="#ff887f"/>
                    <g id="Grupo_116028" data-name="Grupo 116028" transform="translate(0.008 10.343)">
                      <g id="Grupo_116027" data-name="Grupo 116027">
                        <g id="Grupo_116024" data-name="Grupo 116024" transform="translate(0 0.349)">
                          <path id="Trazado_160323" data-name="Trazado 160323" d="M235.244,121.554a4.173,4.173,0,0,0,2.21,5.34,3.891,3.891,0,0,0,5.12-2.3,4.172,4.172,0,0,0-2.21-5.34A3.891,3.891,0,0,0,235.244,121.554Z" transform="translate(-229.672 -118.958)" opacity="0.32" fill="url(#linear-gradient)" style="mix-blend-mode: multiply;isolation: isolate"/>
                          <path id="Trazado_160324" data-name="Trazado 160324" d="M228.476,121.513a14.31,14.31,0,0,0,.628,3.5,3.528,3.528,0,0,0,.653-1.089,3.669,3.669,0,0,0-1.309-4.329C228.427,120.244,228.435,120.885,228.476,121.513Z" transform="translate(-228.437 -119.079)" opacity="0.32" fill="url(#linear-gradient-2)" style="mix-blend-mode: multiply;isolation: isolate"/>
                          <g id="Grupo_116023" data-name="Grupo 116023" transform="translate(2.055 4.962)">
                            <g id="Grupo_116022" data-name="Grupo 116022">
                              <path id="Trazado_160325" data-name="Trazado 160325" d="M235.489,125.078a4.657,4.657,0,0,1-4.517.58" transform="translate(-230.972 -125.078)" fill="none" stroke="#3a272e" stroke-linecap="round" stroke-linejoin="round" stroke-width="0.392"/>
                              <path id="Trazado_160326" data-name="Trazado 160326" d="M234.586,127.142a3.922,3.922,0,0,1-2.024.142" transform="translate(-231.273 -125.469)" fill="none" stroke="#3a272e" stroke-linecap="round" stroke-linejoin="round" stroke-width="0.392"/>
                            </g>
                          </g>
                        </g>
                        <g id="Grupo_116026" data-name="Grupo 116026" transform="translate(0.772)">
                          <g id="Grupo_116025" data-name="Grupo 116025">
                            <path id="Trazado_160327" data-name="Trazado 160327" d="M235.725,119.272a.5.5,0,1,0,.52-.5A.509.509,0,0,0,235.725,119.272Z" transform="translate(-230.589 -118.573)" fill="#3a272e"/>
                            <path id="Trazado_160328" data-name="Trazado 160328" d="M229.39,119.03a.5.5,0,1,0,.52-.5A.513.513,0,0,0,229.39,119.03Z" transform="translate(-229.39 -118.527)" fill="#3a272e"/>
                          </g>
                        </g>
                      </g>
                    </g>
                    <g id="Grupo_116029" data-name="Grupo 116029" transform="translate(4.954 0.254)">
                      <path id="Trazado_160329" data-name="Trazado 160329" d="M234.538,106.082" transform="translate(-234.538 -106.082)" fill="none" stroke="#3a272e" stroke-linecap="round" stroke-linejoin="round" stroke-width="0.359"/>
                    </g>
                    <path id="Trazado_160330" data-name="Trazado 160330" d="M231.149,115.883a4.579,4.579,0,0,1,.264,3.182,11.616,11.616,0,0,0-.443,3.222.483.483,0,0,0,.08.263.455.455,0,0,0,.242.134,2.188,2.188,0,0,0,1.284-.032" transform="translate(-228.905 -107.683)" fill="none" stroke="#3a272e" stroke-linecap="round" stroke-linejoin="round" stroke-width="0.359"/>
                  </g>
                  <g id="Grupo_116031" data-name="Grupo 116031" transform="translate(0.124 7.786)">
                    <path id="Trazado_160331" data-name="Trazado 160331" d="M234.688,116.487a.453.453,0,0,0,.023.263c.107.23.443.263.717.265a5.492,5.492,0,0,1,1.985.271,1.351,1.351,0,0,0,.925.174.6.6,0,0,0,.265-.84,1.648,1.648,0,0,0-.8-.624,3.874,3.874,0,0,0-1.855-.533A1.4,1.4,0,0,0,234.688,116.487Z" transform="translate(-229.734 -115.388)" fill="#523e3f"/>
                    <path id="Trazado_160332" data-name="Trazado 160332" d="M230.581,116.6c-.094.235-.427.282-.705.3a7.677,7.677,0,0,0-1.3.149c.064-.559.15-1.111.257-1.637a1.431,1.431,0,0,1,.444-.039,1.405,1.405,0,0,1,1.313.962A.467.467,0,0,1,230.581,116.6Z" transform="translate(-228.58 -115.373)" fill="#523e3f"/>
                  </g>
                </g>
                <g id="Grupo_116035" data-name="Grupo 116035">
                  <path id="Trazado_160333" data-name="Trazado 160333" d="M242.979,108.912c-.414.245-.874.4-1.295.635a7.946,7.946,0,0,0-1.181.853,2.248,2.248,0,0,0-.629.69,1.667,1.667,0,0,0-.135.84,5.16,5.16,0,0,0,1.047,2.55,3.039,3.039,0,0,1,.606,1.188,2.51,2.51,0,0,0,.153.884c.233.4.822.468,1.07.859.211.331.156.856.512,1.022a.736.736,0,0,0,.767-.255c.782-.762,1.039-1.916,1.712-2.776a6.538,6.538,0,0,0,.775-1,2.8,2.8,0,0,0,.2-1.527,7.958,7.958,0,0,0-1.094-3.334,4.278,4.278,0,0,0-1.082-1.419C243.96,107.867,243.39,108.67,242.979,108.912Z" transform="translate(-229.742 -103.962)" fill="#523e3f"/>
                  <path id="Trazado_160334" data-name="Trazado 160334" d="M242.886,104.327a6.2,6.2,0,0,0-3.556-1.129c-1.121,0-2.226.3-3.347.29a25.59,25.59,0,0,1-2.936-.4,11.092,11.092,0,0,0-2.7-.015,3.663,3.663,0,0,0-1.978.709,3.116,3.116,0,0,0-.943,2.195,3.513,3.513,0,0,0,.993,2.914,2.832,2.832,0,0,0,2.659.523c.3-.093.585-.233.892-.307a1.173,1.173,0,0,1,.914.1c.229.152.362.415.592.567.433.286,1.025.086,1.533.2a11.56,11.56,0,0,1,1.189.569,2.981,2.981,0,0,0,2.007-.227,24.455,24.455,0,0,0,3.384-1.578,7.286,7.286,0,0,0,1.559-1.1,2.636,2.636,0,0,0,.912-1.717A2.452,2.452,0,0,0,242.886,104.327Z" transform="translate(-227.409 -103.002)" fill="#523e3f"/>
                  <g id="Grupo_116034" data-name="Grupo 116034" transform="translate(13.382 10.469)">
                    <path id="Trazado_160335" data-name="Trazado 160335" d="M243.915,119.523s.791-4.148,3.03-3.548,1.437,5.876-.637,6.313-2.065-1.21-2.065-1.21Z" transform="translate(-243.915 -115.916)" fill="#ff887f"/>
                    <g id="Grupo_116033" data-name="Grupo 116033" transform="translate(1.22 1.116)">
                      <path id="Trazado_160336" data-name="Trazado 160336" d="M245.42,118.356a2.929,2.929,0,0,1,.694-.828.938.938,0,0,1,1.55.476,2.952,2.952,0,0,1,.107.844,5.953,5.953,0,0,1-.143,1.743,1.844,1.844,0,0,1-.379.752,1.318,1.318,0,0,1-1.315.378.558.558,0,0,1-.44-.41" transform="translate(-245.42 -117.292)" fill="none" stroke="#3a272e" stroke-linecap="round" stroke-linejoin="round" stroke-width="0.262"/>
                      <path id="Trazado_160337" data-name="Trazado 160337" d="M246.5,117.36a2.362,2.362,0,0,0-.608,1.229,4.992,4.992,0,0,0,.083,3.1" transform="translate(-245.471 -117.305)" fill="none" stroke="#3a272e" stroke-linecap="round" stroke-linejoin="round" stroke-width="0.262"/>
                    </g>
                  </g>
                </g>
              </g>
              <path id="Trazado_160338" data-name="Trazado 160338" d="M234.938,141.907s-.546,7.2-1.091,13.863-1.747,26.962-1.747,26.962a21.55,21.55,0,0,1,5.131,2.183c1.964,1.31,19.757,1.419,19.757,1.419s-.109-33.73-3.711-40.935a40.18,40.18,0,0,0-8.732-11.571Z" transform="translate(-203.315 -108.837)" fill="#dff7f9"/>
              <path id="Trazado_160339" data-name="Trazado 160339" d="M235.842,138.441s.341,1.72,2.47.682,6.768-5.294,6.768-5.294a30.5,30.5,0,0,1,5.185,5.949c1.911,3.112-12.935,10.043-12.935,10.043l-2.4-3.275Z" transform="translate(-203.85 -108.837)" fill="#fffdfc"/>
              <path id="Trazado_160340" data-name="Trazado 160340" d="M201.225,173.262l.017,0v.064Z" transform="translate(-197.471 -116.301)" fill="#ff887f"/>
              <line id="Línea_257" data-name="Línea 257" x1="1.792" y2="24.961" transform="translate(29.795 32.997)" fill="none" stroke="#3a272e" stroke-linecap="round" stroke-linejoin="round" stroke-width="0.262"/>
              <line id="Línea_258" data-name="Línea 258" x2="0.382" y2="4.912" transform="translate(30.75 34.598)" fill="none" stroke="#3a272e" stroke-linecap="round" stroke-linejoin="round" stroke-width="0.262"/>
              <g id="Grupo_116044" data-name="Grupo 116044" transform="translate(0 30.352)">
                <g id="Grupo_116039" data-name="Grupo 116039">
                  <path id="Trazado_160341" data-name="Trazado 160341" d="M203.538,141.76l-6.943-1.319,2.691,25.416,6.559,2.961-2.3-27.049" transform="translate(-196.595 -140.441)" fill="#ffb247"/>
                  <path id="Trazado_160342" data-name="Trazado 160342" d="M203.453,142.87l-6.467-1.228,2.506,23.671,6.109,2.757-2.139-25.192" transform="translate(-196.669 -140.668)" fill="none" stroke="#ffe3d8" stroke-miterlimit="10" stroke-width="0.262"/>
                  <g id="Grupo_116038" data-name="Grupo 116038" transform="translate(1.941 7.699)">
                    <g id="Grupo_116037" data-name="Grupo 116037">
                      <path id="Trazado_160343" data-name="Trazado 160343" d="M200.305,152.269c-.092-.023-.17-.152-.138-.39l.193-1.412c.032-.235-.066-.247-.1-.251s-.138-.016-.173.246l-.225,1.623a.022.022,0,0,1,.013.018c0,.029-.105.051-.176.036-.037-.008-.072-.015-.064-.071l.233-1.665c.032-.229-.06-.239-.1-.244s-.138-.015-.169.211l-.184,1.3c-.037.256-.143.378-.3.345a.14.14,0,0,1-.115-.164c0-.025.039,0,.081-.008s.092-.067.12-.258l.173-1.215c.049-.345.251-.45.422-.433a.324.324,0,0,1,.247.152.27.27,0,0,1,.25-.1c.178.019.346.172.3.537l-.186,1.373a.269.269,0,0,0,.1.262C200.533,152.2,200.4,152.295,200.305,152.269Z" transform="translate(-198.988 -149.937)" fill="#ffe3d8"/>
                      <path id="Trazado_160344" data-name="Trazado 160344" d="M201.3,152.265a.3.3,0,0,0,.241.252c.224.05.342-.138.4-.327.045-.14.2-.042.171.07a.525.525,0,0,1-.632.459.621.621,0,0,1-.425-.728c.053-.394.31-.655.531-.618.161.028.241.177.216.37A.594.594,0,0,1,201.3,152.265Zm-.011-.18a.436.436,0,0,0,.291-.381c.009-.07-.008-.115-.045-.122-.14-.025-.229.314-.242.446C201.288,152.047,201.288,152.066,201.286,152.085Z" transform="translate(-199.378 -150.208)" fill="#ffe3d8"/>
                      <path id="Trazado_160345" data-name="Trazado 160345" d="M202.2,151.671a.988.988,0,0,0,0-.105c0-.032.041-.049.081-.042a.156.156,0,0,1,.137.172l-.019.148c.1-.169.221-.293.362-.267.192.036.216.229.2.384l-.086.692c0,.029-.019.153.055.171.115.028.194-.176.238-.318.02-.068.053-.092.081-.086a.165.165,0,0,1,.083.162.065.065,0,0,1-.006.023c-.076.212-.228.488-.475.426a.316.316,0,0,1-.2-.37l.085-.671c.013-.1.018-.191-.037-.2-.083-.015-.3.233-.349.486l-.061.474c-.007.062-.015.139-.1.12a.145.145,0,0,1-.119-.174Z" transform="translate(-199.571 -150.237)" fill="#ffe3d8"/>
                      <path id="Trazado_160346" data-name="Trazado 160346" d="M203.91,153.044c-.087.126-.191.206-.316.174-.192-.049-.28-.269-.244-.561a3.525,3.525,0,0,1,.2-.74c.027-.054.015-.126.167-.1s.041.148.024.2a2.776,2.776,0,0,0-.168.672c-.023.183.014.294.1.315.115.028.228-.173.292-.407l.066-.559a.322.322,0,0,0-.013-.138c0-.024.056-.028.1-.02a.17.17,0,0,1,.137.186l-.106.889c0,.031-.019.159.055.178.115.03.193-.182.238-.331.019-.071.052-.1.081-.089.046.011.092.1.083.169a.165.165,0,0,1-.006.024c-.079.221-.229.508-.475.443A.306.306,0,0,1,203.91,153.044Z" transform="translate(-199.812 -150.292)" fill="#ffe3d8"/>
                    </g>
                  </g>
                </g>
                <g id="Grupo_116043" data-name="Grupo 116043" transform="translate(1.931 0.826)">
                  <g id="Grupo_116041" data-name="Grupo 116041" transform="translate(0 15.027)">
                    <path id="Trazado_160347" data-name="Trazado 160347" d="M235.608,159.995l-3.674,11.838-17.757-.085-1.028,3.793c.915.258,1.835.5,2.756.737q3.227.834,6.483,1.552c2.5.546,5.009,1.039,7.542,1.377a34.148,34.148,0,0,0,3.6.353,5.028,5.028,0,0,0,3.1-.469,5.452,5.452,0,0,0,1.356-1.45c.573-.792,1.082-1.516,1.5-2.238,1.2-2.067,2.042-4.141,3.162-6.252.743-1.4,1.48-2.8,2.132-4.245C244.778,164.907,246.2,161.305,235.608,159.995Z" transform="translate(-201.659 -159.995)" fill="#ff887f"/>
                    <path id="Trazado_160348" data-name="Trazado 160348" d="M236.32,174.6a19.568,19.568,0,0,1,4.165,1.334" transform="translate(-206.045 -162.759)" fill="none" stroke="#3a272e" stroke-linecap="round" stroke-linejoin="round" stroke-width="0.319"/>
                    <g id="Grupo_116040" data-name="Grupo 116040" transform="translate(0 7.637)">
                      <path id="Trazado_160349" data-name="Trazado 160349" d="M211.97,173.425,208,174.94l-2.82-1.442c.422.145,1.45.141,1.527-.036a1.352,1.352,0,0,0-.553-1.667,4.255,4.255,0,0,1-1.343-1.531,1,1,0,0,1-.1-.375.429.429,0,0,1,.287-.44.907.907,0,0,1,.634.066,5.513,5.513,0,0,1,.824.448c.778.483,1.551.976,2.347,1.43s1.668.773,2.436,1.26a2.507,2.507,0,0,1,.465.366C211.732,173.045,212.009,173.41,211.97,173.425Z" transform="translate(-200.062 -169.415)" fill="#ff887f"/>
                      <path id="Trazado_160350" data-name="Trazado 160350" d="M219.2,174.96l-4.284,3.763-5.823-.9s-6.751-.474-7.32-1.09a8.277,8.277,0,0,1-.513-.667c-.042-.064-.089-.133-.141-.205-.248-.359-.53-.791-.807-1.227l-.116-.188c-.312-.5-.607-1-.833-1.415-.022-.047-.047-.094-.069-.137a2.817,2.817,0,0,1-.311-.735c-.043-.513.6-1.141.675-1.261l.077.641,3.189,1.54c.205.1.79.307.987.427a2.811,2.811,0,0,0,1.5.338l5.472-.158c0,.008,0,.012.008.021s0,.017.009.026Z" transform="translate(-198.976 -169.695)" fill="#ff887f"/>
                      <path id="Trazado_160351" data-name="Trazado 160351" d="M202.717,175.312a.056.056,0,0,1-.029-.009c-.413-.268-3.315-1.838-3.344-1.853a.054.054,0,0,1,.051-.095c.119.065,2.936,1.587,3.352,1.859a.053.053,0,0,1-.029.1Z" transform="translate(-199.041 -170.159)" fill="#3a272e"/>
                      <path id="Trazado_160352" data-name="Trazado 160352" d="M202.755,176.614a.048.048,0,0,1-.043.026.041.041,0,0,1-.03-.013c-.23-.15-1.24-.705-2.09-1.167l-.116-.188c.876.479,2.014,1.1,2.266,1.27A.053.053,0,0,1,202.755,176.614Z" transform="translate(-199.26 -170.523)" fill="#3a272e"/>
                      <path id="Trazado_160353" data-name="Trazado 160353" d="M202.466,177.572a.054.054,0,0,1-.043.022.035.035,0,0,1-.03-.009c-.1-.064-.333-.2-.637-.363-.042-.064-.089-.133-.141-.205.393.222.714.4.834.478A.056.056,0,0,1,202.466,177.572Z" transform="translate(-199.476 -170.854)" fill="#3a272e"/>
                    </g>
                  </g>
                  <g id="Grupo_116042" data-name="Grupo 116042" transform="translate(31.002)">
                    <path id="Trazado_160354" data-name="Trazado 160354" d="M237.217,158.814s3.93-18.12,11.9-16.92,4.8,18.12,4.8,18.12l-1.856,5.458Z" transform="translate(-237.217 -141.531)" fill="#dff7f9"/>
                    <path id="Trazado_160355" data-name="Trazado 160355" d="M253.482,151.429s-1.383,8.587-3.857,12.953l-12.407-5.639s4.039-15.319,8.187-17.284" transform="translate(-237.217 -141.459)" fill="none" stroke="#3a272e" stroke-linecap="round" stroke-linejoin="round" stroke-width="0.262"/>
                    <path id="Trazado_160356" data-name="Trazado 160356" d="M255.035,162.7s1.382-2.619,1.964-4" transform="translate(-240.59 -144.721)" fill="none" stroke="#3a272e" stroke-linecap="round" stroke-linejoin="round" stroke-width="0.262"/>
                    <path id="Trazado_160357" data-name="Trazado 160357" d="M255.715,162.234c1.651,9.6-.1,19.439.244,29.175" transform="translate(-240.718 -145.391)" fill="none" stroke="#3a272e" stroke-linecap="round" stroke-linejoin="round" stroke-width="0.262"/>
                  </g>
                </g>
              </g>
            </g>
          </g>
          <g id="Grupo_116047" data-name="Grupo 116047" transform="translate(20.326 95.345)">
            <line id="Línea_259" data-name="Línea 259" x2="10.371" y2="42.736" transform="translate(33.729)" fill="none" stroke="#523e3f" stroke-linecap="round" stroke-linejoin="round" stroke-width="1.031"/>
            <line id="Línea_260" data-name="Línea 260" x1="10.261" y2="42.63" transform="translate(0 0.105)" fill="none" stroke="#523e3f" stroke-linecap="round" stroke-linejoin="round" stroke-width="1.031"/>
            <line id="Línea_261" data-name="Línea 261" x1="25.015" y1="0.053" transform="translate(9.424 3.428)" fill="none" stroke="#523e3f" stroke-linecap="round" stroke-linejoin="round" stroke-width="1.031"/>
          </g>
        </g>
        <g id="Grupo_116073" data-name="Grupo 116073" transform="translate(64.665 108.08)">
          <g id="Grupo_116050" data-name="Grupo 116050" transform="translate(54.628 108.744)">
            <path id="Trazado_160358" data-name="Trazado 160358" d="M147.613,262.237c-.5-.124-1.1-.235-1.766-.342-.042-.009-.085-.013-.128-.022-2.257-.354-5.263-.653-8.2-1.111a21.787,21.787,0,0,1-2.552-.525l-.1-.026c-1.92-.547-2.723-1.249-2.8-2.121-.107-1.2.876-2.783,1.257-3.6.043-.094.09-.222.146-.385.17-.513.384-1.313.572-2.078.265-1.073.483-2.065.483-2.065l4.75-.111s1.146,1.911,1.963,2.95a1.21,1.21,0,0,0,.145.145,8.157,8.157,0,0,0,.974.688.744.744,0,0,0,.094.06c.291.188.624.389.988.607a.656.656,0,0,0,.093.055c.355.214.744.445,1.146.68a1.069,1.069,0,0,1,.1.06c1,.576,2.1,1.214,3.159,1.838a.015.015,0,0,1,.009,0,.1.1,0,0,0,.025.018l0,0c2.42,1.428,4.626,2.821,4.942,3.48C153.615,261.908,149.849,262.784,147.613,262.237Z" transform="translate(-132.047 -249.847)" fill="#fc7262"/>
            <g id="Grupo_116049" data-name="Grupo 116049" transform="translate(0 2.173)">
              <path id="Trazado_160359" data-name="Trazado 160359" d="M147.613,262.744c-.5-.124-1.1-.235-1.766-.342-.042-.009-.085-.013-.128-.022-2.257-.354-5.263-.653-8.2-1.112a21.782,21.782,0,0,1-2.552-.525l-.1-.026c-1.92-.547-2.723-1.249-2.8-2.121-.107-1.2.876-2.783,1.257-3.6.043-.094.09-.222.146-.385.17-.513.384-1.313.572-2.078a6.9,6.9,0,0,1,2.193.376,11.4,11.4,0,0,0,3.3.782,10.862,10.862,0,0,0,1.852-.239,8.157,8.157,0,0,0,.974.688.744.744,0,0,0,.094.06c.291.188.624.389.988.607a.656.656,0,0,0,.093.055c.355.214.744.445,1.146.68a1.069,1.069,0,0,1,.1.06c1,.576,2.1,1.214,3.159,1.838a.015.015,0,0,1,.009,0,.1.1,0,0,0,.025.018l0,0c2.42,1.428,4.626,2.821,4.942,3.48C153.615,262.415,149.849,263.292,147.613,262.744Z" transform="translate(-132.047 -252.527)" fill="#feca2e"/>
              <path id="Trazado_160360" data-name="Trazado 160360" d="M135.231,261.319h-.009a.053.053,0,0,1-.044-.062,9.105,9.105,0,0,0,.009-3.235,5.921,5.921,0,0,0-1.394-2.881.054.054,0,0,1,0-.075.053.053,0,0,1,.075,0,6.025,6.025,0,0,1,1.42,2.934,9.2,9.2,0,0,1-.008,3.272A.052.052,0,0,1,135.231,261.319Z" transform="translate(-132.375 -253.004)" fill="#ffe3d8"/>
              <path id="Trazado_160361" data-name="Trazado 160361" d="M148.994,263.628a.051.051,0,0,1-.039-.017.316.316,0,0,1-.039-.3,12.582,12.582,0,0,1,2.148-4.711.053.053,0,0,1,.075-.011.054.054,0,0,1,.011.075,12.477,12.477,0,0,0-2.13,4.671c-.016.074-.028.155.012.2a.055.055,0,0,1,0,.076A.057.057,0,0,1,148.994,263.628Z" transform="translate(-135.237 -253.673)" fill="#ffe3d8"/>
              <path id="Trazado_160362" data-name="Trazado 160362" d="M144.56,254.574a8.936,8.936,0,0,0-1.206,2.022.054.054,0,0,1-.051.034.042.042,0,0,1-.022,0,.055.055,0,0,1-.025-.073,9.28,9.28,0,0,1,1.21-2.039A.744.744,0,0,0,144.56,254.574Z" transform="translate(-134.168 -252.903)" fill="#ffe3d8"/>
              <path id="Trazado_160363" data-name="Trazado 160363" d="M145.894,255.392a8.959,8.959,0,0,0-1.206,1.852.065.065,0,0,1-.051.03c-.009,0-.013,0-.021,0a.055.055,0,0,1-.026-.072,9.282,9.282,0,0,1,1.21-1.86A.656.656,0,0,0,145.894,255.392Z" transform="translate(-134.42 -253.059)" fill="#ffe3d8"/>
              <path id="Trazado_160364" data-name="Trazado 160364" d="M147.419,256.3a9.811,9.811,0,0,0-1.257,1.659.054.054,0,0,1-.047.025.064.064,0,0,1-.026-.008.05.05,0,0,1-.017-.073,10.292,10.292,0,0,1,1.249-1.663A1.072,1.072,0,0,1,147.419,256.3Z" transform="translate(-134.7 -253.23)" fill="#ffe3d8"/>
            </g>
          </g>
          <g id="Grupo_116052" data-name="Grupo 116052" transform="translate(1.35 32.863)">
            <g id="Grupo_116051" data-name="Grupo 116051" transform="translate(3.256 50.775)">
              <line id="Línea_262" data-name="Línea 262" x1="10.261" y2="44.974" fill="none" stroke="#523e3f" stroke-linecap="round" stroke-linejoin="round" stroke-width="1.049"/>
              <line id="Línea_263" data-name="Línea 263" x2="10.261" y2="44.974" transform="translate(33.839)" fill="none" stroke="#523e3f" stroke-linecap="round" stroke-linejoin="round" stroke-width="1.049"/>
              <line id="Línea_264" data-name="Línea 264" y1="0.036" x2="25.288" transform="translate(9.388 4.294)" fill="none" stroke="#523e3f" stroke-linecap="round" stroke-linejoin="round" stroke-width="1.049"/>
            </g>
            <path id="Trazado_160365" data-name="Trazado 160365" d="M74.208,156.3s-6.55-.873-7.75,4.475c-1.056,4.708,4.737,32.843,8.671,43.982a5.226,5.226,0,0,0,4.966,3.483c7.939-.052,26.8-.229,28.171-.745,1.746-.655,2.511-4.585.328-5.348s-23.906-3.056-23.906-3.056S78.356,161.978,74.208,156.3Z" transform="translate(-66.331 -156.25)" fill="#fc4b52"/>
            <path id="Trazado_160366" data-name="Trazado 160366" d="M70.853,163.189a37.028,37.028,0,0,0,1.027,9.487q2.664,13.434,5.721,26.787c.532,2.324,1.212,4.859,3.172,6.217a9.263,9.263,0,0,0,4.055,1.27c8.288,1.175,17.571.446,25.924-.1" transform="translate(-67.179 -157.563)" fill="none" stroke="#523e3f" stroke-linecap="round" stroke-linejoin="round" stroke-width="0.262"/>
          </g>
          <g id="Grupo_116072" data-name="Grupo 116072">
            <path id="Trazado_160367" data-name="Trazado 160367" d="M117.293,209.342l8.369,5.312s1.419,17.684,5.895,25.98h5.458l-.437-33.184-8.187-9.934Z" transform="translate(-74.627 -131.197)" fill="#61a7ff"/>
            <g id="Grupo_116057" data-name="Grupo 116057" transform="translate(18.36 56.643)">
              <g id="Grupo_116054" data-name="Grupo 116054" transform="translate(48.428 28.051)">
                <path id="Trazado_160368" data-name="Trazado 160368" d="M166.735,224.546c-1.026,1.437-3.784,2.617-6.289,3.369l-.082.026c-1.026.3-2,.534-2.8.683-1.809.334-3.8.962-5.254,1.368l-.107.026a8.8,8.8,0,0,1-1.625.35c-.671.026-1.672-1.163-1.822-2.766a5.188,5.188,0,0,0-.209-1,.907.907,0,0,0-.034-.107,14.065,14.065,0,0,0-.513-1.407v0c-.461-1.1-.953-2.031-.953-2.031l4.259-2.873a6.6,6.6,0,0,0,1.167,1.017,2.572,2.572,0,0,0,.752.18c.5.077,1.21.149,2.04.218l.111.012c.269.022.551.047.842.069a1.1,1.1,0,0,1,.111.008q.449.033.923.064a.8.8,0,0,0,.111.009c1.433.1,2.959.188,4.272.265.029,0,.064,0,.094,0,1.428.086,2.578.15,3.039.193C166.372,222.366,168.189,222.511,166.735,224.546Z" transform="translate(-147.047 -220.181)" fill="#fc7262"/>
                <g id="Grupo_116053" data-name="Grupo 116053" transform="translate(0.953 1.197)">
                  <path id="Trazado_160369" data-name="Trazado 160369" d="M166.958,224.825c-1.026,1.437-3.784,2.617-6.289,3.369l-.082.026c-1.026.3-2,.534-2.8.683-1.809.334-3.8.962-5.254,1.368l-.107.026a8.8,8.8,0,0,1-1.625.35c-.671.026-1.672-1.163-1.822-2.766a5.187,5.187,0,0,0-.209-1,.907.907,0,0,0-.034-.107,14.061,14.061,0,0,0-.513-1.407v0a4.21,4.21,0,0,1,.97-.445,6.892,6.892,0,0,0,2.976-1.757c.444-.479.82-1.043,1.278-1.5.5.077,1.21.149,2.04.218l.111.012c.269.022.551.047.842.069a1.1,1.1,0,0,1,.111.008q.449.033.923.064a.8.8,0,0,0,.111.009c1.433.1,2.959.188,4.272.265.029,0,.064,0,.094,0,1.428.086,2.578.15,3.039.193C166.595,222.645,168.412,222.791,166.958,224.825Z" transform="translate(-148.223 -221.658)" fill="#feca2e"/>
                  <path id="Trazado_160370" data-name="Trazado 160370" d="M152.625,231.611a.054.054,0,0,1-.05-.036,5.749,5.749,0,0,0-3.716-3.509.054.054,0,1,1,.03-.1,5.862,5.862,0,0,1,3.788,3.576.054.054,0,0,1-.032.068A.05.05,0,0,1,152.625,231.611Z" transform="translate(-148.336 -222.851)" fill="#ffe3d8"/>
                  <path id="Trazado_160371" data-name="Trazado 160371" d="M163.5,228.374a.053.053,0,0,1-.054-.051,11.948,11.948,0,0,1,1.289-5.875.054.054,0,0,1,.072-.024.054.054,0,0,1,.023.072,11.85,11.85,0,0,0-1.279,5.823.053.053,0,0,1-.051.055Z" transform="translate(-151.103 -221.802)" fill="#ffe3d8"/>
                  <path id="Trazado_160372" data-name="Trazado 160372" d="M157.149,221.939a13.361,13.361,0,0,0-.624,2.369.054.054,0,0,1-.051.043h-.013a.055.055,0,0,1-.043-.064,13.723,13.723,0,0,1,.62-2.36Z" transform="translate(-149.774 -221.709)" fill="#ffe3d8"/>
                  <path id="Trazado_160373" data-name="Trazado 160373" d="M158.35,222.035a15.468,15.468,0,0,0-.521,2.288.052.052,0,0,1-.052.047h-.008a.051.051,0,0,1-.043-.06,15.914,15.914,0,0,1,.513-2.283A1.1,1.1,0,0,1,158.35,222.035Z" transform="translate(-150.022 -221.728)" fill="#ffe3d8"/>
                  <path id="Trazado_160374" data-name="Trazado 160374" d="M159.63,222.125a15.235,15.235,0,0,0-.5,2.215.05.05,0,0,1-.051.047h-.009a.054.054,0,0,1-.047-.06,15.7,15.7,0,0,1,.5-2.211A.8.8,0,0,0,159.63,222.125Z" transform="translate(-150.267 -221.745)" fill="#ffe3d8"/>
                </g>
              </g>
              <g id="Grupo_116056" data-name="Grupo 116056">
                <path id="Trazado_160375" data-name="Trazado 160375" d="M87.312,205.045a17.883,17.883,0,0,0,15.283,4.221c7.932-1.383,9.023-2.183,9.023-2.183L122.1,198.2l13.39,18.484,5.095-3.347s-9.606-22.268-13.391-25.47S107,185.76,107,185.76s-9.715,4.912-14.518,10.861C88.217,201.9,87.385,202.789,87.312,205.045Z" transform="translate(-87.312 -185.581)" fill="#61a7ff"/>
                <g id="Grupo_116055" data-name="Grupo 116055" transform="translate(8.066 2.789)">
                  <path id="Trazado_160376" data-name="Trazado 160376" d="M117.293,210s8.587-7.5,10.115-9.024" transform="translate(-101.053 -191.283)" fill="none" stroke="#3a272e" stroke-linecap="round" stroke-linejoin="round" stroke-width="0.262"/>
                  <path id="Trazado_160377" data-name="Trazado 160377" d="M129.142,201.6l5.967.946a12.319,12.319,0,0,1,3.42,7.059c.51,4.367.582,16.52.582,16.52l.146,15.282" transform="translate(-103.295 -191.402)" fill="none" stroke="#3a272e" stroke-linecap="round" stroke-linejoin="round" stroke-width="0.262"/>
                  <path id="Trazado_160378" data-name="Trazado 160378" d="M119.519,210.291a18.137,18.137,0,0,1,6.961,3.7,4.6,4.6,0,0,1,1.9,3.758c.114,1.238.106,2.482.136,3.725a61.188,61.188,0,0,0,4.067,20.467,1.5,1.5,0,0,0,.538.8" transform="translate(-101.474 -193.047)" fill="none" stroke="#3a272e" stroke-linecap="round" stroke-linejoin="round" stroke-width="0.262"/>
                  <path id="Trazado_160379" data-name="Trazado 160379" d="M97.261,195.1a21.55,21.55,0,0,0,10.235,1.6c4.157-.369,8.118-1.938,12.248-2.532a12.053,12.053,0,0,1,4.4.034c3.117.715,5.508,3.291,7,6.118s2.286,5.965,3.466,8.938a43.206,43.206,0,0,0,4.251,7.977" transform="translate(-97.261 -189.96)" fill="none" stroke="#3a272e" stroke-linecap="round" stroke-linejoin="round" stroke-width="0.262"/>
                  <path id="Trazado_160380" data-name="Trazado 160380" d="M105.863,189.021a9.815,9.815,0,0,1,3.61,2.474,6.43,6.43,0,0,1,1.677,3.988" transform="translate(-98.889 -189.021)" fill="none" stroke="#3a272e" stroke-linecap="round" stroke-linejoin="round" stroke-width="0.262"/>
                </g>
              </g>
            </g>
            <path id="Trazado_160381" data-name="Trazado 160381" d="M92.769,117.139a5.435,5.435,0,0,1,5.21,3.724c.763,2.637-.739,5.583.288,8.136.365.909,1.026,1.687,1.375,2.6.826,2.164-.238,4.511-.872,6.734a2.982,2.982,0,0,0,.195,2.726,8.484,8.484,0,0,0,1.313,1,2.759,2.759,0,0,1,1.015,2.07,8.6,8.6,0,0,0-.091,2.232c.234.823,1.052,1.347,1.57,2.04,1.058,1.414.836,3.4.5,5.114H89.831c-2.986-4.756-5.887-9.92-5.936-15.473-.043-4.782,2.011-9.323,4.028-13.7a29.663,29.663,0,0,1,2.115-4.03A32.523,32.523,0,0,1,92.769,117.139Z" transform="translate(-68.305 -115.983)" fill="#3a272e"/>
            <g id="Grupo_116068" data-name="Grupo 116068" transform="translate(14.131 1.837)">
              <g id="Grupo_116059" data-name="Grupo 116059" transform="translate(1.643 16.087)">
                <g id="Grupo_116058" data-name="Grupo 116058">
                  <path id="Trazado_160382" data-name="Trazado 160382" d="M93.9,153.237c-.29,3.039-3.83,1.458-5.382-.029a21.425,21.425,0,0,1-3.226-4.144c-.24-.385-.472-.778-.687-1.176-.137-.249-.534-.671-.481-.973.485-2.592.079-9.092.079-9.092l.7.409.079.045,6.4,3.743.923.538-.05.418c-.049.435-.1.873-.153,1.308a9.93,9.93,0,0,0-.033,2.1,7.109,7.109,0,0,0,.353,1.652c.012.028.02.062.032.091a30.2,30.2,0,0,1,1.33,3.192A5.756,5.756,0,0,1,93.9,153.237Z" transform="translate(-84.122 -137.823)" fill="#fc7262"/>
                </g>
                <path id="Trazado_160383" data-name="Trazado 160383" d="M92.18,144.356a9.929,9.929,0,0,0-.033,2.1c-4.161-.6-7.63-8.264-7.63-8.264l.468.112.079.045,6.4,3.743c.306.315.6.638.873.957C92.284,143.482,92.23,143.92,92.18,144.356Z" transform="translate(-84.197 -137.892)" fill="#ff655c" opacity="0.32" style="mix-blend-mode: multiply;isolation: isolate"/>
              </g>
              <path id="Trazado_160384" data-name="Trazado 160384" d="M97.9,131.546a14.8,14.8,0,0,1-.65,3.622,7.624,7.624,0,0,1-2.281,3.635,5.272,5.272,0,0,1-3.15,1.163,4.949,4.949,0,0,1-1.213-.1,8.546,8.546,0,0,1-4.136-2.456,16.172,16.172,0,0,1-2.294-2.745c-.124-.186-.244-.372-.356-.567v0a11.893,11.893,0,0,1-.944-2,13.354,13.354,0,0,1-.737-5.6,9.542,9.542,0,0,1,3.681-7.129,7.4,7.4,0,0,1,5.677-1.25A6.987,6.987,0,0,1,96.334,122a11.511,11.511,0,0,1,.87,2.368c.058.224.112.452.161.679.021.087.041.174.058.26.087.4.161.812.223,1.226a23.224,23.224,0,0,1,.286,3.03C97.953,130.233,97.945,130.9,97.9,131.546Z" transform="translate(-82.096 -117.98)" fill="#fc7262"/>
              <g id="Grupo_116066" data-name="Grupo 116066" transform="translate(2.333 7.069)">
                <g id="Grupo_116065" data-name="Grupo 116065" transform="translate(0 3.618)">
                  <g id="Grupo_116062" data-name="Grupo 116062" transform="translate(0 0.361)">
                    <path id="Trazado_160385" data-name="Trazado 160385" d="M92.84,134.292a4.314,4.314,0,0,1-2.285,5.522,4.024,4.024,0,0,1-5.293-2.384,4.316,4.316,0,0,1,2.285-5.522A4.024,4.024,0,0,1,92.84,134.292Z" transform="translate(-84.973 -131.608)" opacity="0.32" fill="url(#linear-gradient-3)" style="mix-blend-mode: multiply;isolation: isolate"/>
                    <path id="Trazado_160386" data-name="Trazado 160386" d="M101.225,134.251a14.8,14.8,0,0,1-.65,3.622,3.656,3.656,0,0,1-.675-1.126,3.794,3.794,0,0,1,1.354-4.476C101.275,132.938,101.267,133.6,101.225,134.251Z" transform="translate(-87.751 -131.733)" opacity="0.32" fill="url(#linear-gradient-4)" style="mix-blend-mode: multiply;isolation: isolate"/>
                    <g id="Grupo_116061" data-name="Grupo 116061" transform="translate(7.227 5.033)">
                      <g id="Grupo_116060" data-name="Grupo 116060">
                        <path id="Trazado_160387" data-name="Trazado 160387" d="M93.887,137.815a4.407,4.407,0,0,0,4.277.55" transform="translate(-93.887 -137.815)" fill="none" stroke="#3a272e" stroke-linecap="round" stroke-linejoin="round" stroke-width="0.371"/>
                        <path id="Trazado_160388" data-name="Trazado 160388" d="M95.293,139.769a3.709,3.709,0,0,0,1.916.134" transform="translate(-94.153 -138.185)" fill="none" stroke="#3a272e" stroke-linecap="round" stroke-linejoin="round" stroke-width="0.371"/>
                      </g>
                    </g>
                  </g>
                  <g id="Grupo_116064" data-name="Grupo 116064" transform="translate(6.484)">
                    <g id="Grupo_116063" data-name="Grupo 116063">
                      <path id="Trazado_160389" data-name="Trazado 160389" d="M94.006,131.933a.519.519,0,1,1-.538-.519A.527.527,0,0,1,94.006,131.933Z" transform="translate(-92.97 -131.21)" fill="#3a272e"/>
                      <path id="Trazado_160390" data-name="Trazado 160390" d="M100.555,131.683a.518.518,0,1,1-.537-.52A.532.532,0,0,1,100.555,131.683Z" transform="translate(-94.21 -131.163)" fill="#3a272e"/>
                    </g>
                  </g>
                </g>
                <path id="Trazado_160391" data-name="Trazado 160391" d="M98.955,128.64a6.835,6.835,0,0,0-.032,5.677.691.691,0,0,1,.071.206.588.588,0,0,1-.031.234,2.238,2.238,0,0,1-.632,1.019" transform="translate(-87.5 -127.067)" fill="none" stroke="#3a272e" stroke-linecap="round" stroke-linejoin="round" stroke-width="0.371"/>
                <path id="Trazado_160392" data-name="Trazado 160392" d="M89.421,129.272c-.178.06-.443.073-.477-.118a.318.318,0,0,1,.019-.15,2.275,2.275,0,0,1,1.159-1.212,5.49,5.49,0,0,1,2.633-.675,2,2,0,0,1,.832.143.953.953,0,0,1,.551.628c.22.957-1.313.666-1.842.732A14.9,14.9,0,0,0,89.421,129.272Z" transform="translate(-85.724 -126.779)" fill="#3a272e"/>
                <path id="Trazado_160393" data-name="Trazado 160393" d="M100.911,128.186c-.654,0-1.739.1-1.544-.716a.973.973,0,0,1,.559-.63,1.847,1.847,0,0,1,.7-.14c.021.087.041.174.058.26C100.775,127.362,100.849,127.772,100.911,128.186Z" transform="translate(-87.693 -126.7)" fill="#3a272e"/>
              </g>
              <g id="Grupo_116067" data-name="Grupo 116067" transform="translate(10.846 0.255)">
                <path id="Trazado_160394" data-name="Trazado 160394" d="M95.474,118.295" transform="translate(-95.474 -118.295)" fill="none" stroke="#3a272e" stroke-linecap="round" stroke-linejoin="round" stroke-width="0.371"/>
              </g>
            </g>
            <path id="Trazado_160395" data-name="Trazado 160395" d="M81.075,150.794s-5.676,2.838-5.567,8.733,6.44,21.614,6.44,21.614.71,15.064,3.767,18.12a21.738,21.738,0,0,1,7.913-11.68c6.332-4.585,11.134-8.406,11.134-8.406l-4.257-6.331A17.782,17.782,0,0,0,98.432,162.8c-2.729-4.585-6.55-9.605-6.55-9.605Z" transform="translate(-66.717 -122.354)" fill="#dff7f9"/>
            <path id="Trazado_160396" data-name="Trazado 160396" d="M88.829,117.039a7.314,7.314,0,0,1-.914,7.666,13.57,13.57,0,0,0-1.434,1.75c-1.159,2.015-.123,4.768-1.3,6.774-.747,1.273-2.231,1.951-3.066,3.168a4.026,4.026,0,0,0,1.3,5.556,15.92,15.92,0,0,0,2.378.862,3.079,3.079,0,0,1,1.9,1.557c.26.644.164,1.416.54,2,.575.893,1.9.884,2.726,1.555a3.273,3.273,0,0,1,.963,2.448,9.03,9.03,0,0,1-.7,3.918c-.135.319-.375.646-.721.646H64.687a.95.95,0,0,1,.109-.675c-.376-1.2.409-2.6,1.3-3.5a8.217,8.217,0,0,0,2.354-2.908c.528-1.6-.322-3.337-.164-5.015.155-1.641,1.251-3.054,1.557-4.673.466-2.467-.957-5.046-.307-7.471.361-1.347,1.317-2.448,1.9-3.716a22.974,22.974,0,0,0,.914-2.8,12.054,12.054,0,0,1,4.84-6.847c2.772-1.714,6.24-1.764,9.489-1.506A3.089,3.089,0,0,1,88.829,117.039Z" transform="translate(-64.665 -115.714)" fill="#3a272e"/>
            <line id="Línea_265" data-name="Línea 265" x2="2.729" y2="2.674" transform="translate(13.539 46.561)" fill="none" stroke="#3a272e" stroke-linecap="round" stroke-linejoin="round" stroke-width="0.262"/>
            <g id="Grupo_116069" data-name="Grupo 116069" transform="translate(56.493 52.506)">
              <path id="Trazado_160397" data-name="Trazado 160397" d="M134.566,181.3a33.664,33.664,0,0,0,5.75-.182c1.565-.364,2.147-.8,3.238-.582s6.513,2.874,7.714,3.129,1.455,1.492,1.128,1.6-8.187.036-8.368.036-3.239.874-4.912.51a36.158,36.158,0,0,0-4.767-.473Z" transform="translate(-134.348 -180.479)" fill="#fc7262"/>
              <path id="Trazado_160398" data-name="Trazado 160398" d="M150.135,185.162s4.994.519,5.322.71" transform="translate(-137.336 -181.365)" fill="none" stroke="#3a272e" stroke-linecap="round" stroke-linejoin="round" stroke-width="0.262"/>
              <path id="Trazado_160399" data-name="Trazado 160399" d="M150.012,183.939s4.475.874,5.258,1.129" transform="translate(-137.313 -181.134)" fill="none" stroke="#3a272e" stroke-linecap="round" stroke-linejoin="round" stroke-width="0.262"/>
              <path id="Trazado_160400" data-name="Trazado 160400" d="M150.079,182.795s4.075,1.255,4.6,1.437" transform="translate(-137.326 -180.917)" fill="none" stroke="#3a272e" stroke-linecap="round" stroke-linejoin="round" stroke-width="0.262"/>
            </g>
            <g id="Grupo_116071" data-name="Grupo 116071" transform="translate(8.795 28.648)">
              <path id="Trazado_160401" data-name="Trazado 160401" d="M87.694,173.752c.328-.109,14.573,8.733,18.939,9.388s18.884-.437,18.884-.437l.218-4.039-19.321-3.384-11.68-8.732Z" transform="translate(-77.819 -153.984)" fill="#fc7262"/>
              <path id="Trazado_160402" data-name="Trazado 160402" d="M84.307,151.344a5.066,5.066,0,0,0-5.478,1.416c-1.531,1.717-3.96,4.709-3.156,8.126,1.31,5.567,9.224,12.553,9.224,12.553L94.5,160.886S89.648,153.277,84.307,151.344Z" transform="translate(-75.514 -151.05)" fill="#dee4f0"/>
              <g id="Grupo_116070" data-name="Grupo 116070" transform="translate(2.652 1.903)">
                <path id="Trazado_160403" data-name="Trazado 160403" d="M78.785,165.041s5.24,8.005,6.4,9.169l9.934-12.881s-4.112-6.113-7.023-7.933" transform="translate(-78.785 -153.397)" fill="none" stroke="#3a272e" stroke-linecap="round" stroke-linejoin="round" stroke-width="0.262"/>
                <path id="Trazado_160404" data-name="Trazado 160404" d="M86.751,204.3s.546-3.275,4.093-7.55c4.34-5.23,13.536-10.406,13.536-10.406" transform="translate(-80.293 -159.633)" fill="none" stroke="#3a272e" stroke-linecap="round" stroke-linejoin="round" stroke-width="0.262"/>
                <path id="Trazado_160405" data-name="Trazado 160405" d="M84.252,176.017c1.617,2.735,1.5,6.115,2.206,9.213a34.4,34.4,0,0,0,2.249,6.131,22.075,22.075,0,0,0,1.738,3.4" transform="translate(-79.82 -157.679)" fill="none" stroke="#3a272e" stroke-linecap="round" stroke-linejoin="round" stroke-width="0.262"/>
              </g>
            </g>
            <path id="Trazado_160406" data-name="Trazado 160406" d="M145.834,222.118a55.749,55.749,0,0,0,5.217-3.594" transform="translate(-80.029 -135.174)" fill="none" stroke="#3a272e" stroke-linecap="round" stroke-linejoin="round" stroke-width="0.262"/>
          </g>
        </g>
        <g id="Grupo_116075" data-name="Grupo 116075" transform="translate(119.739 165.411)">
          <line id="Línea_266" data-name="Línea 266" x2="60.237" transform="translate(8.94 8.564)" fill="none" stroke="#523e3f" stroke-linecap="round" stroke-linejoin="round" stroke-width="1.434"/>
          <g id="Grupo_116074" data-name="Grupo 116074">
            <rect id="Rectángulo_40608" data-name="Rectángulo 40608" width="71.899" height="3.265" rx="1.632" transform="translate(2.474)" fill="#523e3f"/>
            <line id="Línea_267" data-name="Línea 267" x1="9.606" y2="68.707" transform="translate(0 3.265)" fill="none" stroke="#523e3f" stroke-linecap="round" stroke-linejoin="round" stroke-width="2.119"/>
            <line id="Línea_268" data-name="Línea 268" x2="9.606" y2="68.707" transform="translate(68.406 3.265)" fill="none" stroke="#523e3f" stroke-linecap="round" stroke-linejoin="round" stroke-width="2.119"/>
            <line id="Línea_269" data-name="Línea 269" x2="74.374" transform="translate(1.601 59.804)" fill="none" stroke="#523e3f" stroke-linecap="round" stroke-linejoin="round" stroke-width="2.119"/>
            <path id="Trazado_160407" data-name="Trazado 160407" d="M144.1,194.994A4.284,4.284,0,0,0,148.546,191a1.265,1.265,0,0,0-.268-.954c-.6-.6-1.58.262-1.723,1.1a3.313,3.313,0,0,0,4,3.59,3.384,3.384,0,0,0,1.321-5.263,8.241,8.241,0,0,0-.4,1.972,3.9,3.9,0,0,0,4.067,3.972,3.477,3.477,0,0,0,2.495-4.891,1,1,0,0,0-.806-.593c-.434.015-.7.495-.8.927a3.732,3.732,0,0,0,4.023,4.333,3.782,3.782,0,0,0,2.354-5.463,3.588,3.588,0,0,0,1.223,5.487,3.494,3.494,0,0,0,4.493-3.267c-.028-.886-.992-1.909-1.619-1.295a1.29,1.29,0,0,0-.281.925,4.73,4.73,0,0,0,1.039,3.145,3.009,3.009,0,0,0,3,1.013c1.578-.449,2.341-2.285,2.553-3.942.093-.73-.033-1.7-.738-1.86-.58-.133-1.1.429-1.306,1a3.262,3.262,0,0,0,1.334,3.8,3.127,3.127,0,0,0,3.9-.711,3.281,3.281,0,0,0-.043-4.04,3.381,3.381,0,0,0,.636,4.4,3.227,3.227,0,0,0,4.342-.466,3.384,3.384,0,0,0-.277-4.443,3.729,3.729,0,0,0,.934,4.925,3.567,3.567,0,0,0,4.828-.963,2.7,2.7,0,0,0-.042-3.184,2.848,2.848,0,0,0,.019,3.915,2.716,2.716,0,0,0,3.833-.227,2.846,2.846,0,0,0-.426-3.891,3.97,3.97,0,0,0,.685,4.675,3.294,3.294,0,0,0,4.513-.124,3.058,3.058,0,0,0-.512-4.435,3.169,3.169,0,0,0,.613,3.857,2.789,2.789,0,0,0,3.766-.215,2.717,2.717,0,0,0-.276-3.771,5.14,5.14,0,0,0,.607,4.052c.847,1.114,2.739,1.423,3.576.3" transform="translate(-134.776 -187.007)" fill="none" stroke="#523e3f" stroke-linecap="round" stroke-linejoin="round" stroke-width="0.795"/>
          </g>
        </g>
        <g id="Grupo_116081" data-name="Grupo 116081" transform="translate(145.301 149.292)">
          <g id="Grupo_116077" data-name="Grupo 116077" transform="translate(1.951)">
            <path id="Trazado_160408" data-name="Trazado 160408" d="M169.526,169.994a1.8,1.8,0,0,0-2.4.585,4.332,4.332,0,0,0-.591,2.636,7.094,7.094,0,0,0,.754,3.361,3.374,3.374,0,0,0,2.783,1.813,4.2,4.2,0,0,0,1.9-.557" transform="translate(-166.534 -167.152)" fill="#727997"/>
            <g id="Grupo_116076" data-name="Grupo 116076" transform="translate(2.148)">
              <path id="Trazado_160409" data-name="Trazado 160409" d="M179.147,166.548l-.226,1.428-.2,1.265-.041.255-.263,1.636-.2,1.269-.178,1.1-.085.526v0l-.2,1.264-.307,1.916v.014l-.2,1.25-.121.757-6.232.186-.019-.157-.191-1.421-.068-.507-.067-.5-.2-1.454v0l-.135-1-.191-1.42-.006-.058-.13-.947-.2-1.468-.135-1-.092-.689-.1-.765-.131-1-.036-.268a1.985,1.985,0,0,0,.4.012c.087,0,.187,0,.3,0,.322,0,.735-.007,1.21-.017l.058,0c.667-.011,1.459-.029,2.275-.049.523-.011,1.06-.027,1.578-.037l.245-.007c.8-.019,1.569-.037,2.2-.056h0c.37-.006.7-.015.96-.024.283,0,.5-.011.619-.014Z" transform="translate(-169.184 -166.548)" fill="#727997"/>
              <path id="Trazado_160410" data-name="Trazado 160410" d="M171.161,166.784c-.6.43-1.2.857-1.8,1.278l-.131-1c.122-.081.245-.166.362-.256.087,0,.187,0,.3,0,.322,0,.734-.007,1.21-.017Z" transform="translate(-169.193 -166.593)" fill="#727997"/>
              <path id="Trazado_160411" data-name="Trazado 160411" d="M175.091,166.677q-2.644,1.923-5.322,3.823l-.135-1c1.3-.918,2.59-1.849,3.878-2.782C174.035,166.7,174.573,166.688,175.091,166.677Z" transform="translate(-169.269 -166.572)" fill="#727997"/>
              <path id="Trazado_160412" data-name="Trazado 160412" d="M179.2,166.552c-2.528,1.862-5.416,3.878-8.215,5.831-.272.191-.541.376-.8.567l-.006-.058-.13-.947c.141-.1.282-.2.428-.3,2.413-1.681,4.892-3.412,7.142-5.054h0c.37-.006.7-.015.96-.024C178.863,166.562,179.08,166.555,179.2,166.552Z" transform="translate(-169.347 -166.549)" fill="#727997"/>
              <path id="Trazado_160413" data-name="Trazado 160413" d="M179.16,168.309l-.2,1.265c-2.579,1.911-5.637,4.169-8.373,6.133l-.135-1C173.344,172.613,176.558,170.236,179.16,168.309Z" transform="translate(-169.423 -166.881)" fill="#727997"/>
              <path id="Trazado_160414" data-name="Trazado 160414" d="M178.732,172.2l-.2,1.269c-2.331,1.707-4.992,3.63-7.535,5.44l-.068-.507-.067-.5C173.553,175.982,176.355,173.954,178.732,172.2Z" transform="translate(-169.501 -167.618)" fill="#727997"/>
              <path id="Trazado_160415" data-name="Trazado 160415" d="M178.343,175.779l-.2,1.264c-.15.11-.3.22-.451.335-1.621,1.206-3.359,2.5-5.069,3.749l-1.339.04-.019-.157c1.964-1.433,4.007-2.953,5.891-4.354C177.553,176.359,177.953,176.064,178.343,175.779Z" transform="translate(-169.578 -168.295)" fill="#727997"/>
              <path id="Trazado_160416" data-name="Trazado 160416" d="M178.7,179.7v.014l-.2,1.25c-.357.26-.714.52-1.071.786l-1.593.048C176.8,181.1,177.75,180.406,178.7,179.7Z" transform="translate(-170.443 -169.038)" fill="#727997"/>
            </g>
            <path id="Trazado_160417" data-name="Trazado 160417" d="M178.6,166.645c.007.264-1.963.534-4.395.607s-4.415-.079-4.423-.343c0-.053.074-.1.216-.151,1.819-.016,6.68-.142,8.532-.193C178.574,166.589,178.6,166.617,178.6,166.645Z" transform="translate(-167.149 -166.551)" fill="#727997"/>
          </g>
          <g id="Grupo_116080" data-name="Grupo 116080" transform="translate(0 11.425)">
            <g id="Grupo_116078" data-name="Grupo 116078">
              <path id="Trazado_160418" data-name="Trazado 160418" d="M164.127,181.257l19.594-.616s-1.37,3.22-10.072,3.22C165.2,183.861,164.127,181.257,164.127,181.257Z" transform="translate(-164.127 -180.641)" fill="#727997"/>
            </g>
            <g id="Grupo_116079" data-name="Grupo 116079" opacity="0.19" style="mix-blend-mode: multiply;isolation: isolate">
              <path id="Trazado_160419" data-name="Trazado 160419" d="M164.127,181.257l19.594-.616s-1.37,3.22-10.072,3.22C165.2,183.861,164.127,181.257,164.127,181.257Z" transform="translate(-164.127 -180.641)" fill="#727997"/>
            </g>
          </g>
        </g>
      </g>
    </g>
  </g>
</svg>
