<svg xmlns="http://www.w3.org/2000/svg" width="400" height="297.359" viewBox="0 0 400 297.359">
  <g id="Grupo_117453" data-name="Grupo 117453" transform="translate(5883 7736)">
    <path id="Trazado_160732" data-name="Trazado 160732" d="M105.494,472.567c-28.1-30.6-66.5-62.187-51.444-109.909,9.9-31.388,34.191-40.137,54.378-59.492,9.963-9.552,3.7-23.456,3.512-37.255-.422-35.339,39.016-62.76,75.273-62.188,39.273.62,56.273,40.1,89.217,42.221,12.936.2,24.52-7.394,35.965-13.424,33.914-17.869,87.727-6.474,90.447,36.74.7,23.338-25.86,60.884.753,73.159,21.21,9.783,42.637,13.386,46.459,48.375,5,45.8-21.446,70.931-55.911,82.717Z" transform="translate(-5933.663 -7939.714)" fill="#f3f9ff"/>
    <g id="Grupo_116182" data-name="Grupo 116182" transform="translate(-2042.86 1662.222) rotate(14)">
      <g id="Grupo_116143" data-name="Grupo 116143" transform="translate(-5955 -8185.313)">
        <path id="Trazado_160640" data-name="Trazado 160640" d="M197.062,166.586c-1.2-.925-2.928-.607-3.8-1.985-.318-.984-1.123-.457-1.672-.46q-17.915-.065-35.829-.056l-.074.09-.1-.057c.022-.145.045-.292.066-.437.051-.139.1-.278.151-.416.324-.039.649-.085.72-.491.088-.513-.272-.658-.655-.779a47.41,47.41,0,0,1,7.364-15.767c7.222-9.9,9.457-20.886,6.2-32.773-1.078-3.938-2.919-7.6-6.367-10.122-2.288-1.67-3.618-1.276-4.694,1.329a61.442,61.442,0,0,0-2.571,8.634c-2.4,9.587-5.992,18.5-13.833,25.091a15.458,15.458,0,0,0-1.669,1.883c-6.489,7.58-12.07,15.86-18.241,23.685l-.442.519.029-.034c-.138.158-.275.314-.411.471l.015-.017-.019.02,0,0-.416.433c-.131.136-.263.27-.394.4-.156.144-.312.286-.467.43-1.236.759-2.166,2.029-3.734,2.234q-9.446,0-18.891-.008h-.854l-.471-.11c-1.083.3-.768,1.2-.768,1.91q-.016,33.238,0,66.477c0,.649-.287,1.449.62,1.809l.678.354c-.012.122-.079.281-.026.354a.484.484,0,0,0,.349.127q8.552-.009,17.1-.028a15.359,15.359,0,0,0,5.69,3.011,34.723,34.723,0,0,0,10.115,1.622q26.555.049,53.112,0a9.365,9.365,0,0,0,8.955-10.687,4.709,4.709,0,0,0-2.141-3.433,22.054,22.054,0,0,1-4.085-2.988l.874-.266,2.827-1.656a10.07,10.07,0,0,0,3.646-2.752c3.4-4,2.965-7.971-1.2-11.1a17.853,17.853,0,0,0-1.69-1.238c-1.293-.749-.9-1.59.062-2.03,1.33-.607,2.33-1.675,3.611-2.291,3.282-1.579,4.807-4.471,5.936-7.691.567-4.515-.548-6.556-4.559-8.617a13.536,13.536,0,0,1-4.062-2.409c1.537-.746,2.957-1.469,4.4-2.128,1.8-.82,3.515-1.73,4.44-3.618a3.616,3.616,0,0,0,1.1-2.155l0-.136-.125-.049c.178-.287.474-.556.516-.862C202.025,173.29,200.854,169.506,197.062,166.586Z" transform="translate(-30.497 -95.251)" fill="#a7e446"/>
        <path id="Trazado_160641" data-name="Trazado 160641" d="M210.08,174.655c.368,5.167-.15,10.091-3.9,14.117a.88.88,0,0,0-.094,1.279c2.282,3.252,2.583,6.96,2.443,10.766-.675.5-.337,1.306-.581,1.936l-.647,1.734a.543.543,0,0,0-.1.351l-.315.481c-.936,2.319-2.656,4.065-4.3,5.87-1.119,1.429.371,2.322.712,3.45,1.57,5.346-.122,9.945-3.249,14.217l-.389.434a.812.812,0,0,0-.464,1.177c2.789,6.383,1.151,12.045-2.835,17.321l-1.741,1.69-.493.377-.411.267q-1.316.758-2.634,1.517l-.127-.006-.091.088a17.855,17.855,0,0,1-4.68,1.024c-.527-.5-1.185-.337-1.8-.337q-25.811-.014-51.621,0c-.677,0-1.414-.2-2.007.343l-4.223-.236-1.25-.147a78.2,78.2,0,0,1-8.644-2.379l-.02,0-3.13-1.667-.138-.093-.706-.734c-.507-.895-1.372-.53-2.083-.535-5.672-.029-11.345-.056-17.017.011-1.434.017-1.931-.379-1.93-1.88q.074-40.65.056-81.3l3.331-.167,1.275,0,1.253,0,2.949,0H113.1c1.3,0,2.631.423,3.883-.272,4.216-4.05,7.308-9,10.8-13.618,4.689-6.2,9.4-12.354,14.988-17.813,3.6-3.517,5.372-8.144,6.817-12.852,1.434-4.678,2.715-9.4,4.062-14.109,2.5-5.389,5.641-7.674,9.809-7.144a13.037,13.037,0,0,1,8.084,4.41c.987,1.074,1.839,2.273,2.752,3.415,7.339,12.921,6.426,26.035.912,39.255-.269.643-.555,1.276-.831,1.914h.011l-.3.513-.533,1.075a9.158,9.158,0,0,0-1.743,2.67,3.388,3.388,0,0,0-1.278,1.661,2.655,2.655,0,0,0-1.074,1.324.175.175,0,0,0-.108.233,2.489,2.489,0,0,0-.933,1.4l-.326.708c-1.216.567-.4,2.008-1.185,2.761-.584,1.352.616.765.958.766,8.918.026,17.837,0,26.757-.008a7.336,7.336,0,0,0,2.9.57c.326.448.867.189,1.27.386.192.406.549.294.874.281A17.52,17.52,0,0,1,210.08,174.655Zm-86.561-8.031.029-.034-.414.473.02-.02-.433.451-.394.4-.467.428c-1.236.76-2.166,2.03-3.734,2.234l-18.891-.008-.854,0-.471-.11c-1.083.3-.768,1.2-.768,1.908q-.016,33.238,0,66.477c0,.65-.287,1.451.621,1.811l.677.354c-.012.12-.079.28-.026.352a.484.484,0,0,0,.349.127q8.552-.007,17.1-.028a15.339,15.339,0,0,0,5.69,3.013,34.669,34.669,0,0,0,10.115,1.621q26.555.051,53.112,0a9.366,9.366,0,0,0,8.955-10.687,4.706,4.706,0,0,0-2.141-3.433,21.991,21.991,0,0,1-4.085-2.99l.874-.264,2.827-1.656a10.043,10.043,0,0,0,3.646-2.753c3.4-4,2.965-7.971-1.2-11.095a17.6,17.6,0,0,0-1.69-1.239c-1.293-.748-.9-1.588.062-2.029,1.33-.607,2.33-1.676,3.611-2.293,3.282-1.579,4.807-4.471,5.936-7.69.567-4.515-.549-6.557-4.559-8.618a13.5,13.5,0,0,1-4.062-2.407c1.537-.746,2.957-1.469,4.4-2.129,1.8-.82,3.515-1.73,4.44-3.618a3.627,3.627,0,0,0,1.1-2.154l0-.136-.125-.051c.178-.286.474-.556.516-.861.624-4.539-.547-8.323-4.338-11.243-1.2-.924-2.928-.607-3.8-1.984-.318-.984-1.123-.459-1.672-.46q-17.915-.065-35.829-.056l-.074.088-.1-.056.066-.439.151-.416c.324-.039.649-.085.72-.49.088-.514-.272-.658-.655-.78a47.469,47.469,0,0,1,7.364-15.767c7.223-9.9,9.457-20.886,6.2-32.772-1.078-3.938-2.919-7.6-6.367-10.122-2.288-1.67-3.618-1.276-4.694,1.327a61.464,61.464,0,0,0-2.571,8.635c-2.4,9.587-5.992,18.5-13.833,25.09a15.574,15.574,0,0,0-1.669,1.883c-6.489,7.581-12.07,15.86-18.241,23.687Z" transform="translate(-32.445 -97.748)" fill="#12263f"/>
        <path id="Trazado_160642" data-name="Trazado 160642" d="M53.446,229.193l-.124-1.264c.655-.723.363-1.607.365-2.415q.023-39.811.012-79.622a13.284,13.284,0,0,1,.552-3.008c.508-2.2,1.968-3.983,2.355-6.186l-.011.009a1.767,1.767,0,0,0,1.392-.3c2.029-1.754,4.561-2.115,7.039-2.14,10.078-.1,20.163-.222,30.236.023,6.07.148,10.444,3.768,10.522,10.341.278,23.778-.34,47.561.348,71.342.1,3.513-.311,7.1-.314,10.653a19.446,19.446,0,0,1-.851,4.919c-.244.929-1.038,1.707-.757,2.776l.009-.022-.409.467,0,.014c-.544-.151-.9.165-1.315.451a12.448,12.448,0,0,1-7.541,2.437c-10.412-.167-20.829-.065-31.244-.066a9.5,9.5,0,0,1-9.114-6.9C54.4,229.989,54.323,229.327,53.446,229.193ZM60.083,185.5c-.02,13.986-.063,27.971-.04,41.955.006,2.722,1.788,4.291,4.592,4.294q14.689.016,29.374,0c4.584,0,5.887-1.327,5.888-6.019,0-7.833.019-15.667,0-23.5-.012-5.312-.077-10.624-.117-15.936.032-13.927.091-27.855.073-41.782a4.346,4.346,0,0,0-4.493-4.346q-15.435-.063-30.871.017a4.285,4.285,0,0,0-4.44,4.362Q60.027,165.025,60.083,185.5Z" transform="translate(-53.322 -77.91)" fill="#12263f"/>
        <path id="Trazado_160643" data-name="Trazado 160643" d="M57.712,183.384q-.025-20.476-.036-40.95a4.285,4.285,0,0,1,4.44-4.362q15.435-.093,30.871-.017a4.346,4.346,0,0,1,4.493,4.346c.019,13.927-.04,27.855-.073,41.782-11.6.009-23.2.057-34.8-.012A13.621,13.621,0,0,1,57.712,183.384Z" transform="translate(-50.951 -75.795)" fill="#a7e446"/>
        <path id="Trazado_160644" data-name="Trazado 160644" d="M57.715,167.383a13.622,13.622,0,0,0,4.895.788c11.6.07,23.2.022,34.8.012.04,5.312.105,10.624.117,15.935.019,7.832,0,15.665,0,23.5,0,4.692-1.3,6.021-5.888,6.019q-14.686,0-29.374,0c-2.8,0-4.586-1.571-4.592-4.294C57.651,195.354,57.694,181.369,57.715,167.383ZM78.654,195.1a6.524,6.524,0,0,0,6.447,6.6,6.535,6.535,0,1,0-.1-13.069A6.5,6.5,0,0,0,78.654,195.1Z" transform="translate(-50.953 -59.794)" fill="#8dbf2c"/>
        <path id="Trazado_160645" data-name="Trazado 160645" d="M71.251,187.607a6.5,6.5,0,0,1,6.349-6.474,6.536,6.536,0,1,1-6.349,6.474Z" transform="translate(-43.55 -52.3)" fill="#e9ebef"/>
      </g>
      <g id="Grupo_116144" data-name="Grupo 116144" transform="translate(-5760.418 -8132.556)">
        <path id="Trazado_160646" data-name="Trazado 160646" d="M202.922,182.274c1.2.925,2.928.607,3.8,1.985.318.984,1.123.459,1.672.46q17.915.065,35.829.056l.074-.09.1.057c-.022.145-.045.292-.066.439-.051.138-.1.277-.151.416-.324.039-.649.085-.72.49-.088.515.272.658.655.78a47.468,47.468,0,0,1-7.364,15.767c-7.221,9.9-9.457,20.886-6.2,32.772,1.078,3.938,2.919,7.6,6.367,10.122,2.288,1.67,3.618,1.276,4.694-1.327a61.465,61.465,0,0,0,2.571-8.635c2.4-9.587,5.992-18.5,13.833-25.09a15.688,15.688,0,0,0,1.669-1.883c6.489-7.581,12.07-15.861,18.241-23.687l.442-.519-.029.034c.138-.158.275-.314.411-.471l-.015.019.019-.022,0,0,.416-.433.394-.4c.156-.142.312-.286.467-.428,1.236-.76,2.166-2.03,3.734-2.234l18.891.006h.854l.471.11c1.083-.3.768-1.2.768-1.91q.016-33.238,0-66.477c0-.649.287-1.449-.62-1.809l-.678-.354c.012-.121.079-.281.026-.352a.478.478,0,0,0-.349-.127q-8.552.007-17.1.026a15.359,15.359,0,0,0-5.69-3.011,34.67,34.67,0,0,0-10.115-1.621q-26.554-.051-53.112,0a9.365,9.365,0,0,0-8.955,10.687,4.706,4.706,0,0,0,2.141,3.433,22.053,22.053,0,0,1,4.085,2.988l-.874.266q-1.414.83-2.827,1.656a10.056,10.056,0,0,0-3.646,2.753c-3.4,4-2.965,7.971,1.2,11.095a17.6,17.6,0,0,0,1.69,1.239c1.293.748.9,1.588-.062,2.029-1.33.607-2.33,1.676-3.611,2.291-3.282,1.579-4.807,4.473-5.936,7.691-.567,4.515.549,6.557,4.559,8.617a13.538,13.538,0,0,1,4.062,2.409c-1.537.746-2.957,1.469-4.4,2.129-1.8.82-3.515,1.73-4.44,3.617a3.624,3.624,0,0,0-1.1,2.155l0,.136.125.049c-.178.287-.474.558-.516.862C197.96,175.57,199.131,179.354,202.922,182.274Z" transform="translate(-191.755 -93.852)" fill="#fc4b52"/>
        <path id="Trazado_160647" data-name="Trazado 160647" d="M194.207,178.921c-.368-5.167.15-10.092,3.9-14.117a.88.88,0,0,0,.094-1.279c-2.282-3.254-2.583-6.962-2.443-10.767.675-.5.337-1.306.581-1.936l.647-1.732a.548.548,0,0,0,.1-.351l.315-.481c.936-2.321,2.656-4.067,4.3-5.87,1.119-1.431-.371-2.322-.712-3.452-1.57-5.346.122-9.945,3.249-14.216l.389-.436a.812.812,0,0,0,.464-1.177c-2.789-6.383-1.151-12.045,2.834-17.32l1.743-1.692.493-.377.411-.267,2.634-1.516.127,0,.091-.087a17.8,17.8,0,0,1,4.678-1.026c.528.5,1.187.337,1.8.337q25.811.016,51.621,0c.677,0,1.414.2,2.007-.345q2.111.118,4.223.238l1.25.147a78.183,78.183,0,0,1,8.644,2.378l.02,0,3.13,1.666.137.093.706.735c.507.893,1.372.53,2.083.533,5.672.029,11.345.057,17.017-.011,1.434-.017,1.931.38,1.93,1.88q-.074,40.652-.056,81.3l-3.331.167-1.275,0-1.253,0H303.8l-2.932,0-9.675,0c-1.3,0-2.631-.425-3.883.27-4.216,4.051-7.308,9-10.8,13.618-4.689,6.2-9.4,12.356-14.988,17.814-3.6,3.515-5.372,8.142-6.817,12.85-1.434,4.678-2.715,9.4-4.062,14.109-2.5,5.391-5.641,7.674-9.809,7.144a13.037,13.037,0,0,1-8.084-4.41c-.987-1.072-1.839-2.271-2.752-3.415-7.339-12.921-6.426-26.035-.912-39.255.269-.641.555-1.276.831-1.914H229.9l.3-.513.533-1.074a9.187,9.187,0,0,0,1.743-2.671,3.389,3.389,0,0,0,1.278-1.661,2.655,2.655,0,0,0,1.074-1.324.176.176,0,0,0,.108-.233,2.484,2.484,0,0,0,.933-1.4l.326-.708c1.216-.567.4-2.009,1.185-2.761.584-1.35-.616-.765-.958-.765-8.918-.026-17.837-.006-26.757.006a7.39,7.39,0,0,0-2.9-.57c-.326-.448-.867-.189-1.27-.386-.192-.406-.548-.294-.875-.28A17.525,17.525,0,0,1,194.207,178.921Zm86.561,8.031-.029.034.414-.474-.02.02.433-.451.394-.4.467-.43c1.236-.76,2.166-2.03,3.734-2.234l18.891.008.854,0,.471.11c1.083-.3.768-1.2.768-1.908q.016-33.238,0-66.477c0-.65.287-1.449-.621-1.811l-.677-.352c.012-.122.079-.281.026-.354a.484.484,0,0,0-.349-.127q-8.552.007-17.1.028a15.359,15.359,0,0,0-5.69-3.011A34.672,34.672,0,0,0,272.61,107.5q-26.555-.049-53.112,0a9.365,9.365,0,0,0-8.955,10.687,4.7,4.7,0,0,0,2.141,3.432,22.061,22.061,0,0,1,4.085,2.99l-.874.266-2.827,1.656a10.039,10.039,0,0,0-3.646,2.752c-3.4,4-2.966,7.971,1.2,11.1a17.853,17.853,0,0,0,1.69,1.238c1.293.748.9,1.59-.062,2.03-1.33.606-2.33,1.675-3.611,2.291-3.282,1.579-4.807,4.471-5.936,7.69-.567,4.516.548,6.557,4.559,8.618a13.506,13.506,0,0,1,4.062,2.409c-1.537.745-2.957,1.469-4.4,2.128-1.8.82-3.515,1.73-4.44,3.618a3.626,3.626,0,0,0-1.1,2.155l0,.134.125.051c-.178.286-.474.556-.516.862-.624,4.538.547,8.322,4.338,11.242,1.2.924,2.928.607,3.8,1.984.318.986,1.123.459,1.672.46q17.915.065,35.829.057l.073-.09.1.056-.066.439-.151.416c-.324.039-.649.085-.72.491-.088.513.272.658.655.779a47.454,47.454,0,0,1-7.364,15.767c-7.223,9.9-9.457,20.886-6.2,32.773,1.078,3.938,2.919,7.6,6.367,10.122,2.288,1.67,3.618,1.276,4.694-1.329a61.44,61.44,0,0,0,2.571-8.634c2.4-9.587,5.992-18.5,13.833-25.091a15.456,15.456,0,0,0,1.669-1.883c6.489-7.58,12.07-15.86,18.241-23.685Z" transform="translate(-194.108 -96.07)" fill="#12263f"/>
        <path id="Trazado_160648" data-name="Trazado 160648" d="M327.655,106.223l.124,1.265c-.655.722-.363,1.605-.365,2.413q-.023,39.811-.012,79.622a13.3,13.3,0,0,1-.552,3.01c-.508,2.2-1.97,3.983-2.355,6.186l.011-.011a1.773,1.773,0,0,0-1.392.3c-2.029,1.754-4.562,2.115-7.039,2.141-10.078.1-20.163.221-30.236-.025-6.072-.147-10.444-3.767-10.522-10.341-.278-23.778.34-47.561-.349-71.34-.1-3.515.312-7.1.315-10.655a19.447,19.447,0,0,1,.851-4.919c.244-.929,1.038-1.707.757-2.776l-.009.022.409-.467,0-.014c.544.151.9-.165,1.315-.451a12.447,12.447,0,0,1,7.541-2.435c10.412.165,20.829.063,31.244.065a9.5,9.5,0,0,1,9.114,6.9C326.7,105.427,326.777,106.088,327.655,106.223Zm-6.638,43.694c.02-13.984.063-27.97.04-41.955-.006-2.722-1.788-4.291-4.592-4.294q-14.689-.016-29.374,0c-4.584,0-5.887,1.327-5.888,6.021,0,7.832-.019,15.665,0,23.5.012,5.312.077,10.622.117,15.934-.032,13.928-.091,27.855-.073,41.784a4.346,4.346,0,0,0,4.493,4.345q15.435.063,30.871-.015a4.286,4.286,0,0,0,4.44-4.363Q321.074,170.392,321.017,149.916Z" transform="translate(-150.045 -97.748)" fill="#12263f"/>
        <path id="Trazado_160649" data-name="Trazado 160649" d="M318.8,131.8q.026,20.476.036,40.95a4.286,4.286,0,0,1-4.44,4.363q-15.435.093-30.871.015a4.346,4.346,0,0,1-4.493-4.345c-.019-13.928.04-27.855.073-41.784,11.6-.009,23.2-.056,34.8.014A13.585,13.585,0,0,1,318.8,131.8Z" transform="translate(-147.825 -79.635)" fill="#fc4b52"/>
        <path id="Trazado_160650" data-name="Trazado 160650" d="M318.815,147.83a13.585,13.585,0,0,0-4.895-.786c-11.6-.07-23.2-.023-34.8-.014-.04-5.312-.105-10.622-.117-15.934-.019-7.833,0-15.667,0-23.5,0-4.694,1.3-6.021,5.888-6.021q14.686,0,29.374,0c2.8,0,4.586,1.571,4.592,4.294C318.879,119.86,318.835,133.846,318.815,147.83Zm-20.94-27.718a6.524,6.524,0,0,0-6.447-6.594,6.535,6.535,0,1,0,.1,13.069A6.5,6.5,0,0,0,297.875,120.112Z" transform="translate(-147.843 -95.662)" fill="#e2303d"/>
        <path id="Trazado_160651" data-name="Trazado 160651" d="M295.784,115.9a6.5,6.5,0,0,1-6.348,6.475,6.536,6.536,0,1,1,6.348-6.475Z" transform="translate(-145.751 -91.449)" fill="#e9ebef"/>
      </g>
    </g>
  </g>
</svg>
