<svg xmlns="http://www.w3.org/2000/svg" width="399.999" height="292.852" viewBox="0 0 399.999 292.852">
  <g id="Grupo_117454" data-name="Grupo 117454" transform="translate(5883 6702)">
    <g id="Grupo_116254" data-name="Grupo 116254" transform="translate(-123 -70.773)">
      <g id="Grupo_116253" data-name="Grupo 116253" transform="translate(-5760 -6631.227)">
        <path id="Trazado_160734" data-name="Trazado 160734" d="M91.224,332.351c-28.1-30.6-66.5-62.187-51.444-109.909,9.9-31.388,34.192-40.137,54.379-59.491,9.962-9.552,3.7-23.457,3.51-37.255-.422-35.338,39.016-62.761,75.274-62.189,39.272.619,56.272,40.1,89.217,42.221,12.936.2,24.519-7.393,35.965-13.424,33.913-17.869,87.727-6.474,90.446,36.739.7,23.337-25.859,60.884.754,73.159,21.209,9.783,42.636,13.387,46.459,48.376,5,45.8-21.447,70.931-55.911,82.717Z" transform="translate(-36.394 -42.178)" fill="#f3f9ff"/>
        <g id="Grupo_116185" data-name="Grupo 116185" transform="translate(64.443 116.015)">
          <path id="Trazado_160735" data-name="Trazado 160735" d="M98.651,142.1h39.1a8.764,8.764,0,0,1,8.764,8.764v18.227a8.764,8.764,0,0,1-8.764,8.764h-.29l3.138,10.513a.5.5,0,0,1-.779.538l-14.488-11.052H98.651a8.764,8.764,0,0,1-8.764-8.764V150.867A8.764,8.764,0,0,1,98.651,142.1Z" transform="translate(-89.887 -142.103)" fill="#fff"/>
          <path id="Trazado_160736" data-name="Trazado 160736" d="M136.72,156.283H99.179a4.339,4.339,0,0,1-4.338-4.338h0a4.339,4.339,0,0,1,4.338-4.338H136.72a4.338,4.338,0,0,1,4.338,4.338h0A4.339,4.339,0,0,1,136.72,156.283Z" transform="translate(-88.873 -140.976)" fill="#e3eaff"/>
          <path id="Trazado_160737" data-name="Trazado 160737" d="M136.72,167.279H99.179a4.339,4.339,0,0,1-4.338-4.338h0a4.338,4.338,0,0,1,4.338-4.337H136.72a4.337,4.337,0,0,1,4.338,4.337h0A4.338,4.338,0,0,1,136.72,167.279Z" transform="translate(-88.873 -138.725)" fill="#e3eaff"/>
        </g>
        <g id="Grupo_116186" data-name="Grupo 116186" transform="translate(260.299 66.814)">
          <path id="Trazado_160738" data-name="Trazado 160738" d="M304.664,101.262H262.022a9.556,9.556,0,0,0-9.557,9.557V130.7a9.557,9.557,0,0,0,9.557,9.557h.317l-3.423,11.465a.544.544,0,0,0,.851.588l15.8-12.053h29.1a9.557,9.557,0,0,0,9.557-9.557V110.819A9.556,9.556,0,0,0,304.664,101.262Z" transform="translate(-252.465 -101.262)" fill="#fff"/>
          <rect id="Rectángulo_40641" data-name="Rectángulo 40641" width="50.646" height="8.676" rx="3.601" transform="translate(5.049 8.125)" fill="#e3eaff"/>
          <rect id="Rectángulo_40642" data-name="Rectángulo 40642" width="28.78" height="8.676" rx="3.601" transform="translate(6.439 21.242)" fill="#e3eaff"/>
        </g>
        <g id="Grupo_116187" data-name="Grupo 116187" transform="translate(26.639 212.266)">
          <path id="Trazado_160739" data-name="Trazado 160739" d="M59.8,223.832A9.375,9.375,0,0,1,65.62,222c4.885,0,7.471,2.659,7.471,6.395,0,2.155-1.042,4.347-3.161,6.537-2.695,2.838-4.634,4.239-5.855,4.239a2.024,2.024,0,0,1-2.048-2.048c0-1.006.934-2.011,2.55-3.484a1.612,1.612,0,0,1,.288-.252c1.831-1.688,2.406-2.621,2.406-3.771a2.134,2.134,0,0,0-2.371-2.227,7.688,7.688,0,0,0-2.3.431,7.4,7.4,0,0,1-1.94.431,2.241,2.241,0,0,1-2.155-2.3A2.717,2.717,0,0,1,59.8,223.832Zm4.921,23.959a3.568,3.568,0,0,1-3.663-3.663,3.512,3.512,0,0,1,3.663-3.377,3.442,3.442,0,0,1,3.377,3.377A3.487,3.487,0,0,1,64.721,247.791Z" transform="translate(-58.507 -222)" fill="#fff"/>
        </g>
        <g id="Grupo_116188" data-name="Grupo 116188" transform="translate(320.534 132.291)">
          <path id="Trazado_160740" data-name="Trazado 160740" d="M303.315,156.819a6.161,6.161,0,0,1,3.826-1.2c3.213,0,4.914,1.748,4.914,4.2a6.286,6.286,0,0,1-2.079,4.3c-1.771,1.866-3.047,2.788-3.85,2.788a1.332,1.332,0,0,1-1.347-1.347c0-.661.614-1.323,1.677-2.291a1.056,1.056,0,0,1,.189-.165c1.2-1.111,1.583-1.724,1.583-2.48a1.4,1.4,0,0,0-1.559-1.465,5.06,5.06,0,0,0-1.512.284,4.836,4.836,0,0,1-1.276.283,1.473,1.473,0,0,1-1.417-1.512A1.785,1.785,0,0,1,303.315,156.819Zm3.236,15.756a2.346,2.346,0,0,1-2.409-2.409,2.31,2.31,0,0,1,2.409-2.22,2.264,2.264,0,0,1,2.22,2.22A2.294,2.294,0,0,1,306.551,172.575Z" transform="translate(-302.465 -155.614)" fill="#fff"/>
        </g>
        <g id="Grupo_116194" data-name="Grupo 116194" transform="translate(345.756 179.32)">
          <g id="Grupo_116189" data-name="Grupo 116189">
            <path id="Trazado_160741" data-name="Trazado 160741" d="M369.686,236.128H324.837a1.435,1.435,0,0,1-1.435-1.436V196.087a1.435,1.435,0,0,1,2.871,0v37.17h43.413a1.436,1.436,0,0,1,0,2.872Z" transform="translate(-323.402 -194.652)" fill="#fff"/>
          </g>
          <g id="Grupo_116193" data-name="Grupo 116193" transform="translate(3.394 6.192)">
            <g id="Grupo_116190" data-name="Grupo 116190" transform="translate(0 3.761)">
              <path id="Trazado_160742" data-name="Trazado 160742" d="M327.655,225a1.435,1.435,0,0,1-1.031-2.434l14.495-14.995a1.435,1.435,0,0,1,1.813-.207l6.855,4.447,7.228-8.4a1.436,1.436,0,0,1,2.177,1.872l-8.046,9.35a1.435,1.435,0,0,1-1.87.267l-6.915-4.485-13.673,14.144A1.43,1.43,0,0,1,327.655,225Z" transform="translate(-326.22 -202.914)" fill="#fff"/>
            </g>
            <g id="Grupo_116192" data-name="Grupo 116192" transform="translate(26.555)">
              <g id="Grupo_116191" data-name="Grupo 116191">
                <path id="Trazado_160743" data-name="Trazado 160743" d="M354.71,210.209l-2.045-4.144-4.4-1.4,9.8-4.868Z" transform="translate(-348.263 -199.792)" fill="#fff"/>
              </g>
            </g>
          </g>
        </g>
        <g id="Grupo_116195" data-name="Grupo 116195" transform="translate(82.047 63.424)">
          <path id="Trazado_160744" data-name="Trazado 160744" d="M113.188,115.823a8.688,8.688,0,1,1,8.687-8.688A8.7,8.7,0,0,1,113.188,115.823Zm0-14.983a6.3,6.3,0,1,0,6.295,6.295A6.3,6.3,0,0,0,113.188,100.841Z" transform="translate(-104.5 -98.448)" fill="#fff"/>
        </g>
        <g id="Grupo_116196" data-name="Grupo 116196" transform="translate(349.419 137.22)">
          <path id="Trazado_160745" data-name="Trazado 160745" d="M332.806,172.431a6.363,6.363,0,1,1,6.363-6.363A6.371,6.371,0,0,1,332.806,172.431Zm0-10.975a4.611,4.611,0,1,0,4.61,4.612A4.616,4.616,0,0,0,332.806,161.457Z" transform="translate(-326.442 -159.705)" fill="#e3eaff"/>
        </g>
        <g id="Grupo_116197" data-name="Grupo 116197" transform="translate(15.998 173.403)">
          <path id="Trazado_160746" data-name="Trazado 160746" d="M55.388,201.168a5.714,5.714,0,1,1,5.714-5.714A5.721,5.721,0,0,1,55.388,201.168Zm0-9.854a4.14,4.14,0,1,0,4.141,4.141A4.144,4.144,0,0,0,55.388,191.313Z" transform="translate(-49.674 -189.74)" fill="#fff"/>
        </g>
        <circle id="Elipse_5490" data-name="Elipse 5490" cx="3.109" cy="3.109" r="3.109" transform="translate(321.324 58.029) rotate(-80.783)" fill="#fff"/>
        <path id="Trazado_160747" data-name="Trazado 160747" d="M84.566,140.649a6.112,6.112,0,1,1-6.111-6.113A6.112,6.112,0,0,1,84.566,140.649Z" transform="translate(-29.036 -27.637)" fill="#e3eaff"/>
        <path id="Trazado_160748" data-name="Trazado 160748" d="M325.641,82.613a4.595,4.595,0,1,1-4.595-4.6A4.6,4.6,0,0,1,325.641,82.613Z" transform="translate(20.932 -39.206)" fill="#e3eaff"/>
        <path id="Trazado_160749" data-name="Trazado 160749" d="M344.078,174.085a3.922,3.922,0,1,1-3.921-3.922A3.922,3.922,0,0,1,344.078,174.085Z" transform="translate(24.981 -20.345)" fill="#e3eaff"/>
        <path id="Trazado_160750" data-name="Trazado 160750" d="M316.225,102.386a4.89,4.89,0,1,1-4.89-4.891A4.89,4.89,0,0,1,316.225,102.386Z" transform="translate(18.883 -35.219)" fill="#fff"/>
        <path id="Trazado_160751" data-name="Trazado 160751" d="M129.564,95.026a4.96,4.96,0,1,1-4.96-4.96A4.959,4.959,0,0,1,129.564,95.026Z" transform="translate(-19.353 -36.74)" fill="#fff"/>
        <path id="Trazado_160752" data-name="Trazado 160752" d="M372.769,289.482H79.176a1.734,1.734,0,0,1-1.735-1.735h0a1.734,1.734,0,0,1,1.735-1.734H372.769a1.734,1.734,0,0,1,1.735,1.734h0A1.734,1.734,0,0,1,372.769,289.482Z" transform="translate(-27.992 3.369)" fill="#201d40"/>
        <g id="Grupo_116246" data-name="Grupo 116246" transform="translate(33.785 107.888)">
          <g id="Grupo_116204" data-name="Grupo 116204" transform="translate(97.783 8.335)">
            <path id="v-2" d="M160.4,162.823h.005l4.506.017,1.021,10.644-5.261,2.778-5.61-2.746.907-10.675Z" transform="translate(-143.671 -138.07)" fill="#f37a50"/>
            <g id="Grupo_116203" data-name="Grupo 116203">
              <path id="Trazado_160753" data-name="Trazado 160753" d="M149.425,161.829c2.774,6.931,9.435,10.783,14.878,8.605s7.608-9.563,4.834-16.493-9.434-10.783-14.878-8.605S146.652,154.9,149.425,161.829Z" transform="translate(-145.072 -141.774)" fill="#f37a50"/>
              <path id="Trazado_160754" data-name="Trazado 160754" d="M163.649,154.535a1.02,1.02,0,1,0,.255-1.419A1.019,1.019,0,0,0,163.649,154.535Z" transform="translate(-141.951 -140.095)"/>
              <path id="Trazado_160755" data-name="Trazado 160755" d="M157.313,157.146a1.1,1.1,0,1,0,.276-1.537A1.1,1.1,0,0,0,157.313,157.146Z" transform="translate(-143.251 -139.587)"/>
              <path id="Trazado_160756" data-name="Trazado 160756" d="M162.333,155.614c1.378,1.087,3.1,2.4,3.1,2.4a2.675,2.675,0,0,1-1.924,2.383c.7-.637,1.319-1.485.588-2.465S162.333,155.614,162.333,155.614Z" transform="translate(-142.183 -139.546)" fill="#de623c"/>
              <g id="Grupo_116198" data-name="Grupo 116198" transform="translate(11.543 14.1)">
                <path id="Trazado_160757" data-name="Trazado 160757" d="M155.7,156.775a.51.51,0,0,1-.5-.628,2.714,2.714,0,0,1,2.476-2.167.509.509,0,1,1,0,1.018c-1.148.006-1.488,1.372-1.491,1.385A.509.509,0,0,1,155.7,156.775Z" transform="translate(-155.188 -153.98)" fill="#201d40"/>
              </g>
              <g id="Grupo_116199" data-name="Grupo 116199" transform="translate(20.207 10.683)">
                <path id="Trazado_160758" data-name="Trazado 160758" d="M162.8,152.745a.431.431,0,0,1-.214-.058.424.424,0,0,1-.151-.581,2.087,2.087,0,0,1,1.306-.934,2.174,2.174,0,0,1,1.767.56.424.424,0,1,1-.53.661,1.384,1.384,0,0,0-1.083-.388,1.225,1.225,0,0,0-.729.529A.424.424,0,0,1,162.8,152.745Z" transform="translate(-162.38 -151.144)" fill="#201d40"/>
              </g>
              <path id="Trazado_160759" data-name="Trazado 160759" d="M146.172,157.154c-2.346-6.679,3.368-10.518,3.368-10.518s-1.532-.137-1.715-2.29a5.665,5.665,0,0,0,3.565-.077c7.616-2.758,12.861-2.721,12.861.538,0,1.16,5.03.365,4.608,8.169.03-.551-1.767-3.76-3.466-4.079s-.165,1.949-3.715,2.437c-3.582.492-6.215-.377-8.4,1.642-1.712,1.761-2.136,10.727-1.876,11.265C150.8,163,147.2,160.09,146.172,157.154Z" transform="translate(-145.607 -142.276)" fill="#201d40"/>
              <path id="Trazado_160760" data-name="Trazado 160760" d="M169.738,155.614s.324,4.067-.263,5.325c-.611-1.631-1.92.1-3.151.26-2.973.393-8.338-.6-8.87,3.862-3.635,1.15-7.038-6.629-7.038-6.629-.21,8.691,6.15,13.626,15.3,12.181C171.747,169.66,172.308,161.264,169.738,155.614Z" transform="translate(-144.624 -139.546)" fill="#201d40"/>
              <g id="Grupo_116200" data-name="Grupo 116200" transform="translate(16.831 21.993)">
                <path id="Trazado_160761" data-name="Trazado 160761" d="M161.593,162.94a7.741,7.741,0,0,1-1.836-.72.339.339,0,1,1,.319-.6,4.916,4.916,0,0,0,3.751.636,3.525,3.525,0,0,0,1.953-1.546.339.339,0,0,1,.6.316,4.162,4.162,0,0,1-2.343,1.876A4.583,4.583,0,0,1,161.593,162.94Z" transform="translate(-159.578 -160.533)" fill="#de623c"/>
              </g>
              <g id="Grupo_116202" data-name="Grupo 116202" transform="translate(1.382 18.46)">
                <path id="Trazado_160762" data-name="Trazado 160762" d="M151.078,158.083a2.653,2.653,0,1,1-4.044.711A2.932,2.932,0,0,1,151.078,158.083Z" transform="translate(-146.754 -157.6)" fill="#f37a50"/>
                <g id="Grupo_116201" data-name="Grupo 116201" transform="translate(1.706 1.417)">
                  <path id="Trazado_160763" data-name="Trazado 160763" d="M150.555,161.594a.374.374,0,0,0,.117-.131,1.735,1.735,0,0,0-.184-2.124,1.849,1.849,0,0,0-2.107-.387.384.384,0,0,0,.347.685,1.1,1.1,0,0,1,1.211.237A.982.982,0,0,1,150,161.1a.383.383,0,0,0,.558.5Z" transform="translate(-148.17 -158.776)" fill="#de623c"/>
                </g>
              </g>
            </g>
          </g>
          <path id="Trazado_160764" data-name="Trazado 160764" d="M164.609,281.307a4.161,4.161,0,0,1,3.009-2.894c3.984,5.5,13.77,2.124,13.446,9.56-14.88-.1-21.065,0-21.065,0a54.645,54.645,0,0,1,.658-7.349l.775.142Z" transform="translate(-44.878 -106.075)"/>
          <path id="Trazado_160765" data-name="Trazado 160765" d="M146.128,281.427a4.164,4.164,0,0,1,3.009-2.895c3.984,5.5,13.77,2.125,13.446,9.56-14.88-.1-21.065,0-21.065,0a54.661,54.661,0,0,1,.658-7.349l.775.143Z" transform="translate(-48.661 -106.05)"/>
          <path id="Trazado_160766" data-name="Trazado 160766" d="M175.3,208.742s2.415,35.236,1.434,43.07-4.456,17.878-4.062,43.789c-4.851,1.214-11.879,0-11.879,0s-1.042-29.3,4.086-42.386c-2.085-12.712-8.776-41.827-8.776-41.827Z" transform="translate(-45.674 -120.336)" fill="#201d40"/>
          <path id="Trazado_160767" data-name="Trazado 160767" d="M169.222,209.541s-4.879,39.56-7.267,47.063-7.045,13.848-11.369,39.374c-4.985.249-9.627,0-9.627,0s.672-32.38,8.436-39.743c.263-12.89-1.255-46.44-1.255-46.44Z" transform="translate(-48.775 -120.172)" fill="#2c2858"/>
          <g id="v" transform="translate(96.84 42.51)">
            <path id="h-5" d="M145.942,172.606s8.473-2.966,11.3-1.606c8.779,4.227,10.793,0,10.793,0,2.8.242,11.274,1.606,11.274,1.606,0,9.458.631,18.949.459,26.1-.12,6.233,1.067,23.194,1.067,23.194a85.6,85.6,0,0,1-18.179,2.513A83.159,83.159,0,0,1,144.824,222s.472-17.178.864-23.563C145.56,191.284,145.942,182.039,145.942,172.606Z" transform="translate(-144.824 -170.644)" fill="#a7e446"/>
          </g>
          <g id="c" transform="translate(128.916 44.472)">
            <path id="c-2" data-name="c" d="M188.918,186.329c-3.5-8.344-13.874-13.652-15.061-14.056l-2.407,10.712a62.83,62.83,0,0,1,8.6,6.138c-.613,2.983-.511,5.909-2.237,9.681,0,0,1.5-2.07,3.349-.844,1.8,1.19,5.107-1.24,5.107-1.24S191.59,192.7,188.918,186.329Z" transform="translate(-171.45 -172.273)" fill="#a7e446"/>
          </g>
          <g id="c-3" data-name="c" transform="translate(85.533 44.472)">
            <g id="c-4" data-name="c" transform="translate(34.639 3.233)">
              <g id="c-5" data-name="c">
                <path id="c-6" data-name="c" d="M188.3,206.867a.964.964,0,0,0,.181.037h.2a.949.949,0,0,0,.8-.66l9.323-30.059a.975.975,0,0,0,.037-.182c0-.041,0-.08,0-.119,0-.023,0-.047,0-.071s-.008-.041-.012-.061a.953.953,0,0,0-.826-.789,1.033,1.033,0,0,0-.2,0H174.34L164.935,206.9h23.384Z" transform="translate(-164.04 -174.956)" fill="#feca2e"/>
                <path id="c-7" data-name="c" d="M174.705,175a.947.947,0,0,0-1.185.624l-9.265,29.984-.02.071a.945.945,0,0,0,.619,1.181v0a.947.947,0,0,0,1.185-.623l9.289-30.053A.948.948,0,0,0,174.705,175Z" transform="translate(-164.192 -174.956)" fill="#768fdb"/>
              </g>
            </g>
            <path id="c-8" data-name="c" d="M187.718,191.883a.964.964,0,0,1,.281-.122c-.01-.016-.02-.029-.03-.043a1.71,1.71,0,0,1,.087-2.353.99.99,0,0,1,.337-.141,1.414,1.414,0,0,1,.434-1.575,1.064,1.064,0,0,1,.606-.169,1.415,1.415,0,0,1,.463-1.648,1.658,1.658,0,0,1,1.8,2.723,1.172,1.172,0,0,1-.523.188,1.611,1.611,0,0,1-.236,2.1.99.99,0,0,1-.337.141,1.411,1.411,0,0,1-.434,1.573,1.041,1.041,0,0,1-.559.17,1.21,1.21,0,0,1-.369,1.459,1.4,1.4,0,0,1-1.524-2.3Z" transform="translate(-124.833 -169.538)" fill="#f37a50"/>
            <path id="Trazado_160768" data-name="Trazado 160768" d="M163.686,189.984l2.14-1.24a4.043,4.043,0,0,1,4.028-3.107c-.394,1.272-.96,3.107-.96,3.107s1.69,1.313,5.7-.934c3.92-.881,2.246,1.977,3.545,2.183,1.917.3-1.4,4.071-5.313,4.646-5.066.747-5.667-.29-5.667-.29l-2.866,1Z" transform="translate(-129.656 -169.537)" fill="#f37a50"/>
            <path id="c-9" data-name="c" d="M149.67,195.961c7.151-.5,19.35-4.031,19.35-4.031a11.527,11.527,0,0,1,1.412,6.972c-11.1,9.736-27.819,12.883-32.947,10.54-4.681-2.14-1.377-30.639,10.378-37.168h0C151.893,179.093,149.67,195.961,149.67,195.961Z" transform="translate(-135.438 -172.273)" fill="#a7e446"/>
          </g>
          <g id="Grupo_116213" data-name="Grupo 116213" transform="translate(175.393)">
            <path id="Trazado_160769" data-name="Trazado 160769" d="M245.208,278.62c-3.985,5.315-13.77,2.054-13.446,9.242,14.88-.092,21.064,0,21.064,0a50.962,50.962,0,0,0-.657-7.1Z" transform="translate(-205.583 -106.032)"/>
            <path id="Trazado_160770" data-name="Trazado 160770" d="M263.689,278.736c-3.985,5.315-13.77,2.054-13.447,9.242,14.882-.093,21.065,0,21.065,0a50.94,50.94,0,0,0-.657-7.1Z" transform="translate(-201.8 -106.009)"/>
            <path id="Trazado_160771" data-name="Trazado 160771" d="M237.488,211.266s-2.417,34.065-1.435,41.639,4.457,17.282,4.063,42.332c4.85,1.175,11.878,0,11.878,0s1.042-28.325-4.085-40.975c2.084-12.289,8.776-40.437,8.776-40.437Z" transform="translate(-204.751 -119.819)" fill="#12263f"/>
            <path id="Trazado_160772" data-name="Trazado 160772" d="M244.826,212.039s4.878,38.244,7.265,45.5,7.045,13.387,11.369,38.065a51.784,51.784,0,0,0,10.925-.987s-1.971-30.316-9.735-37.435c-.263-12.461,1.255-44.9,1.255-44.9Z" transform="translate(-202.907 -119.661)" fill="#12263f"/>
            <g id="Grupo_116210" data-name="Grupo 116210" transform="translate(39.961 8.788)">
              <g id="Grupo_116209" data-name="Grupo 116209">
                <g id="Grupo_116208" data-name="Grupo 116208">
                  <path id="Trazado_160773" data-name="Trazado 160773" d="M264.707,162.873c-2.644,6.608-8.994,10.281-14.184,8.2s-7.253-9.117-4.609-15.725,9-10.281,14.185-8.2S267.351,156.266,264.707,162.873Z" transform="translate(-242.881 -141.85)" fill="#f37a50"/>
                  <path id="Trazado_160774" data-name="Trazado 160774" d="M247.892,155.919a.971.971,0,1,1-.242-1.353A.972.972,0,0,1,247.892,155.919Z" transform="translate(-242.603 -140.248)"/>
                  <path id="Trazado_160775" data-name="Trazado 160775" d="M253.961,158.408a1.052,1.052,0,1,1-.263-1.465A1.05,1.05,0,0,1,253.961,158.408Z" transform="translate(-241.39 -139.765)"/>
                  <path id="Trazado_160776" data-name="Trazado 160776" d="M249.32,156.948c-1.314,1.036-2.958,2.286-2.958,2.286a2.551,2.551,0,0,0,1.835,2.271c-.671-.607-1.259-1.417-.561-2.349S249.32,156.948,249.32,156.948Z" transform="translate(-242.553 -139.725)" fill="#de623c"/>
                  <g id="Grupo_116205" data-name="Grupo 116205" transform="translate(12.11 15.347)">
                    <path id="Trazado_160777" data-name="Trazado 160777" d="M255.63,158.055a.488.488,0,0,1-.472-.373c-.012-.052-.339-1.316-1.422-1.32a.485.485,0,1,1,0-.97,2.588,2.588,0,0,1,2.361,2.065.487.487,0,0,1-.36.585A.508.508,0,0,1,255.63,158.055Z" transform="translate(-253.253 -155.391)"/>
                  </g>
                  <g id="Grupo_116206" data-name="Grupo 116206" transform="translate(3.574 12.089)">
                    <path id="Trazado_160778" data-name="Trazado 160778" d="M248.9,154.213a.4.4,0,0,1-.348-.2,1.176,1.176,0,0,0-.7-.507,1.321,1.321,0,0,0-1.026.371.4.4,0,0,1-.506-.631,2.075,2.075,0,0,1,1.685-.534,2,2,0,0,1,1.246.89.4.4,0,0,1-.145.553A.394.394,0,0,1,248.9,154.213Z" transform="translate(-246.167 -152.686)"/>
                  </g>
                  <path id="Trazado_160779" data-name="Trazado 160779" d="M263.182,164.365c-1.913-6.149.506-9.415.506-9.415-1.642-.329-2.279.239-2.279.239a3.644,3.644,0,0,1-.2-3.156c-3.394-1.323-5.084.875-8.145,1.614-4.192,1.014-9.371-.658-9.857-5.777a.874.874,0,0,1,1.364-.806,3.861,3.861,0,0,0,2.284.667,4.118,4.118,0,0,1-.924-2.361.874.874,0,0,1,1.443-.681c.871.725,2.489,1.411,5.372.871,1.919-.359,6.311-3.433,9.047-2.832,2.237.49,4.013,2.394,4.777,5.119a7.029,7.029,0,0,1,6.05,6.621c.542,5.945-6.345,10.507-6.345,10.507Z" transform="translate(-243.2 -142.652)"/>
                  <path id="Trazado_160780" data-name="Trazado 160780" d="M259.451,159.9a2.53,2.53,0,1,0,3.859.664A2.8,2.8,0,0,0,259.451,159.9Z" transform="translate(-240.219 -139.216)" fill="#f37a50"/>
                  <g id="Grupo_116207" data-name="Grupo 116207" transform="translate(19.092 21.572)">
                    <path id="Trazado_160781" data-name="Trazado 160781" d="M259.424,163.25a.352.352,0,0,1-.112-.125,1.656,1.656,0,0,1,.167-2.025,1.764,1.764,0,0,1,2.008-.376.366.366,0,0,1-.328.654,1.045,1.045,0,0,0-1.154.23.938.938,0,0,0-.052,1.166.366.366,0,0,1-.53.476Z" transform="translate(-259.048 -160.558)" fill="#de623c"/>
                  </g>
                  <path id="Trazado_160782" data-name="Trazado 160782" d="M246.62,162.566a.31.31,0,0,1,.326-.467,21.889,21.889,0,0,0,5.811.519.31.31,0,0,1,.24.517,3.867,3.867,0,0,1-6.378-.569Z" transform="translate(-242.51 -138.672)" fill="#fff"/>
                </g>
              </g>
            </g>
            <path id="Trazado_160783" data-name="Trazado 160783" d="M245.387,169.761s.247-.673-21.166-.5l-5.742,6.785c5.942,4.765,25.842,5.611,25.842,5.611Z" transform="translate(-208.3 -128.423)" fill="#12263f"/>
            <path id="Trazado_160784" data-name="Trazado 160784" d="M247.273,169.32l6.754-.63,6.534,1.822-7.362,7.576Z" transform="translate(-202.406 -128.534)" fill="#95a6db"/>
            <path id="Trazado_160785" data-name="Trazado 160785" d="M249.217,173.618c2.753,2.26,3.315,3.821,9.163.8l.876-8.991-9.518-.751Z" transform="translate(-202.008 -129.355)" fill="#f37a50"/>
            <path id="Trazado_160786" data-name="Trazado 160786" d="M264.274,174.023h0l-2-.793.267-2.826-5.552,4.459-1.567.249-1.5-.524-4.669-5.375-.24,2.829-1.766.354h0l-6.369,1.031-.758,35.352-2.513,12.026a60.6,60.6,0,0,0,27.192,2.232l-.312-12.073,6.6-34.549Z" transform="translate(-204.385 -128.427)" fill="#95a6db"/>
            <path id="Trazado_160787" data-name="Trazado 160787" d="M252.058,177.074l-3.99,26.991,2.209,3.069,2.88-2.213.98-27.624Z" transform="translate(-202.243 -126.818)" fill="#2c2858"/>
            <path id="Trazado_160788" data-name="Trazado 160788" d="M251.183,174.494l1.458-.384,1.486.648-.629,3.2-2.091-.188Z" transform="translate(-201.606 -127.425)" fill="#2c2858"/>
            <g id="Grupo_116211" data-name="Grupo 116211" transform="translate(28.441 41.011)">
              <path id="Trazado_160789" data-name="Trazado 160789" d="M249.971,169.4l-1,32.6-4.315,21s-6.825-.688-11.018-4.678l5.374-15.806,1.837-33.029Z" transform="translate(-233.638 -169.4)" fill="#12263f"/>
              <path id="Trazado_160790" data-name="Trazado 160790" d="M248.209,169.4l-.995,32.167-4.968-24.652Z" transform="translate(-231.876 -169.4)" fill="#494c7f"/>
            </g>
            <g id="Grupo_116212" data-name="Grupo 116212" transform="translate(49.804 43.097)">
              <path id="Trazado_160791" data-name="Trazado 160791" d="M260.234,171.132l-8.863,52.857s11.76,1.444,16.6-1.736l-2.625-17.375,3.208-29.5Z" transform="translate(-251.371 -171.131)" fill="#12263f"/>
              <path id="Trazado_160792" data-name="Trazado 160792" d="M259.608,171.132l-5.179,30.981,9.275-23.374Z" transform="translate(-250.745 -171.132)" fill="#494c7f"/>
            </g>
            <path id="Trazado_160793" data-name="Trazado 160793" d="M210.135,147.369c.472,1.649.613,3.429,2.7,4.316,0,0-.31,5.473-.078,9.963l5.061-5.713a30.152,30.152,0,0,1-.246-7.174c.072-.5.171-1.007.251-1.512a5.669,5.669,0,0,0-.17-3.965c-2.889-5.722-1.915-7.606-2.314-7.886-.646-.284-2.167.867-1.307,3.679a10.265,10.265,0,0,1,.626,4.056s-2.183-.412-2.958.352C211.353,143.833,209.584,145.441,210.135,147.369Z" transform="translate(-210.03 -135.357)" fill="#f37a50"/>
            <path id="Trazado_160794" data-name="Trazado 160794" d="M211.093,151.973a19.421,19.421,0,0,1,6.8-1.425c5.424,16.163,9.289,22.253,7.678,26.894-1.344,3.868-5.6,3.56-7.678.66C215.146,174.278,212.717,159.751,211.093,151.973Z" transform="translate(-209.812 -132.248)" fill="#12263f"/>
            <path id="Trazado_160795" data-name="Trazado 160795" d="M266.177,174.657l17.088,26.734,20.3,11.459-6.255,6.228-20.361-8.925-13.974-19.716Z" transform="translate(-199.193 -127.313)" fill="#12263f"/>
            <path id="Trazado_160796" data-name="Trazado 160796" d="M253.678,175.112s-2.514,2.538-4.825,3.188l-2.733-7.227,1.39-1.86Z" transform="translate(-202.642 -128.427)" fill="#fff"/>
            <path id="Trazado_160797" data-name="Trazado 160797" d="M252.394,174.91a12.107,12.107,0,0,0,4.182,3.995l3.975-6.6-1.037-2.1Z" transform="translate(-201.358 -128.225)" fill="#fff"/>
          </g>
          <g id="с" transform="translate(89.477 114.247)">
            <path id="с-2" data-name="с" d="M294.263,238.737h-149.2c-3.507,0-6.349-1.913-6.349-4.272h0c0-2.36,2.842-4.273,6.349-4.273h149.2c3.507,0,6.35,1.913,6.35,4.273h0C300.613,236.824,297.77,238.737,294.263,238.737Z" transform="translate(-138.712 -230.192)" fill="#12263f"/>
            <g id="Grupo_116214" data-name="Grupo 116214" transform="translate(60.252 5.268)">
              <path id="Trazado_160798" data-name="Trazado 160798" d="M190.743,298.049h0a2.013,2.013,0,0,1-1.685-3.114l39.395-60.37,3.372,2.2-39.395,60.371A2.012,2.012,0,0,1,190.743,298.049Z" transform="translate(-188.726 -234.565)" fill="#12263f"/>
            </g>
            <g id="Grupo_116215" data-name="Grupo 116215" transform="translate(58.55 5.268)">
              <path id="Trazado_160799" data-name="Trazado 160799" d="M228.4,298.049h0a2.013,2.013,0,0,0,1.685-3.114l-39.393-60.37-3.373,2.2,39.395,60.371A2.014,2.014,0,0,0,228.4,298.049Z" transform="translate(-187.314 -234.565)" fill="#12263f"/>
            </g>
          </g>
          <g id="с-3" data-name="с" transform="translate(243.796 90.622)">
            <path id="с-4" data-name="с" d="M273.091,292.6h0a1.929,1.929,0,0,1-1.929-1.929V256.5h3.857v34.171A1.929,1.929,0,0,1,273.091,292.6Z" transform="translate(-265.919 -201.181)" fill="#12263f"/>
            <path id="с-5" data-name="с" d="M284.325,292.6h0a1.929,1.929,0,0,1-1.929-1.929V256.5h3.857v34.171A1.929,1.929,0,0,1,284.325,292.6Z" transform="translate(-263.62 -201.181)" fill="#12263f"/>
            <path id="с-6" data-name="с" d="M299.066,292.6h0a1.929,1.929,0,0,1-1.929-1.929V256.5h3.857v34.171A1.929,1.929,0,0,1,299.066,292.6Z" transform="translate(-260.602 -201.181)" fill="#12263f"/>
            <path id="с-7" data-name="с" d="M310.3,292.6h0a1.929,1.929,0,0,1-1.929-1.929V256.5h3.857v34.171A1.929,1.929,0,0,1,310.3,292.6Z" transform="translate(-258.303 -201.181)" fill="#12263f"/>
            <path id="с-8" data-name="с" d="M297.467,215.187v40.666a.837.837,0,0,1-.837.837H271.417a4.606,4.606,0,0,0-4.607,4.606h0a4.607,4.607,0,0,0,4.607,4.607h30.656a4.607,4.607,0,0,0,4.607-4.607V215.187a4.606,4.606,0,0,0-4.607-4.606h0A4.606,4.606,0,0,0,297.467,215.187Z" transform="translate(-266.81 -210.581)" fill="#12263f"/>
            <rect id="с-9" data-name="с" width="19.934" height="46.855" transform="translate(35.263 0)" fill="#12263f"/>
            <path id="с-10" data-name="с" d="M314.014,215.187v40.666a.837.837,0,0,1-.837.837H287.964a4.605,4.605,0,0,0-4.606,4.606h0a4.606,4.606,0,0,0,4.606,4.607h30.657a4.606,4.606,0,0,0,4.606-4.607V215.187a4.606,4.606,0,0,0-4.606-4.606h0A4.606,4.606,0,0,0,314.014,215.187Z" transform="translate(-263.423 -210.581)" fill="#12263f"/>
          </g>
          <g id="с-11" data-name="с" transform="translate(35.367 90.622)">
            <path id="с-12" data-name="с" d="M137.813,292.6h0a1.929,1.929,0,0,0,1.929-1.929V256.5h-3.857v34.171A1.928,1.928,0,0,0,137.813,292.6Z" transform="translate(-85.181 -201.181)" fill="#12263f"/>
            <path id="с-13" data-name="с" d="M126.579,292.6h0a1.929,1.929,0,0,0,1.929-1.929V256.5H124.65v34.171A1.928,1.928,0,0,0,126.579,292.6Z" transform="translate(-87.48 -201.181)" fill="#12263f"/>
            <path id="с-14" data-name="с" d="M111.838,292.6h0a1.929,1.929,0,0,0,1.929-1.929V256.5h-3.857v34.171A1.929,1.929,0,0,0,111.838,292.6Z" transform="translate(-90.498 -201.181)" fill="#12263f"/>
            <path id="с-15" data-name="с" d="M100.6,292.6h0a1.929,1.929,0,0,0,1.929-1.929V256.5H98.675v34.171A1.929,1.929,0,0,0,100.6,292.6Z" transform="translate(-92.797 -201.181)" fill="#12263f"/>
            <path id="с-16" data-name="с" d="M119.555,215.187v40.666a.837.837,0,0,0,.837.837h25.213a4.605,4.605,0,0,1,4.606,4.606h0a4.606,4.606,0,0,1-4.606,4.607H114.949a4.606,4.606,0,0,1-4.606-4.607V215.187a4.606,4.606,0,0,1,4.606-4.606h0A4.606,4.606,0,0,1,119.555,215.187Z" transform="translate(-90.409 -210.581)" fill="#12263f"/>
            <rect id="с-17" data-name="с" width="19.934" height="46.855" transform="translate(24.54 46.855) rotate(180)" fill="#12263f"/>
            <path id="с-18" data-name="с" d="M103.008,215.187v40.666a.837.837,0,0,0,.837.837h25.213a4.605,4.605,0,0,1,4.606,4.606h0a4.606,4.606,0,0,1-4.606,4.607H98.4a4.606,4.606,0,0,1-4.606-4.607V215.187a4.606,4.606,0,0,1,4.606-4.606h0A4.606,4.606,0,0,1,103.008,215.187Z" transform="translate(-93.796 -210.581)" fill="#12263f"/>
          </g>
          <g id="Grupo_116220" data-name="Grupo 116220" transform="translate(186.652 45.709)">
            <path id="Trazado_160800" data-name="Trazado 160800" d="M285.084,207.277c-4.255-1.535-10.825-4.89-6.458-11.021s4.255-3.455,2.684-10.9,3.724-13.306,8.771-11.824,6.337,5.568,12.525,4.534,11.331,4.753,9,9.772-3.325,7.435-1.147,10.213,11.993,5.77,7.9,12.426-5.969,6.246-4.548,9.658-1.858,7.3-7.547,6.766-10.84-2.682-12.926-9.034S285.084,207.277,285.084,207.277Z" transform="translate(-207.542 -173.3)" fill="#2c2858"/>
            <path id="Trazado_160801" data-name="Trazado 160801" d="M272.316,282.893l-3.361,1-2.531-2.588a12.528,12.528,0,0,0-.387-3.761l6.279-1.042A54.317,54.317,0,0,1,272.316,282.893Z" transform="translate(-209.824 -152.174)" fill="#f37a50"/>
            <path id="Trazado_160802" data-name="Trazado 160802" d="M270.811,282.535A3.441,3.441,0,0,0,268.3,280.2c-3.32,4.428-11.476,1.711-11.206,7.7,12.4-.077,17.556,0,17.556,0a42.471,42.471,0,0,0-.548-5.92l-.646.114Z" transform="translate(-211.656 -151.417)" fill="#e62552"/>
            <path id="Trazado_160803" data-name="Trazado 160803" d="M253.627,283.446l-3.5.24-2.012-2.143a20.492,20.492,0,0,0,.563-4.691l5.9.263A54.5,54.5,0,0,1,253.627,283.446Z" transform="translate(-213.493 -152.103)" fill="#f37a50"/>
            <path id="Trazado_160804" data-name="Trazado 160804" d="M252.433,282.535a3.441,3.441,0,0,0-2.508-2.331c-3.32,4.428-11.475,1.711-11.2,7.7,12.4-.077,17.555,0,17.555,0a42.476,42.476,0,0,0-.548-5.92l-.646.114Z" transform="translate(-215.417 -151.417)" fill="#e62552"/>
            <path id="Trazado_160805" data-name="Trazado 160805" d="M289.023,233.791c-9.554,1.287-36.47,11.26-37.969,13.065-3.1,3.727-1.466,24.01-2.937,40.745l7.823.461c3.747-13.629,3.448-19.511,5.143-35.143,0,0,30.75,2.3,41.862-5.2C314.4,239.989,296.749,231.959,289.023,233.791Z" transform="translate(-213.493 -160.971)" fill="#0e6a41"/>
            <path id="Trazado_160806" data-name="Trazado 160806" d="M275.437,217.253c2.258.385,3.129,2.2,3.672,5.533-8.6,5.068-21.381,5.428-21.381,5.428l-4.073-2.014S263.9,222.51,275.437,217.253Z" transform="translate(-212.359 -164.303)" fill="#de623c"/>
            <path id="Trazado_160807" data-name="Trazado 160807" d="M295.248,211.1c-3.765,5.471-18.186,17.234-20.573,17.605l-2.892-8.094s14.08-15.239,16.644-17.933C292.854,198,301.411,202.177,295.248,211.1Z" transform="translate(-208.648 -167.683)" fill="#de623c"/>
            <path id="Trazado_160808" data-name="Trazado 160808" d="M278.1,210.327c3.018-3.253,6.95-10.6,12.066-10.072s5.486,5.951,3.944,8.875-6.868,10.127-6.868,10.127Z" transform="translate(-207.356 -167.788)" fill="#12263f"/>
            <path id="Trazado_160809" data-name="Trazado 160809" d="M283.432,220.034c2.168.747,3.406,7.578,2.8,8.1-9.3,3.683-28.64-.3-28.64-.3l-1.028-3.5S271.209,223.435,283.432,220.034Z" transform="translate(-211.764 -163.733)" fill="#f37a50"/>
            <path id="Trazado_160810" data-name="Trazado 160810" d="M309.28,246.644c-2.126-10.969-3.043-14.856-3.926-20.018-2.182-12.758,4.234-21.724-6.767-27.838l-8.018,1.293c-6.484,6.821-10.475,13.012-10.817,17.29-.471,5.516,5,8.511,5,8.511l-2.2,15.02s-.518,1.226,8.523,2.935S309.28,246.644,309.28,246.644Z" transform="translate(-207.023 -168.082)" fill="#a7e446"/>
            <path id="Trazado_160811" data-name="Trazado 160811" d="M302.865,212.409c-3.765,5.534-19.851,19.6-22.269,19.722l-1.73-8.392s14.613-17.126,17.177-19.85C300.47,199.161,309.028,203.387,302.865,212.409Z" transform="translate(-207.198 -167.439)" fill="#a7e446"/>
            <path id="Trazado_160812" data-name="Trazado 160812" d="M286.021,212.552c2.809-4.087,8.476-11.629,13.591-11.106s5.486,5.951,3.944,8.875-6.867,10.128-6.867,10.128Z" transform="translate(-205.734 -167.543)" fill="#a7e446"/>
            <path id="Trazado_160813" data-name="Trazado 160813" d="M258.6,223.755c-2.958-.726-9.387-2.888-11.976,3.885.649,1.243,3.03-1.826,4.053-2.111,1.623-.451,3.015.4,4.244,1.576,1.761,1.684,4.707.153,4.707.153Z" transform="translate(-213.799 -163.158)" fill="#f37a50"/>
            <g id="Grupo_116216" data-name="Grupo 116216" transform="translate(0 39.994)">
              <path id="Trazado_160814" data-name="Trazado 160814" d="M259.371,230.767H231.59v-3.731H263.1A3.732,3.732,0,0,1,259.371,230.767Z" transform="translate(-216.875 -202.294)" fill="#fc4b52"/>
              <path id="Trazado_160815" data-name="Trazado 160815" d="M219.8,211.536l14.285,23.435,3.3-1.736L221.371,206.5h0A3.73,3.73,0,0,0,219.8,211.536Z" transform="translate(-219.376 -206.498)" fill="#fc4b52"/>
            </g>
            <path id="Trazado_160816" data-name="Trazado 160816" d="M301.217,192.206c-1.35,5.642-6.038,9.356-10.469,8.294s-6.928-6.495-5.578-12.137,6.038-9.356,10.47-8.294S302.568,186.563,301.217,192.206Z" transform="translate(-205.983 -171.951)" fill="#f37a50"/>
            <path id="Trazado_160817" data-name="Trazado 160817" d="M298.083,192.58l-7.364,4.565s-.654,3.254-.979,4.31c-.673,2.179,1.906,3.131,4.085,1.775a6.374,6.374,0,0,0,2.735-3.171Z" transform="translate(-204.995 -169.353)" fill="#f37a50"/>
            <path id="Trazado_160818" data-name="Trazado 160818" d="M284.687,186.445c2.093.179,6.627-.183,8.28-2.144,1.179,3.982,6.19,7.77,10.334,9.547.166-4.084.136-11.6-7.186-14.72C290.363,176.677,284.687,186.445,284.687,186.445Z" transform="translate(-206.007 -172.187)" fill="#2c2858"/>
            <path id="Trazado_160819" data-name="Trazado 160819" d="M287.087,188.349a.793.793,0,1,1-.357-1.064A.792.792,0,0,1,287.087,188.349Z" transform="translate(-205.823 -170.454)"/>
            <path id="Trazado_160820" data-name="Trazado 160820" d="M292.274,189.639a.858.858,0,1,1-.385-1.15A.858.858,0,0,1,292.274,189.639Z" transform="translate(-204.787 -170.209)"/>
            <g id="Grupo_116217" data-name="Grupo 116217" transform="translate(86.44 16.874)">
              <path id="Trazado_160821" data-name="Trazado 160821" d="M293.124,189.153a.309.309,0,0,1-.137-.142,2.268,2.268,0,0,0-1.6-1.11.3.3,0,0,1,.084-.591,2.843,2.843,0,0,1,2.06,1.45.3.3,0,0,1-.4.393Z" transform="translate(-291.129 -187.307)" fill="#2c2858"/>
            </g>
            <g id="Grupo_116218" data-name="Grupo 116218" transform="translate(79.37 15.667)">
              <path id="Trazado_160822" data-name="Trazado 160822" d="M285.425,187.383a.258.258,0,0,1-.078-.058.3.3,0,0,1,0-.422,2.1,2.1,0,0,1,2.078-.51.3.3,0,0,1-.193.565,1.5,1.5,0,0,0-1.466.37A.3.3,0,0,1,285.425,187.383Z" transform="translate(-285.26 -186.304)" fill="#2c2858"/>
            </g>
            <path id="Trazado_160823" data-name="Trazado 160823" d="M287.489,189.591a7.975,7.975,0,0,1-1.231,1.17.313.313,0,0,0-.1.418,4.309,4.309,0,0,0,1.914,1.34.084.084,0,0,0,.088-.14,4.079,4.079,0,0,1-.976-1.138.373.373,0,0,1,0-.339c.124-.246.372-.746.54-1.161A.141.141,0,0,0,287.489,189.591Z" transform="translate(-205.715 -169.974)" fill="#de623c"/>
            <path id="Trazado_160824" data-name="Trazado 160824" d="M296.84,190.246a2.062,2.062,0,1,0,3.191.078A2.28,2.28,0,0,0,296.84,190.246Z" transform="translate(-203.738 -169.955)" fill="#f37a50"/>
            <g id="Grupo_116219" data-name="Grupo 116219" transform="translate(93.27 20.803)">
              <path id="Trazado_160825" data-name="Trazado 160825" d="M297.243,192.912a.3.3,0,0,1-.1-.088,1.347,1.347,0,0,1-.1-1.653,1.437,1.437,0,0,1,1.575-.541.3.3,0,1,1-.188.566.852.852,0,0,0-.9.322.763.763,0,0,0,.1.947.3.3,0,0,1-.372.447Z" transform="translate(-296.798 -190.568)" fill="#de623c"/>
            </g>
            <path id="Trazado_160826" data-name="Trazado 160826" d="M297.538,235.305c-9.554,1.287-36.511,10.023-38.01,11.828-3.1,3.727,3.8,19.69,6.007,40.239h9.222c-.1-14.642,1.073-28.111-3.432-32.886,0,0,25.837-1.724,38.718-1.724C316.607,252.763,320.242,230.576,297.538,235.305Z" transform="translate(-211.318 -160.743)" fill="#3f964f"/>
            <path id="Trazado_160827" data-name="Trazado 160827" d="M286.928,193.591a.243.243,0,0,1,.224-.387,17.305,17.305,0,0,0,4.574,0,.243.243,0,0,1,.223.387,3.031,3.031,0,0,1-5.021,0Z" transform="translate(-205.558 -169.226)" fill="#fff"/>
          </g>
          <g id="Grupo_116245" data-name="Grupo 116245" transform="translate(0 49.945)">
            <g id="Grupo_116221" data-name="Grupo 116221" transform="translate(61.854 33.158)">
              <path id="Trazado_160828" data-name="Trazado 160828" d="M134.837,222.444c-1.825,1.214-1.32,7.83-.631,8.167,9.488,1.16,25.512-6.7,25.512-6.7l.628-3.516A164.562,164.562,0,0,1,134.837,222.444Z" transform="translate(-112.14 -201.054)" fill="#f37a50"/>
              <path id="Trazado_160829" data-name="Trazado 160829" d="M117.634,214.258c3.391,5.424,18.237,19.447,20.54,19.656l1.962-7.951s-13.326-16.893-15.673-19.591C120.408,201.693,112.08,205.413,117.634,214.258Z" transform="translate(-115.782 -204.34)" fill="#f37a50"/>
            </g>
            <path id="Trazado_160830" data-name="Trazado 160830" d="M129.631,190.912c.408-5.554-1.2-10.459-5.625-12.958-4.487-2.532-10.11-.049-10.11-.049h0s-4.759-1.693-9.071,3.059-1.05,8.93-2.815,12.4c-1.044,2.052-6.357,2.474-4.985,9.158.4,1.928,2.714,3.225,4.678,3.354,3.449.226,6.662-1.107,8.061.226,4.608,4.394,14.819,2.8,16.248-1.214.443-1.247,9.629,1.165,8.712-7.325C134.26,193.258,129.268,195.874,129.631,190.912Z" transform="translate(-57.814 -176.816)" fill="#2c2858"/>
            <g id="Grupo_116224" data-name="Grupo 116224" transform="translate(53.373 30.7)">
              <g id="Grupo_116223" data-name="Grupo 116223">
                <g id="Grupo_116222" data-name="Grupo 116222">
                  <path id="Trazado_160831" data-name="Trazado 160831" d="M118.77,203.646l-7.293-1.346-2.735,3.638,5.812,11.916L123.1,210.6Z" transform="translate(-108.743 -202.3)" fill="#f37a50"/>
                </g>
              </g>
            </g>
            <g id="Grupo_116227" data-name="Grupo 116227" transform="translate(44.596 30.691)">
              <g id="Grupo_116226" data-name="Grupo 116226">
                <g id="Grupo_116225" data-name="Grupo 116225">
                  <path id="Trazado_160832" data-name="Trazado 160832" d="M129.715,232.378c-.125-2.267,3.539-11.577,1.611-16.265-1.4-3.769-3.751-10.1-6.626-11.153-1.355-.5-2.749-.846-4.439-1.313,0,0,.954,4.751-1.032,4.91-3.822.306-6.26-6.256-6.26-6.256-2.061-.2-11.517,2.909-11.512,3.685.023,6.081,4.963,14.954,6.579,21.528.636,7.1-1.842,15.6-1.85,16.407,0,0,15.209,4.275,24.225-.688C130.6,242.542,129.887,235.509,129.715,232.378Z" transform="translate(-101.457 -202.293)" fill="#a7e446"/>
                </g>
              </g>
            </g>
            <path id="Trazado_160833" data-name="Trazado 160833" d="M108.007,230.792s-3.357,8.47-4.177,13.8,3.8,8.754,3.8,8.754h38.43s4.114-6.673,2.929-11.28-3.91-5.339-3.91-5.339Z" transform="translate(-56.395 -165.768)" fill="#a7e446"/>
            <path id="Trazado_160834" data-name="Trazado 160834" d="M143.582,235.536c-4.907-.693-19.146,4.838-25.218,16.855H135.35Z" transform="translate(-53.4 -164.808)" fill="#de623c"/>
            <g id="Grupo_116228" data-name="Grupo 116228" transform="translate(84.802 70.526)">
              <path id="Trazado_160835" data-name="Trazado 160835" d="M134.831,239.983a13.671,13.671,0,0,0,1.717-2.442,4.237,4.237,0,0,1,6.832-.8c7.082,7.809,22.181,25.611,25.547,27.825.951.626,6.5,3.821,11.776,3.19,0,0,2.6.99.869,3.059-.893,1.064-14.3,2.164-14.3,2.164l-1.046-3.936c-7.8-5.776-17.519-5.361-25.755-15.92A31.739,31.739,0,0,1,134.831,239.983Z" transform="translate(-134.831 -235.359)" fill="#de623c"/>
              <path id="Trazado_160836" data-name="Trazado 160836" d="M164.765,270.082l5.395,3.5.741-.884-4.375-4.08c2.485-1.961,8.242-.325,8.242-.325,1.887-1.218,5.562-5.168,5.942-7.285-1.208-1.5-5.23,1.59-5.23,1.59a4.936,4.936,0,0,1-2.132,3.389c-4.394.948-8.771-.3-12.343-2.113C161,263.875,158.02,268.4,164.765,270.082Z" transform="translate(-129.608 -230.193)" fill="#e62552"/>
            </g>
            <g id="Grupo_116229" data-name="Grupo 116229" transform="translate(81.799 76.13)">
              <path id="Trazado_160837" data-name="Trazado 160837" d="M135.262,240.091a2.541,2.541,0,0,0-1.856,2.095c-.384,2.725-2.368,8.245.316,14.025,6.591,14.189,10.482,23.539,11.172,27.2-1.722,3.224,5.143,12.031,5.245,12.607l4.942-1.546s-2.836-4.218-3.856-5.868c-2.431-3.932-2.829-8.758-3.224-12.5-1.687-15.968,1.214-26.05-10.34-35.417A2.7,2.7,0,0,0,135.262,240.091Z" transform="translate(-132.339 -240.01)" fill="#f37a50"/>
              <path id="Trazado_160838" data-name="Trazado 160838" d="M140.853,282.791l.488,6.414,1.152.053.592-5.954c3.067.788,5.257,6.357,5.257,6.357,2.112.761,7.482,1.289,9.4.307.464-1.873-4.436-3.194-4.436-3.194a4.938,4.938,0,0,1-3.989.359,19.1,19.1,0,0,1-6-11.1S138.1,276.406,140.853,282.791Z" transform="translate(-130.76 -232.636)" fill="#e62552"/>
            </g>
            <g id="Grupo_116232" data-name="Grupo 116232" transform="translate(55.636 25.203)">
              <g id="Grupo_116231" data-name="Grupo 116231">
                <g id="Grupo_116230" data-name="Grupo 116230">
                  <path id="Trazado_160839" data-name="Trazado 160839" d="M116.543,198.624l-5.922-.887.472,5.5s1.134,2.49,2.448,2.659l4.844-1.313Z" transform="translate(-110.621 -197.737)" fill="#f37a50"/>
                </g>
              </g>
            </g>
            <g id="Grupo_116236" data-name="Grupo 116236" transform="translate(48.55 4.203)">
              <path id="Trazado_160840" data-name="Trazado 160840" d="M106.144,194.244c1.529,6.385,6.833,10.587,11.848,9.387s7.839-7.35,6.311-13.735-6.833-10.587-11.848-9.387S104.615,187.86,106.144,194.244Z" transform="translate(-104.536 -180.305)" fill="#f37a50"/>
              <path id="Trazado_160841" data-name="Trazado 160841" d="M119.212,189.879a.9.9,0,1,0,.4-1.2A.9.9,0,0,0,119.212,189.879Z" transform="translate(-101.796 -178.611)"/>
              <path id="Trazado_160842" data-name="Trazado 160842" d="M113.367,191.339a.97.97,0,1,0,.436-1.3A.969.969,0,0,0,113.367,191.339Z" transform="translate(-102.994 -178.334)"/>
              <g id="Grupo_116233" data-name="Grupo 116233" transform="translate(8.811 10.114)">
                <path id="Trazado_160843" data-name="Trazado 160843" d="M112.542,190.789a.335.335,0,0,0,.155-.16,2.569,2.569,0,0,1,1.814-1.255.338.338,0,0,0-.1-.669,3.211,3.211,0,0,0-2.331,1.64.338.338,0,0,0,.458.445Z" transform="translate(-112.053 -188.701)" fill="#2c2858"/>
              </g>
              <g id="Grupo_116234" data-name="Grupo 116234" transform="translate(16.879 8.747)">
                <path id="Trazado_160844" data-name="Trazado 160844" d="M121.243,188.788a.33.33,0,0,0,.09-.065.338.338,0,0,0,0-.477,2.368,2.368,0,0,0-2.352-.577.337.337,0,0,0,.218.638,1.694,1.694,0,0,1,1.659.419A.339.339,0,0,0,121.243,188.788Z" transform="translate(-118.75 -187.566)" fill="#2c2858"/>
              </g>
              <path id="Trazado_160845" data-name="Trazado 160845" d="M118.851,191.286a8.964,8.964,0,0,0,1.394,1.323.356.356,0,0,1,.117.473,4.87,4.87,0,0,1-2.167,1.516.094.094,0,0,1-.1-.158,4.6,4.6,0,0,0,1.1-1.288.421.421,0,0,0,0-.383c-.141-.278-.42-.844-.61-1.314A.159.159,0,0,1,118.851,191.286Z" transform="translate(-102.012 -178.068)" fill="#de623c"/>
              <path id="Trazado_160846" data-name="Trazado 160846" d="M108.759,192.027a2.333,2.333,0,1,1-3.61.089A2.58,2.58,0,0,1,108.759,192.027Z" transform="translate(-104.739 -178.046)" fill="#f37a50"/>
              <g id="Grupo_116235" data-name="Grupo 116235" transform="translate(1.549 14.559)">
                <path id="Trazado_160847" data-name="Trazado 160847" d="M107.8,195.044a.335.335,0,0,0,.119-.1,1.528,1.528,0,0,0,.118-1.871,1.625,1.625,0,0,0-1.782-.612.337.337,0,1,0,.211.641.966.966,0,0,1,1.023.364.865.865,0,0,1-.11,1.072.338.338,0,0,0,.42.5Z" transform="translate(-106.025 -192.39)" fill="#de623c"/>
              </g>
              <path id="Trazado_160848" data-name="Trazado 160848" d="M114.125,195.576a.269.269,0,0,1,.247-.429,18.989,18.989,0,0,0,5.068,0,.269.269,0,0,1,.247.429,3.358,3.358,0,0,1-5.562,0Z" transform="translate(-102.829 -177.268)" fill="#fff"/>
            </g>
            <path id="Trazado_160849" data-name="Trazado 160849" d="M106.122,193.886c5.986-.8,14.36-6.9,15.047-10.028-1.158-3.76-7.326-5.649-10.808-3.908S103.588,189.156,106.122,193.886Z" transform="translate(-56.089 -176.308)" fill="#2c2858"/>
            <path id="Trazado_160850" data-name="Trazado 160850" d="M152.626,234.289h0a1.517,1.517,0,0,1-.971-1.913l9.239-28.3a1.519,1.519,0,0,1,1.913-.972h0a1.52,1.52,0,0,1,.972,1.914l-9.239,28.3A1.518,1.518,0,0,1,152.626,234.289Z" transform="translate(-46.601 -171.451)" fill="#fff"/>
            <path id="Trazado_160851" data-name="Trazado 160851" d="M156.743,221.538l1.882-5.766a7.793,7.793,0,0,1,0,6.466c-1.631,3.148-3.184,3.289-3.184,3.289Z" transform="translate(-45.811 -168.842)" fill="#f37a50"/>
            <path id="Trazado_160852" data-name="Trazado 160852" d="M154.453,219.941c-.476-1.119-1.6-3.92-.476-3.907s1.3,1.373,1.3,1.373Z" transform="translate(-46.209 -168.788)" fill="#f37a50"/>
            <g id="Grupo_116244" data-name="Grupo 116244" transform="translate(0 25.688)">
              <g id="Grupo_116239" data-name="Grupo 116239" transform="translate(15.696 3.414)">
                <g id="Grupo_116238" data-name="Grupo 116238">
                  <g id="Grupo_116237" data-name="Grupo 116237">
                    <path id="Trazado_160853" data-name="Trazado 160853" d="M77.467,206.171a4.2,4.2,0,0,0,.873-5.192c1.394-.3,8.75,10.843,11.922,17.925,5.532-5.577,15.279-13.106,17.915-13.546,0,0,3.556-.955,4.834,3.344,1.141,3.837-3.308,6.556-3.308,6.556s-19.027,13.434-21.84,12.24C83.484,225.639,79.521,209.652,77.467,206.171Z" transform="translate(-77.467 -200.973)" fill="#f37a50"/>
                  </g>
                </g>
              </g>
              <g id="Grupo_116243" data-name="Grupo 116243">
                <g id="Grupo_116242" data-name="Grupo 116242">
                  <g id="Grupo_116241" data-name="Grupo 116241">
                    <g id="Grupo_116240" data-name="Grupo 116240">
                      <path id="Trazado_160854" data-name="Trazado 160854" d="M76.161,206.434c1.553.094,3.472-.673,4.071.719L83.3,205.66l.186-1.848c-2.633-4.219-9.052-5.416-9.687-5.473-1.652-.145-2.418-.314-2.547-.094s-.534,1.69,1.862,1.978c3.006.361,1.01,2.765-5.089.477-1.528-.573-4.4.17-3.362,1.287C65.805,203.216,69.1,206,76.161,206.434Z" transform="translate(-64.438 -198.139)" fill="#f37a50"/>
                    </g>
                  </g>
                </g>
              </g>
            </g>
          </g>
        </g>
        <g id="Grupo_116248" data-name="Grupo 116248" transform="translate(119.821 0)">
          <path id="Trazado_160855" data-name="Trazado 160855" d="M218.552,133.709a12.165,12.165,0,0,1-.689,4.039c-2.249,6.46-9.759,11.2-18.68,11.2s-16.43-4.744-18.679-11.2a12.2,12.2,0,0,1-.689-4.039Z" transform="translate(-126.858 -27.806)" fill="#a7e446"/>
          <path id="Trazado_160856" data-name="Trazado 160856" d="M218.552,133.709a12.165,12.165,0,0,1-.689,4.039H180.5a12.2,12.2,0,0,1-.689-4.039Z" transform="translate(-126.858 -27.806)" fill="#0e6a41"/>
          <path id="Trazado_160857" data-name="Trazado 160857" d="M243.346,86.362a40.561,40.561,0,1,0-72.62,24.849,50.776,50.776,0,0,1,10.763,31.121v.2H224.08v-.2a50.92,50.92,0,0,1,10.79-31.158A40.377,40.377,0,0,0,243.346,86.362Z" transform="translate(-130.459 -45.8)" fill="#feca2e"/>
          <g id="Grupo_116247" data-name="Grupo 116247" transform="translate(53.533 29.761)">
            <path id="Trazado_160858" data-name="Trazado 160858" d="M205.222,132.884a1.024,1.024,0,0,1-.341-.058,1.037,1.037,0,0,1-.638-1.32c.048-.137,4.831-13.918,8.306-27.95,6.161-24.873,2.99-28.916,1.342-29.5-4.849-1.717-8.709.823-11.093,3.254a20.724,20.724,0,0,0-2.006,2.4,39.254,39.254,0,0,1,2.752,5.861c2.148,5.738,2.719,11.1,1.528,14.337a5.089,5.089,0,0,1-5.5,3.568,5.878,5.878,0,0,1-5.248-4.153c-1.093-2.9-.951-7.169.388-11.707a31.243,31.243,0,0,1,3.641-8,20.1,20.1,0,0,0-4.883-5.521c-2.67-1.946-5.177-2.03-7.451-.252-4.7,3.672-4.878,14.715-.52,31.936a227.968,227.968,0,0,0,8.338,25.674,1.037,1.037,0,0,1-1.924.776,230.559,230.559,0,0,1-8.42-25.923c-4.644-18.347-4.225-29.82,1.248-34.1,3.007-2.35,6.54-2.276,9.951.21a21.489,21.489,0,0,1,4.928,5.4,21.847,21.847,0,0,1,1.7-1.962c3.967-4.047,8.679-5.381,13.265-3.757,2.855,1.011,4.027,4.854,3.582,11.749a121.753,121.753,0,0,1-3.6,20.215c-3.5,14.125-8.31,27.985-8.358,28.122A1.037,1.037,0,0,1,205.222,132.884Zm-5.692-51.232A29.446,29.446,0,0,0,196.7,88.2c-1.2,4.054-1.359,7.938-.436,10.389a3.837,3.837,0,0,0,3.463,2.815,3.017,3.017,0,0,0,3.4-2.215C204.5,95.458,202.83,87.829,199.529,81.652Z" transform="translate(-180.293 -70.504)" fill="#fff"/>
          </g>
          <rect id="Rectángulo_40643" data-name="Rectángulo 40643" width="50.692" height="15.606" rx="6.477" transform="translate(46.98 91.623)" fill="#a7e446"/>
          <path id="Trazado_160859" data-name="Trazado 160859" d="M255.926,82.017H242.664a3.418,3.418,0,0,1-3.418-3.419h0a3.417,3.417,0,0,1,3.418-3.418h13.262a3.417,3.417,0,0,1,3.418,3.418h0A3.418,3.418,0,0,1,255.926,82.017Z" transform="translate(-114.693 -39.787)" fill="#feca2e"/>
          <path id="Trazado_160860" data-name="Trazado 160860" d="M152.536,82.017H139.274a3.418,3.418,0,0,1-3.418-3.419h0a3.417,3.417,0,0,1,3.418-3.418h13.262a3.417,3.417,0,0,1,3.418,3.418h0A3.418,3.418,0,0,1,152.536,82.017Z" transform="translate(-135.856 -39.787)" fill="#feca2e"/>
          <path id="Trazado_160861" data-name="Trazado 160861" d="M158.72,59.969l-10.554-8.03a3.419,3.419,0,0,1-.651-4.79h0a3.418,3.418,0,0,1,4.79-.651L162.86,54.53a3.418,3.418,0,0,1,.651,4.79h0A3.418,3.418,0,0,1,158.72,59.969Z" transform="translate(-133.612 -45.801)" fill="#feca2e"/>
          <path id="Trazado_160862" data-name="Trazado 160862" d="M235.458,59.969l10.553-8.03a3.418,3.418,0,0,0,.651-4.79h0a3.418,3.418,0,0,0-4.79-.651L231.319,54.53a3.418,3.418,0,0,0-.651,4.79h0A3.418,3.418,0,0,0,235.458,59.969Z" transform="translate(-116.592 -45.801)" fill="#feca2e"/>
          <path id="Trazado_160863" data-name="Trazado 160863" d="M158.72,102.109l-10.554,8.032a3.419,3.419,0,0,0-.651,4.79h0a3.418,3.418,0,0,0,4.79.649l10.554-8.03a3.418,3.418,0,0,0,.651-4.79h0A3.419,3.419,0,0,0,158.72,102.109Z" transform="translate(-133.612 -34.418)" fill="#feca2e"/>
          <path id="Trazado_160864" data-name="Trazado 160864" d="M235.458,102.109l10.553,8.032a3.418,3.418,0,0,1,.651,4.79h0a3.418,3.418,0,0,1-4.79.649l-10.553-8.03a3.418,3.418,0,0,1-.651-4.79h0A3.419,3.419,0,0,1,235.458,102.109Z" transform="translate(-116.592 -34.418)" fill="#feca2e"/>
        </g>
        <g id="Grupo_116249" data-name="Grupo 116249" transform="translate(193.596 180.397)">
          <path id="Vector_25" data-name="Vector 25" d="M204.081,222.912a50.092,50.092,0,0,1-4.269-11.858,67.4,67.4,0,0,1-.881-14.772.765.765,0,0,1,1.418-.369c1.92,3.139,5.391,9.446,6.17,15.144a118.1,118.1,0,0,1,1.078,11.858Z" transform="translate(-196.733 -195.546)" fill="#a7e446"/>
          <path id="Vector_26" data-name="Vector 26" d="M205.842,221.892a94.58,94.58,0,0,1,4.271-11.728c1.625-3.412,5.326-7.5,7.226-9.474a.522.522,0,0,1,.89.458c-.488,2.6-1.615,7.729-3.459,11.231a53.093,53.093,0,0,1-6.829,9.512Z" transform="translate(-195.305 -194.526)" fill="#a7e446"/>
          <path id="Vector_27" data-name="Vector 27" d="M197.176,213.257a.711.711,0,0,1,.86-1,12.173,12.173,0,0,1,4.185,2.425,8.684,8.684,0,0,1,2.7,4.422l-.782.264S199.9,218.6,197.176,213.257Z" transform="translate(-197.095 -192.133)" fill="#a7e446"/>
          <path id="Vector_28" data-name="Vector 28" d="M211.56,199.55a.781.781,0,0,0-1.412-.4,29.255,29.255,0,0,0-5.125,11.9,28.293,28.293,0,0,0,.18,11.193h.9a77.73,77.73,0,0,0,4.6-10.522C211.92,207.712,211.763,202.386,211.56,199.55Z" transform="translate(-195.563 -194.875)" fill="#a7e446"/>
          <path id="Vector_29" data-name="Vector 29" d="M207.584,219.755A14.6,14.6,0,0,1,216,211a.467.467,0,0,1,.591.614c-.859,2.1-3.307,7.1-7.441,8.139Z" transform="translate(-194.948 -192.389)" fill="#a7e446"/>
          <path id="Vector_23" data-name="Vector 23" d="M214.933,217.371H199.854l1.936,15.448H213Z" transform="translate(-196.531 -191.079)" fill="#12263f"/>
        </g>
        <g id="Grupo_116252" data-name="Grupo 116252" transform="translate(166.634 206.557)">
          <g id="Grupo_116250" data-name="Grupo 116250" transform="translate(3.409 11.152)">
            <path id="Trazado_160865" data-name="Trazado 160865" d="M203.287,227.579V229.8h.6a.532.532,0,0,1,.531.531v.089a.531.531,0,0,1-.531.53H178.162a.617.617,0,0,1-.617-.617v-3.194a.617.617,0,0,1,.617-.618H203.89a.531.531,0,0,1,.531.53h0a.532.532,0,0,1-.531.531Z" transform="translate(-177.545 -226.518)" fill="#fc4b52"/>
            <path id="Rectángulo_40644" data-name="Rectángulo 40644" d="M.92,0H22.953a0,0,0,0,1,0,0V2.217a0,0,0,0,1,0,0H.92A.92.92,0,0,1,0,1.3V.92A.92.92,0,0,1,.92,0Z" transform="translate(2.865 1.061)" fill="#fff"/>
          </g>
          <g id="Grupo_116251" data-name="Grupo 116251" transform="translate(0 6.251)">
            <path id="Trazado_160866" data-name="Trazado 160866" d="M175.849,223.625v2.454h-.6a.561.561,0,0,0-.53.587v.1a.561.561,0,0,0,.53.587h25.729a.653.653,0,0,0,.618-.683v-3.535a.653.653,0,0,0-.618-.683H175.245a.561.561,0,0,0-.53.588h0a.561.561,0,0,0,.53.587Z" transform="translate(-174.715 -222.45)" fill="#3f964f"/>
            <path id="Rectángulo_40645" data-name="Rectángulo 40645" d="M1.018,0H22.953a0,0,0,0,1,0,0V2.453a0,0,0,0,1,0,0H1.018A1.018,1.018,0,0,1,0,1.435V1.018A1.018,1.018,0,0,1,1.018,0Z" transform="translate(24.011 3.628) rotate(180)" fill="#fff"/>
          </g>
          <rect id="Rectángulo_40646" data-name="Rectángulo 40646" width="25.338" height="3.978" rx="1.651" transform="translate(2.097)" fill="#fc4b52"/>
          <path id="Rectángulo_40647" data-name="Rectángulo 40647" d="M.944,0H24.395a.943.943,0,0,1,.943.943V1.33a.943.943,0,0,1-.943.943H.944A.944.944,0,0,1,0,1.33V.944A.944.944,0,0,1,.944,0Z" transform="translate(3.752 3.978)" fill="#768fdb"/>
        </g>
      </g>
    </g>
  </g>
</svg>
