<svg xmlns="http://www.w3.org/2000/svg" width="400" height="293.623" viewBox="0 0 400 293.623">
  <g id="Grupo_117455" data-name="Grupo 117455" transform="translate(5883 6181.826)">
    <path id="Trazado_160867" data-name="Trazado 160867" d="M105.494,472.567c-28.1-30.6-66.5-62.187-51.444-109.909,9.9-31.388,34.191-40.137,54.378-59.492,9.963-9.552,3.7-23.456,3.512-37.255-.422-35.339,39.016-62.76,75.273-62.188,39.273.62,56.273,40.1,89.217,42.221,12.936.2,24.52-7.394,35.965-13.424,33.914-17.869,87.727-6.474,90.447,36.74.7,23.338-25.86,60.884.753,73.159,21.21,9.783,42.637,13.386,46.459,48.375,5,45.8-21.446,70.931-55.911,82.717Z" transform="translate(-5933.664 -6361.714)" fill="#f3f9ff"/>
    <g id="Grupo_116424" data-name="Grupo 116424" transform="translate(-70 -50)">
      <g id="Grupo_116255" data-name="Grupo 116255" transform="translate(-5738.424 -6073.888)">
        <path id="Trazado_160868" data-name="Trazado 160868" d="M215.211,116.867H86.761c1.207-2.617,7.889-15.5,21.892-13.88,0,0,22.62-26.89,46.725-3.57,0,0,25.633-5.769,44.611,5.016C208.35,109.183,213.01,114.086,215.211,116.867Z" transform="translate(-86.761 -89.903)" fill="#b0c0d2"/>
      </g>
      <g id="Grupo_116256" data-name="Grupo 116256" transform="translate(-5545.112 -6088.604)">
        <path id="Trazado_160869" data-name="Trazado 160869" d="M354.885,94.432S350.575,84,339.87,84.984c0,0-15.25-17.517-32.028-2.8,0,0-17.533-3.982-30.665,2.74-8.756,4.481-11.7,9.279-11.7,9.279Z" transform="translate(-265.477 -76.298)" fill="#b0c0d2"/>
      </g>
      <g id="Grupo_116257" data-name="Grupo 116257" transform="translate(-5617.146 -6128)">
        <path id="Trazado_160870" data-name="Trazado 160870" d="M301.788,63.6S296.84,50.775,284.518,52c0,0-17.532-21.517-36.861-3.4,0,0-20.174-4.873-35.3,3.406-10.083,5.52-13.477,11.421-13.477,11.421Z" transform="translate(-198.882 -41.344)" fill="#b0c0d2"/>
      </g>
      <g id="Grupo_116305" data-name="Grupo 116305" transform="translate(-5777 -6131.826)">
        <g id="Grupo_116260" data-name="Grupo 116260" transform="translate(69.691 53.441)">
          <g id="Grupo_116259" data-name="Grupo 116259">
            <g id="Grupo_116258" data-name="Grupo 116258">
              <path id="Trazado_160871" data-name="Trazado 160871" d="M136.967,192.873l-25.621-.009.73-2.562c6-21.08,7.984-104.93,8-105.774l-.8-1.987,10.873,0-.794,1.943c2.084,62.008,9.543,105.634,9.609,106.068l.355,2.319Z" transform="translate(-111.346 -82.54)" fill="#d2e0ff"/>
            </g>
          </g>
        </g>
        <g id="Grupo_116262" data-name="Grupo 116262" transform="translate(66.095 162.968)">
          <g id="Grupo_116261" data-name="Grupo 116261">
            <rect id="Rectángulo_40648" data-name="Rectángulo 40648" width="35.532" height="5.649" fill="#d2e0ff"/>
          </g>
        </g>
        <g id="Grupo_116264" data-name="Grupo 116264" transform="translate(52.224 216.541)">
          <g id="Grupo_116263" data-name="Grupo 116263">
            <rect id="Rectángulo_40649" data-name="Rectángulo 40649" width="63.237" height="6.261" fill="#d2e0ff"/>
          </g>
        </g>
        <g id="Grupo_116269" data-name="Grupo 116269" transform="translate(56.921 166.917)">
          <g id="Grupo_116266" data-name="Grupo 116266">
            <g id="Grupo_116265" data-name="Grupo 116265">
              <path id="Trazado_160872" data-name="Trazado 160872" d="M113.784,180.64s-7.056,35.686-13.478,49.615l13.461,0s8.15-30.52,9.409-49.616Z" transform="translate(-100.306 -180.64)" fill="#d2e0ff"/>
            </g>
          </g>
          <g id="Grupo_116268" data-name="Grupo 116268" transform="translate(31.01 0.006)">
            <g id="Grupo_116267" data-name="Grupo 116267">
              <path id="Trazado_160873" data-name="Trazado 160873" d="M136.5,180.648s7.033,35.69,13.445,49.624l-13.461,0s-8.13-30.526-9.374-49.623Z" transform="translate(-127.114 -180.645)" fill="#d2e0ff"/>
            </g>
          </g>
        </g>
        <g id="Grupo_116276" data-name="Grupo 116276" transform="translate(27.894 219.664)">
          <g id="Grupo_116271" data-name="Grupo 116271" transform="translate(0 3.127)">
            <g id="Grupo_116270" data-name="Grupo 116270">
              <path id="Trazado_160874" data-name="Trazado 160874" d="M99.437,228.943l-24.225,43.82,14.192,0,23.859-43.82Z" transform="translate(-75.212 -228.943)" fill="#d2e0ff"/>
            </g>
          </g>
          <g id="Grupo_116273" data-name="Grupo 116273" transform="translate(73.844 3.144)">
            <g id="Grupo_116272" data-name="Grupo 116272">
              <path id="Trazado_160875" data-name="Trazado 160875" d="M152.877,228.963,177.072,272.8l-14.192,0L139.05,228.958Z" transform="translate(-139.05 -228.958)" fill="#d2e0ff"/>
            </g>
          </g>
          <g id="Grupo_116275" data-name="Grupo 116275" transform="translate(19.025)">
            <g id="Grupo_116274" data-name="Grupo 116274">
              <path id="Trazado_160876" data-name="Trazado 160876" d="M166.478,257.879l-4.7-.268c-4.46-10.987-17.6-18.948-33.115-18.954-13.747,0-25.629,6.237-31.268,15.3l-5.732-.325s14.567-27.387,15.193-27.387,45.08.8,45.08.8Z" transform="translate(-91.659 -226.24)" fill="#d2e0ff"/>
            </g>
          </g>
        </g>
        <g id="Grupo_116278" data-name="Grupo 116278" transform="translate(75.356 176)">
          <g id="Grupo_116277" data-name="Grupo 116277" transform="translate(0)">
            <rect id="Rectángulo_40650" data-name="Rectángulo 40650" width="16.122" height="3.6" fill="#d2e0ff"/>
          </g>
        </g>
        <g id="Grupo_116280" data-name="Grupo 116280" transform="translate(77.599 46.646)">
          <g id="Grupo_116279" data-name="Grupo 116279" transform="translate(0)">
            <path id="Trazado_160877" data-name="Trazado 160877" d="M118.182,83.426l2.049-6.761,6.736,0,2.044,6.763Z" transform="translate(-118.182 -76.665)" fill="#d2e0ff"/>
          </g>
        </g>
        <g id="Grupo_116282" data-name="Grupo 116282" transform="translate(82.612 29.163)">
          <g id="Grupo_116281" data-name="Grupo 116281" transform="translate(0)">
            <rect id="Rectángulo_40651" data-name="Rectángulo 40651" width="0.81" height="19.886" fill="#d2e0ff"/>
          </g>
        </g>
        <g id="Grupo_116301" data-name="Grupo 116301" transform="translate(189.254 12.3)">
          <g id="Grupo_116283" data-name="Grupo 116283" transform="translate(0 89.756)">
            <rect id="Rectángulo_40652" data-name="Rectángulo 40652" width="50.606" height="34.028" fill="#cadbfc"/>
          </g>
          <g id="Grupo_116284" data-name="Grupo 116284" transform="translate(12.578 94.045)">
            <path id="Trazado_160878" data-name="Trazado 160878" d="M225.582,141A12.725,12.725,0,1,1,238.3,153.724,12.725,12.725,0,0,1,225.582,141Z" transform="translate(-225.582 -128.275)" fill="#ebf3fa"/>
          </g>
          <g id="Grupo_116285" data-name="Grupo 116285" transform="translate(5.098 73.977)">
            <rect id="Rectángulo_40653" data-name="Rectángulo 40653" width="40.354" height="15.778" fill="#d2e0ff"/>
          </g>
          <g id="Grupo_116286" data-name="Grupo 116286" transform="translate(5.101 52.597)">
            <path id="Trazado_160879" data-name="Trazado 160879" d="M219.117,113.817l7.5-21.374,25.448.009,7.409,21.379Z" transform="translate(-219.117 -92.443)" fill="#cadbfc"/>
          </g>
          <g id="Grupo_116287" data-name="Grupo 116287" transform="translate(12.601 31.443)">
            <rect id="Rectángulo_40654" data-name="Rectángulo 40654" width="25.504" height="21.158" fill="#d2e0ff"/>
          </g>
          <g id="Grupo_116288" data-name="Grupo 116288" transform="translate(11.807)">
            <path id="Trazado_160880" data-name="Trazado 160880" d="M237.678,46.973s-2.239,20.893-12.763,31.438l27.1.009s-8.765-7.224-11.944-31.446Z" transform="translate(-224.915 -46.973)" fill="#cadbfc"/>
          </g>
          <g id="Grupo_116292" data-name="Grupo 116292" transform="translate(17.907 39.184)">
            <g id="Grupo_116289" data-name="Grupo 116289">
              <path id="Trazado_160881" data-name="Trazado 160881" d="M233.178,91.318h-2.989l0-9.043a1.426,1.426,0,0,1,1.427-1.426h.134a1.427,1.427,0,0,1,1.427,1.427Z" transform="translate(-230.189 -80.848)" fill="#ebf3fa"/>
            </g>
            <g id="Grupo_116290" data-name="Grupo 116290" transform="translate(5.799 0.001)">
              <path id="Trazado_160882" data-name="Trazado 160882" d="M238.191,91.32H235.2l0-9.042a1.427,1.427,0,0,1,1.427-1.427h.134a1.427,1.427,0,0,1,1.426,1.429Z" transform="translate(-235.202 -80.849)" fill="#ebf3fa"/>
            </g>
            <g id="Grupo_116291" data-name="Grupo 116291" transform="translate(11.896 0.003)">
              <path id="Trazado_160883" data-name="Trazado 160883" d="M243.462,91.322h-2.989l0-9.042a1.427,1.427,0,0,1,1.427-1.427h.134a1.428,1.428,0,0,1,1.427,1.429Z" transform="translate(-240.473 -80.851)" fill="#ebf3fa"/>
            </g>
          </g>
          <g id="Grupo_116298" data-name="Grupo 116298" transform="translate(10.208 77.676)">
            <g id="Grupo_116293" data-name="Grupo 116293" transform="translate(13.525 0.005)">
              <path id="Trazado_160884" data-name="Trazado 160884" d="M238.924,123.55h-3.7l0-7.914a1.506,1.506,0,0,1,1.507-1.506h.686a1.506,1.506,0,0,1,1.506,1.507Z" transform="translate(-235.225 -114.128)" fill="#ebf3fa"/>
            </g>
            <g id="Grupo_116294" data-name="Grupo 116294" transform="translate(19.778 0.007)">
              <path id="Trazado_160885" data-name="Trazado 160885" d="M244.33,123.552h-3.7l0-7.914a1.506,1.506,0,0,1,1.506-1.506h.687a1.506,1.506,0,0,1,1.506,1.507Z" transform="translate(-240.631 -114.13)" fill="#ebf3fa"/>
            </g>
            <g id="Grupo_116295" data-name="Grupo 116295" transform="translate(25.777 0.009)">
              <path id="Rectángulo_40655" data-name="Rectángulo 40655" d="M.65,0h2.4A.65.65,0,0,1,3.7.65V9.421a0,0,0,0,1,0,0H0a0,0,0,0,1,0,0V.65A.65.65,0,0,1,.65,0Z" fill="#ebf3fa"/>
            </g>
            <g id="Grupo_116296" data-name="Grupo 116296" transform="translate(6.764 0.002)">
              <path id="Rectángulo_40656" data-name="Rectángulo 40656" d="M.65,0h2.4A.651.651,0,0,1,3.7.651V9.421a0,0,0,0,1,0,0H0a0,0,0,0,1,0,0V.65A.65.65,0,0,1,.65,0Z" fill="#ebf3fa"/>
            </g>
            <g id="Grupo_116297" data-name="Grupo 116297">
              <path id="Trazado_160886" data-name="Trazado 160886" d="M227.233,123.546h-3.7l0-7.914a1.508,1.508,0,0,1,1.507-1.506h.687a1.507,1.507,0,0,1,1.506,1.507Z" transform="translate(-223.533 -114.124)" fill="#ebf3fa"/>
            </g>
          </g>
          <g id="Grupo_116299" data-name="Grupo 116299" transform="translate(1.665 123.783)">
            <rect id="Rectángulo_40657" data-name="Rectángulo 40657" width="46.243" height="9.598" fill="#d2e0ff"/>
          </g>
          <g id="Grupo_116300" data-name="Grupo 116300" transform="translate(1.641 133.381)">
            <rect id="Rectángulo_40658" data-name="Rectángulo 40658" width="46.243" height="133.858" fill="#d2e0ff"/>
          </g>
        </g>
        <g id="Grupo_116302" data-name="Grupo 116302" transform="translate(0 236.373)">
          <path id="Trazado_160887" data-name="Trazado 160887" d="M51.208,296.288S48.2,265.5,73.627,255.828s31.856,18.413,31.856,18.413,8.7-6.907,16.5-1.928c0,0,11.094-14.6,31.913-9,0,0,7.736-24.227,28.5-22.546,13.038,1.056,24.739,22.584,24.739,22.584s12.323-24.123,34.429-3.117c0,0,11.18-9.319,22.135.008,0,0,9.712-4.658,15.485-.928,0,0,14.541-4.967,22.645,11.507,0,0,19.763-8.4,33.289,4.866,0,0,4.766-4.043,10.318-2.641,0,0,6.723-4.714,13.881.006s6.57,14.249,6.57,14.249,9.994-2.6,10.876,9.621Z" transform="translate(-51.098 -240.685)" fill="#aec3ff"/>
        </g>
        <g id="Grupo_116303" data-name="Grupo 116303" transform="translate(214.647 1.343)">
          <rect id="Rectángulo_40659" data-name="Rectángulo 40659" width="0.754" height="14.202" fill="#cadbfc"/>
        </g>
        <g id="Grupo_116304" data-name="Grupo 116304" transform="translate(213.681)">
          <path id="Trazado_160888" data-name="Trazado 160888" d="M235.825,37.683a1.344,1.344,0,1,1,1.344,1.344A1.344,1.344,0,0,1,235.825,37.683Z" transform="translate(-235.825 -36.34)" fill="#cadbfc"/>
        </g>
      </g>
      <g id="Grupo_116306" data-name="Grupo 116306" transform="translate(-5490.822 -6107.872)">
        <path id="Trazado_160889" data-name="Trazado 160889" d="M315.668,67.943s2.248-5.565,7.619-4.945c0,0,7.8-9.273,16.115-1.231,0,0,8.84-1.989,15.386,1.731,4.364,2.479,5.805,5.08,5.805,5.08Z" transform="translate(-315.668 -58.486)" fill="#b0c0d2"/>
      </g>
      <g id="Grupo_116307" data-name="Grupo 116307" transform="translate(-5773.208 -6079.008)">
        <path id="Trazado_160890" data-name="Trazado 160890" d="M54.6,94.767s2.28-5.647,7.731-5.018c0,0,7.916-9.411,16.352-1.249,0,0,8.97-2.018,15.612,1.756,4.428,2.516,5.891,5.154,5.891,5.154Z" transform="translate(-54.603 -85.17)" fill="#b0c0d2"/>
      </g>
      <g id="Grupo_116354" data-name="Grupo 116354" transform="translate(-5708.931 -6068.584)">
        <g id="Grupo_116308" data-name="Grupo 116308" transform="translate(9.489 32.789)">
          <path id="Trazado_160891" data-name="Trazado 160891" d="M174.659,159.643s-19.981-4.129-32.259,4.471c-8.977,6.288-5.71,65.161,2.989,68.16s22.728.182,22.728.182Z" transform="translate(-137.062 -158.652)" fill="#233862"/>
        </g>
        <g id="Grupo_116309" data-name="Grupo 116309" transform="translate(100.775 59.083)">
          <path id="Trazado_160892" data-name="Trazado 160892" d="M197.6,185.159s.417-4.064,1.336-5.206,2.012-4.384,2.783-3.86-.3,2.832.342,3.589,7.168-1.68,7.711-.788a4.008,4.008,0,0,1-1.671,5.043c-2.316,1.193-7.835,3.673-9.871,4.745C196.9,189.382,197.6,185.159,197.6,185.159Z" transform="translate(-197.413 -176.036)" fill="#ffb27d"/>
        </g>
        <g id="Grupo_116310" data-name="Grupo 116310" transform="translate(57.949 41.35)">
          <path id="Trazado_160893" data-name="Trazado 160893" d="M169.112,165.377s-.327,9.528,2.373,14.129,23.427,24.825,29.228,27.453,3.431-13.362,1.593-14.705S181.871,158.047,169.112,165.377Z" transform="translate(-169.1 -164.312)" fill="#ffb27d"/>
        </g>
        <g id="Grupo_116336" data-name="Grupo 116336" transform="translate(52.767 22.685)">
          <g id="Grupo_116311" data-name="Grupo 116311" transform="translate(0 32.873)">
            <path id="Trazado_160894" data-name="Trazado 160894" d="M200.789,190.466s-6.483,11.057-12.506,14.857a8.154,8.154,0,0,1-1.5.732c-6.68,2.517-19.411-.74-19.411-.74l-1.694-4.471a97.632,97.632,0,0,1,11.4-2.5c6.359-1,12.759-20.408,19.45-24.424,3.111-1.873,3.965,9.3,4.187,14.262C200.775,189.563,200.789,190.466,200.789,190.466Z" transform="translate(-165.674 -173.706)" fill="#a7e446"/>
          </g>
          <g id="Grupo_116312" data-name="Grupo 116312" transform="translate(21.105 46.405)">
            <path id="Trazado_160895" data-name="Trazado 160895" d="M193.637,185.88s-6.483,11.057-12.506,14.857a8.157,8.157,0,0,1-1.5.732c.194-.2,6.421-6.77,6.749-10.833.336-4.128,3.349-8.588,6.36-7.917a1.208,1.208,0,0,1,.823.873C193.623,184.977,193.637,185.88,193.637,185.88Z" transform="translate(-179.627 -182.651)" fill="#ed7d2b"/>
          </g>
          <g id="Grupo_116313" data-name="Grupo 116313" transform="translate(35.123)">
            <path id="Trazado_160896" data-name="Trazado 160896" d="M202.658,165.933s-5.509,3.243-2.131,9.531c0,0-4.822-.885-5.863-2.325a3.786,3.786,0,0,0,.3.9s-4.433-1.006-5.882-2.857,5.671-24.008,17.194-18.264c0,0,10.537,1.959,6.4,13.657s-.23,12.731-.23,12.731a5.742,5.742,0,0,1-1.75.107s-.688-.495-.728-.957a2.843,2.843,0,0,0,.115.968s-4.315-.717-6-2.863S201.4,168.241,202.658,165.933Z" transform="translate(-188.895 -151.972)" fill="#233862"/>
          </g>
          <g id="Grupo_116314" data-name="Grupo 116314" transform="translate(40.886 32.793)">
            <path id="Trazado_160897" data-name="Trazado 160897" d="M192.746,173.653l-.02.006C192.692,173.655,192.7,173.652,192.746,173.653Z" transform="translate(-192.705 -173.653)" fill="#ffb27d"/>
          </g>
          <g id="Grupo_116315" data-name="Grupo 116315" transform="translate(40.928 19.246)">
            <path id="Trazado_160898" data-name="Trazado 160898" d="M206.12,174.395c.162,1.451.355,2.751.44,3.372.194,1.389-12.987.479-13.828.478.585-.256,2.376-5.926,2.943-8.089.687-2.624,1.227-5.459,1.227-5.459l9.307.591.554.035A32.4,32.4,0,0,0,206,168.9c-.023.15-.044.3-.064.448A24.125,24.125,0,0,0,206.12,174.395Z" transform="translate(-192.732 -164.696)" fill="#ffb27d"/>
          </g>
          <g id="Grupo_116316" data-name="Grupo 116316" transform="translate(42.572 1.171)">
            <path id="Trazado_160899" data-name="Trazado 160899" d="M195.061,169.883a26.95,26.95,0,0,1-1.2-8.457c.219-2.62,3.952-11.556,12.917-7.749a13.1,13.1,0,0,1,4.725,3.378c1.661,1.9,3.8,5.627-1.612,12.854l-1.572,2.509Z" transform="translate(-193.819 -152.747)" fill="#233862"/>
          </g>
          <g id="Grupo_116317" data-name="Grupo 116317" transform="translate(45.045 19.512)">
            <path id="Trazado_160900" data-name="Trazado 160900" d="M204.725,174.3c-6.51-1.91-9.271-9.432-9.271-9.432,2.754.082,6.341,2,9.156,3.939-.023.15-.044.3-.064.448A24.126,24.126,0,0,0,204.725,174.3Z" transform="translate(-195.454 -164.872)" fill="#ed975d"/>
          </g>
          <g id="Grupo_116318" data-name="Grupo 116318" transform="translate(44.729 4.786)">
            <path id="Trazado_160901" data-name="Trazado 160901" d="M205.293,176.652s-11.762-2.912-9.835-10.208,1.7-12.586,9.295-11.036,8.31,4.718,8.259,7.309S208.4,177.221,205.293,176.652Z" transform="translate(-195.245 -155.137)" fill="#ffb27d"/>
          </g>
          <g id="Grupo_116319" data-name="Grupo 116319" transform="translate(41.846 1.621)">
            <path id="Trazado_160902" data-name="Trazado 160902" d="M214.716,159.642c-3.5-5.541-7.675-6.117-7.693-6.117-2.987-2.006-6.944,2.912-6.944,2.912a14.417,14.417,0,0,1-6.74,7.024s1.785,1.883,7.041,1.922a8.657,8.657,0,0,0,4.715-1.693,28.3,28.3,0,0,1-6.224,4.5c6.307-1.107,10.723-8.055,11.5-9.366a10.553,10.553,0,0,1,1.736,3.937c.092,2.012-.659,5.905.49,6.071C212.6,168.829,217.073,163.373,214.716,159.642Z" transform="translate(-193.339 -153.044)" fill="#233862"/>
          </g>
          <g id="Grupo_116320" data-name="Grupo 116320" transform="translate(52.944 21.613)">
            <path id="Trazado_160903" data-name="Trazado 160903" d="M200.676,166.271s.145,1.11.855,1.373a10.241,10.241,0,0,0,2.78.622,9.46,9.46,0,0,0,.9-.983A14.616,14.616,0,0,0,200.676,166.271Z" transform="translate(-200.676 -166.261)" fill="#fff"/>
          </g>
          <g id="Grupo_116321" data-name="Grupo 116321" transform="translate(26.671 96.331)">
            <path id="Trazado_160904" data-name="Trazado 160904" d="M205.149,252.578q-.225.937-.446,1.854c-.888,3.685-1.715,7.1-2.236,9.96-.678,3.721-.838,6.491.048,7.654,3.653,4.792-.014,42.8-.014,42.8l-4.16,4.282s-7.215-37.53-9.172-43.411c-.891-2.673-2.186-14.091-3.329-25.746q-.088-.876-.171-1.75c-.2-2.039-.387-4.069-.57-6.052-1.026-11.028-1.792-20.471-1.792-20.471s7.669-5.386,14.634-5.985c4.1-.355,7.962.951,9.867,5.994C210.582,229.044,207.764,241.71,205.149,252.578Z" transform="translate(-183.307 -215.659)" fill="#ffb27d"/>
          </g>
          <g id="Grupo_116322" data-name="Grupo 116322" transform="translate(31.858 96.331)">
            <path id="Trazado_160905" data-name="Trazado 160905" d="M202.221,255.1c-5.364-5.851-8.894-14.23-15.44-25.962-.554-5.967,4.152-11.635,9.4-13.424,4.1-.355,7.962.951,9.867,5.994C208.824,229.044,204.836,244.233,202.221,255.1Z" transform="translate(-186.736 -215.659)" fill="#ed975d"/>
          </g>
          <g id="Grupo_116323" data-name="Grupo 116323" transform="translate(29.067 27.402)">
            <path id="Trazado_160906" data-name="Trazado 160906" d="M220.407,177.009c-1.7-2.349-7.312-2.44-8.561-2.5-.906-.05.785-3.9-.815-4.335-1.307-.358-3.019,1.2-4.37,1.561-2.709.725-6.56-1.181-7.921-1.618-.7-.224-1.544,1.007-1.429,1.736.141.865-6.371,1.023-10.635,3.916-2.381,1.615-1.693,14.928-1.688,14.929-.411,10.086,2.417,25.014,2.417,25.014,11.384,6.864,25.16.844,25.16.844a10.452,10.452,0,0,1-.212-1.685c.039-.3.289-2.479.337-2.724C212.8,211.6,221.8,178.935,220.407,177.009Z" transform="translate(-184.891 -170.088)" fill="#a7e446"/>
          </g>
          <g id="Grupo_116324" data-name="Grupo 116324" transform="translate(39.494 89.627)">
            <path id="Trazado_160907" data-name="Trazado 160907" d="M249.557,290.125l-1.31,5.4S210.386,275.955,205.49,272.2c-1.966-1.511-4.563-9.706-6.968-18.978-3.582-13.819-6.737-30.028-6.737-30.028s5.315-20.414,19.521-7.914c8.5,7.48,7.174,21.889,6.239,33.094-.623,7.519-1.071,13.6,1.749,15.174,5.5,3.072,21.636,17.219,26.741,26.95Z" transform="translate(-191.784 -211.226)" fill="#ffb27d"/>
          </g>
          <g id="Grupo_116325" data-name="Grupo 116325" transform="translate(25.629 71.95)">
            <path id="Trazado_160908" data-name="Trazado 160908" d="M233.749,242.491s-3.688,1.056-9.23,2.222c-11.449,2.411-30.814,5.3-41.9.351,0,0,.715-16.31,2.646-28.639,1.546-9.862,2.977-16.336,2.977-16.336a54.46,54.46,0,0,0,20.777.585c.1-.018.2-.036.3-.057a34,34,0,0,0,4.093-1.077s7.9,11.332,11.974,19.214C228.2,224.209,233.749,242.491,233.749,242.491Z" transform="translate(-182.618 -199.54)" fill="#12263f"/>
          </g>
          <g id="Grupo_116326" data-name="Grupo 116326" transform="translate(93.744 163.187)">
            <path id="Trazado_160909" data-name="Trazado 160909" d="M238.659,267.3l-.035-.008a2.364,2.364,0,0,1-1.464-1.538c-.339-.815-.442-1.485-.753-2.292l-1.278-2.208c-1.337-1.761-1.806-1.349-1.806-1.349s-.349.449-.867,1.041a10.772,10.772,0,0,1-3.087,2.683,2.693,2.693,0,0,0-1.324,1.036,2.557,2.557,0,0,0-.395.906s2.745.48,2.506,1.833c-.467,2.618-.357,3.095-.31,3.181l.017.017s4.683,2.453,6.179,2.936a11.678,11.678,0,0,1,4.92,3.493,1.542,1.542,0,0,0,1.31.414c.7-.11,1.614-.336,1.815-.767Z" transform="translate(-227.65 -259.858)" fill="#2b478b"/>
          </g>
          <g id="Grupo_116327" data-name="Grupo 116327" transform="translate(32.634 194.108)">
            <path id="Trazado_160910" data-name="Trazado 160910" d="M204.657,287.9l-2.243,1.213c-.815.289-1.488.371-2.313.687a4.775,4.775,0,0,0-2.178,1.593c-.634,2.573-1.559,2.494-1.559,2.494l-8.985,0c-.425-.213.3-2.031.641-2.372.853-.839,3.4-.416,4.334-3.054.525-1.482,3.111-6.093,3.111-6.093l.018-.015c.088-.045.567-.142,3.17.4,1.346.278,1.9-2.452,1.9-2.452a2.547,2.547,0,0,1,.9.422,2.694,2.694,0,0,1,1,1.351,10.791,10.791,0,0,0,2.594,3.166c.575.532,1.013.9,1.013.9S206.456,286.616,204.657,287.9Z" transform="translate(-187.249 -280.301)" fill="#2b478b"/>
          </g>
          <g id="Grupo_116329" data-name="Grupo 116329" transform="translate(30.839 68.628)">
            <g id="Grupo_116328" data-name="Grupo 116328">
              <path id="Trazado_160911" data-name="Trazado 160911" d="M197.42,204.258c-7.637,0-10.783-2.632-11.016-2.81l-.342-4.1c.073.054,10.168,6.717,26.027.83l-.337,2.724C205.653,203.163,201.386,204.26,197.42,204.258Z" transform="translate(-186.062 -197.344)" fill="#ed7d2b"/>
            </g>
          </g>
          <g id="Grupo_116330" data-name="Grupo 116330" transform="translate(56.819 25.219)">
            <path id="Trazado_160912" data-name="Trazado 160912" d="M203.238,176.883s26.115.9,31.2-.319,17.478-7.918,17.478-7.918l1.827,3.455s-12.4,11.17-19.308,13.2-29.871,4.054-29.871,4.054Z" transform="translate(-203.238 -168.645)" fill="#ffb27d"/>
          </g>
          <g id="Grupo_116331" data-name="Grupo 116331" transform="translate(101.84 16.998)">
            <path id="Rectángulo_40660" data-name="Rectángulo 40660" d="M.857,0H5.408a.857.857,0,0,1,.857.857V14.637a.857.857,0,0,1-.857.857H.856A.856.856,0,0,1,0,14.637V.857A.857.857,0,0,1,.857,0Z" fill="#37547f"/>
          </g>
          <g id="Grupo_116332" data-name="Grupo 116332" transform="translate(102.987 16.998)">
            <path id="Rectángulo_40661" data-name="Rectángulo 40661" d="M.857,0H5.408a.856.856,0,0,1,.856.856V14.637a.857.857,0,0,1-.857.857H.856A.856.856,0,0,1,0,14.637V.857A.857.857,0,0,1,.857,0Z" fill="#152847"/>
          </g>
          <g id="Grupo_116333" data-name="Grupo 116333" transform="translate(106.193 19.452)">
            <path id="Trazado_160913" data-name="Trazado 160913" d="M240.26,166.905s-3.2-2.928-4.166-1.824,1.573,7.183,2.741,7.4S241.529,169.448,240.26,166.905Z" transform="translate(-235.88 -164.832)" fill="#ffb27d"/>
          </g>
          <g id="Grupo_116334" data-name="Grupo 116334" transform="translate(100.666 13.643)">
            <path id="Trazado_160914" data-name="Trazado 160914" d="M232.226,165.507s2.526.269,2.816-1.133a20.581,20.581,0,0,0,.289-3.382s.144,4.084,1.195,4.455a7.936,7.936,0,0,0,2.289.372,10.9,10.9,0,0,0-2.49.681,3.067,3.067,0,0,0-.945,2.381,4.256,4.256,0,0,0-.989-2.5A6.928,6.928,0,0,0,232.226,165.507Z" transform="translate(-232.226 -160.992)" fill="#fff"/>
          </g>
          <g id="Grupo_116335" data-name="Grupo 116335" transform="translate(53.568 27.959)">
            <path id="Trazado_160915" data-name="Trazado 160915" d="M204.992,174.393s19.242,2.423,23.7,1.2,16.958-5.9,18.811-5.034a8.168,8.168,0,0,1,.929,5.938s-6.441,6.894-12.548,8.77-25.52,3.455-27.063,9.575l-5.479-3.223s-2.6-14.524-2.217-14.775S204.992,174.393,204.992,174.393Z" transform="translate(-201.089 -170.456)" fill="#a7e446"/>
          </g>
        </g>
        <g id="Grupo_116337" data-name="Grupo 116337" transform="translate(49.753 215.817)">
          <path id="Trazado_160916" data-name="Trazado 160916" d="M189.454,293.436l-25.083-.009c-1.8-1.219.489-13.134.489-13.134s6.847-2.6,8.027,2.688,8.717,6.959,12.706,7.605C188.319,291.031,189.181,292.53,189.454,293.436Z" transform="translate(-163.681 -279.656)" fill="#233862"/>
        </g>
        <g id="Grupo_116338" data-name="Grupo 116338" transform="translate(37.317 105.077)">
          <path id="Trazado_160917" data-name="Trazado 160917" d="M186.347,206.443s-.519,17.027-1.85,33.935c-1.808,22.967-6.686,79.913-6.686,79.913s-3.186,2.717-10.24,1.227a223.741,223.741,0,0,1-7.7-41.039l-.082-1.03c-.029-.368-.056-.74-.083-1.107-.833-11.444-1.9-29.234-2.751-44.128-.849-14.816-1.491-26.767-1.491-26.767Z" transform="translate(-155.46 -206.443)" fill="#feca2e"/>
        </g>
        <g id="Grupo_116339" data-name="Grupo 116339" transform="translate(38.809 120.02)">
          <path id="Trazado_160918" data-name="Trazado 160918" d="M172.938,216.322l-13.575,59.092-.082-1.03c-.029-.367-.056-.74-.083-1.107-.833-11.444-1.9-29.234-2.751-44.128l.537-2.562Z" transform="translate(-156.446 -216.322)" fill="#ed7d2b"/>
        </g>
        <g id="Grupo_116340" data-name="Grupo 116340" transform="translate(12.552 215.805)">
          <path id="Trazado_160919" data-name="Trazado 160919" d="M164.86,293.426l-25.083-.008c-1.8-1.219.489-13.134.489-13.134s6.847-2.6,8.027,2.686,8.719,6.961,12.7,7.605C163.725,291.021,164.587,292.52,164.86,293.426Z" transform="translate(-139.087 -279.647)" fill="#233862"/>
        </g>
        <g id="Grupo_116341" data-name="Grupo 116341" transform="translate(13.157 94.553)">
          <path id="Trazado_160920" data-name="Trazado 160920" d="M188.336,208.108s-17.927,44.58-23.66,61.479c-4.082,12.039-15.6,54.267-15.6,54.267s-5,1.52-9.206-1.423c0,0-2.305-41.971,4.383-55.314,5.4-10.767,1.162-67.1,19.757-67.611S188.336,208.108,188.336,208.108Z" transform="translate(-139.487 -199.485)" fill="#feca2e"/>
        </g>
        <g id="Grupo_116342" data-name="Grupo 116342" transform="translate(24.306 36.065)">
          <path id="Trazado_160921" data-name="Trazado 160921" d="M190.054,201.13a161.426,161.426,0,0,0,1.674,31.43c-5.613,5.961-38.143,8.552-44.582,3.53-1.519-1.184,3.418-9.811,4.16-27.069.449-10.467-.864-19.021-1.094-23.162-.838-15.021-2.382-18.18.8-20.083,3.444-2.062,11.121-3.972,19.329-4.852a36.153,36.153,0,0,1,10.342.817c1.305.268,2.617.588,3.9.961,3.925,1.139,7.567,2.744,9.823,4.659,2.993,2.54,9.035,11.379,9.035,11.379s-8.123,11.013-12.139,12.931c-.061.027-.119.057-.18.082a85.956,85.956,0,0,0-1.06,9.364Z" transform="translate(-146.858 -160.818)" fill="#fc4b52"/>
        </g>
        <g id="Grupo_116343" data-name="Grupo 116343" transform="translate(0 42.196)">
          <path id="Trazado_160922" data-name="Trazado 160922" d="M168.439,164.871s-9.475,1.054-13.636,4.391-22.162,25.764-23.923,31.885,22.634,20.5,22.634,20.5l1.786-4.423s-11.654-14.059-10.59-16.071S177.537,176.435,168.439,164.871Z" transform="translate(-130.789 -164.871)" fill="#ffb27d"/>
        </g>
        <g id="Grupo_116344" data-name="Grupo 116344" transform="translate(13.467 36.171)">
          <path id="Trazado_160923" data-name="Trazado 160923" d="M169.634,160.888s-11.589,1.467-17.41,6.147c-2.682,2.157-12.532,14.079-12.532,14.079s2.585,10.882,16.224,12.247c13.882,1.392,13.29-21.453,13.29-21.453Z" transform="translate(-139.692 -160.888)" fill="#fc4b52"/>
        </g>
        <g id="Grupo_116345" data-name="Grupo 116345" transform="translate(40.567 21.088)">
          <path id="Trazado_160924" data-name="Trazado 160924" d="M157.827,166.521a1.738,1.738,0,0,0,.2,1.972c1.389,1.635,5.054,4.3,13.572,2.661,2.918-.561,3.34-2.771,1.218-4.721-.516-.475-.726-3.552-.824-4.786a38.562,38.562,0,0,0-.467-4.435L164.965,154l-6.224-3.084C160.751,159.7,158.84,164.668,157.827,166.521Z" transform="translate(-157.609 -150.916)" fill="#ffb27d"/>
        </g>
        <g id="Grupo_116346" data-name="Grupo 116346" transform="translate(43.06 24.172)">
          <path id="Trazado_160925" data-name="Trazado 160925" d="M159.257,155.9a19.9,19.9,0,0,0,11.889,4.7,38.559,38.559,0,0,0-.467-4.435l-6.559-3.213Z" transform="translate(-159.257 -152.955)" fill="#ed985f"/>
        </g>
        <g id="Grupo_116347" data-name="Grupo 116347" transform="translate(36.94 4.827)">
          <path id="Trazado_160926" data-name="Trazado 160926" d="M175.409,162.437s-13.748,5.02-16.738-3.45-6.781-13.526,1.871-17.089,11.506-.929,13.2,1.656S178.909,160.914,175.409,162.437Z" transform="translate(-155.211 -140.166)" fill="#ffb27d"/>
        </g>
        <g id="Grupo_116348" data-name="Grupo 116348" transform="translate(30.827)">
          <path id="Trazado_160927" data-name="Trazado 160927" d="M152.314,144.411c-.157-.124-.476-.186-1.145-.1a2.727,2.727,0,0,1,1.169-.582c-.036-.947.142-2.667,1.65-3.362a2.018,2.018,0,0,0-.69,1.612c1.475-2.231,4.984-5.692,16.059-4.889,13.529.98,10.835,6.649,8.38,8.49-1.753,1.314-5.226.1-8.631,1.036s-3.111,6.052-4.154,6.961-.812-.392-2.535-.806-1.375,2.242-.591,3.865-.967,4.291-.967,4.291l-2.655-1.954c-2.655-1.953-6.643-11.608-6.049-13.942C152.21,144.829,152.26,144.62,152.314,144.411Z" transform="translate(-151.169 -136.975)" fill="#2c3a64"/>
        </g>
        <g id="Grupo_116349" data-name="Grupo 116349" transform="translate(52.227 21.091)">
          <path id="Trazado_160928" data-name="Trazado 160928" d="M170.77,150.963a2.922,2.922,0,0,1-2.172,2.225,3.959,3.959,0,0,1-3.281-.747S168.253,150.609,170.77,150.963Z" transform="translate(-165.317 -150.918)" fill="#fff"/>
        </g>
        <g id="Grupo_116350" data-name="Grupo 116350" transform="translate(104.385 88.877)">
          <path id="Trazado_160929" data-name="Trazado 160929" d="M204.879,195.774s-6.056,3.142-4.943,5.707,5.131,1.786,6.247,0S206.168,195.261,204.879,195.774Z" transform="translate(-199.8 -195.733)" fill="#ffb27d"/>
        </g>
        <g id="Grupo_116351" data-name="Grupo 116351" transform="translate(22.725 93.245)">
          <path id="Trazado_160930" data-name="Trazado 160930" d="M147.6,199.923s5.689-2.211,7.808-.871,4.681,6.917,3.009,7.139-5.548-2.458-6.468-1.844-3.738,3.4-6.135,0Z" transform="translate(-145.813 -198.621)" fill="#ffb27d"/>
        </g>
        <g id="Grupo_116352" data-name="Grupo 116352" transform="translate(28.428 36.405)">
          <path id="Trazado_160931" data-name="Trazado 160931" d="M153.549,162.543s11.007,21.5-3.827,33.876l-.139,5.857s9.029-4.712,12.131-14.831c3.768-12.3-2.142-26.4-2.142-26.4Z" transform="translate(-149.583 -161.043)" fill="#233862"/>
        </g>
        <g id="Grupo_116353" data-name="Grupo 116353" transform="translate(58.129 36.988)">
          <path id="Trazado_160932" data-name="Trazado 160932" d="M178.6,200.8l0,.014c-1.245-12.381-8.174-35.458-9.374-39.389,1.305.268,2.617.588,3.9.961,3.961,9.873,6.047,18.028,6.663,27.491.033.5.05.994.056,1.478A35.027,35.027,0,0,1,178.6,200.8Z" transform="translate(-169.219 -161.428)" fill="#233862"/>
        </g>
      </g>
      <g id="Grupo_116355" data-name="Grupo 116355" transform="translate(-5745.986 -5857.223)">
        <path id="Trazado_160933" data-name="Trazado 160933" d="M95.638,290.16H80.02c-.837-.711.58-2.322,2.06-2.432a9.176,9.176,0,0,1,2.383.282c.215-2.855,1.443-15.686,6.068-15.172,5.2.578,0,5.652-1.47,8.656a71.634,71.634,0,0,0-2.764,6.922c.423.092.86.182,1.307.264.689-2.117,3.254-9.236,6.516-8.822,3.829.486,2.29,3.34-.424,5.035-1.991,1.246-4.437,3.017-5.6,3.872a16.5,16.5,0,0,0,3.054.244C93.826,288.946,95.132,289.735,95.638,290.16Z" transform="translate(-79.77 -272.824)" fill="#fff"/>
      </g>
      <g id="Grupo_116356" data-name="Grupo 116356" transform="translate(-5689.906 -5855.914)">
        <path id="Trazado_160934" data-name="Trazado 160934" d="M139.686,288.992c-.814-1.28-3.264-4.6-6.529-4.161-3.557.479,3.928,2.824,6.22,4.171a3.84,3.84,0,0,1-1.268-.148c-1.533-.546-4.156.5-5,.869H147.7a2.305,2.305,0,0,0-1.043-1.334,2.6,2.6,0,0,0-1.342-.12c.868-1.022,1.469-4.288-.944-3.447-1.764.613-1.76,2.609-1.587,3.789-.374.06-.755.119-1.131.173-.726-3.7-3.294-14.547-8.5-14.837-5.277-.292,4.475,11.249,7.722,14.94C140.459,288.937,140.057,288.975,139.686,288.992Z" transform="translate(-131.616 -273.941)" fill="#a7e446"/>
      </g>
      <g id="Grupo_116398" data-name="Grupo 116398" transform="translate(-5537.265 -5877.586)">
        <g id="Grupo_116357" data-name="Grupo 116357" transform="translate(12.241 16.989)">
          <path id="Trazado_160935" data-name="Trazado 160935" d="M288.287,279.754c1.248.505,5.711.1,5.857-.261s-2.776-3.757-4.024-4.264a2.441,2.441,0,1,0-1.833,4.525Z" transform="translate(-286.762 -275.05)" fill="#a7e446"/>
        </g>
        <g id="Grupo_116358" data-name="Grupo 116358" transform="translate(24.206 22.651)">
          <path id="Trazado_160936" data-name="Trazado 160936" d="M294.971,279.718c-.7,1.151-1.019,5.622-.69,5.823s4.157-2.131,4.858-3.282a2.441,2.441,0,1,0-4.168-2.541Z" transform="translate(-294.151 -278.547)" fill="#a7e446"/>
        </g>
        <g id="Grupo_116359" data-name="Grupo 116359" transform="translate(17.311 27.806)">
          <path id="Trazado_160937" data-name="Trazado 160937" d="M291.592,286.5c1.284.41,5.7-.338,5.82-.7s-3.053-3.535-4.337-3.945a2.44,2.44,0,1,0-1.483,4.649Z" transform="translate(-289.893 -281.73)" fill="#a7e446"/>
        </g>
        <g id="Grupo_116361" data-name="Grupo 116361" transform="translate(19.471 21.33)">
          <g id="Grupo_116360" data-name="Grupo 116360">
            <path id="Trazado_160938" data-name="Trazado 160938" d="M297.266,293.3c0-.1-.5-10.22-6.039-15.444l.118-.125c5.592,5.273,6.089,15.46,6.092,15.562Z" transform="translate(-291.227 -277.731)" fill="#82b378"/>
          </g>
        </g>
        <g id="Grupo_116362" data-name="Grupo 116362" transform="translate(39.982 18.81)">
          <path id="Trazado_160939" data-name="Trazado 160939" d="M307.916,279.276a8.7,8.7,0,0,1-4.013.633,8.686,8.686,0,0,1,2.141-3.452,1.692,1.692,0,0,1,1.872,2.819Z" transform="translate(-303.893 -276.175)" fill="#a7e446"/>
        </g>
        <g id="Grupo_116363" data-name="Grupo 116363" transform="translate(33.724 24.375)">
          <path id="Trazado_160940" data-name="Trazado 160940" d="M302.959,280.152a8.7,8.7,0,0,1,1.274,3.857,8.675,8.675,0,0,1-3.754-1.556,1.691,1.691,0,0,1,2.479-2.3Z" transform="translate(-300.029 -279.611)" fill="#a7e446"/>
        </g>
        <g id="Grupo_116364" data-name="Grupo 116364" transform="translate(37.893 26.856)">
          <path id="Trazado_160941" data-name="Trazado 160941" d="M306.66,284.31a8.664,8.664,0,0,1-4.05.327,8.7,8.7,0,0,1,2.4-3.279,1.691,1.691,0,0,1,1.652,2.952Z" transform="translate(-302.603 -281.143)" fill="#a7e446"/>
        </g>
        <g id="Grupo_116366" data-name="Grupo 116366" transform="translate(37.827 22.47)">
          <g id="Grupo_116365" data-name="Grupo 116365">
            <path id="Trazado_160942" data-name="Trazado 160942" d="M302.87,289.826c-.011-.07-1.075-7.009,1.963-11.323l-.1-.068c-3.067,4.353-1.993,11.339-1.982,11.409Z" transform="translate(-302.562 -278.435)" fill="#82b378"/>
          </g>
        </g>
        <g id="Grupo_116368" data-name="Grupo 116368" transform="translate(25.347 5.086)">
          <g id="Grupo_116367" data-name="Grupo 116367">
            <path id="Trazado_160943" data-name="Trazado 160943" d="M302.158,298.923l-.353-.057a107.523,107.523,0,0,0-6.95-31.027l.321-.139A107.938,107.938,0,0,1,302.158,298.923Z" transform="translate(-294.855 -267.7)" fill="#82b378"/>
          </g>
        </g>
        <g id="Grupo_116375" data-name="Grupo 116375" transform="translate(20.123)">
          <g id="Grupo_116369" data-name="Grupo 116369" transform="translate(1.038 0.341)">
            <path id="Trazado_160944" data-name="Trazado 160944" d="M292.734,267.845c.675.766,3.844,2,4.063,1.806s-.612-3.488-1.289-4.254a1.85,1.85,0,1,0-2.774,2.448Z" transform="translate(-292.271 -264.77)" fill="#a7e446"/>
          </g>
          <g id="Grupo_116370" data-name="Grupo 116370" transform="translate(5.37)">
            <path id="Trazado_160945" data-name="Trazado 160945" d="M295.931,265.3c-.61.821-1.164,4.173-.931,4.348s3.289-1.315,3.9-2.134a1.851,1.851,0,1,0-2.968-2.214Z" transform="translate(-294.945 -264.559)" fill="#a7e446"/>
          </g>
          <g id="Grupo_116371" data-name="Grupo 116371" transform="translate(5.61 4.251)">
            <path id="Trazado_160946" data-name="Trazado 160946" d="M299.482,267.244c-.986-.269-4.309.442-4.387.724s2.427,2.58,3.414,2.848a1.851,1.851,0,0,0,.973-3.572Z" transform="translate(-295.094 -267.184)" fill="#a7e446"/>
          </g>
          <g id="Grupo_116372" data-name="Grupo 116372" transform="translate(4.063 4.911)">
            <path id="Trazado_160947" data-name="Trazado 160947" d="M297.83,271.438c-.1-1.019-1.942-3.875-2.232-3.846s-1.553,3.184-1.454,4.2a1.851,1.851,0,0,0,3.686-.356Z" transform="translate(-294.139 -267.592)" fill="#a7e446"/>
          </g>
          <g id="Grupo_116373" data-name="Grupo 116373" transform="translate(0 4.856)">
            <path id="Trazado_160948" data-name="Trazado 160948" d="M294.341,271.24c.905-.476,2.855-3.26,2.719-3.519s-3.535-.235-4.44.241a1.851,1.851,0,0,0,1.721,3.278Z" transform="translate(-291.629 -267.558)" fill="#a7e446"/>
          </g>
          <g id="Grupo_116374" data-name="Grupo 116374" transform="translate(4.821 4.41)">
            <path id="Trazado_160949" data-name="Trazado 160949" d="M294.614,267.8a.61.61,0,1,1,.507.7A.612.612,0,0,1,294.614,267.8Z" transform="translate(-294.606 -267.282)" fill="#a7e446"/>
          </g>
        </g>
        <g id="Grupo_116376" data-name="Grupo 116376" transform="translate(30.742 16.878)">
          <path id="Trazado_160950" data-name="Trazado 160950" d="M299.993,276.048c-1.006,1.236-2.091,6.426-1.738,6.712s5.211-1.833,6.217-3.07a2.886,2.886,0,0,0-4.479-3.642Z" transform="translate(-298.187 -274.982)" fill="#a7e446"/>
        </g>
        <g id="Grupo_116378" data-name="Grupo 116378" transform="translate(5.067 18.041)">
          <g id="Grupo_116377" data-name="Grupo 116377">
            <path id="Trazado_160951" data-name="Trazado 160951" d="M289.907,295.8l-.24,0a71.961,71.961,0,0,0-7.336-19.98l.2-.12A72.146,72.146,0,0,1,289.907,295.8Z" transform="translate(-282.332 -275.7)" fill="#82b378"/>
          </g>
        </g>
        <g id="Grupo_116385" data-name="Grupo 116385" transform="translate(1.738 14.454)">
          <g id="Grupo_116379" data-name="Grupo 116379" transform="translate(0.276 0.661)">
            <path id="Trazado_160952" data-name="Trazado 160952" d="M280.873,276.066a6.337,6.337,0,0,0,2.853.842A6.349,6.349,0,0,0,282.5,274.2a1.238,1.238,0,0,0-1.626,1.869Z" transform="translate(-280.447 -273.893)" fill="#a7e446"/>
          </g>
          <g id="Grupo_116380" data-name="Grupo 116380" transform="translate(3.363)">
            <path id="Trazado_160953" data-name="Trazado 160953" d="M282.678,274.12a6.386,6.386,0,0,0-.238,2.967,6.344,6.344,0,0,0,2.4-1.759,1.239,1.239,0,0,0-2.164-1.208Z" transform="translate(-282.353 -273.485)" fill="#a7e446"/>
          </g>
          <g id="Grupo_116381" data-name="Grupo 116381" transform="translate(3.571 2.674)">
            <path id="Trazado_160954" data-name="Trazado 160954" d="M285.329,275.144a6.353,6.353,0,0,0-2.847.865A6.355,6.355,0,0,0,285,277.6a1.239,1.239,0,0,0,.332-2.455Z" transform="translate(-282.482 -275.136)" fill="#fff"/>
          </g>
          <g id="Grupo_116382" data-name="Grupo 116382" transform="translate(2.878 3.472)">
            <path id="Trazado_160955" data-name="Trazado 160955" d="M284.495,277.985a6.369,6.369,0,0,0-1.819-2.356,6.384,6.384,0,0,0-.6,2.917,1.239,1.239,0,0,0,2.414-.56Z" transform="translate(-282.054 -275.628)" fill="#a7e446"/>
          </g>
          <g id="Grupo_116383" data-name="Grupo 116383" transform="translate(0 3.511)">
            <path id="Trazado_160956" data-name="Trazado 160956" d="M282.23,278.268a6.346,6.346,0,0,0,1.495-2.573,6.383,6.383,0,0,0-2.925.549,1.239,1.239,0,0,0,1.43,2.024Z" transform="translate(-280.276 -275.653)" fill="#a7e446"/>
          </g>
          <g id="Grupo_116384" data-name="Grupo 116384" transform="translate(3.042 3.145)">
            <path id="Trazado_160957" data-name="Trazado 160957" d="M282.155,275.824a.407.407,0,1,1,.4.419A.408.408,0,0,1,282.155,275.824Z" transform="translate(-282.155 -275.427)" fill="#163560"/>
          </g>
        </g>
        <g id="Grupo_116386" data-name="Grupo 116386" transform="translate(10.3 25.048)">
          <path id="Trazado_160958" data-name="Trazado 160958" d="M286.227,280.948c-.559.908-.823,4.447-.563,4.606s3.3-1.673,3.856-2.583a1.932,1.932,0,0,0-3.292-2.023Z" transform="translate(-285.563 -280.027)" fill="#a7e446"/>
        </g>
        <g id="Grupo_116388" data-name="Grupo 116388" transform="translate(50.75 8.78)">
          <g id="Grupo_116387" data-name="Grupo 116387">
            <path id="Trazado_160959" data-name="Trazado 160959" d="M310.542,297.789l.314-.05a95.749,95.749,0,0,1,6.191-27.635l-.287-.123A96.077,96.077,0,0,0,310.542,297.789Z" transform="translate(-310.542 -269.981)" fill="#82b378"/>
          </g>
        </g>
        <g id="Grupo_116395" data-name="Grupo 116395" transform="translate(51.786 4.25)">
          <g id="Grupo_116389" data-name="Grupo 116389" transform="translate(5.133 0.303)">
            <path id="Trazado_160960" data-name="Trazado 160960" d="M318,270.111a8.45,8.45,0,0,1-3.618,1.608,8.459,8.459,0,0,1,1.147-3.789A1.648,1.648,0,1,1,318,270.111Z" transform="translate(-314.351 -267.371)" fill="#a7e446"/>
          </g>
          <g id="Grupo_116390" data-name="Grupo 116390" transform="translate(1.49)">
            <path id="Trazado_160961" data-name="Trazado 160961" d="M315.072,267.848a8.446,8.446,0,0,1,.829,3.872,8.461,8.461,0,0,1-3.472-1.9,1.648,1.648,0,1,1,2.643-1.971Z" transform="translate(-312.102 -267.184)" fill="#a7e446"/>
          </g>
          <g id="Grupo_116391" data-name="Grupo 116391" transform="translate(0 3.786)">
            <path id="Trazado_160962" data-name="Trazado 160962" d="M312.4,269.575a8.458,8.458,0,0,1,3.908.643,8.47,8.47,0,0,1-3.041,2.538,1.648,1.648,0,0,1-.866-3.18Z" transform="translate(-311.182 -269.522)" fill="#a7e446"/>
          </g>
          <g id="Grupo_116392" data-name="Grupo 116392" transform="translate(3.207 4.374)">
            <path id="Trazado_160963" data-name="Trazado 160963" d="M313.17,273.31a8.44,8.44,0,0,1,1.987-3.425,8.447,8.447,0,0,1,1.294,3.742,1.648,1.648,0,0,1-3.281-.317Z" transform="translate(-313.162 -269.885)" fill="#a7e446"/>
          </g>
          <g id="Grupo_116393" data-name="Grupo 116393" transform="translate(5.278 4.325)">
            <path id="Trazado_160964" data-name="Trazado 160964" d="M316.868,273.133A8.436,8.436,0,0,1,314.447,270a8.46,8.46,0,0,1,3.953.214,1.648,1.648,0,1,1-1.532,2.918Z" transform="translate(-314.441 -269.855)" fill="#a7e446"/>
          </g>
          <g id="Grupo_116394" data-name="Grupo 116394" transform="translate(4.741 3.928)">
            <path id="Trazado_160965" data-name="Trazado 160965" d="M315.189,270.067a.543.543,0,1,0-.452.622A.543.543,0,0,0,315.189,270.067Z" transform="translate(-314.11 -269.61)" fill="#163560"/>
          </g>
        </g>
        <g id="Grupo_116396" data-name="Grupo 116396" transform="translate(45.456 23.565)">
          <path id="Trazado_160966" data-name="Trazado 160966" d="M311.838,280.061c.9,1.1,1.862,5.721,1.548,5.977s-4.641-1.632-5.537-2.735a2.57,2.57,0,1,1,3.989-3.242Z" transform="translate(-307.273 -279.111)" fill="#a7e446"/>
        </g>
        <g id="Grupo_116397" data-name="Grupo 116397" transform="translate(0 32.217)">
          <path id="Trazado_160967" data-name="Trazado 160967" d="M279.2,291.62s1.775-4.665,8.217-4.959,10.881,3.516,16.2,1.757,14.134-5.724,22.469-3.082,9.741,6.283,9.741,6.283Z" transform="translate(-279.203 -284.454)" fill="#a7e446"/>
        </g>
      </g>
      <g id="Grupo_116410" data-name="Grupo 116410" transform="translate(-5675.142 -5864.927)">
        <g id="Grupo_116400" data-name="Grupo 116400" transform="translate(3.601 3.507)">
          <g id="Grupo_116399" data-name="Grupo 116399">
            <path id="Trazado_160968" data-name="Trazado 160968" d="M153.632,290.383l-.243-.038a74.122,74.122,0,0,0-4.794-21.4l.222-.1A74.437,74.437,0,0,1,153.632,290.383Z" transform="translate(-148.595 -268.85)" fill="#82b378"/>
          </g>
        </g>
        <g id="Grupo_116407" data-name="Grupo 116407">
          <g id="Grupo_116401" data-name="Grupo 116401" transform="translate(0.716 0.235)">
            <path id="Trazado_160969" data-name="Trazado 160969" d="M146.247,267.946a6.542,6.542,0,0,0,2.8,1.246,6.564,6.564,0,0,0-.888-2.936,1.276,1.276,0,0,0-1.913,1.69Z" transform="translate(-145.927 -265.825)" fill="#fff"/>
          </g>
          <g id="Grupo_116402" data-name="Grupo 116402" transform="translate(3.702)">
            <path id="Trazado_160970" data-name="Trazado 160970" d="M149.368,266.122a6.555,6.555,0,0,0-.643,3,6.545,6.545,0,0,0,2.689-1.473,1.276,1.276,0,1,0-2.047-1.525Z" transform="translate(-148.688 -265.608)" fill="#fff"/>
          </g>
          <g id="Grupo_116403" data-name="Grupo 116403" transform="translate(3.87 2.932)">
            <path id="Trazado_160971" data-name="Trazado 160971" d="M151.868,268.359a6.556,6.556,0,0,0-3.024.5,6.544,6.544,0,0,0,2.354,1.964,1.276,1.276,0,0,0,.671-2.463Z" transform="translate(-148.843 -268.318)" fill="#fff"/>
          </g>
          <g id="Grupo_116404" data-name="Grupo 116404" transform="translate(2.802 3.387)">
            <path id="Trazado_160972" data-name="Trazado 160972" d="M150.4,271.391a6.551,6.551,0,0,0-1.539-2.652,6.559,6.559,0,0,0-1,2.9,1.277,1.277,0,0,0,2.542-.246Z" transform="translate(-147.856 -268.739)" fill="#fff"/>
          </g>
          <g id="Grupo_116405" data-name="Grupo 116405" transform="translate(0 3.349)">
            <path id="Trazado_160973" data-name="Trazado 160973" d="M147.135,271.243a6.556,6.556,0,0,0,1.876-2.426,6.573,6.573,0,0,0-3.062.165,1.277,1.277,0,0,0,1.187,2.261Z" transform="translate(-145.265 -268.704)" fill="#fff"/>
          </g>
          <g id="Grupo_116406" data-name="Grupo 116406" transform="translate(3.325 3.041)">
            <path id="Trazado_160974" data-name="Trazado 160974" d="M148.344,268.774a.42.42,0,1,1,.348.481A.421.421,0,0,1,148.344,268.774Z" transform="translate(-148.339 -268.419)" fill="#f78248"/>
          </g>
        </g>
        <g id="Grupo_116408" data-name="Grupo 116408" transform="translate(6.248 6.304)">
          <path id="Trazado_160975" data-name="Trazado 160975" d="M152.287,272.17c-.693.852-1.442,4.431-1.2,4.63s3.593-1.264,4.288-2.118a1.991,1.991,0,0,0-3.089-2.512Z" transform="translate(-151.042 -271.436)" fill="#a7e446"/>
        </g>
        <g id="Grupo_116409" data-name="Grupo 116409" transform="translate(3.701 17.169)">
          <path id="Trazado_160976" data-name="Trazado 160976" d="M150.774,281.627a7.457,7.457,0,0,1,2.213,2.693,7.446,7.446,0,0,1-3.485-.085,1.451,1.451,0,0,1,1.272-2.608Z" transform="translate(-148.687 -281.48)" fill="#a7e446"/>
        </g>
      </g>
      <g id="Grupo_116422" data-name="Grupo 116422" transform="translate(-5663.541 -5867.964)">
        <g id="Grupo_116412" data-name="Grupo 116412" transform="translate(3.979 4.027)">
          <g id="Grupo_116411" data-name="Grupo 116411">
            <path id="Trazado_160977" data-name="Trazado 160977" d="M159.669,290.624l.279-.044a85.126,85.126,0,0,1,5.5-24.568l-.254-.109A85.383,85.383,0,0,0,159.669,290.624Z" transform="translate(-159.669 -265.902)" fill="#82b378"/>
          </g>
        </g>
        <g id="Grupo_116419" data-name="Grupo 116419" transform="translate(4.899)">
          <g id="Grupo_116413" data-name="Grupo 116413" transform="translate(4.564 0.271)">
            <path id="Trazado_160978" data-name="Trazado 160978" d="M167.984,264.864a7.523,7.523,0,0,1-3.217,1.43,7.536,7.536,0,0,1,1.019-3.369,1.466,1.466,0,0,1,2.2,1.939Z" transform="translate(-164.739 -262.429)" fill="#fff"/>
          </g>
          <g id="Grupo_116414" data-name="Grupo 116414" transform="translate(1.325)">
            <path id="Trazado_160979" data-name="Trazado 160979" d="M164.385,262.769a7.526,7.526,0,0,1,.738,3.443,7.525,7.525,0,0,1-3.088-1.692,1.466,1.466,0,0,1,2.35-1.751Z" transform="translate(-161.745 -262.179)" fill="#fff"/>
          </g>
          <g id="Grupo_116415" data-name="Grupo 116415" transform="translate(0 3.366)">
            <path id="Trazado_160980" data-name="Trazado 160980" d="M161.6,265.338a7.528,7.528,0,0,1,3.473.572,7.513,7.513,0,0,1-2.7,2.255,1.465,1.465,0,1,1-.77-2.827Z" transform="translate(-160.52 -265.291)" fill="#fff"/>
          </g>
          <g id="Grupo_116416" data-name="Grupo 116416" transform="translate(2.851 3.888)">
            <path id="Trazado_160981" data-name="Trazado 160981" d="M163.163,268.818a7.523,7.523,0,0,1,1.767-3.045,7.535,7.535,0,0,1,1.15,3.327,1.465,1.465,0,0,1-2.917-.282Z" transform="translate(-163.156 -265.773)" fill="#fff"/>
          </g>
          <g id="Grupo_116417" data-name="Grupo 116417" transform="translate(4.693 3.845)">
            <path id="Trazado_160982" data-name="Trazado 160982" d="M167.016,268.648a7.528,7.528,0,0,1-2.152-2.785,7.533,7.533,0,0,1,3.515.19,1.466,1.466,0,0,1-1.363,2.595Z" transform="translate(-164.858 -265.733)" fill="#fff"/>
          </g>
          <g id="Grupo_116418" data-name="Grupo 116418" transform="translate(4.215 3.492)">
            <path id="Trazado_160983" data-name="Trazado 160983" d="M165.376,265.814a.483.483,0,1,0-.4.553A.483.483,0,0,0,165.376,265.814Z" transform="translate(-164.416 -265.407)" fill="#f78248"/>
          </g>
        </g>
        <g id="Grupo_116420" data-name="Grupo 116420" transform="translate(0 13.364)">
          <path id="Trazado_160984" data-name="Trazado 160984" d="M160.049,275.378c.8.979,1.656,5.087,1.376,5.314s-4.127-1.452-4.923-2.431a2.286,2.286,0,1,1,3.547-2.884Z" transform="translate(-155.99 -274.533)" fill="#a7e446"/>
        </g>
        <g id="Grupo_116421" data-name="Grupo 116421" transform="translate(4.706 19.711)">
          <path id="Trazado_160985" data-name="Trazado 160985" d="M162.886,280.571a8.55,8.55,0,0,0-2.54,3.092,8.559,8.559,0,0,0,4-.1,1.666,1.666,0,1,0-1.46-3Z" transform="translate(-160.341 -280.402)" fill="#a7e446"/>
        </g>
      </g>
    </g>
  </g>
</svg>
