<svg xmlns="http://www.w3.org/2000/svg" width="1240.5" height="413.444" viewBox="0 0 1240.5 413.444">
  <g id="Grupo_117454" data-name="Grupo 117454" transform="translate(-179.5 -512)">
    <g id="Grupo_117371" data-name="Grupo 117371" transform="translate(144.851 277.229)">
      <path id="Trazado_162355" data-name="Trazado 162355" d="M719.937,259.2v34.863h-497.7V320.21" transform="translate(-12.158 -1.587)" fill="none" stroke="#12263f" stroke-width="2"/>
      <line id="Línea_329" data-name="Línea 329" y2="26.18" transform="translate(581.552 293.41)" fill="none" stroke="#12263f" stroke-width="2"/>
      <line id="Línea_330" data-name="Línea 330" y2="25.245" transform="translate(950.883 294.345)" fill="none" stroke="#12263f" stroke-width="2"/>
      <path id="Trazado_162356" data-name="Trazado 162356" d="M754.528,296.486l488.078,1.87V323.6" transform="translate(-46.749 -4.01)" fill="none" stroke="#12263f" stroke-width="2"/>
      <path id="Trazado_162357" data-name="Trazado 162357" d="M218.264,361.486v33.661H142.528V529.788h67.321v25.245h25.245V529.788H294V395.146H226.679V361.486" transform="translate(-6.978 -8.235)" fill="none" stroke="#12263f" stroke-width="2"/>
      <line id="Línea_331" data-name="Línea 331" x1="89.561" y2="19.769" transform="translate(121.725 563.63)" fill="none" stroke="#12263f" stroke-width="2"/>
      <line id="Línea_332" data-name="Línea 332" x1="85.955" y1="16.763" transform="translate(211.286 563.63)" fill="none" stroke="#12263f" stroke-width="2"/>
      <line id="Línea_333" data-name="Línea 333" y2="25.245" transform="translate(211.286 555.214)" fill="none" stroke="#12263f" stroke-width="2"/>
      <path id="Trazado_162358" data-name="Trazado 162358" d="M612.6,363.664v27.95h-113.6v164.1" transform="translate(-30.143 -8.376)" fill="none" stroke="#12263f" stroke-width="2"/>
      <path id="Trazado_162359" data-name="Trazado 162359" d="M707.047,433.372V393.7H620.492" transform="translate(-38.039 -10.328)" fill="none" stroke="#12263f" stroke-width="2"/>
      <path id="Trazado_162360" data-name="Trazado 162360" d="M711.483,452.379v15.328H660.992V593.933l26.147,26.147" transform="translate(-40.67 -14.141)" fill="none" stroke="#12263f" stroke-width="2"/>
      <path id="Trazado_162361" data-name="Trazado 162361" d="M723.67,456.236v10.819H806.62V597.79l-36.967,22.541" transform="translate(-44.744 -14.392)" fill="none" stroke="#12263f" stroke-width="2"/>
      <path id="Trazado_162362" data-name="Trazado 162362" d="M1010.634,364.629v99.178H959.242v4.508" transform="translate(-60.052 -8.439)" fill="none" stroke="#12263f" stroke-width="2"/>
      <path id="Trazado_162363" data-name="Trazado 162363" d="M1009.813,470.7h98.177v7.614" transform="translate(-63.338 -15.332)" fill="none" stroke="#12263f" stroke-width="2"/>
      <line id="Línea_334" data-name="Línea 334" y2="103.987" transform="translate(1195.255 356.19)" fill="none" stroke="#12263f" stroke-width="2"/>
      <path id="Polígono_26" data-name="Polígono 26" d="M959.25,483.009l-4.119-8.094,7.888-.169Z" transform="translate(-59.785 -15.595)" fill="#12263f"/>
      <path id="Polígono_26-2" data-name="Polígono 26" d="M1114.608,483.009l-4.12-8.094,7.888-.169Z" transform="translate(-69.881 -15.595)" fill="#12263f"/>
      <path id="Polígono_26-3" data-name="Polígono 26" d="M1275.75,483.009l-4.119-8.094,7.888-.169Z" transform="translate(-80.353 -15.595)" fill="#12263f"/>
      <path id="Polígono_26-4" data-name="Polígono 26" d="M1276.392,331.081l-4.119-8.1,7.888-.168Z" transform="translate(-80.394 -5.722)" fill="#12263f"/>
      <path id="Polígono_26-5" data-name="Polígono 26" d="M1014.108,332.367l-4.12-8.1,7.888-.169Z" transform="translate(-63.35 -5.805)" fill="#12263f"/>
      <path id="Polígono_26-6" data-name="Polígono 26" d="M619.349,333.036l-4.12-8.094,7.888-.169Z" transform="translate(-37.696 -5.849)" fill="#12263f"/>
      <path id="Polígono_26-7" data-name="Polígono 26" d="M222.545,331.751l-4.119-8.1,7.887-.169Z" transform="translate(-11.91 -5.765)" fill="#12263f"/>
      <g id="Grupo_117343" data-name="Grupo 117343" transform="translate(634.083 234.771)">
        <rect id="Rectángulo_41094" data-name="Rectángulo 41094" width="156.281" height="31.256" rx="6" fill="#feca2e"/>
        <text id="Productos_turísticos" data-name="Productos turísticos" transform="translate(73.081 18.079)" font-size="12" font-family="Roboto-Bold, Roboto" font-weight="700"><tspan x="-54.65" y="0">Productos turísticos</tspan></text>
      </g>
      <g id="Grupo_117344" data-name="Grupo 117344" transform="translate(136.923 331.209)">
        <rect id="Rectángulo_41095" data-name="Rectángulo 41095" width="156.281" height="31.256" rx="6" fill="#a7e446"/>
        <text id="Servicios_de_viaje" data-name="Servicios de viaje" transform="translate(67.455 17.419)" font-size="9" font-family="Roboto-Regular, Roboto"><tspan x="-34.55" y="0">Servicios de viaje</tspan></text>
      </g>
      <g id="Grupo_117345" data-name="Grupo 117345" transform="translate(504.196 331.209)">
        <rect id="Rectángulo_41096" data-name="Rectángulo 41096" width="156.281" height="31.256" rx="6" fill="#a7e446"/>
        <text id="Atractivo_turístico" data-name="Atractivo turístico" transform="translate(69.41 17.684)" font-size="9" font-family="Roboto-Regular, Roboto"><tspan x="-35.385" y="0">Atractivo turístico</tspan></text>
      </g>
      <g id="Grupo_117346" data-name="Grupo 117346" transform="translate(418.291 412.992)">
        <rect id="Rectángulo_41097" data-name="Rectángulo 41097" width="122.621" height="32.458" rx="6" fill="#fff" stroke="#a7e446" stroke-miterlimit="10" stroke-width="1"/>
        <text id="Recurso_natural" data-name="Recurso natural" transform="translate(53.077 19.16)" font-size="9" font-family="Roboto-Regular, Roboto"><tspan x="-31.37" y="0">Recurso natural</tspan></text>
      </g>
      <g id="Grupo_117347" data-name="Grupo 117347" transform="translate(418.291 559.155)">
        <rect id="Rectángulo_41098" data-name="Rectángulo 41098" width="122.621" height="32.458" rx="6" fill="#dff7f9"/>
        <text id="Patrimonio_natural" data-name="Patrimonio natural" transform="translate(50.523 19.285)" font-size="9" font-family="Roboto-Regular, Roboto"><tspan x="-36.969" y="0">Patrimonio natural</tspan></text>
      </g>
      <g id="Grupo_117348" data-name="Grupo 117348" transform="translate(608.867 615.757)">
        <rect id="Rectángulo_41099" data-name="Rectángulo 41099" width="122.621" height="32.458" rx="6" fill="#dff7f9"/>
        <text id="Patrimonio_cultural" data-name="Patrimonio cultural" transform="translate(51.662 19.16)" font-size="9" font-family="Roboto-Regular, Roboto"><tspan x="-37.967" y="0">Patrimonio cultural</tspan></text>
      </g>
      <g id="Grupo_117349" data-name="Grupo 117349" transform="translate(417.184 471.898)">
        <rect id="Rectángulo_41100" data-name="Rectángulo 41100" width="122.621" height="70.794" rx="6" fill="#fff" stroke="#a7e446" stroke-miterlimit="10" stroke-width="1"/>
        <text id="Playas_Paisajes_Ríos_Termales" data-name="Playas
Paisajes 
Ríos 
Termales" transform="translate(59.113 19.131)" font-size="10" font-family="Roboto-Regular, Roboto"><tspan x="-14.751" y="0">Playas</tspan><tspan x="-20.017" y="12">Paisajes </tspan><tspan x="-10.981" y="24">Ríos </tspan><tspan x="-20.867" y="36">Termales</tspan></text>
      </g>
      <g id="Grupo_117350" data-name="Grupo 117350" transform="translate(608.867 412.992)">
        <rect id="Rectángulo_41101" data-name="Rectángulo 41101" width="122.621" height="32.458" rx="6" fill="#fff" stroke="#a7e446" stroke-miterlimit="10" stroke-width="1"/>
        <text id="Recurso_cultural" data-name="Recurso cultural" transform="translate(53.142 19.16)" font-size="9" font-family="Roboto-Regular, Roboto"><tspan x="-32.368" y="0">Recurso cultural</tspan></text>
      </g>
      <g id="Grupo_117351" data-name="Grupo 117351" transform="translate(875.631 331.209)">
        <rect id="Rectángulo_41102" data-name="Rectángulo 41102" width="156.281" height="31.256" rx="6" fill="#a7e446"/>
        <text id="TIC" transform="translate(76.859 18.331)" font-size="9" font-family="Roboto-Regular, Roboto"><tspan x="-6.838" y="0">TIC</tspan></text>
      </g>
      <g id="Grupo_117352" data-name="Grupo 117352" transform="translate(1118.868 331.209)">
        <rect id="Rectángulo_41103" data-name="Rectángulo 41103" width="156.281" height="31.256" rx="6" fill="#a7e446"/>
        <text id="Geografía_turística_" data-name="Geografía turística
" transform="translate(73.373 18.477)" font-size="10" font-family="Roboto-Regular, Roboto"><tspan x="-41.033" y="0">Geografía turística</tspan><tspan font-family="Roboto-Regular"><tspan x="0" y="12"></tspan></tspan></text>
      </g>
      <g id="Grupo_117353" data-name="Grupo 117353" transform="translate(1126.682 412.992)">
        <rect id="Rectángulo_41104" data-name="Rectángulo 41104" width="122.621" height="32.458" rx="6" fill="#fff" stroke="#a7e446" stroke-miterlimit="10" stroke-width="1"/>
        <text id="Destino" transform="translate(57.478 19.16)" font-size="9" font-family="Roboto-Regular, Roboto"><tspan x="-15.267" y="0">Destino</tspan></text>
      </g>
      <g id="Grupo_117354" data-name="Grupo 117354" transform="translate(1131.875 471.898)">
        <rect id="Rectángulo_41105" data-name="Rectángulo 41105" width="122.621" height="87.624" rx="6" fill="#fff" stroke="#a7e446" stroke-miterlimit="10" stroke-width="1"/>
        <text id="Ubicación_Recursos_Atractivos_Servicios_Oferta_y_demanda" data-name="Ubicación 
Recursos 
Atractivos
Servicios
Oferta y demanda" transform="translate(60.07 18.94)" font-size="10" font-family="Roboto-Regular, Roboto"><tspan x="-23.276" y="0">Ubicación </tspan><tspan x="-22.039" y="12">Recursos </tspan><tspan x="-22.446" y="24">Atractivos</tspan><tspan x="-20.247" y="36">Servicios</tspan><tspan x="-39.7" y="48">Oferta y demanda</tspan></text>
      </g>
      <g id="Grupo_117355" data-name="Grupo 117355" transform="translate(564.688 471.898)">
        <rect id="Rectángulo_41106" data-name="Rectángulo 41106" width="122.621" height="32.458" rx="6" fill="#fff" stroke="#a7e446" stroke-miterlimit="10" stroke-width="1"/>
        <text id="Tangible" transform="translate(56.917 18.02)" font-size="9" font-family="Roboto-Regular, Roboto"><tspan x="-16.985" y="0">Tangible</tspan></text>
      </g>
      <g id="Grupo_117356" data-name="Grupo 117356" transform="translate(564.688 522.532)">
        <rect id="Rectángulo_41107" data-name="Rectángulo 41107" width="122.621" height="63.314" rx="6" fill="#fff" stroke="#a7e446" stroke-miterlimit="10" stroke-width="1"/>
        <text id="Esculturas_Museos_C._Histórico" data-name="Esculturas
Museos
C. Histórico" transform="translate(58.27 21.468)" font-size="10" font-family="Roboto-Regular, Roboto"><tspan x="-23.289" y="0">Esculturas</tspan><tspan x="-17.778" y="12">Museos</tspan><tspan x="-26.023" y="24">C. Histórico</tspan></text>
      </g>
      <g id="Grupo_117357" data-name="Grupo 117357" transform="translate(706.243 522.532)">
        <rect id="Rectángulo_41108" data-name="Rectángulo 41108" width="122.621" height="63.314" rx="6" fill="#fff" stroke="#a7e446" stroke-miterlimit="10" stroke-width="1"/>
        <text id="Gastronomía_Folclor_Lenguas_nativas" data-name="Gastronomía
Folclor
Lenguas nativas" transform="translate(57.115 21.468)" font-size="10" font-family="Roboto-Regular, Roboto"><tspan x="-28.779" y="0">Gastronomía</tspan><tspan x="-15.151" y="12">Folclor</tspan><tspan x="-36.204" y="24">Lenguas nativas</tspan></text>
      </g>
      <g id="Grupo_117358" data-name="Grupo 117358" transform="translate(705.074 471.898)">
        <rect id="Rectángulo_41109" data-name="Rectángulo 41109" width="122.621" height="32.458" rx="6" fill="#fff" stroke="#a7e446" stroke-miterlimit="10" stroke-width="1"/>
        <text id="Intangible" transform="translate(55.758 18.02)" font-size="9" font-family="Roboto-Regular, Roboto"><tspan x="-19.725" y="0">Intangible</tspan></text>
      </g>
      <g id="Grupo_117359" data-name="Grupo 117359" transform="translate(892.461 412.992)">
        <rect id="Rectángulo_41110" data-name="Rectángulo 41110" width="122.621" height="32.458" rx="6" fill="#fff" stroke="#a7e446" stroke-miterlimit="10" stroke-width="1"/>
        <text id="Plataformas" transform="translate(55.269 19.217)" font-size="9" font-family="Roboto-Regular, Roboto"><tspan x="-24.66" y="0">Plataformas</tspan></text>
      </g>
      <g id="Grupo_117360" data-name="Grupo 117360" transform="translate(842.238 471.898)">
        <rect id="Rectángulo_41111" data-name="Rectángulo 41111" width="122.621" height="32.458" rx="6" fill="#fff" stroke="#a7e446" stroke-miterlimit="10" stroke-width="1"/>
        <text id="Motores_de_búsqueda" data-name="Motores de búsqueda" transform="translate(49.993 18.077)" font-size="9" font-family="Roboto-Regular, Roboto"><tspan x="-43.598" y="0">Motores de búsqueda</tspan></text>
      </g>
      <g id="Grupo_117361" data-name="Grupo 117361" transform="translate(981.088 471.898)">
        <rect id="Rectángulo_41112" data-name="Rectángulo 41112" width="122.621" height="41.809" rx="6" fill="#fff" stroke="#a7e446" stroke-miterlimit="10" stroke-width="1"/>
        <text id="Sistemas_globales_de_reserva" data-name="Sistemas globales 
de reserva" transform="translate(56.986 18.103)" font-size="10" font-family="Roboto-Regular, Roboto"><tspan x="-42.031" y="0">Sistemas globales </tspan><tspan x="-23.115" y="12">de reserva</tspan></text>
      </g>
      <g id="Grupo_117362" data-name="Grupo 117362" transform="translate(136.923 532.738)">
        <rect id="Rectángulo_41113" data-name="Rectángulo 41113" width="156.281" height="31.256" rx="6" transform="translate(0 0)" fill="#dff7f9"/>
        <text id="Servicios_turísticos" data-name="Servicios turísticos" transform="translate(66.78 17.217)" font-size="9" font-family="Roboto-Regular, Roboto"><tspan x="-38.046" y="0">Servicios turísticos</tspan></text>
      </g>
      <g id="Grupo_117366" data-name="Grupo 117366" transform="translate(35.149 591.491)">
        <g id="Grupo_117363" data-name="Grupo 117363">
          <rect id="Rectángulo_41114" data-name="Rectángulo 41114" width="109.307" height="31.256" rx="6" fill="#fff" stroke="#dff7f9" stroke-miterlimit="10" stroke-width="1"/>
          <text id="Alimentación_" data-name="Alimentación " transform="translate(54.513 18.559)" font-size="9" font-family="Roboto-Regular, Roboto"><tspan x="-27.459" y="0">Alimentación </tspan></text>
        </g>
        <g id="Grupo_117364" data-name="Grupo 117364" transform="translate(121.037)">
          <rect id="Rectángulo_41115" data-name="Rectángulo 41115" width="109.307" height="31.256" rx="6" fill="#fff" stroke="#dff7f9" stroke-miterlimit="10" stroke-width="1"/>
          <text id="Alojamiento" transform="translate(48.884 17.419)" font-size="9" font-family="Roboto-Regular, Roboto"><tspan x="-24.012" y="0">Alojamiento</tspan></text>
        </g>
        <g id="Grupo_117365" data-name="Grupo 117365" transform="translate(250.52)">
          <rect id="Rectángulo_41116" data-name="Rectángulo 41116" width="109.307" height="31.256" rx="6" fill="#fff" stroke="#dff7f9" stroke-miterlimit="10" stroke-width="1"/>
          <text id="Transporte" transform="translate(49.65 17.192)" font-size="9" font-family="Roboto-Regular, Roboto"><tspan x="-21.784" y="0">Transporte</tspan></text>
        </g>
      </g>
      <g id="Grupo_117367" data-name="Grupo 117367" transform="translate(79.282 412.992)">
        <rect id="Rectángulo_41117" data-name="Rectángulo 41117" width="122.621" height="32.458" rx="6" fill="#fff" stroke="#a7e446" stroke-miterlimit="10" stroke-width="1"/>
        <text id="Servicios_tangibles_" data-name="Servicios tangibles
" transform="translate(56.925 19.984)" font-size="10" font-family="Roboto-Regular, Roboto"><tspan x="-41.86" y="0">Servicios tangibles</tspan><tspan font-family="Roboto-Regular"><tspan x="0" y="12"></tspan></tspan></text>
      </g>
      <g id="Grupo_117368" data-name="Grupo 117368" transform="translate(79.282 471.898)">
        <rect id="Rectángulo_41118" data-name="Rectángulo 41118" width="122.621" height="32.458" rx="6" fill="#fff" stroke="#a7e446" stroke-miterlimit="10" stroke-width="1"/>
        <text id="Se_pueden_ver_y_se_pueden_tocar" data-name="Se pueden ver 
y se pueden tocar" transform="translate(56.73 12.638)" font-size="10" font-family="Roboto-Regular, Roboto"><tspan x="-32.529" y="0">Se pueden ver </tspan><tspan x="-39.209" y="12">y se pueden tocar</tspan></text>
      </g>
      <g id="Grupo_117369" data-name="Grupo 117369" transform="translate(232.557 471.898)">
        <rect id="Rectángulo_41119" data-name="Rectángulo 41119" width="122.621" height="32.458" rx="6" fill="#fff" stroke="#a7e446" stroke-miterlimit="10" stroke-width="1"/>
        <text id="No_pueden_ver_ni_se_pueden_tocar" data-name="No pueden 
ver ni se pueden tocar" transform="translate(55.115 12.638)" font-size="10" font-family="Roboto-Regular, Roboto"><tspan x="-25.33" y="0">No pueden </tspan><tspan x="-48.816" y="12">ver ni se pueden tocar</tspan></text>
      </g>
      <g id="Grupo_117370" data-name="Grupo 117370" transform="translate(232.557 412.992)">
        <rect id="Rectángulo_41120" data-name="Rectángulo 41120" width="122.621" height="32.458" rx="6" fill="#fff" stroke="#a7e446" stroke-miterlimit="10" stroke-width="1"/>
        <text id="Servicios_intangibles" data-name="Servicios intangibles" transform="translate(50.917 18.984)" font-size="9" font-family="Roboto-Regular, Roboto"><tspan x="-41.249" y="0">Servicios intangibles</tspan></text>
      </g>
      <text transform="translate(605.896 545.53)" font-size="10" font-family="ArialMT, Arial"/>      <path id="Polígono_26-8" data-name="Polígono 26" d="M323.028,605.833l-8.785,2.3,1.51-7.744Z" transform="translate(-18.137 -23.76)" fill="#12263f"/>
      <path id="Polígono_26-9" data-name="Polígono 26" d="M223.367,611.316l-4.12-8.1,7.888-.169Z" transform="translate(-11.964 -23.933)" fill="#12263f"/>
      <path id="Polígono_26-10" data-name="Polígono 26" d="M120.978,609.528l6.871-5.939,2.054,7.617Z" transform="translate(-5.578 -23.968)" fill="#12263f"/>
      <path id="Polígono_26-11" data-name="Polígono 26" d="M498.893,576.652l-4.119-8.094,7.888-.169Z" transform="translate(-29.869 -21.68)" fill="#12263f"/>
      <path id="Polígono_26-12" data-name="Polígono 26" d="M693.619,636.6l-8.638-2.808,5.455-5.7Z" transform="translate(-42.229 -25.56)" fill="#12263f"/>
      <path id="Polígono_26-13" data-name="Polígono 26" d="M765.46,635.741l4.835-7.689,4.192,6.684Z" transform="translate(-47.459 -25.557)" fill="#12263f"/>
    </g>
  </g>
</svg>
