<svg xmlns="http://www.w3.org/2000/svg" width="133.905" height="120.358" viewBox="0 0 133.905 120.358">
  <g id="Grupo_117482" data-name="Grupo 117482" transform="translate(-390 -3665.011)">
    <g id="Grupo_116795" data-name="Grupo 116795" transform="translate(0 -131.989)">
      <g id="Grupo_116794" data-name="Grupo 116794" transform="translate(390 3797)">
        <path id="Trazado_161747" data-name="Trazado 161747" d="M338.226,281.751a2.187,2.187,0,0,1,.37.613,2.515,2.515,0,0,1-.893.126H272.1a2.613,2.613,0,0,1-.9-.126,2.212,2.212,0,0,1,.368-.613l17.4-11.321a11.021,11.021,0,0,0,5.934-7.211c.014-.116.575-2.873,1.073-6.534a87.3,87.3,0,0,0,.677-17.881,47.815,47.815,0,0,0-4.25-17.2,35.977,35.977,0,0,0-7.045-9.305,13.927,13.927,0,0,0-1.161-.943l1.964-.28c.2.178.409.318.549.42a39.783,39.783,0,0,1,8.386,8.526,52.263,52.263,0,0,1,7.147,17.944c.268,1.251.51,2.566.779,4.264l.128.765c.166,1.2.306,2.412.434,3.626l.228,1.99h1.379c1.518,0,1.66-1.149,2.144-4.939.012-.064.8-6.19,2.068-11.333a64.22,64.22,0,0,1,8.845-20.906,40.677,40.677,0,0,1,7.541-8.448l2.452.689a40.16,40.16,0,0,0-7.339,9.381,60.123,60.123,0,0,0-5.948,20.344,115.32,115.32,0,0,0-.51,21.377c.254,4.238.753,8.232.765,8.272a10.051,10.051,0,0,0,5.591,7.375Z" transform="translate(-241.146 -164.956)" fill="#feca2e"/>
        <g id="Grupo_116793" data-name="Grupo 116793" transform="translate(0 0)">
          <path id="Trazado_161748" data-name="Trazado 161748" d="M389.254,216.714c.779,1.6,1.1,2.438.589,3.255l-.446.715-.881.012c-.817,0-1.353-.537-2.17-1.66l-11.461-3.547c5.181,7.529,5.782,20.74,5.808,21.327a3.992,3.992,0,0,1-.779,3.051,1.958,1.958,0,0,1-1.417.613c-1.327,0-2.22-1.239-2.783-2.17-.038-.064-3.726-6.164-7.363-9.6-.651-.613-1.1-1.035-1.391-1.315a22.153,22.153,0,0,1,.332,6.024c-1.3,11.193-14.116,24.57-14.664,25.143a4,4,0,0,1-2.745,1.531,1.985,1.985,0,0,1-1.584-.765c-.575-.741-.651-1.8-.254-3.343.026-.09,2.476-9.535,2.438-15.635-.052-6.855-2.669-16.6-2.695-16.706-.1-.37-.394-1.213-1.059-1.213a1.939,1.939,0,0,0-1.149.536c-.05.038-5.922,5.093-8.6,10.286a56.935,56.935,0,0,0-5.617,19.337,110.5,110.5,0,0,0-.5,20.816c.254,4.134.741,8.04.741,8.078a7.076,7.076,0,0,0,3.854,4.991l.254.128,18.06,11.806c1.648,1.864,1.353,3.331,1.035,4.046s-1.225,1.888-3.716,1.888h-65.6c-2.488,0-3.407-1.185-3.728-1.888s-.613-2.182,1.047-4.046l.306-.268,17.97-11.665a7.952,7.952,0,0,0,4.212-5.041c.012-.038.575-2.783,1.047-6.33a84.837,84.837,0,0,0,.663-17.257,45.022,45.022,0,0,0-3.956-16.132,32.857,32.857,0,0,0-6.382-8.372,8.609,8.609,0,0,0-4.1-2.208l-.6.587c-3.956,3.958-5.385,10.542-6.648,16.35a60.047,60.047,0,0,0-.753,12.636,3.977,3.977,0,0,1-.779,3.063,1.95,1.95,0,0,1-1.443.625c-1.313,0-2.22-1.213-2.795-2.118-.332-.537-8.27-13.325-7.389-22.872.242-2.681,1.966-5.563,3.611-7.772-1.033.587-2.144,1.237-3.191,1.876a41.435,41.435,0,0,0-7.223,6.074,3.92,3.92,0,0,1-2.745,1.6,1.966,1.966,0,0,1-1.57-.753c-.561-.727-.639-1.786-.254-3.331.114-.446,2.679-10.338,8.1-15.735l-9.023.561c-1.035.933-1.519,1.2-2.12,1.2h-.943l-.46-.867c-.484-.995.128-1.864,1.175-3.217.382-.473,9.239-11.689,18.582-13,3.778-.522,8.346,1.353,8.512,1.429a2.977,2.977,0,0,0,3.88-1.505l.14-.344,1.482-1.265c4.913-4.186,13.121-3.279,13.223-3.267,2.45.256,3.189,1.341,3.369,2.208s-.052,2.144-2.2,3.369a9.4,9.4,0,0,0-.893.589,11.769,11.769,0,0,1,4.965-.4c7.135,1.417,11.984,9.814,12.188,10.16a5.544,5.544,0,0,1,.665,1.684,2.7,2.7,0,0,1-.242,2.016c-.7,1.213-2.286,1.531-4.288.729a26.527,26.527,0,0,0-7.275-1.634l-1.736-.1c3.866,3.8,5.105,9.9,5.155,10.21a3.9,3.9,0,0,1-.485,3.331,2.162,2.162,0,0,1-1.724.8,4.14,4.14,0,0,1-2.769-1.379,20.678,20.678,0,0,0-2.923-2.106,35.414,35.414,0,0,1,5.858,6.612,55.248,55.248,0,0,1,7.581,18.965c.012.038.012.064.026.1.318-1.838.741-3.88,1.213-5.82a67.279,67.279,0,0,1,9.265-21.889,44.246,44.246,0,0,1,8.118-9.073,27.194,27.194,0,0,1,3.714-2.757,3.716,3.716,0,0,0,.37-.244c-.116-.024-.256-.062-.434-.1a17.625,17.625,0,0,0-2.987-.228,20.158,20.158,0,0,0-4.338.458,27.906,27.906,0,0,0-7.161,2.885c-1.966,1.187-3.612,1.033-4.4-.166a2.02,2.02,0,0,1-.306-.663,4.483,4.483,0,0,1,.408-2.9c.152-.368,3.521-8.192,9.3-11.561-.026,0-.639-.128-2.769-.46a23.186,23.186,0,0,0-3.588-.256,40.246,40.246,0,0,0-6.152.512,7.034,7.034,0,0,1-1.2.114,2.738,2.738,0,0,1-2.769-1.493c-.344-.753-.422-2.016,1.1-3.74.344-.382,8.372-9.343,16.808-9.343,2.386.026,5.143,1.353,7.045,2.464a28,28,0,0,0-2.578-2.733c-1.786-1.582-1.8-2.859-1.491-3.65.254-.677,1.059-1.85,3.778-1.57.432.05,10.668,1.161,15.175,6.995a7.426,7.426,0,0,1,1.558,2.821,2.987,2.987,0,0,0,3.509,2.4,31.793,31.793,0,0,1,5.577-.511,15.889,15.889,0,0,1,5.309.767C381.1,200.25,388.924,216.052,389.254,216.714ZM368.4,210.308l16.72,5.169c-2.6-4.532-8.564-13.631-15.455-16.12a13.068,13.068,0,0,0-4.276-.589,28.6,28.6,0,0,0-5,.46,6.983,6.983,0,0,1-1.149.1,6.008,6.008,0,0,1-5.922-4.939,9.848,9.848,0,0,0-.983-1.519c-3.445-4.466-11.741-5.654-12.929-5.808a30.012,30.012,0,0,1,5.385,6.676l.563.981a2,2,0,0,1,.024,2.056,1.736,1.736,0,0,1-1.517.8c-.332,0-1.225-.012-3.523-1.684-1.263-.919-5.067-3.319-7.415-3.343-7.185,0-14.562,8.232-14.638,8.32-.038.052-.076.09-.116.14.064-.012.116-.024.18-.038a44.24,44.24,0,0,1,6.687-.549,28.111,28.111,0,0,1,4.06.28,25.019,25.019,0,0,1,3.291.6c3.025,1.073,4.046,1.9,3.92,3.153a1.713,1.713,0,0,1-1.455,1.479l-.563.218c-5.309,1.978-8.871,9.559-9.355,10.644a29.862,29.862,0,0,1,7.964-3.191,23.753,23.753,0,0,1,4.991-.525,19.853,19.853,0,0,1,3.587.294c2.5.484,3.075,1.8,3.189,2.527s0,2.158-2.22,3.421a29.346,29.346,0,0,0-3.267,2.462,40.7,40.7,0,0,0-7.543,8.45,64.228,64.228,0,0,0-8.845,20.9c-1.263,5.145-2.054,11.271-2.068,11.335-.485,3.79-.625,4.939-2.144,4.939H317.2l-.23-1.992c-.128-1.211-.268-2.424-.434-3.624l-.126-.767c-.268-1.7-.511-3.011-.779-4.262a52.291,52.291,0,0,0-7.147-17.946,39.8,39.8,0,0,0-8.386-8.524c-.14-.1-.344-.242-.549-.422-.753-.639-1.736-1.7-1.327-2.961a2.189,2.189,0,0,1,2.348-1.391,7.3,7.3,0,0,1,1.315.128l.356.114,2.258,1.009a22.921,22.921,0,0,1,5.553,3.561c-.23-1-1.736-7.071-5.63-9.547l-.42-.268a1.666,1.666,0,0,1-1.035-1.7c.128-1.377,1.583-1.824,4.226-2.182l.14-.012,2.476.126a29.191,29.191,0,0,1,8.244,1.852c.064.026.114.038.178.064-.024-.052-.064-.1-.088-.166-.052-.076-4.378-7.529-10.134-8.693a4.526,4.526,0,0,0-.855-.076A15.233,15.233,0,0,0,302.071,211a9.972,9.972,0,0,1-3.509,1.059,1.771,1.771,0,0,1-1.686-.957,1.822,1.822,0,0,1,.282-1.954l.689-.791a23.014,23.014,0,0,1,5.041-4.262c-.995-.076-7.249-.46-10.785,2.564l-.957.8a5.874,5.874,0,0,1-5.323,3.279,5.951,5.951,0,0,1-2.386-.484c-.024-.012-3.88-1.634-6.9-1.213-5.846.817-11.818,6.522-14.74,9.714l13.247-.817a15.558,15.558,0,0,1,1.954-.294h1.391l.114,1.391c.09,1-.294,1.353-1.353,1.622v.026a1.645,1.645,0,0,0-.254.038c-.408.088-.907.166-1.493.268a8.448,8.448,0,0,0-3.343,1.62c-4.314,3.421-6.969,10.849-7.914,13.888a41.41,41.41,0,0,1,6.867-5.591c3.433-2.092,7.505-4.274,7.555-4.288a5.049,5.049,0,0,1,2.4-.843,1.727,1.727,0,0,1,1.622,1.047c.484,1.187-.458,2.26-1.48,3.255-1.531,1.52-5.591,6.2-5.91,9.609-.651,7.059,4.466,16.694,6.3,19.9a58.1,58.1,0,0,1,.843-12.1c1.3-5.974,2.911-13.325,7.491-17.908l1.341-1.339.432-.09c1.558-.318,3.944.536,5.974,2.018a13.541,13.541,0,0,1,1.161.943,35.89,35.89,0,0,1,7.045,9.305,47.773,47.773,0,0,1,4.25,17.2,87.147,87.147,0,0,1-.677,17.879c-.5,3.664-1.059,6.42-1.071,6.534a11.028,11.028,0,0,1-5.936,7.213l-17.4,11.319a2.239,2.239,0,0,0-.37.613,2.55,2.55,0,0,0,.907.128h65.6a2.465,2.465,0,0,0,.895-.128,2.246,2.246,0,0,0-.37-.613l-17.435-11.333a10.057,10.057,0,0,1-5.589-7.377c-.012-.038-.511-4.032-.767-8.27a115.5,115.5,0,0,1,.511-21.377,60.238,60.238,0,0,1,5.948-20.346,40.146,40.146,0,0,1,7.339-9.379c1.111-1.085,1.9-1.762,1.992-1.838a4.829,4.829,0,0,1,3.113-1.251,4.22,4.22,0,0,1,4,3.459c.114.408,2.743,10.234,2.795,17.485.026,5.207-1.546,12.34-2.222,15.187,2.861-3.165,11.972-13.848,12.969-22.45a19.634,19.634,0,0,0-.422-5.756c-.356-1.52-.242-2.6.332-3.331a2.05,2.05,0,0,1,1.622-.779,4.07,4.07,0,0,1,2.769,1.52c.026.024.37.356,1.864,1.774a53.4,53.4,0,0,1,7.135,9.035c-.32-3.752-1.558-14.052-5.91-19.283a12.805,12.805,0,0,0-4.364-3.089c-.6-.23-1.073-.422-1.455-.589l-.2-.076.012-.012c-.983-.472-1.2-.843-1.033-1.71l.23-1.239H366.1C366.41,209.541,366.41,209.541,368.4,210.308Z" transform="translate(-256.186 -183.986)"/>
        </g>
        <path id="Trazado_161749" data-name="Trazado 161749" d="M278.077,215.526a1.726,1.726,0,0,1,1.62,1.047c.484,1.187-.458,2.258-1.481,3.255-1.531,1.517-5.589,6.2-5.908,9.609-.651,7.059,4.466,16.694,6.3,19.9a58.109,58.109,0,0,1,.843-12.1c1.3-5.974,2.911-13.325,7.491-17.908l1.341-1.339.432-.09c1.558-.318,3.944.537,5.974,2.016a13.98,13.98,0,0,1,1.161.945c.064.06.611.579,1.385,1.405a10.394,10.394,0,0,1,2.056-.525c-1.207-1.037-2.064-1.67-2.088-1.686-.14-.1-.344-.242-.549-.42-.753-.639-1.736-1.7-1.327-2.961a2.189,2.189,0,0,1,2.348-1.391,7.266,7.266,0,0,1,1.313.128l.358.114,2.258,1.009a22.921,22.921,0,0,1,5.553,3.561c-.23-1-1.736-7.071-5.629-9.547l-.42-.268a1.666,1.666,0,0,1-1.035-1.7c.128-1.377,1.584-1.826,4.226-2.182l.138-.012,2.478.126a29.188,29.188,0,0,1,8.244,1.852c.064.024.116.038.178.064-.024-.052-.062-.1-.09-.166-.05-.078-4.376-7.531-10.134-8.693a4.5,4.5,0,0,0-.853-.076,15.178,15.178,0,0,0-5.081,1.251,9.972,9.972,0,0,1-3.509,1.059,1.774,1.774,0,0,1-1.686-.957,1.824,1.824,0,0,1,.28-1.954l.691-.791A22.956,22.956,0,0,1,300,193.843c-.995-.078-7.249-.46-10.785,2.565l-.957.8a5.874,5.874,0,0,1-5.323,3.279,5.959,5.959,0,0,1-2.386-.484c-.026-.012-3.88-1.634-6.9-1.213-5.846.817-11.818,6.522-14.74,9.714l13.249-.817a15.512,15.512,0,0,1,1.952-.294H275.5l.116,1.391c.09.995-.292,1.353-1.353,1.622v.026a1.616,1.616,0,0,0-.254.038c-.408.088-.907.166-1.493.266a8.473,8.473,0,0,0-3.345,1.622c-4.312,3.421-6.967,10.849-7.912,13.886a41.514,41.514,0,0,1,6.867-5.59c3.433-2.092,7.5-4.276,7.555-4.288A5.047,5.047,0,0,1,278.077,215.526Z" transform="translate(-253.46 -174.167)" fill="#a7e446"/>
        <path id="Trazado_161750" data-name="Trazado 161750" d="M336.19,211.409c-.6-.228-1.073-.42-1.455-.587-.1-.038-.166-.064-.2-.076l.012-.012c-.983-.472-1.2-.843-1.033-1.712l.23-1.237H335c.306,0,.306,0,2.3.765l16.72,5.169c-2.6-4.53-8.564-13.629-15.457-16.12a13.116,13.116,0,0,0-4.274-.587,28.414,28.414,0,0,0-5,.46,6.917,6.917,0,0,1-1.147.1,6.008,6.008,0,0,1-5.922-4.939,9.727,9.727,0,0,0-.983-1.519c-3.447-4.468-11.741-5.654-12.931-5.808a29.967,29.967,0,0,1,5.387,6.675l.563.983a2,2,0,0,1,.024,2.056,1.737,1.737,0,0,1-1.518.8c-.332,0-1.225-.012-3.523-1.684-1.263-.919-5.067-3.319-7.415-3.345-7.185,0-14.562,8.232-14.638,8.322-.038.052-.076.09-.114.14.062-.012.114-.026.176-.038a44.32,44.32,0,0,1,6.689-.549,28.112,28.112,0,0,1,4.06.28,24.5,24.5,0,0,1,3.291.6c3.025,1.071,4.046,1.9,3.92,3.153a1.715,1.715,0,0,1-1.455,1.479l-.563.216c-5.309,1.98-8.869,9.559-9.355,10.644a29.87,29.87,0,0,1,7.966-3.189,23.586,23.586,0,0,1,4.989-.525,19.878,19.878,0,0,1,3.588.294c2.5.484,3.075,1.8,3.189,2.526s0,2.158-2.22,3.421a29.368,29.368,0,0,0-3.267,2.462c-.256.214-.5.452-.749.675a11.87,11.87,0,0,1,1.984,1.251c.43-.448.845-.873,1.215-1.237,1.111-1.083,1.9-1.76,1.99-1.838a4.835,4.835,0,0,1,3.115-1.249,4.22,4.22,0,0,1,4,3.457c.114.408,2.743,10.236,2.795,17.485.024,5.207-1.546,12.342-2.222,15.189,2.861-3.165,11.972-13.848,12.969-22.45a19.62,19.62,0,0,0-.422-5.756c-.356-1.52-.242-2.6.332-3.331a2.05,2.05,0,0,1,1.622-.779,4.066,4.066,0,0,1,2.769,1.517c.026.026.37.358,1.864,1.776a53.192,53.192,0,0,1,7.133,9.035c-.318-3.752-1.555-14.052-5.908-19.285A12.84,12.84,0,0,0,336.19,211.409Z" transform="translate(-225.245 -182.66)" fill="#a7e446"/>
      </g>
    </g>
  </g>
</svg>
