<svg xmlns="http://www.w3.org/2000/svg" xmlns:xlink="http://www.w3.org/1999/xlink" width="120" height="120" viewBox="0 0 120 120">
  <defs>
    <clipPath id="clip-path">
      <rect width="120" height="120" fill="none"/>
    </clipPath>
  </defs>
  <g id="Grupo_117481" data-name="Grupo 117481" transform="translate(-1215 -2980)">
    <g id="Cuadrícula_de_repetición_4" data-name="Cuadrícula de repetición 4" transform="translate(1215 2980)" clip-path="url(#clip-path)">
      <g transform="translate(-270 -2980)">
        <g id="Elipse_5541" data-name="Elipse 5541" transform="translate(270 2980)" fill="#f5feff" stroke="#0082b2" stroke-width="2">
          <circle cx="60" cy="60" r="60" stroke="none"/>
          <circle cx="60" cy="60" r="59" fill="none"/>
        </g>
      </g>
    </g>
    <g id="Grupo_117401" data-name="Grupo 117401" transform="translate(951.969 2880.052)">
      <g id="Grupo_117398" data-name="Grupo 117398">
        <path id="Trazado_162431" data-name="Trazado 162431" d="M350.3,142.027h0c.008-.181.014-.362.014-.545a13.889,13.889,0,0,0-13.8-13.678,14.209,14.209,0,0,0-12.551,8.16h0a14.209,14.209,0,0,0-12.551-8.16,13.888,13.888,0,0,0-13.8,13.678c0,.183.006.364.014.545h0s-.779,8.7,8.907,18.207a221.321,221.321,0,0,0,17.436,15.2,221.188,221.188,0,0,0,17.437-15.2C351.084,150.731,350.3,142.027,350.3,142.027Z" fill="#fc4b52"/>
        <path id="Trazado_162432" data-name="Trazado 162432" d="M323.962,176.533l-.54-.439a222.531,222.531,0,0,1-17.5-15.256c-9.555-9.374-9.218-17.975-9.158-18.83-.006-.207-.011-.366-.011-.526a14.607,14.607,0,0,1,27.212-7.309,14.607,14.607,0,0,1,27.211,7.309c0,.173-.005.344-.012.515.058.785.442,9.424-9.164,18.848A222.547,222.547,0,0,1,324.5,176.094Zm-25.491-33.65c.09,2.28,1.032,9.262,8.654,16.74a215.3,215.3,0,0,0,16.837,14.7,215.683,215.683,0,0,0,16.829-14.7c9.25-9.075,8.668-17.444,8.661-17.528l0-.049,0-.114c.005-.151.01-.3.01-.456a13.057,13.057,0,0,0-12.947-12.821,13.412,13.412,0,0,0-11.778,7.672l-.233.487h-1.08l-.236-.487a13.413,13.413,0,0,0-11.778-7.672,13.057,13.057,0,0,0-12.947,12.821c0,.172.007.341.013.51l.037.891Z" fill="#222223"/>
      </g>
      <g id="Grupo_117399" data-name="Grupo 117399">
        <path id="Trazado_162433" data-name="Trazado 162433" d="M290.322,174.706s-2.819-5.639-4.632-7.149-1.007-3.625,2.316-3.122,7.855,6.445,10.07,9.164a7.488,7.488,0,0,0,4.733,2.92c8.156,1.208,10.551,1.786,15.015,8.835,5.738,9.061,1.41,13.292-4.632,12.89a15.731,15.731,0,0,1-9.264-3.424s-8.571-5.412-11.894-6.922-10.674-16.917-12.386-21.046-.4-18.831,2.014-18.73,3.726,1.511,3.726,6.848a44.956,44.956,0,0,0,.5,7.854" fill="#e6af87"/>
        <path id="Trazado_162434" data-name="Trazado 162434" d="M313.983,199.126q-.416,0-.848-.028a16.7,16.7,0,0,1-9.726-3.593c-.777-.489-8.643-5.425-11.73-6.828-3.921-1.782-11.772-18.966-12.821-21.5-1.585-3.82-.75-16.075,1.3-19a1.787,1.787,0,0,1,1.545-.909c3.229.135,4.546,2.366,4.546,7.7a45.122,45.122,0,0,0,.487,7.688l-1.679.335a45.541,45.541,0,0,1-.52-8.023c0-5.337-1.332-5.911-2.834-5.989-1.35.974-2.952,13.459-1.259,17.544,2.248,5.422,9.217,19.352,11.949,20.6,3.339,1.517,11.645,6.755,12,6.977l.128.1a15.1,15.1,0,0,0,8.736,3.194c2.74.185,4.856-.64,5.817-2.256,1.23-2.069.532-5.378-1.965-9.321-4.25-6.709-6.322-7.247-14.417-8.446a8.33,8.33,0,0,1-5.272-3.226l-.591-.731c-2.174-2.7-6.221-7.714-8.943-8.127-1.315-.2-2.084.086-2.242.438-.11.245.033.705.6,1.179,1.895,1.579,4.553,6.831,4.849,7.425l-1.531.766c-.763-1.525-3.042-5.731-4.414-6.875a2.733,2.733,0,0,1-1.068-3.2c.539-1.2,2.06-1.734,4.06-1.429,3.38.512,7.535,5.666,10.019,8.746l.585.723a6.651,6.651,0,0,0,4.145,2.608c8.42,1.246,11.038,1.928,15.663,9.23,3.665,5.787,3.106,9.237,1.99,11.112C319.345,198.013,316.983,199.126,313.983,199.126Z" fill="#222223"/>
      </g>
      <g id="Grupo_117400" data-name="Grupo 117400">
        <path id="Trazado_162435" data-name="Trazado 162435" d="M357.6,174.706s2.819-5.639,4.632-7.149,1.007-3.625-2.316-3.122-7.855,6.445-10.07,9.164a7.488,7.488,0,0,1-4.733,2.92c-8.156,1.208-10.551,1.786-15.015,8.835-5.739,9.061-1.41,13.292,4.632,12.89a15.731,15.731,0,0,0,9.264-3.424s8.571-5.412,11.894-6.922,10.674-16.917,12.386-21.046.4-18.831-2.014-18.73-3.726,1.511-3.726,6.848a44.956,44.956,0,0,1-.5,7.854" fill="#e6af87"/>
        <path id="Trazado_162436" data-name="Trazado 162436" d="M333.94,199.126c-3,0-5.362-1.113-6.554-3.118-1.115-1.875-1.675-5.325,1.99-11.112,4.624-7.3,7.243-7.984,15.613-9.224a6.641,6.641,0,0,0,4.194-2.614l.584-.722c2.484-3.08,6.641-8.235,10.022-8.747,2-.306,3.519.23,4.059,1.429a2.732,2.732,0,0,1-1.067,3.2c-1.373,1.144-3.652,5.35-4.415,6.875l-1.531-.766c.3-.594,2.954-5.846,4.85-7.425.569-.474.712-.934.6-1.179-.157-.351-.93-.637-2.24-.438-2.723.413-6.772,5.432-8.946,8.129l-.59.729a8.328,8.328,0,0,1-5.327,3.233c-8.039,1.192-10.112,1.73-14.361,8.439-2.5,3.943-3.195,7.252-1.965,9.321.961,1.616,3.083,2.438,5.817,2.256a14.95,14.95,0,0,0,8.736-3.194l.128-.1c.352-.222,8.659-5.46,12-6.977,2.73-1.241,9.7-15.173,11.95-20.6,1.694-4.085.091-16.57-1.259-17.544-1.5.078-2.834.652-2.834,5.989a45.541,45.541,0,0,1-.52,8.023l-1.679-.335a45.251,45.251,0,0,0,.487-7.688c0-5.336,1.317-7.567,4.546-7.7a1.746,1.746,0,0,1,1.546.909c2.044,2.928,2.88,15.183,1.294,19-1.05,2.532-8.9,19.717-12.822,21.5-3.086,1.4-10.952,6.339-11.729,6.828a16.708,16.708,0,0,1-9.726,3.593C334.5,199.117,334.218,199.126,333.94,199.126Z" fill="#222223"/>
      </g>
    </g>
  </g>
</svg>
