<svg xmlns="http://www.w3.org/2000/svg" width="444" height="184" viewBox="0 0 444 184">
  <g id="Grupo_117460" data-name="Grupo 117460" transform="translate(-871 -2111)">
    <rect id="Image_Place_Holder" data-name="Image Place Holder" width="444" height="184" transform="translate(1315 2295) rotate(180)" fill="#d9eaea"/>
    <g id="Grupo_116791" data-name="Grupo 116791" transform="translate(1020.624 1990.808)">
      <g id="Grupo_116779" data-name="Grupo 116779" transform="translate(104.376 180.695)">
        <path id="Trazado_161702" data-name="Trazado 161702" d="M108.5,230.238l1.507-3.363v-9.131a14.355,14.355,0,0,1,2.792-8.507l9.866-13.41,11.272-7.516,2.874,25.511-1.886,14.223-8.856,9.648Z" transform="translate(-102.303 -167.066)" fill="#e9b28a"/>
        <g id="Grupo_116771" data-name="Grupo 116771" transform="translate(18.466)">
          <path id="Rectángulo_40754" data-name="Rectángulo 40754" d="M5.133,0H76.067A5.134,5.134,0,0,1,81.2,5.134V55.313a5.133,5.133,0,0,1-5.133,5.133H5.134A5.134,5.134,0,0,1,0,55.313V5.133A5.133,5.133,0,0,1,5.133,0Z" fill="#b0bec5"/>
          <path id="Trazado_161703" data-name="Trazado 161703" d="M121.141,177.936h-.487v49.135h66.708V177.936Z" transform="translate(-114.662 -172.28)" fill="#12263f"/>
          <path id="Trazado_161704" data-name="Trazado 161704" d="M171.663,195.245a2.865,2.865,0,1,1-2.864-2.865A2.863,2.863,0,0,1,171.663,195.245Z" transform="translate(-91.908 -165.022)" fill="#cfd8dc"/>
          <path id="Trazado_161705" data-name="Trazado 161705" d="M122.035,195.061a2.315,2.315,0,1,1-2.315-2.315A2.315,2.315,0,0,1,122.035,195.061Z" transform="translate(-116.294 -164.838)" fill="#90a4ae"/>
          <g id="Grupo_116770" data-name="Grupo 116770" transform="translate(14.375 8.662)">
            <g id="Grupo_116766" data-name="Grupo 116766" transform="translate(0 19.396)">
              <rect id="Rectángulo_40755" data-name="Rectángulo 40755" width="10.576" height="19.244" fill="#dff7f9"/>
            </g>
            <g id="Grupo_116767" data-name="Grupo 116767" transform="translate(12.669 9.323)">
              <rect id="Rectángulo_40756" data-name="Rectángulo 40756" width="10.576" height="29.318" fill="#fc4b52"/>
            </g>
            <g id="Grupo_116768" data-name="Grupo 116768" transform="translate(25.337)">
              <rect id="Rectángulo_40757" data-name="Rectángulo 40757" width="10.576" height="38.641" fill="#727997"/>
            </g>
            <g id="Grupo_116769" data-name="Grupo 116769" transform="translate(38.008 16.556)">
              <rect id="Rectángulo_40758" data-name="Rectángulo 40758" width="10.575" height="22.085" fill="#feca2e"/>
            </g>
          </g>
        </g>
        <g id="Grupo_116773" data-name="Grupo 116773" transform="translate(0 39.44)">
          <path id="Trazado_161706" data-name="Trazado 161706" d="M137.536,204.8a.889.889,0,0,0,0,.092,2.1,2.1,0,0,1-.018.272,2.737,2.737,0,0,1-.464,1.187c-.03.045-.063.089-.1.131a3.323,3.323,0,0,1-2.3,1.255h-8.121L123.474,220.2l.879,4.746,2.957-.593-8.386,3.559-6.129-7.317,3.756-20.173h6.922l7.7,1.285.889.149,4.441.742A3.269,3.269,0,0,1,137.536,204.8Z" transform="translate(-100.145 -200.421)" fill="#e9b28a"/>
          <path id="Trazado_161707" data-name="Trazado 161707" d="M107,219.3l2.251-4.9,18.259,10.181-3.027,5.645Z" transform="translate(-103.055 -193.395)" fill="#fff"/>
          <g id="Grupo_116772" data-name="Grupo 116772" transform="translate(0 23.647)">
            <path id="Trazado_161708" data-name="Trazado 161708" d="M120.578,223.276l-3.136,6.111c-4.677-2.729-9.508-5.442-13.066-7.331l3.466-5.9Z" transform="translate(-104.376 -216.159)" fill="#12263f"/>
            <path id="Trazado_161709" data-name="Trazado 161709" d="M123.86,225.175l-3.136,6.39c-2.312-1.424-4.957-2.992-7.652-4.559l3.136-6.111Z" transform="translate(-100.006 -213.779)" fill="#12263f"/>
          </g>
          <path id="Trazado_161710" data-name="Trazado 161710" d="M131.15,204.324a.893.893,0,0,0,0,.092c-.006.053-.009.107-.015.162a2.871,2.871,0,0,1-.4,1.148,12,12,0,0,1-2.037-.287c-3.83-1.238-3.25-3.471-3.02-4.064l4.441.742A3.269,3.269,0,0,1,131.15,204.324Z" transform="translate(-93.758 -199.942)" fill="#f1c3a4"/>
        </g>
        <g id="Grupo_116778" data-name="Grupo 116778" transform="translate(60.237 25.421)">
          <g id="Grupo_116774" data-name="Grupo 116774">
            <path id="Trazado_161711" data-name="Trazado 161711" d="M176.25,237.475c-.123.1-.6.078-.747.1l-1.442.186c-1.465.191-1.188.72-2.649.909-3.025.391-6.1.3-9.108.765-2.739.424-4.127-1.4-5.911-3.382-2.922-3.253-7.353-6.183-8.8-10.437a32.59,32.59,0,0,1-1.618-5.3,28.107,28.107,0,0,0-.6-4.344c-.425-1.382-2.039-3.959.407-3.881a5.426,5.426,0,0,1,2.2.482,6.245,6.245,0,0,1,2.231,3.089c.31.888.185,1.821.5,2.7a12.7,12.7,0,0,0,1.911,3.133,51.421,51.421,0,0,0-.817-8.516q-.476-3.651-.953-7.3-.678-5.2-1.355-10.4c0-.021-.006-.042-.008-.063-.086-.66-.239-1.351-.26-2.015a1.159,1.159,0,0,1,.245-.7,1.675,1.675,0,0,1,.126-.167l.02-.021a4.245,4.245,0,0,1,.325-.332,3.235,3.235,0,0,1,3.69-.514,3.488,3.488,0,0,1,.391.218l.023.015a1.865,1.865,0,0,1,.407.355,1.2,1.2,0,0,1,.258.569c.059.373.095.738.146,1.113.307,2.376.593,4.753.9,7.126.2,1.621.331,3.276.622,4.883.26,1.441.657,3.756,1.208,4.3-.074-.37.122-.956.06-1.4-.065-.469-.134-.938-.2-1.408a8.293,8.293,0,0,1-.222-2.774c.376-1.463,2.638-2.039,3.875-1.423,1.3.648,1.506,2.406,1.815,3.647.092.364.687,1.711.853,1.121.317-1.13.249-3.208.655-3.87a2.8,2.8,0,0,1,3.7-.76c1.758.963,1.779,3.8,1.98,5.529.3-.31.164-1.581.439-1.967a2.749,2.749,0,0,1,1.923-.986c2.873-.188,2.769,3.262,3.221,5.229a52.663,52.663,0,0,1,1.33,10.794,33.85,33.85,0,0,1-.141,5.338c-.219,1.521-1.22,2.853-1.3,4.408a24,24,0,0,0,.482,3.994c.087.667.156,1.217.185,1.445C176.28,237.146,176.372,237.375,176.25,237.475Z" transform="translate(-144.466 -191.091)" fill="#e6af87"/>
            <path id="Trazado_161712" data-name="Trazado 161712" d="M151.2,196.408c-1.193.335-2.413-.718-2.718-2.339l-.249-1.355a2.887,2.887,0,0,1-.045-.343,4.232,4.232,0,0,1,.325-.331,3.234,3.234,0,0,1,3.69-.514,3.363,3.363,0,0,1,.389.218l.024.015.2,1.082C153.116,194.467,152.387,196.07,151.2,196.408Z" transform="translate(-142.596 -191.052)" fill="#f1c3a4"/>
          </g>
          <g id="Grupo_116776" data-name="Grupo 116776" transform="translate(12.17 43.126)">
            <g id="Grupo_116775" data-name="Grupo 116775">
              <path id="Trazado_161713" data-name="Trazado 161713" d="M172.353,219.794l-19.787,2.641,1.335,5.224,19.437-3.253Z" transform="translate(-152.566 -219.794)" fill="#fff"/>
            </g>
          </g>
          <g id="Grupo_116777" data-name="Grupo 116777" transform="translate(11.267 46.427)">
            <path id="Trazado_161714" data-name="Trazado 161714" d="M174.967,229.261l-16.626,3.169-1.746-7.482,16.289-2.957Z" transform="translate(-149.638 -221.99)" fill="#12263f"/>
            <path id="Trazado_161715" data-name="Trazado 161715" d="M160.667,231.441l-6.847,1.305-1.856-7.534,6.956-1.254Z" transform="translate(-151.965 -221.001)" fill="#12263f"/>
          </g>
        </g>
      </g>
      <g id="Grupo_116790" data-name="Grupo 116790" transform="translate(133.481 161.192)">
        <g id="Grupo_116781" data-name="Grupo 116781" transform="translate(3.148 2.953)">
          <g id="Grupo_116780" data-name="Grupo 116780">
            <path id="Trazado_161716" data-name="Trazado 161716" d="M127.417,200.036a1.575,1.575,0,0,1-1.3-2.457l14.166-20.914a1.574,1.574,0,0,1,2.418-.23l14.77,14.77,16.5-27.289a1.574,1.574,0,1,1,2.694,1.629l-17.539,29.008a1.574,1.574,0,0,1-2.46.3l-14.843-14.843-13.1,19.334A1.572,1.572,0,0,1,127.417,200.036Z" transform="translate(-125.842 -163.157)" fill="#fc4b52"/>
          </g>
        </g>
        <g id="Grupo_116783" data-name="Grupo 116783" transform="translate(0 34.209)">
          <g id="Grupo_116782" data-name="Grupo 116782">
            <path id="Trazado_161717" data-name="Trazado 161717" d="M133.192,188.682a4.722,4.722,0,1,1-4.721-4.722A4.723,4.723,0,0,1,133.192,188.682Z" transform="translate(-123.747 -183.96)" fill="#f94e63"/>
          </g>
        </g>
        <g id="Grupo_116785" data-name="Grupo 116785" transform="translate(14.107 13.943)">
          <g id="Grupo_116784" data-name="Grupo 116784">
            <path id="Trazado_161718" data-name="Trazado 161718" d="M142.579,175.194a4.722,4.722,0,1,1-4.722-4.722A4.722,4.722,0,0,1,142.579,175.194Z" transform="translate(-133.136 -170.472)" fill="#f94e63"/>
          </g>
        </g>
        <g id="Grupo_116787" data-name="Grupo 116787" transform="translate(29.848 27.885)">
          <g id="Grupo_116786" data-name="Grupo 116786">
            <path id="Trazado_161719" data-name="Trazado 161719" d="M153.057,184.473a4.722,4.722,0,1,1-4.722-4.722A4.723,4.723,0,0,1,153.057,184.473Z" transform="translate(-143.612 -179.751)" fill="#f94e63"/>
          </g>
        </g>
        <g id="Grupo_116789" data-name="Grupo 116789" transform="translate(47.388)">
          <g id="Grupo_116788" data-name="Grupo 116788">
            <path id="Trazado_161720" data-name="Trazado 161720" d="M164.729,165.914a4.722,4.722,0,1,1-4.721-4.722A4.721,4.721,0,0,1,164.729,165.914Z" transform="translate(-155.286 -161.192)" fill="#fc4b52"/>
          </g>
        </g>
      </g>
    </g>
  </g>
</svg>
