<svg xmlns="http://www.w3.org/2000/svg" xmlns:xlink="http://www.w3.org/1999/xlink" width="504.999" height="331.404" viewBox="0 0 504.999 331.404">
  <defs>
    <clipPath id="clip-path">
      <path id="Trazado_158123" data-name="Trazado 158123" d="M4461.649-1127.943h371.759a32.164,32.164,0,0,1,32.165,32.163v210.04l-72.445,63.651H4420.092a32.163,32.163,0,0,1-32.163-32.163v-204.262Z" transform="translate(-4387.607 1127.62)" fill="#79d2dc"/>
    </clipPath>
  </defs>
  <g id="Grupo_117468" data-name="Grupo 117468" transform="translate(4914 7824)">
    <g id="Grupo_116467" data-name="Grupo 116467" transform="translate(-4914 -7824)">
      <g id="Grupo_117467" data-name="Grupo 117467">
        <g id="Enmascarar_grupo_116" data-name="Enmascarar grupo 116" transform="translate(13.678 12.775)" clip-path="url(#clip-path)">
          <g id="Rectángulo_40687" data-name="Rectángulo 40687" transform="translate(-38.929 -23.46)" fill="#f3f9ff" stroke="#707070" stroke-width="1">
            <rect width="534.037" height="352.237" stroke="none"/>
            <rect x="0.5" y="0.5" width="533.037" height="351.237" fill="none"/>
          </g>
          <g id="Grupo_116487" data-name="Grupo 116487" transform="translate(9.195 -16.219)">
            <path id="Trazado_161287" data-name="Trazado 161287" d="M313.089,131.98c0-6.275,4.177-10.084,10.554-10.084,6.6.223,10.113,3.137,10.113,10.084s-3.079,9.637-10.333,9.86C317.486,142.064,313.089,138.478,313.089,131.98Zm13.192,83.813H322.1a7.392,7.392,0,0,1-7.255-7.4V154.613a7.391,7.391,0,0,1,7.255-7.394h4.178a7.391,7.391,0,0,1,7.255,7.394V208.4A7.392,7.392,0,0,1,326.28,215.793Zm83.768-2.242a2.1,2.1,0,0,1-2.2,2.242H396.857a2.225,2.225,0,0,1-2.2-2.242v-5.378c0-.224-.221-.449-.221-.672a47.221,47.221,0,0,1-5.717,4.257c-16.269,11.653-36.058,1.792-37.377-18.376-.659-9.637-.88-16.807-.659-26.443v-18.6a2.1,2.1,0,0,1,2.2-2.241h12.972a2.226,2.226,0,0,1,2.2,2.241v19.272c0,7.171,0,14.566.22,21.737,0,5.155,1.539,9.861,6.6,12.1,6.815,2.913,17.588-5.379,17.809-13.222V148.564a2.1,2.1,0,0,1,2.2-2.242H407.85a2.225,2.225,0,0,1,2.2,2.242l.221,4.033-.221,20.617v40.337ZM274.172,167.611l29.241-40.337c.88-1.345.44-3.361-.659-3.361H287.364c-2.2,0-2.418-.224-3.3,1.12l-27.7,40.337V126.6a2.7,2.7,0,0,0-2.638-2.688H240.313a2.7,2.7,0,0,0-2.639,2.688v86.725a2.7,2.7,0,0,0,2.639,2.69h13.411a2.7,2.7,0,0,0,2.638-2.69V169.852l27.7,44.82c.88,1.344,1.1,1.344,3.3,1.344h15.391c1.1,0,1.539-2.465.659-4.033ZM48.15,180.385a30.321,30.321,0,0,1,3.738-15.463c7.255-14.566,20.668-19.048,34.519-11.2,13.632,7.62,23.746,19.721,35.838,29.58,2.2,1.793,1.319,2.914-.659,4.034-10.994,6.723-21.547,14.118-32.76,19.945C66.179,218.705,48.15,207.052,48.15,180.385Z" transform="translate(0 0)" fill="#0c0662"/>
            <path id="Trazado_161288" data-name="Trazado 161288" d="M112.7,160.462c15.171-9.635,29.462-21.065,47.052-26.443,13.851-4.257,25.063,0,32.979,12.549,3.739,5.827,6.157,12.1,6.377,19.049l-2.638,3.361c-12.753,17.031-28.584,20.392-46.172,13.894A117.009,117.009,0,0,1,112.7,160.462Z" transform="translate(10.87 1.771)" fill="#55296a"/>
            <path id="Trazado_161289" data-name="Trazado 161289" d="M113.925,156.421A113.787,113.787,0,0,0,151.3,178.607c17.588,6.5,33.419,3.137,46.172-13.894q1.318-1.682,2.638-3.361c2.858,19.944-7.476,39.664-23.526,44.819-9.015,2.913-17.149.447-25.065-3.81-11.214-6.051-20.008-15.462-29.462-23.754-4.617-4.034-9.015-8.292-13.852-12.1-3.957-3.137-3.738-5.378.66-7.394C110.627,158.213,112.386,157.317,113.925,156.421Z" transform="translate(9.641 5.812)" fill="#ab3a86"/>
          </g>
        </g>
      </g>
      <path id="Trazado_158124" data-name="Trazado 158124" d="M4439.255-1116h0a11.058,11.058,0,0,0-15.639,0l-45.449,45.449a11.057,11.057,0,0,0,0,15.638,11.059,11.059,0,0,0,15.639,0l45.449-45.449A11.06,11.06,0,0,0,4439.255-1116Z" transform="translate(-4374.928 1141.171)" fill="#fc4b52"/>
      <path id="Trazado_158125" data-name="Trazado 158125" d="M4476.83-1136.847a11.056,11.056,0,0,0-15.638,0l-60.088,60.087a11.059,11.059,0,0,0,0,15.638h0a11.057,11.057,0,0,0,15.638,0l60.088-60.087A11.057,11.057,0,0,0,4476.83-1136.847Z" transform="translate(-4373.733 1140.086)" fill="#feca2e"/>
      <g id="Grupo_108305" data-name="Grupo 108305" transform="translate(398.663 241.909)">
        <path id="Trazado_158126" data-name="Trazado 158126" d="M4757.1-824.256a11.055,11.055,0,0,0,15.637,0l60.09-60.087a11.06,11.06,0,0,0,0-15.638h0a11.059,11.059,0,0,0-15.64,0L4757.1-839.894A11.057,11.057,0,0,0,4757.1-824.256Z" transform="translate(-4753.857 910.513)" fill="#feca2e"/>
        <path id="Trazado_158127" data-name="Trazado 158127" d="M4793.947-845.826h0a11.058,11.058,0,0,0,15.639,0l45.448-45.449a11.056,11.056,0,0,0,0-15.638,11.059,11.059,0,0,0-15.64,0l-45.447,45.449A11.058,11.058,0,0,0,4793.947-845.826Z" transform="translate(-4751.938 910.152)" fill="#fc4b52"/>
      </g>
    </g>
  </g>
</svg>
