<svg xmlns="http://www.w3.org/2000/svg" width="420" height="288" viewBox="0 0 420 288">
  <g id="Grupo_117452" data-name="Grupo 117452" transform="translate(-895 -399)">
    <rect id="Image_Place_Holder" data-name="Image Place Holder" width="420" height="288" transform="translate(895 399)" fill="#d9eaea"/>
    <g id="Grupo_117451" data-name="Grupo 117451">
      <g id="Grupo_116742" data-name="Grupo 116742" transform="translate(24.485 -9)">
        <g id="Grupo_116741" data-name="Grupo 116741" transform="translate(1068.515 492)">
          <g id="Grupo_116740" data-name="Grupo 116740" transform="translate(0 0)">
            <path id="Trazado_161654" data-name="Trazado 161654" d="M83.654,156.6c2.21,3.326,5.655,6.574,10.531,9.929a62.227,62.227,0,0,0,16.4,7.936,67.613,67.613,0,0,0,12.275,2.82,36.222,36.222,0,0,0,4.285.207c9.9,0,28.13-2.22,43.014-4.3.415.3.815.585,1.181.852,4.2,3.056,10.537,7.675,15.667,10.379a47.646,47.646,0,0,0,13.256,5.137,12.868,12.868,0,0,0,2.914.338,10.867,10.867,0,0,0,6.845-2.284c3.345-2.7,3.908-6.967,1.472-11.128a52.488,52.488,0,0,0-5.83-8.131c-.262-.291-.533-.575-.8-.861l2.656-.449c6.2-1.046,12.61-2.127,18.114-3.193,1.38-.267,2.773-.5,4.168-.739,2.326-.394,4.731-.8,7.079-1.357,8.389-1.986,13.009-7.491,13.009-15.5V121.6c0-.475.015-.986.03-1.519.107-3.719.286-9.944-5.376-11.559-3-.854-7.416-.306-11.449,7.157-.551,1.018-1.056,2.061-1.56,3.1a41.89,41.89,0,0,1-2.653,4.921c-1.4,2.11-3.048,4.154-4.646,6.131l-.393.486c-3.244,4.017-8.042,5.3-14.852,3.933,3.461-8.58,7.513-18.791,10.776-28.855l.318-.972a57.1,57.1,0,0,0,1.891-6.688,5.609,5.609,0,0,0-1.033-4.805c-2.05-2.534-6.123-2.917-9.443-2.968-5.186-.078-12.279-.185-16.972,4.151a47.951,47.951,0,0,0-5.177,5.878c-1.385,1.774-2.8,3.523-4.224,5.272q-1.072,1.32-2.137,2.642l-9.956,12.387-3.765-1.711c-5.128-2.333-10.429-4.747-15.709-7.008l-1.957-.844c-6.683-2.892-13.594-5.882-21.04-6.246-5.156-.253-10.52,1.365-14.109,2.6-9.329,3.222-19.279,10.715-29.574,22.272A24.829,24.829,0,0,0,81.1,150.8,17.253,17.253,0,0,0,83.654,156.6Z" transform="translate(-80.24 -89.905)" fill="#fc4b52"/>
            <path id="Trazado_161655" data-name="Trazado 161655" d="M126.671,183.31a36.728,36.728,0,0,1-4.285-.2,68.174,68.174,0,0,1-12.275-2.793,62.485,62.485,0,0,1-16.4-7.859c-4.877-3.323-8.321-6.54-10.531-9.833a16.982,16.982,0,0,1-2.556-5.75A24.423,24.423,0,0,1,86.4,135.636c10.3-11.446,20.245-18.868,29.574-22.057,3.589-1.227,8.952-2.83,14.109-2.579,7.446.361,14.356,3.321,21.04,6.186l1.957.835c5.279,2.239,10.581,4.629,15.709,6.941,6.149,2.772,12.509,5.638,18.839,8.249,4.513,1.861,9.317,3.664,15.119,5.672,9.97,3.453,16.523,2.722,20.617-2.3l.393-.482c1.6-1.957,3.25-3.981,4.646-6.071a41.412,41.412,0,0,0,2.653-4.873c.5-1.032,1.009-2.064,1.559-3.073,4.033-7.392,8.454-7.934,11.45-7.089,5.662,1.6,5.484,7.765,5.376,11.448-.015.527-.03,1.033-.03,1.5v24.428c0,7.933-4.62,13.385-13.009,15.352-2.348.55-4.753.954-7.079,1.344-1.395.234-2.788.467-4.168.732-5.5,1.056-11.914,2.127-18.114,3.162-2.178.364-4.292.718-6.273,1.055l-.7-4.02c1.985-.338,4.1-.691,6.286-1.056,6.175-1.032,12.56-2.1,18.016-3.145,1.411-.271,2.837-.51,4.263-.749,2.262-.379,4.6-.771,6.818-1.291,6.53-1.531,9.84-5.362,9.84-11.384V127.949c0-.507.016-1.053.032-1.622.132-4.525-.193-6.787-2.389-7.409-2.811-.79-5.191,2.34-6.7,5.105-.521.956-1,1.934-1.478,2.912a44.8,44.8,0,0,1-2.925,5.347c-1.505,2.252-3.219,4.353-4.878,6.384l-.392.481c-7.825,9.6-20.885,5.07-25.18,3.585-5.879-2.035-10.754-3.865-15.342-5.756-6.393-2.635-12.783-5.516-18.963-8.3-5.107-2.3-10.387-4.682-15.623-6.9l-1.972-.841c-6.345-2.719-12.907-5.531-19.606-5.856-4.444-.2-9.3,1.244-12.564,2.361-8.655,2.959-18.023,10-27.843,20.915A20.3,20.3,0,0,0,84.648,156a12.975,12.975,0,0,0,1.963,4.367c1.914,2.852,5,5.707,9.435,8.729a58.344,58.344,0,0,0,15.317,7.334,64.109,64.109,0,0,0,11.528,2.631c5.872.718,22.575-.758,47.037-4.154l.572,4.039C155.473,181.03,136.748,183.31,126.671,183.31Z" transform="translate(-80.101 -96.078)" fill="#272525"/>
            <path id="Trazado_161656" data-name="Trazado 161656" d="M231.494,215.878a13.206,13.206,0,0,1-2.99-.347,48.909,48.909,0,0,1-13.6-5.271c-5.264-2.775-11.771-7.515-16.077-10.651-.956-.7-2.093-1.5-3.321-2.378-3.964-2.819-8.9-6.328-11.8-8.954-3.237-2.927-5.8-5.426-8.277-7.843-2.258-2.2-4.593-4.479-7.475-7.118a2.113,2.113,0,0,1,1.427-3.671h41.518a2.115,2.115,0,0,1,1.566.694l16.713,18.3c.742.813,1.511,1.6,2.279,2.391.878.9,1.755,1.8,2.6,2.737a53.863,53.863,0,0,1,5.983,8.344c2.5,4.27,1.922,8.645-1.511,11.419A11.152,11.152,0,0,1,231.494,215.878ZM174.718,173.87c1.282,1.228,2.477,2.393,3.652,3.539,2.562,2.5,4.983,4.86,8.16,7.733,2.722,2.461,7.545,5.889,11.421,8.645,1.243.883,2.393,1.7,3.361,2.406,4.207,3.065,10.566,7.7,15.56,10.329a44.772,44.772,0,0,0,12.591,4.893,7.522,7.522,0,0,0,6.4-1.167c2.262-1.829,1.53-4.271.519-6a50.138,50.138,0,0,0-5.475-7.65c-.805-.894-1.646-1.756-2.485-2.618-.8-.822-1.6-1.643-2.374-2.49L209.959,173.87Z" transform="translate(-108.417 -115.911)" fill="#272525"/>
            <path id="Trazado_161657" data-name="Trazado 161657" d="M249.64,138.045l-3.918-1.583c3.738-9.249,8.39-20.761,12.04-32.016l.33-1.009a55.533,55.533,0,0,0,1.81-6.365c.191-.971-.093-1.323-.2-1.455-.516-.637-2.056-1.411-6.469-1.478-4.607-.074-10.91-.165-14.486,3.138a45.659,45.659,0,0,0-4.85,5.529c-1.438,1.841-2.91,3.656-4.384,5.471q-1.092,1.347-2.18,2.7l-11.578,14.4-3.293-2.648,11.578-14.4q1.092-1.359,2.193-2.712c1.456-1.795,2.913-3.589,4.335-5.409a49.154,49.154,0,0,1,5.313-6.032c4.816-4.451,12.1-4.34,17.417-4.26,3.407.052,7.587.446,9.69,3.046a5.757,5.757,0,0,1,1.061,4.93,58.551,58.551,0,0,1-1.94,6.863l-.326,1C258.087,117.146,253.4,128.734,249.64,138.045Z" transform="translate(-122.335 -89.891)" fill="#272525"/>
            <path id="Trazado_161658" data-name="Trazado 161658" d="M133.718,153.247H85.14v-4.226h48.578a3.341,3.341,0,0,0,3.338-3.338v-5.841a3.341,3.341,0,0,0-3.338-3.338h-34.6v-4.226h34.6a7.572,7.572,0,0,1,7.564,7.564v5.841A7.572,7.572,0,0,1,133.718,153.247Z" transform="translate(-81.58 -103.29)" fill="#272525"/>
            <rect id="Rectángulo_40747" data-name="Rectángulo 40747" width="4.226" height="15.301" transform="translate(22.339 31.101)" fill="#272525"/>
            <rect id="Rectángulo_40748" data-name="Rectángulo 40748" width="4.226" height="15.301" transform="translate(36.513 31.101)" fill="#272525"/>
            <path id="Trazado_161659" data-name="Trazado 161659" d="M231.136,196.785c-.8-.822-1.6-1.644-2.374-2.491l-16.089-17.622H177.432c1.282,1.227,2.477,2.392,3.652,3.538,2.562,2.5,4.983,4.86,8.16,7.733,2.722,2.461,7.545,5.89,11.421,8.645,1.242.883,2.393,1.7,3.361,2.406,4.207,3.065,10.566,7.7,15.56,10.329a44.776,44.776,0,0,0,12.591,4.893,7.524,7.524,0,0,0,6.4-1.167c2.262-1.829,1.53-4.271.519-6a50.106,50.106,0,0,0-5.475-7.65C232.816,198.509,231.975,197.647,231.136,196.785Z" transform="translate(-111.401 -117.974)" fill="#a7e446"/>
            <path id="Trazado_161660" data-name="Trazado 161660" d="M260.562,106.284l.329-1.009a55.533,55.533,0,0,0,1.81-6.365c.192-.971-.093-1.323-.2-1.455-.516-.637-2.057-1.411-6.47-1.478-4.607-.074-10.91-.165-14.485,3.138a45.719,45.719,0,0,0-4.85,5.529c-1.438,1.841-2.91,3.656-4.383,5.471q-1.093,1.347-2.181,2.7L220.6,124.667c3.808,1.708,7.651,3.4,11.489,5,4.631,1.928,9.561,3.8,15.515,5.877.61.213,1.2.408,1.789.591C252.967,127.286,257.191,116.678,260.562,106.284Z" transform="translate(-124.672 -91.67)" fill="#a7e446"/>
            <path id="Trazado_161661" data-name="Trazado 161661" d="M150.146,150.859a3.342,3.342,0,0,0,3.338-3.338v-5.841a3.342,3.342,0,0,0-3.338-3.338h-10.42v12.516Z" transform="translate(-98.765 -105.103)" fill="#a7e446"/>
            <g id="Grupo_116739" data-name="Grupo 116739" transform="translate(7.561 33.24)">
              <path id="Trazado_161662" data-name="Trazado 161662" d="M105.991,138.343h-3.776a120.852,120.852,0,0,0-8.939,9.086,21.061,21.061,0,0,0-2.473,3.43h15.188Z" transform="translate(-90.803 -138.343)" fill="#a7e446"/>
              <rect id="Rectángulo_40749" data-name="Rectángulo 40749" width="10.927" height="12.516" transform="translate(19.414 0)" fill="#a7e446"/>
            </g>
          </g>
        </g>
      </g>
    </g>
  </g>
</svg>
