<svg xmlns="http://www.w3.org/2000/svg" width="413" height="247" viewBox="0 0 413 247">
  <g id="Grupo_117488" data-name="Grupo 117488" transform="translate(-915 -911)">
    <rect id="Image_Place_Holder" data-name="Image Place Holder" width="413" height="247" transform="translate(1328 1158) rotate(180)" fill="#d9eaea"/>
    <g id="Grupo_116885" data-name="Grupo 116885" transform="translate(0 12)">
      <g id="Grupo_116845" data-name="Grupo 116845" transform="translate(20 16.666)">
        <g id="Grupo_116844" data-name="Grupo 116844" transform="translate(1105 958)">
          <g id="Grupo_116842" data-name="Grupo 116842" transform="translate(5.293 58.77)">
            <path id="Trazado_161894" data-name="Trazado 161894" d="M681.556,547.376l19.25,48.155H647.679l-.449-1.112-9.769-24.459,11.679-29.105c1.849,3.573,3.123,5.1,5.047,5.1a6.275,6.275,0,0,0,2.361-.624,12.67,12.67,0,0,1,5.1-1.087c3.36,0,4.484,1.674,6.184,4.21A16.791,16.791,0,0,0,673.5,554.3a1.552,1.552,0,0,0,.737.2,1.524,1.524,0,0,0,1.024-.412A82.129,82.129,0,0,0,681.556,547.376Z" transform="translate(-571.005 -540.856)" fill="#12263f"/>
            <path id="Trazado_161895" data-name="Trazado 161895" d="M579.908,570.635l10.018,24.958H516.462l19.25-48.155a84.522,84.522,0,0,0,6.308,6.708,1.526,1.526,0,0,0,1.024.412,1.549,1.549,0,0,0,.737-.2,16.905,16.905,0,0,0,5.671-5.846,12.761,12.761,0,0,1,2.485-3.06,5.76,5.76,0,0,1,3.835-1.15,12.6,12.6,0,0,1,4.959,1.087,6.153,6.153,0,0,0,2.361.624c1.9,0,3.16-1.5,5.009-5.022l11.73,29.318A1.365,1.365,0,0,0,579.908,570.635Z" transform="translate(-516.462 -540.917)" fill="#12263f"/>
          </g>
          <g id="Grupo_116843" data-name="Grupo 116843" transform="translate(0 0)">
            <path id="Trazado_161896" data-name="Trazado 161896" d="M709.041,598.642a1.52,1.52,0,0,1-.15,1.387,1.474,1.474,0,0,1-1.237.649h-56.3a1.482,1.482,0,0,0,1.486-1.486,1.434,1.434,0,0,0-.237-.8l-.275-.687h53.127L686.206,549.55c.549-.637,1.086-1.3,1.611-1.961a1.452,1.452,0,0,0,.237-1.449Z" transform="translate(-571.974 -484.468)"/>
            <path id="Trazado_161897" data-name="Trazado 161897" d="M675.115,468.211l-7.995,19.924a1.718,1.718,0,0,0-.125-.65l-1.449-3.335,8.194-20.5a1.485,1.485,0,0,1,2.76,0l17.938,44.857c0,.013.013.013.013.025a1.452,1.452,0,0,1-.237,1.449c-.525.662-1.062,1.324-1.611,1.961l-1.25-3.136Z" transform="translate(-578.372 -446.863)"/>
            <path id="Trazado_161898" data-name="Trazado 161898" d="M686.956,530.349l1.249,3.135a82.205,82.205,0,0,1-6.3,6.708,1.524,1.524,0,0,1-1.024.412,1.549,1.549,0,0,1-.737-.2,16.79,16.79,0,0,1-5.671-5.846c-1.7-2.536-2.823-4.21-6.183-4.21a12.68,12.68,0,0,0-5.1,1.087,6.275,6.275,0,0,1-2.361.624c-1.923,0-3.2-1.524-5.046-5.1l6.558-16.352a.6.6,0,0,0,.075-.113L657.3,523.341l.275.562c2.211,4.51,3,5.184,3.26,5.184a5.168,5.168,0,0,0,1.237-.4,15.3,15.3,0,0,1,6.033-1.312h.188c4.946,0,6.832,2.811,8.656,5.534a15.715,15.715,0,0,0,3.747,4.31A81.8,81.8,0,0,0,686.956,530.349Z" transform="translate(-573.974 -468.403)"/>
            <path id="Trazado_161899" data-name="Trazado 161899" d="M676.4,472.722l-8.007,20.049c0-.037.012-.075.012-.125Z" transform="translate(-579.653 -451.373)"/>
            <path id="Trazado_161900" data-name="Trazado 161900" d="M673.73,464.421l-8.194,20.5-.012-.037Z" transform="translate(-578.361 -447.632)"/>
            <path id="Trazado_161901" data-name="Trazado 161901" d="M665.713,505.079a1.719,1.719,0,0,1,.125.65l-.375.937a1.551,1.551,0,0,1-.525.375,1.5,1.5,0,0,1-1.961-.774l-.275-.625,1.562-3.9Z" transform="translate(-577.09 -464.456)"/>
            <path id="Trazado_161902" data-name="Trazado 161902" d="M667.729,509.936,668.1,509c0,.05-.012.087-.012.125l-.287.7A.6.6,0,0,1,667.729,509.936Z" transform="translate(-579.356 -467.726)"/>
            <path id="Trazado_161903" data-name="Trazado 161903" d="M667.866,509.926l.287-.7A1.392,1.392,0,0,1,667.866,509.926Z" transform="translate(-579.417 -467.828)"/>
            <path id="Trazado_161904" data-name="Trazado 161904" d="M661.031,509.864l-6.558,16.352c-.287-.537-.575-1.112-.887-1.749l-.562-1.136a1.577,1.577,0,0,1-.05-1.237l5.3-13.254.275.625a1.5,1.5,0,0,0,1.961.774A1.552,1.552,0,0,0,661.031,509.864Z" transform="translate(-572.658 -467.654)"/>
            <path id="Trazado_161905" data-name="Trazado 161905" d="M664.242,501.676l.013.037-1.561,3.9-.013-.05Z" transform="translate(-577.08 -464.425)"/>
            <path id="Trazado_161906" data-name="Trazado 161906" d="M636.843,435.49l15.752,36.351-1.561,3.885-.512-1.162c.25-.438.5-.912.762-1.412l.574-1.1a1.489,1.489,0,0,0,.038-1.262Z" transform="translate(-565.433 -434.59)"/>
            <path id="Trazado_161907" data-name="Trazado 161907" d="M635.584,470.053a1.488,1.488,0,0,1-.038,1.262l-.575,1.1c-.262.5-.512.974-.762,1.411l-15.04-34.752-16.814,38.811a1.475,1.475,0,0,1-.337.488h-.013l-1.349-3.4L617.8,434.752a1.6,1.6,0,0,1,.375-.525,1.624,1.624,0,0,1,.362-.237,1.578,1.578,0,0,1,.637-.138,1.478,1.478,0,0,1,.624.138,1.391,1.391,0,0,1,.362.237,1.442,1.442,0,0,1,.375.525Z" transform="translate(-549.122 -433.852)"/>
            <path id="Trazado_161908" data-name="Trazado 161908" d="M648.675,508.749l.013.049-5.3,13.254a1.577,1.577,0,0,0,.05,1.237l.562,1.136c.312.638.6,1.212.887,1.749l-11.68,29.105-1.6-4.01Z" transform="translate(-563.075 -467.613)"/>
            <path id="Trazado_161909" data-name="Trazado 161909" d="M620.287,443.36l15.04,34.752c-1.937,3.535-3.21,5.034-5.159,5.034a6.5,6.5,0,0,1-2.323-.587,13.366,13.366,0,0,0-4.984-1.024,6.19,6.19,0,0,0-3.873,1.087,12.193,12.193,0,0,0-2.485,2.86,16.288,16.288,0,0,1-5.671,5.484,1.577,1.577,0,0,1-.712.175,1.477,1.477,0,0,1-.987-.375c-1.549-1.386-3.06-2.836-4.5-4.347l-1.337-3.348-.163-.412a1.472,1.472,0,0,0,.337-.488Zm13.4,31.5-13.4-31.454-16.2,38a77.056,77.056,0,0,0,6.221,6.4,15.02,15.02,0,0,0,3.785-4.06c1.811-2.548,3.7-5.184,8.619-5.184h.187a16.067,16.067,0,0,1,6.008,1.224,5.115,5.115,0,0,0,1.262.387c.487,0,1.6-1.636,3.285-4.846Z" transform="translate(-550.239 -438.138)"/>
            <path id="Trazado_161910" data-name="Trazado 161910" d="M642.463,616.436a1.435,1.435,0,0,1,.237.8,1.482,1.482,0,0,1-1.486,1.486h-.025a1.485,1.485,0,0,1-1.387-.924l-.824-2.049h.013l-10.106-25.283a1.413,1.413,0,0,1,.075-.787l1.412-3.51,1.6,4.01-.025.063,9.794,24.4.45,1.112Z" transform="translate(-561.834 -502.512)"/>
            <path id="Trazado_161911" data-name="Trazado 161911" d="M634.5,593.47l9.768,24.459-9.794-24.4Z" transform="translate(-564.367 -505.803)"/>
            <path id="Trazado_161912" data-name="Trazado 161912" d="M586.179,600.689H508.318a1.483,1.483,0,0,1-1.386-2.036l20.986-52.49a1.485,1.485,0,0,0,.225,1.436c.525.662,1.062,1.324,1.611,1.961L510.5,597.716h73.463l.824,2.049A1.485,1.485,0,0,0,586.179,600.689Z" transform="translate(-506.824 -484.479)"/>
            <path id="Trazado_161913" data-name="Trazado 161913" d="M628.905,593.993l10.106,25.283H639L628.98,594.318A1.382,1.382,0,0,1,628.905,593.993Z" transform="translate(-561.855 -506.039)"/>
            <path id="Trazado_161914" data-name="Trazado 161914" d="M617.683,435.49l-17.139,40.223-.137-.325Z" transform="translate(-549.009 -434.59)"/>
            <path id="Trazado_161915" data-name="Trazado 161915" d="M620.765,562.219l-1.411,3.51a1.413,1.413,0,0,0-.075.787L607.548,537.2c.288-.55.6-1.162.925-1.824l.562-1.174a1.451,1.451,0,0,0,.063-1.162Z" transform="translate(-552.228 -478.563)"/>
            <path id="Trazado_161916" data-name="Trazado 161916" d="M580.929,501.339a1.451,1.451,0,0,1-.063,1.162l-.562,1.174c-.325.662-.637,1.274-.925,1.824l-1.474-3.7-13.429-33.59-16.226,40.6-1.262,3.136c-.549-.637-1.086-1.3-1.612-1.961a1.485,1.485,0,0,1-.225-1.436c0-.013.013-.025.013-.038L563.1,463.652a1.479,1.479,0,0,1,1.374-.937,1.5,1.5,0,0,1,1.387.937l9.593,24.009-.887,2.061a1.455,1.455,0,0,0,.7,1.911c1.012,1.2,2.073,2.374,3.173,3.51h.013l2.461,6.159C580.916,501.314,580.929,501.327,580.929,501.339Z" transform="translate(-524.059 -446.863)"/>
            <path id="Trazado_161917" data-name="Trazado 161917" d="M579.49,533.881l1.474,3.7c-1.849,3.523-3.11,5.022-5.009,5.022a6.154,6.154,0,0,1-2.361-.624,12.615,12.615,0,0,0-4.96-1.087,5.758,5.758,0,0,0-3.835,1.149,12.753,12.753,0,0,0-2.486,3.06,16.9,16.9,0,0,1-5.671,5.846,1.548,1.548,0,0,1-.737.2,1.526,1.526,0,0,1-1.024-.412,84.609,84.609,0,0,1-6.308-6.708l1.262-3.135a79.574,79.574,0,0,0,6.246,6.871,15.993,15.993,0,0,0,3.76-4.31c1.823-2.723,3.7-5.534,8.656-5.534h.187a15.29,15.29,0,0,1,6.021,1.312,5.393,5.393,0,0,0,1.249.4c.263,0,1.037-.674,3.261-5.184Z" transform="translate(-525.644 -478.942)"/>
            <path id="Trazado_161918" data-name="Trazado 161918" d="M603.432,515.663l1.337,3.348h-.013Z" transform="translate(-550.372 -470.73)"/>
            <path id="Trazado_161919" data-name="Trazado 161919" d="M601.915,515.325l1.324,3.348c-1.1-1.136-2.161-2.311-3.173-3.51.025.013.037.025.062.038a1.479,1.479,0,0,0,.6.125,1.426,1.426,0,0,0,1.012-.412h.013Z" transform="translate(-548.855 -470.392)"/>
            <path id="Trazado_161920" data-name="Trazado 161920" d="M599.91,508.726l1.349,3.4a1.426,1.426,0,0,1-1.012.412,1.479,1.479,0,0,1-.6-.125c-.025-.013-.037-.025-.062-.038-.087-.087-.163-.175-.237-.262a1.492,1.492,0,0,1-.225-1.549Z" transform="translate(-548.375 -467.603)"/>
            <path id="Trazado_161921" data-name="Trazado 161921" d="M599.711,508.46l-.787,1.836a1.491,1.491,0,0,0,.225,1.549c.075.087.15.175.237.262a1.455,1.455,0,0,1-.7-1.911l.887-2.061Z" transform="translate(-548.176 -467.337)"/>
          </g>
        </g>
      </g>
      <g id="Grupo_116881" data-name="Grupo 116881" transform="translate(1051.489 893.3)">
        <path id="Trazado_161948" data-name="Trazado 161948" d="M127.75,68.486,122.179,50.7l-3.643,17.786-16.714,4.5,16.714,4.5L122.821,94.2l4.286-16.286,16.714-4.5Z" fill="#feca2e"/>
        <g id="Grupo_116868" data-name="Grupo 116868">
          <g id="Grupo_116866" data-name="Grupo 116866">
            <path id="Trazado_161949" data-name="Trazado 161949" d="M127.537,78.258l-.258-1,15.389-3.961-15.4-3.964.258-1,17.345,4.465a.517.517,0,0,1,0,1Z" fill="#272525"/>
          </g>
          <g id="Grupo_116867" data-name="Grupo 116867">
            <path id="Trazado_161950" data-name="Trazado 161950" d="M118.367,78.267,101,73.8a.517.517,0,0,1,0-1l17.361-4.469.258,1L103.2,73.295l15.422,3.97Z" fill="#272525"/>
          </g>
        </g>
        <g id="Grupo_116871" data-name="Grupo 116871">
          <g id="Grupo_116869" data-name="Grupo 116869">
            <rect id="Rect치ngulo_40801" data-name="Rect치ngulo 40801" width="1.034" height="12.609" transform="translate(118.125 69.201) rotate(-44.999)" fill="#272525"/>
          </g>
          <g id="Grupo_116870" data-name="Grupo 116870">
            <rect id="Rect치ngulo_40802" data-name="Rect치ngulo 40802" width="12.569" height="1.034" transform="translate(118.139 77.372) rotate(-45)" fill="#272525"/>
          </g>
        </g>
        <g id="Grupo_116874" data-name="Grupo 116874">
          <g id="Grupo_116872" data-name="Grupo 116872">
            <path id="Trazado_161951" data-name="Trazado 161951" d="M118.97,68.963l-1-.258,4.465-17.345a.517.517,0,0,1,1,0L127.9,68.694l-1,.257-3.961-15.388Z" fill="#272525"/>
          </g>
          <g id="Grupo_116873" data-name="Grupo 116873">
            <path id="Trazado_161952" data-name="Trazado 161952" d="M122.934,95.62a.517.517,0,0,1-.5-.388l-4.469-17.361,1-.258,3.968,15.416,3.97-15.423,1,.258-4.47,17.368A.517.517,0,0,1,122.934,95.62Z" fill="#272525"/>
          </g>
        </g>
        <g id="Grupo_116875" data-name="Grupo 116875">
          <path id="Trazado_161953" data-name="Trazado 161953" d="M122.935,87.177a.517.517,0,0,1-.517-.517v-27.4a.517.517,0,0,1,1.034,0v27.4A.518.518,0,0,1,122.935,87.177Z" fill="#272525"/>
        </g>
        <g id="Grupo_116876" data-name="Grupo 116876">
          <path id="Trazado_161954" data-name="Trazado 161954" d="M136.633,73.479h-27.4a.517.517,0,1,1,0-1.034h27.4a.517.517,0,1,1,0,1.034Z" fill="#272525"/>
        </g>
        <path id="Trazado_161955" data-name="Trazado 161955" d="M125.554,85.446a.517.517,0,0,1-.113-1.022,11.456,11.456,0,0,0,8.636-8.627.517.517,0,1,1,1.009.227,12.5,12.5,0,0,1-9.418,9.41A.559.559,0,0,1,125.554,85.446Z" fill="#272525"/>
        <path id="Trazado_161956" data-name="Trazado 161956" d="M134.59,71.2a.517.517,0,0,1-.5-.405,11.454,11.454,0,0,0-8.655-8.669.517.517,0,0,1,.225-1.009,12.486,12.486,0,0,1,9.439,9.454.517.517,0,0,1-.393.617A.533.533,0,0,1,134.59,71.2Z" fill="#272525"/>
        <path id="Trazado_161957" data-name="Trazado 161957" d="M111.275,71.2a.541.541,0,0,1-.112-.012.517.517,0,0,1-.393-.617,12.488,12.488,0,0,1,9.441-9.453.517.517,0,0,1,.225,1.01,11.448,11.448,0,0,0-8.656,8.667A.518.518,0,0,1,111.275,71.2Z" fill="#272525"/>
        <path id="Trazado_161958" data-name="Trazado 161958" d="M120.315,85.447a.549.549,0,0,1-.113-.012,12.5,12.5,0,0,1-9.423-9.411.517.517,0,0,1,1.009-.227,11.456,11.456,0,0,0,8.64,8.628.517.517,0,0,1-.113,1.022Z" fill="#272525"/>
        <g id="Grupo_116877" data-name="Grupo 116877">
          <path id="Trazado_161959" data-name="Trazado 161959" d="M118.489,69.343a.516.516,0,0,1-.366-.152L111.235,62.3a.517.517,0,1,1,.732-.731l6.887,6.887a.518.518,0,0,1-.365.883Z" fill="#272525"/>
        </g>
        <g id="Grupo_116878" data-name="Grupo 116878">
          <path id="Trazado_161960" data-name="Trazado 161960" d="M134.209,85.063a.514.514,0,0,1-.365-.151l-6.888-6.888a.517.517,0,0,1,.731-.731l6.888,6.888a.517.517,0,0,1-.366.882Z" fill="#272525"/>
        </g>
        <g id="Grupo_116879" data-name="Grupo 116879">
          <path id="Trazado_161961" data-name="Trazado 161961" d="M127.321,69.343a.518.518,0,0,1-.365-.883l6.888-6.887a.517.517,0,1,1,.731.731l-6.888,6.887A.516.516,0,0,1,127.321,69.343Z" fill="#272525"/>
        </g>
        <g id="Grupo_116880" data-name="Grupo 116880">
          <path id="Trazado_161962" data-name="Trazado 161962" d="M111.6,85.063a.517.517,0,0,1-.366-.882l6.888-6.888a.517.517,0,0,1,.731.731l-6.887,6.888A.516.516,0,0,1,111.6,85.063Z" fill="#272525"/>
        </g>
      </g>
      <g id="Grupo_116883" data-name="Grupo 116883" transform="translate(1051.489 893.3)">
        <path id="Trazado_161963" data-name="Trazado 161963" d="M172.428,60.278c-.028,0-.057,0-.085,0l-.088,0a.52.52,0,0,1-.519-.373,4.463,4.463,0,0,0-8.268-.785.516.516,0,0,1-.7.222,3.079,3.079,0,0,0-1.458-.363,3.122,3.122,0,0,0-3.118,3.106v.025a.517.517,0,0,1-.48.515,2.873,2.873,0,0,0,.129,5.738.491.491,0,0,1,.055,0h14.535a4.049,4.049,0,1,0,0-8.1Z" fill="#dff7f9"/>
        <g id="Grupo_116882" data-name="Grupo 116882">
          <path id="Trazado_161964" data-name="Trazado 161964" d="M172.429,69.41h-14.6a.5.5,0,0,1-.087-.007,3.906,3.906,0,0,1-.559-7.74,4.15,4.15,0,0,1,5.612-3.434,5.5,5.5,0,0,1,9.815,1.018,5.083,5.083,0,0,1-.176,10.163Zm-14.536-1.034h14.536a4.049,4.049,0,0,0,0-8.1c-.029,0-.058,0-.086,0l-.089,0a.521.521,0,0,1-.518-.373,4.463,4.463,0,0,0-8.268-.785.516.516,0,0,1-.7.222,3.118,3.118,0,0,0-4.576,2.743v.025a.517.517,0,0,1-.48.515,2.873,2.873,0,0,0,.129,5.738A.491.491,0,0,1,157.893,68.376Z" fill="#272525"/>
        </g>
      </g>
      <g id="Grupo_116884" data-name="Grupo 116884" transform="translate(1067.489 914.135)">
        <path id="Trazado_161963-2" data-name="Trazado 161963" d="M172.428,60.278c-.028,0-.057,0-.085,0l-.088,0a.52.52,0,0,1-.519-.373,4.463,4.463,0,0,0-8.268-.785.516.516,0,0,1-.7.222,3.079,3.079,0,0,0-1.458-.363,3.122,3.122,0,0,0-3.118,3.106v.025a.517.517,0,0,1-.48.515,2.873,2.873,0,0,0,.129,5.738.491.491,0,0,1,.055,0h14.535a4.049,4.049,0,1,0,0-8.1Z" fill="#dff7f9"/>
        <g id="Grupo_116882-2" data-name="Grupo 116882">
          <path id="Trazado_161964-2" data-name="Trazado 161964" d="M172.429,69.41h-14.6a.5.5,0,0,1-.087-.007,3.906,3.906,0,0,1-.559-7.74,4.15,4.15,0,0,1,5.612-3.434,5.5,5.5,0,0,1,9.815,1.018,5.083,5.083,0,0,1-.176,10.163Zm-14.536-1.034h14.536a4.049,4.049,0,0,0,0-8.1c-.029,0-.058,0-.086,0l-.089,0a.521.521,0,0,1-.518-.373,4.463,4.463,0,0,0-8.268-.785.516.516,0,0,1-.7.222,3.118,3.118,0,0,0-4.576,2.743v.025a.517.517,0,0,1-.48.515,2.873,2.873,0,0,0,.129,5.738A.491.491,0,0,1,157.893,68.376Z" fill="#272525"/>
        </g>
      </g>
    </g>
  </g>
</svg>
