<svg xmlns="http://www.w3.org/2000/svg" width="101.154" height="84.929" viewBox="0 0 101.154 84.929">
  <g id="Grupo_117487" data-name="Grupo 117487" transform="translate(-228.947 -1387)">
    <g id="Grupo_116865" data-name="Grupo 116865" transform="translate(-9.178 1156.965)">
      <path id="Trazado_161922" data-name="Trazado 161922" d="M275.222,239.529h-4.169a3.138,3.138,0,0,0-3.135,3.135v4.2A3.138,3.138,0,0,0,271.053,250h4.169Z" transform="translate(4.433 1.413)" fill="#a7e446"/>
      <path id="Trazado_161923" data-name="Trazado 161923" d="M274.532,238.043V231.8a1.912,1.912,0,0,0-1.975,1.7v2.854A1.911,1.911,0,0,0,274.532,238.043Z" transform="translate(5.123 0.262)" fill="#a7e446"/>
      <path id="Trazado_161924" data-name="Trazado 161924" d="M283.5,272.8h7.541c1.784,0,3.569.023,5.355.045,1.945.025,3.9.047,5.831.044a2.829,2.829,0,0,0,2.263-.705c.532-.8.06-2.262-.321-3.435l-.171-.539c-.224-.725-.433-1.456-.642-2.186-.327-1.144-.665-2.326-1.056-3.444-1.438-4.124-3.33-6.129-5.785-6.129H283.5Z" transform="translate(6.752 3.931)" fill="#feca2e" stroke="#000" stroke-miterlimit="10" stroke-width="2"/>
      <path id="Trazado_161925" data-name="Trazado 161925" d="M265.241,272.89c1.941,0,3.885-.018,5.83-.044,1.785-.022,3.57-.045,5.356-.045h7.54v-16.35H270.952c-2.455,0-4.347,2-5.785,6.129-.391,1.119-.728,2.3-1.056,3.445-.208.731-.418,1.461-.641,2.185l-.172.539c-.38,1.173-.852,2.633-.319,3.435A2.827,2.827,0,0,0,265.241,272.89Z" transform="translate(3.662 3.931)" fill="#feca2e" stroke="#000" stroke-miterlimit="10" stroke-width="2"/>
      <path id="Trazado_161926" data-name="Trazado 161926" d="M255.774,292.451v.126a10.745,10.745,0,0,1,14.651-.126H307.45a10.742,10.742,0,0,1,14.513,0h6.363v-5.729a1.313,1.313,0,0,1,1.313-1.313h5.333c-.093-.348-.183-.685-.26-.993-.594-2.385-1.546-5.349-3.645-7.112a9.4,9.4,0,0,0-1.862-1.18,9.581,9.581,0,0,0-3.076-.747,11.961,11.961,0,0,1-4.049-1.059,10.264,10.264,0,0,1-4.759-5.13c-.5-1.11-.925-2.247-1.334-3.346-.2-.539-.4-1.079-.611-1.614-.384-.981-.726-1.984-1.058-2.954a34.888,34.888,0,0,0-2.21-5.452c-.913-1.678-2.722-3.836-4.811-4.393a13.22,13.22,0,0,0-3.333-.5H276.307c-5.294,0-7.69,1.158-8.768,2.13a14.85,14.85,0,0,0-2.687,3.387,25.559,25.559,0,0,0-2.2,5.189c-.287.842-.584,1.713-.928,2.594-.213.541-.416,1.087-.619,1.632a36.2,36.2,0,0,1-2.323,5.327,8.674,8.674,0,0,1-6.569,4.294c-.456.072-.9.13-1.343.187-1.915.252-3.427.449-4.839,1.636-2.98,2.5-4.134,7.064-4.578,10.448-.085.643-.207,1.331-.333,2.044-.157.889-.31,1.784-.408,2.655Zm31.109-8.864h-6.3a1.313,1.313,0,1,1,0-2.625h6.3a1.313,1.313,0,1,1,0,2.625Zm-22.806-14.824.161-.5c.218-.708.422-1.42.626-2.133.337-1.179.686-2.4,1.1-3.588,1.825-5.235,4.607-7.89,8.264-7.89h28.655c3.658,0,6.439,2.655,8.266,7.89.415,1.189.763,2.408,1.1,3.587.2.713.408,1.427.627,2.134l.161.5c.524,1.621,1.243,3.839.008,5.7-.813,1.223-2.349,1.873-4.444,1.878h-.518c-1.783,0-3.567-.022-5.351-.044s-3.549-.045-5.322-.045H279.7c-1.774,0-3.549.022-5.322.045-1.959.023-3.914.048-5.87.044-2.093-.006-3.629-.655-4.444-1.878C262.834,272.6,263.553,270.384,264.078,268.763Z" transform="translate(0.384 3.109)" fill="#fc4b52"/>
      <path id="Trazado_161927" data-name="Trazado 161927" d="M293.169,239.529h-1.66V250h3.706a3.138,3.138,0,0,0,3.135-3.135v-4.2a3.138,3.138,0,0,0-3.135-3.135Z" transform="translate(7.943 1.413)" fill="#a7e446"/>
      <path id="Trazado_161928" data-name="Trazado 161928" d="M319.264,287.645h5.482a28.441,28.441,0,0,0-.778-4.416h-4.7Z" transform="translate(12.073 7.915)" fill="#a7e446"/>
      <path id="Trazado_161929" data-name="Trazado 161929" d="M291.108,239.529H276.561V250h14.547Zm-2.95,6.548h-8.065a1.313,1.313,0,0,1,0-2.626h8.065a1.313,1.313,0,1,1,0,2.626Z" transform="translate(5.719 1.413)" fill="#a7e446"/>
      <rect id="Rectángulo_40793" data-name="Rectángulo 40793" width="14.546" height="6.269" transform="translate(282.28 232.047)" fill="#a7e446"/>
      <path id="Trazado_161930" data-name="Trazado 161930" d="M291.509,238.056h1.66a1.946,1.946,0,0,0,2.114-1.708v-2.854a1.946,1.946,0,0,0-2.114-1.707h-1.66Z" transform="translate(7.943 0.261)" fill="#a7e446"/>
      <path id="Trazado_161931" data-name="Trazado 161931" d="M261.32,286.9a8.181,8.181,0,1,0,8.181,8.181A8.191,8.191,0,0,0,261.32,286.9Zm0,14.168a5.988,5.988,0,1,1,5.987-5.987A5.994,5.994,0,0,1,261.32,301.07Z" transform="translate(2.234 8.461)" fill="#a7e446"/>
      <path id="Trazado_161932" data-name="Trazado 161932" d="M306.183,286.9a8.181,8.181,0,1,0,8.179,8.181A8.19,8.19,0,0,0,306.183,286.9Zm0,14.168a5.988,5.988,0,1,1,5.987-5.987A5.994,5.994,0,0,1,306.183,301.07Z" transform="translate(8.909 8.461)" fill="#a7e446"/>
      <path id="Trazado_161933" data-name="Trazado 161933" d="M313.28,289.359a10.693,10.693,0,0,1,1.346,4.045h4.319c2.128,0,3.808,0,5.22-1.171a4.426,4.426,0,0,0,1.437-2.874Z" transform="translate(11.182 8.827)" fill="#12263f"/>
      <path id="Trazado_161934" data-name="Trazado 161934" d="M305.559,291.1a3.363,3.363,0,1,0,3.361,3.362A3.366,3.366,0,0,0,305.559,291.1Z" transform="translate(9.533 9.085)" fill="#a7e446"/>
      <path id="Trazado_161935" data-name="Trazado 161935" d="M301.213,289.359h-32.8a10.715,10.715,0,0,1,1.348,4.045h30.1A10.716,10.716,0,0,1,301.213,289.359Z" transform="translate(4.507 8.827)" fill="#12263f"/>
      <path id="Trazado_161936" data-name="Trazado 161936" d="M260.7,291.1a3.363,3.363,0,1,0,3.363,3.362A3.366,3.366,0,0,0,260.7,291.1Z" transform="translate(2.858 9.085)" fill="#a7e446"/>
      <g id="Grupo_116864" data-name="Grupo 116864" transform="translate(238.125 230.035)">
        <g id="Grupo_116846" data-name="Grupo 116846" transform="translate(0 21.99)">
          <path id="Trazado_161937" data-name="Trazado 161937" d="M329.89,302.622h-5.545V300h5.545c2.128,0,3.807,0,5.219-1.171,1.125-.933,1.626-2.515,1.534-4.835a34.2,34.2,0,0,0-1.382-7.172c-.148-.551-.287-1.064-.4-1.528-.6-2.385-1.546-5.349-3.646-7.112A9.37,9.37,0,0,0,329.35,277a9.573,9.573,0,0,0-3.076-.747,11.969,11.969,0,0,1-4.049-1.059,10.264,10.264,0,0,1-4.759-5.131c-.5-1.11-.925-2.247-1.334-3.346-.2-.539-.4-1.079-.61-1.614-.384-.981-.727-1.984-1.059-2.954a34.935,34.935,0,0,0-2.21-5.452c-.913-1.678-2.721-3.836-4.811-4.393a13.213,13.213,0,0,0-3.333-.5H276.453c-5.295,0-7.691,1.158-8.769,2.13A14.849,14.849,0,0,0,265,257.318a25.652,25.652,0,0,0-2.2,5.189c-.286.842-.584,1.713-.928,2.594-.211.541-.415,1.087-.619,1.632a36.268,36.268,0,0,1-2.322,5.327,8.678,8.678,0,0,1-6.57,4.294c-.456.072-.9.131-1.342.187-1.915.252-3.428.449-4.84,1.636-2.979,2.5-4.133,7.064-4.578,10.448-.084.643-.206,1.331-.332,2.044-.557,3.133-1.134,6.373,1.014,8.155C243.689,300,245.369,300,247.5,300h5.738v2.626H247.5c-2.338,0-4.755,0-6.9-1.776-3.325-2.758-2.548-7.126-1.924-10.635.119-.671.236-1.32.315-1.925.5-3.846,1.867-9.071,5.492-12.117,2-1.681,4.129-1.959,6.187-2.229.417-.054.841-.109,1.274-.178a6.1,6.1,0,0,0,4.7-3,33.747,33.747,0,0,0,2.146-4.947c.208-.559.417-1.118.633-1.673.324-.826.611-1.669.889-2.484a27.961,27.961,0,0,1,2.445-5.7,17.406,17.406,0,0,1,3.174-3.977c2.064-1.861,5.606-2.8,10.526-2.8h27.656a15.567,15.567,0,0,1,4.008.588c2.892.771,5.224,3.437,6.441,5.675a37.352,37.352,0,0,1,2.387,5.858c.324.943.657,1.918,1.02,2.847.216.549.422,1.1.627,1.655.411,1.107.8,2.153,1.265,3.18a7.628,7.628,0,0,0,3.567,3.877,9.658,9.658,0,0,0,3.195.792,11.717,11.717,0,0,1,3.91,1,11.876,11.876,0,0,1,2.372,1.515c2.678,2.249,3.814,5.717,4.5,8.487.111.449.246.947.389,1.48a36.245,36.245,0,0,1,1.47,7.752c.125,3.149-.71,5.49-2.48,6.959C334.645,302.622,332.228,302.622,329.89,302.622Z" transform="translate(-238.125 -249.177)" fill="#272525"/>
        </g>
        <g id="Grupo_116847" data-name="Grupo 116847" transform="translate(34.097 72.81)">
          <rect id="Rectángulo_40794" data-name="Rectángulo 40794" width="33.138" height="2.626" fill="#272525"/>
        </g>
        <g id="Grupo_116848" data-name="Grupo 116848" transform="translate(25.408 28.335)">
          <path id="Trazado_161938" data-name="Trazado 161938" d="M304.94,276.39c-1.783,0-3.568-.022-5.352-.044s-3.549-.045-5.322-.045H276.559c-1.774,0-3.547.022-5.322.045-1.958.024-3.914.048-5.87.044-2.093-.006-3.629-.655-4.444-1.878-1.234-1.858-.516-4.076.009-5.7l.161-.5c.218-.708.423-1.42.626-2.133.338-1.179.686-2.4,1.1-3.588,1.825-5.235,4.607-7.89,8.266-7.89H299.74c3.659,0,6.439,2.655,8.266,7.89.415,1.189.763,2.408,1.1,3.586.2.713.407,1.427.626,2.134l.161.5c.525,1.621,1.243,3.839.008,5.7-.812,1.223-2.349,1.872-4.444,1.878Zm-33.855-19.064c-2.455,0-4.348,2-5.785,6.129-.391,1.119-.729,2.3-1.056,3.445-.209.731-.418,1.461-.642,2.186l-.172.538c-.379,1.173-.852,2.633-.319,3.435a2.828,2.828,0,0,0,2.263.705c1.943,0,3.886-.018,5.831-.044,1.785-.022,3.57-.045,5.355-.045h17.706c1.784,0,3.57.023,5.354.045,1.945.025,3.9.047,5.831.044a2.829,2.829,0,0,0,2.263-.705c.533-.8.06-2.262-.319-3.435l-.172-.538c-.224-.725-.433-1.457-.642-2.187-.327-1.144-.665-2.326-1.055-3.444-1.439-4.124-3.332-6.129-5.786-6.129Z" transform="translate(-260.242 -254.7)" fill="#272525"/>
        </g>
        <g id="Grupo_116849" data-name="Grupo 116849" transform="translate(65.921 63.317)">
          <path id="Trazado_161939" data-name="Trazado 161939" d="M306.315,306.763a10.806,10.806,0,1,1,10.806-10.807A10.819,10.819,0,0,1,306.315,306.763Zm0-18.987a8.181,8.181,0,1,0,8.181,8.181A8.19,8.19,0,0,0,306.315,287.776Z" transform="translate(-295.508 -285.151)" fill="#272525"/>
        </g>
        <g id="Grupo_116850" data-name="Grupo 116850" transform="translate(14.384 63.317)">
          <path id="Trazado_161940" data-name="Trazado 161940" d="M261.452,306.763a10.806,10.806,0,1,1,10.807-10.807A10.819,10.819,0,0,1,261.452,306.763Zm0-18.987a8.181,8.181,0,1,0,8.181,8.181A8.19,8.19,0,0,0,261.452,287.776Z" transform="translate(-250.646 -285.151)" fill="#272525"/>
        </g>
        <g id="Grupo_116851" data-name="Grupo 116851" transform="translate(49.266 30.512)">
          <rect id="Rectángulo_40795" data-name="Rectángulo 40795" width="2.626" height="18.115" fill="#272525"/>
        </g>
        <g id="Grupo_116852" data-name="Grupo 116852" transform="translate(41.291 54.649)">
          <path id="Trazado_161941" data-name="Trazado 161941" d="M281.682,280.232h-6.3a1.313,1.313,0,1,1,0-2.626h6.3a1.313,1.313,0,0,1,0,2.626Z" transform="translate(-274.068 -277.606)" fill="#272525"/>
        </g>
        <g id="Grupo_116853" data-name="Grupo 116853" transform="translate(46.136 15.442)">
          <path id="Trazado_161942" data-name="Trazado 161942" d="M287.664,246.1H279.6a1.313,1.313,0,1,1,0-2.626h8.066a1.313,1.313,0,1,1,0,2.626Z" transform="translate(-278.285 -243.477)" fill="#272525"/>
        </g>
        <g id="Grupo_116854" data-name="Grupo 116854" transform="translate(70.739 68.134)">
          <path id="Trazado_161943" data-name="Trazado 161943" d="M305.691,301.32a5.988,5.988,0,1,1,5.987-5.987A6,6,0,0,1,305.691,301.32Zm0-9.35a3.363,3.363,0,1,0,3.362,3.363A3.366,3.366,0,0,0,305.691,291.97Z" transform="translate(-299.702 -289.344)" fill="#12263f"/>
        </g>
        <g id="Grupo_116855" data-name="Grupo 116855" transform="translate(19.202 68.134)">
          <path id="Trazado_161944" data-name="Trazado 161944" d="M260.828,301.32a5.988,5.988,0,1,1,5.989-5.987A5.994,5.994,0,0,1,260.828,301.32Zm0-9.35a3.363,3.363,0,1,0,3.362,3.363A3.366,3.366,0,0,0,260.828,291.97Z" transform="translate(-254.84 -289.344)" fill="#12263f"/>
        </g>
        <g id="Grupo_116856" data-name="Grupo 116856" transform="translate(2.145 66.138)">
          <rect id="Rectángulo_40796" data-name="Rectángulo 40796" width="15.65" height="2.626" fill="#272525"/>
        </g>
        <g id="Grupo_116857" data-name="Grupo 116857" transform="translate(31.941 66.138)">
          <rect id="Rectángulo_40797" data-name="Rectángulo 40797" width="38.036" height="2.626" fill="#272525"/>
        </g>
        <g id="Grupo_116858" data-name="Grupo 116858" transform="translate(83.479 66.138)">
          <rect id="Rectángulo_40798" data-name="Rectángulo 40798" width="16.364" height="2.626" fill="#272525"/>
        </g>
        <g id="Grupo_116859" data-name="Grupo 116859" transform="translate(90.347 59.096)">
          <path id="Trazado_161945" data-name="Trazado 161945" d="M319.4,289.832H316.77V282.79a1.313,1.313,0,0,1,1.313-1.313h7.043V284.1H319.4Z" transform="translate(-316.77 -281.477)" fill="#272525"/>
        </g>
        <g id="Grupo_116860" data-name="Grupo 116860" transform="translate(31.362 8.895)">
          <path id="Trazado_161946" data-name="Trazado 161946" d="M298.858,253.5H271.185a5.766,5.766,0,0,1-5.76-5.76v-4.2a5.766,5.766,0,0,1,5.76-5.76h27.673a5.766,5.766,0,0,1,5.76,5.76v4.2A5.766,5.766,0,0,1,298.858,253.5Zm-27.673-13.1a3.138,3.138,0,0,0-3.135,3.135v4.2a3.138,3.138,0,0,0,3.135,3.135h27.673a3.138,3.138,0,0,0,3.135-3.135v-4.2a3.138,3.138,0,0,0-3.135-3.135Z" transform="translate(-265.425 -237.778)" fill="#272525"/>
        </g>
        <g id="Grupo_116861" data-name="Grupo 116861" transform="translate(36.691)">
          <path id="Trazado_161947" data-name="Trazado 161947" d="M296.121,241.555H274.8a4.554,4.554,0,0,1-4.739-4.333v-2.854a4.554,4.554,0,0,1,4.739-4.333h21.318a4.555,4.555,0,0,1,4.74,4.333v2.854A4.555,4.555,0,0,1,296.121,241.555ZM274.8,232.661a1.946,1.946,0,0,0-2.114,1.707v2.854a1.946,1.946,0,0,0,2.114,1.708h21.318a1.946,1.946,0,0,0,2.114-1.708v-2.854a1.946,1.946,0,0,0-2.114-1.707Z" transform="translate(-270.064 -230.035)" fill="#272525"/>
        </g>
        <g id="Grupo_116862" data-name="Grupo 116862" transform="translate(41.291 1.313)">
          <rect id="Rectángulo_40799" data-name="Rectángulo 40799" width="2.626" height="21.99" fill="#272525"/>
        </g>
        <g id="Grupo_116863" data-name="Grupo 116863" transform="translate(58.463 1.313)">
          <rect id="Rectángulo_40800" data-name="Rectángulo 40800" width="2.626" height="21.99" fill="#272525"/>
        </g>
      </g>
    </g>
  </g>
</svg>
