<svg xmlns="http://www.w3.org/2000/svg" width="464.919" height="206" viewBox="0 0 464.919 206">
  <g id="Grupo_117491" data-name="Grupo 117491" transform="translate(-870.081 -2269.803)">
    <rect id="Image_Place_Holder" data-name="Image Place Holder" width="464.919" height="206" transform="translate(1335 2475.803) rotate(180)" fill="#d9eaea"/>
    <g id="Grupo_116940" data-name="Grupo 116940" transform="translate(-265.693 -41.302)">
      <g id="Grupo_116915" data-name="Grupo 116915" transform="translate(1413.149 2356.11)">
        <g id="Grupo_116888" data-name="Grupo 116888" transform="translate(19.946 11.585)">
          <g id="Grupo_116887" data-name="Grupo 116887">
            <g id="Grupo_116886" data-name="Grupo 116886">
              <path id="Trazado_161965" data-name="Trazado 161965" d="M150.865,182.33l-12.225,0,.348-1.223c2.865-10.059,3.81-50.072,3.816-50.475l-.383-.948h5.188l-.379.928a413.887,413.887,0,0,0,4.585,50.615l.169,1.107Z" transform="translate(-138.64 -129.68)" fill="#12263f"/>
            </g>
          </g>
        </g>
        <g id="Grupo_116890" data-name="Grupo 116890" transform="translate(18.229 63.851)">
          <g id="Grupo_116889" data-name="Grupo 116889">
            <rect id="Rectángulo_40803" data-name="Rectángulo 40803" width="16.956" height="2.696" fill="#feca2e"/>
          </g>
        </g>
        <g id="Grupo_116892" data-name="Grupo 116892" transform="translate(11.61 89.416)">
          <g id="Grupo_116891" data-name="Grupo 116891">
            <rect id="Rectángulo_40804" data-name="Rectángulo 40804" width="30.177" height="2.988" fill="#feca2e"/>
          </g>
        </g>
        <g id="Grupo_116897" data-name="Grupo 116897" transform="translate(13.852 65.736)">
          <g id="Grupo_116894" data-name="Grupo 116894">
            <g id="Grupo_116893" data-name="Grupo 116893">
              <path id="Trazado_161966" data-name="Trazado 161966" d="M138.168,191.018s-3.367,17.03-6.431,23.676l6.423,0s3.889-14.564,4.49-23.676Z" transform="translate(-131.737 -191.018)" fill="#fc4b52"/>
            </g>
          </g>
          <g id="Grupo_116896" data-name="Grupo 116896" transform="translate(14.797 0.003)">
            <g id="Grupo_116895" data-name="Grupo 116895">
              <path id="Trazado_161967" data-name="Trazado 161967" d="M152.98,191.023s3.356,17.031,6.415,23.681l-6.423,0s-3.879-14.566-4.474-23.68Z" transform="translate(-148.498 -191.021)" fill="#fc4b52"/>
            </g>
          </g>
        </g>
        <g id="Grupo_116904" data-name="Grupo 116904" transform="translate(0 90.906)">
          <g id="Grupo_116899" data-name="Grupo 116899" transform="translate(0 1.492)">
            <g id="Grupo_116898" data-name="Grupo 116898">
              <path id="Trazado_161968" data-name="Trazado 161968" d="M127.606,221.22l-11.56,20.911,6.772,0L134.2,221.223Z" transform="translate(-116.046 -221.22)" fill="#12263f"/>
            </g>
          </g>
          <g id="Grupo_116901" data-name="Grupo 116901" transform="translate(35.238 1.5)">
            <g id="Grupo_116900" data-name="Grupo 116900">
              <path id="Trazado_161969" data-name="Trazado 161969" d="M162.56,221.232l11.546,20.918-6.772,0-11.371-20.918Z" transform="translate(-155.962 -221.229)" fill="#12263f"/>
            </g>
          </g>
          <g id="Grupo_116903" data-name="Grupo 116903" transform="translate(9.078)">
            <g id="Grupo_116902" data-name="Grupo 116902">
              <path id="Trazado_161970" data-name="Trazado 161970" d="M162.034,234.628l-2.245-.128c-2.129-5.242-8.4-9.042-15.8-9.044-6.559,0-12.23,2.976-14.92,7.3l-2.736-.155s6.951-13.069,7.25-13.069,21.512.38,21.512.38Z" transform="translate(-126.33 -219.53)" fill="#12263f"/>
            </g>
          </g>
        </g>
        <g id="Grupo_116906" data-name="Grupo 116906" transform="translate(22.649 70.07)">
          <g id="Grupo_116905" data-name="Grupo 116905">
            <rect id="Rectángulo_40805" data-name="Rectángulo 40805" width="7.694" height="1.718" fill="#12263f"/>
          </g>
        </g>
        <g id="Grupo_116908" data-name="Grupo 116908" transform="translate(9.197 101.851)">
          <g id="Grupo_116907" data-name="Grupo 116907">
            <rect id="Rectángulo_40806" data-name="Rectángulo 40806" width="32.16" height="1.718" fill="#12263f"/>
          </g>
        </g>
        <g id="Grupo_116910" data-name="Grupo 116910" transform="translate(9.197 104.973)">
          <g id="Grupo_116909" data-name="Grupo 116909">
            <rect id="Rectángulo_40807" data-name="Rectángulo 40807" width="34.808" height="0.869" fill="#12263f"/>
          </g>
        </g>
        <g id="Grupo_116912" data-name="Grupo 116912" transform="translate(23.719 8.343)">
          <g id="Grupo_116911" data-name="Grupo 116911">
            <path id="Trazado_161971" data-name="Trazado 161971" d="M142.914,129.233l.978-3.226h3.214l.975,3.227Z" transform="translate(-142.914 -126.007)" fill="#fc4b52"/>
          </g>
        </g>
        <g id="Grupo_116914" data-name="Grupo 116914" transform="translate(26.111 0)">
          <g id="Grupo_116913" data-name="Grupo 116913">
            <rect id="Rectángulo_40808" data-name="Rectángulo 40808" width="0.387" height="9.489" fill="#fc4b52"/>
          </g>
        </g>
      </g>
      <g id="Grupo_116935" data-name="Grupo 116935" transform="translate(1463.127 2353.302)">
        <g id="Grupo_116934" data-name="Grupo 116934" transform="translate(0 0)">
          <g id="Grupo_116916" data-name="Grupo 116916" transform="translate(0 41.292)">
            <rect id="Rectángulo_40809" data-name="Rectángulo 40809" width="23.281" height="15.655" fill="#12263f"/>
          </g>
          <g id="Grupo_116917" data-name="Grupo 116917" transform="translate(5.786 43.266)">
            <path id="Trazado_161972" data-name="Trazado 161972" d="M198.924,157.271a5.854,5.854,0,1,1,5.852,5.856A5.855,5.855,0,0,1,198.924,157.271Z" transform="translate(-198.924 -151.419)" fill="#feca2e"/>
          </g>
          <g id="Grupo_116918" data-name="Grupo 116918" transform="translate(2.345 34.034)">
            <rect id="Rectángulo_40810" data-name="Rectángulo 40810" width="18.565" height="7.259" fill="#12263f"/>
          </g>
          <g id="Grupo_116919" data-name="Grupo 116919" transform="translate(2.347 24.197)">
            <path id="Trazado_161973" data-name="Trazado 161973" d="M194.882,138.848l3.449-9.833,11.708,0,3.409,9.835Z" transform="translate(-194.882 -129.015)" fill="#dff7f9"/>
          </g>
          <g id="Grupo_116920" data-name="Grupo 116920" transform="translate(5.797 14.465)">
            <rect id="Rectángulo_40811" data-name="Rectángulo 40811" width="11.733" height="9.734" fill="#12263f"/>
          </g>
          <g id="Grupo_116921" data-name="Grupo 116921" transform="translate(5.432 0)">
            <path id="Trazado_161974" data-name="Trazado 161974" d="M204.379,100.584s-1.03,9.611-5.872,14.463l12.467,0s-4.032-3.323-5.495-14.467Z" transform="translate(-198.507 -100.584)" fill="#fc4b52"/>
          </g>
          <g id="Grupo_116925" data-name="Grupo 116925" transform="translate(8.238 18.027)">
            <g id="Grupo_116922" data-name="Grupo 116922">
              <path id="Trazado_161975" data-name="Trazado 161975" d="M203.18,126.581H201.8l0-4.16a.656.656,0,0,1,.657-.656h.061a.656.656,0,0,1,.656.656Z" transform="translate(-201.805 -121.765)" fill="#ebf3fa"/>
            </g>
            <g id="Grupo_116923" data-name="Grupo 116923" transform="translate(2.667 0.001)">
              <path id="Trazado_161976" data-name="Trazado 161976" d="M206.314,126.582h-1.375l0-4.16a.656.656,0,0,1,.657-.656h.061a.655.655,0,0,1,.656.656Z" transform="translate(-204.939 -121.766)" fill="#ebf3fa"/>
            </g>
            <g id="Grupo_116924" data-name="Grupo 116924" transform="translate(5.473 0.002)">
              <path id="Trazado_161977" data-name="Trazado 161977" d="M209.61,126.583h-1.375l0-4.16a.656.656,0,0,1,.656-.656h.062a.656.656,0,0,1,.656.656Z" transform="translate(-208.235 -121.767)" fill="#ebf3fa"/>
            </g>
          </g>
          <g id="Grupo_116931" data-name="Grupo 116931" transform="translate(4.696 35.735)">
            <g id="Grupo_116926" data-name="Grupo 116926" transform="translate(6.222 0.002)">
              <path id="Trazado_161978" data-name="Trazado 161978" d="M206.655,146.908h-1.7l0-3.641a.694.694,0,0,1,.693-.694h.317a.693.693,0,0,1,.693.693Z" transform="translate(-204.953 -142.573)" fill="#ebf3fa"/>
            </g>
            <g id="Grupo_116927" data-name="Grupo 116927" transform="translate(9.099 0.003)">
              <path id="Trazado_161979" data-name="Trazado 161979" d="M210.035,146.91h-1.7v-3.641a.692.692,0,0,1,.693-.693h.317a.693.693,0,0,1,.693.693Z" transform="translate(-208.334 -142.575)" fill="#ebf3fa"/>
            </g>
            <g id="Grupo_116928" data-name="Grupo 116928" transform="translate(11.859 0.004)">
              <path id="Rectángulo_40812" data-name="Rectángulo 40812" d="M.7,0H1a.7.7,0,0,1,.7.7V4.334a0,0,0,0,1,0,0H0a0,0,0,0,1,0,0V.7A.7.7,0,0,1,.7,0Z" fill="#ebf3fa"/>
            </g>
            <g id="Grupo_116929" data-name="Grupo 116929" transform="translate(3.112 0.001)">
              <path id="Rectángulo_40813" data-name="Rectángulo 40813" d="M.7,0H1a.7.7,0,0,1,.7.7V4.334a0,0,0,0,1,0,0H0a0,0,0,0,1,0,0V.7A.7.7,0,0,1,.7,0Z" fill="#ebf3fa"/>
            </g>
            <g id="Grupo_116930" data-name="Grupo 116930">
              <path id="Trazado_161980" data-name="Trazado 161980" d="M199.345,146.906h-1.7l0-3.641a.692.692,0,0,1,.693-.693h.316a.692.692,0,0,1,.693.694Z" transform="translate(-197.643 -142.571)" fill="#ebf3fa"/>
            </g>
          </g>
          <g id="Grupo_116932" data-name="Grupo 116932" transform="translate(0.766 56.947)">
            <rect id="Rectángulo_40814" data-name="Rectángulo 40814" width="21.274" height="4.415" fill="#feca2e"/>
          </g>
          <g id="Grupo_116933" data-name="Grupo 116933" transform="translate(0.755 61.362)">
            <rect id="Rectángulo_40815" data-name="Rectángulo 40815" width="21.274" height="61.582" fill="#12263f"/>
          </g>
        </g>
      </g>
      <g id="Grupo_116939" data-name="Grupo 116939" transform="translate(1406.693 2438.155)">
        <g id="Grupo_116936" data-name="Grupo 116936" transform="translate(99.952 9.99)">
          <path id="Trazado_161981" data-name="Trazado 161981" d="M773.779,330.986l.007-21.388s-8.688-6.036-22.572-4.511v1.786l-8.771,0-.008,24.1Z" transform="translate(-742.434 -304.84)" fill="#727997"/>
        </g>
        <g id="Grupo_116937" data-name="Grupo 116937" transform="translate(81.554 0)">
          <path id="Trazado_161982" data-name="Trazado 161982" d="M713.748,300.77l-.008,24.608,32.758.011-2.9-7.715.634-.517v-2.2h-.8v-1.569l-3.988.165L737,306.256V304.2h-3.246l-2.133-7.026v-1.843h-1.632l-.894-5.553-1.257-.4a24.343,24.343,0,0,0-14.086,2.879Z" transform="translate(-713.74 -289.259)" fill="#12263f"/>
        </g>
        <g id="Grupo_116938" data-name="Grupo 116938" transform="translate(0 24.486)">
          <path id="Trazado_161983" data-name="Trazado 161983" d="M586.6,343.834s-1.26-9.078,9.371-11.927,13.318,5.43,13.318,5.43,3.637-2.036,6.9-.567c0,0,4.637-4.3,13.341-2.652a12.324,12.324,0,0,1,11.913-6.645c5.45.312,10.343,6.659,10.343,6.659s5.151-7.111,14.393-.918c0,0,4.674-2.747,9.254,0,0,0,4.06-1.373,6.473-.272,0,0,6.08-1.464,9.468,3.393,0,0,8.262-2.475,13.917,1.436a6.9,6.9,0,0,1,4.313-.778,7.213,7.213,0,0,1,5.8,0,4.426,4.426,0,0,1,2.747,4.2s4.178-.768,4.547,2.837Z" transform="translate(-586.549 -327.446)" fill="#aec3ff"/>
        </g>
      </g>
    </g>
  </g>
</svg>
