<svg xmlns="http://www.w3.org/2000/svg" width="420" height="249" viewBox="0 0 420 249">
  <g id="Grupo_117490" data-name="Grupo 117490" transform="translate(-895 -1295)">
    <rect id="Image_Place_Holder" data-name="Image Place Holder" width="420" height="249" transform="translate(1315 1544) rotate(180)" fill="#d9eaea"/>
    <g id="Grupo_117489" data-name="Grupo 117489">
      <g id="Grupo_117127" data-name="Grupo 117127" transform="translate(1148.333 1362.656)">
        <path id="Trazado_162058" data-name="Trazado 162058" d="M174.931,74.707c-.322,1.025-.822.787-.822.787.429-1.227-.012-1.7-.012-1.7-.239.846-.74.762-.74.762a1.916,1.916,0,0,0-.476-1.954,1.5,1.5,0,0,1-.453,1.478c-.226.226-.476-.847-.476-.847a3.352,3.352,0,0,0-.167,3,1.226,1.226,0,0,1-.358-1.073,3.729,3.729,0,0,0-1.012,2.932,2.3,2.3,0,0,0,2.331,1.866,2.51,2.51,0,0,0,2.6-1.795A4.8,4.8,0,0,0,174.931,74.707Z" transform="translate(-170.392 -72.598)" fill="#141227"/>
      </g>
      <g id="Grupo_117128" data-name="Grupo 117128" transform="translate(1151.91 1363.848)">
        <path id="Trazado_162059" data-name="Trazado 162059" d="M176.061,74.948c.079.207.156.435.221.674a1.385,1.385,0,0,0-.158-1.157,1.779,1.779,0,0,1-.129.33C176.018,74.845,176.04,74.895,176.061,74.948Z" transform="translate(-175.996 -74.465)" fill="#ececec" style="mix-blend-mode: multiply;isolation: isolate"/>
      </g>
      <path id="Trazado_162060" data-name="Trazado 162060" d="M212.813,139.774a3.9,3.9,0,0,0-3.029-1.781c-2.251-.375-4-5.409-4-5.409.751,4.5,1.125,15.666,1.125,15.666,3.253,1.584,3.052.2,4.044-2.376s1.158-1.806,1.633-2.739c.251-.5.7-1.531.7-1.531A1.171,1.171,0,0,0,212.813,139.774Z" transform="translate(965.139 1268.359)" fill="#feca2e"/>
      <g id="Grupo_117129" data-name="Grupo 117129" transform="translate(1170.734 1402.756)">
        <path id="Trazado_162061" data-name="Trazado 162061" d="M206.518,135.426a9.3,9.3,0,0,0,.49,1.31,6.73,6.73,0,0,0,.7,1.191,4.486,4.486,0,0,0,.97.968,4.028,4.028,0,0,0,1.249.6,3.1,3.1,0,0,1-1.34-.461,3.913,3.913,0,0,1-1.045-.978,5.325,5.325,0,0,1-.682-1.252A5.408,5.408,0,0,1,206.518,135.426Z" transform="translate(-205.861 -135.426)" fill="#141227"/>
        <path id="Trazado_162062" data-name="Trazado 162062" d="M205.488,137.336a7.589,7.589,0,0,0,.327.781,4.384,4.384,0,0,0,.427.709,2.864,2.864,0,0,0,.571.584,2.722,2.722,0,0,0,.738.387,1.744,1.744,0,0,1-.828-.252,2.27,2.27,0,0,1-.648-.595,3.033,3.033,0,0,1-.41-.77A2.875,2.875,0,0,1,205.488,137.336Z" transform="translate(-205.488 -136.117)" fill="#141227"/>
        <path id="Trazado_162063" data-name="Trazado 162063" d="M209.285,156.381a1.606,1.606,0,0,0,.611.1.824.824,0,0,0,.518-.216,1.586,1.586,0,0,0,.344-.487c.092-.186.166-.386.247-.589a1.983,1.983,0,0,1-.1.65,1.328,1.328,0,0,1-.355.581.94.94,0,0,1-.308.182.871.871,0,0,1-.352.041A1.048,1.048,0,0,1,209.285,156.381Z" transform="translate(-206.862 -142.577)" fill="#141227"/>
      </g>
      <path id="Trazado_162064" data-name="Trazado 162064" d="M209.521,147.377l-5.045-1.862,4.836-10.465,4.753,1.918Z" transform="translate(965.612 1267.467)" fill="#feca2e"/>
      <path id="Trazado_162065" data-name="Trazado 162065" d="M200.178,107.883l5.362.118-5.244.707Z" transform="translate(967.167 1277.295)" fill="#141227"/>
      <path id="Trazado_162066" data-name="Trazado 162066" d="M198.964,104.348l3.528-3.114-4.154,2.4Z" transform="translate(967.832 1279.699)" fill="#141227"/>
      <path id="Trazado_162067" data-name="Trazado 162067" d="M196.191,101.873l2.433-3.44-3.419,3.144Z" transform="translate(968.966 1280.713)" fill="#141227"/>
      <path id="Trazado_162068" data-name="Trazado 162068" d="M183.382,108.033l-5.361.112,5.243.713Z" transform="translate(975.182 1277.24)" fill="#141227"/>
      <path id="Trazado_162069" data-name="Trazado 162069" d="M184.686,105.284l-4.011-2.459,4.505,1.645Z" transform="translate(974.222 1279.123)" fill="#141227"/>
      <path id="Trazado_162070" data-name="Trazado 162070" d="M187.745,102.4l-2.828-3.122,3.771,2.71Z" transform="translate(972.687 1280.408)" fill="#141227"/>
      <path id="Trazado_162071" data-name="Trazado 162071" d="M192.447,100.8l.589-4.36.53,4.36Z" transform="translate(969.964 1281.436)" fill="#141227"/>
      <path id="Trazado_162072" data-name="Trazado 162072" d="M195.391,116.582c-.329-.475-.548-.548-.11-1.864.738-2.217-1.465-4.41-1.465-4.41l-8.077-.063s-2.076,2.256-1.337,4.472c.439,1.316.22,1.389-.109,1.864s-.7,2.3.073,1.9c0,0,1.061-.8.914.073s-1.206,2.34-.841,2.633h10.806c.366-.292-.7-1.756-.842-2.633s.915-.073.915-.073C196.085,118.885,195.72,117.057,195.391,116.582Z" transform="translate(973.051 1276.439)" fill="#141227"/>
      <path id="Trazado_162073" data-name="Trazado 162073" d="M186.62,107.738s-.31-2.833,4.127-2.744c0,0,3.833-.387,3.815,2.72l.758-.56a4.125,4.125,0,0,0-4.461-4.114s-4.516-.366-4.772,4.2Z" transform="translate(972.264 1279.049)" fill="#feca2e"/>
      <path id="Trazado_162074" data-name="Trazado 162074" d="M191.172,106.024c-3.071,0-4.168,1.243-4.058,2.23.062.555.055,2.111.125,4.247a4.5,4.5,0,0,0,2,3.581l-.261,2.794h3.565l-.208-2.716a4.074,4.074,0,0,0,1.97-3.5c.17-2.325.5-2.776.56-3.782C194.932,107.68,194.244,106.024,191.172,106.024Z" transform="translate(971.895 1277.967)" fill="#feca2e"/>
      <path id="Trazado_162075" data-name="Trazado 162075" d="M182.882,121.437a43.76,43.76,0,0,0,6.108.73,5.817,5.817,0,0,1,3.96,1.146,10.054,10.054,0,0,1,2.543,6.692c.177,4.876.5,11.84,1.919,15.008s.917,11.569.917,11.569l-.667.688s1,11.882-.417,17.468c0,0,1.167,4.336.668,6.67A4.968,4.968,0,0,0,200,184.328s-7.72,2.2-11.256-.834c-1.167-1-5.086,2.752-10.255,1.334,0,0,.381-.676.333-4.795-.016-1.365-1.063-3.314-.084-5.461a11.994,11.994,0,0,1,.5-7.838s.667-14.216-.333-15.883c0,0-2.085-5.5-.167-8.672,0,0-3.252-1.084-1.834-4.837,0,0,1.668-3.251,1.418-4.252s-2-1.335-1.084-6.337c0,0-2.5-2.835-1.5-7.838,0,0,2.835-3.752,4.587-3.169A11.755,11.755,0,0,1,182.882,121.437Z" transform="translate(976.095 1274.473)" fill="#feca2e"/>
      <path id="Trazado_162076" data-name="Trazado 162076" d="M180.425,115.754c.4.5-.326,1.764-1.633,2.81s-2.684,1.479-3.1.982c-.311-.373.467-1.672,1.774-2.718S180.02,115.248,180.425,115.754Z" transform="translate(976.049 1274.518)" fill="#feca2e"/>
      <path id="Trazado_162077" data-name="Trazado 162077" d="M174.63,90.84l-1.833.01-.4-6.866,2.567-.011Z" transform="translate(977.217 1285.943)" fill="#0c091a"/>
      <path id="Trazado_162078" data-name="Trazado 162078" d="M177.329,97.832c-.5-2.236-1.338-6.344-1.589-7.072.027-.407.067-.708.067-.708.521-2.4-.485-3.274-.485-3.274l-.245,5.077-1.448.01c.151,1.66.2,3.95.463,5.795.618,4.285,2.174,11.491,2.174,11.491a8.875,8.875,0,0,0,2.876-2.111S177.826,100.074,177.329,97.832Z" transform="translate(976.771 1284.93)" fill="#feca2e"/>
      <g id="Grupo_117130" data-name="Grupo 117130" transform="translate(1149.221 1371.551)">
        <path id="Trazado_162079" data-name="Trazado 162079" d="M173.663,86.8a.261.261,0,0,1-.254.267h-1.372a.261.261,0,0,1-.255-.267h0a.261.261,0,0,1,.255-.267h1.372a.261.261,0,0,1,.254.267Z" transform="translate(-171.783 -86.534)" fill="#feca2e"/>
        <path id="Trazado_162080" data-name="Trazado 162080" d="M173.928,87.664a.284.284,0,0,1-.276.292h-1.488a.284.284,0,0,1-.276-.292h0a.285.285,0,0,1,.276-.294h1.488a.285.285,0,0,1,.276.294Z" transform="translate(-171.821 -86.836)" fill="#feca2e"/>
        <path id="Trazado_162081" data-name="Trazado 162081" d="M173.913,88.6a.274.274,0,0,1-.26.287h-1.4a.274.274,0,0,1-.26-.287h0a.274.274,0,0,1,.26-.287h1.4a.274.274,0,0,1,.26.287Z" transform="translate(-171.859 -87.176)" fill="#feca2e"/>
        <path id="Trazado_162082" data-name="Trazado 162082" d="M173.777,89.5a.244.244,0,0,1-.208.267h-1.118a.243.243,0,0,1-.208-.267h0a.244.244,0,0,1,.208-.267h1.118a.244.244,0,0,1,.208.267Z" transform="translate(-171.949 -87.509)" fill="#feca2e"/>
      </g>
      <g id="Grupo_117131" data-name="Grupo 117131" transform="translate(1163.945 1382.264)">
        <path id="Trazado_162083" data-name="Trazado 162083" d="M198.54,107.443l.927-.513-.782.716Z" transform="translate(-196.186 -104.625)" fill="#141227"/>
        <path id="Trazado_162084" data-name="Trazado 162084" d="M199.073,108.543l.87-.2-.779.436Z" transform="translate(-196.379 -105.135)" fill="#141227"/>
        <path id="Trazado_162085" data-name="Trazado 162085" d="M197.613,106.382l1.009-.889-.826,1.06Z" transform="translate(-195.851 -104.105)" fill="#141227"/>
        <path id="Trazado_162086" data-name="Trazado 162086" d="M196.507,105.63l.9-1.362-.683,1.483Z" transform="translate(-195.451 -103.662)" fill="#141227"/>
        <path id="Trazado_162087" data-name="Trazado 162087" d="M194.852,105.087l.559-1.768-.316,1.828Z" transform="translate(-194.852 -103.319)" fill="#141227"/>
      </g>
      <g id="Grupo_117132" data-name="Grupo 117132" transform="translate(1158.488 1382.221)">
        <path id="Trazado_162088" data-name="Trazado 162088" d="M187.415,107.363l-.592-.769.769.592Z" transform="translate(-186.49 -104.461)" fill="#141227"/>
        <path id="Trazado_162089" data-name="Trazado 162089" d="M186.885,108.444l-.584-.42.693.194Z" transform="translate(-186.301 -104.978)" fill="#141227"/>
        <path id="Trazado_162090" data-name="Trazado 162090" d="M188.4,106.352l-.636-1.153.842,1.012Z" transform="translate(-186.829 -103.956)" fill="#141227"/>
        <path id="Trazado_162091" data-name="Trazado 162091" d="M189.585,105.6l-.374-1.574.612,1.5Z" transform="translate(-187.354 -103.533)" fill="#141227"/>
        <path id="Trazado_162092" data-name="Trazado 162092" d="M191.329,105.061l-.1-1.81.35,1.778Z" transform="translate(-188.083 -103.251)" fill="#141227"/>
      </g>
      <path id="Trazado_162093" data-name="Trazado 162093" d="M193.176,104.923l.125-1.814.125,1.814Z" transform="translate(969.7 1279.021)" fill="#141227"/>
      <path id="Trazado_162094" data-name="Trazado 162094" d="M175.521,121.661s4.32-.812,4.992-5.1c0,0-2.784,4.407-4.867,3.314a4.689,4.689,0,0,0-.119.881C175.509,120.984,175.521,121.661,175.521,121.661Z" transform="translate(976.088 1274.154)" fill="#feca2e"/>
      <path id="Trazado_162095" data-name="Trazado 162095" d="M194.862,108.82c.055-.841-.207-2.77-3.62-2.94,0,0-4.636-.336-4.333,3.032,0,0,.133,2.226.2,2.856a7.923,7.923,0,0,0,1.034-2.812,5.755,5.755,0,0,0,3.245-1.794,7.834,7.834,0,0,0,2.264,2.213,4.3,4.3,0,0,0,.628,2.7,7.028,7.028,0,0,0,.386-2.074C194.7,109.631,194.846,109.067,194.862,108.82Z" transform="translate(971.972 1278.021)" fill="#141227"/>
      <g id="Grupo_117133" data-name="Grupo 117133" transform="translate(1172.273 1403.078)">
        <path id="Trazado_162096" data-name="Trazado 162096" d="M213.108,136.475c-.39-.117-.772-.255-1.149-.4l.083-.032c-.147.315-.3.627-.458.934s-.328.612-.51.91c.121-.327.256-.647.4-.963s.295-.628.451-.938l.028-.056.056.024C212.381,136.113,212.748,136.285,213.108,136.475Z" transform="translate(-209.048 -135.929)" fill="#141227"/>
        <path id="Trazado_162097" data-name="Trazado 162097" d="M209.978,151.848c.39.117.772.254,1.149.4l-.083.031c.147-.314.3-.626.458-.934s.328-.612.51-.91c-.121.327-.257.647-.4.964s-.3.627-.453.938l-.027.055-.055-.024C210.706,152.209,210.338,152.038,209.978,151.848Z" transform="translate(-208.652 -141.177)" fill="#141227"/>
        <path id="Trazado_162098" data-name="Trazado 162098" d="M207.9,144.674c.1-.292.216-.578.333-.862s.241-.567.366-.848.257-.559.4-.834l.208-.412c.075-.135.144-.273.221-.407-.049.147-.107.29-.16.435l-.173.428c-.116.285-.241.567-.367.847s-.257.56-.4.834S208.053,144.406,207.9,144.674Z" transform="translate(-207.9 -137.876)" fill="#141227"/>
        <path id="Trazado_162099" data-name="Trazado 162099" d="M215.178,143.478c.1-.292.216-.578.333-.862s.241-.566.367-.848.257-.558.4-.834l.208-.413c.074-.135.144-.273.221-.405-.049.146-.107.289-.16.434l-.173.428c-.116.286-.241.567-.367.848s-.257.56-.4.834S215.331,143.21,215.178,143.478Z" transform="translate(-210.533 -137.444)" fill="#141227"/>
      </g>
      <g id="Grupo_117134" data-name="Grupo 117134" transform="translate(1175.933 1407.922)">
        <path id="Trazado_162100" data-name="Trazado 162100" d="M215.8,147.57a.332.332,0,0,0-.13-.452l-1.55-.805a.331.331,0,0,0-.444.151h0a.333.333,0,0,0,.13.451l1.549.806a.332.332,0,0,0,.444-.151Z" transform="translate(-213.634 -144.516)" fill="#feca2e"/>
        <path id="Trazado_162101" data-name="Trazado 162101" d="M216.61,146.723a.362.362,0,0,0-.14-.493l-1.681-.876a.362.362,0,0,0-.484.17h0a.363.363,0,0,0,.139.494l1.681.874a.363.363,0,0,0,.484-.169Z" transform="translate(-213.861 -144.169)" fill="#feca2e"/>
        <path id="Trazado_162102" data-name="Trazado 162102" d="M217.139,145.7a.349.349,0,0,0-.125-.477l-1.582-.823a.35.35,0,0,0-.463.17h0a.349.349,0,0,0,.125.477l1.582.824a.35.35,0,0,0,.462-.171Z" transform="translate(-214.101 -143.824)" fill="#feca2e"/>
        <path id="Trazado_162103" data-name="Trazado 162103" d="M217.465,144.623a.309.309,0,0,0-.077-.423l-1.264-.657a.308.308,0,0,0-.391.179h0a.31.31,0,0,0,.077.424l1.264.657a.309.309,0,0,0,.391-.18Z" transform="translate(-214.376 -143.518)" fill="#feca2e"/>
      </g>
      <rect id="Rectángulo_40817" data-name="Rectángulo 40817" width="4.842" height="1.56" transform="translate(1148.414 1369.236)" fill="#0c091a"/>
      <g id="Grupo_117137" data-name="Grupo 117137" transform="translate(1152.87 1394.152)">
        <g id="Grupo_117136" data-name="Grupo 117136" transform="translate(0 0)">
          <path id="Trazado_162104" data-name="Trazado 162104" d="M178.121,128.358a3.275,3.275,0,0,0,.28-.366,6.48,6.48,0,0,0,.44-.8,12.955,12.955,0,0,0,.644-1.7,17.67,17.67,0,0,0,.439-1.753c.059-.3.105-.594.144-.894.016-.15.034-.3.043-.451,0-.076.008-.152.008-.228,0-.038,0-.077,0-.114a.2.2,0,0,0-.026-.111.225.225,0,0,1-.006.109c-.008.036-.016.073-.026.108-.019.073-.039.144-.061.216l-.128.43-.26.858-.261.855c-.087.285-.17.571-.261.854-.177.567-.352,1.135-.547,1.693-.1.279-.2.557-.32.827a3.931,3.931,0,0,1-.194.4,1.332,1.332,0,0,1-.267.351A1.111,1.111,0,0,0,178.121,128.358Z" transform="translate(-177.594 -121.944)" fill="#141227"/>
          <path id="Trazado_162105" data-name="Trazado 162105" d="M179.417,130.289c-.5.47-1.027.914-1.559,1.367a9.961,9.961,0,0,0,1.771-1.121,9.6,9.6,0,0,0,.793-.7,9.246,9.246,0,0,0,.708-.79,7.394,7.394,0,0,0,.592-.887,5.419,5.419,0,0,0,.43-.98,4.255,4.255,0,0,0,.206-1.047,2.668,2.668,0,0,0-.122-1.047,3.451,3.451,0,0,1-.079,1.021,5.292,5.292,0,0,1-.307.962,6.684,6.684,0,0,1-.467.894,7.74,7.74,0,0,1-.58.828,9.864,9.864,0,0,1-.663.772C179.911,129.817,179.664,130.052,179.417,130.289Z" transform="translate(-177.629 -123.082)" fill="#141227"/>
          <path id="Trazado_162106" data-name="Trazado 162106" d="M181.411,135.765a7.594,7.594,0,0,1-1.494.834,6.1,6.1,0,0,0,1.6-.662,8.417,8.417,0,0,0,1.412-1.031,9.334,9.334,0,0,0,1.187-1.292,10.792,10.792,0,0,0,.938-1.483,12.4,12.4,0,0,0,.688-1.61,13.382,13.382,0,0,0,.453-1.686,15.034,15.034,0,0,0,.285-3.452,25.567,25.567,0,0,1-.6,3.38,16.372,16.372,0,0,1-.507,1.626,12.686,12.686,0,0,1-.686,1.55,11.082,11.082,0,0,1-.885,1.442,10.585,10.585,0,0,1-1.094,1.291A9.832,9.832,0,0,1,181.411,135.765Z" transform="translate(-178.374 -123.188)" fill="#141227"/>
          <path id="Trazado_162107" data-name="Trazado 162107" d="M190.44,132.656c-.45.938-.917,1.868-1.428,2.773s-1.048,1.8-1.637,2.647a23.5,23.5,0,0,1-1.91,2.448,16.624,16.624,0,0,1-2.256,2.118,11.174,11.174,0,0,1-2.672,1.547,7.849,7.849,0,0,1-1.486.438,6.394,6.394,0,0,1-.772.1,3.983,3.983,0,0,1-.78-.015,4.863,4.863,0,0,0,1.569.027,8.012,8.012,0,0,0,1.54-.356A10.69,10.69,0,0,0,183.4,142.9a18.685,18.685,0,0,0,4.316-4.589,31.1,31.1,0,0,0,1.868-3.127c-.126,1.072-.274,2.14-.471,3.2-.209,1.186-.461,2.363-.745,3.531s-.6,2.328-.96,3.476-.735,2.289-1.151,3.417-.854,2.249-1.322,3.356-.964,2.2-1.479,3.292-1.06,2.162-1.628,3.223-1.157,2.114-1.786,3.143a50.259,50.259,0,0,0,3.7-6.224,61.238,61.238,0,0,0,2.9-6.647c.412-1.138.795-2.287,1.137-3.447s.646-2.333.9-3.517a41.638,41.638,0,0,0,.929-6.855q.6-1.153,1.122-2.342a47.5,47.5,0,0,0,2.126-5.9c-.375.976-.745,1.952-1.155,2.912S190.886,131.715,190.44,132.656Z" transform="translate(-177.499 -123.732)" fill="#141227"/>
          <g id="Grupo_117135" data-name="Grupo 117135" transform="translate(2.439 5.303)">
            <path id="Trazado_162108" data-name="Trazado 162108" d="M181.321,190.351c1.686-.536,3.358-1.067,5.015-1.642q.622-.211,1.238-.439c.41-.153.822-.3,1.229-.46.814-.322,1.628-.638,2.42-1.019s1.579-.767,2.353-1.181,1.535-.85,2.274-1.322a21.24,21.24,0,0,0,2.138-1.529,11.578,11.578,0,0,0,.971-.886c.154-.156.3-.319.44-.489a3.286,3.286,0,0,0,.371-.544,3.286,3.286,0,0,1-.338.569c-.128.18-.267.353-.411.521a11.638,11.638,0,0,1-.932.946A20.232,20.232,0,0,1,196,184.517a38.071,38.071,0,0,1-4.587,2.666c-.79.394-1.587.8-2.41,1.127-.412.167-.823.331-1.241.479s-.838.289-1.259.426-.85.252-1.277.37-.857.22-1.288.318A23.9,23.9,0,0,1,181.321,190.351Z" transform="translate(-181.321 -148.552)" fill="#141227"/>
            <path id="Trazado_162109" data-name="Trazado 162109" d="M181.374,171.7c.362-.3.7-.62,1.034-.95s.656-.665.971-1.011c.628-.691,1.222-1.413,1.784-2.158a38.332,38.332,0,0,0,3.037-4.692,44.529,44.529,0,0,0,4.06-10.378,54.666,54.666,0,0,0,1.612-11.046,72.918,72.918,0,0,0-.38-11.194l.137-.017a61.749,61.749,0,0,1,.717,11.23,50.837,50.837,0,0,1-1.554,11.164,41.657,41.657,0,0,1-4.228,10.446,35.117,35.117,0,0,1-3.2,4.646c-.6.725-1.225,1.427-1.885,2.1A18.582,18.582,0,0,1,181.374,171.7Z" transform="translate(-181.34 -130.252)" fill="#141227"/>
          </g>
          <path id="Trazado_162110" data-name="Trazado 162110" d="M199.546,191.392q-.209.289-.435.564c-.3.366-.616.719-.947,1.057s-.673.673-1.026.992h-.016v.015q-.513.466-1.049.908c-.733.6-1.485,1.171-2.265,1.707s-1.569,1.063-2.378,1.542a23.454,23.454,0,0,1-2.507,1.3,25.661,25.661,0,0,1-2.641,1.008,26.219,26.219,0,0,1-2.745.715,20.987,20.987,0,0,1-2.82.4,14.3,14.3,0,0,0,2.365-.074l.273,8.735.275-8.8a21.136,21.136,0,0,0,2.773-.562q.69-.185,1.366-.421l.267,9.781.273-9.978c.276-.1.55-.211.821-.324a22.4,22.4,0,0,0,2.582-1.3q.372-.225.737-.46l.267,11.888.276-12.243q.566-.376,1.12-.775a28.461,28.461,0,0,0,2.242-1.808c.265-.237.522-.482.775-.732l.268,15.557L197.677,194h-.038c.249-.264.493-.532.728-.809.306-.371.6-.75.868-1.148a7.351,7.351,0,0,0,.7-1.252A5.766,5.766,0,0,1,199.546,191.392Z" transform="translate(-178.663 -146.851)" fill="#141227"/>
        </g>
      </g>
      <g id="Grupo_117141" data-name="Grupo 117141" transform="translate(1147.882 1456.064)">
        <rect id="Rectángulo_40818" data-name="Rectángulo 40818" width="22.241" height="4.876" transform="translate(5.531 5.878)" fill="#141227"/>
        <path id="Trazado_162111" data-name="Trazado 162111" d="M199.718,245.059V235.8H177.477v9.263h-1.539v4.876h25.319v-4.876Z" transform="translate(-171.946 -225.043)" fill="#141227"/>
        <rect id="Rectángulo_40819" data-name="Rectángulo 40819" width="24.762" height="3.726" transform="translate(4.271)" fill="#141227"/>
        <rect id="Rectángulo_40820" data-name="Rectángulo 40820" width="24.762" height="2.152" transform="translate(4.271 3.726)" fill="#feca2e"/>
        <rect id="Rectángulo_40821" data-name="Rectángulo 40821" width="24.762" height="2.152" transform="translate(4.271 9.678)" fill="#feca2e"/>
        <g id="Grupo_117138" data-name="Grupo 117138" transform="translate(8.535 12.91)">
          <rect id="Rectángulo_40822" data-name="Rectángulo 40822" width="1.557" height="6.077" fill="#feca2e"/>
          <rect id="Rectángulo_40823" data-name="Rectángulo 40823" width="1.557" height="6.077" transform="translate(4.804)" fill="#feca2e"/>
          <rect id="Rectángulo_40824" data-name="Rectángulo 40824" width="1.557" height="6.077" transform="translate(9.608)" fill="#feca2e"/>
          <rect id="Rectángulo_40825" data-name="Rectángulo 40825" width="1.557" height="6.077" transform="translate(14.411)" fill="#feca2e"/>
        </g>
        <g id="Grupo_117139" data-name="Grupo 117139" transform="translate(14.343 6.317)">
          <path id="Trazado_162112" data-name="Trazado 162112" d="M196.773,232.362v-1.224l-2.308-2.293-2.308,2.293v1.224Z" transform="translate(-192.156 -228.845)" fill="#feca2e"/>
          <path id="Trazado_162113" data-name="Trazado 162113" d="M196.4,232.453v-.765l-1.444-1.435-1.444,1.435v.765Z" transform="translate(-192.646 -229.355)" fill="#141227"/>
        </g>
        <g id="Grupo_117140" data-name="Grupo 117140" transform="translate(13.154 19.565)">
          <path id="Trazado_162114" data-name="Trazado 162114" d="M197.288,254.929v-1.854l-3.5-3.474-3.5,3.474v1.854Z" transform="translate(-190.294 -249.601)" fill="#feca2e"/>
          <path id="Trazado_162115" data-name="Trazado 162115" d="M196.721,254.988v-1.16l-2.188-2.174-2.188,2.174v1.16Z" transform="translate(-191.036 -250.344)" fill="#141227"/>
        </g>
        <rect id="Rectángulo_40826" data-name="Rectángulo 40826" width="29.181" height="2.782" transform="translate(2.061 24.442)" fill="#feca2e"/>
        <rect id="Rectángulo_40827" data-name="Rectángulo 40827" width="33.303" height="2.782" transform="translate(0 27.003)" fill="#141227"/>
      </g>
      <g id="Grupo_117154" data-name="Grupo 117154" transform="translate(1080.451 1437.125)">
        <g id="Grupo_117142" data-name="Grupo 117142" transform="translate(0.607 1.633)">
          <path id="Trazado_162116" data-name="Trazado 162116" d="M212.59,191.952c-11.456,11.273-23.914,16.927-37.027,16.8-11.409-.11-21.215-4.669-27.431-8.473a61.988,61.988,0,0,1-10.876-8.322l-.272.267c.02.02,1.017,1.031,2.82,2.543v26.467h.38V195.083c1.072.883,2.393,1.913,3.934,3v23.144h.382V198.357c1.048.73,2.19,1.486,3.42,2.24l.514.311v20.325h.382v-20.1c1.2.708,2.514,1.433,3.933,2.143v17.955h.383V203.466c1.237.609,2.55,1.2,3.934,1.767v16h.382V205.387c1.258.5,2.571.975,3.934,1.407v14.438h.382V206.913c1.271.391,2.584.744,3.934,1.048v13.271h.382V208.046q1.919.416,3.934.687v12.5h.382V208.784c1.286.159,2.6.268,3.934.318v12.13h.382V209.114c.281.008.561.015.845.018H176q1.33,0,2.65-.081v12.179h.381V209.027q1.978-.133,3.934-.445v12.65h.382v-12.71q1.979-.332,3.934-.848v13.558h.382V207.573q1.979-.538,3.933-1.256v14.915h.382V206.17q1.981-.75,3.935-1.69v16.752h.382V204.295q1.983-.974,3.934-2.146v19.084h.382V201.92q1.983-1.209,3.934-2.621v21.934h.382V199.02q1.985-1.458,3.934-3.123v25.335h.382V195.567q1.825-1.582,3.621-3.343Z" transform="translate(-91.031 -191.875)" fill="#141227"/>
          <path id="Trazado_162117" data-name="Trazado 162117" d="M303.837,208.8l-.013-.187c-12.168.811-22.779-3.792-29.538-7.8a63.073,63.073,0,0,1-11.884-8.985l-.274.266c.022.022,1.077,1.1,2.979,2.692v26.4h.382V195.106c1.08.89,2.4,1.919,3.934,3.006v23.077h.381V198.38c1.194.835,2.51,1.7,3.934,2.554v20.254h.382V201.162c1.2.708,2.513,1.434,3.934,2.145v17.882h.382V203.5c1.236.608,2.55,1.2,3.933,1.765v15.927h.383V205.414c1.257.5,2.569.971,3.934,1.4v14.374h.382V206.931c1.27.389,2.582.739,3.934,1.038v13.22h.382V208.051q1.918.409,3.934.671v12.467h.382V208.769q1.763.211,3.592.283v12.136h.382V209.066c.438.013.879.023,1.323.023.847,0,1.706-.026,2.572-.079v12.178h.381V208.8Z" transform="translate(-136.301 -191.832)" fill="#141227"/>
          <path id="Trazado_162118" data-name="Trazado 162118" d="M94.659,200.812c-6.761,4.007-17.375,8.614-29.548,7.8l-.011.187h-.114v12.388h.382V209.011q1.3.079,2.572.079c.443,0,.885-.01,1.322-.023v12.122h.383V209.053q1.828-.07,3.592-.283v12.419h.382V208.721c1.342-.172,2.654-.4,3.934-.67v13.138h.382v-13.22c1.351-.3,2.664-.65,3.934-1.038v14.258h.382V206.814c1.365-.429,2.676-.9,3.934-1.4v15.774h.382V205.262c1.384-.562,2.7-1.157,3.934-1.765v17.692h.382V203.307c1.421-.711,2.737-1.436,3.933-2.145v20.027H95.2V200.934c1.425-.857,2.74-1.719,3.934-2.554v22.808h.38V198.112c1.534-1.087,2.855-2.116,3.935-3.006v26.082h.381v-26.4c1.9-1.594,2.957-2.669,2.979-2.692l-.274-.266A63.068,63.068,0,0,1,94.659,200.812Z" transform="translate(-64.986 -191.832)" fill="#141227"/>
        </g>
        <rect id="Rectángulo_40828" data-name="Rectángulo 40828" width="168.333" height="2.578" transform="translate(0 32.261)" fill="#d8d8d8"/>
        <g id="Grupo_117147" data-name="Grupo 117147" transform="translate(41.391 0)">
          <g id="Grupo_117143" data-name="Grupo 117143" transform="translate(0.192 34.87)">
            <path id="Trazado_162119" data-name="Trazado 162119" d="M134.319,243.908v14.477h1.908a82.273,82.273,0,0,1-.031-9.728,2.076,2.076,0,0,1,.682-1.321v-3.428Z" transform="translate(-131.043 -243.908)" fill="#0a0616"/>
            <path id="Trazado_162120" data-name="Trazado 162120" d="M133.347,258.385V243.908h-3.824v3.428a1.729,1.729,0,0,1,.723,1.36,92.06,92.06,0,0,1-.072,9.689Z" transform="translate(-129.308 -243.908)" fill="#141227"/>
            <rect id="Rectángulo_40829" data-name="Rectángulo 40829" width="6.013" height="1.334" transform="translate(0 13.62)" fill="#0a0616"/>
          </g>
          <g id="Grupo_117146" data-name="Grupo 117146">
            <g id="Grupo_117144" data-name="Grupo 117144" transform="translate(0.901 1.399)">
              <rect id="Rectángulo_40830" data-name="Rectángulo 40830" width="2.317" height="29.367" transform="translate(2.277)" fill="#0a0616"/>
              <rect id="Rectángulo_40831" data-name="Rectángulo 40831" width="3.05" height="29.367" fill="#141227"/>
            </g>
            <g id="Grupo_117145" data-name="Grupo 117145" transform="translate(0 27.394)">
              <rect id="Rectángulo_40832" data-name="Rectángulo 40832" width="5.62" height="2.394" transform="translate(0.388 0.978)" fill="#d8d8d8"/>
              <rect id="Rectángulo_40833" data-name="Rectángulo 40833" width="6.395" height="1.193" fill="#fc4b52"/>
            </g>
            <rect id="Rectángulo_40834" data-name="Rectángulo 40834" width="2.701" height="1.399" transform="translate(1.885)" fill="#fc4b52"/>
          </g>
        </g>
        <g id="Grupo_117152" data-name="Grupo 117152" transform="translate(121.234 0)">
          <g id="Grupo_117148" data-name="Grupo 117148" transform="translate(0.191 34.87)">
            <path id="Trazado_162121" data-name="Trazado 162121" d="M259.414,243.908v14.477h1.909a82.1,82.1,0,0,1-.032-9.728,2.079,2.079,0,0,1,.682-1.321v-3.428Z" transform="translate(-256.138 -243.908)" fill="#0a0616"/>
            <path id="Trazado_162122" data-name="Trazado 162122" d="M258.443,258.385V243.908h-3.824v3.428a1.726,1.726,0,0,1,.722,1.36,92.166,92.166,0,0,1-.072,9.689Z" transform="translate(-254.403 -243.908)" fill="#141227"/>
            <rect id="Rectángulo_40835" data-name="Rectángulo 40835" width="6.013" height="1.334" transform="translate(0 13.62)" fill="#0a0616"/>
          </g>
          <g id="Grupo_117151" data-name="Grupo 117151">
            <g id="Grupo_117149" data-name="Grupo 117149" transform="translate(0.9 1.399)">
              <rect id="Rectángulo_40836" data-name="Rectángulo 40836" width="2.317" height="29.367" transform="translate(2.277)" fill="#0a0616"/>
              <rect id="Rectángulo_40837" data-name="Rectángulo 40837" width="3.05" height="29.367" fill="#141227"/>
            </g>
            <g id="Grupo_117150" data-name="Grupo 117150" transform="translate(0 27.394)">
              <rect id="Rectángulo_40838" data-name="Rectángulo 40838" width="5.621" height="2.394" transform="translate(0.387 0.978)" fill="#d8d8d8"/>
              <rect id="Rectángulo_40839" data-name="Rectángulo 40839" width="6.395" height="1.193" fill="#fc4b52"/>
            </g>
            <rect id="Rectángulo_40840" data-name="Rectángulo 40840" width="2.701" height="1.399" transform="translate(1.885)" fill="#fc4b52"/>
          </g>
        </g>
        <g id="Grupo_117153" data-name="Grupo 117153" transform="translate(0 32.247)">
          <path id="Trazado_162123" data-name="Trazado 162123" d="M97.088,241.039a1.24,1.24,0,1,1-1.24-1.241A1.241,1.241,0,0,1,97.088,241.039Z" transform="translate(-75.094 -239.798)" fill="#fc4b52"/>
          <path id="Trazado_162124" data-name="Trazado 162124" d="M100.91,241.039a1.241,1.241,0,1,1-1.241-1.241A1.241,1.241,0,0,1,100.91,241.039Z" transform="translate(-76.477 -239.798)" fill="#fc4b52"/>
          <path id="Trazado_162125" data-name="Trazado 162125" d="M104.731,241.039a1.24,1.24,0,1,1-1.24-1.241A1.24,1.24,0,0,1,104.731,241.039Z" transform="translate(-77.859 -239.798)" fill="#fc4b52"/>
          <path id="Trazado_162126" data-name="Trazado 162126" d="M108.552,241.039a1.241,1.241,0,1,1-1.241-1.241A1.241,1.241,0,0,1,108.552,241.039Z" transform="translate(-79.241 -239.798)" fill="#fc4b52"/>
          <path id="Trazado_162127" data-name="Trazado 162127" d="M112.374,241.039a1.241,1.241,0,1,1-1.241-1.241A1.242,1.242,0,0,1,112.374,241.039Z" transform="translate(-80.624 -239.798)" fill="#fc4b52"/>
          <path id="Trazado_162128" data-name="Trazado 162128" d="M116.195,241.039a1.241,1.241,0,1,1-1.241-1.241A1.241,1.241,0,0,1,116.195,241.039Z" transform="translate(-82.006 -239.798)" fill="#fc4b52"/>
          <path id="Trazado_162129" data-name="Trazado 162129" d="M120.017,241.039a1.241,1.241,0,1,1-1.241-1.241A1.241,1.241,0,0,1,120.017,241.039Z" transform="translate(-83.388 -239.798)" fill="#fc4b52"/>
          <path id="Trazado_162130" data-name="Trazado 162130" d="M123.838,241.039A1.241,1.241,0,1,1,122.6,239.8,1.241,1.241,0,0,1,123.838,241.039Z" transform="translate(-84.771 -239.798)" fill="#fc4b52"/>
          <path id="Trazado_162131" data-name="Trazado 162131" d="M127.66,241.039a1.241,1.241,0,1,1-1.241-1.241A1.241,1.241,0,0,1,127.66,241.039Z" transform="translate(-86.153 -239.798)" fill="#fc4b52"/>
          <path id="Trazado_162132" data-name="Trazado 162132" d="M131.48,241.039a1.241,1.241,0,1,1-1.241-1.241A1.242,1.242,0,0,1,131.48,241.039Z" transform="translate(-87.535 -239.798)" fill="#fc4b52"/>
          <path id="Trazado_162133" data-name="Trazado 162133" d="M135.3,241.039a1.241,1.241,0,1,1-1.242-1.241A1.242,1.242,0,0,1,135.3,241.039Z" transform="translate(-88.918 -239.798)" fill="#fc4b52"/>
          <path id="Trazado_162134" data-name="Trazado 162134" d="M139.124,241.039a1.241,1.241,0,1,1-1.242-1.241A1.242,1.242,0,0,1,139.124,241.039Z" transform="translate(-90.3 -239.798)" fill="#fc4b52"/>
          <path id="Trazado_162135" data-name="Trazado 162135" d="M142.945,241.039A1.241,1.241,0,1,1,141.7,239.8,1.241,1.241,0,0,1,142.945,241.039Z" transform="translate(-91.682 -239.798)" fill="#fc4b52"/>
          <path id="Trazado_162136" data-name="Trazado 162136" d="M146.766,241.039a1.241,1.241,0,1,1-1.241-1.241A1.241,1.241,0,0,1,146.766,241.039Z" transform="translate(-93.064 -239.798)" fill="#fc4b52"/>
          <path id="Trazado_162137" data-name="Trazado 162137" d="M150.587,241.039a1.241,1.241,0,1,1-1.241-1.241A1.241,1.241,0,0,1,150.587,241.039Z" transform="translate(-94.447 -239.798)" fill="#fc4b52"/>
          <path id="Trazado_162138" data-name="Trazado 162138" d="M154.409,241.039a1.241,1.241,0,1,1-1.241-1.241A1.241,1.241,0,0,1,154.409,241.039Z" transform="translate(-95.829 -239.798)" fill="#fc4b52"/>
          <path id="Trazado_162139" data-name="Trazado 162139" d="M158.23,241.039a1.241,1.241,0,1,1-1.241-1.241A1.241,1.241,0,0,1,158.23,241.039Z" transform="translate(-97.212 -239.798)" fill="#fc4b52"/>
          <path id="Trazado_162140" data-name="Trazado 162140" d="M162.052,241.039a1.241,1.241,0,1,1-1.241-1.241A1.241,1.241,0,0,1,162.052,241.039Z" transform="translate(-98.594 -239.798)" fill="#fc4b52"/>
          <path id="Trazado_162141" data-name="Trazado 162141" d="M165.873,241.039a1.241,1.241,0,1,1-1.241-1.241A1.241,1.241,0,0,1,165.873,241.039Z" transform="translate(-99.977 -239.798)" fill="#fc4b52"/>
          <path id="Trazado_162142" data-name="Trazado 162142" d="M169.695,241.039a1.241,1.241,0,1,1-1.241-1.241A1.241,1.241,0,0,1,169.695,241.039Z" transform="translate(-101.359 -239.798)" fill="#fc4b52"/>
          <path id="Trazado_162143" data-name="Trazado 162143" d="M173.515,241.039a1.241,1.241,0,1,1-1.241-1.241A1.242,1.242,0,0,1,173.515,241.039Z" transform="translate(-102.741 -239.798)" fill="#fc4b52"/>
          <path id="Trazado_162144" data-name="Trazado 162144" d="M177.337,241.039A1.241,1.241,0,1,1,176.1,239.8,1.242,1.242,0,0,1,177.337,241.039Z" transform="translate(-104.124 -239.798)" fill="#fc4b52"/>
          <path id="Trazado_162145" data-name="Trazado 162145" d="M181.158,241.039a1.241,1.241,0,1,1-1.241-1.241A1.241,1.241,0,0,1,181.158,241.039Z" transform="translate(-105.506 -239.798)" fill="#fc4b52"/>
          <path id="Trazado_162146" data-name="Trazado 162146" d="M184.98,241.039a1.241,1.241,0,1,1-1.241-1.241A1.241,1.241,0,0,1,184.98,241.039Z" transform="translate(-106.888 -239.798)" fill="#fc4b52"/>
          <path id="Trazado_162147" data-name="Trazado 162147" d="M188.8,241.039a1.241,1.241,0,1,1-1.241-1.241A1.241,1.241,0,0,1,188.8,241.039Z" transform="translate(-108.271 -239.798)" fill="#fc4b52"/>
          <path id="Trazado_162148" data-name="Trazado 162148" d="M192.623,241.039a1.241,1.241,0,1,1-1.241-1.241A1.241,1.241,0,0,1,192.623,241.039Z" transform="translate(-109.653 -239.798)" fill="#fc4b52"/>
          <path id="Trazado_162149" data-name="Trazado 162149" d="M196.443,241.039A1.241,1.241,0,1,1,195.2,239.8,1.241,1.241,0,0,1,196.443,241.039Z" transform="translate(-111.035 -239.798)" fill="#fc4b52"/>
          <path id="Trazado_162150" data-name="Trazado 162150" d="M200.265,241.039a1.241,1.241,0,1,1-1.241-1.241A1.241,1.241,0,0,1,200.265,241.039Z" transform="translate(-112.418 -239.798)" fill="#fc4b52"/>
          <path id="Trazado_162151" data-name="Trazado 162151" d="M204.086,241.039a1.241,1.241,0,1,1-1.241-1.241A1.241,1.241,0,0,1,204.086,241.039Z" transform="translate(-113.8 -239.798)" fill="#fc4b52"/>
          <path id="Trazado_162152" data-name="Trazado 162152" d="M207.908,241.039a1.241,1.241,0,1,1-1.241-1.241A1.241,1.241,0,0,1,207.908,241.039Z" transform="translate(-115.183 -239.798)" fill="#fc4b52"/>
          <path id="Trazado_162153" data-name="Trazado 162153" d="M211.728,241.039a1.241,1.241,0,1,1-1.241-1.241A1.241,1.241,0,0,1,211.728,241.039Z" transform="translate(-116.564 -239.798)" fill="#fc4b52"/>
          <path id="Trazado_162154" data-name="Trazado 162154" d="M215.55,241.039a1.241,1.241,0,1,1-1.241-1.241A1.242,1.242,0,0,1,215.55,241.039Z" transform="translate(-117.947 -239.798)" fill="#fc4b52"/>
          <path id="Trazado_162155" data-name="Trazado 162155" d="M219.371,241.039a1.241,1.241,0,1,1-1.241-1.241A1.241,1.241,0,0,1,219.371,241.039Z" transform="translate(-119.329 -239.798)" fill="#fc4b52"/>
          <path id="Trazado_162156" data-name="Trazado 162156" d="M223.193,241.039a1.241,1.241,0,1,1-1.241-1.241A1.241,1.241,0,0,1,223.193,241.039Z" transform="translate(-120.712 -239.798)" fill="#fc4b52"/>
          <path id="Trazado_162157" data-name="Trazado 162157" d="M227.014,241.039a1.241,1.241,0,1,1-1.241-1.241A1.241,1.241,0,0,1,227.014,241.039Z" transform="translate(-122.094 -239.798)" fill="#fc4b52"/>
          <path id="Trazado_162158" data-name="Trazado 162158" d="M230.836,241.039a1.241,1.241,0,1,1-1.241-1.241A1.241,1.241,0,0,1,230.836,241.039Z" transform="translate(-123.477 -239.798)" fill="#fc4b52"/>
          <path id="Trazado_162159" data-name="Trazado 162159" d="M234.656,241.039a1.241,1.241,0,1,1-1.241-1.241A1.241,1.241,0,0,1,234.656,241.039Z" transform="translate(-124.858 -239.798)" fill="#fc4b52"/>
          <path id="Trazado_162160" data-name="Trazado 162160" d="M238.478,241.039a1.241,1.241,0,1,1-1.241-1.241A1.242,1.242,0,0,1,238.478,241.039Z" transform="translate(-126.241 -239.798)" fill="#fc4b52"/>
          <path id="Trazado_162161" data-name="Trazado 162161" d="M242.3,241.039a1.241,1.241,0,1,1-1.241-1.241A1.241,1.241,0,0,1,242.3,241.039Z" transform="translate(-127.623 -239.798)" fill="#fc4b52"/>
          <path id="Trazado_162162" data-name="Trazado 162162" d="M246.121,241.039a1.241,1.241,0,1,1-1.241-1.241A1.241,1.241,0,0,1,246.121,241.039Z" transform="translate(-129.006 -239.798)" fill="#fc4b52"/>
          <path id="Trazado_162163" data-name="Trazado 162163" d="M249.942,241.039A1.241,1.241,0,1,1,248.7,239.8,1.242,1.242,0,0,1,249.942,241.039Z" transform="translate(-130.388 -239.798)" fill="#fc4b52"/>
          <path id="Trazado_162164" data-name="Trazado 162164" d="M253.763,241.039a1.241,1.241,0,1,1-1.241-1.241A1.241,1.241,0,0,1,253.763,241.039Z" transform="translate(-131.77 -239.798)" fill="#fc4b52"/>
          <path id="Trazado_162165" data-name="Trazado 162165" d="M257.585,241.039a1.241,1.241,0,1,1-1.241-1.241A1.241,1.241,0,0,1,257.585,241.039Z" transform="translate(-133.153 -239.798)" fill="#fc4b52"/>
          <path id="Trazado_162166" data-name="Trazado 162166" d="M261.406,241.039a1.241,1.241,0,1,1-1.241-1.241A1.241,1.241,0,0,1,261.406,241.039Z" transform="translate(-134.535 -239.798)" fill="#fc4b52"/>
          <path id="Trazado_162167" data-name="Trazado 162167" d="M265.228,241.039a1.241,1.241,0,1,1-1.241-1.241A1.241,1.241,0,0,1,265.228,241.039Z" transform="translate(-135.918 -239.798)" fill="#fc4b52"/>
          <path id="Trazado_162168" data-name="Trazado 162168" d="M269.049,241.039a1.241,1.241,0,1,1-1.241-1.241A1.242,1.242,0,0,1,269.049,241.039Z" transform="translate(-137.3 -239.798)" fill="#fc4b52"/>
          <path id="Trazado_162169" data-name="Trazado 162169" d="M272.871,241.039a1.241,1.241,0,1,1-1.241-1.241A1.241,1.241,0,0,1,272.871,241.039Z" transform="translate(-138.683 -239.798)" fill="#fc4b52"/>
          <path id="Trazado_162170" data-name="Trazado 162170" d="M276.691,241.039a1.241,1.241,0,1,1-1.241-1.241A1.242,1.242,0,0,1,276.691,241.039Z" transform="translate(-140.064 -239.798)" fill="#fc4b52"/>
          <path id="Trazado_162171" data-name="Trazado 162171" d="M280.513,241.039a1.241,1.241,0,1,1-1.241-1.241A1.242,1.242,0,0,1,280.513,241.039Z" transform="translate(-141.447 -239.798)" fill="#fc4b52"/>
          <path id="Trazado_162172" data-name="Trazado 162172" d="M284.335,241.039a1.241,1.241,0,1,1-1.242-1.241A1.242,1.242,0,0,1,284.335,241.039Z" transform="translate(-142.829 -239.798)" fill="#fc4b52"/>
          <path id="Trazado_162173" data-name="Trazado 162173" d="M288.156,241.039a1.241,1.241,0,1,1-1.241-1.241A1.241,1.241,0,0,1,288.156,241.039Z" transform="translate(-144.212 -239.798)" fill="#fc4b52"/>
          <path id="Trazado_162174" data-name="Trazado 162174" d="M291.976,241.039a1.241,1.241,0,1,1-1.241-1.241A1.241,1.241,0,0,1,291.976,241.039Z" transform="translate(-145.594 -239.798)" fill="#fc4b52"/>
          <path id="Trazado_162175" data-name="Trazado 162175" d="M295.8,241.039a1.241,1.241,0,1,1-1.241-1.241A1.241,1.241,0,0,1,295.8,241.039Z" transform="translate(-146.976 -239.798)" fill="#fc4b52"/>
          <path id="Trazado_162176" data-name="Trazado 162176" d="M299.62,241.039a1.241,1.241,0,1,1-1.241-1.241A1.242,1.242,0,0,1,299.62,241.039Z" transform="translate(-148.359 -239.798)" fill="#fc4b52"/>
          <path id="Trazado_162177" data-name="Trazado 162177" d="M303.441,241.039A1.241,1.241,0,1,1,302.2,239.8,1.241,1.241,0,0,1,303.441,241.039Z" transform="translate(-149.741 -239.798)" fill="#fc4b52"/>
          <path id="Trazado_162178" data-name="Trazado 162178" d="M307.262,241.039a1.241,1.241,0,1,1-1.24-1.241A1.241,1.241,0,0,1,307.262,241.039Z" transform="translate(-151.123 -239.798)" fill="#fc4b52"/>
          <path id="Trazado_162179" data-name="Trazado 162179" d="M311.084,241.039a1.241,1.241,0,1,1-1.241-1.241A1.241,1.241,0,0,1,311.084,241.039Z" transform="translate(-152.506 -239.798)" fill="#fc4b52"/>
          <path id="Trazado_162180" data-name="Trazado 162180" d="M314.9,241.039a1.241,1.241,0,1,1-1.241-1.241A1.242,1.242,0,0,1,314.9,241.039Z" transform="translate(-153.888 -239.798)" fill="#fc4b52"/>
          <path id="Trazado_162181" data-name="Trazado 162181" d="M318.726,241.039a1.241,1.241,0,1,1-1.241-1.241A1.242,1.242,0,0,1,318.726,241.039Z" transform="translate(-155.27 -239.798)" fill="#fc4b52"/>
          <path id="Trazado_162182" data-name="Trazado 162182" d="M322.548,241.039a1.241,1.241,0,1,1-1.241-1.241A1.242,1.242,0,0,1,322.548,241.039Z" transform="translate(-156.653 -239.798)" fill="#fc4b52"/>
          <path id="Trazado_162183" data-name="Trazado 162183" d="M326.369,241.039a1.241,1.241,0,1,1-1.241-1.241A1.241,1.241,0,0,1,326.369,241.039Z" transform="translate(-158.035 -239.798)" fill="#fc4b52"/>
          <path id="Trazado_162184" data-name="Trazado 162184" d="M66.518,241.039a1.241,1.241,0,1,1-1.241-1.241A1.242,1.242,0,0,1,66.518,241.039Z" transform="translate(-64.035 -239.798)" fill="#fc4b52"/>
          <path id="Trazado_162185" data-name="Trazado 162185" d="M70.339,241.039A1.241,1.241,0,1,1,69.1,239.8,1.241,1.241,0,0,1,70.339,241.039Z" transform="translate(-65.418 -239.798)" fill="#fc4b52"/>
          <path id="Trazado_162186" data-name="Trazado 162186" d="M74.161,241.039a1.241,1.241,0,1,1-1.242-1.241A1.242,1.242,0,0,1,74.161,241.039Z" transform="translate(-66.8 -239.798)" fill="#fc4b52"/>
          <path id="Trazado_162187" data-name="Trazado 162187" d="M77.982,241.039a1.241,1.241,0,1,1-1.241-1.241A1.241,1.241,0,0,1,77.982,241.039Z" transform="translate(-68.182 -239.798)" fill="#fc4b52"/>
          <path id="Trazado_162188" data-name="Trazado 162188" d="M81.8,241.039a1.24,1.24,0,1,1-1.24-1.241A1.24,1.24,0,0,1,81.8,241.039Z" transform="translate(-69.565 -239.798)" fill="#fc4b52"/>
          <path id="Trazado_162189" data-name="Trazado 162189" d="M85.625,241.039a1.241,1.241,0,1,1-1.241-1.241A1.241,1.241,0,0,1,85.625,241.039Z" transform="translate(-70.947 -239.798)" fill="#fc4b52"/>
          <path id="Trazado_162190" data-name="Trazado 162190" d="M89.447,241.039A1.241,1.241,0,1,1,88.2,239.8,1.242,1.242,0,0,1,89.447,241.039Z" transform="translate(-72.33 -239.798)" fill="#fc4b52"/>
          <path id="Trazado_162191" data-name="Trazado 162191" d="M93.267,241.039a1.241,1.241,0,1,1-1.241-1.241A1.242,1.242,0,0,1,93.267,241.039Z" transform="translate(-73.712 -239.798)" fill="#fc4b52"/>
        </g>
        <rect id="Rectángulo_40841" data-name="Rectángulo 40841" width="168.333" height="1.623" transform="translate(0 30.766)" fill="#141227"/>
        <rect id="Rectángulo_40842" data-name="Rectángulo 40842" width="168.333" height="1.623" transform="translate(0 34.584)" fill="#141227"/>
      </g>
      <g id="Grupo_117155" data-name="Grupo 117155" transform="translate(1092.946 1387.402)">
        <path id="Trazado_162192" data-name="Trazado 162192" d="M136.471,124.724a2.115,2.115,0,0,0,.172-.547,1.93,1.93,0,0,0-1.445-2.261,1.651,1.651,0,0,0-.812.056,3.68,3.68,0,0,0-2.73-2.393c-.1-.018-.192-.028-.288-.038a5.538,5.538,0,0,0-4.237-4.127,5.247,5.247,0,0,0-5.183,2.164,4.483,4.483,0,0,0-1.949-.892,4.418,4.418,0,0,0-2.931.476,7.045,7.045,0,0,0-5.458-5.684,6.887,6.887,0,0,0-7.69,5.031,4.393,4.393,0,0,0-1.769-.038,4.512,4.512,0,0,0-1.949.892,5.248,5.248,0,0,0-5.183-2.164,5.612,5.612,0,0,0-4.362,4.7,3.342,3.342,0,0,0-1.688-.123A3.735,3.735,0,0,0,86.1,122.6a1.649,1.649,0,0,0-1.018-.136,1.928,1.928,0,0,0-1.445,2.258Z" transform="translate(-83.613 -111.37)" fill="#727997"/>
      </g>
      <g id="Grupo_117156" data-name="Grupo 117156" transform="translate(1190.13 1357.172)">
        <path id="Trazado_162193" data-name="Trazado 162193" d="M288.736,77.358a2.113,2.113,0,0,0,.172-.547,1.93,1.93,0,0,0-1.445-2.261,1.648,1.648,0,0,0-.812.056,3.684,3.684,0,0,0-2.73-2.393c-.1-.018-.192-.028-.288-.038a5.537,5.537,0,0,0-4.237-4.127,5.245,5.245,0,0,0-5.183,2.164,4.486,4.486,0,0,0-1.949-.892,4.418,4.418,0,0,0-2.931.476,7.044,7.044,0,0,0-5.458-5.684,6.887,6.887,0,0,0-7.69,5.031,4.382,4.382,0,0,0-1.769-.037,4.5,4.5,0,0,0-1.948.891,5.25,5.25,0,0,0-5.184-2.164,5.612,5.612,0,0,0-4.361,4.7,3.343,3.343,0,0,0-1.688-.123,3.734,3.734,0,0,0-2.864,2.826,1.648,1.648,0,0,0-1.017-.136,1.928,1.928,0,0,0-1.446,2.258Z" transform="translate(-235.878 -64.004)" fill="#727997"/>
      </g>
      <g id="Grupo_117157" data-name="Grupo 117157" transform="translate(1186.085 1394.322)">
        <path id="Trazado_162194" data-name="Trazado 162194" d="M270.079,132.452a1.57,1.57,0,0,0,.132-.419A1.48,1.48,0,0,0,269.1,130.3a1.257,1.257,0,0,0-.623.043,2.825,2.825,0,0,0-2.093-1.836c-.074-.013-.148-.022-.221-.029a4.248,4.248,0,0,0-3.249-3.165,4.023,4.023,0,0,0-3.975,1.659,3.45,3.45,0,0,0-1.495-.684,3.388,3.388,0,0,0-2.248.366,5.4,5.4,0,0,0-4.186-4.359,5.283,5.283,0,0,0-5.9,3.858,3.361,3.361,0,0,0-1.356-.029,3.461,3.461,0,0,0-1.494.684,4.026,4.026,0,0,0-3.976-1.659,4.3,4.3,0,0,0-3.344,3.6,2.558,2.558,0,0,0-1.294-.094,2.866,2.866,0,0,0-2.2,2.168,1.261,1.261,0,0,0-.78-.1,1.479,1.479,0,0,0-1.109,1.731Z" transform="translate(-229.541 -122.21)" fill="#727997"/>
      </g>
      <g id="Grupo_117158" data-name="Grupo 117158" transform="translate(1112.565 1352.051)">
        <path id="Trazado_162195" data-name="Trazado 162195" d="M154.889,66.222a1.585,1.585,0,0,0,.132-.419,1.48,1.48,0,0,0-1.108-1.734,1.256,1.256,0,0,0-.623.042,2.825,2.825,0,0,0-2.094-1.835c-.073-.014-.147-.022-.221-.029a4.247,4.247,0,0,0-3.249-3.165,4.024,4.024,0,0,0-3.975,1.659,3.448,3.448,0,0,0-1.495-.684,3.388,3.388,0,0,0-2.248.365,5.4,5.4,0,0,0-4.186-4.359,5.282,5.282,0,0,0-5.9,3.858,3.361,3.361,0,0,0-1.356-.029,3.46,3.46,0,0,0-1.494.683,4.025,4.025,0,0,0-3.976-1.659,4.3,4.3,0,0,0-3.344,3.6,2.559,2.559,0,0,0-1.294-.094,2.865,2.865,0,0,0-2.2,2.168,1.256,1.256,0,0,0-.78-.1,1.479,1.479,0,0,0-1.109,1.732Z" transform="translate(-114.35 -55.981)" fill="#727997"/>
      </g>
    </g>
  </g>
</svg>
