<svg xmlns="http://www.w3.org/2000/svg" width="1030" height="516.788" viewBox="0 0 1030 516.788">
  <g id="Grupo_117453" data-name="Grupo 117453" transform="translate(-285 -2660.266)">
    <g id="Grupo_117452" data-name="Grupo 117452">
      <g id="Grupo_116123" data-name="Grupo 116123" transform="translate(-85 -49.734)">
        <g id="Grupo_116119" data-name="Grupo 116119" transform="translate(549.651 2710)">
          <path id="Trazado_160420" data-name="Trazado 160420" d="M515.869,269.824c0-110.815-89.831-200.646-200.646-200.646S114.579,159.009,114.579,269.824Z" transform="translate(45.717 37.91)" fill="#dff7f9"/>
          <path id="Trazado_160421" data-name="Trazado 160421" d="M177.121,137.458a16.551,16.551,0,1,1,9.622-30.012A13.746,13.746,0,0,1,211.4,118.3a9.824,9.824,0,1,1,3.062,19.158Z" transform="translate(94.57 72.398)" fill="#fff"/>
          <circle id="Elipse_5484" data-name="Elipse 5484" cx="18.177" cy="18.177" r="18.177" transform="matrix(0.013, -1, 1, 0.013, 461.681, 183.209)" fill="#feca2e"/>
          <g id="Grupo_116083" data-name="Grupo 116083" transform="translate(232.347 226.723)">
            <path id="Trazado_160422" data-name="Trazado 160422" d="M272.831,201.812s-10.9-41.193-22.324-41.725S230.84,187.2,230.84,187.2s-16.554-56.394-35.081-59.8c-26.044-4.782-46.242,74.414-46.242,74.414Z" transform="translate(-149.517 -127.19)" fill="#12263f"/>
          </g>
          <g id="Grupo_116084" data-name="Grupo 116084" transform="translate(360.94 218.811)">
            <path id="Trazado_160423" data-name="Trazado 160423" d="M211.873,208.36c.833-15.386,5.529-37.087,15.407-45.767,9.963-8.754,32.691-9.074,45.161-8.284,27.857,2.365,47.813-28.014,76.084-30.775,45.734-3.947,53.959,58,53.959,84.826Z" transform="translate(-211.873 -123.354)" fill="#12263f"/>
          </g>
          <g id="Grupo_116086" data-name="Grupo 116086" transform="translate(160.77 308.742)">
            <path id="Trazado_160424" data-name="Trazado 160424" d="M515.707,167.155c0,110.707-89.743,200.45-200.446,200.45s-200.452-89.743-200.452-200.45Z" transform="translate(-114.809 -166.757)" fill="#008594"/>
            <g id="Grupo_116085" data-name="Grupo 116085" transform="translate(11.575)">
              <path id="Trazado_160425" data-name="Trazado 160425" d="M148.778,187.081a9.747,9.747,0,0,0,8.325,3.611c3.766-.177,7.958-.868,9.693,3.689,1.547,4.069.476,7.958-2.176,11.429-9,11.777-9.612,24.957-6.6,38.826,2.638,12.105,11.233,19.4,20.994,25.256,8.971,5.387,11.7,13.1,10.818,22.656-1.081,11.728-.115,23.522-.707,35.26a200.335,200.335,0,0,0,28.1,17.642,6.175,6.175,0,0,1,1.5-1.885c5.607-4.805,5.879-15.49,16.5-14.927.495.021,1.233-1.85,1.617-2.926,1.934-5.4,6.313-11.439,5.182-16.133-3.1-12.883,5.82-13.5,13.543-16.865,11.773-5.137,14.126-8.649,11.1-17.649-3.419-10.171-1.439-18.455,4.374-27.11,6.607-9.833,4.772-15.615-5.308-21.478a97.268,97.268,0,0,0-12.753-6.68c-9.125-3.625-17.523-7.882-21.746-17.527-1.856-4.236-4.663-7.129-9.87-6.659-3.551.32-4.339-2.943-4.793-5.182-2.025-10.008-8.668-10.361-16.329-7.95-4.176,1.314-7.537,1.3-9.412-2.972-4.283-9.756-9.814-7.48-15.984-2.064a39.256,39.256,0,0,1-5.706,3.953c-6.7,4.019-10.536,2.856-13.881-4.349a25.452,25.452,0,0,1-1.955-6.645,5.459,5.459,0,0,0-1.625-3.442H120.422C131.841,170.955,140.849,178.271,148.778,187.081Z" transform="translate(-120.422 -166.962)" fill="#a7e446"/>
              <path id="Trazado_160426" data-name="Trazado 160426" d="M387.876,176.873c-1.679-1.4-3.176.724-4.721.823-3.964.247-9.707,5.51-11.336.128-1.258-4.145,6.026-5.572,10.018-6.9a54.007,54.007,0,0,0,9.249-3.966H368.592a31.05,31.05,0,0,0-.371,8.084c-4.059-.206-3.947-3.951-6.183-4.879-.549-1.079-1.157-2.143-1.765-3.2H214.891c1.842,6.618,8.925,13.763,12.631,20.5,1.66,3.025,4.046,5.644,6.024,8.5,4.011,5.791,10.631,7.061,16.137,2.869,6.762-5.149,15.591.217,22.456-4.481.307-.21,1.561.664,2.172,1.246,4.407,4.166,9.7,6.962,15.3,9.406-6.915,7.88-8.047,8.54-2.782,17.568,5.737,9.837,1.3,21.695,7.985,30.985.79,1.093-.351,3.893-1.074,5.712-5.861,14.7-4.05,28.735,3.355,42.359a4.965,4.965,0,0,0,1.382.456c2.879,7.051,4.609,14.306,3.807,22-.392,3.743.8,7.055,5.042,5.591,9.666-3.341,21.206-.808,29.088-10.074,3.815-4.483,7.793-8.263,6.851-14.766-.458-3.13,1.239-5.3,3.462-7.447,2.246-2.159,4.652-5.112,3.283-8.331-3.541-8.288,1.343-12.392,7.49-15.343,6.756-3.244,8.3-8.127,7.775-15.139-.674-8.919-.045-17.927-.437-26.881-.392-8.868,6.807-13.782,10.606-20.216,5.467-9.262,8.465-19.23,12.165-29.043C388.227,180.791,389.973,178.624,387.876,176.873Z" transform="translate(-20.073 -166.962)" fill="#a7e446"/>
            </g>
          </g>
          <g id="Grupo_116088" data-name="Grupo 116088" transform="translate(160.296 289.409)">
            <path id="Trazado_160427" data-name="Trazado 160427" d="M515.869,175.912c0,10.119-89.831,18.325-200.646,18.325s-200.644-8.206-200.644-18.325,89.831-18.325,200.644-18.325S515.869,165.791,515.869,175.912Z" transform="translate(-114.579 -157.587)" fill="#94e1db"/>
            <g id="Grupo_116087" data-name="Grupo 116087" transform="translate(200.923 3.91)">
              <path id="Trazado_160428" data-name="Trazado 160428" d="M346.227,167.321c-.575,7.232-11.243,6.8-16.389,6.589-7.181-.293-14.221-1.738-21.346-2.522-10.924-1.2-22.386,1.619-33.066,3.572-13.349,2.44-26.692,3.887-39.94.066a.513.513,0,0,0-.272.988c13.132,3.79,26.384,2.464,39.632.089,11.565-2.073,23.621-5.009,35.423-3.473,7.9,1.027,15.766,2.532,23.759,2.351,5.211-.115,12.712-1.194,13.223-7.659C347.3,166.661,346.279,166.665,346.227,167.321Z" transform="translate(-187.741 -151.681)" fill="#c6efec"/>
              <path id="Trazado_160429" data-name="Trazado 160429" d="M278.593,170.593c5.4.369,11.953.984,15.479-4.011.381-.542-.509-1.054-.887-.518-3.26,4.621-9.651,3.84-14.593,3.5C277.933,169.522,277.937,170.549,278.593,170.593Z" transform="translate(-141.803 -152.734)" fill="#c6efec"/>
              <path id="Trazado_160430" data-name="Trazado 160430" d="M239.885,171.716c-3.516-.872-7.15-1.254-10.724-1.821-2.716-.431-5.935-.78-8.274-2.349-3.143-2.11,2.6-6.034,4.036-7.082.532-.386.021-1.274-.518-.885-1.957,1.425-5.815,3.9-5.436,6.828.3,2.316,3.5,3.11,5.337,3.584,3.71.957,7.575,1.307,11.346,1.93,2.829.466,7.548.866,9.412,3.392.388.528,1.279.017.885-.516C244.566,172.921,242.036,172.25,239.885,171.716Z" transform="translate(-204.642 -159.483)" fill="#c6efec"/>
              <path id="Trazado_160431" data-name="Trazado 160431" d="M235.541,174.911c-4.388-.177-7.274-3.951-11.483-4.766-.643-.124-.92.866-.272.99,4.314.833,7.212,4.617,11.755,4.8C236.2,175.965,236.2,174.94,235.541,174.911Z" transform="translate(-199.89 -148.168)" fill="#c6efec"/>
              <path id="Trazado_160432" data-name="Trazado 160432" d="M226.819,173.126a31.958,31.958,0,0,1-10.08-2.811c-1.472-.714-3.114-1.732-3.712-3.337-.755-2.025,1.514-3.869,2.877-4.935.52-.406-.21-1.128-.724-.726-2.978,2.328-4.758,5.766-1.192,8.492s8.47,3.826,12.831,4.343C227.472,174.23,227.464,173.2,226.819,173.126Z" transform="translate(-212.008 -157.66)" fill="#c6efec"/>
            </g>
          </g>
          <g id="Grupo_116089" data-name="Grupo 116089" transform="translate(374.517 223.723)">
            <path id="Trazado_160433" data-name="Trazado 160433" d="M230.487,149.477c3.562-.547,9.1-1.949,11.245-4.869,2.24-3.019,1.266-6.428-2.436-6.525,1.266-1.85,1.266-5.745-.876-6.818-2.143-1.167-4.479,1.266-5.648,2.825-.1-2.629-1.07-9.837-5.356-8.084-3.213,1.365-2.337,6.428-1.85,8.96a3.227,3.227,0,0,0-5.842-.293c-1.365,2.629.777,4.966,2.627,6.622-3.213.487-5.259,3.506-2.821,6.329C221.864,150.158,227.226,149.976,230.487,149.477Z" transform="translate(-218.457 -125.735)" fill="#88bc26"/>
            <path id="Trazado_160434" data-name="Trazado 160434" d="M230.572,138.337a17.191,17.191,0,0,1-.934,1.563,9.39,9.39,0,0,1-.089-1.545.33.33,0,0,0-.66,0,7.621,7.621,0,0,0,.235,2.246l.006.012a14,14,0,0,1-2.192,2.326c.019-1.7.014-3.407,0-5.108a5.835,5.835,0,0,0,1.967-2.512c.177-.382-.39-.716-.569-.332a5.926,5.926,0,0,1-1.4,2.023c-.012-1.959-.033-3.918-.035-5.875a.659.659,0,0,0-1.318,0c0,1.507.01,3.013.021,4.52a5.776,5.776,0,0,1-2.5-2.454c-.19-.379-.757-.045-.569.332a6.527,6.527,0,0,0,3.077,2.867c.014,1.938.023,3.877.012,5.816a4.981,4.981,0,0,1-1.309-.815c.184-.48.322-.975.46-1.47a.33.33,0,0,0-.635-.175c-.109.386-.219.771-.349,1.151a6.583,6.583,0,0,1-1.4-2.192c-.146-.4-.782-.225-.637.175a6.9,6.9,0,0,0,3.865,4.034c0,.095,0,.192,0,.287-.035,3.924-.516,7.822-.555,11.742a.659.659,0,0,0,1.318,0c.037-3.724.456-7.43.542-11.157a15.062,15.062,0,0,0,1.821-1.685,13.258,13.258,0,0,0,1.505.283c.415.06.594-.575.173-.635-.4-.058-.794-.126-1.188-.214a17.026,17.026,0,0,0,1.906-2.873C231.341,138.3,230.772,137.961,230.572,138.337Z" transform="translate(-214.974 -120.676)" fill="#12263f"/>
          </g>
          <g id="Grupo_116090" data-name="Grupo 116090" transform="translate(173.64 224.831)">
            <path id="Trazado_160435" data-name="Trazado 160435" d="M146.571,176.65c7.56-1.159,19.321-4.133,23.866-10.334,4.753-6.405,2.687-13.638-5.166-13.844,2.687-3.927,2.687-12.194-1.86-14.467-4.545-2.479-9.5,2.687-11.984,5.993-.208-5.578-2.275-20.87-11.367-17.15-6.82,2.891-4.96,13.638-3.927,19.01-2.479-5.166-9.711-5.993-12.4-.621-2.893,5.58,1.654,10.54,5.58,14.052-6.82,1.033-11.159,7.441-5.993,13.433C128.281,178.1,139.658,177.708,146.571,176.65Z" transform="translate(-121.05 -126.272)" fill="#a7e446"/>
            <path id="Trazado_160436" data-name="Trazado 160436" d="M146.758,153.013a37.744,37.744,0,0,1-1.982,3.316,19.724,19.724,0,0,1-.19-3.279.7.7,0,0,0-1.4,0,16.11,16.11,0,0,0,.5,4.766l.014.027a29.5,29.5,0,0,1-4.655,4.935c.039-3.613.033-7.226.01-10.839a12.352,12.352,0,0,0,4.17-5.327c.382-.81-.823-1.522-1.206-.705a12.628,12.628,0,0,1-2.974,4.289c-.031-4.153-.074-8.311-.078-12.466a1.4,1.4,0,0,0-2.8,0c0,3.2.025,6.4.047,9.594a12.23,12.23,0,0,1-5.31-5.209c-.4-.806-1.611-.1-1.208.707a13.863,13.863,0,0,0,6.529,6.082c.029,4.114.045,8.226.025,12.34a10.478,10.478,0,0,1-2.78-1.73c.39-1.019.681-2.068.98-3.118a.7.7,0,0,0-1.349-.371c-.233.819-.472,1.635-.742,2.442a13.961,13.961,0,0,1-2.963-4.654c-.305-.839-1.656-.476-1.349.373,1.272,3.5,4.473,7.327,8.2,8.558,0,.2,0,.406,0,.61-.078,8.327-1.1,16.6-1.18,24.916a1.4,1.4,0,0,0,2.8,0c.078-7.9.969-15.768,1.149-23.677a31.012,31.012,0,0,0,3.871-3.576,26.891,26.891,0,0,0,3.188.6c.881.126,1.262-1.221.371-1.349-.848-.122-1.689-.268-2.522-.454a35.953,35.953,0,0,0,4.046-6.1C148.389,152.922,147.181,152.217,146.758,153.013Z" transform="translate(-113.66 -115.538)" fill="#12263f"/>
          </g>
          <g id="Grupo_116091" data-name="Grupo 116091" transform="translate(242.769 264.889)">
            <path id="Trazado_160437" data-name="Trazado 160437" d="M159.551,166.515c-3.6-.516-6.486-8.033-4.118-11.019,2.677-3.293,7.515-.41,8.958,2.574.1-2.471.1-4.838,1.027-7.1.516-1.442,2.885-6.075,5.149-5.149,1.646.619,1.749,5.354,1.749,6.8a32.789,32.789,0,0,1-.823,6.385c.926-3.5,6.692-3.809,7.311,0,.516,2.883-2.883,7.1-5.766,7.517Z" transform="translate(-154.571 -145.697)" fill="#8cc63e"/>
            <path id="Trazado_160438" data-name="Trazado 160438" d="M171.533,156.84a15.59,15.59,0,0,1-6.591,3.227c.227-1.4.39-2.807.559-4.211a10,10,0,0,0,1.969-1.105c.379-.239.029-.843-.351-.6a13,13,0,0,1-1.524.92,39.09,39.09,0,0,1,.914-5.125.349.349,0,0,0-.672-.186c-.889,3.37-1.019,6.8-1.578,10.2a9.207,9.207,0,0,1-3.339-2.161,6.817,6.817,0,0,0,.431-1.458c.093-.439-.579-.625-.672-.186a8.055,8.055,0,0,1-.28,1.1,8.279,8.279,0,0,1-1.963-2.858c-.142-.425-.817-.241-.674.186a5.72,5.72,0,0,0,.6,1.229,6.311,6.311,0,0,1-1.763.01c-.445-.045-.441.652,0,.7a6.31,6.31,0,0,0,2.2-.085c.466.61,1,1.175,1.5,1.732a9.416,9.416,0,0,0,3.834,2.489c-.008.045-.014.089-.021.132-.085.439.588.627.67.186.012-.062.021-.124.033-.188a15.867,15.867,0,0,0,7.059-3.343C172.244,157.18,171.9,156.576,171.533,156.84Z" transform="translate(-152.766 -141.646)" fill="#8e4819"/>
          </g>
          <g id="Grupo_116092" data-name="Grupo 116092" transform="translate(211.241 241.857)">
            <path id="Trazado_160439" data-name="Trazado 160439" d="M151.31,173.126c4.7,1.969,14.442-1.239,16.081-5.434,2.13-5.395-1.415-8.534-6.445-7.622,3.339-5.205,5.945-21.5-.627-24.881-8.208-4.337-10.722,13.932-11.619,18.606-2.217-1.885-5.358-3.343-7.849-1.143-2.644,2.2-1.392,6.024-.266,8.938C142.131,165.729,146.959,171.3,151.31,173.126Z" transform="translate(-139.283 -134.529)" fill="#88bc26"/>
            <path id="Trazado_160440" data-name="Trazado 160440" d="M144.184,153.456a17.339,17.339,0,0,0,1.431,3.244,3.443,3.443,0,0,0,.406-1.526.513.513,0,0,1,1.025.031,5.157,5.157,0,0,1-.81,2.512,14.257,14.257,0,0,0,2.984,3.38c.361-6.484.79-12.965,1.324-19.441.107-1.312,2.157-1.258,2.05.062-.177,2.139-.324,4.279-.478,6.42a8.9,8.9,0,0,0,2.916-3.324c.326-.575,1.194-.031.87.544a9.166,9.166,0,0,1-3.877,3.972q-1.265,17.74-1.774,35.526a1.026,1.026,0,0,1-2.05-.062q.34-11.254.945-22.495a17.276,17.276,0,0,1-5.958-8.6C142.99,153.066,143.99,152.829,144.184,153.456Z" transform="translate(-135.162 -127.974)" fill="#12263f"/>
          </g>
          <g id="Grupo_116093" data-name="Grupo 116093" transform="translate(397.652 225.409)">
            <path id="Trazado_160441" data-name="Trazado 160441" d="M236.406,204.962c-3.153-42.326,12.171-54.918,12.171-54.918s14.37-.9,24.609-7.144c9.237-5.63,27.764-16.347,27.764-16.347s-17.492,21.2-14.337,78.409Z" transform="translate(-222.979 -126.553)" fill="#00a7af"/>
            <path id="Trazado_160442" data-name="Trazado 160442" d="M295.5,178.706a9.128,9.128,0,1,0-4.712-16.933,7.289,7.289,0,0,0-12.934,6.484,4.373,4.373,0,0,0-4.551-.3,9.015,9.015,0,0,0-16.393-1.885A10.437,10.437,0,0,0,237,165.2c-.179-.014-.357-.056-.536-.056a6.782,6.782,0,1,0,0,13.563Z" transform="translate(-229.675 -92.824)" fill="#fff"/>
            <path id="Trazado_160443" data-name="Trazado 160443" d="M271.808,142.9c-10.239,6.24-24.609,7.144-24.609,7.144s-4.89,4.023-8.577,15.149c-1.411,7.154-2.339,13.423.5,13.794,3.384.307,8.311-11.39,11.695-13.235,6.158-3.386,4.617,4.31,4,8.925-.924,4.617-2.466,11.7,1.229,15.391,4.617,4.617,9.542-.617,11.7-4.925,1.85-2.77,3.081-34.782,11.083-29.857,3.693,2.155-.924,10.466,0,13.238,1.819,3.893,5.164,1.437,7.461-1.091,3.7-29.243,13.279-40.88,13.279-40.88S281.045,137.271,271.808,142.9Z" transform="translate(-221.601 -126.553)" fill="#94e1db" opacity="0.5"/>
          </g>
          <path id="Trazado_160444" data-name="Trazado 160444" d="M300.5,176.873a27.072,27.072,0,0,0,9.853-5.222c3.419-2.867-11.907-18.261-47.617-18.261-94.707,0-148.154,18.3-148.154,26.98,0,10.119,89.831,18.325,200.644,18.325q11.9,0,23.45-.126C339,197.943,340.716,184.3,300.5,176.873Z" transform="translate(45.717 127.364)" fill="#a7e446"/>
          <g id="Grupo_116094" data-name="Grupo 116094" transform="translate(270.03 245.112)">
            <path id="Trazado_160445" data-name="Trazado 160445" d="M185.649,181.81c-5.758,1.444-16.424-3.976-17.572-9.1-1.5-6.593,3.135-9.583,8.773-7.645-2.93-6.591-3.058-25.832,5.11-28.566,10.225-3.549,9.9,17.948,10.107,23.493,2.889-1.782,6.764-2.908,9.249.068,2.658,3,.54,7.185-1.272,10.346C197.531,174.906,190.988,180.478,185.649,181.81Z" transform="translate(-167.79 -136.107)" fill="#a7e446"/>
            <path id="Trazado_160446" data-name="Trazado 160446" d="M185.023,157.49a17.5,17.5,0,0,1-1.561,3.267,3.544,3.544,0,0,1-.367-1.569c.021-.676-1.027-.674-1.048,0a5.264,5.264,0,0,0,.751,2.588,14.493,14.493,0,0,1-3.147,3.363c-.173-6.632-.415-13.262-.763-19.888-.07-1.345-2.165-1.351-2.1,0,.115,2.188.2,4.378.295,6.568a9.056,9.056,0,0,1-2.877-3.483c-.315-.6-1.219-.066-.905.53a9.358,9.358,0,0,0,3.836,4.172c.505,12.1.73,24.213.736,36.324a1.048,1.048,0,0,0,2.1,0q-.006-11.5-.285-23a17.645,17.645,0,0,0,6.343-8.6C186.252,157.127,185.24,156.855,185.023,157.49Z" transform="translate(-162.001 -127.469)" fill="#12263f"/>
          </g>
          <g id="Grupo_116095" data-name="Grupo 116095" transform="translate(391.766 237.285)">
            <path id="Trazado_160447" data-name="Trazado 160447" d="M234.233,151.285c-2.39.6-6.814-1.652-7.294-3.778-.623-2.737,1.3-3.978,3.64-3.174-1.215-2.735-1.266-10.722,2.122-11.858,4.244-1.472,4.11,7.451,4.2,9.752,1.2-.738,2.809-1.206,3.838.029,1.105,1.244.227,2.982-.526,4.3A11.356,11.356,0,0,1,234.233,151.285Z" transform="translate(-226.821 -132.312)" fill="#8bc53b"/>
            <path id="Trazado_160448" data-name="Trazado 160448" d="M233.974,141.188a7.25,7.25,0,0,1-.652,1.357,1.507,1.507,0,0,1-.148-.652.218.218,0,0,0-.435,0,2.151,2.151,0,0,0,.311,1.072,6.1,6.1,0,0,1-1.305,1.4q-.108-4.13-.316-8.257c-.031-.557-.9-.561-.87,0,.045.909.083,1.819.12,2.726a3.8,3.8,0,0,1-1.2-1.444c-.128-.25-.5-.029-.373.219a3.871,3.871,0,0,0,1.592,1.732c.21,5.024.3,10.049.305,15.079a.435.435,0,0,0,.87,0q0-4.776-.12-9.546a7.31,7.31,0,0,0,2.633-3.57C234.486,141.038,234.063,140.924,233.974,141.188Z" transform="translate(-224.417 -128.726)" fill="#12263f"/>
          </g>
          <g id="Grupo_116096" data-name="Grupo 116096" transform="translate(298.712 268.082)">
            <path id="Trazado_160449" data-name="Trazado 160449" d="M204.82,185.14c-5.781.714-15.017.965-19.631-2.64-4.809-3.714-4.789-9.443.926-11.217-2.782-2.324-4.492-8.383-1.627-10.988,2.819-2.757,7.523,0,10.025,1.916-1-4.135-2.648-15.77,4.784-14.922,5.6.711,6.455,8.973,6.807,13.124.751-4.3,5.882-6.4,8.96-3.019,3.275,3.493.967,8.067-1.186,11.454,5.213-.652,9.717,3.149,7.168,8.608C218.523,182.42,210.105,184.486,204.82,185.14Z" transform="translate(-181.698 -147.246)" fill="#88bc26"/>
            <path id="Trazado_160450" data-name="Trazado 160450" d="M200.871,167.359a28.366,28.366,0,0,1-1.51,2.526,15.033,15.033,0,0,1-.144-2.5.532.532,0,0,0-1.064,0,12.215,12.215,0,0,0,.379,3.63l.01.021A22.53,22.53,0,0,1,195,174.8c.029-2.751.023-5.5.006-8.255a9.4,9.4,0,0,0,3.178-4.056c.289-.619-.629-1.157-.92-.538A9.655,9.655,0,0,1,195,165.214c-.025-3.163-.058-6.329-.06-9.495a1.066,1.066,0,0,0-2.13,0c0,2.436.019,4.871.035,7.307a9.331,9.331,0,0,1-4.044-3.968c-.305-.612-1.225-.074-.918.538a10.534,10.534,0,0,0,4.972,4.632c.021,3.133.033,6.265.017,9.4a7.943,7.943,0,0,1-2.118-1.318c.3-.775.522-1.574.747-2.374a.532.532,0,0,0-1.025-.283c-.177.623-.361,1.246-.567,1.86a10.635,10.635,0,0,1-2.256-3.545c-.233-.639-1.262-.365-1.027.283.969,2.666,3.407,5.58,6.242,6.519,0,.157,0,.311,0,.464-.06,6.343-.835,12.642-.9,18.979a1.065,1.065,0,0,0,2.128,0c.062-6.02.738-12.013.876-18.032a23.755,23.755,0,0,0,2.947-2.724,21.015,21.015,0,0,0,2.429.46c.67.1.959-.93.283-1.027-.646-.093-1.287-.2-1.922-.346a27.376,27.376,0,0,0,3.081-4.644C202.112,167.291,201.195,166.753,200.871,167.359Z" transform="translate(-176.501 -139.338)" fill="#12263f"/>
          </g>
          <g id="Grupo_116097" data-name="Grupo 116097" transform="translate(354.728 303.311)">
            <path id="Trazado_160451" data-name="Trazado 160451" d="M212.6,187.076c-3.584-1.536-5.418-9.216-1.705-11.266,3.968-2.174,6.913.256,10.625,1.027.256-3.844.256-11.266,5.121-12.419,3.584-.9,6.018,5.121,6.269,7.938,3.46-4.865,8.575-4.1,8.579,2.431,0,5.121-1.322,7.168-3.8,12.289Z" transform="translate(-208.861 -164.328)" fill="#12263f"/>
            <path id="Trazado_160452" data-name="Trazado 160452" d="M232.995,172.507a28.018,28.018,0,0,1-2.848,4.7,6.455,6.455,0,0,1-.342-1.512c-.043-.553-.909-.557-.866,0a9,9,0,0,0,.573,2.312,16.226,16.226,0,0,1-4.9,4.05c1.015-4.844.858-9.75.594-14.681-.029-.557-.9-.559-.864,0,.146,2.788.264,5.57.157,8.336a4.75,4.75,0,0,1-1.91-2.549.434.434,0,0,0-.835.231,5.4,5.4,0,0,0,2.7,3.246,35.882,35.882,0,0,1-.707,5.337c-1.508-.39-3.027-.74-4.539-1.114-.006-.949-.045-1.9-.091-2.842-.027-.557-.893-.561-.866,0,.043.874.074,1.753.087,2.629-2.064-.507-4.727-1.072-6.366-2.38-.433-.344-1.052.264-.612.61a8.71,8.71,0,0,0,2.77,1.384,6.856,6.856,0,0,1-1.7.544.433.433,0,0,0,.229.835,5.388,5.388,0,0,0,2.466-1.05c.367.118.738.239,1.1.375a73.793,73.793,0,0,0,7.333,1.854v.008a.435.435,0,0,0,.78.346,16.623,16.623,0,0,0,5.877-4.652.37.37,0,0,0,.243-.295,27.733,27.733,0,0,0,3.279-5.294C233.985,172.441,233.24,172,232.995,172.507Z" transform="translate(-206.371 -161.531)" fill="#12263f"/>
          </g>
          <g id="Grupo_116098" data-name="Grupo 116098" transform="translate(265.761 294.87)">
            <path id="Trazado_160453" data-name="Trazado 160453" d="M189.384,178.871c2.937-1.26,4.438-7.552,1.4-9.229-3.25-1.784-5.661.208-8.7.839-.21-3.147-.21-9.231-4.195-10.173-2.935-.734-4.929,4.195-5.137,6.5-2.831-3.986-7.024-3.357-7.026,1.992,0,4.195,1.083,5.873,3.112,10.068Z" transform="translate(-165.72 -160.235)" fill="#1c5447"/>
            <path id="Trazado_160454" data-name="Trazado 160454" d="M168.442,166.934a23.029,23.029,0,0,0,2.332,3.854,5.216,5.216,0,0,0,.28-1.239c.037-.452.747-.454.711,0a7.4,7.4,0,0,1-.47,1.9,13.352,13.352,0,0,0,4.015,3.318,46.3,46.3,0,0,1-.487-12.029c.025-.454.734-.456.709,0-.12,2.287-.216,4.564-.128,6.83a3.868,3.868,0,0,0,1.563-2.087.355.355,0,0,1,.685.188,4.43,4.43,0,0,1-2.211,2.66,28.924,28.924,0,0,0,.579,4.372c1.235-.32,2.479-.608,3.718-.914,0-.777.035-1.553.072-2.328.023-.456.732-.458.709,0-.033.72-.062,1.437-.07,2.155,1.691-.417,3.873-.878,5.215-1.951.355-.28.86.219.5.5A7.253,7.253,0,0,1,183.9,173.3a5.655,5.655,0,0,0,1.388.441.355.355,0,0,1-.188.685,4.4,4.4,0,0,1-2.021-.858c-.3.1-.6.2-.9.305a60.115,60.115,0,0,1-6.007,1.52v.006a.357.357,0,0,1-.639.287,13.65,13.65,0,0,1-4.813-3.811.3.3,0,0,1-.2-.243,22.938,22.938,0,0,1-2.687-4.335C167.631,166.883,168.242,166.522,168.442,166.934Z" transform="translate(-163.521 -157.943)" fill="#8e4819"/>
          </g>
          <g id="Grupo_116100" data-name="Grupo 116100" transform="translate(179.122 285.295)">
            <path id="Trazado_160455" data-name="Trazado 160455" d="M124.347,175.855c-1.524-4.213-.536-20.441,5.292-20.262,5.914.179,5.826,7.084,6.812,11.118,1.7-2.869,7.8-5.917,8.16-.45.089,2.6-2.369,7.278-4.393,9.594Z" transform="translate(-123.708 -155.592)" fill="#88bc26"/>
            <g id="Grupo_116099" data-name="Grupo 116099" transform="translate(3.981 4.149)">
              <path id="Trazado_160456" data-name="Trazado 160456" d="M130.386,168.1c.08-.1.153-.208.229-.311a.278.278,0,0,0,.159,0c.711-.223,1.437-.4,2.149-.619.371-.116.212-.7-.163-.586-.54.169-1.089.315-1.633.472.382-.59.738-1.2,1.13-1.782.866-1.291,1.821-2.518,2.638-3.844.206-.334-.32-.639-.524-.305-.654,1.058-1.382,2.064-2.1,3.077-.153.212-.295.433-.437.654-.058-.38-.126-.755-.151-1.136s-.635-.392-.608,0c.041.59.181,1.167.229,1.757a.3.3,0,0,0,.045.14,20.288,20.288,0,0,1-1.39,2.056C129.716,167.972,130.14,168.405,130.386,168.1Z" transform="translate(-121.128 -154.02)" fill="#8e4819"/>
              <path id="Trazado_160457" data-name="Trazado 160457" d="M130.828,167.29c.241-.305-.186-.736-.429-.431-.365.462-.759.9-1.161,1.32a8.424,8.424,0,0,1-.221-1.056c-.054-.386-.637-.221-.584.163a7.718,7.718,0,0,0,.313,1.4c-.375.371-.767.73-1.165,1.079a75.564,75.564,0,0,1,.4-11.866c.047-.39-.561-.384-.606,0-.171,1.415-.287,2.854-.363,4.3-.268-.311-.555-.606-.8-.94-.227-.311-.753-.01-.524.307.4.542.918.99,1.27,1.561l0,0a86.9,86.9,0,0,0,.12,8.927c.025.388.631.39.606,0-.031-.5-.056-1.011-.08-1.518A23.123,23.123,0,0,0,130.828,167.29Z" transform="translate(-125.639 -157.604)" fill="#8e4819"/>
            </g>
          </g>
          <g id="Grupo_116101" data-name="Grupo 116101" transform="translate(171.647 286.024)">
            <path id="Trazado_160458" data-name="Trazado 160458" d="M140.673,167.766l-.031-.068c-.219-.621-1.211-.353-.99.272a1.137,1.137,0,0,0,.5.681A.513.513,0,0,0,140.673,167.766Z" transform="translate(-99.33 -143.837)" fill="#8cc63e"/>
            <path id="Trazado_160459" data-name="Trazado 160459" d="M141.028,167.759c-.01.179-.041.355-.054.534-.045.66.982.656,1.027,0,.012-.179.043-.355.054-.534C142.09,167.1,141.065,167.1,141.028,167.759Z" transform="translate(-97.893 -143.923)" fill="#8cc63e"/>
            <path id="Trazado_160460" data-name="Trazado 160460" d="M146.052,169.209v.375a.513.513,0,0,0,1.025,0v-.375A.513.513,0,0,0,146.052,169.209Z" transform="translate(-92.498 -142.383)" fill="#8cc63e"/>
            <path id="Trazado_160461" data-name="Trazado 160461" d="M145.034,169.79a.491.491,0,0,1,.035.237.514.514,0,0,0,1.027,0,2.232,2.232,0,0,0-.072-.509A.514.514,0,0,0,145.034,169.79Z" transform="translate(-93.6 -141.918)" fill="#8cc63e"/>
            <path id="Trazado_160462" data-name="Trazado 160462" d="M147.672,169.832a3.213,3.213,0,0,0-.268.48c-.26.6.625,1.124.887.518a3.153,3.153,0,0,1,.268-.483C148.922,169.793,148.033,169.281,147.672,169.832Z" transform="translate(-91.112 -141.446)" fill="#8cc63e"/>
            <path id="Trazado_160463" data-name="Trazado 160463" d="M159.877,170.309c-.305-.586-1.192-.068-.885.516a1.1,1.1,0,0,0,.161.268c.377.536,1.268.027.885-.518A1.235,1.235,0,0,1,159.877,170.309Z" transform="translate(-78.82 -140.962)" fill="#8cc63e"/>
            <path id="Trazado_160464" data-name="Trazado 160464" d="M159.5,170.219v.268a.513.513,0,0,0,1.025,0v-.268A.513.513,0,0,0,159.5,170.219Z" transform="translate(-78.218 -141.31)" fill="#8cc63e"/>
            <path id="Trazado_160465" data-name="Trazado 160465" d="M160.31,170.543l-.08.148c-.421.5.3,1.233.724.724a1.942,1.942,0,0,0,.346-.6C161.537,170.2,160.545,169.933,160.31,170.543Z" transform="translate(-77.573 -140.807)" fill="#8cc63e"/>
            <path id="Trazado_160466" data-name="Trazado 160466" d="M158.845,170.829l-.266-.159a.513.513,0,0,0-.518.885c.089.054.177.105.266.161A.514.514,0,0,0,158.845,170.829Z" transform="translate(-80.002 -140.386)" fill="#8cc63e"/>
            <path id="Trazado_160467" data-name="Trazado 160467" d="M153.142,158.757c-.3-.59-1.184-.07-.887.518a2.918,2.918,0,0,0,.349.532c.419.511,1.14-.219.726-.726A1.743,1.743,0,0,1,153.142,158.757Z" transform="translate(-85.973 -153.236)" fill="#8cc63e"/>
            <path id="Trazado_160468" data-name="Trazado 160468" d="M153.6,158.528a3.583,3.583,0,0,1-.32.534c-.373.549.516,1.06.885.518a3.267,3.267,0,0,0,.32-.534C154.756,158.447,153.871,157.925,153.6,158.528Z" transform="translate(-84.914 -153.487)" fill="#8cc63e"/>
            <path id="Trazado_160469" data-name="Trazado 160469" d="M152.868,159.858l-.035.186a.514.514,0,0,0,.99.272,1.8,1.8,0,0,0,.07-.458C153.922,159.2,152.895,159.2,152.868,159.858Z" transform="translate(-85.319 -152.315)" fill="#8cc63e"/>
            <path id="Trazado_160470" data-name="Trazado 160470" d="M148.621,159.1c-.227-.617-1.219-.351-.99.272.064.169.134.334.212.5.291.592,1.178.072.887-.518A1.432,1.432,0,0,1,148.621,159.1Z" transform="translate(-90.856 -152.971)" fill="#8cc63e"/>
            <path id="Trazado_160471" data-name="Trazado 160471" d="M149.456,159.28c-.054.072-.107.142-.159.214-.4.53.493,1.039.885.518.054-.072.107-.142.159-.214C150.739,159.267,149.848,158.758,149.456,159.28Z" transform="translate(-89.157 -152.637)" fill="#8cc63e"/>
            <path id="Trazado_160472" data-name="Trazado 160472" d="M134.737,165.143c-.359-.553-1.246-.039-.887.518a2.345,2.345,0,0,1,.161.322c.27.6,1.153.08.885-.518A2.588,2.588,0,0,0,134.737,165.143Z" transform="translate(-105.548 -146.428)" fill="#8cc63e"/>
            <path id="Trazado_160473" data-name="Trazado 160473" d="M134.338,165.539c.01.062.025.122.035.184.027.66,1.054.662,1.025,0a1.71,1.71,0,0,0-.072-.456A.513.513,0,0,0,134.338,165.539Z" transform="translate(-104.966 -146.428)" fill="#8cc63e"/>
            <path id="Trazado_160474" data-name="Trazado 160474" d="M130.681,165.622v.208c-.144.643.846.918.988.272a1.6,1.6,0,0,0,0-.753C131.527,164.7,130.537,164.976,130.681,165.622Z" transform="translate(-108.84 -146.349)" fill="#8cc63e"/>
            <path id="Trazado_160475" data-name="Trazado 160475" d="M131.549,165.316c-.064.2-.151.39-.214.59-.2.631.79.9.99.272.064-.2.151-.39.214-.588C132.739,164.957,131.749,164.689,131.549,165.316Z" transform="translate(-108.159 -146.371)" fill="#8cc63e"/>
            <path id="Trazado_160476" data-name="Trazado 160476" d="M124.6,165.584a3.4,3.4,0,0,0-.179-.408.514.514,0,0,0-.887.518,1.227,1.227,0,0,1,.163.359.539.539,0,0,0,.918.161.511.511,0,0,0,1-.136v-.429A.51.51,0,0,0,124.6,165.584Z" transform="translate(-116.493 -146.407)" fill="#8cc63e"/>
            <path id="Trazado_160477" data-name="Trazado 160477" d="M122.078,165.238c-.392-.522-1.283-.012-.887.518.161.212.322.427.483.641.392.522,1.283.012.885-.518Z" transform="translate(-119.012 -146.308)" fill="#8cc63e"/>
            <path id="Trazado_160478" data-name="Trazado 160478" d="M120.986,165.214c-.511-.406-1.244.313-.726.726.318.252.664.472.963.749.485.447,1.211-.276.724-.726C121.648,165.686,121.306,165.468,120.986,165.214Z" transform="translate(-120.083 -146.228)" fill="#8cc63e"/>
            <path id="Trazado_160479" data-name="Trazado 160479" d="M122.206,165.06a1.042,1.042,0,0,1,0-.423c.115-.645-.872-.922-.99-.272a2.63,2.63,0,0,0,0,.967C121.334,165.984,122.321,165.705,122.206,165.06Z" transform="translate(-118.927 -147.396)" fill="#8cc63e"/>
            <path id="Trazado_160480" data-name="Trazado 160480" d="M133.313,158.308c0,.035-.017.066-.021.1a.7.7,0,0,1-.095-.237c-.144-.643-1.132-.371-.988.272a1.571,1.571,0,0,0,.716,1,.444.444,0,0,0,.643-.132.5.5,0,0,0,.645-.334,2.994,2.994,0,0,0,.124-.672C134.387,157.648,133.36,157.653,133.313,158.308Z" transform="translate(-107.217 -153.971)" fill="#8cc63e"/>
            <path id="Trazado_160481" data-name="Trazado 160481" d="M146.157,156.3c-.206-.625-1.2-.357-.988.272.054.161.107.322.161.481.206.625,1.2.357.988-.272C146.264,156.623,146.21,156.462,146.157,156.3Z" transform="translate(-93.467 -155.946)" fill="#8cc63e"/>
            <path id="Trazado_160482" data-name="Trazado 160482" d="M146.919,157.085a3.885,3.885,0,0,0-.072-.724c-.124-.65-1.112-.373-.988.272a2.364,2.364,0,0,1,.035.452A.513.513,0,0,0,146.919,157.085Z" transform="translate(-92.715 -155.898)" fill="#8cc63e"/>
            <path id="Trazado_160483" data-name="Trazado 160483" d="M148.031,157.123c.078-.181.148-.363.212-.551.212-.627-.777-.9-.99-.272-.033.1-.068.2-.107.305C146.885,157.206,147.77,157.727,148.031,157.123Z" transform="translate(-91.386 -155.945)" fill="#8cc63e"/>
            <path id="Trazado_160484" data-name="Trazado 160484" d="M142.912,156.371a.514.514,0,0,0-.726.726,6.857,6.857,0,0,1,.534.588c.408.52,1.13-.212.726-.726A7.189,7.189,0,0,0,142.912,156.371Z" transform="translate(-96.764 -155.655)" fill="#8cc63e"/>
            <path id="Trazado_160485" data-name="Trazado 160485" d="M169.27,169.393c.124-.65-.866-.922-.988-.274a2.447,2.447,0,0,0-.041.483.533.533,0,0,0-.237-.2,1.592,1.592,0,0,1-.573-.507c-.423-.509-1.145.221-.726.724a2.548,2.548,0,0,0,1.027.773.42.42,0,0,0,.594-.318.512.512,0,0,0,.945-.367A.578.578,0,0,1,169.27,169.393Z" transform="translate(-70.693 -142.375)" fill="#8cc63e"/>
            <path id="Trazado_160486" data-name="Trazado 160486" d="M191.562,174.077c-.047.116-.1.229-.144.344l-.01-.008a1.065,1.065,0,0,1-.4-.349c-.363-.542-1.233-.045-.891.5a.723.723,0,0,1-.445-.536c-.14-.646-1.128-.371-.988.272a1.677,1.677,0,0,0,.93,1.161.542.542,0,0,0,.769-.567,2.03,2.03,0,0,0,.511.406.47.47,0,0,0,.458.01.569.569,0,0,0,.883-.208c.105-.252.219-.5.322-.749C192.8,173.739,191.812,173.477,191.562,174.077Z" transform="translate(-47.232 -137.132)" fill="#8cc63e"/>
            <path id="Trazado_160487" data-name="Trazado 160487" d="M207.877,173.25c-.134-.65-1.124-.371-.99.272a2.035,2.035,0,0,0,.666,1.134c.493.437,1.221-.285.726-.724A1.146,1.146,0,0,1,207.877,173.25Z" transform="translate(-27.889 -137.958)" fill="#8cc63e"/>
            <path id="Trazado_160488" data-name="Trazado 160488" d="M209.35,174.387c-.072-.648-1.1-.656-1.025,0a2.575,2.575,0,0,0,.285.9c.289.594,1.175.076.885-.516A1.216,1.216,0,0,1,209.35,174.387Z" transform="translate(-26.353 -136.876)" fill="#8cc63e"/>
            <path id="Trazado_160489" data-name="Trazado 160489" d="M208.649,173.226a.513.513,0,0,0-1.025,0,2.238,2.238,0,0,0,.072.561.512.512,0,0,0,.988-.27A.736.736,0,0,1,208.649,173.226Z" transform="translate(-27.093 -138.118)" fill="#8cc63e"/>
            <path id="Trazado_160490" data-name="Trazado 160490" d="M204.024,165.345a.514.514,0,0,0-.99.272c.064.214.148.425.212.639.192.633,1.182.363.99-.27C204.173,165.768,204.088,165.559,204.024,165.345Z" transform="translate(-31.994 -146.345)" fill="#8cc63e"/>
            <path id="Trazado_160491" data-name="Trazado 160491" d="M204.815,165.479a.513.513,0,0,0-1.025,0,1.934,1.934,0,0,0,.072.565c.194.631,1.184.361.988-.272A.671.671,0,0,1,204.815,165.479Z" transform="translate(-31.166 -146.345)" fill="#8cc63e"/>
            <path id="Trazado_160492" data-name="Trazado 160492" d="M209.027,162.2a.964.964,0,0,1-.142-.274c-.078-.65-1.105-.656-1.025,0a1.738,1.738,0,0,0,.283.792C208.5,163.273,209.389,162.761,209.027,162.2Z" transform="translate(-26.848 -150.111)" fill="#8cc63e"/>
            <path id="Trazado_160493" data-name="Trazado 160493" d="M209.528,161.887l.037-.177c.134-.646-.854-.92-.988-.272-.054.249-.109.5-.161.749a.533.533,0,0,0,.819.542c.045.4.53.722.839.33a1.841,1.841,0,0,0,.344-.707A.519.519,0,0,0,209.528,161.887Z" transform="translate(-26.265 -150.505)" fill="#8cc63e"/>
            <path id="Trazado_160494" data-name="Trazado 160494" d="M207.325,162.792c.511.408,1.242-.311.724-.726-.089-.07-.179-.138-.266-.212-.5-.431-1.225.291-.726.726C207.144,162.653,207.235,162.719,207.325,162.792Z" transform="translate(-27.873 -149.811)" fill="#8cc63e"/>
            <path id="Trazado_160495" data-name="Trazado 160495" d="M204.76,156.926c-.173.241-.328.493-.481.747a.513.513,0,0,0,.885.52c.153-.256.307-.507.48-.749C206.03,156.905,205.139,156.394,204.76,156.926Z" transform="translate(-30.729 -155.143)" fill="#8cc63e"/>
            <path id="Trazado_160496" data-name="Trazado 160496" d="M204.639,157.79a1.908,1.908,0,0,1,.322-.786c.386-.54-.5-1.052-.885-.518a2.59,2.59,0,0,0-.427,1.029C203.523,158.163,204.511,158.437,204.639,157.79Z" transform="translate(-31.328 -155.611)" fill="#8cc63e"/>
            <path id="Trazado_160497" data-name="Trazado 160497" d="M204.19,157.2a5.224,5.224,0,0,0-.212-.747c-.231-.615-1.223-.349-.99.272a4.981,4.981,0,0,1,.214.747C203.339,158.12,204.327,157.845,204.19,157.2Z" transform="translate(-32.055 -155.776)" fill="#8cc63e"/>
            <path id="Trazado_160498" data-name="Trazado 160498" d="M205.484,157.527a1.763,1.763,0,0,0-.478.346c-.476.46.25,1.184.726.726a.543.543,0,0,1,.27-.188C206.6,158.127,206.075,157.242,205.484,157.527Z" transform="translate(-30.04 -154.326)" fill="#8cc63e"/>
            <path id="Trazado_160499" data-name="Trazado 160499" d="M179.486,160.635c-.118-.65-1.105-.373-.99.272a2.929,2.929,0,0,0,.32.924c.32.579,1.206.062.885-.518A2.119,2.119,0,0,1,179.486,160.635Z" transform="translate(-58.045 -151.358)" fill="#8cc63e"/>
            <path id="Trazado_160500" data-name="Trazado 160500" d="M179.408,160.661c-.052.249-.107.5-.159.749-.134.643.854.92.988.272.052-.25.109-.5.161-.749C180.532,160.287,179.544,160.013,179.408,160.661Z" transform="translate(-57.247 -151.33)" fill="#8cc63e"/>
          </g>
          <path id="Trazado_160501" data-name="Trazado 160501" d="M286.326,129.958a16.551,16.551,0,1,0-9.621-30.014A13.748,13.748,0,0,0,252.047,110.8a9.825,9.825,0,1,0-3.06,19.16Z" transform="translate(178.05 64.429)" fill="#fff"/>
          <g id="Train" transform="translate(396.204 225.875)">
            <path id="Trazado_160502" data-name="Trazado 160502" d="M431.877,126.779h-158.7c-3.122,0-5.89,1.837-9.893,8.222l-28.267,42.167c-11.151,17.8.175,21.375,3.3,21.375h200.5a121.211,121.211,0,0,0-6.944-71.764Z" transform="translate(-227.653 -126.779)" fill="#fe8313"/>
            <path id="Trazado_160503" data-name="Trazado 160503" d="M440.5,149.564H236.431l-2.279,3.4a41.939,41.939,0,0,0-3.118,5.865H440.148Q440.5,154.242,440.5,149.564Z" transform="translate(-226.784 -102.576)" fill="#12263f"/>
            <path id="Trazado_160504" data-name="Trazado 160504" d="M230.242,158.569H440.383q.2-1.565.355-3.141H230.859A16.842,16.842,0,0,0,230.242,158.569Z" transform="translate(-227.625 -96.347)" fill="#12263f"/>
            <path id="Trazado_160505" data-name="Trazado 160505" d="M282.726,163.145a1.564,1.564,0,0,1-1.565,1.563H240.241a1.564,1.564,0,0,1-1.565-1.563h0a1.566,1.566,0,0,1,1.565-1.567H281.16a1.566,1.566,0,0,1,1.565,1.567Z" transform="translate(-218.666 -89.814)" fill="#dadada"/>
            <g id="Grupo_116102" data-name="Grupo 116102" transform="translate(23.233 71.764)">
              <path id="Trazado_160506" data-name="Trazado 160506" d="M249.95,166.435a4.856,4.856,0,1,1-4.857-4.857A4.855,4.855,0,0,1,249.95,166.435Z" transform="translate(-240.239 -161.578)" fill="#273438"/>
              <path id="Trazado_160507" data-name="Trazado 160507" d="M245.207,164.822a1.725,1.725,0,1,1-1.726-1.726A1.724,1.724,0,0,1,245.207,164.822Z" transform="translate(-238.626 -159.966)" fill="#cbd6d8"/>
            </g>
            <g id="Grupo_116103" data-name="Grupo 116103" transform="translate(50.558 71.764)">
              <path id="Trazado_160508" data-name="Trazado 160508" d="M263.2,166.435a4.856,4.856,0,1,1-4.857-4.857A4.855,4.855,0,0,1,263.2,166.435Z" transform="translate(-253.489 -161.578)" fill="#273438"/>
              <path id="Trazado_160509" data-name="Trazado 160509" d="M258.457,164.822a1.725,1.725,0,1,1-1.726-1.726A1.724,1.724,0,0,1,258.457,164.822Z" transform="translate(-251.876 -159.966)" fill="#cbd6d8"/>
            </g>
            <path id="Trazado_160510" data-name="Trazado 160510" d="M319.278,163.145a1.564,1.564,0,0,1-1.565,1.563H276.793a1.564,1.564,0,0,1-1.565-1.563h0a1.566,1.566,0,0,1,1.565-1.567h40.919a1.566,1.566,0,0,1,1.565,1.567Z" transform="translate(-179.839 -89.814)" fill="#dadada"/>
            <g id="Grupo_116104" data-name="Grupo 116104" transform="translate(98.612 71.764)">
              <path id="Trazado_160511" data-name="Trazado 160511" d="M286.5,166.435a4.856,4.856,0,1,1-4.857-4.857A4.855,4.855,0,0,1,286.5,166.435Z" transform="translate(-276.791 -161.578)" fill="#273438"/>
              <path id="Trazado_160512" data-name="Trazado 160512" d="M281.759,164.822a1.725,1.725,0,1,1-1.726-1.726A1.724,1.724,0,0,1,281.759,164.822Z" transform="translate(-275.179 -159.966)" fill="#cbd6d8"/>
            </g>
            <g id="Grupo_116105" data-name="Grupo 116105" transform="translate(125.937 71.764)">
              <path id="Trazado_160513" data-name="Trazado 160513" d="M299.754,166.435a4.857,4.857,0,1,1-4.859-4.857A4.857,4.857,0,0,1,299.754,166.435Z" transform="translate(-290.041 -161.578)" fill="#273438"/>
              <path id="Trazado_160514" data-name="Trazado 160514" d="M295.009,164.822a1.725,1.725,0,1,1-1.726-1.726A1.724,1.724,0,0,1,295.009,164.822Z" transform="translate(-288.429 -159.966)" fill="#cbd6d8"/>
            </g>
            <path id="Trazado_160515" data-name="Trazado 160515" d="M353.545,163.145a1.564,1.564,0,0,1-1.567,1.563H311.059a1.563,1.563,0,0,1-1.563-1.563h0a1.566,1.566,0,0,1,1.563-1.567h40.919a1.567,1.567,0,0,1,1.567,1.567Z" transform="translate(-143.438 -89.814)" fill="#dadada"/>
            <g id="Grupo_116106" data-name="Grupo 116106" transform="translate(169.281 71.764)">
              <path id="Trazado_160516" data-name="Trazado 160516" d="M320.77,166.435a4.856,4.856,0,1,1-4.857-4.857A4.855,4.855,0,0,1,320.77,166.435Z" transform="translate(-311.059 -161.578)" fill="#273438"/>
              <path id="Trazado_160517" data-name="Trazado 160517" d="M316.025,164.822A1.724,1.724,0,1,1,314.3,163.1,1.723,1.723,0,0,1,316.025,164.822Z" transform="translate(-309.447 -159.966)" fill="#cbd6d8"/>
            </g>
            <g id="Grupo_116107" data-name="Grupo 116107" transform="translate(196.606 71.764)">
              <path id="Trazado_160518" data-name="Trazado 160518" d="M334.02,166.435a4.856,4.856,0,1,1-4.857-4.857A4.855,4.855,0,0,1,334.02,166.435Z" transform="translate(-324.309 -161.578)" fill="#273438"/>
              <path id="Trazado_160519" data-name="Trazado 160519" d="M329.277,164.822a1.725,1.725,0,1,1-1.726-1.726A1.725,1.725,0,0,1,329.277,164.822Z" transform="translate(-322.697 -159.966)" fill="#cbd6d8"/>
            </g>
            <g id="Grupo_116108" data-name="Grupo 116108" transform="translate(34.379 7.335)">
              <path id="Trazado_160520" data-name="Trazado 160520" d="M272.575,130.336H260.563c-3.122,0-3.3,2.24-5.655,5.655l-9.185,15.075a5.634,5.634,0,0,0,.037,2.1,4.249,4.249,0,0,0,2.867,3.093,6.917,6.917,0,0,0,1.081.305,8.633,8.633,0,0,0,1.668.159h21.2a5.653,5.653,0,0,0,5.655-5.653V135.991A5.656,5.656,0,0,0,272.575,130.336Z" transform="translate(-245.643 -130.336)" fill="#88bfb7"/>
              <path id="Trazado_160521" data-name="Trazado 160521" d="M292.569,133.145a5.682,5.682,0,0,0-4.879-2.809H270.26a5.654,5.654,0,0,0-5.655,5.655v15.075a5.651,5.651,0,0,0,5.655,5.653h17.43a5.653,5.653,0,0,0,5.655-5.653V135.991A5.6,5.6,0,0,0,292.569,133.145Z" transform="translate(-225.502 -130.336)" fill="#88bfb7"/>
              <path id="Trazado_160522" data-name="Trazado 160522" d="M303.682,130.336H286.25a5.654,5.654,0,0,0-5.653,5.655v15.075a5.721,5.721,0,0,0,1.3,3.611,5.811,5.811,0,0,0,.641.654,5.638,5.638,0,0,0,3.708,1.388h17.432a5.652,5.652,0,0,0,5.653-5.653V135.991A5.655,5.655,0,0,0,303.682,130.336Z" transform="translate(-208.514 -130.336)" fill="#88bfb7"/>
              <path id="Trazado_160523" data-name="Trazado 160523" d="M319.9,130.336H302.47a5.654,5.654,0,0,0-5.653,5.655v15.075a5.651,5.651,0,0,0,5.653,5.653H319.9a5.652,5.652,0,0,0,5.653-5.653V135.991A5.655,5.655,0,0,0,319.9,130.336Z" transform="translate(-191.285 -130.336)" fill="#88bfb7"/>
              <path id="Trazado_160524" data-name="Trazado 160524" d="M266.2,134.254c-.773-.87-2.351-.734-3.526.307L245.7,149.608a4.249,4.249,0,0,0,2.867,3.093l16.906-14.982C266.646,136.679,266.97,135.128,266.2,134.254Z" transform="translate(-245.583 -126.783)" fill="#ccfef8"/>
              <path id="Trazado_160525" data-name="Trazado 160525" d="M262.848,137.487a1.51,1.51,0,0,0-2.083.181l-13.151,11.656a8.63,8.63,0,0,0,1.668.159h1.908l11.229-9.95A1.513,1.513,0,0,0,262.848,137.487Z" transform="translate(-243.55 -123.101)" fill="#ccfef8"/>
              <path id="Trazado_160526" data-name="Trazado 160526" d="M287.2,130.432l-19.614,17.385c-1.175,1.041-1.5,2.592-.728,3.465s2.351.736,3.527-.305l20.231-17.933A5.657,5.657,0,0,0,287.2,130.432Z" transform="translate(-223.55 -130.234)" fill="#ccfef8"/>
              <path id="Trazado_160527" data-name="Trazado 160527" d="M298.954,141.953c-1.173,1.041-1.5,2.59-.726,3.462s2.351.736,3.524-.305l16.667-14.774h-6.36Z" transform="translate(-190.232 -130.336)" fill="#ccfef8"/>
              <path id="Trazado_160528" data-name="Trazado 160528" d="M316.01,139.281a1.511,1.511,0,0,0-2.083.179l-9.16,8.117h3.757l7.055-6.251A1.512,1.512,0,0,0,316.01,139.281Z" transform="translate(-182.84 -121.195)" fill="#ccfef8"/>
              <path id="Trazado_160529" data-name="Trazado 160529" d="M336.122,130.336H318.69a5.654,5.654,0,0,0-5.653,5.655v15.075a5.652,5.652,0,0,0,5.653,5.653h17.432a5.652,5.652,0,0,0,5.652-5.653V135.991A5.655,5.655,0,0,0,336.122,130.336Z" transform="translate(-174.055 -130.336)" fill="#88bfb7"/>
              <path id="Trazado_160530" data-name="Trazado 160530" d="M336.984,135.177c-.771-.872-2.351-.736-3.524.305l-18.531,16.426a5.6,5.6,0,0,0,1.753.278h4.292l15.287-13.547C337.431,137.6,337.757,136.049,336.984,135.177Z" transform="translate(-172.046 -125.804)" fill="#ccfef8"/>
            </g>
            <path id="Trazado_160531" data-name="Trazado 160531" d="M300.733,137.1c-.716-.808-2.176-.683-3.262.283L283.122,150.1h5.888l11.052-9.794C301.148,139.341,301.449,137.906,300.733,137.1Z" transform="translate(-171.454 -116.38)" fill="#ccfef8"/>
            <path id="Trazado_160532" data-name="Trazado 160532" d="M231.431,166.287a2.461,2.461,0,0,0,0,4.923H436.1q.841-2.438,1.578-4.923Z" transform="translate(-228.973 -84.812)" fill="#3c3c3b"/>
          </g>
          <g id="Plane_1" data-name="Plane 1" transform="translate(122.261 0)">
            <path id="Trazado_160533" data-name="Trazado 160533" d="M213,79.006,177,75.622c-.359,0-.709.023-1.06.054a11.819,11.819,0,0,1,2.3,7v10.4a11.8,11.8,0,0,1-2.475,7.238,11.7,11.7,0,0,0,1.237.064l36.135-3.714c8.3-1.9,10.905-6.189,10.905-8.169V87.5C224.035,83.918,220.059,79.749,213,79.006Z" transform="translate(-38.816 18.406)" fill="#9d9d9c"/>
            <path id="Trazado_160534" data-name="Trazado 160534" d="M181.953,82.651a11.819,11.819,0,0,0-2.3-7c-6.067.538-7.4,5.622-7.4,11.825v.99c0,6.146,1.242,11.206,7.222,11.825a11.8,11.8,0,0,0,2.475-7.238Z" transform="translate(-42.536 18.434)" fill="#afdce0"/>
            <path id="Trazado_160535" data-name="Trazado 160535" d="M386.077,90.591c0-.757-.039-1.479-.1-2.18-1.151-12.757-12.314-16.475-17.735-16.475l-.419-.047c3.91-8.655,10.645-23.706,13.176-30.276,3.058-7.925,3.151-14.223-4.644-10.474-2.918,1.4-20.309,11.367-20.309,11.367-7.3,4.287-5.673,4.683-9.573,10.524L335.585,68.321c-55.666-6.065-164.249-17.436-177.65-15.36-9,1.394-20.358,13.3-23.908,23.479-8.754,2.316-24.914,14.858-24.671,22C109.812,111.8,129.931,113.7,137.6,113.7h93.405l68.023,38.312a38.57,38.57,0,0,0,18.2,4.648c13.37,0,40.36,1.584,46.565-2.914,4.708-3.413-2.547-7.48-6.321-9.635l-55.914-31.924,61.638-5.292S386.077,104.62,386.077,90.591Z" transform="translate(-109.354 -30.027)" fill="#fc4b52"/>
            <path id="Trazado_160536" data-name="Trazado 160536" d="M355.529,71.936l-.419-.047c1.332-2.951,3-6.649,4.708-10.5q.47-1.061.944-2.132c.233-.526.468-1.052.7-1.58,1.786-4.046,3.526-8.049,4.91-11.355.763-1.817,1.421-3.43,1.914-4.712,3.058-7.925,3.151-14.223-4.644-10.474-2.918,1.4-20.309,11.367-20.309,11.367-7.3,4.287-5.673,4.683-9.573,10.524L322.876,68.321c-55.666-6.065-164.25-17.436-177.65-15.36a21.975,21.975,0,0,0-9.208,4.3c-6.372,4.683-12.31,12.322-14.7,19.177,0,0,10.86,1.477,29.408,3.434,44.441,4.683,133.073,12.112,222.539,8.538C372.114,75.654,360.951,71.936,355.529,71.936Z" transform="translate(-96.645 -30.027)" fill="#feca2e"/>
            <g id="Grupo_116109" data-name="Grupo 116109" transform="translate(24.673 27.236)">
              <path id="Trazado_160537" data-name="Trazado 160537" d="M136.018,43.234c-6.372,4.683-12.31,12.322-14.7,19.177a42.12,42.12,0,0,0,4.4,1.885q1.342.489,2.662.87a44.646,44.646,0,0,0,22.34.678s2.2-2.1,4.626-8.1a58.8,58.8,0,0,0,2.724-10.48A57.385,57.385,0,0,1,136.018,43.234Z" transform="translate(-121.318 -43.234)" fill="#12263f"/>
              <path id="Trazado_160538" data-name="Trazado 160538" d="M140.393,48.782a1.112,1.112,0,0,0-1.538-.3l-15.4,10.433q1.343.489,2.662.87l13.98-9.47A1.108,1.108,0,0,0,140.393,48.782Z" transform="translate(-119.049 -37.856)" fill="#50777f"/>
              <path id="Trazado_160539" data-name="Trazado 160539" d="M143.688,46.459l-13.722,9.3a.851.851,0,0,0,.955,1.409l13.722-9.295a.852.852,0,0,0-.955-1.411Z" transform="translate(-112.529 -39.963)" fill="#50777f"/>
            </g>
            <g id="Grupo_116110" data-name="Grupo 116110" transform="translate(70.041 32.77)">
              <path id="Trazado_160540" data-name="Trazado 160540" d="M150.275,45.939a5.689,5.689,0,0,0-6.164,5.168l-.72,8.15-.054.625a5.573,5.573,0,0,0,.062,1.427,5.436,5.436,0,0,0,.126.584,5.686,5.686,0,0,0,11.146-1.013l.771-8.775A5.691,5.691,0,0,0,150.275,45.939Z" transform="translate(-143.317 -45.917)" fill="#12263f"/>
              <path id="Trazado_160541" data-name="Trazado 160541" d="M152.869,49.964a.852.852,0,0,0-1.182-.227l-8.3,5.618-.054.625a5.573,5.573,0,0,0,.062,1.427l9.241-6.259A.855.855,0,0,0,152.869,49.964Z" transform="translate(-143.317 -42.015)" fill="#50777f"/>
              <path id="Trazado_160542" data-name="Trazado 160542" d="M150.061,51.838a.438.438,0,0,0-.608-.118l-6.034,4.087a5.713,5.713,0,0,0,.307.85l6.218-4.213A.437.437,0,0,0,150.061,51.838Z" transform="translate(-143.21 -39.833)" fill="#50777f"/>
            </g>
            <g id="Grupo_116111" data-name="Grupo 116111" transform="translate(93.838 34.742)">
              <path id="Trazado_160543" data-name="Trazado 160543" d="M166.738,51.925a5.686,5.686,0,0,0-11.326.285L154.868,61a5.689,5.689,0,1,0,11.357.7l.5-8.041.047-.749c.006-.115,0-.227,0-.342A5.178,5.178,0,0,0,166.738,51.925Z" transform="translate(-154.857 -46.874)" fill="#12263f"/>
              <path id="Trazado_160544" data-name="Trazado 160544" d="M156.121,54.711a.852.852,0,0,0,.955,1.411l8.717-5.906a5.666,5.666,0,0,0-.476-1.732Z" transform="translate(-153.911 -45.164)" fill="#50777f"/>
              <path id="Trazado_160545" data-name="Trazado 160545" d="M158.113,53.743a.439.439,0,0,0,.608.115l4.621-3.13.047-.749c.006-.115,0-.227,0-.342l-5.164,3.5A.439.439,0,0,0,158.113,53.743Z" transform="translate(-151.478 -43.938)" fill="#50777f"/>
            </g>
            <g id="Grupo_116113" data-name="Grupo 116113" transform="translate(117.985 36.538)">
              <g id="Grupo_116112" data-name="Grupo 116112">
                <path id="Trazado_160546" data-name="Trazado 160546" d="M178.294,53.616a5.687,5.687,0,0,0-11.367-.412l-.34,8.344L166.57,62a5.664,5.664,0,0,0,.146,1.514c.039.165.083.326.136.485a5.617,5.617,0,0,0,.338.821,5.687,5.687,0,0,0,10.746-2.357l.206-5.052.043-1.089.025-.6.085-2.064Z" transform="translate(-166.566 -47.745)" fill="#12263f"/>
              </g>
              <path id="Trazado_160547" data-name="Trazado 160547" d="M178.3,50.639l0-.047-11.707,7.931-.017.456a5.665,5.665,0,0,0,.146,1.514L178.212,52.7Z" transform="translate(-166.566 -44.72)" fill="#50777f"/>
              <path id="Trazado_160548" data-name="Trazado 160548" d="M167.043,60.4a.462.462,0,0,0,.045-.023L178,52.994l.043-1.089-11.334,7.678A5.624,5.624,0,0,0,167.043,60.4Z" transform="translate(-166.418 -43.326)" fill="#50777f"/>
            </g>
            <path id="Trazado_160549" data-name="Trazado 160549" d="M223.775,52.937l28.853-3.652c1.786-4.046,3.526-8.049,4.91-11.355l-23.679,3Z" transform="translate(12.19 -21.632)" fill="#fc4b52"/>
            <path id="Trazado_160550" data-name="Trazado 160550" d="M223.318,49.832l28.152-3.5q.47-1.061.944-2.132l-27.968,3.543Z" transform="translate(11.704 -14.97)" fill="#fc4b52"/>
          </g>
          <g id="Bus" transform="translate(0 194.251)">
            <path id="Trazado_160551" data-name="Trazado 160551" d="M253.239,111.444H60.77c-9.969,0-15.556,22.46-15.556,51.562,0,2,.115,53.422.115,53.422,0,3.025,2.452,6.686,5.479,6.686l214.89-.072a5.479,5.479,0,0,0,5.479-5.479s.027-13.2.056-26.483c0-1.19.006-2.378.008-3.557,0-.553,0-1.1,0-1.65.008-3.46.014-6.8.021-9.79.014-6.529.025-11.355.025-11.94C271.292,135.038,263.208,111.444,253.239,111.444Z" transform="translate(-27.966 -111.444)" fill="#feca2e"/>
            <path id="Trazado_160552" data-name="Trazado 160552" d="M76.23,187.523H57.656c-4.613,0-8.367-4.19-8.367-9.342V141.929c0-5.152,3.753-9.34,8.367-9.34H76.23c4.613,0,8.369,4.188,8.369,9.34v36.252C84.6,183.333,80.843,187.523,76.23,187.523ZM57.656,135.258c-3.3,0-5.974,2.994-5.974,6.671v36.252c0,3.681,2.679,6.675,5.974,6.675H76.23c3.293,0,5.976-2.994,5.976-6.675V141.929c0-3.677-2.683-6.671-5.976-6.671Z" transform="translate(-23.637 -88.983)" fill="#42938d"/>
            <path id="Trazado_160553" data-name="Trazado 160553" d="M62.459,117.257H41.828v.016l-.06-.016s-5.455,19.672-4.875,20.61c1.112,1.8,4.789-.938,7.162-4.537,2.285-3.463,4.046-9.047,4.9-12.091H62.459Z" transform="translate(-36.85 -105.269)" fill="#3c3c3b"/>
            <g id="Grupo_116114" data-name="Grupo 116114" transform="translate(23.214 4.665)">
              <path id="Trazado_160554" data-name="Trazado 160554" d="M80.629,113.729c-.132-.01-.266-.023-.4-.023H59.711c-5.651,0-11.6,19.969-11.6,29.2v33.01a6.131,6.131,0,0,0,1.835,4.4,5.96,5.96,0,0,0,.656.553L85.854,163.92V119.678A5.835,5.835,0,0,0,80.629,113.729Z" transform="translate(-48.107 -113.706)" fill="#12263f"/>
              <path id="Trazado_160555" data-name="Trazado 160555" d="M74.124,129.663a2.413,2.413,0,0,0-3.543.309L48.107,158.091v1.545a6.131,6.131,0,0,0,1.835,4.4l24.471-30.62A2.778,2.778,0,0,0,74.124,129.663Z" transform="translate(-48.107 -97.429)" fill="#50777f"/>
              <path id="Trazado_160556" data-name="Trazado 160556" d="M69.737,113.706,52.771,134.935a2.78,2.78,0,0,0,.289,3.757,2.414,2.414,0,0,0,3.543-.305l19.707-24.658c-.132-.01-.266-.023-.4-.023Z" transform="translate(-43.788 -113.706)" fill="#50777f"/>
            </g>
            <path id="Trazado_160557" data-name="Trazado 160557" d="M71.709,145.729a1.642,1.642,0,0,1-1.642,1.644h-8.36a1.646,1.646,0,0,1-1.646-1.644h0a1.645,1.645,0,0,1,1.646-1.642h8.36a1.642,1.642,0,0,1,1.642,1.642Z" transform="translate(-12.194 -76.769)" fill="#f6f6f6"/>
            <g id="Grupo_116115" data-name="Grupo 116115" transform="translate(169.176 90.062)">
              <path id="Trazado_160558" data-name="Trazado 160558" d="M140.411,155.116a21.527,21.527,0,0,0-21.526,21.528h43.049A21.526,21.526,0,0,0,140.411,155.116Z" transform="translate(-118.885 -155.116)" fill="#42938d"/>
              <path id="Trazado_160559" data-name="Trazado 160559" d="M157.878,175.264a18.847,18.847,0,1,1-18.847-18.849A18.846,18.846,0,0,1,157.878,175.264Z" transform="translate(-117.505 -153.736)" fill="#273438"/>
              <path id="Trazado_160560" data-name="Trazado 160560" d="M150.568,172.783a14.03,14.03,0,1,1-14.032-14.031A14.029,14.029,0,0,1,150.568,172.783Z" transform="translate(-115.038 -151.255)" fill="#6cc7c2"/>
              <path id="Trazado_160561" data-name="Trazado 160561" d="M147.642,171.784a12.091,12.091,0,1,1-12.091-12.093A12.091,12.091,0,0,1,147.642,171.784Z" transform="translate(-114.025 -150.256)" fill="#ededed"/>
              <path id="Trazado_160562" data-name="Trazado 160562" d="M134.385,167.28a3.349,3.349,0,1,1-3.351-3.349A3.351,3.351,0,0,1,134.385,167.28Z" transform="translate(-109.535 -145.752)" fill="#273438"/>
            </g>
            <path id="Trazado_160563" data-name="Trazado 160563" d="M116.05,113.706H77.293a8.006,8.006,0,0,0-8.006,8.008v33.542a8.02,8.02,0,0,0,8.006,8.008H116.05a8.007,8.007,0,0,0,8.006-8.008V121.714A8.007,8.007,0,0,0,116.05,113.706Z" transform="translate(-2.394 -109.041)" fill="#12263f"/>
            <path id="Trazado_160564" data-name="Trazado 160564" d="M100.928,113.706H93.974L69.287,142.115v8.647L100.28,115.1A2.777,2.777,0,0,0,100.928,113.706Z" transform="translate(-2.394 -109.041)" fill="#50777f"/>
            <path id="Trazado_160565" data-name="Trazado 160565" d="M86.627,149H94.14l11.5-13.228V127.13Z" transform="translate(16.026 -94.781)" fill="#50777f"/>
            <path id="Trazado_160566" data-name="Trazado 160566" d="M145.169,113.706H106.414a8.006,8.006,0,0,0-8.008,8.008v33.542a8.006,8.006,0,0,0,8.008,8.008h38.756a8.007,8.007,0,0,0,8.006-8.008V121.714A8.007,8.007,0,0,0,145.169,113.706Z" transform="translate(28.537 -109.041)" fill="#12263f"/>
            <path id="Trazado_160567" data-name="Trazado 160567" d="M107.769,121.413a2.839,2.839,0,0,0-4,.28l-5.362,6.172v8.645l9.643-11.1A2.835,2.835,0,0,0,107.769,121.413Z" transform="translate(28.537 -101.592)" fill="#50777f"/>
            <path id="Trazado_160568" data-name="Trazado 160568" d="M101.112,144.287c.617.536,1.771.219,2.578-.709l25.1-28.878a3.017,3.017,0,0,0,.584-.994h-3.644l-24.271,27.927C100.648,142.563,100.5,143.751,101.112,144.287Z" transform="translate(31.01 -109.041)" fill="#50777f"/>
            <path id="Trazado_160569" data-name="Trazado 160569" d="M115.989,148.707H123.5l11-12.652v-8.646Z" transform="translate(47.215 -94.485)" fill="#50777f"/>
            <path id="Trazado_160570" data-name="Trazado 160570" d="M168.986,118.855a8.246,8.246,0,0,0-1.918-3.415,5.27,5.27,0,0,0-3.795-1.734H133.646c-3.382,0-6.121,3.586-6.121,8.008v33.542c0,4.421,2.739,8.008,6.121,8.008l29.628-6.391c3.382,0,6.121-3.584,6.121-8.006V121.714A10.193,10.193,0,0,0,168.986,118.855Z" transform="translate(59.469 -109.041)" fill="#12263f"/>
            <path id="Trazado_160571" data-name="Trazado 160571" d="M135.359,122.544a2.84,2.84,0,0,0-4,.28l-3.834,4.413v8.645l8.113-9.336A2.839,2.839,0,0,0,135.359,122.544Z" transform="translate(59.469 -100.39)" fill="#50777f"/>
            <path id="Trazado_160572" data-name="Trazado 160572" d="M157.439,114.547l-20.4,23.47a1.845,1.845,0,0,0,2.784,2.421l19.532-22.476A8.246,8.246,0,0,0,157.439,114.547Z" transform="translate(69.098 -108.148)" fill="#50777f"/>
            <path id="Trazado_160573" data-name="Trazado 160573" d="M81.775,142.741a4.989,4.989,0,1,0,0,9.977h154.99a5.078,5.078,0,0,0,.945-.091c.008-3.46.014-6.8.021-9.789a4.97,4.97,0,0,0-.965-.1Z" transform="translate(5.572 -78.199)" fill="#12263f"/>
            <path id="Trazado_160574" data-name="Trazado 160574" d="M79.494,148.335a1.779,1.779,0,1,0,0,3.557H236.711c0-1.19.006-2.378.008-3.557Z" transform="translate(6.557 -72.257)" fill="#12263f"/>
            <path id="Trazado_160575" data-name="Trazado 160575" d="M45.746,148.042a2.3,2.3,0,0,1,.062-.509,1.147,1.147,0,0,0-.328-.05.887.887,0,0,0-.957.794v8.647a.888.888,0,0,0,.957.8,1.129,1.129,0,0,0,.338-.054,2.218,2.218,0,0,1-.072-.553Z" transform="translate(-28.7 -73.162)" fill="#c6c6c6"/>
            <path id="Trazado_160576" data-name="Trazado 160576" d="M46.9,146.761a1.844,1.844,0,0,0-1.72,1.538,2.3,2.3,0,0,0-.062.509v9.072a2.218,2.218,0,0,0,.072.553,1.837,1.837,0,0,0,1.71,1.493,1.928,1.928,0,0,0,1.784-2.046v-9.072A1.93,1.93,0,0,0,46.9,146.761Z" transform="translate(-28.07 -73.929)" fill="#f6f6f6"/>
            <path id="Trazado_160577" data-name="Trazado 160577" d="M153.345,155.2h-3.891a2.8,2.8,0,0,0-2.594,2.968s.984,2.188,2.009,3.9c.811,1.353,1.658,2.4,3.091,2.4H163.32V155.2Z" transform="translate(80.006 -64.967)" fill="#dadada"/>
            <rect id="Rectngulo_40609" data-name="Rectngulo 40609" width="9.017" height="7.331" transform="translate(234.308 91.162)" fill="#de2d32"/>
            <path id="Trazado_160578" data-name="Trazado 160578" d="M149.971,155.649A2.348,2.348,0,0,0,147.624,158a33.153,33.153,0,0,0,1.817,3.083c.734,1.07,1.5,1.9,2.794,1.9h1.254v-7.331Z" transform="translate(80.819 -64.488)" fill="#ff9409"/>
            <g id="Grupo_116116" data-name="Grupo 116116" transform="translate(49.075 90.062)">
              <path id="Trazado_160579" data-name="Trazado 160579" d="M82.171,155.116a21.526,21.526,0,0,0-21.524,21.528H103.7A21.527,21.527,0,0,0,82.171,155.116Z" transform="translate(-60.647 -155.116)" fill="#42938d"/>
              <path id="Trazado_160580" data-name="Trazado 160580" d="M99.64,175.264a18.847,18.847,0,1,1-18.849-18.849A18.847,18.847,0,0,1,99.64,175.264Z" transform="translate(-59.267 -153.736)" fill="#273438"/>
              <path id="Trazado_160581" data-name="Trazado 160581" d="M92.33,172.783A14.03,14.03,0,1,1,78.3,158.751,14.029,14.029,0,0,1,92.33,172.783Z" transform="translate(-56.8 -151.255)" fill="#6cc7c2"/>
              <path id="Trazado_160582" data-name="Trazado 160582" d="M89.4,171.784a12.091,12.091,0,1,1-12.093-12.093A12.092,12.092,0,0,1,89.4,171.784Z" transform="translate(-55.787 -150.256)" fill="#ededed"/>
              <path id="Trazado_160583" data-name="Trazado 160583" d="M76.147,167.28a3.349,3.349,0,1,1-3.351-3.349A3.351,3.351,0,0,1,76.147,167.28Z" transform="translate(-51.297 -145.752)" fill="#273438"/>
            </g>
          </g>
          <g id="Ship" transform="translate(200.281 360.521)">
            <rect id="Rectngulo_40610" data-name="Rectngulo 40610" width="145.005" height="55.257" transform="translate(55.96 42.586)" fill="#feca2e"/>
            <path id="Trazado_160584" data-name="Trazado 160584" d="M312.97,214.829c0,3.174-3.139,5.747-7.008,5.747H166.29c-3.871,0-7.007-2.574-7.007-5.747h0c0-3.176,3.137-5.75,7.007-5.75H305.962c3.869,0,7.008,2.574,7.008,5.75Z" transform="translate(-107.077 -174.002)" fill="#193b53"/>
            <rect id="Rectngulo_40611" data-name="Rectngulo 40611" width="3.85" height="35.077" transform="translate(77.879)" fill="#575756"/>
            <path id="Trazado_160585" data-name="Trazado 160585" d="M200.536,209.13a12.884,12.884,0,0,0-8.635-1.169c-2.293.478-8.226,4.465-11.049,5.56a10.4,10.4,0,0,1-7.253,0V194.2s3.411,3.774,7.484,4.989c2.924.872,6.649.223,9.721.573C198.486,200.641,200.536,209.13,200.536,209.13Z" transform="translate(-91.87 -189.804)" fill="#fc4b52"/>
            <path id="Trazado_160586" data-name="Trazado 160586" d="M196.13,218.011H173.476a8.446,8.446,0,0,0-8.447,8.447v3.871a8.437,8.437,0,0,0,7.909,8.418c.179.012.357.029.538.029h28.331V218.011Z" transform="translate(-100.974 -164.514)" fill="#193b53"/>
            <path id="Trazado_160587" data-name="Trazado 160587" d="M237.377,218.011H184.314v20.765h53.321V218.011Z" transform="translate(-80.488 -164.514)" fill="#193b53"/>
            <path id="Trazado_160588" data-name="Trazado 160588" d="M238.369,218.011H211.62v20.765h26.749a8.447,8.447,0,0,0,8.447-8.447v-3.871A8.447,8.447,0,0,0,238.369,218.011Z" transform="translate(-51.483 -164.514)" fill="#193b53"/>
            <path id="Trazado_160589" data-name="Trazado 160589" d="M192.071,218.011h-4.63l-18.016,18.936a2.107,2.107,0,0,0-.547,1.8c.179.012.357.029.538.029h4.1L191.53,219.84A2.1,2.1,0,0,0,192.071,218.011Z" transform="translate(-96.915 -164.514)" fill="#50777f"/>
            <path id="Trazado_160590" data-name="Trazado 160590" d="M181.273,224.471a1.192,1.192,0,0,0-1.685.039l-7.379,7.754H175.5l5.816-6.11A1.192,1.192,0,0,0,181.273,224.471Z" transform="translate(-93.347 -158.002)" fill="#50777f"/>
            <path id="Trazado_160591" data-name="Trazado 160591" d="M200.663,234.746a2.109,2.109,0,0,0,2.984-.076L219.5,218.011h-5.83L200.588,231.76A2.11,2.11,0,0,0,200.663,234.746Z" transform="translate(-63.82 -164.514)" fill="#50777f"/>
            <path id="Trazado_160592" data-name="Trazado 160592" d="M212.989,219.93a2.114,2.114,0,0,0-2.986.076L193.5,237.354h5.83l13.737-14.438A2.114,2.114,0,0,0,212.989,219.93Z" transform="translate(-70.734 -163.092)" fill="#50777f"/>
            <path id="Trazado_160593" data-name="Trazado 160593" d="M214.315,234.746a2.109,2.109,0,0,0,2.984-.076l15.855-16.659h-5.832L214.241,231.76A2.112,2.112,0,0,0,214.315,234.746Z" transform="translate(-49.317 -164.514)" fill="#50777f"/>
            <g id="Grupo_116117" data-name="Grupo 116117" transform="translate(122.011 84.117)">
              <rect id="Rectngulo_40612" data-name="Rectngulo 40612" width="1.877" height="10.662" transform="translate(14.078)" fill="#706f6f"/>
              <rect id="Rectngulo_40613" data-name="Rectngulo 40613" width="1.877" height="10.662" transform="translate(7.039)" fill="#706f6f"/>
              <rect id="Rectngulo_40614" data-name="Rectngulo 40614" width="1.877" height="10.662" fill="#706f6f"/>
              <rect id="Rectngulo_40615" data-name="Rectngulo 40615" width="1.877" height="10.662" transform="translate(105.586)" fill="#706f6f"/>
              <rect id="Rectngulo_40616" data-name="Rectngulo 40616" width="1.876" height="10.662" transform="translate(98.547)" fill="#706f6f"/>
              <rect id="Rectngulo_40617" data-name="Rectngulo 40617" width="1.876" height="10.662" transform="translate(91.508)" fill="#706f6f"/>
              <rect id="Rectngulo_40618" data-name="Rectngulo 40618" width="1.877" height="10.662" transform="translate(84.469)" fill="#706f6f"/>
              <rect id="Rectngulo_40619" data-name="Rectngulo 40619" width="1.876" height="10.662" transform="translate(77.43)" fill="#706f6f"/>
              <rect id="Rectngulo_40620" data-name="Rectngulo 40620" width="1.877" height="10.662" transform="translate(70.391)" fill="#706f6f"/>
              <rect id="Rectngulo_40621" data-name="Rectngulo 40621" width="1.877" height="10.662" transform="translate(63.352)" fill="#706f6f"/>
              <rect id="Rectngulo_40622" data-name="Rectngulo 40622" width="1.876" height="10.662" transform="translate(56.312)" fill="#706f6f"/>
              <rect id="Rectngulo_40623" data-name="Rectngulo 40623" width="1.877" height="10.662" transform="translate(49.274)" fill="#706f6f"/>
              <rect id="Rectngulo_40624" data-name="Rectngulo 40624" width="1.877" height="10.662" transform="translate(42.234)" fill="#706f6f"/>
              <rect id="Rectngulo_40625" data-name="Rectngulo 40625" width="1.877" height="10.662" transform="translate(35.195)" fill="#706f6f"/>
              <rect id="Rectngulo_40626" data-name="Rectngulo 40626" width="1.877" height="10.662" transform="translate(28.156)" fill="#706f6f"/>
              <rect id="Rectngulo_40627" data-name="Rectngulo 40627" width="1.877" height="10.662" transform="translate(21.117)" fill="#706f6f"/>
            </g>
            <path id="Trazado_160594" data-name="Trazado 160594" d="M364.145,245.386H278.62c-4.966,0-10.522-2.13-16-4.795-3.06-1.491-6.094-3.147-8.987-4.694q-1.126-.6-2.217-1.173c-1.969-1.029-3.854-1.976-5.615-2.73-3.656-1.573-103.389-.584-103.389-.584a8.515,8.515,0,0,0-7.657,4.487,7.173,7.173,0,0,0-.79,3.254l.779,1.439,35.941,66.283H336.81l35.782-53.748C372.592,248.851,368.81,245.386,364.145,245.386Z" transform="translate(-133.968 -150.607)" fill="#fc4b52"/>
            <path id="Trazado_160595" data-name="Trazado 160595" d="M253.636,233.428H134.758a7.173,7.173,0,0,0-.79,3.254l.779,1.439H262.623C259.563,236.631,256.529,234.975,253.636,233.428Z" transform="translate(-133.968 -148.137)" fill="#193b53"/>
            <g id="Grupo_116118" data-name="Grupo 116118" transform="translate(14.368 81.645)">
              <path id="Trazado_160596" data-name="Trazado 160596" d="M172.5,240.216a16.882,16.882,0,1,0,2.04,6.026,16.852,16.852,0,0,0-2.04-6.026Zm-9.361,17.205a10.253,10.253,0,0,1-2.283,1.025c-.283.089-.569.155-.854.216a10.357,10.357,0,0,1-11.478-5.556,10.761,10.761,0,0,1-.615-1.522,10.54,10.54,0,0,1-.344-1.6,10.353,10.353,0,0,1,6.362-11.037c.276-.111.557-.217.845-.307a10.354,10.354,0,0,1,12.945,6.863,9.861,9.861,0,0,1,.278,1.147A10.362,10.362,0,0,1,163.141,257.421Z" transform="translate(-140.935 -231.66)" fill="#fff"/>
              <path id="Trazado_160597" data-name="Trazado 160597" d="M149.8,238.624a10.334,10.334,0,0,1,2.481-.431l-.4-6.519a16.921,16.921,0,0,0-6.267,1.6l3.345,5.657C149.235,238.82,149.516,238.715,149.8,238.624Z" transform="translate(-135.965 -231.646)" fill="#fc4b52"/>
              <path id="Trazado_160598" data-name="Trazado 160598" d="M151.036,245.177c-.283.089-.569.155-.854.216l.406,6.562a16.947,16.947,0,0,0,6.055-2.182l-3.324-5.622A10.254,10.254,0,0,1,151.036,245.177Z" transform="translate(-131.113 -218.391)" fill="#fc4b52"/>
              <path id="Trazado_160599" data-name="Trazado 160599" d="M159.133,235.809l-5.613,3.322a10.289,10.289,0,0,1,.831,1.963,9.869,9.869,0,0,1,.278,1.147l6.544-.406a16.849,16.849,0,0,0-2.04-6.026Z" transform="translate(-127.567 -227.253)" fill="#fc4b52"/>
              <path id="Trazado_160600" data-name="Trazado 160600" d="M147.858,242.147a10.537,10.537,0,0,1-.344-1.6l-6.529.4A16.787,16.787,0,0,0,142.843,247l5.63-3.331A10.764,10.764,0,0,1,147.858,242.147Z" transform="translate(-140.882 -222.223)" fill="#fc4b52"/>
            </g>
            <path id="Trazado_160601" data-name="Trazado 160601" d="M307.418,234.265v-2.73H188.2c1.761.755,3.646,1.7,5.615,2.73Z" transform="translate(-76.363 -150.148)" fill="#3c3c3b"/>
          </g>
        </g>
        <g id="Grupo_116120" data-name="Grupo 116120" transform="translate(950.731 2731.191)">
          <rect id="Rectngulo_40628" data-name="Rectngulo 40628" width="197.616" height="40.721" rx="10" transform="translate(46.992 23.123)" fill="#fc4b52"/>
          <text id="Areo_" data-name="Areo " transform="translate(96.097 47.111)" fill="#fff" font-size="19" font-family="Roboto-Bold, Roboto" font-weight="700"><tspan x="0" y="0">Areo </tspan></text>
        </g>
        <g id="Grupo_116121" data-name="Grupo 116121" transform="translate(1157.896 2937.486)">
          <rect id="Rectngulo_40629" data-name="Rectngulo 40629" width="197.616" height="40.721" rx="10" transform="translate(44.488 23.509)" fill="#fc4b52"/>
          <text id="Ferrovial" transform="translate(93.592 47.497)" fill="#fff" font-size="19" font-family="Roboto-Bold, Roboto" font-weight="700"><tspan x="0" y="0">Ferrovial</tspan></text>
        </g>
        <rect id="Rectngulo_40630" data-name="Rectngulo 40630" width="197.616" height="40.721" rx="10" transform="translate(1035.907 3176.294)" fill="#fc4b52"/>
        <text id="Nutico" transform="translate(1085.012 3201.283)" fill="#fff" font-size="20" font-family="Roboto-Bold, Roboto" font-weight="700"><tspan x="0" y="0">Nutico</tspan></text>
        <g id="Grupo_116122" data-name="Grupo 116122" transform="translate(370 3024.099)">
          <rect id="Rectngulo_40631" data-name="Rectngulo 40631" width="197" height="40" rx="10" transform="translate(0 22.635)" fill="#fc4b52"/>
          <text id="Terrestre" transform="translate(49 46.635)" fill="#fff" font-size="19" font-family="Roboto-Bold, Roboto" font-weight="700"><tspan x="0" y="0">Terrestre</tspan></text>
        </g>
      </g>
    </g>
  </g>
</svg>
