<svg xmlns="http://www.w3.org/2000/svg" width="140.5" height="140.457" viewBox="0 0 140.5 140.457">
  <g id="Grupo_117471" data-name="Grupo 117471" transform="translate(-415 -3301)">
    <g id="Grupo_116792" data-name="Grupo 116792" transform="translate(173.975 3148.431)">
      <path id="Trazado_161721" data-name="Trazado 161721" d="M241.025,248.746c7.748-4.438,14.163-10.636,21.012-16.23,3.5-2.856,5.947-3.084,9.374-.027,4.973,4.438,10.376,8.393,16.462,13.243,0-4.531,0-7.92,0-11.307,0-2.225-.187-4.494,2.979-4.828,2.22-.234,1.637-2.07,1.644-3.417.041-7.126.058-14.251-.017-21.376-.013-1.23.852-3.1-1.612-3.274-3.172-.231-2.923-2.623-3-4.844-.325-9.3-.338-9.3,9.014-9.3h4.931c9.906,0,10.627.809,9.386,10.584-.09.713-.084,1.9-.451,2.049-7.292,2.909-3.379,9.154-4.016,13.9-.554,4.127-.009,8.392-.155,12.589-.083,2.381.767,3.187,3.132,3.121q7.392-.208,14.791,0c2.322.062,3.193-.645,3.15-3.077-.132-7.487-.041-14.98-.059-22.47,0-.853.3-2.083-.736-2.363-7.4-2-2.908-7.792-3.631-11.8-.416-2.311,2.089-2.526,3.987-2.527,4.931,0,9.863.052,14.793-.023,2.937-.044,4.862,1.184,4.2,4.18-.776,3.524,3.086,8.872-3.809,10.257-1.1.222-.677,1.913-.68,2.956-.025,7.126.138,14.255-.083,21.373-.1,3.131,1.261,3.6,3.884,3.5a116.7,116.7,0,0,1,13.141.035c3.615.277,4.225-1.215,4.1-4.388-.233-5.837-.014-11.691-.089-17.536-.035-2.789.709-5.187-3.283-7.208-3.225-1.633-1.345-7.064-1.073-10.756.229-3.1,3.187-2.333,5.255-2.372,4.2-.078,8.412.168,12.6-.077,4.164-.245,5.823,1.565,5.186,5.5-.533,3.305,2.279,8.17-4.017,9.09-.348.05-.51,2.321-.52,3.56q-.077,9.043-.008,18.086c.023,2.723-1.044,5.9,3.314,6.748,1.7.332,1.249,2.424,1.25,3.834.021,17.173-.049,34.347.065,51.52.025,3.546-1.233,4.82-4.794,4.814q-65.472-.114-130.943-.018a9.664,9.664,0,0,1-4.669-1.136Zm93.187,37.067c12.783,0,25.567-.12,38.347.079,3.426.053,4.368-.983,4.274-4.333q-.341-12.321,0-24.657c.089-3.241-1.056-3.908-4.061-3.9q-38.346.161-76.694-.005c-2.924-.013-3.668.862-3.608,3.679.176,8.217.244,16.446-.021,24.657-.115,3.576.875,4.631,4.512,4.564C309.375,285.67,321.795,285.813,334.212,285.813ZM266.78,253.069c-6.009,0-12.02.075-18.027-.039-2.305-.043-3.2.646-3.161,3.083q.182,13.114,0,26.231c-.033,2.528.672,3.542,3.365,3.517q17.753-.172,35.509,0c2.617.024,3.483-.847,3.447-3.449-.12-8.56-.153-17.125.017-25.684.056-2.853-.781-3.815-3.673-3.717C278.439,253.207,272.607,253.068,266.78,253.069Zm67.987-9.625q-19.178,0-38.356.005c-1.931,0-4.179-.593-4,2.767.167,3.077,2.336,2.243,3.96,2.246q38.084.058,76.165,0c1.79,0,4.314.9,4.331-2.481s-2.5-2.5-4.3-2.5C359.972,243.417,347.369,243.443,334.767,243.444Zm-.048-4.545c12.585,0,25.169.047,37.751-.057,1.625-.014,4.373,1.324,4.294-2.309-.07-3.152-2.446-2.113-3.978-2.117q-38.3-.089-76.6-.019c-1.623,0-3.812-.826-3.7,2.365.117,3.253,2.442,2.08,3.93,2.09C309.185,238.936,321.952,238.9,334.718,238.9ZM283.3,248.22c-5.651-4.537-10.162-8.166-14.684-11.785-.836-.669-1.677-1.577-2.85-.646-4.845,3.85-9.672,7.723-15.56,12.431Zm13.686-32.547c0,3.469.005,6.938,0,10.406-.005,1.84-.3,3.78,2.586,3.68,2.449-.085,2.4-1.687,2.393-3.4-.014-7.3-.041-14.6.015-21.907.015-1.937-.358-3.037-2.684-3.027-2.636.012-2.308,1.67-2.308,3.3Zm40.055.142c0-3.833-.072-7.669.029-11.5.055-2.082-.652-2.908-2.824-2.886-2.239.023-2.183,1.336-2.18,2.876q.024,11.226,0,22.453c0,1.542.025,2.911,2.171,2.994,2.211.085,2.86-.971,2.821-2.985C336.99,223.118,337.04,219.466,337.04,215.815Zm30.119-.526c0,3.834.013,7.667-.006,11.5-.009,1.562.073,2.893,2.2,2.965,2.233.074,2.8-1.033,2.791-3.019-.049-7.484-.069-14.969.01-22.452.021-2.11-.716-2.878-2.856-2.852-2.256.028-2.153,1.392-2.146,2.9C367.169,207.988,367.16,211.639,367.16,215.289Zm-67.55-23.608c-2.233,1.515-6.8-2.158-6.948,2.6-.166,5.434,4.67,2.379,7.062,2.508,2.244.121,6.793,2.42,6.763-2.342C306.456,189.514,301.835,193.179,299.61,191.682Zm35.563.29c-1.64,0-3.283.054-4.92-.015-1.719-.071-2.686.393-2.756,2.389-.081,2.3,1.039,2.757,3,2.689,2.73-.1,5.468-.062,8.2-.011,1.869.035,3.16-.306,3.11-2.652-.053-2.489-1.657-2.415-3.354-2.4C337.361,191.974,336.268,191.968,335.173,191.971Zm33.722,5.039c1.641,0,3.283-.043,4.921.011,1.893.062,3.157-.352,3.078-2.681-.069-2.024-1.176-2.4-2.837-2.377-2.916.032-5.833.058-8.749-.011-1.743-.042-2.714.447-2.713,2.425,0,1.792.523,2.763,2.474,2.643C366.34,196.943,367.619,197.007,368.9,197.011Z" transform="translate(0 2.541)" fill="#060606"/>
      <path id="Trazado_161722" data-name="Trazado 161722" d="M331.342,152.569c4.165,1.828,7.1,6.009,12.527,5.634,2.285-.158,3.9,2.54,4.03,5.137.2,4.179.148,8.369.3,12.55.074,2.021-.955,2.453-2.694,2.419s-2.074-.987-2.052-2.468c.05-3.278.017-6.558.011-9.837-.005-3.481-1.022-4.833-4.472-2.5-2.2,1.486-4.394,1.881-4.963-1.881-.442-2.926-2.273-4.695-5.31-4.133-2.965.549-4.018,2.862-3.907,5.727.182,4.739.1,8.823-6.11,3.969-1.52-1.187-2.8.145-2.968,1.846a51.542,51.542,0,0,0-.182,6.541c.046,1.781-.509,2.733-2.438,2.741s-2.278-.969-2.459-2.714c-.848-8.2.432-10.417,8.317-13.355.773-.288,1.322-.577,1.353-1.379.15-3.909,3.428-5.708,5.533-8.3Z" transform="translate(5.075)" fill="#060606"/>
      <path id="Trazado_161723" data-name="Trazado 161723" d="M325.941,177.293c0-.912.053-1.829-.01-2.736-.129-1.893.727-2.54,2.585-2.493,1.708.043,2.208.862,2.2,2.366-.02,2.189-.05,4.38.017,6.569.058,1.877-.235,3.11-2.634,3.036-2.253-.068-2.163-1.406-2.157-2.91C325.943,179.848,325.938,178.571,325.941,177.293Z" transform="translate(6.208 1.425)" fill="#060606"/>
      <path id="Trazado_161724" data-name="Trazado 161724" d="M330.708,281.337c-12.417,0-24.836-.143-37.25.088-3.638.067-4.627-.988-4.512-4.564.265-8.212.2-16.44.021-24.657-.06-2.817.684-3.692,3.608-3.679q38.346.174,76.694.005c3-.013,4.15.655,4.061,3.9q-.338,12.322,0,24.657c.093,3.35-.848,4.386-4.274,4.333C356.275,281.217,343.491,281.337,330.708,281.337Zm-2.043-22.089c.158-2.775,1.223-6.9-5.792-6.3-8.191.7-8.237.158-8.244,6.351-.006,7.98-.006,7.98,6.439,7.982C328.664,267.282,328.664,267.282,328.665,259.248Zm18.729.015c.927-4.04.147-6.847-6.184-6.31-7.789.661-7.832.156-7.835,6.737,0,7.589,0,7.589,6.81,7.589C347.394,267.28,347.394,267.28,347.394,259.263Zm-37.419.956c0-7.1,0-7.153-6.017-7.1-9.32.089-7.942-1.133-8.033,6.261-.1,7.892-.026,7.893,6.384,7.895C309.976,267.282,309.976,267.282,309.976,260.219Zm56.133-1.031c.13-2.661,1.249-6.835-5.774-6.239-8.134.69-8.179.153-8.186,6.341-.008,7.987-.008,7.987,6.337,7.989C366.107,267.282,366.107,267.282,366.108,259.188Z" transform="translate(3.503 7.017)" fill="#a7e446"/>
      <path id="Trazado_161725" data-name="Trazado 161725" d="M266.469,248.593c5.827,0,11.659.138,17.479-.06,2.892-.1,3.729.864,3.673,3.717-.171,8.559-.137,17.124-.017,25.684.036,2.6-.83,3.473-3.447,3.449q-17.753-.163-35.509,0c-2.694.026-3.4-.988-3.365-3.517q.172-13.114,0-26.231c-.034-2.437.856-3.126,3.161-3.083C254.449,248.668,260.459,248.593,266.469,248.593Zm-2.428,10.714c.177-2.856,1.173-6.951-5.8-6.358-8.106.689-8.151.153-8.158,6.368-.008,7.96-.008,7.96,6.364,7.963C264.039,267.281,264.039,267.281,264.04,259.307Zm18.729-.136c1.069-4.284-.208-6.711-6.308-6.209-7.591.625-7.63.147-7.631,6.854,0,7.464,0,7.464,6.841,7.464C282.771,267.28,282.771,267.28,282.77,259.17Z" transform="translate(0.311 7.017)" fill="#fc4b52"/>
      <path id="Trazado_161726" data-name="Trazado 161726" d="M331.266,239.623c12.6,0,25.206-.026,37.808.03,1.8.008,4.315-.882,4.3,2.5s-2.541,2.478-4.331,2.481q-38.082.066-76.165,0c-1.624,0-3.792.831-3.96-2.246-.184-3.36,2.065-2.764,4-2.767Q312.088,239.611,331.266,239.623Z" transform="translate(3.501 6.36)" fill="#b1bac3"/>
      <path id="Trazado_161727" data-name="Trazado 161727" d="M331.212,235.7c-12.766,0-25.533.035-38.3-.048-1.487-.011-3.813,1.162-3.93-2.09-.115-3.191,2.074-2.364,3.7-2.365q38.3-.048,76.6.019c1.532,0,3.908-1.034,3.978,2.117.079,3.634-2.669,2.3-4.294,2.309C356.381,235.748,343.8,235.7,331.212,235.7Z" transform="translate(3.507 5.739)" fill="#12263f"/>
      <path id="Trazado_161728" data-name="Trazado 161728" d="M282.674,244.944H249.58c5.888-4.708,10.715-8.581,15.56-12.431,1.173-.931,2.014-.023,2.85.646C272.512,236.778,277.023,240.407,282.674,244.944Z" transform="translate(0.626 5.817)" fill="#feca2e" stroke="#000" stroke-miterlimit="10" stroke-width="2"/>
      <path id="Trazado_161729" data-name="Trazado 161729" d="M293.173,214.712V203.759c0-1.629-.327-3.287,2.308-3.3,2.325-.01,2.7,1.09,2.684,3.027-.056,7.3-.029,14.605-.015,21.907,0,1.717.056,3.319-2.393,3.4-2.891.1-2.592-1.839-2.586-3.68C293.178,221.65,293.173,218.182,293.173,214.712Z" transform="translate(3.812 3.502)" fill="#a7e446"/>
      <path id="Trazado_161730" data-name="Trazado 161730" d="M330.837,214.853c0,3.651-.05,7.3.019,10.952.039,2.014-.611,3.07-2.821,2.985-2.146-.083-2.173-1.452-2.171-2.994q.016-11.228,0-22.453c0-1.54-.059-2.853,2.18-2.876,2.172-.023,2.879.8,2.824,2.886C330.765,207.185,330.837,211.02,330.837,214.853Z" transform="translate(6.203 3.502)" fill="#a7e446"/>
      <path id="Trazado_161731" data-name="Trazado 161731" d="M358.565,214.327c0-3.651.01-7.3,0-10.952-.006-1.513-.109-2.877,2.146-2.9,2.14-.026,2.877.743,2.856,2.852-.078,7.483-.059,14.968-.01,22.452.013,1.985-.558,3.093-2.791,3.019-2.13-.072-2.212-1.4-2.2-2.965C358.578,221.995,358.565,218.162,358.565,214.327Z" transform="translate(8.594 3.503)" fill="#a7e446"/>
      <path id="Trazado_161732" data-name="Trazado 161732" d="M296.092,191.384c2.225,1.5,6.846-2.168,6.877,2.765.03,4.761-4.519,2.463-6.763,2.342-2.392-.129-7.229,2.926-7.062-2.508C289.288,189.226,293.859,192.9,296.092,191.384Z" transform="translate(3.518 2.838)" fill="#feca2e" stroke="#000" stroke-miterlimit="10" stroke-width="2"/>
      <path id="Trazado_161733" data-name="Trazado 161733" d="M329.281,191.653c1.095,0,2.188,0,3.282,0,1.7-.01,3.3-.084,3.354,2.4.05,2.346-1.241,2.687-3.11,2.652-2.733-.052-5.471-.085-8.2.011-1.962.068-3.081-.385-3-2.689.07-2,1.037-2.46,2.756-2.389C326,191.709,327.642,191.655,329.281,191.653Z" transform="translate(5.892 2.857)" fill="#feca2e" stroke="#000" stroke-miterlimit="10" stroke-width="2"/>
      <path id="Trazado_161734" data-name="Trazado 161734" d="M360.611,196.693c-1.276,0-2.555-.065-3.827.013-1.951.12-2.474-.851-2.474-2.643,0-1.978.97-2.467,2.713-2.425,2.916.069,5.834.043,8.749.011,1.661-.019,2.769.353,2.837,2.377.079,2.329-1.185,2.743-3.078,2.681C363.894,196.652,362.252,196.695,360.611,196.693Z" transform="translate(8.284 2.857)" fill="#feca2e" stroke="#000" stroke-miterlimit="10" stroke-width="2"/>
      <path id="Trazado_161735" data-name="Trazado 161735" d="M326.914,258.95c0,8.034,0,8.034-7.6,8.031-6.445,0-6.445,0-6.439-7.982.006-6.193.053-5.649,8.244-6.351C328.138,252.047,327.072,256.175,326.914,258.95Zm-6.928-1.531c-2.077-.164-2.363,1.1-2.371,2.74-.011,2.009,1.135,2.325,2.806,2.292,1.774-.035,1.975-1.094,2.021-2.491C322.5,258.18,321.88,257.188,319.986,257.419Z" transform="translate(5.254 7.314)" fill="#060606"/>
      <path id="Trazado_161736" data-name="Trazado 161736" d="M344.366,258.965c0,8.017,0,8.017-7.209,8.016-6.812,0-6.812,0-6.81-7.589,0-6.581.046-6.076,7.835-6.737C344.513,252.119,345.293,254.925,344.366,258.965Zm-6.854,3.449c2.06.249,2.353-1,2.324-2.656-.026-1.466-.392-2.352-2.119-2.39-1.807-.039-2.67.571-2.669,2.449C335.048,261.54,335.534,262.639,337.512,262.414Z" transform="translate(6.531 7.314)" fill="#060606"/>
      <path id="Trazado_161737" data-name="Trazado 161737" d="M309.5,259.907c0,7.063,0,7.063-7.666,7.06-6.41,0-6.481,0-6.384-7.895.091-7.394-1.287-6.172,8.033-6.261C309.5,252.754,309.5,252.8,309.5,259.907Zm-6.785,2.493c2.125.225,2.332-1.1,2.325-2.735-.006-1.579-.632-2.263-2.26-2.307-1.851-.049-2.655.661-2.647,2.524C300.141,261.689,300.813,262.643,302.716,262.4Z" transform="translate(3.978 7.328)" fill="#060606"/>
      <path id="Trazado_161738" data-name="Trazado 161738" d="M361.8,258.89c0,8.095,0,8.095-7.623,8.091-6.344,0-6.344,0-6.337-7.989.006-6.188.052-5.651,8.186-6.341C363.05,252.055,361.931,256.229,361.8,258.89Zm-7.079-1.476c-2.262-.118-2.167,1.4-2.2,2.889-.043,2.108,1.322,2.175,2.875,2.131,1.851-.053,1.767-1.335,1.829-2.622C357.316,257.948,356.481,257.157,354.722,257.414Z" transform="translate(7.811 7.314)" fill="#060606"/>
      <path id="Trazado_161739" data-name="Trazado 161739" d="M263.713,259.009c0,7.974,0,7.974-7.6,7.972-6.371,0-6.371,0-6.364-7.963.006-6.214.052-5.679,8.158-6.368C264.886,252.059,263.89,256.154,263.713,259.009Zm-6.984-1.59c-2.1-.192-2.277,1.126-2.31,2.73-.043,2.006,1.057,2.332,2.738,2.307,1.808-.026,1.94-1.128,1.985-2.487C259.2,258.243,258.679,257.158,256.729,257.419Z" transform="translate(0.638 7.314)" fill="#060606"/>
      <path id="Trazado_161740" data-name="Trazado 161740" d="M281.165,258.873c0,8.11,0,8.11-7.1,8.109-6.843,0-6.843,0-6.841-7.464,0-6.707.04-6.229,7.631-6.854C280.957,252.161,282.234,254.589,281.165,258.873Zm-6.948,3.541c2.051.233,2.369-1.005,2.335-2.652-.031-1.443-.394-2.345-2.112-2.393-1.818-.052-2.629.576-2.612,2.445C271.844,261.5,272.217,262.659,274.216,262.414Z" transform="translate(1.916 7.314)" fill="#060606"/>
      <path id="Trazado_161741" data-name="Trazado 161741" d="M319.664,257.092c1.894-.231,2.514.761,2.456,2.541-.046,1.4-.247,2.455-2.021,2.491-1.671.033-2.817-.283-2.806-2.292C317.3,258.193,317.587,256.928,319.664,257.092Z" transform="translate(5.577 7.641)" fill="#d7d7d7"/>
      <path id="Trazado_161742" data-name="Trazado 161742" d="M337.192,262.089c-1.978.224-2.464-.875-2.464-2.6,0-1.878.862-2.488,2.669-2.449,1.728.038,2.094.924,2.119,2.39C339.545,261.089,339.252,262.338,337.192,262.089Z" transform="translate(6.852 7.639)" fill="#d7d7d7"/>
      <path id="Trazado_161743" data-name="Trazado 161743" d="M302.395,262.089c-1.9.243-2.574-.711-2.582-2.519-.008-1.863.8-2.573,2.647-2.524,1.628.044,2.254.729,2.26,2.307C304.727,260.989,304.52,262.314,302.395,262.089Z" transform="translate(4.299 7.639)" fill="#d7d7d7"/>
      <path id="Trazado_161744" data-name="Trazado 161744" d="M354.4,257.089c1.759-.258,2.594.533,2.506,2.4-.061,1.287.023,2.569-1.829,2.622-1.553.044-2.918-.024-2.875-2.131C352.236,258.49,352.141,256.971,354.4,257.089Z" transform="translate(8.13 7.639)" fill="#d7d7d7"/>
      <path id="Trazado_161745" data-name="Trazado 161745" d="M256.412,257.093c1.95-.261,2.471.824,2.412,2.55-.045,1.36-.177,2.462-1.985,2.487-1.681.025-2.78-.3-2.738-2.307C254.134,258.218,254.311,256.9,256.412,257.093Z" transform="translate(0.956 7.64)" fill="#d7d7d7"/>
      <path id="Trazado_161746" data-name="Trazado 161746" d="M273.9,262.089c-2,.245-2.373-.916-2.389-2.6-.017-1.868.794-2.5,2.612-2.445,1.718.048,2.081.95,2.112,2.393C276.272,261.083,275.954,262.322,273.9,262.089Z" transform="translate(2.229 7.639)" fill="#d7d7d7"/>
    </g>
  </g>
</svg>
