<svg xmlns="http://www.w3.org/2000/svg" width="190" height="110" viewBox="0 0 190 110">
  <g id="Grupo_117456" data-name="Grupo 117456" transform="translate(-180 -4634.002)">
    <g id="Grupo_115793" data-name="Grupo 115793" transform="translate(0 -5828.598)">
      <rect id="Rectángulo_36775" data-name="Rectángulo 36775" width="190" height="110" transform="translate(180 10462.6)" fill="none"/>
      <g id="Grupo_109187" data-name="Grupo 109187" transform="translate(-3442.279 11092.957)" opacity="0.3">
        <path id="Trazado_158283" data-name="Trazado 158283" d="M3677.784-530.075h0a16.354,16.354,0,0,0,23.129,0l67.216-67.214a16.357,16.357,0,0,0,0-23.129,16.355,16.355,0,0,0-23.129,0L3677.784-553.2A16.353,16.353,0,0,0,3677.784-530.075Z" transform="translate(14.296)" fill="#fc4b52"/>
        <path id="Trazado_158284" data-name="Trazado 158284" d="M3652.069-530.075h0a16.354,16.354,0,0,0,23.129,0l67.216-67.214a16.358,16.358,0,0,0,0-23.129,16.355,16.355,0,0,0-23.129,0L3652.069-553.2A16.354,16.354,0,0,0,3652.069-530.075Z" transform="translate(0)" fill="#feca2e"/>
      </g>
      <g id="plan" transform="translate(226 10425.175)">
        <g id="Grupo_115750" data-name="Grupo 115750" transform="translate(1.438 55.142)">
          <path id="Trazado_160033" data-name="Trazado 160033" d="M7.511,156.773H99.483a3.908,3.908,0,0,1,3.158,3.158V209.9a3.914,3.914,0,0,1-3.158,3.158H16.654a9.144,9.144,0,0,1-9.143-9.148V156.773Z" transform="translate(-7.511 -138.483)" fill="#ecf4ff" fill-rule="evenodd"/>
          <path id="Trazado_160034" data-name="Trazado 160034" d="M16.654,61.218A9.14,9.14,0,0,0,7.511,70.36v56.281a9.14,9.14,0,0,1,9.143-9.142,8.542,8.542,0,0,1,4.536,1.2.635.635,0,0,0,.977-.6V64.229a2.224,2.224,0,0,0-1.112-1.888,9.046,9.046,0,0,0-4.4-1.123Z" transform="translate(-7.511 -61.218)" fill="#cbe2ff" fill-rule="evenodd"/>
          <path id="Trazado_160035" data-name="Trazado 160035" d="M125.406,195.041h13.662a1.4,1.4,0,0,1,1.394,1.394v13.656a1.4,1.4,0,0,1-1.394,1.394H125.406a1.393,1.393,0,0,1-1.389-1.394V196.435A1.4,1.4,0,0,1,125.406,195.041Z" transform="translate(-101.717 -169.426)" fill="#a7e446" fill-rule="evenodd"/>
          <path id="Trazado_160036" data-name="Trazado 160036" d="M412.639,107.783l-6.408-1.948-5.86,1.948v45.728l6.169,1.606,6.1-1.606Z" transform="translate(-325.175 -97.295)" fill="#feca2e" fill-rule="evenodd"/>
          <path id="Trazado_160037" data-name="Trazado 160037" d="M407.278,365.468l2.295-4.514,3.066-6.039H400.371l3.066,6.039,2.3,4.514A.842.842,0,0,0,407.278,365.468Z" transform="translate(-325.175 -298.699)" fill="#ffcbbe" fill-rule="evenodd"/>
          <path id="Trazado_160038" data-name="Trazado 160038" d="M412.639,71.706V64.967a3.761,3.761,0,0,0-3.749-3.749h-4.764a3.762,3.762,0,0,0-3.755,3.749v6.739Z" transform="translate(-325.175 -61.218)" fill="#fc7177" fill-rule="evenodd"/>
          <path id="Trazado_160039" data-name="Trazado 160039" d="M118.061,379.874h9.354l1.535-5.078-1.535-3.95h-9.354a2.909,2.909,0,0,0-2.349,2.355v4.324A2.909,2.909,0,0,0,118.061,379.874Z" transform="translate(-95.002 -311.581)" fill="#feca2e" fill-rule="evenodd"/>
          <path id="Trazado_160040" data-name="Trazado 160040" d="M176.856,339.259h11.709l1.6-5.773-1.6-8.882v-1.633a2.909,2.909,0,0,0-2.355-2.355h-7a2.909,2.909,0,0,0-2.355,2.355v16.288Z" transform="translate(-144.442 -270.965)" fill="#a7e446" fill-rule="evenodd"/>
          <path id="Trazado_160041" data-name="Trazado 160041" d="M238.028,356.106h11.7l1.183-3.89-1.183-5.138V343.8a2.909,2.909,0,0,0-2.355-2.349h-9.349Z" transform="translate(-193.906 -287.813)" fill="#feca2e" fill-rule="evenodd"/>
          <path id="Trazado_160042" data-name="Trazado 160042" d="M299.172,379.874h9.354a2.91,2.91,0,0,0,2.349-2.349V373.2a2.909,2.909,0,0,0-2.349-2.355h-9.354Z" transform="translate(-243.346 -311.581)" fill="#a7e446" fill-rule="evenodd"/>
          <path id="Trazado_160043" data-name="Trazado 160043" d="M98.163,208.41H15.333a9.1,9.1,0,0,1-3.711-.787,9.138,9.138,0,0,0,8.356,5.431h82.83a3.914,3.914,0,0,0,3.158-3.158V159.931a3.908,3.908,0,0,0-3.158-3.158h-1.487v48.479A3.914,3.914,0,0,1,98.163,208.41Z" transform="translate(-10.835 -138.483)" fill="#cbe2ff" fill-rule="evenodd"/>
          <path id="Trazado_160044" data-name="Trazado 160044" d="M46.357,79.508v38.023a8.274,8.274,0,0,1,3.668,1.166.635.635,0,0,0,.977-.6V64.229a2.224,2.224,0,0,0-1.112-1.888,9.048,9.048,0,0,0-4.4-1.123,9.315,9.315,0,0,0-2.317.293,9.306,9.306,0,0,1,2.073.83,2.224,2.224,0,0,1,1.112,1.888V79.508Z" transform="translate(-36.346 -61.218)" fill="#bed8fb" fill-rule="evenodd"/>
          <path id="Trazado_160045" data-name="Trazado 160045" d="M440.2,116.011v45.728h4.644V116.011Z" transform="translate(-357.379 -105.523)" fill="#d9ac28" fill-rule="evenodd"/>
          <path id="Trazado_160046" data-name="Trazado 160046" d="M424.336,64.967v6.739h4.644V64.967a3.761,3.761,0,0,0-3.749-3.749h-4.65A3.762,3.762,0,0,1,424.336,64.967Z" transform="translate(-341.517 -61.218)" fill="#d94047" fill-rule="evenodd"/>
        </g>
        <path id="Trazado_160047" data-name="Trazado 160047" d="M87.469,64.2V58.891a2.334,2.334,0,0,0-2.317-2.317H80.388a2.325,2.325,0,0,0-2.317,2.317V64.2h9.4ZM27.46,90a1.435,1.435,0,0,1,2.029-2.029L30.8,89.275l3.63-3.635a1.437,1.437,0,0,1,2.029,2.035l-4.644,4.644a1.438,1.438,0,0,1-2.029,0ZM81.332,73.432a1.435,1.435,0,1,1,2.87,0v30.129a1.435,1.435,0,1,1-2.87,0ZM58.7,122h8.833v-6.158H58.7Zm10.266,2.87H22.148a1.44,1.44,0,0,1-1.438-1.438v-9.028a1.436,1.436,0,0,1,1.438-1.432H32.419v-8.182a1.431,1.431,0,0,1,1.432-1.432H45.56a1.431,1.431,0,0,1,1.432,1.432v2.55H57.263A1.44,1.44,0,0,1,58.7,108.78v4.194H68.967a1.436,1.436,0,0,1,1.438,1.432v9.028a1.44,1.44,0,0,1-1.438,1.438ZM46.993,122h8.833V110.218H46.993Zm-11.7,0h8.833V106.231H35.289ZM23.58,122h8.839v-6.158H23.58ZM17.525,71.994H75.2v-13.1A5.206,5.206,0,0,1,80.388,53.7h4.764a5.206,5.206,0,0,1,5.187,5.187v13.1h6.229A1.436,1.436,0,0,1,98,73.432v56.28a1.431,1.431,0,0,1-1.432,1.432H56.824a1.435,1.435,0,0,1,0-2.87H95.13V74.865H90.339V85.244a1.435,1.435,0,1,1-2.87,0V67.068h-9.4v42.857h9.4V91.749a1.435,1.435,0,1,1,2.87,0v19.608a1.523,1.523,0,0,1-.244.814l-6.044,11.9a1.459,1.459,0,0,1-.64.64,1.429,1.429,0,0,1-1.921-.635l-6.066-11.937a1.527,1.527,0,0,1-.228-.787V74.865H17.525V85.727a1.435,1.435,0,1,1-2.87,0V57.736a7.614,7.614,0,0,0-4.075-1.161,7.706,7.706,0,0,0-7.71,7.71v49.037c.076-.082.152-.163.228-.239a10.551,10.551,0,0,1,7.482-3.1,10.714,10.714,0,0,1,3.364.548c.239.081.478.174.711.271V92.232a1.435,1.435,0,1,1,2.87,0v21.035a1.436,1.436,0,0,1-2.3,1.139,7.517,7.517,0,0,0-2.192-1.156,7.712,7.712,0,1,0-2.452,15.024H50.324a1.435,1.435,0,0,1,0,2.87H10.58A10.577,10.577,0,0,1,0,120.565V64.284a10.58,10.58,0,0,1,16.885-8.5,1.446,1.446,0,0,1,.64,1.2V71.994Zm69.043,40.8h-7.6l3.8,7.482Zm-19.185-32.1a1.435,1.435,0,0,1,0,2.87H47.953a1.435,1.435,0,0,1,0-2.87ZM59.3,94.4a1.435,1.435,0,1,1,0,2.87H47.953a1.435,1.435,0,0,1,0-2.87Zm8.079-6.853a1.435,1.435,0,0,1,0,2.87H47.953a1.435,1.435,0,0,1,0-2.87ZM23.738,79.319H40.183a1.436,1.436,0,0,1,1.432,1.438V97.2a1.436,1.436,0,0,1-1.432,1.438H23.738A1.437,1.437,0,0,1,22.3,97.2V80.757A1.437,1.437,0,0,1,23.738,79.319Zm15.008,2.876H25.17V95.77H38.745Z" transform="translate(0 0)"/>
      </g>
    </g>
  </g>
</svg>
