<svg xmlns="http://www.w3.org/2000/svg" width="457.919" height="206" viewBox="0 0 457.919 206">
  <g id="Grupo_117492" data-name="Grupo 117492" transform="translate(-870.081 -2888.803)">
    <rect id="Image_Place_Holder" data-name="Image Place Holder" width="457.919" height="206" transform="translate(1328 3094.803) rotate(180)" fill="#d9eaea"/>
    <g id="Grupo_117126" data-name="Grupo 117126" transform="translate(960.54 2889.472)">
      <g id="Grupo_116951" data-name="Grupo 116951" transform="translate(247.275 63.503)">
        <g id="Grupo_116942" data-name="Grupo 116942">
          <g id="Grupo_116941" data-name="Grupo 116941">
            <path id="Trazado_161984" data-name="Trazado 161984" d="M286.189,81.4a18.323,18.323,0,0,1,10.373,1.082,7.309,7.309,0,0,1,3.685,2.832c.931,1.618.777,3.61.677,5.473a64.4,64.4,0,0,0,.395,11.366,74.986,74.986,0,0,1,1,9.418,14.2,14.2,0,0,1-2.7,8.9c-3.054,3.795-8.495,4.858-13.323,4.214a15.536,15.536,0,0,1-7.151-2.612,8.958,8.958,0,0,1-3.807-6.4" transform="translate(-275.338 -81.091)" fill="#a7e446"/>
          </g>
        </g>
        <g id="Grupo_116944" data-name="Grupo 116944" transform="translate(16.895 5.118)">
          <g id="Grupo_116943" data-name="Grupo 116943">
            <path id="Trazado_161985" data-name="Trazado 161985" d="M303.09,89.5a8.463,8.463,0,0,1,1.145,1.752,14.645,14.645,0,0,1,.776,2.143,22.028,22.028,0,0,0,.907,2.679,6,6,0,0,0,1.69,2.29,3.441,3.441,0,0,0,2.188.781,2.712,2.712,0,0,0,1.506-.437,1.685,1.685,0,0,0,.328-.276c.065-.073.1-.114.09-.12s-.158.132-.47.31a2.783,2.783,0,0,1-1.451.34,3.32,3.32,0,0,1-2.041-.784,5.943,5.943,0,0,1-1.6-2.21,24.7,24.7,0,0,1-.915-2.643,13.084,13.084,0,0,0-.841-2.154,5.87,5.87,0,0,0-.88-1.292A1.673,1.673,0,0,0,303.09,89.5Z" transform="translate(-303.089 -89.498)" fill="#1a2e35"/>
          </g>
        </g>
        <g id="Grupo_116946" data-name="Grupo 116946" transform="translate(18.275 12.57)">
          <g id="Grupo_116945" data-name="Grupo 116945">
            <path id="Trazado_161986" data-name="Trazado 161986" d="M305.361,132.52a1.463,1.463,0,0,0,.059-.309c.03-.231.07-.527.119-.892.1-.775.227-1.9.374-3.287.295-2.778.65-6.622.953-10.873s.492-8.109.592-10.9c.051-1.4.082-2.525.094-3.307,0-.368.006-.667.009-.9a1.459,1.459,0,0,0-.015-.315,1.411,1.411,0,0,0-.038.312c-.015.233-.033.53-.057.9-.044.813-.1,1.932-.177,3.3-.147,2.788-.367,6.64-.668,10.891s-.629,8.092-.877,10.874c-.121,1.366-.22,2.483-.292,3.294-.029.367-.052.664-.071.9A1.437,1.437,0,0,0,305.361,132.52Z" transform="translate(-305.355 -101.737)" fill="#1a2e35"/>
          </g>
        </g>
        <g id="Grupo_116948" data-name="Grupo 116948" transform="translate(19.829 26.298)">
          <g id="Grupo_116947" data-name="Grupo 116947">
            <path id="Trazado_161987" data-name="Trazado 161987" d="M307.907,124.314a24.666,24.666,0,0,0,6.827.178c0-.074-1.531-.06-3.414-.11S307.914,124.24,307.907,124.314Z" transform="translate(-307.907 -124.286)" fill="#1a2e35"/>
          </g>
        </g>
        <g id="Grupo_116950" data-name="Grupo 116950" transform="translate(20.515 26.474)">
          <g id="Grupo_116949" data-name="Grupo 116949">
            <path id="Trazado_161988" data-name="Trazado 161988" d="M309.582,124.575a1.786,1.786,0,0,0-.317.691,6.575,6.575,0,0,0-.2.8,1.154,1.154,0,0,0,.007.533.591.591,0,0,0,.462.423.427.427,0,0,0,.348-.1.529.529,0,0,0,.16-.286,1.6,1.6,0,0,0,.006-.519,4.754,4.754,0,0,0-.155-.815,1.615,1.615,0,0,0-.307-.7,3.622,3.622,0,0,0,.129.739,6.9,6.9,0,0,1,.1.793,1.538,1.538,0,0,1-.015.439c-.033.135-.115.206-.223.191-.267-.047-.328-.377-.273-.662s.1-.566.145-.79A3.005,3.005,0,0,0,309.582,124.575Z" transform="translate(-309.033 -124.574)" fill="#1a2e35"/>
          </g>
        </g>
      </g>
      <g id="Grupo_116956" data-name="Grupo 116956" transform="translate(250.786 53.932)">
        <g id="Grupo_116952" data-name="Grupo 116952">
          <rect id="Rectángulo_40816" data-name="Rectángulo 40816" width="23.936" height="10.714" rx="5.357" transform="matrix(-0.999, -0.033, 0.033, -0.999, 23.923, 11.498)" fill="#a7e446"/>
        </g>
        <g id="Grupo_116954" data-name="Grupo 116954" transform="translate(14.924 0.612)">
          <g id="Grupo_116953" data-name="Grupo 116953">
            <path id="Trazado_161989" data-name="Trazado 161989" d="M310.821,66.637c0-.007-.044-.041-.142-.089a1.81,1.81,0,0,0-.458-.141,2.688,2.688,0,0,0-1.719.321,4.958,4.958,0,0,0-1.94,1.727,6.533,6.533,0,0,0-.92,3.042,5.45,5.45,0,0,0,.629,3.114,4.414,4.414,0,0,0,1.858,1.813,3.957,3.957,0,0,0,1.693.448,2.636,2.636,0,0,0,.476-.024c.108-.016.163-.029.163-.038s-.23,0-.632-.038a4.213,4.213,0,0,1-1.614-.509,4.337,4.337,0,0,1-1.735-1.766,5.318,5.318,0,0,1-.58-2.98,6.468,6.468,0,0,1,.864-2.936,4.923,4.923,0,0,1,1.825-1.692,2.713,2.713,0,0,1,1.618-.382C310.606,66.55,310.811,66.66,310.821,66.637Z" transform="translate(-305.618 -66.375)" fill="#375a64"/>
          </g>
        </g>
        <g id="Grupo_116955" data-name="Grupo 116955" transform="translate(8.795 0.308)">
          <path id="Trazado_161990" data-name="Trazado 161990" d="M297.647,65.876l2.5.127a2.878,2.878,0,0,0-1.761.977,4.865,4.865,0,0,0-.963,1.8,7.777,7.777,0,0,0,2.37,7.926l-2.018-.034s-4.914-5.926-.124-10.8" transform="translate(-295.55 -65.876)" fill="#375a64"/>
        </g>
      </g>
      <g id="Grupo_116957" data-name="Grupo 116957" transform="translate(248.761 36.129)">
        <path id="Trazado_161991" data-name="Trazado 161991" d="M278.508,49.541c-1.019-2.463-1.072-6.749.485-9a11.916,11.916,0,0,1,7.151-4.316,2.265,2.265,0,0,1,1.351.017.905.905,0,0,1,.556,1.1,5.742,5.742,0,0,1,1.707-.819,1.947,1.947,0,0,1,1.782.392,1.194,1.194,0,0,1,.044,1.69,2.053,2.053,0,0,1,2.591,2.735,6.512,6.512,0,0,1-1.5,2,1.84,1.84,0,0,0-.561,1.8" transform="translate(-277.778 -36.129)" fill="#1a2e35"/>
      </g>
      <g id="Grupo_117087" data-name="Grupo 117087" transform="translate(247.41 37.404)">
        <g id="Grupo_117064" data-name="Grupo 117064" transform="translate(2.009 0.567)">
          <g id="Grupo_117063" data-name="Grupo 117063">
            <g id="Grupo_117062" data-name="Grupo 117062">
              <g id="Grupo_116978" data-name="Grupo 116978">
                <g id="Grupo_116977" data-name="Grupo 116977">
                  <g id="Grupo_116976" data-name="Grupo 116976">
                    <g id="Grupo_116966" data-name="Grupo 116966">
                      <g id="Grupo_116965" data-name="Grupo 116965">
                        <g id="Grupo_116964" data-name="Grupo 116964">
                          <g id="Grupo_116963" data-name="Grupo 116963">
                            <g id="Grupo_116962" data-name="Grupo 116962">
                              <g id="Grupo_116961" data-name="Grupo 116961">
                                <g id="Grupo_116960" data-name="Grupo 116960">
                                  <g id="Grupo_116959" data-name="Grupo 116959">
                                    <g id="Grupo_116958" data-name="Grupo 116958">
                                      <path id="Trazado_161992" data-name="Trazado 161992" d="M279.573,46.206l-.709,15.086a4.493,4.493,0,0,0,4.5,4.7h0a4.5,4.5,0,0,0,4.477-4.289c.052-1.135.1-2.083.111-2.2,0,0,3.858-.181,4.314-3.968.22-1.831.367-5.638.46-9.084A7.106,7.106,0,0,0,286.38,39.2l-.367-.04C282.042,38.968,279.658,42.231,279.573,46.206Z" transform="translate(-278.859 -39.154)" fill="#ffbf9d"/>
                                    </g>
                                  </g>
                                </g>
                              </g>
                            </g>
                          </g>
                        </g>
                      </g>
                    </g>
                    <g id="Grupo_116975" data-name="Grupo 116975" transform="translate(4.311 18.361)">
                      <g id="Grupo_116974" data-name="Grupo 116974">
                        <g id="Grupo_116973" data-name="Grupo 116973">
                          <g id="Grupo_116972" data-name="Grupo 116972">
                            <g id="Grupo_116971" data-name="Grupo 116971">
                              <g id="Grupo_116970" data-name="Grupo 116970">
                                <g id="Grupo_116969" data-name="Grupo 116969">
                                  <g id="Grupo_116968" data-name="Grupo 116968">
                                    <g id="Grupo_116967" data-name="Grupo 116967">
                                      <path id="Trazado_161993" data-name="Trazado 161993" d="M290.732,71.251a8.869,8.869,0,0,1-4.793-1.939s.756,2.374,4.578,2.44Z" transform="translate(-285.939 -69.312)" fill="#ff9a6c"/>
                                    </g>
                                  </g>
                                </g>
                              </g>
                            </g>
                          </g>
                        </g>
                      </g>
                    </g>
                  </g>
                </g>
              </g>
              <g id="Grupo_117061" data-name="Grupo 117061" transform="translate(4.817 5.725)">
                <g id="Grupo_117060" data-name="Grupo 117060">
                  <g id="Grupo_117041" data-name="Grupo 117041" transform="translate(0.153 2.148)">
                    <g id="Grupo_117040" data-name="Grupo 117040">
                      <g id="Grupo_117039" data-name="Grupo 117039">
                        <g id="Grupo_116998" data-name="Grupo 116998" transform="translate(5.741 0.509)">
                          <g id="Grupo_116987" data-name="Grupo 116987" transform="translate(0.686 0.79)">
                            <g id="Grupo_116986" data-name="Grupo 116986">
                              <g id="Grupo_116985" data-name="Grupo 116985">
                                <g id="Grupo_116984" data-name="Grupo 116984">
                                  <g id="Grupo_116983" data-name="Grupo 116983">
                                    <g id="Grupo_116982" data-name="Grupo 116982">
                                      <g id="Grupo_116981" data-name="Grupo 116981">
                                        <g id="Grupo_116980" data-name="Grupo 116980">
                                          <g id="Grupo_116979" data-name="Grupo 116979">
                                            <path id="Trazado_161994" data-name="Trazado 161994" d="M298.668,54.771a.545.545,0,0,1-.581.49.521.521,0,0,1-.506-.549.544.544,0,0,1,.581-.49A.521.521,0,0,1,298.668,54.771Z" transform="translate(-297.58 -54.221)" fill="#1a2e35"/>
                                          </g>
                                        </g>
                                      </g>
                                    </g>
                                  </g>
                                </g>
                              </g>
                            </g>
                          </g>
                          <g id="Grupo_116997" data-name="Grupo 116997">
                            <g id="Grupo_116996" data-name="Grupo 116996">
                              <g id="Grupo_116995" data-name="Grupo 116995">
                                <g id="Grupo_116994" data-name="Grupo 116994">
                                  <g id="Grupo_116993" data-name="Grupo 116993">
                                    <g id="Grupo_116992" data-name="Grupo 116992">
                                      <g id="Grupo_116991" data-name="Grupo 116991">
                                        <g id="Grupo_116990" data-name="Grupo 116990">
                                          <g id="Grupo_116989" data-name="Grupo 116989">
                                            <g id="Grupo_116988" data-name="Grupo 116988">
                                              <path id="Trazado_161995" data-name="Trazado 161995" d="M298.59,53.615c-.075.063-.452-.285-1.036-.346s-1.042.184-1.1.105c-.027-.035.055-.155.256-.27a1.5,1.5,0,0,1,.888-.172,1.436,1.436,0,0,1,.815.363C298.58,53.452,298.627,53.587,298.59,53.615Z" transform="translate(-296.453 -52.923)" fill="#1a2e35"/>
                                            </g>
                                          </g>
                                        </g>
                                      </g>
                                    </g>
                                  </g>
                                </g>
                              </g>
                            </g>
                          </g>
                        </g>
                        <g id="Grupo_117018" data-name="Grupo 117018">
                          <g id="Grupo_117007" data-name="Grupo 117007" transform="translate(0.689 0.88)">
                            <g id="Grupo_117006" data-name="Grupo 117006">
                              <g id="Grupo_117005" data-name="Grupo 117005">
                                <g id="Grupo_117004" data-name="Grupo 117004">
                                  <g id="Grupo_117003" data-name="Grupo 117003">
                                    <g id="Grupo_117002" data-name="Grupo 117002">
                                      <g id="Grupo_117001" data-name="Grupo 117001">
                                        <g id="Grupo_117000" data-name="Grupo 117000">
                                          <g id="Grupo_116999" data-name="Grupo 116999">
                                            <path id="Trazado_161996" data-name="Trazado 161996" d="M289.243,54.083a.544.544,0,0,1-.581.49.521.521,0,0,1-.506-.549.545.545,0,0,1,.581-.491A.522.522,0,0,1,289.243,54.083Z" transform="translate(-288.155 -53.533)" fill="#1a2e35"/>
                                          </g>
                                        </g>
                                      </g>
                                    </g>
                                  </g>
                                </g>
                              </g>
                            </g>
                          </g>
                          <g id="Grupo_117017" data-name="Grupo 117017">
                            <g id="Grupo_117016" data-name="Grupo 117016">
                              <g id="Grupo_117015" data-name="Grupo 117015">
                                <g id="Grupo_117014" data-name="Grupo 117014">
                                  <g id="Grupo_117013" data-name="Grupo 117013">
                                    <g id="Grupo_117012" data-name="Grupo 117012">
                                      <g id="Grupo_117011" data-name="Grupo 117011">
                                        <g id="Grupo_117010" data-name="Grupo 117010">
                                          <g id="Grupo_117009" data-name="Grupo 117009">
                                            <g id="Grupo_117008" data-name="Grupo 117008">
                                              <path id="Trazado_161997" data-name="Trazado 161997" d="M289.16,52.778c-.075.063-.453-.284-1.036-.346s-1.042.184-1.1.106c-.027-.035.054-.155.256-.27a1.491,1.491,0,0,1,.888-.172,1.436,1.436,0,0,1,.815.363C289.149,52.616,289.2,52.75,289.16,52.778Z" transform="translate(-287.023 -52.086)" fill="#1a2e35"/>
                                            </g>
                                          </g>
                                        </g>
                                      </g>
                                    </g>
                                  </g>
                                </g>
                              </g>
                            </g>
                          </g>
                        </g>
                        <g id="Grupo_117028" data-name="Grupo 117028" transform="translate(3.787 0.358)">
                          <g id="Grupo_117027" data-name="Grupo 117027">
                            <g id="Grupo_117026" data-name="Grupo 117026">
                              <g id="Grupo_117025" data-name="Grupo 117025">
                                <g id="Grupo_117024" data-name="Grupo 117024">
                                  <g id="Grupo_117023" data-name="Grupo 117023">
                                    <g id="Grupo_117022" data-name="Grupo 117022">
                                      <g id="Grupo_117021" data-name="Grupo 117021">
                                        <g id="Grupo_117020" data-name="Grupo 117020">
                                          <g id="Grupo_117019" data-name="Grupo 117019">
                                            <path id="Trazado_161998" data-name="Trazado 161998" d="M293.243,57.559a3.9,3.9,0,0,1,.965-.069c.15,0,.295-.013.331-.113a.759.759,0,0,0-.052-.452l-.318-1.181a19.647,19.647,0,0,1-.669-3.072,19.585,19.585,0,0,1,.914,3.01l.3,1.186a.866.866,0,0,1,.014.592.375.375,0,0,1-.268.191,1.011,1.011,0,0,1-.257.008A3.822,3.822,0,0,1,293.243,57.559Z" transform="translate(-293.243 -52.674)" fill="#1a2e35"/>
                                          </g>
                                        </g>
                                      </g>
                                    </g>
                                  </g>
                                </g>
                              </g>
                            </g>
                          </g>
                        </g>
                        <g id="Grupo_117038" data-name="Grupo 117038" transform="translate(1.893 5.461)">
                          <g id="Grupo_117037" data-name="Grupo 117037">
                            <g id="Grupo_117036" data-name="Grupo 117036">
                              <g id="Grupo_117035" data-name="Grupo 117035">
                                <g id="Grupo_117034" data-name="Grupo 117034">
                                  <g id="Grupo_117033" data-name="Grupo 117033">
                                    <g id="Grupo_117032" data-name="Grupo 117032">
                                      <g id="Grupo_117031" data-name="Grupo 117031">
                                        <g id="Grupo_117030" data-name="Grupo 117030">
                                          <g id="Grupo_117029" data-name="Grupo 117029">
                                            <path id="Trazado_161999" data-name="Trazado 161999" d="M290.267,61.057c.1,0,.028.637.521,1.145s1.174.511,1.17.6c0,.041-.163.107-.449.083a1.583,1.583,0,0,1-.98-.465,1.378,1.378,0,0,1-.4-.956C290.137,61.2,290.224,61.048,290.267,61.057Z" transform="translate(-290.133 -61.056)" fill="#1a2e35"/>
                                          </g>
                                        </g>
                                      </g>
                                    </g>
                                  </g>
                                </g>
                              </g>
                            </g>
                          </g>
                        </g>
                      </g>
                    </g>
                  </g>
                  <g id="Grupo_117050" data-name="Grupo 117050">
                    <g id="Grupo_117049" data-name="Grupo 117049">
                      <g id="Grupo_117048" data-name="Grupo 117048">
                        <g id="Grupo_117047" data-name="Grupo 117047">
                          <g id="Grupo_117046" data-name="Grupo 117046">
                            <g id="Grupo_117045" data-name="Grupo 117045">
                              <g id="Grupo_117044" data-name="Grupo 117044">
                                <g id="Grupo_117043" data-name="Grupo 117043">
                                  <g id="Grupo_117042" data-name="Grupo 117042">
                                    <path id="Trazado_162000" data-name="Trazado 162000" d="M289.459,49.13c-.075.152-.648.015-1.341.023s-1.266.135-1.341-.016c-.033-.072.079-.211.318-.34a2.331,2.331,0,0,1,2.044-.005C289.378,48.92,289.492,49.058,289.459,49.13Z" transform="translate(-286.771 -48.558)" fill="#1a2e35"/>
                                  </g>
                                </g>
                              </g>
                            </g>
                          </g>
                        </g>
                      </g>
                    </g>
                  </g>
                  <g id="Grupo_117059" data-name="Grupo 117059" transform="translate(6.026 0.918)">
                    <g id="Grupo_117058" data-name="Grupo 117058">
                      <g id="Grupo_117057" data-name="Grupo 117057">
                        <g id="Grupo_117056" data-name="Grupo 117056">
                          <g id="Grupo_117055" data-name="Grupo 117055">
                            <g id="Grupo_117054" data-name="Grupo 117054">
                              <g id="Grupo_117053" data-name="Grupo 117053">
                                <g id="Grupo_117052" data-name="Grupo 117052">
                                  <g id="Grupo_117051" data-name="Grupo 117051">
                                    <path id="Trazado_162001" data-name="Trazado 162001" d="M298.643,50.787c-.117.121-.5-.06-.986-.118-.48-.075-.9-.007-.981-.156-.033-.071.045-.2.237-.3a1.438,1.438,0,0,1,1.584.22C298.654,50.585,298.7,50.728,298.643,50.787Z" transform="translate(-296.669 -50.065)" fill="#1a2e35"/>
                                  </g>
                                </g>
                              </g>
                            </g>
                          </g>
                        </g>
                      </g>
                    </g>
                  </g>
                </g>
              </g>
            </g>
          </g>
        </g>
        <g id="Grupo_117084" data-name="Grupo 117084" transform="translate(0 10.236)">
          <g id="Grupo_117073" data-name="Grupo 117073">
            <g id="Grupo_117072" data-name="Grupo 117072">
              <g id="Grupo_117071" data-name="Grupo 117071">
                <g id="Grupo_117070" data-name="Grupo 117070">
                  <g id="Grupo_117069" data-name="Grupo 117069">
                    <g id="Grupo_117068" data-name="Grupo 117068">
                      <g id="Grupo_117067" data-name="Grupo 117067">
                        <g id="Grupo_117066" data-name="Grupo 117066">
                          <g id="Grupo_117065" data-name="Grupo 117065">
                            <path id="Trazado_162002" data-name="Trazado 162002" d="M278.289,55.261c-.062-.035-2.523-1.052-2.72,1.55A1.962,1.962,0,0,0,278.036,59C278.045,58.925,278.289,55.261,278.289,55.261Z" transform="translate(-275.559 -55.036)" fill="#ffbf9d"/>
                          </g>
                        </g>
                      </g>
                    </g>
                  </g>
                </g>
              </g>
            </g>
          </g>
          <g id="Grupo_117083" data-name="Grupo 117083" transform="translate(0.664 0.821)">
            <g id="Grupo_117082" data-name="Grupo 117082">
              <g id="Grupo_117081" data-name="Grupo 117081">
                <g id="Grupo_117080" data-name="Grupo 117080">
                  <g id="Grupo_117079" data-name="Grupo 117079">
                    <g id="Grupo_117078" data-name="Grupo 117078">
                      <g id="Grupo_117077" data-name="Grupo 117077">
                        <g id="Grupo_117076" data-name="Grupo 117076">
                          <g id="Grupo_117075" data-name="Grupo 117075">
                            <g id="Grupo_117074" data-name="Grupo 117074">
                              <path id="Trazado_162003" data-name="Trazado 162003" d="M277.742,58.481c-.011-.009-.048.029-.127.058a.451.451,0,0,1-.339-.019,1.124,1.124,0,0,1-.443-1.045,1.5,1.5,0,0,1,.176-.639.525.525,0,0,1,.368-.322.232.232,0,0,1,.258.144c.029.075.009.126.022.132s.06-.04.046-.149a.289.289,0,0,0-.09-.17.345.345,0,0,0-.246-.085.64.64,0,0,0-.5.368,1.545,1.545,0,0,0-.212.713,1.18,1.18,0,0,0,.576,1.174.488.488,0,0,0,.42-.037C277.732,58.544,277.751,58.487,277.742,58.481Z" transform="translate(-276.649 -56.385)" fill="#ff9a6c"/>
                            </g>
                          </g>
                        </g>
                      </g>
                    </g>
                  </g>
                </g>
              </g>
            </g>
          </g>
        </g>
        <g id="Grupo_117086" data-name="Grupo 117086" transform="translate(2.27 0)">
          <g id="Grupo_117085" data-name="Grupo 117085">
            <path id="Trazado_162004" data-name="Trazado 162004" d="M294.927,41.307a3.46,3.46,0,0,1-5.9,2.461c-.777-.936-1.429-2.083-2.547-2.564a3.1,3.1,0,0,0-2.391.068l-.023.01a3.976,3.976,0,0,0-2.1,2.852c-.359,1.651-.2,3.142-.754,4.64a1.038,1.038,0,0,1-.366.566c-.332.2-.771-.031-1.009-.34a3.215,3.215,0,0,1-.521-1.766,10.73,10.73,0,0,1,.479-4.2,7.3,7.3,0,0,1,2.391-3.45,6.916,6.916,0,0,1,5.022-1.3,8.5,8.5,0,0,1,4.711,2.28,4.982,4.982,0,0,1,1.395,2.007" transform="translate(-279.288 -38.223)" fill="#1a2e35"/>
          </g>
        </g>
      </g>
      <g id="Grupo_117089" data-name="Grupo 117089" transform="translate(259.553 38.416)">
        <g id="Grupo_117088" data-name="Grupo 117088">
          <path id="Trazado_162005" data-name="Trazado 162005" d="M298.657,39.892a.769.769,0,0,1,.359.043,1.79,1.79,0,0,1,.823.544,2.216,2.216,0,0,1,.546,1.36,2.5,2.5,0,0,1-.629,1.677,3.276,3.276,0,0,1-1.492.99,4.448,4.448,0,0,1-1.444.207,5.53,5.53,0,0,1-.972-.1,1.067,1.067,0,0,1-.345-.1c.005-.037.506.075,1.316.061a4.65,4.65,0,0,0,1.385-.24,3.2,3.2,0,0,0,1.4-.945,2.371,2.371,0,0,0,.6-1.542,2.133,2.133,0,0,0-.469-1.274,1.871,1.871,0,0,0-.74-.562A3.486,3.486,0,0,1,298.657,39.892Z" transform="translate(-295.504 -39.885)" fill="#375a64"/>
        </g>
      </g>
      <path id="Trazado_162006" data-name="Trazado 162006" d="M256.374,91.552l1.222-8.916-17.525,3.518-15.946-5.528-4.307,4.426,16.969,8.74a7.821,7.821,0,0,0,4.865.62Z" transform="translate(-6.345 -17.406)" fill="#ffbf9d"/>
      <path id="Trazado_162007" data-name="Trazado 162007" d="M217.78,78.413s-6.1-2.917-6.488-3.014c-.3-.076-4.906-.32-7-.429a.656.656,0,0,0-.13,1.3c.026,0,.052.007.079.009,1.171.1,3.749.684,3.749.684l-1.171,2.743a.658.658,0,0,0,.214.788l3.548,2.624a2.914,2.914,0,0,0,2.9-.283h0l1.563.32Z" transform="translate(0 -15.193)" fill="#ffbf9d"/>
      <g id="Grupo_117091" data-name="Grupo 117091" transform="translate(206.793 63.577)">
        <path id="Trazado_162008" data-name="Trazado 162008" d="M208.854,82.313a2.974,2.974,0,0,0,2.262,1.56.808.808,0,0,0,.56-.2.5.5,0,0,0,.13-.555.827.827,0,0,0-.268-.289l-2.077-1.613" transform="translate(-208.849 -81.214)" fill="#ffbf9d"/>
        <g id="Grupo_117090" data-name="Grupo 117090" transform="translate(0)">
          <path id="Trazado_162009" data-name="Trazado 162009" d="M209.457,81.214a5.323,5.323,0,0,1,.868.583l.907.676c.17.135.345.248.535.421a.55.55,0,0,1,.175.379.631.631,0,0,1-.135.4.872.872,0,0,1-.725.293,1.866,1.866,0,0,1-.681-.162,3.491,3.491,0,0,1-.968-.626,2.433,2.433,0,0,1-.5-.6c-.091-.164-.094-.273-.083-.274s.045.091.15.231a3.036,3.036,0,0,0,.525.528,3.709,3.709,0,0,0,.945.562,1.736,1.736,0,0,0,.614.136.685.685,0,0,0,.56-.218.373.373,0,0,0-.021-.517c-.151-.141-.348-.281-.508-.413l-.88-.711A5.331,5.331,0,0,1,209.457,81.214Z" transform="translate(-208.846 -81.213)" fill="#ff9a6c"/>
        </g>
      </g>
      <g id="Grupo_117092" data-name="Grupo 117092" transform="translate(211.19 63.954)">
        <path id="Trazado_162010" data-name="Trazado 162010" d="M216.6,84.137c-.018.016-.136-.069-.265-.265a1.8,1.8,0,0,1-.08-1.75c.11-.207.22-.3.239-.289a2.558,2.558,0,0,0,.106,2.3Z" transform="translate(-216.068 -81.831)" fill="#ff9a6c"/>
      </g>
      <g id="Grupo_117094" data-name="Grupo 117094" transform="translate(208.541 61.94)">
        <path id="Trazado_162011" data-name="Trazado 162011" d="M212.462,81.436a.8.8,0,0,0,1.472-.43,1.626,1.626,0,0,0-.689-1.1l-1.526-1.378" transform="translate(-211.717 -78.524)" fill="#ffbf9d"/>
        <g id="Grupo_117093" data-name="Grupo 117093">
          <path id="Trazado_162012" data-name="Trazado 162012" d="M211.717,78.525a3.1,3.1,0,0,1,.64.48l.656.563a5.519,5.519,0,0,1,.77.754,1.2,1.2,0,0,1,.238.541.882.882,0,0,1-.887,1.008.842.842,0,0,1-.558-.245c-.1-.105-.124-.186-.114-.191s.06.054.166.13a.841.841,0,0,0,.509.161.72.72,0,0,0,.618-.4.814.814,0,0,0-.136-.885,6.37,6.37,0,0,0-.731-.735l-.627-.6A3.148,3.148,0,0,1,211.717,78.525Z" transform="translate(-211.716 -78.523)" fill="#ff9a6c"/>
        </g>
      </g>
      <g id="Grupo_117096" data-name="Grupo 117096" transform="translate(208.162 61.706)">
        <path id="Trazado_162013" data-name="Trazado 162013" d="M214.894,78.146a11.631,11.631,0,0,0-3.478,1.455.311.311,0,0,0-.153.16.278.278,0,0,0,.132.267,1.616,1.616,0,0,0,1.15.261,11.622,11.622,0,0,1,1.2-.124,8.555,8.555,0,0,1,2.015.535,1.921,1.921,0,0,0,1.953-.342" transform="translate(-211.158 -78.143)" fill="#ffbf9d"/>
        <g id="Grupo_117095" data-name="Grupo 117095">
          <path id="Trazado_162014" data-name="Trazado 162014" d="M217.65,80.355c.005,0-.016.037-.063.094a1.077,1.077,0,0,1-.253.2,1.91,1.91,0,0,1-1.167.208,9.217,9.217,0,0,1-1.683-.463,2.927,2.927,0,0,0-.978-.133c-.344.017-.7.1-1.092.128a1.679,1.679,0,0,1-1.116-.268.479.479,0,0,1-.2-.262.264.264,0,0,1,.033-.2.4.4,0,0,1,.119-.119c.153-.1.294-.178.438-.261a11,11,0,0,1,1.586-.732,9.511,9.511,0,0,1,1.126-.34,1.567,1.567,0,0,1,.426-.069c.009.034-.589.172-1.5.544a12.468,12.468,0,0,0-1.545.762c-.138.081-.286.17-.421.258-.064.046-.08.076-.071.113a.292.292,0,0,0,.123.146,1.5,1.5,0,0,0,.984.225c.364-.023.726-.108,1.094-.124a3.036,3.036,0,0,1,1.041.152,10.378,10.378,0,0,0,1.646.5,1.938,1.938,0,0,0,1.112-.135A3.987,3.987,0,0,0,217.65,80.355Z" transform="translate(-211.095 -78.14)" fill="#ff9a6c"/>
        </g>
      </g>
      <g id="Grupo_117097" data-name="Grupo 117097" transform="translate(233.712 68.678)">
        <path id="Trazado_162015" data-name="Trazado 162015" d="M253.347,92.745a5.359,5.359,0,0,1-.093-3.154c.059.009-.015.712.013,1.578S253.405,92.733,253.347,92.745Z" transform="translate(-253.06 -89.591)" fill="#ff9a6c"/>
      </g>
      <path id="Trazado_162016" data-name="Trazado 162016" d="M272.538,76.766l-4.973,5.6s-2.656,19.352-2.846,20.869-.694,6.379-.694,7.707-1.1,10.83-1.1,10.83,21.1,4.381,24.631,0l-1.1-8.136.956-20.183s1.582-14.009-5.805-17.26C281.606,76.2,276.935,79.012,272.538,76.766Z" transform="translate(-23.206 -15.674)" fill="#fc4b52"/>
      <path id="Trazado_162017" data-name="Trazado 162017" d="M291.037,79s-1.456-1.437-6.1-.234c-4.9,1.269-7.482,5.853-6.267,18.83,1,10.7,5.235,12.241,5.235,12.241s-2.318-16.142-1.92-22.895c.5-8.528,9.054-6.405,9.054-6.405C292.254,80.145,291.037,79,291.037,79Z" transform="translate(-29.249 -16.491)" fill="#1a2e35"/>
      <path id="Trazado_162018" data-name="Trazado 162018" d="M269.742,77.131l-4.3,1.184-9.67,5.92,2.754,8.744,5.678-.622Z" transform="translate(-20.409 -16.039)" fill="#fc4b52"/>
      <g id="Grupo_117098" data-name="Grupo 117098" transform="translate(242.434 67.163)">
        <path id="Trazado_162019" data-name="Trazado 162019" d="M268.69,87.1c.057.005-.188,3.131-.546,6.981s-.693,6.968-.749,6.963.188-3.131.546-6.982S268.634,87.1,268.69,87.1Z" transform="translate(-267.387 -87.102)" fill="#1a2e35"/>
      </g>
      <path id="Trazado_162020" data-name="Trazado 162020" d="M294.539,126.836s-1.374,4.412-6.225-2.872-4.169-4.027-4.169-4.027l-.995,1.182s5.336,12.021,11.324,10.136Z" transform="translate(-31.118 -32.5)" fill="#1a2e35"/>
      <path id="Trazado_162021" data-name="Trazado 162021" d="M266.749,90.556l-3.827,7.5,3.162-.346Z" transform="translate(-23.206 -21.29)" opacity="0.3"/>
      <g id="Grupo_117099" data-name="Grupo 117099" transform="translate(241.788 80.157)" opacity="0.3">
        <path id="Trazado_162022" data-name="Trazado 162022" d="M266.325,117.466a35.934,35.934,0,0,0,9.82,7.542,8.658,8.658,0,0,0,4.974,1.294A6.107,6.107,0,0,0,285.538,123c.9-1.69.768-2.5.981-4.4.235-2.094.236-4.888.346-6.8.019-.339.026-.73.026-1.1a1.875,1.875,0,0,1,1.336-1.8h0a4.409,4.409,0,0,0-1.932-.434,2.7,2.7,0,0,0-1.768,1.425c-2.151,3.548-1.214,8.749-5.319,10.958a6.932,6.932,0,0,1-4.4.645c-3.359-.548-5.932-2.757-8.41-4.91" transform="translate(-266.325 -108.446)"/>
      </g>
      <ellipse id="Elipse_5527" data-name="Elipse 5527" cx="1.861" cy="5.6" rx="1.861" ry="5.6" transform="translate(244.569 70.635)" fill="#fafafa"/>
      <g id="Grupo_117105" data-name="Grupo 117105" transform="translate(238.531 173.499)">
        <path id="Trazado_162023" data-name="Trazado 162023" d="M269.875,261.876l.427,9.218s-9.226,3.53-9.313,5.241l17.9-.186-.076-14.39Z" transform="translate(-260.981 -261.759)" fill="#fc4b52"/>
        <g id="Grupo_117100" data-name="Grupo 117100" transform="translate(13.981 8.473)" opacity="0.6">
          <path id="Trazado_162024" data-name="Trazado 162024" d="M284.807,275.7a.731.731,0,0,1,.514.829.7.7,0,0,1-.818.517.772.772,0,0,1-.54-.881.729.729,0,0,1,.91-.443" transform="translate(-283.94 -275.676)" fill="#fff"/>
        </g>
        <path id="Trazado_162025" data-name="Trazado 162025" d="M278.886,284.473l-.007-1.435-17.2.705s-.794.355-.7.916Z" transform="translate(-260.976 -270.083)" fill="#1a2e35"/>
        <g id="Grupo_117101" data-name="Grupo 117101" transform="translate(9.03 9.163)">
          <path id="Trazado_162026" data-name="Trazado 162026" d="M275.808,276.893c0,.087.441.122.874.4s.666.642.746.606c.08-.018-.055-.539-.586-.865S275.788,276.813,275.808,276.893Z" transform="translate(-275.807 -276.809)" fill="#1a2e35"/>
        </g>
        <g id="Grupo_117102" data-name="Grupo 117102" transform="translate(7.16 10.006)">
          <path id="Trazado_162027" data-name="Trazado 162027" d="M272.737,278.231c-.02.085.361.23.662.6s.39.757.477.752c.082.013.138-.5-.245-.949S272.737,278.147,272.737,278.231Z" transform="translate(-272.736 -278.194)" fill="#1a2e35"/>
        </g>
        <g id="Grupo_117103" data-name="Grupo 117103" transform="translate(5.402 10.8)">
          <path id="Trazado_162028" data-name="Trazado 162028" d="M270.564,281c.08.018.2-.42-.032-.9s-.641-.662-.677-.589.22.326.4.72S270.477,280.991,270.564,281Z" transform="translate(-269.849 -279.498)" fill="#1a2e35"/>
        </g>
        <g id="Grupo_117104" data-name="Grupo 117104" transform="translate(9.163 6.812)">
          <path id="Trazado_162029" data-name="Trazado 162029" d="M276.029,273.271c.037.079.437-.046.932-.017s.882.18.926.1-.329-.384-.911-.409S275.985,273.2,276.029,273.271Z" transform="translate(-276.026 -272.947)" fill="#1a2e35"/>
        </g>
      </g>
      <path id="Trazado_162030" data-name="Trazado 162030" d="M275.727,264.943l.074,1.643,8.8-.171,0-1.481Z" transform="translate(-28.215 -89.502)" opacity="0.3"/>
      <g id="Grupo_117106" data-name="Grupo 117106" transform="translate(247.646 177.307)">
        <path id="Trazado_162031" data-name="Trazado 162031" d="M275.946,269.479a1.672,1.672,0,0,0,.9-.013,4.012,4.012,0,0,0,.935-.3,4.2,4.2,0,0,0,.512-.278,1.107,1.107,0,0,0,.268-.214.381.381,0,0,0,.035-.466.481.481,0,0,0-.385-.2,1.2,1.2,0,0,0-.336.05,3.222,3.222,0,0,0-.555.2,3.14,3.14,0,0,0-.821.552c-.412.388-.55.717-.52.734s.239-.248.659-.569a3.592,3.592,0,0,1,.8-.459,3.29,3.29,0,0,1,.513-.164c.189-.052.35-.055.4.029.018.032.02.045-.019.1a.908.908,0,0,1-.2.156,4.763,4.763,0,0,1-.471.275,4.964,4.964,0,0,1-.863.342A6.285,6.285,0,0,0,275.946,269.479Z" transform="translate(-275.946 -268.014)" fill="#1a2e35"/>
      </g>
      <g id="Grupo_117107" data-name="Grupo 117107" transform="translate(246.564 176.059)">
        <path id="Trazado_162032" data-name="Trazado 162032" d="M275.366,268.8a1.429,1.429,0,0,0,.227-.868,2.9,2.9,0,0,0-.132-.98,2.938,2.938,0,0,0-.234-.542.74.74,0,0,0-.577-.446.419.419,0,0,0-.372.254,1.223,1.223,0,0,0-.088.329,1.981,1.981,0,0,0,.005.6,2.063,2.063,0,0,0,.393.922c.355.46.72.561.728.531.029-.044-.278-.209-.55-.653a2.062,2.062,0,0,1-.293-.84,1.856,1.856,0,0,1,.012-.518c.026-.191.1-.345.167-.326.089,0,.242.139.317.29a2.961,2.961,0,0,1,.227.484,3.214,3.214,0,0,1,.183.893C275.408,268.461,275.318,268.789,275.366,268.8Z" transform="translate(-274.169 -265.965)" fill="#1a2e35"/>
      </g>
      <g id="Grupo_117113" data-name="Grupo 117113" transform="translate(264.772 161.192)">
        <path id="Trazado_162033" data-name="Trazado 162033" d="M304.076,248.371l7.239,5.723s-3.386,9.28-2.152,10.468l11.6-13.638-10.913-9.38Z" transform="translate(-304.076 -241.545)" fill="#fc4b52"/>
        <g id="Grupo_117108" data-name="Grupo 117108" transform="translate(9.946 7.714)" opacity="0.6">
          <path id="Trazado_162034" data-name="Trazado 162034" d="M320.7,254.331a.732.732,0,0,1,.963.156.7.7,0,0,1-.146.956.772.772,0,0,1-1.019-.17.73.73,0,0,1,.262-.978" transform="translate(-320.413 -254.215)" fill="#fff"/>
        </g>
        <path id="Trazado_162035" data-name="Trazado 162035" d="M323.841,256.351l-1.088-.936-10.746,13.446s-.253.832.233,1.127Z" transform="translate(-307.153 -246.971)" fill="#1a2e35"/>
        <g id="Grupo_117109" data-name="Grupo 117109" transform="translate(6.969 11.953)">
          <path id="Trazado_162036" data-name="Trazado 162036" d="M315.535,261.936c.068.055.382-.253.875-.4s.921-.082.947-.166-.443-.312-1.037-.125S315.462,261.9,315.535,261.936Z" transform="translate(-315.523 -261.177)" fill="#1a2e35"/>
        </g>
        <g id="Grupo_117110" data-name="Grupo 117110" transform="translate(6.349 14.232)">
          <path id="Trazado_162037" data-name="Trazado 162037" d="M314.512,265.334c.052.07.41-.122.884-.108s.827.2.881.133c.064-.054-.287-.432-.877-.437S314.449,265.278,314.512,265.334Z" transform="translate(-314.505 -264.921)" fill="#1a2e35"/>
        </g>
        <g id="Grupo_117111" data-name="Grupo 117111" transform="translate(5.788 16.298)">
          <path id="Trazado_162038" data-name="Trazado 162038" d="M315.172,268.93c.066-.048-.188-.424-.7-.563s-.921.049-.889.124.39.049.807.169S315.109,268.991,315.172,268.93Z" transform="translate(-313.583 -268.315)" fill="#1a2e35"/>
        </g>
        <g id="Grupo_117112" data-name="Grupo 117112" transform="translate(5.445 9.851)">
          <path id="Trazado_162039" data-name="Trazado 162039" d="M313.051,259.1c.085.024.252-.36.6-.714s.714-.547.687-.631-.505,0-.907.421S312.97,259.087,313.051,259.1Z" transform="translate(-313.019 -257.726)" fill="#1a2e35"/>
        </g>
      </g>
      <path id="Trazado_162040" data-name="Trazado 162040" d="M306.433,250.311l1.289,1.022,5.64-6.754-1.121-.968Z" transform="translate(-40.226 -81.161)" opacity="0.3"/>
      <g id="Grupo_117114" data-name="Grupo 117114" transform="translate(268.664 168.401)">
        <path id="Trazado_162041" data-name="Trazado 162041" d="M310.614,256.219c.027.024.292-.2.578-.686a4.028,4.028,0,0,0,.388-.9,4.243,4.243,0,0,0,.126-.569,1.116,1.116,0,0,0,.015-.343.381.381,0,0,0-.328-.332.478.478,0,0,0-.4.162,1.188,1.188,0,0,0-.183.286,3.162,3.162,0,0,0-.338,1.53,1.5,1.5,0,0,0,.213.874c.048-.012-.03-.343,0-.871a3.542,3.542,0,0,1,.175-.9,3.413,3.413,0,0,1,.212-.495c.085-.177.189-.3.284-.283.036.008.047.014.064.08a.9.9,0,0,1-.012.251,4.621,4.621,0,0,1-.1.536,4.924,4.924,0,0,1-.309.875A6.1,6.1,0,0,0,310.614,256.219Z" transform="translate(-310.469 -253.385)" fill="#1a2e35"/>
      </g>
      <g id="Grupo_117115" data-name="Grupo 117115" transform="translate(266.273 169.734)">
        <path id="Trazado_162042" data-name="Trazado 162042" d="M309.247,257.07c.03-.015-.1-.35-.507-.742a2.892,2.892,0,0,0-1.389-.721.74.74,0,0,0-.715.142.418.418,0,0,0-.052.447,1.2,1.2,0,0,0,.191.283,2.013,2.013,0,0,0,.46.392,2.061,2.061,0,0,0,.953.308,1.155,1.155,0,0,0,.879-.2,7.211,7.211,0,0,1-.854-.013,2.068,2.068,0,0,1-.826-.329,1.874,1.874,0,0,1-.384-.348c-.127-.145-.2-.3-.136-.34a.512.512,0,0,1,.427-.049,3.009,3.009,0,0,1,.514.146,3.228,3.228,0,0,1,.794.448C309.017,256.815,309.206,257.1,309.247,257.07Z" transform="translate(-306.542 -255.575)" fill="#1a2e35"/>
      </g>
      <path id="Trazado_162043" data-name="Trazado 162043" d="M265.89,182.5s.479-22.016,0-22.016a29.036,29.036,0,0,1-3.873-1.938l-4.242,32.721s-.382,3.673,4.164,6.262,24.87,20.66,24.87,20.66l6.877-8.376s-13.374-13.94-18.837-18.546A112.791,112.791,0,0,1,265.89,182.5Z" transform="translate(-21.19 -47.887)" fill="#1a2e35"/>
      <g id="Grupo_117118" data-name="Grupo 117118" transform="translate(240.462 106.428)">
        <path id="Trazado_162044" data-name="Trazado 162044" d="M280.845,174.654l.463-3.486s3.35-7.045,3.829-10.063a66.7,66.7,0,0,0,.163-9.509H264.147s.091,23.88,2.643,30.581c0,0,1.3,12.823,1.487,13.9.4,2.281,1.814,25.625,1.814,25.625l10.666-.388s.926-21.462.186-27.555c-.367-3.017-.54-6.232-.62-8.893A63.229,63.229,0,0,1,280.845,174.654Z" transform="translate(-264.147 -151.595)" fill="#12263f"/>
        <g id="Grupo_117116" data-name="Grupo 117116" transform="translate(0.57 6.964)">
          <path id="Trazado_162045" data-name="Trazado 162045" d="M265.091,163.034a.387.387,0,0,1,.014.105l.019.309c.014.287.032.684.056,1.188.04,1.031.116,2.524.222,4.367.213,3.685.608,8.77,1.19,14.373s1.205,10.667,1.657,14.332c.223,1.821.4,3.3.531,4.341.058.5.1.9.136,1.181l.03.308a.467.467,0,0,1,0,.106.386.386,0,0,1-.024-.1l-.051-.305-.174-1.176c-.143-1.039-.346-2.515-.6-4.332-.489-3.661-1.136-8.723-1.717-14.33s-.955-10.7-1.131-14.387c-.088-1.845-.142-3.338-.158-4.371-.007-.5-.013-.9-.018-1.189v-.309A.46.46,0,0,1,265.091,163.034Z" transform="translate(-265.084 -163.034)" fill="#375a64"/>
        </g>
        <g id="Grupo_117117" data-name="Grupo 117117" transform="translate(16.152 35.23)">
          <path id="Trazado_162046" data-name="Trazado 162046" d="M290.678,209.46a2.15,2.15,0,0,1,.062.346q.051.368.138,1c.107.868.24,2.127.36,3.685.252,3.117.442,7.433.513,12.2s-.019,9.091-.189,12.213c-.08,1.562-.18,2.823-.264,3.693q-.071.631-.112,1a2.338,2.338,0,0,1-.053.348,2.187,2.187,0,0,1,.012-.352c.018-.247.043-.581.074-1,.06-.871.138-2.133.2-3.693.133-3.12.185-7.437.129-12.2s-.238-9.078-.452-12.194c-.1-1.558-.213-2.817-.3-3.686-.042-.421-.076-.755-.1-1A2.333,2.333,0,0,1,290.678,209.46Z" transform="translate(-290.676 -209.46)" fill="#375a64"/>
        </g>
      </g>
      <path id="Trazado_162047" data-name="Trazado 162047" d="M297.405,78.652s3.462.924,4.2,6.082-.628,6.633-.628,6.633.562-9.6-3.74-10.914l.169-1.613" transform="translate(-36.629 -16.634)" fill="#1a2e35"/>
      <path id="Trazado_162048" data-name="Trazado 162048" d="M247.288,106.107l-17.873-.346.208.866,17.578.259Z" transform="translate(-10.099 -27.238)" fill="#1a2e35"/>
      <g id="Grupo_117120" data-name="Grupo 117120" transform="translate(236.098 63.444)">
        <path id="Trazado_162049" data-name="Trazado 162049" d="M290.123,81.252a3.115,3.115,0,0,0-2,.177c-1.449.609-4.1,2.362-4.287,7.308l-.305,7.988,11.43,1.5S295.927,82.8,290.123,81.252Z" transform="translate(-267.363 -81.059)" fill="#fc4b52"/>
        <path id="Trazado_162050" data-name="Trazado 162050" d="M258.707,108.162,273.2,112.52l.216-5.835,8.678,1.264-.484,9.487a6.179,6.179,0,0,1-4.764,5.791h0a6.181,6.181,0,0,1-4.465-.644l-15.4-8.756Z" transform="translate(-256.979 -91.044)" fill="#ffbf9d"/>
        <g id="Grupo_117119" data-name="Grupo 117119" transform="translate(16.075)">
          <path id="Trazado_162051" data-name="Trazado 162051" d="M294.9,98.157a1.264,1.264,0,0,1-.01-.137c0-.1-.01-.225-.016-.385-.012-.348-.03-.839-.052-1.464-.041-1.274-.1-3.1-.17-5.339-.032-1.124-.068-2.353-.106-3.672l-.028-1.006c-.018-.167-.035-.335-.052-.505-.035-.167-.061-.339-.1-.507a5.306,5.306,0,0,0-4.9-3.945,4.19,4.19,0,0,0-2.294.655A5.905,5.905,0,0,0,285.4,83.6a8.856,8.856,0,0,0-1.307,3.331,24.183,24.183,0,0,0-.354,3.442c-.064,2.251-.124,4.366-.179,6.292l-.075-.088,8.262,1.128,2.323.326.617.09a2.048,2.048,0,0,1,.217.038,1.79,1.79,0,0,1-.2-.018l-.6-.069-2.307-.279-8.332-1.044-.077-.009,0-.078c.048-1.926.082-4.041.155-6.3a24.082,24.082,0,0,1,.351-3.472,9.042,9.042,0,0,1,1.336-3.406,6.1,6.1,0,0,1,1.834-1.805,4.392,4.392,0,0,1,2.4-.682,5.485,5.485,0,0,1,5.07,4.1c.044.174.071.351.106.525q.026.265.052.525l.023,1.018c.027,1.332.052,2.574.075,3.709.039,2.248.071,4.072.093,5.349.009.616.015,1.1.02,1.442,0,.154,0,.276,0,.371A.707.707,0,0,1,294.9,98.157Z" transform="translate(-283.382 -80.995)" fill="#1a2e35"/>
        </g>
      </g>
      <path id="Trazado_162052" data-name="Trazado 162052" d="M250.122,107.439l-3.481-2.574a4.851,4.851,0,0,0-2.411-.444,9.682,9.682,0,0,0-4.229.965l1.05.84-6.765-.208a2.857,2.857,0,0,0,2.473,1.558,2.362,2.362,0,0,0,2.183,1.819,3.055,3.055,0,0,0,1.6,1.6,1.718,1.718,0,0,0,1.964,1.31l5.926.672Z" transform="translate(-12.004 -26.708)" fill="#ffbf9d"/>
      <g id="Grupo_117121" data-name="Grupo 117121" transform="translate(224.716 80.831)">
        <path id="Trazado_162053" data-name="Trazado 162053" d="M242.557,109.84a22.469,22.469,0,0,1-4.273-.251,22.611,22.611,0,0,1,4.273.251Z" transform="translate(-238.284 -109.553)" fill="#ff9a6c"/>
      </g>
      <g id="Grupo_117122" data-name="Grupo 117122" transform="translate(226.952 82.645)">
        <path id="Trazado_162054" data-name="Trazado 162054" d="M245.7,112.633a17.207,17.207,0,0,1-3.747,0,17.207,17.207,0,0,1,3.747,0Z" transform="translate(-241.957 -112.531)" fill="#ff9a6c"/>
      </g>
      <g id="Grupo_117123" data-name="Grupo 117123" transform="translate(228.793 84.184)">
        <path id="Trazado_162055" data-name="Trazado 162055" d="M248.727,115.162a17.313,17.313,0,0,1-3.747,0,17.213,17.213,0,0,1,3.747,0Z" transform="translate(-244.98 -115.06)" fill="#ff9a6c"/>
      </g>
      <g id="Grupo_117124" data-name="Grupo 117124" transform="translate(252.242 84.942)">
        <path id="Trazado_162056" data-name="Trazado 162056" d="M284.527,119.241a8.526,8.526,0,0,1-1.02-2.936,19.694,19.694,0,0,1,1.02,2.936Z" transform="translate(-283.496 -116.305)" fill="#ff9a6c"/>
      </g>
      <g id="Grupo_117125" data-name="Grupo 117125" transform="translate(252.218 84.791)">
        <path id="Trazado_162057" data-name="Trazado 162057" d="M285.561,118.582a24.211,24.211,0,0,1-2.1-2.524,9.143,9.143,0,0,1,2.1,2.524Z" transform="translate(-283.456 -116.057)" fill="#ff9a6c"/>
      </g>
    </g>
  </g>
</svg>
