<svg xmlns="http://www.w3.org/2000/svg" width="473" height="298" viewBox="0 0 473 298">
  <g id="Grupo_117460" data-name="Grupo 117460" transform="translate(-842 -962)">
    <rect id="Image_Place_Holder" data-name="Image Place Holder" width="473" height="298" transform="translate(1315 1260) rotate(180)" fill="#d9eaea"/>
    <g id="Grupo_116757" data-name="Grupo 116757" transform="translate(14 -229.667)">
      <g id="Grupo_116756" data-name="Grupo 116756" transform="translate(1105 1277)">
        <path id="Trazado_161682" data-name="Trazado 161682" d="M204.539,109.084l-.376-4.168-3.136-.246a10.573,10.573,0,0,0-.924-1.971l1.806-2.558-2.966-2.951L196.408,99a10.6,10.6,0,0,0-2.006-.932l-.257-3.086-4.168-.354-.772,2.99a10.809,10.809,0,0,0-2.16.582l-2.162-2.178-.1.069-3.325,2.339,1.326,2.778a10.951,10.951,0,0,0-1.276,1.843l-3.058-.28-1.073,4.042L180.2,108.1a10.843,10.843,0,0,0,.209,2.212l-2.543,1.763,1.778,3.786,3.019-.835a10.672,10.672,0,0,0,1.556,1.534l-.822,3.017,3.8,1.76,1.791-2.606a10.869,10.869,0,0,0,2.152.174l1.323,2.865,4.036-1.093-.156-1.611-.15-1.55c.3-.172.6-.359.885-.559a10.876,10.876,0,0,0,.867-.68l2.864,1.35,2.391-3.432-2.263-2.225a10.652,10.652,0,0,0,.552-2.078Zm-9.789,4.564a6.846,6.846,0,0,1-.874.511,6.665,6.665,0,0,1-6.8-11.421,6.525,6.525,0,0,1,.815-.482,6.666,6.666,0,0,1,6.861,11.392Z" transform="translate(-137.244 -56.644)" fill="#a7e446"/>
        <path id="Trazado_161683" data-name="Trazado 161683" d="M231.828,136.6l-.632-7.018-5.285-.415a17.872,17.872,0,0,0-1.554-3.321l3.038-4.3-4.994-4.97-4.27,3.043a18.2,18.2,0,0,0-3.379-1.567l-.432-5.2-7.02-.6-1.3,5.036a17.888,17.888,0,0,0-3.636.982l-3.642-3.671-.165.117-5.6,3.938,2.234,4.683a18.354,18.354,0,0,0-2.147,3.1l-5.151-.47-1.806,6.807,4.751,2.165a18.037,18.037,0,0,0,.354,3.725l-4.284,2.971,3,6.376,5.083-1.406a17.965,17.965,0,0,0,2.623,2.58l-1.387,5.083,6.392,2.964,3.017-4.388a18.4,18.4,0,0,0,3.623.295l2.228,4.822,6.8-1.837-.259-2.715-.254-2.612c.5-.289,1.006-.6,1.489-.943.513-.361,1-.743,1.461-1.143l4.823,2.275,4.027-5.781-3.812-3.749a18.152,18.152,0,0,0,.928-3.5Zm-16.487,7.689a11.72,11.72,0,0,1-1.473.859,11.141,11.141,0,1,1,1.473-.859Z" transform="translate(-129.822 -41.625)" fill="#feca2e"/>
        <path id="_7" data-name="7" d="M211.04,132.485l-.75-8.337-6.279-.495a21.265,21.265,0,0,0-1.845-3.945l3.608-5.114-5.931-5.905-5.073,3.618a21.455,21.455,0,0,0-4.016-1.863l-.511-6.172-8.341-.711-1.545,5.983a21.519,21.519,0,0,0-4.321,1.167l-4.325-4.362-.2.139-6.65,4.679,2.652,5.562a21.6,21.6,0,0,0-2.551,3.684l-6.12-.558-2.147,8.087,5.646,2.573a21.347,21.347,0,0,0,.419,4.425l-5.09,3.529,3.558,7.576,6.038-1.671a21.365,21.365,0,0,0,3.117,3.066l-1.649,6.04L176.333,157l3.586-5.212a21.89,21.89,0,0,0,4.3.348l2.645,5.729,8.078-2.184-.309-3.227-.3-3.1c.6-.345,1.195-.719,1.771-1.121.609-.43,1.185-.882,1.736-1.358l5.731,2.7,4.784-6.868-4.529-4.455a21.53,21.53,0,0,0,1.1-4.157Zm-19.588,9.134a13.81,13.81,0,0,1-1.75,1.022,13.338,13.338,0,0,1-13.609-22.855,13.173,13.173,0,0,1,1.632-.963,13.338,13.338,0,0,1,13.727,22.8Z" transform="translate(-154.871 -49.032)" fill="#12263f"/>
        <path id="Trazado_161684" data-name="Trazado 161684" d="M199.373,116.424l3.69-6.774a.811.811,0,0,1,1.08-.161L224.8,119.97c.569.289.88.819.687,1.174l-4.294,7.883c-.193.356-.806.382-1.36.059l-20.012-11.668A.811.811,0,0,1,199.373,116.424Z" transform="translate(-118.55 -44.085)" fill="#b1bac3"/>
        <path id="Trazado_161685" data-name="Trazado 161685" d="M209.34,123.99l5.138-9.432c.176-.324.8-.33,1.384-.009l6.007,3.269c.585.319.919.845.743,1.169l-5.136,9.434c-.178.324-.8.328-1.385.009l-6.005-3.271C209.5,124.84,209.164,124.314,209.34,123.99Z" transform="translate(-110.046 -39.868)" fill="#788f9b"/>
        <path id="Trazado_161686" data-name="Trazado 161686" d="M209.866,125.331l5.818-10.684c.263-.482,1.3-.45,2.306.074l31.8,16.269c1.343.7,2.2,1.732,1.895,2.291l-6.774,12.436c-.306.559-1.637.4-2.951-.348l-30.781-18.141C210.192,126.665,209.6,125.813,209.866,125.331Z" transform="translate(-109.611 -39.874)" fill="#fc4b52"/>
        <path id="Trazado_161687" data-name="Trazado 161687" d="M207.516,111.219l-4.519,8.3.961.561,7.342,4.283.96.561,4.821-8.853Z" transform="translate(-115.411 -42.504)" fill="#788f9b"/>
        <path id="Trazado_161688" data-name="Trazado 161688" d="M203.139,122.048l6.074-11.154a1,1,0,0,1,1.356-.167l5.507,3c.539.293.808.845.6,1.228L210.6,126.11a1,1,0,0,1-1.356.165l-5.507-3C203.2,122.983,202.929,122.429,203.139,122.048Z" transform="translate(-115.351 -43.075)" fill="#fc4b52"/>
        <g id="Grupo_116754" data-name="Grupo 116754" transform="translate(0 0)">
          <path id="Trazado_161689" data-name="Trazado 161689" d="M219.427,162.241a45.86,45.86,0,1,0-60.09-24.4A45.86,45.86,0,0,0,219.427,162.241Zm-2.573-6.092a39.246,39.246,0,1,1,20.885-51.423A39.248,39.248,0,0,1,216.854,156.149Z" transform="translate(-155.712 -74.122)" fill="#a7e446"/>
        </g>
        <g id="Grupo_116755" data-name="Grupo 116755" transform="translate(4.888 6.556)">
          <path id="Trazado_161690" data-name="Trazado 161690" d="M214.092,151.917a37.928,37.928,0,1,0-49.7-20.184A37.928,37.928,0,0,0,214.092,151.917Zm.576,3.71a40.582,40.582,0,1,1,21.525-53.144A40.543,40.543,0,0,1,214.668,155.627Z" transform="translate(-158.351 -77.661)" fill="#12263f"/>
        </g>
        <circle id="Elipse_5520" data-name="Elipse 5520" cx="38" cy="38" r="38" transform="translate(8 8.167)" fill="#fff" opacity="0.6"/>
      </g>
    </g>
  </g>
</svg>
