<svg xmlns="http://www.w3.org/2000/svg" width="445" height="231.633" viewBox="0 0 445 231.633">
  <g id="Grupo_117452" data-name="Grupo 117452" transform="translate(-870 -3495.7)">
    <rect id="Image_Place_Holder" data-name="Image Place Holder" width="445" height="231.633" transform="translate(870 3495.7)" fill="#e8e8e8"/>
    <g id="Grupo_116753" data-name="Grupo 116753" transform="translate(0 67.632)">
      <g id="Grupo_116752" data-name="Grupo 116752" transform="translate(1122.666 3506.068)">
        <g id="Grupo_116745" data-name="Grupo 116745" transform="translate(0 0)">
          <path id="Trazado_161663" data-name="Trazado 161663" d="M232.326,100.249h-1.931c-1.707-5.03-5.378-8.229-9.554-8.229H203.093c-4.176,0-7.847,3.2-9.554,8.229H191.6c1.808-6.422,6.377-10.778,11.5-10.778h17.748C225.961,89.471,230.529,93.827,232.326,100.249Z" transform="translate(-156.984 -86.69)" fill="#a7e446"/>
          <g id="Grupo_116743" data-name="Grupo 116743" transform="translate(4.043 18.262)">
            <path id="Trazado_161664" data-name="Trazado 161664" d="M277,121.078v45.063a12.1,12.1,0,0,1-11.608,11.978h-6.724V109.1l6.646-.011A12.11,12.11,0,0,1,277,121.078Z" transform="translate(-175.133 -109.078)" fill="#a7e446"/>
            <path id="Trazado_161665" data-name="Trazado 161665" d="M171.231,109.1v69.019H164.54a12.117,12.117,0,0,1-11.653-11.978V121.075a12.144,12.144,0,0,1,11.765-12Z" transform="translate(-152.887 -109.075)" fill="#a7e446"/>
          </g>
          <g id="Grupo_116744" data-name="Grupo 116744">
            <path id="Trazado_161666" data-name="Trazado 161666" d="M277.066,120.154v45.062a14.7,14.7,0,0,1-14.111,14.572h-9.408V105.582h9.3A14.705,14.705,0,0,1,277.066,120.154Zm-2.593,45.062V120.154a12.11,12.11,0,0,0-11.686-11.99l-6.646.012v69.018h6.724A12.1,12.1,0,0,0,274.472,165.216Z" transform="translate(-170.013 -90.079)"/>
            <path id="Trazado_161667" data-name="Trazado 161667" d="M233.8,105.582v74.206H184.06V105.582h1.37l-.09.46h7.095l.134-.46h32.725l.123.46h7.107l-.09-.46Zm-2.594,71.612V108.176H186.653v69.018Z" transform="translate(-155.399 -90.079)"/>
            <path id="Trazado_161668" data-name="Trazado 161668" d="M243.415,105.582l.09.46H236.4l-.123-.46Z" transform="translate(-166.38 -90.079)"/>
            <path id="Trazado_161669" data-name="Trazado 161669" d="M232.574,100.364l.224,1.089h-7.14l-.135-.482c-1.212-4.355-4.165-7.286-7.353-7.286H200.423c-3.189,0-6.141,2.931-7.354,7.286l-.135.482h-7.139l.224-1.089c1.706-8.487,7.633-14.414,14.4-14.414h17.748C224.94,85.95,230.868,91.877,232.574,100.364Zm-4.85-1.043h1.931c-1.8-6.422-6.366-10.778-11.485-10.778H200.423c-5.12,0-9.688,4.356-11.5,10.778h1.943c1.707-5.03,5.378-8.229,9.554-8.229h17.748C222.347,91.092,226.018,94.292,227.725,99.321Z" transform="translate(-155.764 -85.95)"/>
            <path id="Trazado_161670" data-name="Trazado 161670" d="M227.914,158.665a7.162,7.162,0,1,1-7.163,7.162A7.167,7.167,0,0,1,227.914,158.665Zm4.569,7.162a4.569,4.569,0,1,0-4.569,4.58A4.574,4.574,0,0,0,232.483,165.827Z" transform="translate(-163.116 -101.242)"/>
            <path id="Trazado_161671" data-name="Trazado 161671" d="M228.716,118.466a2.592,2.592,0,0,1,1.5,3.323l-1,2.615a2.6,2.6,0,0,1-2.413,1.662,2.518,2.518,0,0,1-.91-.168l-8.42-3.177a2.621,2.621,0,0,1-1.436-1.359,2.564,2.564,0,0,1-.056-1.976l.976-2.6a2.639,2.639,0,0,1,3.334-1.5Zm-1.908,5.007.988-2.6-8.409-3.166-.977,2.6Z" transform="translate(-162.078 -92.084)"/>
            <path id="Trazado_161672" data-name="Trazado 161672" d="M206.218,140.9a2.589,2.589,0,0,1-1.391,3.378l-8.645,3.626a2.7,2.7,0,0,1-.988.191,2.582,2.582,0,0,1-2.39-1.583l-1.19-2.851A2.588,2.588,0,0,1,193,140.28l8.633-3.615a2.632,2.632,0,0,1,3.379,1.381Zm-2.391.987-1.189-2.829L194,142.67l1.2,2.841Z" transform="translate(-156.946 -96.575)"/>
            <path id="Trazado_161673" data-name="Trazado 161673" d="M195.251,115.619a4.737,4.737,0,1,1-4.737,4.737A4.746,4.746,0,0,1,195.251,115.619Zm2.144,4.737a2.144,2.144,0,1,0-2.144,2.144A2.143,2.143,0,0,0,197.4,120.356Z" transform="translate(-156.757 -92.189)"/>
            <path id="Trazado_161674" data-name="Trazado 161674" d="M192.91,105.582l-.135.46h-7.095l.09-.46Z" transform="translate(-155.74 -90.079)"/>
            <path id="Trazado_161675" data-name="Trazado 161675" d="M171.3,105.573v74.206h-9.352a14.719,14.719,0,0,1-14.179-14.572V120.145a14.751,14.751,0,0,1,14.875-14.605ZM168.7,177.185V108.167l-6.578-.023a12.144,12.144,0,0,0-11.765,12v45.062a12.117,12.117,0,0,0,11.653,11.978Z" transform="translate(-147.767 -90.07)"/>
          </g>
        </g>
        <g id="Grupo_116747" data-name="Grupo 116747" transform="translate(38.194 44.746)">
          <g id="Grupo_116746" data-name="Grupo 116746">
            <path id="Trazado_161676" data-name="Trazado 161676" d="M262.48,188.488l-32.694,26.734-33.654-41.156.338-8.069,28.5-23.387Z" transform="translate(-196.133 -142.612)" fill="#feca2e" stroke="#000" stroke-miterlimit="10" stroke-width="2"/>
            <line id="Línea_303" data-name="Línea 303" y1="18.685" x2="22.85" transform="translate(9.757 14.659)" fill="none" stroke="#000" stroke-miterlimit="10" stroke-width="2"/>
            <line id="Línea_304" data-name="Línea 304" y1="18.685" x2="22.85" transform="translate(13.781 19.58)" fill="none" stroke="#000" stroke-miterlimit="10" stroke-width="2"/>
            <line id="Línea_305" data-name="Línea 305" y1="18.685" x2="22.85" transform="translate(17.806 24.502)" fill="none" stroke="#000" stroke-miterlimit="10" stroke-width="2"/>
            <line id="Línea_306" data-name="Línea 306" y1="18.685" x2="22.85" transform="translate(21.831 29.424)" fill="none" stroke="#000" stroke-miterlimit="10" stroke-width="2"/>
            <line id="Línea_307" data-name="Línea 307" y1="14.266" x2="17.445" transform="translate(25.855 38.765)" fill="none" stroke="#000" stroke-miterlimit="10" stroke-width="2"/>
            <line id="Línea_308" data-name="Línea 308" y1="5.27" x2="6.445" transform="translate(29.88 52.682)" fill="none" stroke="#000" stroke-miterlimit="10" stroke-width="2"/>
          </g>
          <path id="Trazado_161677" data-name="Trazado 161677" d="M196.868,179.679l3.221-2.763-2.779-3.529Z" transform="translate(-196.287 -149.084)" fill="#fff" stroke="#000" stroke-miterlimit="10" stroke-width="2"/>
        </g>
        <g id="Grupo_116749" data-name="Grupo 116749" transform="translate(43.779 44.746)">
          <g id="Grupo_116748" data-name="Grupo 116748">
            <path id="Trazado_161678" data-name="Trazado 161678" d="M269.552,188.488l-32.694,26.734L203.2,174.067l.338-8.069,28.5-23.387Z" transform="translate(-203.204 -142.612)" fill="#feca2e" stroke="#000" stroke-miterlimit="10" stroke-width="2"/>
            <line id="Línea_309" data-name="Línea 309" y1="18.685" x2="22.85" transform="translate(9.757 14.659)" fill="none" stroke="#000" stroke-miterlimit="10" stroke-width="2"/>
            <line id="Línea_310" data-name="Línea 310" y1="18.685" x2="22.85" transform="translate(13.781 19.58)" fill="none" stroke="#000" stroke-miterlimit="10" stroke-width="2"/>
            <line id="Línea_311" data-name="Línea 311" y1="18.685" x2="22.85" transform="translate(17.806 24.502)" fill="none" stroke="#000" stroke-miterlimit="10" stroke-width="2"/>
            <line id="Línea_312" data-name="Línea 312" y1="18.685" x2="22.85" transform="translate(21.831 29.424)" fill="none" stroke="#000" stroke-miterlimit="10" stroke-width="2"/>
            <line id="Línea_313" data-name="Línea 313" y1="14.266" x2="17.445" transform="translate(25.855 38.765)" fill="none" stroke="#000" stroke-miterlimit="10" stroke-width="2"/>
            <line id="Línea_314" data-name="Línea 314" y1="5.27" x2="6.445" transform="translate(29.88 52.682)" fill="none" stroke="#000" stroke-miterlimit="10" stroke-width="2"/>
          </g>
          <path id="Trazado_161679" data-name="Trazado 161679" d="M203.94,179.679l3.221-2.763-2.779-3.529Z" transform="translate(-203.359 -149.084)" fill="#fff" stroke="#000" stroke-miterlimit="10" stroke-width="2"/>
        </g>
        <g id="Grupo_116751" data-name="Grupo 116751" transform="translate(49.871 44.746)">
          <g id="Grupo_116750" data-name="Grupo 116750">
            <path id="Trazado_161680" data-name="Trazado 161680" d="M277.266,188.488l-32.694,26.734-33.654-41.156.338-8.069,28.5-23.387Z" transform="translate(-210.918 -142.612)" fill="#feca2e" stroke="#000" stroke-miterlimit="10" stroke-width="2"/>
            <line id="Línea_315" data-name="Línea 315" y1="18.685" x2="22.85" transform="translate(9.757 14.659)" fill="none" stroke="#000" stroke-miterlimit="10" stroke-width="2"/>
            <line id="Línea_316" data-name="Línea 316" y1="18.685" x2="22.85" transform="translate(13.781 19.58)" fill="none" stroke="#000" stroke-miterlimit="10" stroke-width="2"/>
            <line id="Línea_317" data-name="Línea 317" y1="18.685" x2="22.85" transform="translate(17.806 24.502)" fill="none" stroke="#000" stroke-miterlimit="10" stroke-width="2"/>
            <line id="Línea_318" data-name="Línea 318" y1="18.685" x2="22.85" transform="translate(21.831 29.424)" fill="none" stroke="#000" stroke-miterlimit="10" stroke-width="2"/>
            <line id="Línea_319" data-name="Línea 319" y1="14.266" x2="17.445" transform="translate(25.855 38.765)" fill="none" stroke="#000" stroke-miterlimit="10" stroke-width="2"/>
            <line id="Línea_320" data-name="Línea 320" y1="5.27" x2="6.445" transform="translate(29.88 52.682)" fill="none" stroke="#000" stroke-miterlimit="10" stroke-width="2"/>
          </g>
          <path id="Trazado_161681" data-name="Trazado 161681" d="M211.654,179.679l3.221-2.763-2.779-3.529Z" transform="translate(-211.073 -149.084)" fill="#fff" stroke="#000" stroke-miterlimit="10" stroke-width="2"/>
        </g>
      </g>
    </g>
  </g>
</svg>
