<svg xmlns="http://www.w3.org/2000/svg" width="190" height="110" viewBox="0 0 190 110">
  <g id="Grupo_117476" data-name="Grupo 117476" transform="translate(-180 -2780)">
    <g id="Grupo_109239" data-name="Grupo 109239" transform="translate(0 -3529)">
      <rect id="Rectángulo_36775" data-name="Rectángulo 36775" width="190" height="110" transform="translate(180 6309)" fill="none"/>
      <g id="Grupo_109187" data-name="Grupo 109187" transform="translate(-3442.279 6939.357)" opacity="0.3">
        <path id="Trazado_158283" data-name="Trazado 158283" d="M3677.784-530.075h0a16.354,16.354,0,0,0,23.129,0l67.216-67.214a16.357,16.357,0,0,0,0-23.129,16.355,16.355,0,0,0-23.129,0L3677.784-553.2A16.353,16.353,0,0,0,3677.784-530.075Z" transform="translate(14.296)" fill="#fc4b52"/>
        <path id="Trazado_158284" data-name="Trazado 158284" d="M3652.069-530.075h0a16.354,16.354,0,0,0,23.129,0l67.216-67.214a16.358,16.358,0,0,0,0-23.129,16.355,16.355,0,0,0-23.129,0L3652.069-553.2A16.354,16.354,0,0,0,3652.069-530.075Z" transform="translate(0)" fill="#feca2e"/>
      </g>
      <g id="Layer_49" transform="translate(228 6317)">
        <g id="Grupo_109305" data-name="Grupo 109305" transform="translate(0 0)">
          <g id="Grupo_109241" data-name="Grupo 109241" transform="translate(0.918 12.331)">
            <path id="Trazado_158572" data-name="Trazado 158572" d="M46.267,74.513a1.1,1.1,0,0,1-.943-1.675l7.088-11.69H50.736a1.1,1.1,0,0,1-.943-1.674l6.5-10.726H54.06a1.1,1.1,0,0,1-.943-1.674l1.578-2.6-6.107-8.926A4.512,4.512,0,0,0,41,35.765L30.171,53.734A5.021,5.021,0,0,1,33.384,56a.969.969,0,0,0,.738.451,3.611,3.611,0,0,1,3.26,3.659,3.663,3.663,0,0,1-3.69,3.548H14.059A9.3,9.3,0,0,0,10.373,66L4.061,72.537A5.564,5.564,0,0,0,2.5,76.4v8.923H12.912V80.966a6.7,6.7,0,0,1,5.722-6.608h0a6.909,6.909,0,0,1,.964-.078H36.879a6.953,6.953,0,0,1,.963.078h0a6.3,6.3,0,0,1,2.216.732,6.7,6.7,0,0,1,3.506,5.875V82.5h0v2.825H57.546V74.512H46.267Z" transform="translate(-2.5 -33.581)" fill="#a4b7b8"/>
          </g>
          <g id="Grupo_109242" data-name="Grupo 109242" transform="translate(75.431 26.202)">
            <path id="Trazado_158573" data-name="Trazado 158573" d="M210.378,71.783l-4.819,7.948a.883.883,0,0,0,.755,1.341h9.639a.883.883,0,0,0,.755-1.341l-4.819-7.948a.884.884,0,0,0-1.511,0Z" transform="translate(-205.43 -71.358)" fill="#a7e446"/>
          </g>
          <g id="Grupo_109243" data-name="Grupo 109243" transform="translate(69.189 45.85)">
            <path id="Trazado_158574" data-name="Trazado 158574" d="M212.193,134.232l-5.678-9.364H194.237l-5.678,9.364a.883.883,0,0,0,.755,1.341h22.124A.883.883,0,0,0,212.193,134.232Z" transform="translate(-188.43 -124.868)" fill="#70992f"/>
          </g>
          <g id="Grupo_109244" data-name="Grupo 109244" transform="translate(72.769 35.916)">
            <path id="Trazado_158575" data-name="Trazado 158575" d="M214.783,106.407l-5.21-8.592h-6.055l-5.21,8.592a.883.883,0,0,0,.755,1.341h14.964A.883.883,0,0,0,214.783,106.407Z" transform="translate(-198.179 -97.815)" fill="#8cbf3b"/>
          </g>
          <g id="Grupo_109245" data-name="Grupo 109245" transform="translate(51.373 15.37)">
            <path id="Trazado_158576" data-name="Trazado 158576" d="M146.088,42.391l-6.016,9.922a1.1,1.1,0,0,0,.943,1.674h12.033a1.1,1.1,0,0,0,.943-1.674l-6.016-9.922a1.1,1.1,0,0,0-1.886,0Z" transform="translate(-139.91 -41.86)" fill="#a7e446"/>
          </g>
          <g id="Grupo_109246" data-name="Grupo 109246" transform="translate(48.05 27.498)">
            <path id="Trazado_158577" data-name="Trazado 158577" d="M151.586,85.614l-6.5-10.726h-7.558l-6.5,10.726a1.1,1.1,0,0,0,.943,1.674h18.68A1.1,1.1,0,0,0,151.586,85.614Z" transform="translate(-130.859 -74.888)" fill="#8cbf3b"/>
          </g>
          <g id="Grupo_109247" data-name="Grupo 109247" transform="translate(43.581 39.898)">
            <path id="Trazado_158578" data-name="Trazado 158578" d="M147.489,118.923l-6.224-10.264H125.938l-7.088,11.69a1.1,1.1,0,0,0,.943,1.675h25.817Z" transform="translate(-118.688 -108.659)" fill="#70992f"/>
          </g>
          <g id="Grupo_109249" data-name="Grupo 109249" transform="translate(44.442 69.582)">
            <g id="Grupo_109248" data-name="Grupo 109248">
              <path id="Trazado_158579" data-name="Trazado 158579" d="M159.5,189.5a7.73,7.73,0,0,0-6.1,2.984l-.5.641a7.73,7.73,0,0,1-6.1,2.984H136.453a7.729,7.729,0,0,0-6.184,3.092l-.87,1.16a7.728,7.728,0,0,1-5.921,3.084v7.11A2.452,2.452,0,0,1,121.034,213h47.177a1.463,1.463,0,0,0,1.463-1.463V189.5Z" transform="translate(-121.034 -189.5)" fill="#d9ac28"/>
            </g>
          </g>
          <g id="Grupo_109250" data-name="Grupo 109250" transform="translate(79.109 56.556)">
            <path id="Trazado_158580" data-name="Trazado 158580" d="M219.246,167.05h.253V154.024h-4.053V168.05A7.729,7.729,0,0,1,219.246,167.05Z" transform="translate(-215.445 -154.024)" fill="#a57453"/>
          </g>
          <g id="Grupo_109251" data-name="Grupo 109251" transform="translate(55.964 53.262)">
            <path id="Trazado_158581" data-name="Trazado 158581" d="M156.31,167.984h1.163V145.055h-5.06V169.04A7.725,7.725,0,0,1,156.31,167.984Z" transform="translate(-152.413 -145.055)" fill="#a57453"/>
          </g>
          <g id="Grupo_109252" data-name="Grupo 109252" transform="translate(61.024 64.074)">
            <path id="Trazado_158582" data-name="Trazado 158582" d="M166.193,174.5v12.117h9.184a7.73,7.73,0,0,0,6.1-2.984l.5-.641a7.72,7.72,0,0,1,2.3-1.985V174.5Z" transform="translate(-166.193 -174.5)" fill="#a7e446"/>
          </g>
          <g id="Grupo_109253" data-name="Grupo 109253" transform="translate(41.982 64.074)">
            <path id="Trazado_158583" data-name="Trazado 158583" d="M114.335,174.5v16.338h2.46a2.452,2.452,0,0,1,2.445,2.445v.665a7.85,7.85,0,0,0,5.921-3.079l.87-1.16a7.716,7.716,0,0,1,2.287-2.036V174.5Z" transform="translate(-114.335 -174.5)" fill="#a7e446"/>
          </g>
          <g id="Grupo_109254" data-name="Grupo 109254" transform="translate(41.492 63.156)">
            <path id="Trazado_158584" data-name="Trazado 158584" d="M127.045,173.836H113.918a.918.918,0,0,1,0-1.836h13.127a.918.918,0,0,1,0,1.836Z" transform="translate(-113 -172)"/>
          </g>
          <g id="Grupo_109255" data-name="Grupo 109255" transform="translate(0.918 64.074)">
            <path id="Trazado_158585" data-name="Trazado 158585" d="M2.5,174.5v27.545a1.463,1.463,0,0,0,1.463,1.463h6.489a2.452,2.452,0,0,1-2.445-2.445v-7.78a2.452,2.452,0,0,1,2.445-2.445h2.46V174.5Z" transform="translate(-2.5 -174.5)" fill="#a7e446"/>
          </g>
          <g id="Grupo_109256" data-name="Grupo 109256" transform="translate(83.162 64.074)">
            <path id="Trazado_158586" data-name="Trazado 158586" d="M226.484,174.5v5.508h9.92v-4.045a1.463,1.463,0,0,0-1.463-1.463Z" transform="translate(-226.484 -174.5)" fill="#a7e446"/>
          </g>
          <g id="Grupo_109257" data-name="Grupo 109257" transform="translate(11.33 53.03)">
            <path id="Trazado_158587" data-name="Trazado 158587" d="M56.241,184.474H36.125a5.283,5.283,0,0,1-5.268-5.268v-28.1a6.7,6.7,0,0,1,6.685-6.685H54.824a6.7,6.7,0,0,1,6.685,6.685v28.1A5.284,5.284,0,0,1,56.241,184.474Z" transform="translate(-30.857 -144.422)" fill="#feca2e"/>
          </g>
          <g id="Grupo_109258" data-name="Grupo 109258" transform="translate(6.426 80.413)">
            <path id="Trazado_158588" data-name="Trazado 158588" d="M22.4,226.4V219h-2.46a2.452,2.452,0,0,0-2.445,2.445v7.78a2.452,2.452,0,0,0,2.445,2.445h7.728A5.284,5.284,0,0,1,22.4,226.4Z" transform="translate(-17.5 -218.996)" fill="#fc7177"/>
          </g>
          <g id="Grupo_109259" data-name="Grupo 109259" transform="translate(36.714 80.413)">
            <path id="Trazado_158589" data-name="Trazado 158589" d="M107.716,219h-2.46v7.4a5.283,5.283,0,0,1-5.268,5.268h7.728a2.452,2.452,0,0,0,2.445-2.445v-7.78A2.452,2.452,0,0,0,107.716,219Z" transform="translate(-99.988 -218.996)" fill="#fc7177"/>
          </g>
          <g id="Grupo_109260" data-name="Grupo 109260" transform="translate(61.024 53.262)">
            <path id="Trazado_158590" data-name="Trazado 158590" d="M184.277,148.348h-9.035a.883.883,0,0,1-.755-1.341l1.183-1.952h-9.478v10.812h18.085v-7.519Z" transform="translate(-166.192 -145.055)" fill="#a4b7b8"/>
          </g>
          <g id="Grupo_109261" data-name="Grupo 109261" transform="translate(7.194 28.107)">
            <path id="Trazado_158591" data-name="Trazado 158591" d="M44.2,83.191a5.022,5.022,0,0,0-4.848-2.351.959.959,0,0,1-.953-.51,7.152,7.152,0,0,0-13.09,1.091.943.943,0,0,1-.978.626,4.412,4.412,0,0,0-4.739,4.341,4.487,4.487,0,0,0,4.5,4.462H44.508A3.663,3.663,0,0,0,48.2,87.3a3.611,3.611,0,0,0-3.26-3.659A.97.97,0,0,1,44.2,83.191Z" transform="translate(-19.591 -76.546)" fill="#edf8f9"/>
          </g>
          <g id="Grupo_109262" data-name="Grupo 109262" transform="translate(11.33 53.03)">
            <path id="Trazado_158592" data-name="Trazado 158592" d="M54.823,144.422H37.542a6.7,6.7,0,0,0-6.685,6.685v1.533a5.283,5.283,0,0,0,5.268,5.268H56.241a5.283,5.283,0,0,0,5.268-5.268v-1.533A6.705,6.705,0,0,0,54.823,144.422Z" transform="translate(-30.857 -144.422)" fill="#fed866"/>
          </g>
          <g id="Grupo_109263" data-name="Grupo 109263" transform="translate(17.742 75.917)">
            <path id="Trazado_158593" data-name="Trazado 158593" d="M63.887,219.422H50.579a2.266,2.266,0,0,1-2.26-2.26v-8.15a2.266,2.266,0,0,1,2.26-2.26H63.888a2.266,2.266,0,0,1,2.26,2.26v8.15A2.267,2.267,0,0,1,63.887,219.422Z" transform="translate(-48.319 -206.753)" fill="#fc7177"/>
          </g>
          <g id="Grupo_109264" data-name="Grupo 109264" transform="translate(31.765 53.03)">
            <path id="Trazado_158594" data-name="Trazado 158594" d="M91,144.5a6.626,6.626,0,0,0-.964-.078H86.508v13.487H91V144.5Z" transform="translate(-86.508 -144.422)" fill="#fc7177"/>
          </g>
          <g id="Grupo_109265" data-name="Grupo 109265" transform="translate(17.052 53.03)">
            <path id="Trazado_158595" data-name="Trazado 158595" d="M46.439,144.5V157.91h4.5V144.423H47.4a6.576,6.576,0,0,0-.963.078Z" transform="translate(-46.439 -144.423)" fill="#fc7177"/>
          </g>
          <g id="Grupo_109266" data-name="Grupo 109266" transform="translate(17.742 75.917)">
            <path id="Trazado_158596" data-name="Trazado 158596" d="M63.887,206.752H50.579a2.266,2.266,0,0,0-2.26,2.26v2.236H66.147v-2.236A2.267,2.267,0,0,0,63.887,206.752Z" transform="translate(-48.319 -206.752)" fill="#fc4b52"/>
          </g>
          <g id="Grupo_109267" data-name="Grupo 109267" transform="translate(33.228 12.331)">
            <path id="Trazado_158597" data-name="Trazado 158597" d="M108.8,47.074l1.578-2.6-6.107-8.926a4.512,4.512,0,0,0-7.589.219L90.493,46.036h4.658a2.537,2.537,0,0,1,1.981.952l1.414,1.768a2.537,2.537,0,0,0,1.981.952h2.748a2.537,2.537,0,0,1,1.933.894l3.3,3.878,3.475-5.731h-2.237A1.1,1.1,0,0,1,108.8,47.074Z" transform="translate(-90.493 -33.581)" fill="#dff7f9"/>
          </g>
          <g id="Grupo_109268" data-name="Grupo 109268" transform="translate(48.923)">
            <path id="Trazado_158598" data-name="Trazado 158598" d="M137.929,2.267a2.862,2.862,0,0,1-2.277-2.24c0-.037-.11-.037-.11,0a2.862,2.862,0,0,1-2.277,2.24c-.037,0-.037.073,0,.11a2.862,2.862,0,0,1,2.277,2.24c0,.037.11.037.11,0a2.862,2.862,0,0,1,2.277-2.24c.037-.037.037-.11,0-.11Z" transform="translate(-133.238 0)" fill="#fc4b52"/>
          </g>
          <g id="Grupo_109269" data-name="Grupo 109269" transform="translate(75.937 10.502)">
            <path id="Trazado_158599" data-name="Trazado 158599" d="M207.985,32.97h.845v.845A1.16,1.16,0,0,0,210,34.989a1.176,1.176,0,0,0,1.175-1.138V32.97h.845a1.16,1.16,0,0,0,1.175-1.175,1.176,1.176,0,0,0-1.138-1.175h-.881v-.845A1.16,1.16,0,0,0,210,28.6a1.176,1.176,0,0,0-1.175,1.138v.881h-.845a1.16,1.16,0,0,0-1.175,1.175,1.137,1.137,0,0,0,1.175,1.175Z" transform="translate(-206.808 -28.6)" fill="#cae3e6"/>
          </g>
          <g id="Grupo_109270" data-name="Grupo 109270" transform="translate(16.528 12.301)">
            <circle id="Elipse_5093" data-name="Elipse 5093" cx="1.248" cy="1.248" r="1.248" fill="#a7e446"/>
          </g>
          <g id="Grupo_109271" data-name="Grupo 109271" transform="translate(87.028 21.664)">
            <circle id="Elipse_5094" data-name="Elipse 5094" cx="1.248" cy="1.248" r="1.248" fill="#feca2e"/>
          </g>
          <g id="Grupo_109272" data-name="Grupo 109272" transform="translate(3.915 20.691)">
            <path id="Trazado_158600" data-name="Trazado 158600" d="M10.718,59.6a4.075,4.075,0,0,0,3.268-3.195c0-.073.147-.073.147,0A4.075,4.075,0,0,0,17.4,59.6c.073,0,.073.11,0,.147a4.075,4.075,0,0,0-3.268,3.195c0,.073-.147.073-.147,0a4.075,4.075,0,0,0-3.268-3.195C10.645,59.71,10.645,59.6,10.718,59.6Z" transform="translate(-10.663 -56.35)" fill="#feca2e"/>
          </g>
          <g id="Grupo_109273" data-name="Grupo 109273" transform="translate(74.515 25.284)">
            <path id="Trazado_158601" data-name="Trazado 158601" d="M214.375,80.409h-9.639a1.8,1.8,0,0,1-1.54-2.736l4.819-7.948a1.8,1.8,0,0,1,3.08,0l4.819,7.948a1.8,1.8,0,0,1-1.54,2.735ZM204.8,78.573h9.516l-4.758-7.846Zm4-8.371h0Z" transform="translate(-202.935 -68.858)"/>
          </g>
          <g id="Grupo_109274" data-name="Grupo 109274" transform="translate(68.273 45.288)">
            <path id="Trazado_158602" data-name="Trazado 158602" d="M209.859,135.523H187.735a1.8,1.8,0,0,1-1.54-2.736l5.463-9.009a.918.918,0,0,1,1.57.952l-5.431,8.956h22l-5.417-8.933a.918.918,0,0,1,1.57-.952l5.449,8.985a1.8,1.8,0,0,1-1.541,2.736Z" transform="translate(-185.934 -123.337)"/>
          </g>
          <g id="Grupo_109275" data-name="Grupo 109275" transform="translate(71.853 35.27)">
            <path id="Trazado_158603" data-name="Trazado 158603" d="M212.448,107.552H197.484a1.8,1.8,0,0,1-1.54-2.735L200.99,96.5a.918.918,0,0,1,1.57.952l-5.014,8.268h14.841l-5-8.251a.918.918,0,0,1,1.57-.952l5.036,8.3a1.8,1.8,0,0,1-1.541,2.735Z" transform="translate(-195.684 -96.054)"/>
          </g>
          <g id="Grupo_109276" data-name="Grupo 109276" transform="translate(50.453 14.453)">
            <path id="Trazado_158604" data-name="Trazado 158604" d="M151.462,53.325H139.429a2.021,2.021,0,0,1-1.728-3.068l6.016-9.922a2.007,2.007,0,0,1,1.728-.973h0a2.006,2.006,0,0,1,1.728.973l6.016,9.922a2.02,2.02,0,0,1-1.728,3.068Zm-6.175-12.038-6.016,9.922a.185.185,0,0,0,.158.281h12.033a.185.185,0,0,0,.158-.281L145.6,41.286a.184.184,0,0,0-.316,0Z" transform="translate(-137.405 -39.362)"/>
          </g>
          <g id="Grupo_109277" data-name="Grupo 109277" transform="translate(47.129 26.895)">
            <path id="Trazado_158605" data-name="Trazado 158605" d="M149.057,87.167h-18.68a2.021,2.021,0,0,1-1.728-3.069l6.313-10.411a.918.918,0,0,1,1.57.952L130.219,85.05a.185.185,0,0,0,.158.281h18.68a.185.185,0,0,0,.158-.281l-6.28-10.357a.918.918,0,0,1,1.57-.952l6.28,10.357a2.021,2.021,0,0,1-1.728,3.069Z" transform="translate(-128.352 -73.245)"/>
          </g>
          <g id="Grupo_109278" data-name="Grupo 109278" transform="translate(65.417 39.274)">
            <path id="Trazado_158606" data-name="Trazado 158606" d="M185,118.57a.918.918,0,0,1-.786-.442l-5.928-9.776a.918.918,0,0,1,1.57-.952l5.928,9.776A.918.918,0,0,1,185,118.57Z" transform="translate(-178.157 -106.958)"/>
          </g>
          <g id="Grupo_109279" data-name="Grupo 109279" transform="translate(42.661 39.28)">
            <path id="Trazado_158607" data-name="Trazado 158607" d="M143.776,121.876h-25.57a2.021,2.021,0,0,1-1.728-3.068l6.907-11.39a.918.918,0,0,1,1.57.952l-6.907,11.39a.185.185,0,0,0,.158.281h25.57a.918.918,0,1,1,0,1.836Z" transform="translate(-116.182 -106.976)"/>
          </g>
          <g id="Grupo_109281" data-name="Grupo 109281" transform="translate(43.524 68.664)">
            <g id="Grupo_109280" data-name="Grupo 109280">
              <path id="Trazado_158608" data-name="Trazado 158608" d="M166.628,212.335H119.451a.918.918,0,0,1,0-1.836h47.177a.546.546,0,0,0,.545-.545V188.835h-9.255a6.767,6.767,0,0,0-5.377,2.63l-.5.641a8.593,8.593,0,0,1-6.826,3.338H134.87a6.844,6.844,0,0,0-5.449,2.725l-.87,1.16a8.636,8.636,0,0,1-6.352,3.437.918.918,0,1,1-.12-1.832,6.8,6.8,0,0,0,5-2.707l.87-1.16a8.689,8.689,0,0,1,6.918-3.459h10.347a6.767,6.767,0,0,0,5.377-2.63l.5-.641A8.592,8.592,0,0,1,157.918,187h10.173a.918.918,0,0,1,.918.918v22.037A2.384,2.384,0,0,1,166.628,212.335Z" transform="translate(-118.533 -186.999)"/>
            </g>
          </g>
          <g id="Grupo_109282" data-name="Grupo 109282" transform="translate(78.191 56.157)">
            <path id="Trazado_158609" data-name="Trazado 158609" d="M213.863,167.981a.918.918,0,0,1-.918-.918V153.856a.918.918,0,0,1,1.836,0v13.207A.918.918,0,0,1,213.863,167.981Z" transform="translate(-212.945 -152.938)"/>
          </g>
          <g id="Grupo_109283" data-name="Grupo 109283" transform="translate(82.244 56.157)">
            <path id="Trazado_158610" data-name="Trazado 158610" d="M224.9,166.937a.918.918,0,0,1-.918-.918V153.856a.918.918,0,0,1,1.836,0v12.163A.918.918,0,0,1,224.9,166.937Z" transform="translate(-223.983 -152.938)"/>
          </g>
          <g id="Grupo_109284" data-name="Grupo 109284" transform="translate(60.106 52.845)">
            <path id="Trazado_158611" data-name="Trazado 158611" d="M164.611,167.907a.918.918,0,0,1-.918-.918V144.836a.918.918,0,0,1,1.836,0v22.153A.918.918,0,0,1,164.611,167.907Z" transform="translate(-163.693 -143.918)"/>
          </g>
          <g id="Grupo_109285" data-name="Grupo 109285" transform="translate(55.046 52.783)">
            <path id="Trazado_158612" data-name="Trazado 158612" d="M150.831,168.918a.918.918,0,0,1-.918-.918V144.668a.918.918,0,0,1,1.836,0V168a.918.918,0,0,1-.918.918Z" transform="translate(-149.913 -143.75)"/>
          </g>
          <g id="Grupo_109286" data-name="Grupo 109286" transform="translate(0 63.156)">
            <path id="Trazado_158613" data-name="Trazado 158613" d="M8.87,202.844H2.381A2.384,2.384,0,0,1,0,200.463V172.918A.918.918,0,0,1,.918,172H11a.918.918,0,0,1,0,1.836H1.836v26.627a.546.546,0,0,0,.545.545H8.87a.918.918,0,0,1,0,1.836Z" transform="translate(0 -172)"/>
          </g>
          <g id="Grupo_109287" data-name="Grupo 109287" transform="translate(82.739 63.156)">
            <path id="Trazado_158614" data-name="Trazado 158614" d="M235.676,179.344a.918.918,0,0,1-.918-.918v-4.045a.546.546,0,0,0-.545-.545h-7.962a.918.918,0,0,1,0-1.836h7.962a2.384,2.384,0,0,1,2.381,2.381v4.045A.918.918,0,0,1,235.676,179.344Z" transform="translate(-225.333 -172)"/>
          </g>
          <g id="Grupo_109288" data-name="Grupo 109288" transform="translate(10.412 52.112)">
            <path id="Trazado_158615" data-name="Trazado 158615" d="M54.658,183.81H34.542a6.193,6.193,0,0,1-6.186-6.186v-28.1a7.612,7.612,0,0,1,7.6-7.6H53.241a7.612,7.612,0,0,1,7.6,7.6v28.1A6.193,6.193,0,0,1,54.658,183.81Zm-18.7-40.052a5.774,5.774,0,0,0-5.767,5.767v28.1a4.355,4.355,0,0,0,4.35,4.35H54.658a4.355,4.355,0,0,0,4.35-4.35v-28.1a5.774,5.774,0,0,0-5.767-5.767Z" transform="translate(-28.356 -141.922)"/>
          </g>
          <g id="Grupo_109289" data-name="Grupo 109289" transform="translate(21.445 70.503)">
            <path id="Trazado_158616" data-name="Trazado 158616" d="M67.908,193.845H59.321a.918.918,0,0,1,0-1.836h8.587a.918.918,0,0,1,0,1.836Z" transform="translate(-58.403 -192.009)"/>
          </g>
          <g id="Grupo_109290" data-name="Grupo 109290" transform="translate(5.508 79.494)">
            <path id="Trazado_158617" data-name="Trazado 158617" d="M26.091,231H18.362A3.366,3.366,0,0,1,15,227.638v-7.78a3.366,3.366,0,0,1,3.362-3.363h2.191a.918.918,0,1,1,0,1.836H18.362a1.528,1.528,0,0,0-1.526,1.527v7.78a1.529,1.529,0,0,0,1.526,1.527h7.728a.918.918,0,1,1,0,1.836Z" transform="translate(-15 -216.495)"/>
          </g>
          <g id="Grupo_109291" data-name="Grupo 109291" transform="translate(35.796 79.494)">
            <path id="Trazado_158618" data-name="Trazado 158618" d="M106.133,231H98.4a.918.918,0,0,1,0-1.836h7.728a1.528,1.528,0,0,0,1.526-1.527v-7.78a1.529,1.529,0,0,0-1.526-1.527h-2.062a.918.918,0,1,1,0-1.836h2.062a3.366,3.366,0,0,1,3.362,3.363v7.78A3.366,3.366,0,0,1,106.133,231Z" transform="translate(-97.487 -216.495)"/>
          </g>
          <g id="Grupo_109292" data-name="Grupo 109292" transform="translate(20.576 47.207)">
            <path id="Trazado_158619" data-name="Trazado 158619" d="M67.28,135.305H56.955a.918.918,0,0,1-.917-.966,6.087,6.087,0,0,1,12.158,0,.918.918,0,0,1-.917.966Zm-9.245-1.836H66.2a4.25,4.25,0,0,0-8.166,0Z" transform="translate(-56.038 -128.565)"/>
          </g>
          <g id="Grupo_109293" data-name="Grupo 109293" transform="translate(60.586 63.156)">
            <path id="Trazado_158620" data-name="Trazado 158620" d="M183.054,173.836H165.918a.918.918,0,0,1,0-1.836h17.136a.918.918,0,1,1,0,1.836Z" transform="translate(-165 -172)"/>
          </g>
          <g id="Grupo_109294" data-name="Grupo 109294" transform="translate(0 41.529)">
            <path id="Trazado_158621" data-name="Trazado 158621" d="M.918,136.563A.918.918,0,0,1,0,135.645v-8.923a6.451,6.451,0,0,1,1.818-4.5l6.312-6.538a10.277,10.277,0,0,1,3.933-2.53.918.918,0,0,1,.614,1.73,8.432,8.432,0,0,0-3.226,2.075L3.139,123.5a4.623,4.623,0,0,0-1.3,3.226v8.923a.918.918,0,0,1-.918.918Z" transform="translate(0 -113.099)"/>
          </g>
          <g id="Grupo_109295" data-name="Grupo 109295" transform="translate(27.763 11.413)">
            <path id="Trazado_158622" data-name="Trazado 158622" d="M76.526,52.919a.918.918,0,0,1-.786-1.392L86.476,33.71a5.431,5.431,0,0,1,9.133-.264l5.965,8.718a.918.918,0,1,1-1.515,1.037l-5.965-8.718a3.595,3.595,0,0,0-6.046.174L77.313,52.475a.918.918,0,0,1-.787.444Z" transform="translate(-75.609 -31.082)"/>
          </g>
          <g id="Grupo_109296" data-name="Grupo 109296" transform="translate(6.276 27.188)">
            <path id="Trazado_158623" data-name="Trazado 158623" d="M42.926,90.185H22.507a5.491,5.491,0,0,1-3.878-1.628,5.269,5.269,0,0,1,.192-7.624,5.34,5.34,0,0,1,4-1.384.063.063,0,0,0,.04-.008,8.069,8.069,0,0,1,14.766-1.226.06.06,0,0,0,.037.031,5.958,5.958,0,0,1,5.735,2.78.06.06,0,0,0,.044.02,4.531,4.531,0,0,1-.517,9.039ZM22.414,81.369a3.5,3.5,0,0,0-2.354.918,3.45,3.45,0,0,0-1.133,2.528,3.411,3.411,0,0,0,1.008,2.45,3.641,3.641,0,0,0,2.572,1.082H42.926A2.747,2.747,0,0,0,45.7,85.7a2.7,2.7,0,0,0-2.43-2.729,1.874,1.874,0,0,1-1.431-.883h0a4.115,4.115,0,0,0-3.961-1.921,1.867,1.867,0,0,1-1.868-.989,6.235,6.235,0,0,0-11.41.95,1.858,1.858,0,0,1-1.92,1.249c-.088-.007-.176-.01-.263-.01Z" transform="translate(-17.091 -74.045)"/>
          </g>
          <g id="Grupo_109297" data-name="Grupo 109297" transform="translate(10.412 60.33)">
            <path id="Trazado_158624" data-name="Trazado 158624" d="M54.658,171.408H34.542a6.193,6.193,0,0,1-6.186-6.186.918.918,0,0,1,1.836,0,4.355,4.355,0,0,0,4.35,4.35H54.658a4.355,4.355,0,0,0,4.35-4.35.918.918,0,0,1,1.836,0A6.193,6.193,0,0,1,54.658,171.408Z" transform="translate(-28.356 -164.304)"/>
          </g>
          <g id="Grupo_109298" data-name="Grupo 109298" transform="translate(16.824 74.999)">
            <path id="Trazado_158625" data-name="Trazado 158625" d="M62.306,218.757H49a3.181,3.181,0,0,1-3.178-3.178v-8.15A3.181,3.181,0,0,1,49,204.252H62.306a3.181,3.181,0,0,1,3.177,3.178v8.15A3.181,3.181,0,0,1,62.306,218.757ZM49,206.088a1.343,1.343,0,0,0-1.342,1.342v8.15A1.343,1.343,0,0,0,49,216.921H62.306a1.343,1.343,0,0,0,1.341-1.342v-8.15a1.343,1.343,0,0,0-1.341-1.342Z" transform="translate(-45.819 -204.252)"/>
          </g>
          <g id="Grupo_109299" data-name="Grupo 109299" transform="translate(35.343 52.63)">
            <path id="Trazado_158626" data-name="Trazado 158626" d="M97.17,157.745a.918.918,0,0,1-.918-.918V144.251a.918.918,0,0,1,1.836,0v12.576A.918.918,0,0,1,97.17,157.745Z" transform="translate(-96.252 -143.333)"/>
          </g>
          <g id="Grupo_109300" data-name="Grupo 109300" transform="translate(30.847 52.63)">
            <path id="Trazado_158627" data-name="Trazado 158627" d="M84.927,157.745a.918.918,0,0,1-.918-.918V144.251a.918.918,0,0,1,1.836,0v12.576A.918.918,0,0,1,84.927,157.745Z" transform="translate(-84.009 -143.333)"/>
          </g>
          <g id="Grupo_109301" data-name="Grupo 109301" transform="translate(20.63 52.661)">
            <path id="Trazado_158628" data-name="Trazado 158628" d="M57.1,157.8a.918.918,0,0,1-.918-.918V144.335a.918.918,0,0,1,1.836,0V156.88A.918.918,0,0,1,57.1,157.8Z" transform="translate(-56.183 -143.417)"/>
          </g>
          <g id="Grupo_109302" data-name="Grupo 109302" transform="translate(16.134 52.63)">
            <path id="Trazado_158629" data-name="Trazado 158629" d="M44.857,157.745a.918.918,0,0,1-.918-.918V144.251a.918.918,0,0,1,1.836,0v12.576A.918.918,0,0,1,44.857,157.745Z" transform="translate(-43.939 -143.333)"/>
          </g>
          <g id="Grupo_109303" data-name="Grupo 109303" transform="translate(17.273 79.495)">
            <path id="Trazado_158630" data-name="Trazado 158630" d="M64.9,218.332H47.96a.918.918,0,0,1,0-1.836H64.9a.918.918,0,1,1,0,1.836Z" transform="translate(-47.042 -216.496)"/>
          </g>
          <g id="Grupo_109304" data-name="Grupo 109304" transform="translate(32.45 23.867)">
            <path id="Trazado_158631" data-name="Trazado 158631" d="M107.034,75.125a.916.916,0,0,1-.7-.323l-3.165-3.724a1.616,1.616,0,0,0-1.233-.57H99.187a3.438,3.438,0,0,1-2.7-1.3l-1.414-1.768a1.61,1.61,0,0,0-1.264-.608H89.293a.918.918,0,0,1,0-1.836h4.518a3.438,3.438,0,0,1,2.7,1.3l1.414,1.768a1.611,1.611,0,0,0,1.264.607h2.748a3.448,3.448,0,0,1,2.632,1.217l3.166,3.724a.918.918,0,0,1-.7,1.513Z" transform="translate(-88.375 -65)"/>
          </g>
        </g>
      </g>
    </g>
  </g>
</svg>
