<svg xmlns="http://www.w3.org/2000/svg" width="400" height="316.45" viewBox="0 0 400 316.45">
  <g id="Grupo_117452" data-name="Grupo 117452" transform="translate(-915 -3988.64)">
    <path id="Trazado_160731" data-name="Trazado 160731" d="M105.494,472.567c-28.1-30.6-66.5-62.187-51.444-109.909,9.9-31.388,34.191-40.137,54.378-59.492,9.963-9.552,3.7-23.456,3.512-37.255-.422-35.339,39.016-62.76,75.273-62.188,39.273.62,56.273,40.1,89.217,42.221,12.936.2,24.52-7.394,35.965-13.424,33.914-17.869,87.727-6.474,90.447,36.74.7,23.338-25.86,60.884.753,73.159,21.21,9.783,42.637,13.386,46.459,48.375,5,45.8-21.446,70.931-55.911,82.717Z" transform="translate(864.337 3790.286)" fill="#f3f9ff"/>
    <g id="Grupo_116181" data-name="Grupo 116181" transform="translate(64.817 21.086)">
      <rect id="Rect치ngulo_40637" data-name="Rect치ngulo 40637" width="256.113" height="146.766" transform="translate(933.983 4146.089) rotate(-20)" fill="#12263f"/>
      <g id="Grupo_116140" data-name="Grupo 116140" transform="translate(891.519 4017.574) rotate(-20)">
        <rect id="Rect치ngulo_40636" data-name="Rect치ngulo 40636" width="232.715" height="138.099" transform="translate(9.689 124.336)" fill="#fc4b52"/>
        <path id="Trazado_160602" data-name="Trazado 160602" d="M9.525,156.145c-9.4-.794-9.4-.794-9.4-10.607,0-32.829.108-65.66-.119-98.487-.041-5.9.532-10.742,6.472-13.588,2.623-1.258,3.99-3.559.2-4.894C-.381,26.088-.056,20.665.048,14.786.3.526.156.492,14.158.52,27.726.546,41.3.645,54.862.713Q52.713,4.02,50.568,7.324c-3.527-.382-5.977,1.311-7.87,4.081-8.513-2.746-15.786,1.717-23.52,3.522,7.782-.934,15.384-2.992,23.3-2.906-.1,3.7,1.539,6.462,4.99,7.6,4.44,1.471,5.952-2.481,8.156-5.015,9.115,1.038,18.134,4.613,27.417,1.408C76.4,14.6,69.605,15.731,62.932,13.924c-3.807-1.032-6.043-2.746-6.8-6.5.02-3.214,2.4-5.127,4.092-7.419a8.493,8.493,0,0,0,1.9.441q66.31-.1,132.62-.237l5.5,8.179a8.112,8.112,0,0,0-2.037,8.82c-8.807.82-17.6,1.688-25.71,5.821,9.064-2.094,18.308-2.917,27.447-4.414a7.162,7.162,0,0,0,8.208-.06c4.96,3.116,10.417.613,15.555,1.811-4.167-2.992-9.074-2.191-13.577-3.3,1.112-5.233-.914-8.5-6.121-9.783q-1.928-3.211-3.858-6.422,25.463-.861,50.922.009c.055,20.568.024,41.139.223,61.709.056,5.8-.286,11.391-3.511,16.4-3.126,4.854-2.687,9.382,1,13.7,2.3,2.7,2.509,5.912,2.5,9.267-.059,15.1-.031,30.206-.04,45.309,0,8.544-.009,8.55-8.622,8.55q-112.625,0-225.25.006C14.759,155.806,12.142,156.027,9.525,156.145ZM177.62,67.371c-1.657-3.636,6.174-2.7,3.282-6-1.945-2.22-5.835-.625-8.846-.84a29.225,29.225,0,0,0-4.576.065,1.882,1.882,0,0,0-1.915,1.442,1.519,1.519,0,0,0,1.249,1.947c5.732.227,3.753,4.537,4.323,7.653.532,2.917-1.95,8.177,2.172,8.282,5.275.134,1.808-5.5,2.944-8.37a9.092,9.092,0,0,0,.306-1.269c3.049-.7,6.56.862,10.341-2.087ZM41.92,76.709c.643,1.744.666,4.2,3.546,3.622,2.371-.476,1.693-2.563,2.039-4.189.937-4.4-3.116-10.516,4.845-12.686,1.789-.487.127-3-1.994-3.085-3.468-.132-6.944-.08-10.417-.039-1.3.015-2.779.1-3.014,1.771s.949,2.292,2.4,2.331c3.283.086,3.258,2.137,2.766,4.5L25.252,71.032c5.676,2.423,11.138-.631,16.677.41l.158,2.753c-12,2.286-24.2,2.838-37.721,3.213,3.309,2.493,5.572,1.923,7.611,1.777C21.966,78.473,31.941,77.555,41.92,76.709Zm40.127-40.7a34.966,34.966,0,0,1,3.524,1.7c1.667,1.036,5.46,1.051,4.094,3.83-1.412,2.875-3.51.313-5.187-1a2.5,2.5,0,0,0-3.571.173c-.976,1.246-.023,2.509.944,3.41,2.85,2.653,6.2,3,9.787,1.86,2.039-.65,3.457-1.949,3.607-4.195.271-4.056-2.444-5.728-5.672-7.046-1.5-.611-4.141-.978-3.175-3.208,1.007-2.325,2.838-.64,4.323.244,1.374.818,3.2,1.345,4-.4.721-1.578-.747-2.8-2.061-3.666-4.787-3.147-10.389-.557-12.367,5.694l-11.464-3.59A23.98,23.98,0,0,0,82.047,36.01Zm52.49,10.582-.046-.172c4.068,2.465,8.782,2.309,13.227,3.165,22.127,4.263,44.282,8.337,66.97,4.745q9.979-1.58,19.951-3.188-.135-.836-.269-1.673c-4.25.62-8.5,1.258-12.75,1.859-17.589,2.486-35.168,4.063-52.657-.723-.049-2.548,3.014-6.437-.594-7.3-3.624-.861-1.32,4.155-3.018,5.911a4.109,4.109,0,0,0-.557,1.17c-5.023-.72-10.473.16-14.607-3.9.034-3.336-4.8-5.589-2.175-9.463,1.9-2.8,2.721-5.5-.089-8.177-3.284-3.13-7.445-2.446-11.182-1.855-3.8.6-1.963,4.246-2.166,6.561-.342,3.9-.232,7.832-.311,11.752-.059.157-.2.341-.159.465A5.227,5.227,0,0,0,134.537,46.592Zm-2.776,0c-.778-4.384-3.793-8.583-.219-13.274,1.015-1.333-.068-3.838-2.008-5a13.923,13.923,0,0,0-11.374-.965c-3.039.919-1.309,4.536-1.752,6.931a36.417,36.417,0,0,0-.07,3.9c-.428,5.863.294,10.3,7.969,6.977.531-.229,1.478.5,2.232.785A3.757,3.757,0,0,0,131.761,46.592ZM106.8,59.933l2.124-1.179c-8.44-1.989-16.893-3.744-25.543-1.656,4.567,2.42,10.023-.784,14.331,2.821-.105,3.937-.312,7.874-.3,11.809.039,9.111,1.238,10.113,10.12,8.838,1.476-.212,3.388-.041,3.128-2.291-.205-1.784-1.906-1.342-3.142-1.5-1.8-.225-4.516.874-4.821-1.942-.359-3.327,2.6-2.749,4.661-3.028,1.16-.157,2.287-.614,2.052-1.937-.108-.6-1.119-1.16-1.83-1.519-1.536-.775-4.814.693-4.408-2.355.341-2.552,3.352-.933,5.027-1.58,3.649-1.407,4.942.189,5.708,3.581.719,3.182,2.126,6.2,3.13,9.326.592,1.841,1.528,3.054,3.63,3.175,2.539.148,3.361-1.438,4-3.475,1.254-3.964,2.693-7.871,3.912-11.845.465-1.514,1.747-3.564-.882-4.34-2.454-.724-3.5.889-4.1,3.059-.775,2.836-1.717,5.627-2.588,8.436C119.962,63.568,115.449,59.441,106.8,59.933ZM45.084,92.408a3.94,3.94,0,0,0-3.443-1.036s.248.119.244.114c-3.177-2.8-6.835-3.269-12.161-2.1l11.83,2.565c1.481,1.481-.048,2.286-.809,3.1-4.09,4.378-4.734,9.607-3.789,15.189,1.174,6.946,5.252,10.368,11.969,10.221,6.418-.142,10.878-4.219,11.783-10.776C62.261,98.425,56.523,92.078,45.084,92.408Zm94.823,24.837a59.676,59.676,0,0,1-19.8,1.6c-.02-3.05-2.818-7.425,3.123-7.824,4.894-.327,9.17-1.318,10.875-6.512,1.719-5.237-1.518-8.582-4.984-11.728l7.7-.783c-4.642-1.789-9.178-3.24-13.63-.367-1.191.425-1.319-.041-.853-1.016-9.54-3.594-19.349-1.942-29.041-1.181-2.469.194-.342,1.673.361,2.464a7.014,7.014,0,0,0-1.219.442c-1.678.977-4.85-3.222-5.417,1.568-.39,3.279,1.347,4.115,4.271,4.063,3.3-.056,3.726,2.325,3.711,4.94-.025,4.357.031,8.714-.031,13.07-.035,2.464.44,4.256,3.485,4.275,3.093.018,3.487-1.886,3.485-4.284-.006-4.574-.143-9.158.083-13.722.286-5.8,5.525-2.559,8.243-3.9,2.8-1.378,2.124,2.309,2.156,3.864.117,5.875-.048,11.756-.1,17.635l-6.283.769c12.177.881,24.268.748,36.239-1.583,10.375,4.826,21.606-.834,18.687-16.509-1.194-6.417-5.29-10.171-11.566-10.27-6.452-.1-11.014,3.886-12.085,10.477A23.017,23.017,0,0,0,139.907,117.244Zm40.874-11.453-1.335.288c-2.165-3.671-4.425-7.291-6.461-11.033-1.448-2.664-3.729-2.748-6.179-2.4-2.9.412-2.223,2.806-2.247,4.633-.085,6.327-.05,12.655-.079,18.983-.011,2.572.857,4.106,3.807,4.015,2.795-.088,3-1.806,3.15-3.936.189-2.609-1.047-5.47,1.063-8.173,3.38,2.756,5.094,6.244,6.974,9.581,1.294,2.3,3.258,2.639,5.568,2.389,2.888-.312,2.547-2.558,2.565-4.444.065-6.327.016-12.654.045-18.981.01-2.47-.546-4.246-3.595-4.19-3.218.06-3.276,2.192-3.277,4.478Q180.779,101.4,180.781,105.792ZM220.316,92.6c-5.228-1.146-7.6.853-7.047,6.886.5,5.426.1,10.933.133,16.4.011,1.979-.114,4.243,2.741,4.275,5.6.065,11.551,1.164,15.8-4.015,4.017-4.9,4.377-10.511,2.092-16.091C231.679,94.312,226.8,92.176,220.316,92.6ZM75.531,92.15c-5.63.174-10.343,1.339-11.347,6.809-.9,4.889,2.882,7.313,6.9,9.123,1.787.8,5.277.835,4.172,3.705-1.05,2.727-3.451,2.465-5.706.132a3.787,3.787,0,0,0-5.377-.018c-1.446,1.714-.16,3.767,1.3,5.186,4.053,3.944,9.006,4.221,14.075,2.831a6.8,6.8,0,0,0,5.395-7.271c-.143-5.441-4.248-7.189-8.326-8.947-.595-.256-1.279-.3-1.9-.512-1.957-.68-4.15-1.765-3-4.083,1.231-2.49,3.827-2.037,5.505-.342a5.885,5.885,0,0,0,6.546,1.467c1.04-.322.922-1.334.758-2.207a6.308,6.308,0,0,0-5.2-5.184C77.851,92.476,76.33,92.291,75.531,92.15ZM12.087,106.968h.045c0,3.279.02,6.56-.006,9.839-.02,2.479,1.174,3.511,3.639,3.476,2.233-.033,3.445-1.139,3.113-3.2-.924-5.759,2.4-6.153,6.879-6.457,4.854-.329,8.3-3.349,8.278-8.505-.024-5.215-3.053-8.5-8.313-9.4-11.98-2.047-13.439-.858-13.632,10.968C12.072,104.781,12.087,105.875,12.087,106.968Zm188.738,13.288a10.9,10.9,0,0,0,2.607-.033c2.531-.644,7.125,2.187,7.061-2.858-.056-4.439-4.342-2.107-6.768-2.524-2.285-.393-5.025.411-4.936-3.417.1-4.121,3.1-2.613,5.212-2.837,2.017-.213,4.791.734,4.8-2.726.009-2.449-2.038-2.228-3.768-2.563-2.211-.427-6.135,1.583-6.02-2.692.126-4.665,4.28-2.055,6.625-2.746a3.222,3.222,0,0,1,.651,0c1.871-.132,4.21.443,4.379-2.525.174-3.046-2.137-2.828-4.06-2.793-18.318.338-14.348-2.648-14.822,13.866-.044,1.523,0,3.048-.014,4.572C191.717,120.139,191.716,120.139,200.825,120.256ZM168.509,86.989q0-.926,0-1.851c-1.933-.1-3.863-.23-5.8-.288-13.093-.383-26.176-.157-39.292-1.021-13.889-.916-28.066-2.076-41.814,1.067a74.364,74.364,0,0,1-36.142-.728c-12.056-3.1-24.56,1.457-36.934-.125,2.483,2.609,5.425,1.866,8.138,1.83,13.671-.182,27.278-1.711,40.838,2.521,8.741,2.728,17.619-.9,26.395-2.42,19.606-3.395,39.2.168,58.789.676C151.328,86.875,159.906,86.94,168.509,86.989ZM71.766,70.6l.119-.005c0-2.172.044-4.347-.014-6.517-.049-1.8-.185-3.658-2.706-3.581-2.048.063-2.375,1.538-2.431,3.179-.076,2.261-.138,4.487-3.354,4.425-3.341-.065-2.966-2.511-3.066-4.641-.083-1.75-.71-2.981-2.662-2.984-1.982,0-2.587,1.26-2.582,3.007.015,4.571.006,9.143.054,13.712.016,1.6.281,3.126,2.371,3.23,1.936.1,2.676-1.065,2.888-2.791.268-2.182-.823-5.211,3.019-5.293,3.882-.084,3.036,2.739,3.04,5.074.005,2.148,1.19,3.22,3.321,3.019,1.978-.188,2.361-1.648,2.3-3.313C71.984,74.948,71.867,72.775,71.766,70.6Zm2.858-.043c-.358,10.635-.357,10.65,9.367,9.957,1.626-.117,4.095.546,4.264-1.8.184-2.543-2.362-1.855-3.943-2.117-1.631-.271-3.936.229-4.011-2.236-.078-2.562,2.241-2.087,3.876-2.294,1.289-.163,2.754-.132,2.782-1.962.021-1.394-1.106-1.606-2.187-1.9-1.511-.415-4.249.585-4.154-1.846.111-2.862,3.019-1.486,4.712-1.893,1.249-.3,2.721-.165,3.014-1.858.164-.951-.39-1.522-1.278-1.969-6.227-3.128-12.586.592-12.445,7.315C74.64,68.823,74.624,69.691,74.624,70.559Zm22.751-34.4c-.088,6.621,2.908,10.429,8.146,10.349,5.485-.083,8.913-3.893,8.942-9.937.026-5.753-3.26-9.723-8.226-9.936C100.657,26.4,97.459,29.832,97.375,36.16ZM207.254,80.622c2.4-.188,5.379-.99,6.011-4.727.624-3.679-1.717-5.559-4.784-6.83-1.858-.769-5.232-.883-4.092-3.762,1.177-2.975,3.1-.224,4.667.541,1.216.595,2.778.956,3.623-.183,1.186-1.6-.207-2.881-1.39-3.763-2.873-2.139-6.065-2.2-9.308-.908-2.225.886-3.7,2.624-3.585,4.972.155,3.277,2.717,4.643,5.42,5.862,1.779.8,5.23,1.09,3.787,4-1.04,2.1-3.289.73-4.868-.787-1.363-1.31-3.387-1.8-4.437.055-.854,1.512.847,2.714,2.01,3.69C202.072,80.263,204.177,80.7,207.254,80.622ZM153.1,70.411c1.521,2.573,2.7,4.64,3.948,6.659,1.022,1.65,1.885,3.651,4.4,3.2,2.843-.511,2.151-2.882,2.257-4.712a23.128,23.128,0,0,0-.059-6.535c-.654-2.757,2.4-7.881-2.534-7.834-4.092.039-1.469,4.994-2.294,7.637-.1.333-.442.592-.763,1-.465-.423-.937-.817-1.367-1.254-2.539-2.588-2.429-9.115-7.5-7.454-4.078,1.337-1.719,6.6-1.737,10.021-.016,3.023-2.421,8.569,2.174,8.684S150.808,73.973,153.1,70.411Zm-21.619-.288c-.008,11.008-.006,11.028,9.182,10.36,1.6-.115,4.078.571,4.076-1.944,0-2.607-2.524-1.648-4.077-1.833-1.686-.2-3.75.214-3.8-2.38-.039-2.094,1.574-2.326,3.172-2.367,3.952-.1,4.79-1.434,1.987-4.561-3.239-3.611,5.058-2.724,2.438-6.051-.432-.55-1.557-.63-2.389-.779C132.953,58.927,131.486,60.259,131.48,70.123Zm35.3-42.824c-4.672-1.632-9.269,3.234-13.845-.347-1.135-.888-2.159.932-1.478,2.428,2.232,4.906,5.539,9.418,5.273,15.213a1.668,1.668,0,0,0,1.714,1.622c1.245.106,2.449-.453,2.416-1.608C160.673,38.177,165.2,33.359,166.777,27.3ZM195.5,70.06c-2.019-2.754,2.107-8.98-2.443-9.1-5.592-.144-2.61,6.141-2.652,9.394-.041,3.291-2.739,9.544,2.552,9.512C197.3,79.846,193.924,73.646,195.5,70.06ZM9.483,53.45c15.45-2.942,30.639,6.99,46.151.961C40.183,57.374,24.952,49.548,9.483,53.45Zm2.233,86.9A46.436,46.436,0,0,0,33.7,138.872c7.063-2.134,14.213-3.406,21.619-2.6C40.232,131.792,26.457,141.515,11.716,140.346ZM221.977,30.135c-13.609-4.258-26.837.15-40.207,2.235C195.212,33.263,208.268,26.368,221.977,30.135ZM186.337,84.97c13.619,1.691,27.1.423,40.5-2.329ZM74.691,147.382H38.536C50.26,149.814,61.84,148.25,74.691,147.382ZM214.22,143.91c-11.926.241-23.622,4.595-35.793,2.236C190.53,148.888,202.405,147.448,214.22,143.91Zm-62.5-5.334c-9.726-2.891-19.329-6.893-29.792-3.235C132.012,135.039,141.869,136.771,151.718,138.576ZM38.7,28.532a101.846,101.846,0,0,1,25.738.278C55.9,25.583,47.33,24.343,38.7,28.532Zm79.258,114.763c-10.538-1.323-20.665.312-27.328,4.586C100.244,145.846,108.965,144.293,117.955,143.295Zm112.4-4.124.105,1.815,10.622-1.826-.21-1.5ZM227.878,66.2c-4.9-1.762-8.06.172-11.37.924C219.835,67.181,223.2,68.206,227.878,66.2Z" transform="translate(0 117.966)" fill="#fc4b52"/>
        <path id="Trazado_160603" data-name="Trazado 160603" d="M9.66,98.65c-1.69,2.295-4.072,4.207-4.09,7.425q-1.024.851-2.052,1.695L0,105.976q2.146-3.3,4.294-6.611Q33.208,56.385,62.12,13.405C65.252,8.749,68.115,3.883,72.51.225L73.078,0a23.238,23.238,0,0,1-4.2,10.1Q39.166,54.3,9.66,98.65Z" transform="translate(50.568 19.313)" fill="#12263f"/>
        <path id="Trazado_160604" data-name="Trazado 160604" d="M1.549,0c11.672,13.06,20.068,28.425,29.9,42.767C43.89,60.9,55.726,79.446,67.821,97.814l-3.317.5c-.927-1.191-1.934-2.33-2.77-3.581Q34.137,53.445,6.61,12.108C4.244,8.543.815,5.575,0,1.07Z" transform="translate(130.178 18.835)" fill="#12263f"/>
        <path id="Trazado_160605" data-name="Trazado 160605" d="M13.014,18.835c-.517.356-1.032.713-1.549,1.07-2.046-1.625-4.2-2.087-6.529-.6l-.571.23c.048-2.679-2.4-4.05-3.257-6.217-1.221-3.088-2.241-6.3,1.566-8.533A24.181,24.181,0,0,0,4.137,8.225a4.07,4.07,0,0,0,4.931,1.939,3.162,3.162,0,0,0,2.146-2.939c.187-2.345-1.534-3.372-3.4-4.042a17.36,17.36,0,0,0-3.152-.53c3.586-4.319,7.359-2.7,10.6.154,3.725,3.289,4.042,7.4,1.437,11.751C15.695,16.226,13.18,16.511,13.014,18.835Z" transform="translate(118.713 0)" fill="#feca2e"/>
        <path id="Trazado_160606" data-name="Trazado 160606" d="M159.978,4.149c-8.6-.049-17.181-.114-25.817-.338C114.57,3.3,94.977-.26,75.371,3.134,66.6,4.654,57.717,8.282,48.977,5.554,35.416,1.322,21.809,2.851,8.138,3.033,5.425,3.069,2.483,3.812,0,1.2c12.374,1.582,24.878-2.976,36.934.125a74.364,74.364,0,0,0,36.142.728C86.825-1.087,101,.073,114.891.989c13.116.864,26.2.638,39.292,1.021,1.934.058,3.864.19,5.8.288Q159.979,3.224,159.978,4.149Z" transform="translate(8.531 200.806)" fill="#e02f3d"/>
        <path id="Trazado_160607" data-name="Trazado 160607" d="M15.7.075c4.134,4.056,9.584,3.175,14.607,3.9,1.342,1.018,2.718,1.33,4.169.213,17.489,4.786,35.068,3.209,52.657.723,4.253-.6,8.5-1.239,12.75-1.859q.135.836.269,1.673Q90.174,6.317,80.2,7.91C57.509,11.5,35.355,7.428,13.227,3.165,8.782,2.309,4.068,2.465,0,0L4.156.071l6.366.016Z" transform="translate(134.491 164.386)" fill="#e02f3d"/>
        <path id="Trazado_160608" data-name="Trazado 160608" d="M2.545,1.11,6.309,0c5.208,1.281,7.235,4.551,6.126,9.784q-.986.746-1.982,1.492a7.164,7.164,0,0,1-8.206.064c-.579-.467-1.16-.939-1.74-1.41A8.112,8.112,0,0,1,2.545,1.11Z" transform="translate(197.709 125.239)" fill="#feca2e"/>
        <path id="Trazado_160609" data-name="Trazado 160609" d="M8.1.054q1.759.9,3.52,1.791.77,2.745,1.537,5.494C10.948,9.873,9.437,13.825,5,12.354,1.545,11.213-.1,8.447,0,4.755c.081-.2.155-.41.22-.62C2.118,1.365,4.568-.328,8.1.054Z" transform="translate(42.473 125.236)" fill="#feca2e"/>
        <path id="Trazado_160610" data-name="Trazado 160610" d="M0,1.115c15.47-3.9,30.7,3.924,46.151.961C30.639,8.1,15.45-1.827,0,1.115Z" transform="translate(9.483 170.3)" fill="#e02f3d"/>
        <path id="Trazado_160611" data-name="Trazado 160611" d="M0,5.261C14.741,6.429,28.515-3.293,43.6,1.188c-7.405-.808-14.555.463-21.619,2.6A46.436,46.436,0,0,1,0,5.261Z" transform="translate(11.716 253.051)" fill="#e02f3d"/>
        <path id="Trazado_160612" data-name="Trazado 160612" d="M37.721,0l-.165,2.513C27.575,3.359,17.6,4.278,7.611,4.99c-2.039.145-4.3.715-7.611-1.777C13.526,2.838,25.723,2.286,37.721,0Z" transform="translate(4.366 192.161)" fill="#e02f3d"/>
        <path id="Trazado_160613" data-name="Trazado 160613" d="M40.207,1.789C26.5-1.977,13.442,4.917,0,4.024,13.37,1.939,26.6-2.468,40.207,1.789Z" transform="translate(181.77 146.311)" fill="#e02f3d"/>
        <path id="Trazado_160614" data-name="Trazado 160614" d="M1.537,7.186Q.768,4.437,0,1.692,1.026.851,2.05,0C2.8,3.755,5.038,5.469,8.845,6.5c6.673,1.808,13.463.679,20.109,2.093C19.671,11.8,10.652,8.225,1.537,7.186Z" transform="translate(54.088 125.388)" fill="#e02f3d"/>
        <path id="Trazado_160615" data-name="Trazado 160615" d="M0,2.329,40.5,0C27.1,2.752,13.62,4.02,0,2.329Z" transform="translate(186.337 200.607)" fill="#e02f3d"/>
        <path id="Trazado_160616" data-name="Trazado 160616" d="M36.155,0C23.3.868,11.724,2.432,0,0Z" transform="translate(38.536 265.347)" fill="#e02f3d"/>
        <path id="Trazado_160617" data-name="Trazado 160617" d="M6.654,3.567,1.522,3.51c-.7-.79-2.83-2.27-.361-2.464,9.693-.76,19.5-2.413,29.044,1.184-2.518,2.887-5.825.991-8.746,1.439Q14.093-1.351,6.654,3.567Z" transform="translate(92.136 206.355)" fill="#e02f3d"/>
        <path id="Trazado_160618" data-name="Trazado 160618" d="M35.793,0C23.978,3.539,12.1,4.978,0,2.236,12.171,4.595,23.867.241,35.793,0Z" transform="translate(178.427 261.875)" fill="#e02f3d"/>
        <path id="Trazado_160619" data-name="Trazado 160619" d="M33.869,0q1.186.9,2.37,1.795C24.268,4.126,12.176,4.259,0,3.378l6.282-.769C8.971,3,11.758,4.141,14.07,1.6A59.676,59.676,0,0,0,33.869,0Z" transform="translate(106.038 235.21)" fill="#e02f3d"/>
        <path id="Trazado_160620" data-name="Trazado 160620" d="M23.419,3.777l-9.088-.014C10.023.158,4.567,3.362,0,.942,8.65-1.146,17.1.609,25.543,2.6Z" transform="translate(83.386 174.122)" fill="#e02f3d"/>
        <path id="Trazado_160621" data-name="Trazado 160621" d="M29.792,4.7C19.943,2.894,10.086,1.162,0,1.464,10.463-2.194,20.065,1.808,29.792,4.7Z" transform="translate(121.926 251.842)" fill="#e02f3d"/>
        <path id="Trazado_160622" data-name="Trazado 160622" d="M25.71,0c.58.471,1.161.943,1.74,1.41C18.308,2.9,9.064,3.726,0,5.821,8.106,1.688,16.9.82,25.71,0Z" transform="translate(172.507 135.169)" fill="#e02f3d"/>
        <path id="Trazado_160623" data-name="Trazado 160623" d="M0,2.67c8.633-4.189,17.2-2.949,25.738.278A101.847,101.847,0,0,0,0,2.67Z" transform="translate(38.697 143.827)" fill="#e02f3d"/>
        <path id="Trazado_160624" data-name="Trazado 160624" d="M27.328.447C18.338,1.446,9.616,3,0,5.033,6.663.759,16.79-.875,27.328.447Z" transform="translate(90.627 260.813)" fill="#e02f3d"/>
        <path id="Trazado_160625" data-name="Trazado 160625" d="M23.52.871c-.065.21-.139.418-.22.62C15.384,1.4,7.782,3.459,0,4.393,7.734,2.588,15.007-1.875,23.52.871Z" transform="translate(19.178 128.5)" fill="#e02f3d"/>
        <path id="Trazado_160626" data-name="Trazado 160626" d="M0,1.492Q.994.746,1.982,0c4.5,1.112,9.406.311,13.573,3.3C10.417,2.1,4.96,4.608,0,1.492Z" transform="translate(208.162 135.023)" fill="#e02f3d"/>
        <path id="Trazado_160627" data-name="Trazado 160627" d="M16.842,0l-.165,2.5C11.138,1.462,5.676,4.516,0,2.093Z" transform="translate(25.252 186.905)" fill="#e02f3d"/>
        <path id="Trazado_160628" data-name="Trazado 160628" d="M5.926,2.778,0,1.629C4.448-1.246,8.984.206,13.626,1.995Z" transform="translate(123.196 207.97)" fill="#e02f3d"/>
        <path id="Trazado_160629" data-name="Trazado 160629" d="M11.464,3.59,13.222,6.2A23.98,23.98,0,0,1,0,0Z" transform="translate(68.825 147.78)" fill="#e02f3d"/>
        <path id="Trazado_160630" data-name="Trazado 160630" d="M0,1.509,10.517,0l.21,1.5L.105,3.324Z" transform="translate(230.356 255.627)" fill="#e02f3d"/>
        <path id="Trazado_160631" data-name="Trazado 160631" d="M.218,2.911C-.129,1.686-.241.545,1.279,0,4,.241,6.719.484,10.56.824,6.778,3.773,3.267,2.211.218,2.911Z" transform="translate(176.34 185.338)" fill="#e02f3d"/>
        <path id="Trazado_160632" data-name="Trazado 160632" d="M11.37.72c-4.682,2-8.043.978-11.37.924C3.309.892,6.47-1.042,11.37.72Z" transform="translate(216.508 183.448)" fill="#e02f3d"/>
        <path id="Trazado_160633" data-name="Trazado 160633" d="M11.83,3.16,0,.595C5.326-.571,8.985-.1,12.163,2.7l-.031.329Z" transform="translate(29.724 206.754)" fill="#e02f3d"/>
        <path id="Trazado_160634" data-name="Trazado 160634" d="M0,0,5.223.644A3.758,3.758,0,0,1,0,0Z" transform="translate(126.539 163.913)" fill="#e02f3d"/>
        <path id="Trazado_160635" data-name="Trazado 160635" d="M3.443,1.054C2.195,1.048.455,2.671,0,.018A3.941,3.941,0,0,1,3.443,1.054Z" transform="translate(41.641 209.32)" fill="#e02f3d"/>
        <path id="Trazado_160636" data-name="Trazado 160636" d="M.165,0Q.3.637.437,1.278A5.163,5.163,0,0,1,.007.465C-.034.341.108.157.165,0Z" transform="translate(134.1 163.278)" fill="#e02f3d"/>
        <path id="Trazado_160637" data-name="Trazado 160637" d="M0,2.431q7.439-4.91,14.806.1C9.862,3.877,4.933,2.9,0,2.431Z" transform="translate(98.791 207.49)" fill="#e02f3d"/>
        <path id="Trazado_160638" data-name="Trazado 160638" d="M2.077,0C3.868.1,4.968.665,5.038,2.233c.088,1.953-1.24,2.573-2.9,2.582C.506,4.824,0,3.753,0,2.282A2.066,2.066,0,0,1,2.077,0Z" transform="translate(121.553 148.68)" fill="#e02f3d"/>
        <path id="Trazado_160639" data-name="Trazado 160639" d="M0,6.122C1.647,4.292-.433.209,1.948.012,5.133-.252,5.121,3.839,6.366,6.139Z" transform="translate(138.647 158.335)" fill="#e02f3d"/>
        <text id="NOMBRE_EMPRESA" data-name="NOMBRE EMPRESA" transform="translate(125.275 191.782)" fill="#fff" font-size="23" font-family="Roboto-Black, Roboto" font-weight="800"><tspan x="-103.281" y="0">NOMBRE EMPRESA</tspan></text>
        <text id="NIT._77.11.10." data-name="NIT. 77.11.10." transform="translate(123.527 221.327)" fill="#12263f" font-size="31" font-family="Roboto-Black, Roboto" font-weight="800"><tspan x="-99.834" y="0">NIT. 77.11.10.</tspan></text>
      </g>
    </g>
  </g>
</svg>
