<svg xmlns="http://www.w3.org/2000/svg" xmlns:xlink="http://www.w3.org/1999/xlink" width="400" height="289.592" viewBox="0 0 400 289.592">
  <defs>
    <linearGradient id="linear-gradient" x1="4719.606" y1="-35.968" x2="4720.613" y2="-35.968" gradientUnits="objectBoundingBox">
      <stop offset="0" stop-color="#febbba"/>
      <stop offset="1" stop-color="#ff928e"/>
    </linearGradient>
    <linearGradient id="linear-gradient-2" x1="5501.172" y1="-27.328" x2="5502.186" y2="-27.328" xlink:href="#linear-gradient"/>
    <linearGradient id="linear-gradient-3" x1="911.227" y1="-5.696" x2="912.221" y2="-5.696" xlink:href="#linear-gradient"/>
    <linearGradient id="linear-gradient-4" x1="-2365.754" y1="-11.227" x2="-2363.773" y2="-8.544" xlink:href="#linear-gradient"/>
    <linearGradient id="linear-gradient-5" x1="6555.376" y1="-29.24" x2="6557.378" y2="-31.02" xlink:href="#linear-gradient"/>
    <linearGradient id="linear-gradient-6" x1="726.038" y1="-10.582" x2="727.04" y2="-10.582" xlink:href="#linear-gradient"/>
    <linearGradient id="linear-gradient-7" x1="-0.103" y1="1.691" x2="0.844" y2="-0.028" xlink:href="#linear-gradient"/>
    <linearGradient id="linear-gradient-8" x1="421.092" y1="1000.916" x2="420.769" y2="999.851" xlink:href="#linear-gradient"/>
    <linearGradient id="linear-gradient-9" x1="1369.333" y1="4814.174" x2="1368.386" y2="4809.562" xlink:href="#linear-gradient"/>
    <linearGradient id="linear-gradient-10" x1="2269.758" y1="0.5" x2="2270.758" y2="0.5" xlink:href="#linear-gradient"/>
    <linearGradient id="linear-gradient-11" x1="-45.97" y1="-13.11" x2="-47.064" y2="-11.908" xlink:href="#linear-gradient"/>
    <linearGradient id="linear-gradient-12" x1="-1864.987" y1="51.864" x2="-1864.762" y2="50.955" xlink:href="#linear-gradient"/>
    <linearGradient id="linear-gradient-13" x1="-1075.686" y1="42.948" x2="-1074.477" y2="44.111" xlink:href="#linear-gradient"/>
    <linearGradient id="linear-gradient-14" x1="-3005.04" y1="156.877" x2="-3001.664" y2="161.195" xlink:href="#linear-gradient"/>
    <linearGradient id="linear-gradient-15" x1="-58.858" y1="0.621" x2="-57.457" y2="-0.516" xlink:href="#linear-gradient"/>
    <linearGradient id="linear-gradient-16" x1="-107.2" y1="-0.322" x2="-111.097" y2="0.009" xlink:href="#linear-gradient"/>
    <linearGradient id="linear-gradient-17" x1="-67.91" y1="-11.714" x2="-64.94" y2="-13.89" xlink:href="#linear-gradient"/>
    <linearGradient id="linear-gradient-18" x1="-1736.089" y1="-129.665" x2="-1734.961" y2="-129.665" xlink:href="#linear-gradient"/>
    <linearGradient id="linear-gradient-19" x1="-533.815" y1="-181.147" x2="-532.881" y2="-181.147" gradientUnits="objectBoundingBox">
      <stop offset="0" stop-color="#4f52ff"/>
      <stop offset="1" stop-color="#4042e2"/>
    </linearGradient>
    <linearGradient id="linear-gradient-20" x1="-1479.793" y1="-137.152" x2="-1478.891" y2="-137.152" xlink:href="#linear-gradient"/>
    <linearGradient id="linear-gradient-21" x1="-465.139" y1="-66.772" x2="-464.145" y2="-66.772" xlink:href="#linear-gradient"/>
    <linearGradient id="linear-gradient-22" x1="-794.912" y1="-72.57" x2="-793.793" y2="-72.57" xlink:href="#linear-gradient"/>
    <linearGradient id="linear-gradient-23" x1="-255.543" y1="33.301" x2="-256.787" y2="40.118" xlink:href="#linear-gradient"/>
    <linearGradient id="linear-gradient-24" x1="-468.969" y1="-305.491" x2="-470.066" y2="-304.177" xlink:href="#linear-gradient"/>
    <linearGradient id="linear-gradient-25" x1="-1469.421" y1="-1134.367" x2="-1467.001" y2="-1137.044" xlink:href="#linear-gradient"/>
    <linearGradient id="linear-gradient-26" x1="482.968" y1="438.279" x2="482.229" y2="440.715" gradientUnits="objectBoundingBox">
      <stop offset="0" stop-color="#09005d"/>
      <stop offset="1" stop-color="#1a0f91"/>
    </linearGradient>
  </defs>
  <g id="Grupo_117453" data-name="Grupo 117453" transform="translate(5883 7226)">
    <path id="Trazado_160733" data-name="Trazado 160733" d="M105.494,472.567c-28.1-30.6-66.5-62.187-51.444-109.909,9.9-31.388,34.191-40.137,54.378-59.492,9.963-9.552,3.7-23.456,3.512-37.255-.422-35.339,39.016-62.76,75.273-62.188,39.273.62,56.273,40.1,89.217,42.221,12.936.2,24.52-7.394,35.965-13.424,33.914-17.869,87.727-6.474,90.447,36.74.7,23.338-25.86,60.884.753,73.159,21.21,9.783,42.637,13.386,46.459,48.375,5,45.8-21.446,70.931-55.911,82.717Z" transform="translate(-5933.664 -7429.714)" fill="#f3f9ff"/>
    <g id="Grupo_116184" data-name="Grupo 116184" transform="translate(-57 -50)">
      <g id="Grupo_116183" data-name="Grupo 116183" transform="translate(-5872.051 -7240.771)">
        <g id="Grupo_116151" data-name="Grupo 116151" transform="translate(99.051 77.882)">
          <g id="Grupo_116149" data-name="Grupo 116149" transform="translate(0 0)">
            <circle id="Elipse_5486" data-name="Elipse 5486" cx="111.201" cy="111.201" r="111.201" transform="translate(0 219.18) rotate(-80.235)" fill="#bdd0fb"/>
            <g id="Grupo_116146" data-name="Grupo 116146" transform="translate(28.791 28.79)">
              <circle id="Elipse_5487" data-name="Elipse 5487" cx="94.906" cy="94.906" r="94.906" transform="translate(4.753 4.754)" fill="#feca2e"/>
              <path id="Trazado_160652" data-name="Trazado 160652" d="M216.063,289.346a99.66,99.66,0,1,1,99.66-99.66A99.771,99.771,0,0,1,216.063,289.346Zm0-194.564a94.906,94.906,0,1,0,94.9,94.9A95.012,95.012,0,0,0,216.063,94.782Z" transform="translate(-116.405 -90.027)" fill="#fff"/>
            </g>
            <g id="Grupo_116147" data-name="Grupo 116147" transform="translate(58.845 58.845)">
              <circle id="Elipse_5488" data-name="Elipse 5488" cx="57.859" cy="57.859" r="57.859" transform="translate(0 112.622) rotate(-76.717)" fill="#feca2e"/>
              <path id="Trazado_160653" data-name="Trazado 160653" d="M201.347,237.583A62.613,62.613,0,1,1,263.96,174.97,62.684,62.684,0,0,1,201.347,237.583Zm0-115.719a53.106,53.106,0,1,0,53.106,53.106A53.167,53.167,0,0,0,201.347,121.864Z" transform="translate(-131.743 -105.366)" fill="#fff"/>
            </g>
            <g id="Grupo_116148" data-name="Grupo 116148" transform="translate(101.279 101.279)">
              <circle id="Elipse_5489" data-name="Elipse 5489" cx="22.416" cy="22.416" r="22.416" transform="matrix(0.23, -0.973, 0.973, 0.23, 0.204, 43.837)" fill="#fc4b52"/>
              <path id="Trazado_160654" data-name="Trazado 160654" d="M187.268,188.061a27.17,27.17,0,1,1,27.17-27.17A27.2,27.2,0,0,1,187.268,188.061Zm0-44.832a17.663,17.663,0,1,0,17.664,17.662A17.683,17.683,0,0,0,187.268,143.229Z" transform="translate(-160.098 -133.721)" fill="#fff"/>
            </g>
          </g>
          <g id="Grupo_116150" data-name="Grupo 116150" transform="translate(127.989 10.655)">
            <rect id="Rectángulo_40638" data-name="Rectángulo 40638" width="3.339" height="126.441" transform="matrix(-0.707, -0.707, 0.707, -0.707, 19.521, 103.745)" fill="#12263f"/>
            <path id="Trazado_160655" data-name="Trazado 160655" d="M195.028,136.846c1.354-1.354,7.741,5.032,6.386,6.386L177.73,161.853a.941.941,0,0,1-1.321-1.322Z" transform="translate(-176.197 -41.16)" fill="#12263f"/>
            <path id="Trazado_160656" data-name="Trazado 160656" d="M251.779,87.769l12.028,1.194-16.512,16.512a25.529,25.529,0,0,1-20.575,7.353h0Z" transform="translate(-142.902 -73.38)" fill="#727997"/>
            <path id="Trazado_160657" data-name="Trazado 160657" d="M250.405,91.124l-1.2-12.028L232.7,95.608a25.525,25.525,0,0,0-7.351,20.574h0Z" transform="translate(-143.889 -79.096)" fill="#727997"/>
          </g>
        </g>
        <g id="Grupo_116162" data-name="Grupo 116162" transform="translate(109.872 64.771)">
          <g id="Grupo_116156" data-name="Grupo 116156" transform="translate(0 7.84)">
            <g id="Grupo_116152" data-name="Grupo 116152" opacity="0.3">
              <path id="Trazado_160658" data-name="Trazado 160658" d="M163.8,80.8a.858.858,0,0,1-1.216,0c-.652-.654-1.344-1.287-2.054-1.886a.86.86,0,0,1-.113-1.2l.01-.012a.862.862,0,0,1,1.213-.1c.747.63,1.475,1.3,2.162,1.986a.862.862,0,0,1,.06,1.15A.571.571,0,0,1,163.8,80.8Zm-6.923-4.561c-.785-.494-1.6-.962-2.417-1.387a.86.86,0,0,1,.793-1.526c.863.446,1.719.937,2.543,1.458a.862.862,0,0,1,.267,1.188.754.754,0,0,1-.06.083A.859.859,0,0,1,156.874,76.239Zm-6.57-3.187c-.871-.307-1.769-.581-2.664-.813a.86.86,0,0,1,.431-1.666c.944.244,1.888.533,2.805.856a.861.861,0,0,1,.526,1.1.874.874,0,0,1-.143.255A.86.86,0,0,1,150.3,73.052Zm-7.116-1.637c-.921-.1-1.856-.171-2.781-.2a.861.861,0,1,1,.048-1.72c.974.028,1.958.1,2.927.207a.861.861,0,1,1-.194,1.71Zm-7.3-.012c-.919.1-1.846.244-2.756.425a.861.861,0,0,1-.333-1.689c.957-.189,1.933-.338,2.9-.446a.861.861,0,0,1,.763,1.4A.851.851,0,0,1,135.884,71.4Zm-7.126,1.606c-.874.3-1.747.645-2.593,1.022a.86.86,0,0,1-.7-1.573c.891-.395,1.808-.758,2.729-1.077a.861.861,0,0,1,.562,1.628Zm-21.947,23.22a.86.86,0,0,1-.616-1.049c.246-.942.536-1.886.863-2.807a.86.86,0,1,1,1.621.576c-.31.874-.586,1.77-.818,2.664a.86.86,0,0,1-1.05.616Zm15.359-20.078c-.785.489-1.558,1.019-2.3,1.573a.86.86,0,0,1-1.032-1.377c.78-.584,1.593-1.141,2.421-1.656a.86.86,0,0,1,1.123,1.271A.843.843,0,0,1,122.171,76.151ZM109.327,89.165A.861.861,0,0,1,108.962,88c.45-.863.944-1.717,1.467-2.542a.86.86,0,1,1,1.452.922c-.5.783-.964,1.6-1.392,2.416a.875.875,0,0,1-.1.144A.859.859,0,0,1,109.327,89.165Zm7.126-8.479c-.655.652-1.291,1.342-1.89,2.049a.86.86,0,0,1-1.326-1.1l.012-.015c.63-.745,1.3-1.47,1.989-2.157a.86.86,0,0,1,1.276,1.151A.785.785,0,0,1,116.452,80.686Z" transform="translate(-105.182 -69.497)" fill="#91b3fa"/>
              <path id="Trazado_160659" data-name="Trazado 160659" d="M107.1,90.129a.865.865,0,0,0,.189-.478c.033-.443.075-.893.126-1.336a.86.86,0,0,0-1.709-.2c-.055.466-.1.939-.133,1.4a.86.86,0,0,0,1.526.606Z" transform="translate(-105.574 -57.726)" fill="#91b3fa"/>
            </g>
            <g id="Grupo_116153" data-name="Grupo 116153" transform="translate(7.541 34.44)" opacity="0.3">
              <path id="Trazado_160660" data-name="Trazado 160660" d="M112.546,104.97a.86.86,0,0,0-.028-1.115c-.3-.33-.591-.674-.874-1.017a.86.86,0,1,0-1.327,1.095c.3.362.609.722.919,1.07a.862.862,0,0,0,1.216.066A.886.886,0,0,0,112.546,104.97Z" transform="translate(-110.119 -82.17)" fill="#91b3fa"/>
              <path id="Trazado_160661" data-name="Trazado 160661" d="M160.773,110.779a.86.86,0,1,1-1.281-1.148c.6-.674,1.188-1.385,1.742-2.119a.861.861,0,1,1,1.374,1.039c-.241.319-.486.63-.735.939C161.516,109.928,161.148,110.363,160.773,110.779ZM164,104.956a.86.86,0,0,1-.329-1.171c.446-.795.864-1.618,1.243-2.445a.86.86,0,1,1,1.566.713c-.4.873-.838,1.739-1.309,2.575a.772.772,0,0,1-.081.121A.86.86,0,0,1,164,104.956Zm-6.591,9.093c-.73.619-1.5,1.216-2.278,1.773a.861.861,0,1,1-1-1.4c.743-.529,1.472-1.095,2.163-1.684a.861.861,0,0,1,1.226,1.2A.733.733,0,0,1,157.413,114.049Zm9.649-15.809a.86.86,0,0,1-.577-1.07c.26-.873.488-1.767.674-2.658a.861.861,0,1,1,1.686.352c-.2.937-.435,1.88-.71,2.8a.841.841,0,0,1-.156.3A.862.862,0,0,1,167.062,98.24Zm-15.922,20.031c-.848.443-1.725.856-2.611,1.228a.861.861,0,0,1-.665-1.588c.839-.352,1.676-.745,2.48-1.165a.86.86,0,1,1,.8,1.525Zm-7.046,2.742c-.927.249-1.875.46-2.817.629a.86.86,0,1,1-.3-1.692c.894-.163,1.8-.363,2.676-.6a.859.859,0,0,1,.889,1.372A.837.837,0,0,1,144.095,121.014Zm-7.477,1.143c-.959.04-1.931.04-2.887,0a.86.86,0,1,1,.071-1.719c.909.038,1.832.038,2.742,0a.86.86,0,1,1,.073,1.719Zm-7.549-.516c-.946-.169-1.893-.383-2.819-.632a.86.86,0,1,1,.448-1.661c.879.236,1.778.438,2.676.6a.86.86,0,1,1-.305,1.692Zm-7.255-2.162c-.881-.373-1.759-.79-2.608-1.238a.861.861,0,0,1,.8-1.523c.806.426,1.639.821,2.477,1.176a.86.86,0,0,1,.456,1.128.883.883,0,0,1-.124.206A.861.861,0,0,1,121.814,119.479Zm-6.6-3.7c-.574-.41-1.141-.843-1.689-1.286q-.3-.241-.587-.488a.851.851,0,0,1-.1-1.213.861.861,0,0,1,1.213-.1q.276.234.557.463c.521.421,1.06.833,1.606,1.223a.863.863,0,0,1,.2,1.2l-.033.041A.861.861,0,0,1,115.218,115.779Z" transform="translate(-108.462 -87.902)" fill="#91b3fa"/>
              <path id="Trazado_160662" data-name="Trazado 160662" d="M147.4,93.032a.86.86,0,0,0,.191-.483c.031-.465.055-.939.066-1.409a.861.861,0,1,0-1.72-.048c-.012.446-.033.9-.063,1.339a.86.86,0,0,0,1.526.6Z" transform="translate(-86.56 -90.256)" fill="#91b3fa"/>
            </g>
            <g id="Grupo_116155" data-name="Grupo 116155" transform="translate(8.214 8.363)">
              <path id="Trazado_160663" data-name="Trazado 160663" d="M161.008,92.258a.4.4,0,0,0-.342-.317l-4.856-.619a21.314,21.314,0,0,0-3.885-5.712l1.2-4.742a.4.4,0,0,0-.169-.435l-4.909-3.219a.4.4,0,0,0-.466.018l-3.869,2.993a21.331,21.331,0,0,0-6.787-1.287l-2.505-4.2a.4.4,0,0,0-.426-.189l-5.749,1.2a.4.4,0,0,0-.317.343l-.619,4.854a21.314,21.314,0,0,0-5.712,3.885l-4.741-1.2a.4.4,0,0,0-.435.169L113.2,88.7a.4.4,0,0,0,.018.466l2.993,3.869a21.33,21.33,0,0,0-1.287,6.787l-4.2,2.505a.4.4,0,0,0-.189.426l1.2,5.749a.4.4,0,0,0,.342.317l4.856.62a21.332,21.332,0,0,0,3.885,5.71l-1.2,4.742a.4.4,0,0,0,.169.435l4.909,3.22a.4.4,0,0,0,.466-.018l3.869-2.993a21.375,21.375,0,0,0,6.787,1.286l2.505,4.206a.4.4,0,0,0,.426.187l5.749-1.2a.4.4,0,0,0,.317-.342l.62-4.856a21.332,21.332,0,0,0,5.71-3.885l4.742,1.2a.4.4,0,0,0,.435-.171l3.219-4.909a.4.4,0,0,0-.018-.466l-2.991-3.869a21.373,21.373,0,0,0,1.286-6.787l4.206-2.5a.405.405,0,0,0,.187-.428Z" transform="translate(-110.525 -74.538)" fill="#12263f"/>
              <g id="Grupo_116154" data-name="Grupo 116154" transform="translate(19.943 19.945)">
                <path id="Trazado_160664" data-name="Trazado 160664" d="M132.439,96.8a5.9,5.9,0,1,1,.594-.632A5.746,5.746,0,0,1,132.439,96.8Zm-8.512-4.536a4.524,4.524,0,1,0,1.458-3.142,4.722,4.722,0,0,0-.46.489A4.5,4.5,0,0,0,123.927,92.269Z" transform="translate(-122.546 -86.56)" fill="#bdd0fb"/>
              </g>
              <path id="Trazado_160665" data-name="Trazado 160665" d="M143.049,105.047a14.167,14.167,0,0,0,.879-1.2h0q.129-.2.254-.4a14.552,14.552,0,0,0,1.049-2.074l.013-.03.033-.083c.022-.053.043-.108.063-.163a.348.348,0,0,0-.1-.392.376.376,0,0,0-.095-.053.344.344,0,0,0-.445.2,13.838,13.838,0,0,1-13.1,8.856,13.719,13.719,0,0,1-7.379-2.258,14.174,14.174,0,0,1-1.15-.839,13.822,13.822,0,1,1,21.168-16.75.33.33,0,0,0,.093.118.344.344,0,0,0,.528-.416,14.464,14.464,0,0,0-3.914-4.936,14.285,14.285,0,0,0-1.19-.871,14.512,14.512,0,0,0-17.12,23.389,14.878,14.878,0,0,0,1.206.881,14.512,14.512,0,0,0,19.212-2.975Z" transform="translate(-106.074 -70.028)" fill="#bdd0fb"/>
            </g>
          </g>
          <g id="Grupo_116161" data-name="Grupo 116161" transform="translate(55.757)">
            <g id="Grupo_116157" data-name="Grupo 116157" opacity="0.3">
              <path id="Trazado_160666" data-name="Trazado 160666" d="M163.393,71.9a.532.532,0,0,0,.023-.637c-.255-.372-.528-.74-.8-1.095a.531.531,0,0,0-.838.654c.265.34.524.69.768,1.045a.532.532,0,0,0,.74.136A.6.6,0,0,0,163.393,71.9Z" transform="translate(-124.367 -61.349)" fill="#91b3fa"/>
              <path id="Trazado_160667" data-name="Trazado 160667" d="M175.55,72.223a.532.532,0,0,1-.752,0,22.043,22.043,0,0,0-1.659-1.49c-.121-.1-.244-.2-.368-.292a.533.533,0,0,1-.093-.747.548.548,0,0,1,.745-.093c.131.1.259.2.387.305.6.489,1.188,1.015,1.739,1.563a.532.532,0,0,1,.038.71Zm-5.007-3.3a21.987,21.987,0,0,0-2.4-1.239.531.531,0,1,1,.43-.972,23.06,23.06,0,0,1,2.512,1.3.531.531,0,0,1,.184.728.6.6,0,0,1-.043.063A.531.531,0,0,1,170.543,68.92Zm-4.929-2.172a21.9,21.9,0,0,0-2.63-.612.532.532,0,1,1,.176-1.049,23,23,0,0,1,2.757.642.531.531,0,0,1,.357.662.5.5,0,0,1-.1.181A.53.53,0,0,1,165.614,66.749Zm-5.314-.894a21.517,21.517,0,0,0-2.7.05.532.532,0,0,1-.085-1.06,22.982,22.982,0,0,1,2.829-.051.53.53,0,0,1,.508.554.521.521,0,0,1-.118.31A.534.534,0,0,1,160.3,65.854Zm-5.37.43a22.02,22.02,0,0,0-2.6.7.531.531,0,0,1-.338-1.007,23.086,23.086,0,0,1,2.729-.738.532.532,0,1,1,.214,1.042Zm-5.1,1.72a21.736,21.736,0,0,0-2.353,1.316.531.531,0,1,1-.576-.893,22.866,22.866,0,0,1,2.467-1.382.532.532,0,0,1,.644.815A.543.543,0,0,1,149.828,68ZM145.3,70.919a21.524,21.524,0,0,0-1.959,1.855.531.531,0,1,1-.776-.725,22.964,22.964,0,0,1,2.054-1.946.531.531,0,0,1,.753.742A.5.5,0,0,1,145.3,70.919Zm-5.846,6.422a.529.529,0,0,1-.207-.722,22.879,22.879,0,0,1,1.3-2.084c.071-.1.143-.2.216-.3a.531.531,0,0,1,.859.625c-.068.095-.136.189-.2.287a21.861,21.861,0,0,0-1.246,1.989.525.525,0,0,1-.722.207Z" transform="translate(-139.182 -64.771)" fill="#91b3fa"/>
            </g>
            <g id="Grupo_116158" data-name="Grupo 116158" transform="translate(14.813 23.054)" opacity="0.3">
              <path id="Trazado_160668" data-name="Trazado 160668" d="M171.079,91.665a23.422,23.422,0,0,1-1.906,2.026.531.531,0,1,1-.728-.773,21.992,21.992,0,0,0,1.817-1.933.531.531,0,0,1,.821.674Zm.914-2.085a.531.531,0,0,1-.158-.735,22.163,22.163,0,0,0,1.306-2.313A.532.532,0,1,1,174.1,87a23.5,23.5,0,0,1-1.369,2.422.484.484,0,0,1-.035.046A.53.53,0,0,1,171.993,89.58Zm-4.96,5.893a22.994,22.994,0,0,1-2.339,1.506.532.532,0,0,1-.521-.927,22.123,22.123,0,0,0,2.233-1.437.531.531,0,0,1,.727.763A.539.539,0,0,1,167.033,95.473Zm7.454-10.717a.53.53,0,0,1-.328-.675,21.962,21.962,0,0,0,.708-2.558.532.532,0,0,1,1.04.221,22.82,22.82,0,0,1-.745,2.684.509.509,0,0,1-.09.161A.53.53,0,0,1,174.487,84.755Zm-12.3,13.433a22.9,22.9,0,0,1-2.633.9.532.532,0,0,1-.282-1.025,21.959,21.959,0,0,0,2.512-.858.532.532,0,0,1,.614.828A.517.517,0,0,1,162.188,98.188Zm-5.354,1.475a23.241,23.241,0,0,1-2.772.244.531.531,0,0,1-.03-1.062,22.111,22.111,0,0,0,2.645-.234.532.532,0,0,1,.6.448.531.531,0,0,1-.446.6Zm-5.554.151a22.882,22.882,0,0,1-2.752-.43.532.532,0,0,1,.227-1.039,21.83,21.83,0,0,0,2.623.41.531.531,0,1,1-.1,1.058Z" transform="translate(-148.11 -77.062)" fill="#91b3fa"/>
              <path id="Trazado_160669" data-name="Trazado 160669" d="M165.419,80.859a.533.533,0,0,0,.116-.289c.04-.453.066-.911.078-1.357a.532.532,0,0,0-1.063-.03c-.012.426-.037.863-.073,1.294a.532.532,0,0,0,.942.382Z" transform="translate(-137.326 -78.667)" fill="#91b3fa"/>
            </g>
            <g id="Grupo_116160" data-name="Grupo 116160" transform="translate(2.715 5.561)">
              <path id="Trazado_160670" data-name="Trazado 160670" d="M174.6,79.98a.27.27,0,0,0-.229-.212l-3.25-.415a14.221,14.221,0,0,0-2.6-3.821l.8-3.174a.27.27,0,0,0-.113-.29l-3.287-2.155a.267.267,0,0,0-.312.013l-2.588,2a14.245,14.245,0,0,0-4.542-.861l-1.676-2.814a.268.268,0,0,0-.285-.126l-3.847.8a.268.268,0,0,0-.211.231l-.415,3.248a14.229,14.229,0,0,0-3.822,2.6l-3.172-.8a.272.272,0,0,0-.292.113L142.61,77.6a.269.269,0,0,0,.012.312l2,2.588a14.253,14.253,0,0,0-.859,4.542l-2.815,1.676a.267.267,0,0,0-.124.285l.8,3.847a.27.27,0,0,0,.229.212l3.248.415a14.3,14.3,0,0,0,2.6,3.821l-.8,3.172a.269.269,0,0,0,.113.292l3.285,2.153a.269.269,0,0,0,.312-.012l2.59-2a14.29,14.29,0,0,0,4.541.861l1.676,2.814a.273.273,0,0,0,.287.126l3.846-.8a.268.268,0,0,0,.212-.229l.415-3.248a14.294,14.294,0,0,0,3.822-2.6l3.172.8a.266.266,0,0,0,.29-.113l2.155-3.285a.267.267,0,0,0-.013-.312l-2-2.59a14.244,14.244,0,0,0,.861-4.541l2.814-1.676a.27.27,0,0,0,.126-.287Z" transform="translate(-140.818 -68.123)" fill="#12263f"/>
              <g id="Grupo_116159" data-name="Grupo 116159" transform="translate(13.275 13.275)">
                <path id="Trazado_160671" data-name="Trazado 160671" d="M155.557,83.1a4.019,4.019,0,0,1-5.679-.239,4.029,4.029,0,1,1,5.679.239Zm-4.9-.959a2.959,2.959,0,0,0,4.179.178h0a2.957,2.957,0,1,0-4.179-.178Z" transform="translate(-148.82 -76.124)" fill="#bdd0fb"/>
              </g>
              <path id="Trazado_160672" data-name="Trazado 160672" d="M162.941,88.841a10.059,10.059,0,0,0,1.541-2.631l.033-.086a.533.533,0,0,0-.161-.6.585.585,0,0,0-.144-.083.533.533,0,0,0-.687.305,8.887,8.887,0,0,1-.871,1.694v0l-.058.086a8.844,8.844,0,0,1-3.258,2.93,9.007,9.007,0,0,1-2.265.821l-.02,0-.06.013a8.889,8.889,0,0,1-6.727-1.277,9,9,0,0,1-.745-.543,8.949,8.949,0,0,1,10.556-14.424,8.671,8.671,0,0,1,.735.536,8.91,8.91,0,0,1,2.412,3.044.532.532,0,0,0,.957-.465,10.007,10.007,0,0,0-2.7-3.4c-.264-.214-.538-.413-.821-.6A10.012,10.012,0,0,0,148.849,90.3c.264.214.542.416.831.607A10.025,10.025,0,0,0,162.941,88.841Z" transform="translate(-137.96 -65.227)" fill="#bdd0fb"/>
            </g>
          </g>
        </g>
        <g id="Grupo_116168" data-name="Grupo 116168" transform="translate(105.875 191.402)">
          <path id="Trazado_160673" data-name="Trazado 160673" d="M123.987,233.663s-.6,3.209-.907,6.387a2.193,2.193,0,0,0,2.074,2.4c4.236.217,13.3.647,16.549.533a.714.714,0,0,0,.637-.972,1.6,1.6,0,0,0-.808-.868l-14.9-7.023Z" transform="translate(-90.047 -80.097)" fill="#12263f"/>
          <path id="Trazado_160674" data-name="Trazado 160674" d="M123.352,232.743l.42,3.849s2.611,1.246,4.415-.111l-1.045-4.3Z" transform="translate(-89.86 -81.07)" fill="url(#linear-gradient)"/>
          <path id="Trazado_160675" data-name="Trazado 160675" d="M128.719,189c-.207,1-1.536,50.089,3.5,72.141a.747.747,0,0,1-.446.864,12.968,12.968,0,0,1-4.282.828,1.285,1.285,0,0,1-1.268-.934c-1.452-5.12-8.4-30.765-9.1-55.206-.786-27.311.01-.929.01-.929l.775-16.869Z" transform="translate(-94.193 -109.6)" fill="#a7e446"/>
          <path id="Trazado_160676" data-name="Trazado 160676" d="M113.973,234.575a23.132,23.132,0,0,0-1.835,5.916,1.339,1.339,0,0,0,1.161,1.614c1.4.151,3.55.348,5.276.352a1.333,1.333,0,0,0,1.334-1.475,11.25,11.25,0,0,0-2.567-6.193Z" transform="translate(-97.27 -79.495)" fill="#12263f"/>
          <path id="Trazado_160677" data-name="Trazado 160677" d="M112.782,231.666l1.01,5.823a3.758,3.758,0,0,0,3.137.246l-.45-6.26Z" transform="translate(-96.826 -81.538)" fill="url(#linear-gradient-2)"/>
          <path id="Trazado_160678" data-name="Trazado 160678" d="M112.194,190.746c-4.539,25.863.322,64.03,2.011,71.509a1.166,1.166,0,0,0,.932.893,7.818,7.818,0,0,0,3.358-.1,1.067,1.067,0,0,0,.776-.974c.294-6.031.221-43.063,4.36-57.66a3.319,3.319,0,0,1,1.3-1.822l7.814-5.445.68-8.914Z" transform="translate(-98.457 -110.038)" fill="#a7e446"/>
          <g id="Grupo_116163" data-name="Grupo 116163" transform="translate(12.322 12.309)">
            <path id="Trazado_160679" data-name="Trazado 160679" d="M139.826,161.1c-12.861-.335-27.087,3.119-27.087,3.119-4.048,22.336-1.13,48.17-1.13,48.17C121.542,215.1,132.815,211,132.815,211c1.745-9.335,9.719-35.578,9.719-35.578a42.394,42.394,0,0,0,15.772-4.841,27.569,27.569,0,0,1-5.342-11.454A43.173,43.173,0,0,1,139.826,161.1Z" transform="translate(-110.592 -141.527)" fill="#12263f"/>
            <path id="Trazado_160680" data-name="Trazado 160680" d="M161.17,149.512a2.461,2.461,0,0,0-2.855-.831c-1.969,7.978-11.957,14.366-22.183,17.438a27.57,27.57,0,0,0,5.342,11.454C158.487,168.219,161.17,149.512,161.17,149.512Z" transform="translate(-93.76 -148.518)" fill="url(#linear-gradient-3)"/>
          </g>
          <g id="Grupo_116164" data-name="Grupo 116164" transform="translate(76.907)">
            <path id="Trazado_160681" data-name="Trazado 160681" d="M152.036,154.788c.128.421-1.41,1.047-2.294-.682-.023-.825-.491-4.358.008-5.025a65.832,65.832,0,0,1,7.781-7.982,1.21,1.21,0,0,1,.136,1.682l-2.49,2.545a11.969,11.969,0,0,1,1.412,2.86,3.456,3.456,0,0,1-.368,2.54c-.44.776-1.04,1.783-1.606,2.572A3.418,3.418,0,0,1,152.036,154.788Z" transform="translate(-149.521 -141.099)" fill="url(#linear-gradient-4)"/>
            <path id="Trazado_160682" data-name="Trazado 160682" d="M153.458,144.646l-2.265,1.883-.725,1.89,1.983,2.243a25.8,25.8,0,0,1,1.219-4.567C154.178,145.285,153.922,144.888,153.458,144.646Z" transform="translate(-148.896 -138.761)" fill="url(#linear-gradient-5)"/>
          </g>
          <path id="Trazado_160683" data-name="Trazado 160683" d="M122.329,174.7l-4.815-12.5s-12.093,8.05-14.168,18.38a28.47,28.47,0,0,1,10.419,2.9C114.7,178.6,122.329,174.7,122.329,174.7Z" transform="translate(-103.045 -127.193)" fill="#12263f"/>
          <path id="Trazado_160684" data-name="Trazado 160684" d="M132.836,179.221s-13.563,7.494-18.052.941a5.12,5.12,0,0,1-.9-3.985,28.47,28.47,0,0,0-10.419-2.9,14.287,14.287,0,0,0,1.46,9.808c7.834,14.661,29.663-.523,29.663-.523Z" transform="translate(-103.164 -119.892)" fill="url(#linear-gradient-6)"/>
          <path id="Trazado_160685" data-name="Trazado 160685" d="M122.1,153.95l-4.206,11.8a.426.426,0,0,0,.189.516,9.623,9.623,0,0,0,9.986-.576,2.006,2.006,0,0,0,.937-1.425l1.423-10.231Z" transform="translate(-93.473 -132.63)" fill="url(#linear-gradient-7)"/>
          <g id="Grupo_116165" data-name="Grupo 116165" transform="translate(20.901 4.289)">
            <path id="Trazado_160686" data-name="Trazado 160686" d="M130.031,147.394s4.413,8.5,3.8,11.915-6.177,3.114-11.014.292l-3.311-9.168Z" transform="translate(-113.293 -141.24)" fill="url(#linear-gradient-8)"/>
            <path id="Trazado_160687" data-name="Trazado 160687" d="M125.548,157.561a.35.35,0,0,0,.158-.509,9.083,9.083,0,0,1-1.226-2.666s-.8-.526,2.067-1.183,7.154-1.682,8.075-4.111c.9-2.369-1.345-8.37-5.06-3.642a.348.348,0,0,1-.552,0,3.594,3.594,0,0,0-4.365-1.463,3.294,3.294,0,0,0-2.288,3.164.348.348,0,0,1-.415.352,4.022,4.022,0,0,0-4.717,2.143c-.977,2.1-.367,3.3.2,3.884a.348.348,0,0,1-.154.576,2.094,2.094,0,0,0-1.5,2.374c.1,2.213,2.576,2.041,3.28,1.948a.346.346,0,0,1,.309.111c.6.675,3.29,3.537,6.23,3.907a.352.352,0,0,0,.373-.461l-1.238-3.715a.351.351,0,0,1,.192-.433Z" transform="translate(-115.762 -143.684)" fill="#12263f"/>
            <path id="Trazado_160688" data-name="Trazado 160688" d="M123.334,152.811s-3.179-2.226-3.429-.38,2.855,2.706,4.4,2.031Z" transform="translate(-113.042 -138.403)" fill="url(#linear-gradient-9)"/>
          </g>
          <g id="Grupo_116167" data-name="Grupo 116167" transform="translate(26.871 43.229)">
            <g id="Grupo_116166" data-name="Grupo 116166">
              <path id="Trazado_160689" data-name="Trazado 160689" d="M119.391,195.1l7.388-25.8a.752.752,0,0,1,.635-.542c1.339-.156,5.218-.594,9.7-.972a109.948,109.948,0,0,1,15.4-.513.755.755,0,0,1,.617,1.087c-2.129,4.307-10.885,21.825-15.27,27.563a.753.753,0,0,1-.609.3l-17.141-.159A.753.753,0,0,1,119.391,195.1Z" transform="translate(-119.361 -167.156)" fill="#a7e446"/>
              <path id="Trazado_160690" data-name="Trazado 160690" d="M120.737,183.737s-1.029-4.232-.614-5.734,1.219-3.431,3.9-3a39.3,39.3,0,0,1,5.845,1.559,1.536,1.536,0,0,1-2.2,1.324l1.264.977s-.181,1.566-1.9.73l1.176,1.3a1.369,1.369,0,0,1-2.006.461C124.936,180.523,124.329,184.246,120.737,183.737Z" transform="translate(-118.924 -162.026)" fill="url(#linear-gradient-10)"/>
            </g>
            <path id="Trazado_160691" data-name="Trazado 160691" d="M129.762,173.038a2.169,2.169,0,1,0,2.17-2.168A2.169,2.169,0,0,0,129.762,173.038Z" transform="translate(-112.506 -164.708)" fill="#91b3fa"/>
            <path id="Trazado_160692" data-name="Trazado 160692" d="M124.556,176.257l1.5-5.1a1.748,1.748,0,0,1,1.316-1.228c4.713-.984,17.617-1.193,17.747-1.195l-.008-.576c-.533.007-13.088.211-17.856,1.206a2.323,2.323,0,0,0-1.75,1.629l-1.5,5.1Z" transform="translate(-116.302 -166.496)" fill="#bdd0fb"/>
          </g>
        </g>
        <g id="Grupo_116179" data-name="Grupo 116179" transform="translate(232.122 190.469)">
          <g id="Grupo_116169" data-name="Grupo 116169" transform="translate(100.121)">
            <path id="Trazado_160693" data-name="Trazado 160693" d="M240.375,150.015a.489.489,0,0,1,.9.1c.438,1.576,1.5,4.328,3.723,5.306.113.05.219.1.322.149a1.14,1.14,0,0,0-.139-1.024c-.692-1.057.556-2.5.556-2.5a3.22,3.22,0,0,0,1.05,2.072,3.1,3.1,0,0,1,.664,3.484c-1.2,4.677-3.008,10.863,4.017,15.383s16.917-8.529,16.917-8.529l-4.911,15.565s-7.578,5.593-16.393-2.271-2.973-19.306-2.973-19.306S237.389,155.727,240.375,150.015Z" transform="translate(-239.61 -134.463)" fill="url(#linear-gradient-11)"/>
            <path id="Trazado_160694" data-name="Trazado 160694" d="M259.011,147.656s-2.036-9.128,8.421-6.712c0,0,5.077-.828,5.334,3.962,0,0,3.272,2.157.876,6.3,0,0,9.724-3.756,13.961,4.766s.342,13.213-3.739,14.434a4.068,4.068,0,0,1,1.742,5.412c-1.566,3.749-9.495,6.392-14.178,1.832,0,0-13.327,1.762-13.06-7.651,0,0-6.2-4,.312-11.782S259.011,147.656,259.011,147.656Z" transform="translate(-229.004 -140.537)" fill="#12263f"/>
            <path id="Trazado_160695" data-name="Trazado 160695" d="M260.593,157.8a14.349,14.349,0,0,1,14.039,3.579,3.6,3.6,0,0,1,1.039,3.59c-1.563,5.755-5.687,22.755-2.072,30.111,0,0-6.372,7.024-13.324,1.364,0,0-3.119-13.594-7.2-19.563-2.822-4.119,4.5-15.47,6.349-18.213A2.168,2.168,0,0,1,260.593,157.8Z" transform="translate(-231.16 -129.526)" fill="#fc4b52"/>
            <path id="Trazado_160696" data-name="Trazado 160696" d="M262.5,150.691s3.107,8.791,3.341,12.668a6.647,6.647,0,0,1-6.671-1.075s-.34-8.78-.83-10.351Z" transform="translate(-227.266 -133.845)" fill="url(#linear-gradient-12)"/>
            <path id="Trazado_160697" data-name="Trazado 160697" d="M260.16,143.493s-8.128,11.376-3.27,14.679,10.646-4.78,10.646-4.78,1.885-6.226-.086-8.338S260.16,143.493,260.16,143.493Z" transform="translate(-229.242 -138.631)" fill="url(#linear-gradient-13)"/>
            <path id="Trazado_160698" data-name="Trazado 160698" d="M262.218,141.889s-3.734.884-4.257,2.573,5.294,3.257,6.925,3.333l1.314,6.819s3.884-6.414,2.344-10.118S262.218,141.889,262.218,141.889Z" transform="translate(-227.538 -139.745)" fill="#12263f"/>
            <path id="Trazado_160699" data-name="Trazado 160699" d="M261.742,149.758s3.164-3.665,4.421-1.276-2.847,4.182-4.269,3.01Z" transform="translate(-225.024 -135.833)" fill="url(#linear-gradient-14)"/>
            <path id="Trazado_160700" data-name="Trazado 160700" d="M252.964,198.079c.025.617-1.058,5.511-1.649,8.123a4.308,4.308,0,0,0,.463,3.086l20.423,34.37a4.706,4.706,0,0,1,.536,1.339,29.424,29.424,0,0,1,.745,9.161l-1.055,2.195L277,255.314l.994-12.27-1.294-.788a6.155,6.155,0,0,1-2.485-2.91c-1.846-4.486-6.432-15.9-7.615-21.47-1.344-6.324-8.366-11.461-8.366-11.461l1.234-2.917Z" transform="translate(-231.966 -102.615)" fill="url(#linear-gradient-15)"/>
            <path id="Trazado_160701" data-name="Trazado 160701" d="M274.19,233.6s-2.467-3.91-2.757-5.433-1.1-4.212-2.62-3.4a89.337,89.337,0,0,0-.469,10.288c.247,2.89-3.267,2.8-3.267,2.8a3.287,3.287,0,0,0-1.679.844.823.823,0,0,0,.552,1.384,19.7,19.7,0,0,0,4.894-.277,1.5,1.5,0,0,0,1.208-1.38l.508-8.514,3.112,3.93Z" transform="translate(-224.084 -85.125)" fill="#12263f"/>
            <path id="Trazado_160702" data-name="Trazado 160702" d="M261.309,201.708s.72,30.745.818,35.112-.69,14.044-5.067,16.935l1.9,1.41a25.44,25.44,0,0,0,4.707-5.916,35.813,35.813,0,0,1,3.4-5.174l-.868-1.775a3.9,3.9,0,0,1-.317-2.5c.946-4.577,4.1-19.805,4.962-23.085,1.015-3.872,1.088-9.042-2.447-13.368S261.309,201.708,261.309,201.708Z" transform="translate(-228.11 -100.769)" fill="url(#linear-gradient-16)"/>
            <path id="Trazado_160703" data-name="Trazado 160703" d="M266.2,239.684a.269.269,0,0,0,.27-.229,39.625,39.625,0,0,1,1.248-6.2c.569-1.218,2.426-6.347,0-6.782,0,0-6.031,8.813-7.189,10a2.271,2.271,0,0,1-2.62.415,4.364,4.364,0,0,0-1.979,1.42.8.8,0,0,0,.629,1.284l4.063.038a2.859,2.859,0,0,0,2.681-1.8c.715-1.787,1.943-4.406,3.374-5.569l-.743,7.124a.269.269,0,0,0,.267.3Z" transform="translate(-228.963 -83.902)" fill="#12263f"/>
            <path id="Trazado_160704" data-name="Trazado 160704" d="M260.256,179.675s.914,2.918-.491,7.726l-8.726,30.468a.943.943,0,0,0,.591,1.148,58.181,58.181,0,0,0,22.9,2.777,1.329,1.329,0,0,0,1.213-1.035c.771-3.474,3.4-15.324,3.947-17.76,2.065-9.279,4.371-19.286-5.775-25.337C269.238,179.667,264.876,180.847,260.256,179.675Z" transform="translate(-232.102 -116.069)" fill="#a7e446"/>
            <path id="Trazado_160705" data-name="Trazado 160705" d="M269.62,160.714s9.928,8.25,12.391,19.523S267.5,192.71,267.5,192.71s-2.3-2.573-5.04-1.656-.211-4.489,2.99-4.476,1.717,2.545,6.245.494c4.41-2,7.135-8.176-4.116-17.539a5.117,5.117,0,0,1-1.486-2.024C263.91,162.006,265.643,158.4,269.62,160.714Z" transform="translate(-225.316 -127.709)" fill="url(#linear-gradient-17)"/>
          </g>
          <g id="Grupo_116178" data-name="Grupo 116178" transform="translate(0 27.963)">
            <g id="Grupo_116172" data-name="Grupo 116172" transform="translate(60.463 80.155)">
              <g id="Grupo_116170" data-name="Grupo 116170" transform="translate(18.299 9.119)">
                <rect id="Rectángulo_40639" data-name="Rectángulo 40639" width="3.541" height="38.295" fill="#7d97f4"/>
              </g>
              <g id="Grupo_116171" data-name="Grupo 116171" transform="translate(4.563 45.848)">
                <path id="Trazado_160706" data-name="Trazado 160706" d="M249.47,235.645H218.456V233.6a.256.256,0,0,1,.255-.255h30.5a.256.256,0,0,1,.256.255Z" transform="translate(-218.456 -233.341)" fill="#7d97f4"/>
              </g>
              <rect id="Rectángulo_40640" data-name="Rectángulo 40640" width="41.442" height="11.754" rx="2.439" fill="#7d97f4"/>
            </g>
            <g id="Grupo_116174" data-name="Grupo 116174" transform="translate(28.063)">
              <path id="Trazado_160707" data-name="Trazado 160707" d="M213.18,227.634s-11.447,4.931-10.792,10.092c0,0,11.834-2.27,13.951-5.652s.952-5.342.952-5.342Z" transform="translate(-192.1 -111.695)" fill="#12263f"/>
              <path id="Trazado_160708" data-name="Trazado 160708" d="M212.529,223.878l.581,5.025a1.661,1.661,0,0,1-1.05,1.764,4.356,4.356,0,0,1-1.452.222,1.936,1.936,0,0,1-1.88-1.412l-1.126-4.063Z" transform="translate(-188.646 -113.575)" fill="url(#linear-gradient-18)"/>
              <path id="Trazado_160709" data-name="Trazado 160709" d="M239.969,200.678s-21.056-.975-31.533,5.135.531,35.435.531,35.435,2.737.589,6.678-1.518c0,0-5.624-21.466,4.146-25.2a56.25,56.25,0,0,1,22.342-3.179l-2.1-10.011Z" transform="translate(-191.077 -128.902)" fill="#a7e446"/>
              <path id="Trazado_160710" data-name="Trazado 160710" d="M205.448,233.355c2.394-.526,9.493-3.467,10.571-3.428s2.606,1.656,2.606,1.656a2.863,2.863,0,0,1-.508,2.15c-1.83,1.427-5.77,4.046-10.352,4.333a7.685,7.685,0,0,1-6.556-2.43A9.362,9.362,0,0,1,205.448,233.355Z" transform="translate(-192.859 -109.589)" fill="#12263f"/>
              <path id="Trazado_160711" data-name="Trazado 160711" d="M208.173,236.554c4.582-.287,8.522-2.907,10.352-4.333a8.934,8.934,0,0,1-3.381,2.945c-4.63,2.616-12.282,2.235-13.8,1.646-1.214-.473-.839-1.608.272-2.688A7.685,7.685,0,0,0,208.173,236.554Z" transform="translate(-193.266 -108.077)" fill="url(#linear-gradient-19)"/>
              <path id="Trazado_160712" data-name="Trazado 160712" d="M215.8,230.408a17.05,17.05,0,0,1-2.8,3.366,1.914,1.914,0,0,1-1.773.534,4.905,4.905,0,0,1-1.271-.446,1.236,1.236,0,0,1-.478-1.684l2.452-4.46Z" transform="translate(-187.516 -111.044)" fill="url(#linear-gradient-20)"/>
              <path id="Trazado_160713" data-name="Trazado 160713" d="M256.93,199.59s1.838,13.038-3.476,15.7-16.97,4.41-20.985,11.172-11.225,20.036-17.786,23.85c0,0-3.748-1.219-4.843-3.061,0,0,7.789-20.476,11.038-25.451,2.814-4.31,6.928-10.52,12.775-13.2,1.674-.77,1.805-2.545,1.51-4.362l-.536-3.311Z" transform="translate(-187.171 -129.582)" fill="#a7e446"/>
              <path id="Trazado_160714" data-name="Trazado 160714" d="M209.161,198.368c7.451,2.127,10.785-18.842,10.756-19.351l11.422,13.355s-6.805,11.977-17.083,13.252a12.143,12.143,0,0,1-6.668-.977A10.681,10.681,0,0,0,209.161,198.368Z" transform="translate(-188.655 -143.14)" fill="#12263f"/>
              <path id="Trazado_160715" data-name="Trazado 160715" d="M202.885,186.693c3.247-1.334,6,1.329,6,1.329,3.217,3.293,5.768,4.956,7.794,5.535a10.681,10.681,0,0,1-1.573,6.279,16.624,16.624,0,0,1-7.318-7.413,1.394,1.394,0,0,0-1.838-.624c-.688.333-1.4.841-1.442,1.531-.088,1.359-1.705,1.44-1.715.937a20.1,20.1,0,0,1,1.253-3.189s-3.731,2.394-5.183,3.308-2.689-.594-2.689-.594S199.638,188.028,202.885,186.693Z" transform="translate(-196.176 -138.328)" fill="url(#linear-gradient-21)"/>
              <path id="Trazado_160716" data-name="Trazado 160716" d="M250.726,174.564s-10.012-6.83-34.193,5.523c0,0-2.49,3.157-1.322,6.716s15.522,22.818,16.081,31.858c0,0,9.813,5.778,22.553.05C253.845,218.711,258.118,194.838,250.726,174.564Z" transform="translate(-183.837 -147.316)" fill="#12263f"/>
              <path id="Trazado_160717" data-name="Trazado 160717" d="M227.06,168.553l3.957,7.753a2.208,2.208,0,0,1-.229,2.377,6.3,6.3,0,0,1-7.245,2.017,3.4,3.4,0,0,1-2.318-2.467l-2.051-8.654Z" transform="translate(-181.019 -150.036)" fill="url(#linear-gradient-22)"/>
              <path id="Trazado_160718" data-name="Trazado 160718" d="M245.641,200.89c.679-4.713-11.776-13.848-11.776-13.848l4.362-13.226s23.764,16.96,18.767,30.808a9.688,9.688,0,0,1-3.087,4.458C251.389,203.921,247.977,201.776,245.641,200.89Z" transform="translate(-171.338 -146.567)" fill="#12263f"/>
              <path id="Trazado_160719" data-name="Trazado 160719" d="M234.686,191.442s14.087,3.935,17.01-.353a2.259,2.259,0,0,0,.363-.954c2.336.886,5.749,3.031,8.265,8.192-6.689,5.262-19.587-.637-23.09-2.406a2.475,2.475,0,0,0-1.855-.154,16.921,16.921,0,0,1-4.61.926c-1.76-.1-3.648,6.266-6.644,4.655C224.125,201.348,225.485,190.48,234.686,191.442Z" transform="translate(-177.757 -135.813)" fill="url(#linear-gradient-23)"/>
              <g id="Grupo_116173" data-name="Grupo 116173" transform="translate(32.607)">
                <path id="Trazado_160720" data-name="Trazado 160720" d="M224.193,161.047c-.126.108-5.345,9.223-8,13.87a2.732,2.732,0,0,0,1.3,3.869l1.15.493c1.573.674,4.956,1.239,6.286.164l8.39-8.856S227.015,158.6,224.193,161.047Z" transform="translate(-215.83 -155.2)" fill="url(#linear-gradient-24)"/>
                <path id="Trazado_160721" data-name="Trazado 160721" d="M233.43,170.361a2.7,2.7,0,0,0,1.3-3.819,3.815,3.815,0,0,0-4.159-2.152,1.044,1.044,0,0,1-1.107-.752.824.824,0,0,0-.73-.591,1.025,1.025,0,0,1-.81-1.284,3.11,3.11,0,0,0-1.551-3.728c-3.194-1.934-6.178.874-7.009,3.315s2.749,4.342,5.035,4.728c1.739.3,2.586,2.3,2.893,3.245a1.031,1.031,0,0,1-.121.888l-2.552,3.875c.7.883,1.324,1.815,1.936,2.759.229-.247.43-.453.587-.6,1.108-1.014,3.078-.491,3.889-.211a1.026,1.026,0,0,0,.806-.06,2.7,2.7,0,0,0,1.2-4.166A1.043,1.043,0,0,1,233.43,170.361Z" transform="translate(-213.58 -157.392)" fill="#12263f"/>
                <path id="Trazado_160722" data-name="Trazado 160722" d="M223.093,171.693s1.631-4.192,3.486-3.958,3.24,2.148.848,4.136C224.45,174.341,223.093,171.693,223.093,171.693Z" transform="translate(-211.044 -150.581)" fill="url(#linear-gradient-25)"/>
              </g>
            </g>
            <g id="Grupo_116175" data-name="Grupo 116175" transform="translate(2.24 34.717)">
              <path id="Trazado_160723" data-name="Trazado 160723" d="M233.336,197.514l-.076,0-32.91-.036a1.473,1.473,0,1,1,0-2.946l32.91.036a1.473,1.473,0,0,1,.073,2.945Z" transform="translate(-168.573 -167.632)" fill="url(#linear-gradient-26)"/>
              <path id="Trazado_160724" data-name="Trazado 160724" d="M182.8,178.318h27.409a5.22,5.22,0,0,1,4.723,3l12.672,26.868H193.545a3.177,3.177,0,0,1-2.953-2.007l-9.825-24.864A2.188,2.188,0,0,1,182.8,178.318Z" transform="translate(-180.611 -178.318)" fill="#a7e446"/>
              <path id="Trazado_160725" data-name="Trazado 160725" d="M195.309,187.712c.594,1.845.154,3.637-.98,4s-2.537-.835-3.131-2.681-.156-3.637.98-4S194.715,185.868,195.309,187.712Z" transform="translate(-173.808 -173.936)" fill="#91b3fa"/>
            </g>
            <g id="Grupo_116177" data-name="Grupo 116177" transform="translate(0 64.286)">
              <g id="Grupo_116176" data-name="Grupo 116176" transform="translate(7.492 2.943)">
                <path id="Trazado_160726" data-name="Trazado 160726" d="M185.159,265.874a1.437,1.437,0,0,1-.546-.11,1.324,1.324,0,0,1-.723-1.76l29-65.278a1.4,1.4,0,0,1,1.817-.7,1.324,1.324,0,0,1,.723,1.76l-29,65.278A1.384,1.384,0,0,1,185.159,265.874Z" transform="translate(-183.777 -197.915)" fill="#91b3fa"/>
                <path id="Trazado_160727" data-name="Trazado 160727" d="M216.378,265.874a1.388,1.388,0,0,1-1.272-.811l-29-65.278a1.324,1.324,0,0,1,.725-1.76,1.4,1.4,0,0,1,1.817.7l29,65.278a1.324,1.324,0,0,1-.723,1.76A1.443,1.443,0,0,1,216.378,265.874Z" transform="translate(-182.32 -197.915)" fill="#91b3fa"/>
                <path id="Trazado_160728" data-name="Trazado 160728" d="M239.277,265.874a1.443,1.443,0,0,1-.546-.11,1.324,1.324,0,0,1-.723-1.76l29-65.278a1.4,1.4,0,0,1,1.817-.7,1.324,1.324,0,0,1,.725,1.76l-29.007,65.278A1.384,1.384,0,0,1,239.277,265.874Z" transform="translate(-148.111 -197.915)" fill="#91b3fa"/>
                <path id="Trazado_160729" data-name="Trazado 160729" d="M270.5,265.874a1.384,1.384,0,0,1-1.271-.811l-29.006-65.278a1.324,1.324,0,0,1,.725-1.76,1.4,1.4,0,0,1,1.817.7l29,65.278a1.324,1.324,0,0,1-.723,1.76A1.437,1.437,0,0,1,270.5,265.874Z" transform="translate(-146.654 -197.915)" fill="#91b3fa"/>
              </g>
              <path id="Trazado_160730" data-name="Trazado 160730" d="M314,197.88a1.6,1.6,0,0,0-.275-1.208,1.253,1.253,0,0,0-1.007-.531H180.763a1.473,1.473,0,0,0-1.266.775,1.862,1.862,0,0,0-.1,1.611l1.43,3.466a2,2,0,0,0,1.818,1.3H311.809a1.573,1.573,0,0,0,1.49-1.374Z" transform="translate(-179.261 -196.141)" fill="#91b3fa"/>
            </g>
          </g>
        </g>
      </g>
    </g>
  </g>
</svg>
