<svg xmlns="http://www.w3.org/2000/svg" xmlns:xlink="http://www.w3.org/1999/xlink" width="504.999" height="331.405" viewBox="0 0 504.999 331.405">
  <defs>
    <clipPath id="clip-path">
      <path id="Trazado_158123" data-name="Trazado 158123" d="M4461.649-1127.943h371.759a32.164,32.164,0,0,1,32.165,32.163v210.04l-72.445,63.651H4420.092a32.163,32.163,0,0,1-32.163-32.163v-204.262Z" transform="translate(-4387.929 1127.943)" fill="#79d2dc"/>
    </clipPath>
  </defs>
  <g id="Grupo_117461" data-name="Grupo 117461" transform="translate(4914 9068.815)">
    <g id="Grupo_116463" data-name="Grupo 116463" transform="translate(-4914 -9068.815)">
      <g id="Enmascarar_grupo_116" data-name="Enmascarar grupo 116" transform="translate(13.678 12.775)" clip-path="url(#clip-path)">
        <g id="Rectángulo_40687" data-name="Rectángulo 40687" transform="translate(-38.929 -23.46)" fill="#f3f9ff" stroke="#707070" stroke-width="1">
          <rect width="534.037" height="352.237" stroke="none"/>
          <rect x="0.5" y="0.5" width="533.037" height="351.237" fill="none"/>
        </g>
        <g id="Grupo_116473" data-name="Grupo 116473" transform="translate(-30.644 -43.226)">
          <path id="Trazado_161142" data-name="Trazado 161142" d="M382.509,190.31q0,43.287.049,86.572c.007,3-.138,4.379-4,3.833-29.733-4.208-59.506-8.146-89.269-12.139q-44.476-5.963-88.957-11.873c-12.908-1.722-25.81-3.49-38.731-5.117-2.346-.294-3.226-1.04-3.221-3.568q.123-54.695-.012-109.391c-.007-2.54.934-3.261,3.209-3.624q54.129-8.65,108.237-17.424,36.6-5.916,73.18-11.881c12.263-1.989,24.545-3.859,36.783-5.994,3.035-.53,2.742,1.019,2.741,2.947Q382.49,146.48,382.509,190.31Zm-99.421-8.948c.562-.267.517-.524-.012-.775-4.829-2.026-5.971-1.323-5.971,3.685,0,5.859-.02,11.719.026,17.58.009,1.114-.559,2.829.944,3.1,1.67.3,3.842,1.321,5.027-1.127.54-.267.519-.522-.016-.767Q282.631,192.206,283.088,181.362Zm-49.194,23.163c2.2,1.976,4.4,2.027,6.589-.022a2.68,2.68,0,0,0,.66-2.318q0-15.424,0-30.848c0-.833.071-1.693-.686-2.3-1.9-2.1-4.526-2.105-6.545-.019-.924.69-.733,1.7-.742,2.644q-.138,16.027-.255,32.055C232.911,204.332,233.414,204.438,233.894,204.525Zm78.692-18.054c-1.713-6.15-4.794-8.176-10.4-6.96-2.159.467-3.65,2.086-5.886,3.48.575-3.368-1.317-3.189-3.232-3.2-1.617-.013-2.058.706-2.048,2.193.043,6.989.066,13.977-.006,20.966-.023,2.111,1.131,2.267,2.764,2.261,1.731-.007,3.082-.072,2.987-2.431-.134-3.369-.045-6.747-.019-10.12a10.259,10.259,0,0,1,2.3-6.69,4.866,4.866,0,0,1,5.176-1.765c2.143.536,2.588,2.362,2.63,4.246.089,4.094.1,8.19.122,12.287.022,4.977.545,5.336,5.758,3.86.281-.493.8-.983.807-1.48.068-4.981.052-9.966.055-14.948A1.592,1.592,0,0,0,312.586,186.471Zm-120.792,4.3c-.68.481-.661.952.022,1.414q.006,5.449.014,10.9c-.092.063-.271.154-.261.189a3.412,3.412,0,0,0,.239.51c1.751,2.539,3.934,1.421,6.068.716,1.04-.206,1.241-.945,1.239-1.867-.009-10,0-19.992,0-30.527l-1.2,1.928c.062-2.509-.893-3.477-3.641-3.359-3.218.137-2.174,2.259-2.246,3.8-.128,2.77-.084,5.551-.016,8.323.036,1.464-.337,2.2-2,2.166q-5.97-.138-11.947-.006c-1.6.033-2.134-.569-2.1-2.105.072-3.016-.112-6.043.082-9.048.154-2.37-.612-3.143-3.02-3.15-2.353-.006-2.807.918-2.79,3.009q.123,14.118,0,28.238c-.017,2.105.2,3.334,2.846,3.35,2.543.016,3.154-.974,2.941-3.2-.115-1.2-.02-2.412-.02-3.618,0-8.568,0-8.669,8.695-8.5C187.043,189.987,189.635,188.827,191.793,190.775Zm140.14,10.188,0,.053c-1.563-.071-3.134-.071-4.687-.236a1.547,1.547,0,0,1-1.512-1.7c.071-1.092.914-1.313,1.81-1.324.722-.009,1.444.092,2.166.1,6.235.042,12.634-3.762,10.679-11.8-.288-1.184-.192-1.787,1.184-1.921,1.581-.156,1.261-1.487,1.317-2.52.053-.948-.277-1.821-1.344-1.733-5.164.424-10.327-1.438-15.474-.048-5.553,1.5-8.953,7.334-6.8,12.324,1.117,2.592,2.961,4.693.56,7.512-.686.805-.313,2.228.452,3.04,1.156,1.229.906,1.937-.164,3.177-3.742,4.34-2.311,9.673,3.123,11.461a17.664,17.664,0,0,0,15.6-2.029,8.465,8.465,0,0,0,3.314-9.564c-1.105-3.628-4.085-4.431-7.323-4.774A27.667,27.667,0,0,0,331.933,200.963Zm-68.416,1.29c-.291,3.636,1.947,2.88,3.624,2.918,2.393.055,1.813-1.8,1.818-3.117.036-10.254.01-20.506.027-30.76,0-1.85.316-3.522-2.621-3.5-2.7.016-3.347,1.059-3.153,3.445.147,1.8-.016,3.618.059,5.425.078,1.88-.392,2.731-2.62,2.762-9.809.141-14.708,5.48-14.3,15.35.166,3.978.978,7.731,4.97,9.752C255.583,206.685,259.465,205.859,263.517,202.253Zm-35.351-10.513c0-5.976-1.86-9.463-6.036-11.343a12.709,12.709,0,0,0-16.193,4.669c-3.339,5.215-2.445,14.3,1.758,18.111a9.23,9.23,0,0,0,3.816,1.957C220.7,207.718,228.172,201.7,228.166,191.739Zm130.055-12.6a40.333,40.333,0,0,0-4.726.84c-3.474,1.02-5.564,3.409-5.685,7.059-.12,3.584,1.9,5.8,5.255,6.872,1.146.367,2.29.752,3.4,1.216,1.4.586,2.657,1.451,2.359,3.19a3.183,3.183,0,0,1-3.1,2.6c-1.546.148-3.121,0-4.683,0-1.029,0-2.578-1.1-2.64,1.105-.043,1.509-.447,3.193,1.954,3.493,3.806.476,7.491.261,10.836-1.731a7.209,7.209,0,0,0,3.656-6.627c-.026-2.9-1.624-4.686-4.089-5.84-1.2-.561-2.473-.952-3.68-1.5-1.625-.733-3.748-1.32-3.28-3.647.478-2.367,2.67-2.483,4.636-2.535a15.089,15.089,0,0,1,2.5.269c.914.131,2.105.686,2.154-.885.036-1.19.8-2.831-1.039-3.385A24.213,24.213,0,0,0,358.221,179.141Zm-74.628-6.516c-.395-2.157-1.539-3.513-3.863-3.363a3.224,3.224,0,0,0-3.3,3.494c.033,2.313,1.608,3.454,3.784,3.366C282.267,176.039,283.37,174.681,283.592,172.625Z" transform="translate(39.209 0)" fill="#c63f37"/>
          <path id="Trazado_161143" data-name="Trazado 161143" d="M112,161.264c1.415-.807,2.308-1.35,3.234-1.834a8.968,8.968,0,0,1,12.659,4.425c2.278,5.336.947,13.467-2.833,17.309-3.48,3.536-12.418,4.967-17.457,2.886-1.282-.529-1.444-1.425-1.442-2.576.012-10.744.055-21.488-.029-32.23-.019-2.483,1.465-2.2,3.088-2.294,1.938-.107,2.9.383,2.82,2.574C111.895,153.256,112,157,112,161.264Zm.027,13.366c.584,1.437-1.317,3.912.989,5.21,2.889,1.627,7.545-.3,8.931-3.44a15.191,15.191,0,0,0,.749-8.542c-.33-2.206-1.182-4.267-3.857-4.594-2.63-.321-4.366,1.01-5.538,3.216C112.007,168.911,111.863,171.552,112.024,174.63Z" transform="translate(16.172 20.873)" fill="#c5453b"/>
          <path id="Trazado_161144" data-name="Trazado 161144" d="M76.736,184.573c-1.164-.111-2.483-.34-3.8-.342-2.957,0-2.788-1.914-2.6-3.958.272-2.859,2.022-1.412,3.425-1.3a32.966,32.966,0,0,0,6.121.137,4.47,4.47,0,0,0,4.372-4.1,4.381,4.381,0,0,0-2.963-4.83c-2.1-.906-4.222-1.785-6.288-2.771-3.718-1.774-5.752-4.637-5.54-8.889.206-4.1,2.5-7.055,6.61-8.569,3.146-1.16,6.363-1.042,9.64-.863,2.415.133,2.974,1.009,2.7,3.391-.308,2.728-1.683,1.915-3.242,1.572a11.285,11.285,0,0,0-5.734.04c-1.9.584-3.5,1.638-3.7,3.947-.193,2.157,1.085,3.386,2.731,4.284a49.065,49.065,0,0,0,4.607,2.081c6.108,2.555,8.074,5.422,7.383,10.833-.584,4.582-4.525,8.18-9.958,9.029C79.317,184.452,78.1,184.466,76.736,184.573Z" transform="translate(0 21.774)" fill="#c5483e"/>
          <path id="Trazado_161145" data-name="Trazado 161145" d="M89.061,161.151c-1.163-3.863.212-5.725,3.951-5.94,1.318-.075,2.631-.33,3.95-.347,8-.1,10.368,2.245,10.4,10.189.016,4.333.1,8.666.105,13,0,1.023.352,2.5-1.091,2.68-1.419.18-3.435.976-4.2-.846-.774-1.85-1.448-.942-2.311-.382a10.026,10.026,0,0,1-5.736,1.9c-3.234-.066-5.931-1.006-7.036-4.427a7.579,7.579,0,0,1,3.285-8.781,17.876,17.876,0,0,1,8.182-2.562c1.159-.092,3.006.581,3.049-1.517.039-1.836-.373-3.578-2.558-4.268S95.068,159.3,89.061,161.151Zm6.515,15.541a6.355,6.355,0,0,0,5.97-5.617c.081-1.723-1-1.6-2.1-1.6-3.833,0-7.059,1.862-7.068,4.186C92.368,175.717,93.6,176.65,95.575,176.692Z" transform="translate(7.616 24.368)" fill="#c64a40"/>
          <path id="Trazado_161146" data-name="Trazado 161146" d="M151.416,168.975c-1.569,0-3.138-.014-4.708.007-3.134.043-3.863,1.265-2.571,4.274,1.561,3.634,5.649,4.974,11.371,3.108,2.742-.893,3.023.189,3.248,2.305.163,1.519-.71,1.814-1.833,2.143a22.855,22.855,0,0,1-11.091.566,9.7,9.7,0,0,1-4.167-2.032c-4.144-3.31-5.46-12.094-2.618-17.754,2.623-5.226,7.9-7.516,13.693-5.942,4.857,1.318,8.225,7.209,7.006,12.022-.347,1.372-1.245,1.271-2.176,1.288C155.519,169,153.468,168.971,151.416,168.975Zm-2.388-3.876c1.47-1.1,4.589,1.465,4.715-1.787.1-2.506-2.2-3.765-4.8-3.684s-4.963,1.631-4.817,3.879C144.31,166.383,147.368,164.188,149.028,165.1Z" transform="translate(30.02 24.501)" fill="#c64a40"/>
          <path id="Trazado_161147" data-name="Trazado 161147" d="M126.253,168.247c0-3.258-.019-6.515.007-9.771.023-2.855,2.866-4.729,4.519-2.755,1.991,2.378,2.85.673,4.241-.073,1.308-.7,2.846-1.245,4.133-.484,1.347.8.513,2.429.618,3.693s-.671,1.651-1.813,1.65c-4.074,0-5.431,2.784-5.752,6.123-.333,3.47-.235,6.986-.236,10.481,0,2.11.327,3.941-2.987,3.908-3.161-.033-2.769-1.767-2.741-3.725C126.283,174.277,126.251,171.261,126.253,168.247Z" transform="translate(25.028 24.338)" fill="#c54a3e"/>
          <path id="Trazado_161148" data-name="Trazado 161148" d="M337.519,209.33q-1.141,3.4-2.281,6.8c-.243.729-.653,1.321-1.491,1.343-.9.025-1.179-.69-1.421-1.383a34.486,34.486,0,0,0-2.908-6.712c-.291,2.14-.588,4.28-.87,6.421-.1.731-.189,1.633-1.076,1.6-.906-.036-.988-.914-.88-1.67q.683-4.824,1.4-9.644c.109-.739.336-1.432,1.248-1.516,1.071-.1,1.46.66,1.771,1.477.924,2.419,1.267,5.072,2.977,7.748,1.029-2.895,1.882-5.355,2.785-7.8.291-.785.637-1.62,1.746-1.493,1.134.13,1.192,1.052,1.316,1.872.468,3.094.9,6.195,1.359,9.29.112.749.2,1.615-.712,1.746-1.163.169-1.235-.836-1.344-1.692-.272-2.12-.563-4.236-.847-6.355Z" transform="translate(113.37 46.251)" fill="#c95d51"/>
          <path id="Trazado_161149" data-name="Trazado 161149" d="M319.625,205.147a16.213,16.213,0,0,1,9.088.128c-4.32.48-3.935,3.38-3.777,6.19.066,1.2.045,2.4,0,3.6-.033.9.267,2.272-1.086,2.219-1.395-.056-.84-1.458-.886-2.313-.076-1.434-.01-2.876-.022-4.314C322.91,206.653,322.907,206.653,319.625,205.147Z" transform="translate(110.315 46.283)" fill="#c95d51"/>
          <path id="Trazado_161150" data-name="Trazado 161150" d="M283.077,176.572a27.663,27.663,0,0,1,2.893.016c3.238.343,6.218,1.146,7.323,4.774a8.465,8.465,0,0,1-3.314,9.564,17.664,17.664,0,0,1-15.6,2.029c-5.434-1.788-6.865-7.121-3.123-11.461,1.071-1.241,1.32-1.948.164-3.177-.765-.813-1.138-2.235-.452-3.04,2.4-2.818.556-4.919-.561-7.512-2.151-4.99,1.248-10.823,6.8-12.324,5.147-1.391,10.31.471,15.474.048,1.068-.088,1.4.785,1.344,1.733-.056,1.033.264,2.365-1.317,2.52-1.376.134-1.473.736-1.184,1.921,1.955,8.038-4.444,11.842-10.679,11.8-.722-.006-1.444-.107-2.166-.1-.9.012-1.739.232-1.81,1.324a1.547,1.547,0,0,0,1.512,1.7c1.553.166,3.124.166,4.687.236Zm-.8,4.49c-2.277.065-4.457-.552-5.938,1.478-.989,1.354-1.454,2.9-.571,4.4,1.255,2.121,3.477,2.419,5.7,2.45,4.058.055,7.342-1.947,7.144-4.571C288.28,180.5,284.721,181.426,282.274,181.062Zm4.177-16.843c-.032-3.108-2.36-5.21-5.676-5.124-3.4.089-5.432,2.159-5.333,5.417.094,3.052,2.107,4.849,5.45,4.866C284.4,169.394,286.484,167.456,286.451,164.218Z" transform="translate(88.066 24.391)" fill="#f8f2ed"/>
          <path id="Trazado_161151" data-name="Trazado 161151" d="M188.2,181.342l-.014-10.9-.022-1.414c-2.159-1.948-4.751-.788-7.1-.834-8.693-.167-8.695-.066-8.695,8.5,0,1.206-.1,2.422.02,3.618.213,2.225-.4,3.215-2.941,3.2-2.648-.016-2.863-1.245-2.846-3.35q.117-14.118,0-28.238c-.017-2.091.437-3.014,2.79-3.009,2.408.007,3.174.78,3.02,3.15-.195,3-.01,6.032-.082,9.048-.037,1.536.5,2.138,2.1,2.105q5.972-.128,11.947.006c1.664.039,2.037-.7,2-2.166-.068-2.772-.112-5.553.016-8.323.072-1.545-.971-3.667,2.246-3.8,2.748-.118,3.7.85,3.641,3.359q-.015,15.234-.03,30.466c-2.134.7-4.317,1.823-6.068-.716A.75.75,0,0,0,188.2,181.342Z" transform="translate(42.838 21.747)" fill="#f9f2ed"/>
          <path id="Trazado_161152" data-name="Trazado 161152" d="M236.6,181.385c-4.052,3.607-7.934,4.432-12.192,2.274-3.991-2.022-4.8-5.774-4.97-9.752-.411-9.871,4.489-15.209,14.3-15.35,2.228-.032,2.7-.882,2.62-2.762-.075-1.807.088-3.628-.059-5.425-.195-2.386.448-3.429,3.153-3.445,2.937-.019,2.625,1.653,2.621,3.5-.017,10.254.009,20.506-.027,30.76-.006,1.314.575,3.172-1.818,3.117C238.547,184.265,236.309,185.02,236.6,181.385Zm-.173-13.24c-.7-1.347,1.454-3.891-1.52-4.925a7.144,7.144,0,0,0-8.855,4.133,14.855,14.855,0,0,0-.225,9.213,4.326,4.326,0,0,0,3.686,3.5,4.755,4.755,0,0,0,4.911-2.264C236.325,174.932,236.586,171.769,236.427,168.145Z" transform="translate(66.126 20.868)" fill="#f9f4f1"/>
          <path id="Trazado_161153" data-name="Trazado 161153" d="M214.234,167.385c.006,9.961-7.47,15.979-16.656,13.394a9.23,9.23,0,0,1-3.816-1.957c-4.2-3.807-5.1-12.9-1.758-18.111a12.709,12.709,0,0,1,16.193-4.669C212.373,157.922,214.229,161.409,214.234,167.385Zm-5.729.019c-.024-.239-.061-1.2-.222-2.144-.542-3.16-2.133-5.311-5.588-5.509a6.229,6.229,0,0,0-6.474,5.069,13.469,13.469,0,0,0,.261,7.454,5.885,5.885,0,0,0,11.149.406A12.451,12.451,0,0,0,208.5,167.4Z" transform="translate(53.142 24.355)" fill="#f9f2ed"/>
          <path id="Trazado_161154" data-name="Trazado 161154" d="M272.141,180.244c-5.213,1.476-5.736,1.117-5.758-3.86-.019-4.1-.033-8.193-.122-12.287-.042-1.885-.487-3.71-2.63-4.247a4.866,4.866,0,0,0-5.176,1.765,10.259,10.259,0,0,0-2.3,6.69c-.026,3.373-.115,6.751.019,10.12.1,2.359-1.257,2.424-2.987,2.431-1.633.006-2.787-.15-2.764-2.261.072-6.989.049-13.977.006-20.966-.01-1.487.431-2.206,2.048-2.193,1.915.014,3.807-.164,3.232,3.2,2.236-1.393,3.728-3.013,5.886-3.48,5.61-1.216,8.69.81,10.4,6.96C271.907,168.162,271.652,174.206,272.141,180.244Z" transform="translate(79.799 24.351)" fill="#f9f4f1"/>
          <path id="Trazado_161155" data-name="Trazado 161155" d="M300.251,154.8a24.213,24.213,0,0,1,3.829.5c1.843.553,1.075,2.195,1.039,3.385-.049,1.571-1.241,1.016-2.154.885a15.087,15.087,0,0,0-2.5-.269c-1.965.052-4.157.167-4.636,2.535-.468,2.327,1.654,2.914,3.28,3.647,1.208.543,2.483.935,3.68,1.5,2.465,1.154,4.063,2.942,4.089,5.84a7.209,7.209,0,0,1-3.656,6.627c-3.344,1.991-7.03,2.206-10.836,1.731-2.4-.3-2-1.984-1.954-3.493.062-2.208,1.611-1.1,2.64-1.105,1.562,0,3.137.144,4.683,0a3.183,3.183,0,0,0,3.1-2.6c.3-1.739-.96-2.6-2.359-3.19-1.108-.464-2.252-.849-3.4-1.216-3.355-1.076-5.375-3.288-5.255-6.872.121-3.65,2.21-6.039,5.685-7.059A40.336,40.336,0,0,1,300.251,154.8Z" transform="translate(97.179 24.341)" fill="#f8f0eb"/>
          <path id="Trazado_161156" data-name="Trazado 161156" d="M217.372,183.738c-2.19,2.049-4.386,2-6.589.022q.009-17.754.019-35.509c2.019-2.087,4.649-2.079,6.545.019Q217.359,166,217.372,183.738Z" transform="translate(62.32 20.765)" fill="#f8ecea"/>
          <path id="Trazado_161157" data-name="Trazado 161157" d="M246.79,179.359c-1.186,2.448-3.357,1.422-5.027,1.127-1.5-.267-.935-1.981-.944-3.1-.046-5.86-.026-11.721-.026-17.58,0-5.007,1.143-5.71,5.971-3.685,0,.259.007.517.012.775q-.463,10.846,0,21.691Z" transform="translate(75.521 24.46)" fill="#f9efea"/>
          <path id="Trazado_161158" data-name="Trazado 161158" d="M185.787,182.314q.015-15.232.03-30.466l1.2-1.928c0,10.535,0,20.531,0,30.527C187.028,181.369,186.827,182.108,185.787,182.314Z" transform="translate(51.298 22.189)" fill="#c23527"/>
          <path id="Trazado_161159" data-name="Trazado 161159" d="M247.466,151.311c-.222,2.056-1.326,3.414-3.383,3.5-2.176.088-3.751-1.053-3.784-3.366a3.224,3.224,0,0,1,3.3-3.494C245.928,147.8,247.072,149.154,247.466,151.311Z" transform="translate(75.335 21.314)" fill="#f8ecea"/>
          <path id="Trazado_161160" data-name="Trazado 161160" d="M211.1,147.773q-.009,17.754-.019,35.509c-.48-.086-.983-.193-.978-.81q.117-16.027.255-32.055C210.368,149.476,210.177,148.463,211.1,147.773Z" transform="translate(62.021 21.242)" fill="#bb2926"/>
          <path id="Trazado_161161" data-name="Trazado 161161" d="M215.364,183.255q-.013-17.735-.026-35.469c.757.61.686,1.47.686,2.3q0,15.424,0,30.848A2.68,2.68,0,0,1,215.364,183.255Z" transform="translate(64.329 21.248)" fill="#bb2926"/>
          <path id="Trazado_161162" data-name="Trazado 161162" d="M265.583,178.011c-.488-6.038-.233-12.082-.144-18.124a1.592,1.592,0,0,1,1.006,1.7c0,4.983.013,9.967-.055,14.948C266.384,177.029,265.864,177.518,265.583,178.011Z" transform="translate(86.356 26.584)" fill="#c23527"/>
          <path id="Trazado_161163" data-name="Trazado 161163" d="M181.719,162.874l.022,1.414C181.058,163.826,181.039,163.355,181.719,162.874Z" transform="translate(49.284 27.901)" fill="#bb2926"/>
          <path id="Trazado_161164" data-name="Trazado 161164" d="M181.671,171.419a.75.75,0,0,1-.022.7,3.411,3.411,0,0,1-.239-.51C181.4,171.573,181.579,171.482,181.671,171.419Z" transform="translate(49.368 31.669)" fill="#bb2926"/>
          <path id="Trazado_161165" data-name="Trazado 161165" d="M244.938,172.161l-.016-.767C245.457,171.639,245.478,171.894,244.938,172.161Z" transform="translate(77.374 31.658)" fill="#c23527"/>
          <path id="Trazado_161166" data-name="Trazado 161166" d="M244.927,156.578c0-.258-.007-.516-.012-.775C245.444,156.054,245.488,156.312,244.927,156.578Z" transform="translate(77.371 24.783)" fill="#c23527"/>
          <path id="Trazado_161167" data-name="Trazado 161167" d="M110.277,169.647c-.161-3.078-.017-5.719,1.274-8.149,1.172-2.206,2.908-3.538,5.538-3.216,2.676.327,3.527,2.388,3.857,4.594a15.191,15.191,0,0,1-.749,8.542c-1.386,3.14-6.042,5.066-8.931,3.44C108.96,173.56,110.861,171.084,110.277,169.647Z" transform="translate(17.919 25.856)" fill="#fbf6f3"/>
          <path id="Trazado_161168" data-name="Trazado 161168" d="M93.846,172.219c-1.978-.042-3.208-.974-3.2-3.029.009-2.324,3.235-4.186,7.068-4.186,1.1,0,2.183-.125,2.1,1.6A6.355,6.355,0,0,1,93.846,172.219Z" transform="translate(9.345 28.84)" fill="#f9efea"/>
          <path id="Trazado_161169" data-name="Trazado 161169" d="M147.013,163.733c-1.66-.911-4.718,1.284-4.9-1.592-.146-2.248,2.222-3.8,4.817-3.879s4.9,1.179,4.8,3.684C151.6,165.2,148.483,162.638,147.013,163.733Z" transform="translate(32.035 25.866)" fill="#f8f0eb"/>
          <path id="Trazado_161170" data-name="Trazado 161170" d="M280.4,173.072c2.447.365,6.006-.563,6.332,3.754.2,2.624-3.087,4.625-7.144,4.571-2.219-.03-4.441-.329-5.7-2.45-.883-1.494-.418-3.042.571-4.4C275.942,172.52,278.122,173.137,280.4,173.072Z" transform="translate(89.941 32.381)" fill="#c5483e"/>
          <path id="Trazado_161171" data-name="Trazado 161171" d="M284.533,162.94c.033,3.238-2.056,5.176-5.559,5.159-3.343-.017-5.356-1.814-5.45-4.866-.1-3.258,1.937-5.327,5.333-5.417C282.173,157.729,284.5,159.832,284.533,162.94Z" transform="translate(89.985 25.67)" fill="#c5483e"/>
          <path id="Trazado_161172" data-name="Trazado 161172" d="M234.655,163.27c.158,3.624-.1,6.787-2,9.657a4.755,4.755,0,0,1-4.911,2.264,4.326,4.326,0,0,1-3.686-3.5,14.855,14.855,0,0,1,.225-9.213,7.144,7.144,0,0,1,8.855-4.133C236.109,159.379,233.952,161.922,234.655,163.27Z" transform="translate(67.898 25.743)" fill="#c5483e"/>
          <path id="Trazado_161173" data-name="Trazado 161173" d="M206.715,165.9a12.451,12.451,0,0,1-.875,5.277,5.885,5.885,0,0,1-11.149-.406,13.469,13.469,0,0,1-.261-7.454,6.229,6.229,0,0,1,6.474-5.069c3.455.2,5.046,2.349,5.588,5.509C206.655,164.7,206.691,165.662,206.715,165.9Z" transform="translate(54.931 25.857)" fill="#c5453b"/>
        </g>
      </g>
      <path id="Trazado_158124" data-name="Trazado 158124" d="M4439.255-1116h0a11.058,11.058,0,0,0-15.639,0l-45.449,45.449a11.057,11.057,0,0,0,0,15.638,11.059,11.059,0,0,0,15.639,0l45.449-45.449A11.06,11.06,0,0,0,4439.255-1116Z" transform="translate(-4374.928 1141.171)" fill="#fc4b52"/>
      <path id="Trazado_158125" data-name="Trazado 158125" d="M4476.83-1136.847a11.056,11.056,0,0,0-15.638,0l-60.088,60.087a11.059,11.059,0,0,0,0,15.638h0a11.057,11.057,0,0,0,15.638,0l60.088-60.087A11.057,11.057,0,0,0,4476.83-1136.847Z" transform="translate(-4373.733 1140.086)" fill="#feca2e"/>
      <g id="Grupo_108305" data-name="Grupo 108305" transform="translate(398.663 241.909)">
        <path id="Trazado_158126" data-name="Trazado 158126" d="M4757.1-824.256a11.055,11.055,0,0,0,15.637,0l60.09-60.087a11.06,11.06,0,0,0,0-15.638h0a11.059,11.059,0,0,0-15.64,0L4757.1-839.894A11.057,11.057,0,0,0,4757.1-824.256Z" transform="translate(-4753.857 910.513)" fill="#feca2e"/>
        <path id="Trazado_158127" data-name="Trazado 158127" d="M4793.947-845.826h0a11.058,11.058,0,0,0,15.639,0l45.448-45.449a11.056,11.056,0,0,0,0-15.638,11.059,11.059,0,0,0-15.64,0l-45.447,45.449A11.058,11.058,0,0,0,4793.947-845.826Z" transform="translate(-4751.938 910.152)" fill="#fc4b52"/>
      </g>
    </g>
  </g>
</svg>
