<svg xmlns="http://www.w3.org/2000/svg" xmlns:xlink="http://www.w3.org/1999/xlink" width="504.999" height="331.405" viewBox="0 0 504.999 331.405">
  <defs>
    <clipPath id="clip-path">
      <path id="Trazado_158123" data-name="Trazado 158123" d="M4461.649-1127.943h371.759a32.164,32.164,0,0,1,32.165,32.163v210.04l-72.445,63.651H4420.092a32.163,32.163,0,0,1-32.163-32.163v-204.262Z" transform="translate(-4387.929 1127.943)" fill="#79d2dc"/>
    </clipPath>
    <clipPath id="clip-path-2">
      <circle id="Elipse_5492" data-name="Elipse 5492" cx="62.814" cy="62.814" r="62.814" transform="matrix(0.974, -0.228, 0.228, 0.974, 0, 28.646)" fill="none"/>
    </clipPath>
  </defs>
  <g id="Grupo_117462" data-name="Grupo 117462" transform="translate(4914 8537.815)">
    <g id="Grupo_116465" data-name="Grupo 116465" transform="translate(-4914 -8537.815)">
      <g id="Enmascarar_grupo_116" data-name="Enmascarar grupo 116" transform="translate(13.678 12.775)" clip-path="url(#clip-path)">
        <g id="Trazado_161174" data-name="Trazado 161174" transform="translate(-38.929 -23.46)" fill="#f3f9ff" opacity="0.77">
          <path d="M 533.5372924804688 351.7373352050781 L 0.4999795854091644 351.7373352050781 L 0.4999795854091644 0.5000162124633789 L 533.5372924804688 0.5000162124633789 L 533.5372924804688 351.7373352050781 Z" stroke="none"/>
          <path d="M 1 1.000030517578125 L 1 351.2373352050781 L 533.0372924804688 351.2373352050781 L 533.0372924804688 1.000030517578125 L 1 1.000030517578125 M 0 3.0517578125e-05 L 534.0372924804688 3.0517578125e-05 L 534.0372924804688 352.2373352050781 L 0 352.2373352050781 L 0 3.0517578125e-05 Z" stroke="none" fill="#707070"/>
        </g>
        <g id="Grupo_116484" data-name="Grupo 116484" transform="translate(8.009 -52.207)">
          <path id="Trazado_161175" data-name="Trazado 161175" d="M187.838,276.264s-4.7-2.79-2.876-6.612,12.348-4.5,12.348-4.5-7.609-4.052,4.227-6.868,36.233,2.3,45.445.5,6.859-6.465,6.236-10.473c-1.1-7.1.183-13.462,5.731-14.783,5.056-1.2,4.721,3.957,5.718,8.15s3.151,12.148,6.68,15.476,8.722,16.946,9.045,23.775c0,0,39.818,57.021,82.58,95.2l36.6,10.724s10.967,37.469-12.889,63.943c-21.5,23.861-50.018-3.788-50.018-3.788-51.021-42.532-77.368-115.978-80.207-125.784,0,0-7.75-22.334-24.788-21.667s-39.615.457-41.21-10.628c0,0-8.943-1.389-9.412-6.1S187.838,276.264,187.838,276.264Z" transform="translate(19.204 31.893)" fill="#fc4b52"/>
          <g id="Grupo_116478" data-name="Grupo 116478" transform="translate(142.73 143.628)">
            <g id="Grupo_116477" data-name="Grupo 116477" transform="translate(0 0)">
              <circle id="Elipse_5491" data-name="Elipse 5491" cx="62.814" cy="62.814" r="62.814" transform="matrix(0.974, -0.228, 0.228, 0.974, 0, 28.646)" fill="#dff7f9"/>
              <g id="Grupo_116476" data-name="Grupo 116476">
                <g id="Grupo_116475" data-name="Grupo 116475" clip-path="url(#clip-path-2)">
                  <g id="Grupo_116474" data-name="Grupo 116474" transform="translate(-41.893 9.739)">
                    <path id="Trazado_161176" data-name="Trazado 161176" d="M212.35,212.853l3.1-1.016,5.051-3.34h4.888l1.07,2.265,2.84-.5.245-3.422,3.069-.217-1.195-2.878,1.847-.217,1.575,2.01,3.2-2.77-.869-3.856-6.246-.652-2.444,2.824-.76-4.019-2.227-1.847-1.358-3.476-5.16-4.4-2.878.217,2.444-2.064,1.955-.272.706-1.032-2.444-.761-1.9.326-2.661-1.3v-2.281l3.367-2.336,1.249-4.438,1.955,2.537,1.521-2.987,3.829-1.955,1.059,4.182-1.412,2.444,1.684,1.847-.435,3.1,2.118-1.9,1.195-2.281,4.779-1.9,1.358-3.081-3.1-4.089-2.336-1.086L228.7,165.4l.543-3.748,2.933,2.716,3.422-6.448,2.009,6.122,3.856-.38-2.064-2.39,1.412-3.352.652-3.328,5.16.715,2.607-2.235,3.259-.434,1.521,4.236-4.942,2.118.054,2.824,6.518-1.521,2.933,2.227,13.144-4.128,4.073,5.431L274,166.866l1.792,4.617-.923,3.042-4.291,2.281-2.553-1.629-1.195-2.553-6.083,1.032-2.607,5.16-3.911,1.847-2.607,4.617,1.032,5.757-3.53,5.54-3.911,2.6-2.933,4.571-2.661,1.9L238.692,207l-3.748.38-2.064,1.9-1.521.326-1.819,2.173-2.246.754-.172-.363,2.417,5.114-3.5,6.037-3.829,2.688,1.222,13.2,1.711,10.347-3.911,2.96h-1.874l2.661-3.911L208.847,228.62l-3.748-1.293-.978-4.818-2.281-2.1v-2.054l9.45-3.34Z" transform="translate(-77.872 -136.064)" fill="#a7e446"/>
                    <path id="Trazado_161177" data-name="Trazado 161177" d="M225.642,160.166s-2.811,2.769-2.933,2.81a30.583,30.583,0,0,0-.244,3.3l-4.97,5.946-.733-2.037,1.955-3.748-2.607.53-1.263-1.141,3.992-3.177.57-3.014,3.992-3.625.489-2,5.662-.366,1.508,5.01-1.792,2Z" transform="translate(-75.521 -135.881)" fill="#a7e446"/>
                    <path id="Trazado_161178" data-name="Trazado 161178" d="M197.955,138.6l26.391,6.651.869,2.86-2.5,3.8-4.169.8L215,159.3l-.543,9.994-4.454,7.387-5.648-7.6-7.5-5.431V157.02l-2.5-5.214Z" transform="translate(-79.223 -138.601)" fill="#a7e446"/>
                    <path id="Trazado_161179" data-name="Trazado 161179" d="M97.828,166.69l3.91-2.813,3.53-1.9,4.562-.923,3.856-.109,2.39-1.994,4.182-1.373,3.748-.054,3.2,2.064,3.258-.636.869-3.057,6.138-.326,3.693-1.467-2.879-3.15,2.173-2.444,3.965-1.575,4.182,2.01s4.4,2.5,4.78,2.661,3.638,3.368,3.638,3.368h3.965l4.562,5.7,5.757,3.639,6.789.543,2.661-.109,3.965-3.965,5.7-.489,1.521,2.5,3.2,5.865,5,3.911.435,3.476-3.313,1.466-3.639,1.629.109,2.118,4.834-.706,1.684,2.879,4.888,2.01-.978,1.249-1.195,3.042s2.336-.054,2.553-.109a23.718,23.718,0,0,1,2.824,2.064l-1.141,3.1-3.693-.76-2.444-2.824-6.029-1.955s-1.847,2.173-2.091,2.336-5.349,3.2-5.349,3.2l-6.029.869,1.276,3.286,7.576-1.468,1.141,1.385,4.405-1.385.564-3.013,10.836,3.1,2.037,4.806,3.1,4.481-2.444,6.728-5.54,1.338-5.7-1.02-2.281,2.65.733,2.77-2.526,2.563,2.281,5.258-5.051,10.227-6.435-2.08-2.933-7.251L178.7,224l1.141-6.123-6.436-7.984h5.051l4.237-6.475-6.762,5.3-7.251-3.422,4.725-3.585h-5.7l-5.54,4.888-4.806,4.481-2.444-3.748L151,204.476l-6.192,8.663-2.77-1.521-.217-2.716,1.792-2.227-.923-2.01-2.716-.272-4.78-1.654-.109-4.592,1.141-3.529-.815-2.01-1.792.163-.652,1.847-.706,1.248-1.3-1.574-.272-2.39-2.064-1.358L124.549,190l.759,3.422,2.336,1.9,3.693,1.794.543,3.087-.217,1.42-1.412-2.01-1.358-1.846-2.444-.923s-2.606-1.955-2.606-2.336-.163-2.336-.163-2.336l-1.195-2.118.38-1.575-1.847-1.792,2.28.109,2.824,2.336-2.66-6.735,2.334-2.987-3.04-3.1-4.943-1.467-6.138-.054-2.879.217-3.585-1.358-1.358-1.9-2.118-2.01-2.064,1.249-2.823-2.66Z" transform="translate(-96.85 -137.095)" fill="#a7e446"/>
                    <path id="Trazado_161180" data-name="Trazado 161180" d="M166.112,214.419v1.833l.407,2.159-1.3,1.507-1.059-1.507-1.507-5.54.57-1.507Z" transform="translate(-84.956 -125.448)" fill="#a7e446"/>
                    <path id="Trazado_161181" data-name="Trazado 161181" d="M117.353,216.414l2.77-5.268.923.76.489,3.1,2.5-1.738-.869-1.358,4.291-.217.652,2.227,1.086-1.032,2.281,1.955.489,1.412.978.163,3.1,1.63,1.249,1.573-1.466,2.5.054,3.15-1.521,1.086-7.6-2.77L121.7,227.44l-1.521,1.575L116,227.331l-.489-2.77-1.684-1.847.38-3.748Z" transform="translate(-93.782 -125.488)" fill="#04193a"/>
                    <path id="Trazado_161182" data-name="Trazado 161182" d="M105.279,223.3v2.811l2.811,3.87,1.426,1.426-.448,1.385-3.788-2.933-2.933-3.829.57-1.537Z" transform="translate(-95.856 -123.291)" fill="#04193a"/>
                    <path id="Trazado_161183" data-name="Trazado 161183" d="M124.448,211.112l5.7-.163s4.888-.109,5.214-.217,3.8-2.987,3.8-2.987l6.844-6.029-3.639,6.7L139,210.026l-1.467,1.51-7.658,1.314Z" transform="translate(-91.861 -127.192)" fill="#04193a"/>
                    <path id="Trazado_161184" data-name="Trazado 161184" d="M136.319,206.046l-.869,2.137-3.531.85-1.629-2.987.815-1.521-.815-.776,1.358-.745Z" transform="translate(-90.805 -126.959)" fill="#04193a"/>
                    <path id="Trazado_161185" data-name="Trazado 161185" d="M130.367,206.684l.38,2.5h-1.086l-.19-.733-1.276.733-.435-.407.923-1.4-.923-2.347Z" transform="translate(-91.263 -126.594)" fill="#04193a"/>
                    <path id="Trazado_161186" data-name="Trazado 161186" d="M123.886,208.686l-1.657,2.254-2.363.256-1.249-.8-2.254,1.331-1.575-.532,2.471-.745.9-1.847,4.4-1.4,1.928.695.163-.964,2.146-.964.733.543-.95.421-.842,1.426Z" transform="translate(-93.607 -126.423)" fill="#04193a"/>
                    <path id="Trazado_161187" data-name="Trazado 161187" d="M126.24,208l-.435-2.716.951-.461.652,2.322Z" transform="translate(-91.616 -126.631)" fill="#04193a"/>
                    <path id="Trazado_161188" data-name="Trazado 161188" d="M131.657,203.5l-2.145-1.928-.434,1.548.923,1.521-1.684-.788-.706.788-1.276-1.113,1.684-3.8,1.154-.462-.312-1.684,1.032-.489,1.113,1.874-.557,1.858,1.562,2.351Z" transform="translate(-91.52 -128.028)" fill="#04193a"/>
                  </g>
                </g>
              </g>
            </g>
          </g>
          <g id="Grupo_116479" data-name="Grupo 116479" transform="translate(155.294 56.914)">
            <path id="Trazado_161189" data-name="Trazado 161189" d="M169.7,127.648c.407-.381-2.71-6.638-4.878-9.077s-13.547-11.11-9.754-29.127,24.115-26.012,38.069-13.412,2.389,35.5-.948,40.507a55.648,55.648,0,0,0-4.878,10.16Z" transform="translate(-140.922 -54.566)" fill="#feca2e"/>
            <path id="Trazado_161190" data-name="Trazado 161190" d="M171.5,129.064s-.083,5.891,4.381,5.635,4.711-6.623,4.711-6.623Z" transform="translate(-137.813 -44.051)" fill="#222752"/>
            <path id="Trazado_161191" data-name="Trazado 161191" d="M167.423,123.323s-2.086,3.807.86,6.508,12.28,1.6,15.227.246,2.579-4.666,2.088-6.877-12.4-.614-12.894-.737A47.506,47.506,0,0,0,167.423,123.323Z" transform="translate(-138.679 -45.146)" fill="#727997"/>
            <path id="Trazado_161192" data-name="Trazado 161192" d="M166.758,118.385a4.526,4.526,0,0,0-.851,3.481,5.3,5.3,0,0,0,1.7,3.579c3.251,2.98,13.547,1.761,16.8.27a4.524,4.524,0,0,0,2.6-3.594c.228-1.552.463-3.634-.867-4.793-1.426-1.243-3.784-.6-5.479-.522-1.848.084-3.692.236-5.54.289a37.338,37.338,0,0,0-6.305.248A3.66,3.66,0,0,0,166.758,118.385Z" transform="translate(-138.828 -46.131)" fill="#727997"/>
            <path id="Trazado_161193" data-name="Trazado 161193" d="M187.243,99.014a5.794,5.794,0,0,0-4.575-1.657,6.841,6.841,0,0,0-4.123,1.619,6.012,6.012,0,0,0-7.671.15c-.042-.024-.081-.052-.125-.073a4.256,4.256,0,0,0-4.927.955,7.718,7.718,0,0,0-1.786,5.682,13.819,13.819,0,0,0,1.466,5.828,12.1,12.1,0,0,0,4.02,4.528c.7.508,1.548-.613.923-1.2a14.206,14.206,0,0,1-3.693-5.9c-.633-2.026-1.028-4.747.041-6.7a2.523,2.523,0,0,1,2.514-1.484,1.673,1.673,0,0,1,.19.054,6.228,6.228,0,0,0-.755,2.425,4.958,4.958,0,0,0,1.544,4.322,2.784,2.784,0,0,0,3.9-.281c1.136-1.454.171-3.44-.522-4.873a9.792,9.792,0,0,0-1.217-1.957,3.814,3.814,0,0,1,1.365-.642,4.064,4.064,0,0,1,3.4.7,6.99,6.99,0,0,0-1.1,3.262c-.118,1.529.424,3.539,2.245,3.688,1.678.138,2.321-1.585,2.481-2.963a6.141,6.141,0,0,0-.923-4.017,4.864,4.864,0,0,1,4.327-.91,2.507,2.507,0,0,1,1.563.947,4.822,4.822,0,0,1,.359,1.961,22.914,22.914,0,0,1-.05,4.231,25.552,25.552,0,0,1-2.264,7.654.338.338,0,0,0-.394.077,1.174,1.174,0,0,0,.7,1.977,1.019,1.019,0,0,0,1.1-.446,22.445,22.445,0,0,0,3.024-11.568C188.275,102.737,188.375,100.369,187.243,99.014ZM171.794,106.1c-.586-.226-.871-1.07-.971-1.616a4.055,4.055,0,0,1,.283-2.327c.09.129.175.259.253.385a7.587,7.587,0,0,1,1.261,2.929C172.652,106.032,172.332,106.308,171.794,106.1Zm6.517-.8c-.294-.133-.221-1.1-.2-1.377a4.861,4.861,0,0,1,.431-1.694,4.153,4.153,0,0,1,.2.557C178.838,103.215,178.97,105.606,178.31,105.3Z" transform="translate(-139.163 -49.605)" fill="#fff"/>
            <path id="Trazado_161194" data-name="Trazado 161194" d="M167.507,76.373a5.235,5.235,0,0,0-2.888,1.06,13.275,13.275,0,0,0-1.975,1.7,17.314,17.314,0,0,0-2.759,3.947,25.152,25.152,0,0,0-1.8,4.995,10.867,10.867,0,0,0-.576,2.813,3.362,3.362,0,0,0,.562,2.03,2.259,2.259,0,0,0,2.391.887c1.964-.5,2.366-2.87,2.979-4.5.123-.328.254-.652.383-.978l.013-.03c.081-.182.162-.364.247-.544.3-.649.636-1.293.987-1.919.289-.516.613-1,.949-1.491l.02-.031c.072-.087.142-.175.215-.26.2-.235.409-.463.626-.682s.44-.429.672-.631l.312-.264c.04-.034.189-.149.227-.179l.052-.037c.111-.077.228-.146.339-.223a6.206,6.206,0,0,0,1.433-1.465C171.19,78.884,169.461,76.271,167.507,76.373Z" transform="translate(-140.342 -53.397)" fill="#fff"/>
            <path id="Trazado_161195" data-name="Trazado 161195" d="M176.506,73.082a3.113,3.113,0,0,0-2.15-.386c-.538.067-1.077.136-1.607.254a6.991,6.991,0,0,0-1.464.576,2.985,2.985,0,0,0-1.468,1.653,1.9,1.9,0,0,0,.854,2.494l.084.063-.074-.058a2.171,2.171,0,0,0,.952.361c.17.022.338.043.509.06a2.559,2.559,0,0,0,.554-.018c.58-.059,1.152-.143,1.73-.223l-.686.092a5.935,5.935,0,0,0,2.768-.553,2.583,2.583,0,0,0,1.237-2.158A2.548,2.548,0,0,0,176.506,73.082Z" transform="translate(-138.148 -54.069)" fill="#fff"/>
            <path id="Trazado_161196" data-name="Trazado 161196" d="M148.51,113c.047.022.046.02,0,0Z" transform="translate(-141.968 -46.776)" fill="#ffc86d"/>
            <path id="Trazado_161197" data-name="Trazado 161197" d="M155.143,109.933a1.576,1.576,0,0,0-.508-.659,1.839,1.839,0,0,0-.982-.352l.033,0-.074-.015a1.067,1.067,0,0,0-.111-.043,2.4,2.4,0,0,0-1.087,0c-.158.03-.315.072-.473.109a6.552,6.552,0,0,0-.988.294,4.792,4.792,0,0,0-2.533,1.586c-.107.117-.217.23-.314.357a.84.84,0,0,0-.22.377c-.019.035-.026.076-.041.112l-.076.124a1.3,1.3,0,0,0,.769,1.888.978.978,0,0,1,.139.046,2,2,0,0,1-.438-.306,1.815,1.815,0,0,0,.98.469c.148.02.3.027.444.038a2.832,2.832,0,0,0,1.618-.077c.325-.119.642-.257.964-.386a9.1,9.1,0,0,0,1.279-.615c.138-.081.28-.159.416-.247a2.831,2.831,0,0,0,.8-.817l.068-.086A1.688,1.688,0,0,0,155.143,109.933Z" transform="translate(-142.134 -47.534)" fill="#feca2e"/>
            <path id="Trazado_161198" data-name="Trazado 161198" d="M150.179,90.324a4.13,4.13,0,0,0-3.36-.889c-.443.028-.889.111-1.33.17a2.908,2.908,0,0,0-1.187.346c-.092.054-.181.122-.267.183a2.856,2.856,0,0,0-.621.557,1.434,1.434,0,0,0-.341.648c-.027.1,0,.065.074-.105a1.409,1.409,0,0,0,.215,1.664c-.341-.344.154.246.2.3a2.294,2.294,0,0,0,.941.53,2.526,2.526,0,0,0,1.1.192,15.009,15.009,0,0,0,1.789-.24,4.188,4.188,0,0,0,3-1.663A1.431,1.431,0,0,0,150.179,90.324Z" transform="translate(-142.969 -51.04)" fill="#feca2e"/>
            <path id="Trazado_161199" data-name="Trazado 161199" d="M155.805,73.012c-.026-.052-.053-.1-.081-.155-.03-.07-.07-.164-.129-.3a2.4,2.4,0,0,0-.511-.584,9.324,9.324,0,0,0-1.113-.844,5.707,5.707,0,0,0-1.4-.509c-.159-.047-.319-.1-.479-.148a5.12,5.12,0,0,0-.831-.129,2.593,2.593,0,0,0-1.343.064,2.418,2.418,0,0,1-.53.146,1.458,1.458,0,0,0-.884.68,1.559,1.559,0,0,0-.15,1.141A3.07,3.07,0,0,0,149.6,74.3a4.789,4.789,0,0,0,1.7.644,7.428,7.428,0,0,0,1.8.214c.2-.015.406-.026.609-.024a4.237,4.237,0,0,0,.691-.04c.071,0,.142,0,.213,0a1.37,1.37,0,0,0,1.2-.686A1.433,1.433,0,0,0,155.805,73.012Z" transform="translate(-142.005 -54.497)" fill="#feca2e"/>
            <path id="Trazado_161200" data-name="Trazado 161200" d="M172.06,61.282c-.059-.254-.107-.512-.184-.763a10.122,10.122,0,0,0-.7-1.908,6.04,6.04,0,0,0-.529-.745,2.142,2.142,0,0,0-.922-.688q-.507-.221.048.037l-.184-.078a1.729,1.729,0,0,0-1.24-.163,1.663,1.663,0,0,0-.961.74l-.084.149q.4-.5.059-.064a2.243,2.243,0,0,0-.483,1.346A4.363,4.363,0,0,0,167,60.371a13.635,13.635,0,0,0,.747,2.029,5.565,5.565,0,0,0,1.058,1.758c.165.166.326.341.5.5a1.687,1.687,0,0,0,2.314.038,2.045,2.045,0,0,0,.562-1.464c.028-.246.08-.5.087-.744A5.049,5.049,0,0,0,172.06,61.282Z" transform="translate(-138.648 -56.914)" fill="#feca2e"/>
            <path id="Trazado_161201" data-name="Trazado 161201" d="M196.19,64.1l.015.11a2.866,2.866,0,0,0-.063-.888,1.678,1.678,0,0,0-.1-.222.7.7,0,0,0-.024-.132A1.352,1.352,0,0,0,194.751,62c-.044,0-.087,0-.131,0a1.757,1.757,0,0,0-.505,0,5.851,5.851,0,0,0-.64.131l.574-.077a3.183,3.183,0,0,0-2,.867,5.3,5.3,0,0,0-.855.926q-.5.65-.994,1.3a4.87,4.87,0,0,0-1.312,3.978,1.728,1.728,0,0,0,1.642,1.25c1.5,0,2.654-1.151,3.541-2.241.346-.424.7-.843,1.036-1.271a6.079,6.079,0,0,0,.69-1.053,3.9,3.9,0,0,0,.332-.786A2.428,2.428,0,0,0,196.19,64.1Z" transform="translate(-134.685 -55.999)" fill="#feca2e"/>
            <path id="Trazado_161202" data-name="Trazado 161202" d="M204.447,91.31a.563.563,0,0,0-.06-.061c-.034-.041-.064-.089-.1-.129a1.956,1.956,0,0,0-1.039-.573l.5.21a3.376,3.376,0,0,0-1.49-.379,5.331,5.331,0,0,0-1.188.08c-.431.084-.858.188-1.288.279a8.051,8.051,0,0,0-1.259.38,3.165,3.165,0,0,0-1.838,1.38,1.719,1.719,0,0,0,.255,1.975,3.094,3.094,0,0,0,2.149.831,7.007,7.007,0,0,0,1.307-.027q.654-.078,1.3-.164a4.408,4.408,0,0,0,2.239-.878,2.228,2.228,0,0,0,.851-1.149c.024-.071.044-.141.071-.21A1.587,1.587,0,0,0,204.447,91.31Z" transform="translate(-133.296 -50.866)" fill="#feca2e"/>
            <path id="Trazado_161203" data-name="Trazado 161203" d="M200.154,115.164a3.517,3.517,0,0,0-.446-.869,2.172,2.172,0,0,0-.758-.652,6.181,6.181,0,0,0-1.014-.4q-.537-.151-1.063-.328c-.181-.061-.361-.139-.547-.183s-.351-.059-.523-.092a6.68,6.68,0,0,0-.952-.151c-.183-.007-.371.007-.555.008a1.664,1.664,0,0,0-1.426,2.485,5.087,5.087,0,0,0,.923,1.11,6.524,6.524,0,0,0,1.306.914c1.234.608,2.744,1.455,4.067.586a2.245,2.245,0,0,0,.88-1.027A1.983,1.983,0,0,0,200.154,115.164Z" transform="translate(-133.994 -46.869)" fill="#feca2e"/>
            <path id="Trazado_161204" data-name="Trazado 161204" d="M185.965,123.077l-.138-.177a.748.748,0,0,0-.9-.131,26.275,26.275,0,0,0-4.137.439l-4.632.537c-2.771.319-5.6.675-8.3-.215-.934-.307-1.3,1.118-.4,1.456a19.278,19.278,0,0,0,8.546.694q2.395-.209,4.788-.427a22.487,22.487,0,0,0,4.738-.536A1,1,0,0,0,185.965,123.077Z" transform="translate(-138.636 -45.026)" fill="#4c68ad"/>
          </g>
          <g id="Grupo_116480" data-name="Grupo 116480" transform="translate(74.79 125.055)">
            <path id="Trazado_161205" data-name="Trazado 161205" d="M108.115,153.388s19.133,26.353,29.6,15.884-25.269-23.464-25.269-23.464Z" transform="translate(-68.766 -108.986)" fill="#727997"/>
            <circle id="Elipse_5493" data-name="Elipse 5493" cx="25.27" cy="25.27" r="25.27" fill="#12263f"/>
            <circle id="Elipse_5494" data-name="Elipse 5494" cx="16.967" cy="16.967" r="16.967" transform="translate(8.303 8.303)" fill="#a7e446"/>
          </g>
          <g id="Grupo_116481" data-name="Grupo 116481" transform="translate(82.146 211.68)">
            <path id="Trazado_161206" data-name="Trazado 161206" d="M117.967,191.457l-2.915,5.2a21.049,21.049,0,0,0-4.577-.554l-1.611-5.728a3.282,3.282,0,0,0-4.037-2.265l-5.082,1.429a3.284,3.284,0,0,0-2.265,4.037l1.611,5.728a21.013,21.013,0,0,0-3.617,2.857l-5.2-2.915a3.281,3.281,0,0,0-4.455,1.253l-2.584,4.6a3.281,3.281,0,0,0,1.253,4.455l5.2,2.916a21.042,21.042,0,0,0-.555,4.577l-5.728,1.611a3.283,3.283,0,0,0-2.265,4.036l1.43,5.083a3.282,3.282,0,0,0,4.036,2.265l5.728-1.611a21.008,21.008,0,0,0,2.859,3.617l-2.916,5.2A3.281,3.281,0,0,0,93.53,241.7l4.6,2.584a3.282,3.282,0,0,0,4.455-1.253l2.915-5.2a20.978,20.978,0,0,0,4.577.554l1.611,5.729a3.284,3.284,0,0,0,4.037,2.265l5.082-1.43a3.281,3.281,0,0,0,2.265-4.036l-1.611-5.728a21.021,21.021,0,0,0,3.617-2.859l5.2,2.916a3.282,3.282,0,0,0,4.455-1.253l2.583-4.6a3.281,3.281,0,0,0-1.253-4.455l-5.2-2.916a20.96,20.96,0,0,0,.555-4.577l5.728-1.611a3.282,3.282,0,0,0,2.265-4.036l-1.43-5.082a3.281,3.281,0,0,0-4.036-2.265l-5.728,1.611a20.963,20.963,0,0,0-2.859-3.617l2.916-5.2a3.283,3.283,0,0,0-1.253-4.456l-4.6-2.582A3.282,3.282,0,0,0,117.967,191.457Zm2.62,31.572a11.82,11.82,0,1,1-4.525-16.093A11.821,11.821,0,0,1,120.587,223.03Z" transform="translate(-81.02 -187.987)" fill="#fc4b52"/>
            <path id="Trazado_161207" data-name="Trazado 161207" d="M134.318,232.4l-.567,3.83a13.6,13.6,0,0,0-2.906.723l-2.3-3.1a2.133,2.133,0,0,0-2.974-.44l-2.755,2.044a2.133,2.133,0,0,0-.44,2.974l2.3,3.1a13.685,13.685,0,0,0-1.534,2.572l-3.83-.567a2.132,2.132,0,0,0-2.413,1.792l-.5,3.392a2.132,2.132,0,0,0,1.791,2.415l3.83.567a13.767,13.767,0,0,0,.723,2.907l-3.1,2.3a2.131,2.131,0,0,0-.439,2.973l2.044,2.755a2.131,2.131,0,0,0,2.973.44l3.1-2.3a13.594,13.594,0,0,0,2.573,1.534l-.567,3.83a2.131,2.131,0,0,0,1.791,2.415l3.394.5a2.132,2.132,0,0,0,2.413-1.791l.568-3.83a13.632,13.632,0,0,0,2.906-.723l2.3,3.1a2.133,2.133,0,0,0,2.974.44l2.755-2.045a2.13,2.13,0,0,0,.439-2.973l-2.3-3.1a13.66,13.66,0,0,0,1.535-2.573l3.829.568a2.132,2.132,0,0,0,2.415-1.792l.5-3.392a2.132,2.132,0,0,0-1.792-2.415l-3.83-.567a13.624,13.624,0,0,0-.723-2.907l3.1-2.3a2.133,2.133,0,0,0,.44-2.974L150,237.03a2.133,2.133,0,0,0-2.974-.44l-3.1,2.3a13.622,13.622,0,0,0-2.572-1.534l.567-3.83a2.132,2.132,0,0,0-1.791-2.415l-3.394-.5A2.132,2.132,0,0,0,134.318,232.4Zm8.9,18.558a7.679,7.679,0,1,1-6.472-8.721A7.679,7.679,0,0,1,143.217,250.962Z" transform="translate(-74.63 -180.286)" fill="#a7e446"/>
            <path id="Trazado_161208" data-name="Trazado 161208" d="M113.983,248.921l-.205-.083-.044-.018-.006,0c-.065-.025-.067-.026,0,0a2.013,2.013,0,0,0-1.1-.175c-1.067.157-1.791,1.327-2.373,2.134a9.218,9.218,0,0,0-.718,1.184,4.16,4.16,0,0,0-.333.788,2.4,2.4,0,0,0-.09.448,2.7,2.7,0,0,0,.033.426.733.733,0,0,0,1.092.613q-.1,0,.071-.046a1.1,1.1,0,0,0,.188-.09,1.463,1.463,0,0,0,.3-.269,5.073,5.073,0,0,0,.494-.618c.055-.079.111-.158.168-.237l.09-.123c.06-.079.124-.157.185-.236l.09-.12a17.891,17.891,0,0,0,.821,3.383,19.184,19.184,0,0,0,2.2,4.67,18.079,18.079,0,0,0,3.3,3.8c1.105.934,2.823,2.494,4.348,1.795a.183.183,0,0,0,.091-.163c-.094-1.412-1.692-2.359-2.606-3.317a19.969,19.969,0,0,1-2.726-3.527,19.073,19.073,0,0,1-1.836-3.917,18.315,18.315,0,0,1-.579-2.273c-.038-.2-.052-.4-.073-.606l.858.533a2.61,2.61,0,0,0,1.582.575,1.154,1.154,0,0,0,.874-.455,1.066,1.066,0,0,0,.194-.979,2.1,2.1,0,0,0-.732-.969,7.867,7.867,0,0,0-.711-.445l-1.3-.776-1.252-.745C114.176,249.025,114.083,248.97,113.983,248.921Z" transform="translate(-75.943 -177.026)" fill="#a7e446"/>
            <path id="Trazado_161209" data-name="Trazado 161209" d="M134.609,205.949a12.665,12.665,0,0,0,.763,2.687,25.307,25.307,0,0,1,.648,2.656,23.59,23.59,0,0,1,.326,5.524,25.872,25.872,0,0,1-.823,5.335c-.218.819-.645,1.748-.96,2.682l-.174-.473a14.2,14.2,0,0,0-.546-1.373,2.149,2.149,0,0,0-.429-.646,1.222,1.222,0,0,0-.248-.214,1.64,1.64,0,0,0-.5-.109.209.209,0,0,0-.2.056c-.1.127-.227.189-.311.336a1.175,1.175,0,0,0-.111.427,2.654,2.654,0,0,0,.09.876,14.809,14.809,0,0,0,.445,1.53c.327,1.059.567,2.619,1.925,2.755a3.4,3.4,0,0,0,1.679-.475l1.489-.646c.494-.215,1.006-.406,1.485-.652a2.114,2.114,0,0,0,.822-.7,2.215,2.215,0,0,0,.267-.707.576.576,0,0,0-.273-.629,1.916,1.916,0,0,0-1.455-.207,4.867,4.867,0,0,0-1,.425c.233-.583.449-1.175.64-1.763a24.3,24.3,0,0,0,1.144-5.881,26.556,26.556,0,0,0-.3-6c-.3-1.879-.682-4.385-1.938-5.871A1.459,1.459,0,0,0,134.609,205.949Z" transform="translate(-71.799 -185.007)" fill="#fc4b52"/>
          </g>
          <g id="Grupo_116482" data-name="Grupo 116482" transform="translate(292.009 185.458)">
            <path id="Trazado_161210" data-name="Trazado 161210" d="M335.556,179.23c-2.656-5.8-59.326-15.507-65.374-13.064-5.609,2.266-11.464,40.048-11.427,44.437.008,1.108,4.114,2.672,10.307,4.363.927,5.058,2.506,12.988,3.5,14.275,1.106,1.43,7.889-5.7,11.161-10.8,18.539,3.924,41.015,7.36,43.424,6.364C331.312,223.082,338.213,185.031,335.556,179.23Z" transform="translate(-258.755 -165.78)" fill="#fc4b52"/>
            <path id="Trazado_161211" data-name="Trazado 161211" d="M278.084,193.868c.009-.061.028-.124.034-.184a3.924,3.924,0,0,0-.307-2,3.841,3.841,0,0,0-1.4-1.634,3.509,3.509,0,0,0-3.8-1,3.9,3.9,0,0,0-2.226,4.074,4.486,4.486,0,0,0,.791,2.11,3.759,3.759,0,0,0,1.722,1.38l.014,0a2.9,2.9,0,0,0,2.382.675,3.425,3.425,0,0,0,2.15-1.254A3.376,3.376,0,0,0,278.084,193.868Z" transform="translate(-256.656 -161.613)" fill="#fff0eb"/>
            <path id="Trazado_161212" data-name="Trazado 161212" d="M295.057,197.757c.009-.061.028-.124.034-.184a3.912,3.912,0,0,0-.307-2,3.834,3.834,0,0,0-1.4-1.634,3.507,3.507,0,0,0-3.8-1,3.9,3.9,0,0,0-2.227,4.074,4.5,4.5,0,0,0,.791,2.109,3.76,3.76,0,0,0,1.722,1.381l.015,0a2.9,2.9,0,0,0,2.38.677,3.423,3.423,0,0,0,2.15-1.255A3.371,3.371,0,0,0,295.057,197.757Z" transform="translate(-253.588 -160.91)" fill="#fff0eb"/>
            <path id="Trazado_161213" data-name="Trazado 161213" d="M312.031,201.646c.009-.061.027-.124.033-.184a3.912,3.912,0,0,0-.307-2,3.834,3.834,0,0,0-1.4-1.634,3.506,3.506,0,0,0-3.8-1,3.9,3.9,0,0,0-2.227,4.072,4.5,4.5,0,0,0,.791,2.11,3.76,3.76,0,0,0,1.722,1.381l.015,0a2.9,2.9,0,0,0,2.38.677,3.429,3.429,0,0,0,2.151-1.255A3.387,3.387,0,0,0,312.031,201.646Z" transform="translate(-250.52 -160.207)" fill="#fff0eb"/>
          </g>
          <g id="Grupo_116483" data-name="Grupo 116483" transform="translate(251.837 94.511)">
            <path id="Trazado_161214" data-name="Trazado 161214" d="M233.768,91.441s-9.386,38.626-9.025,44.041,59.2,23.1,64.258,22.021,13.357-38.627,13.357-38.627Z" transform="translate(-224.733 -88.27)" fill="#dff7f9"/>
            <path id="Trazado_161215" data-name="Trazado 161215" d="M231.187,89.76c-2.206,2.992,19.855,39.349,28.879,41.876S301.22,124.776,303.747,119,236.24,82.9,231.187,89.76Z" transform="translate(-223.595 -88.756)" fill="#727997"/>
            <path id="Trazado_161216" data-name="Trazado 161216" d="M297.866,120.815c-1.3-.311-2.238.313-3.343.93q-1.707.956-3.469,1.811a65.783,65.783,0,0,1-7.259,3.016c-5.048,1.744-10.65,3.329-16.03,3.216-10.8-.227-17.937-9.522-23.221-17.833-3.463-5.447-6.595-11.143-10.261-16.455a.766.766,0,0,0-1.322.773c2.687,5.563,5.878,10.935,8.877,16.337,2.707,4.875,5.658,9.738,9.794,13.556a25.324,25.324,0,0,0,13.422,6.84c5.728.808,11.756-.449,17.239-2.077a71.056,71.056,0,0,0,8.759-3.26q2.264-1.01,4.441-2.2c1.311-.711,2.958-1.364,3.356-2.927A1.427,1.427,0,0,0,297.866,120.815Z" transform="translate(-223.263 -87.601)" fill="#12263f"/>
            <path id="Trazado_161217" data-name="Trazado 161217" d="M245.9,120.787a3.918,3.918,0,0,0-2.494-.144c-.8.28-1.582.668-2.365,1q-2.451,1.034-4.9,2.057c-1.628.68-3.247,1.382-4.868,2.078-1.4.6-3.654,1.1-4.405,2.535a.755.755,0,0,0,.445,1.093c1.535.507,3.542-.72,4.956-1.268,1.651-.639,3.3-1.281,4.937-1.951s3.278-1.343,4.914-2.018c.779-.321,1.614-.6,2.364-.981a3.946,3.946,0,0,0,1.637-1.873A.363.363,0,0,0,245.9,120.787Z" transform="translate(-224.365 -83.02)" fill="#12263f"/>
            <path id="Trazado_161218" data-name="Trazado 161218" d="M280.7,145.033q-.728-1.059-1.446-2.127c-.925-1.385-1.8-2.8-2.667-4.221q-1.265-2.062-2.418-4.189a25.339,25.339,0,0,0-2.574-4.362.97.97,0,0,0-1.642.68,16.643,16.643,0,0,0,1.576,4.526c.623,1.38,1.3,2.737,2.007,4.077s1.461,2.648,2.254,3.939q.634,1.029,1.3,2.042.333.507.679,1c.1.142.533.98.514.57a1.558,1.558,0,0,0,3.044.412A2.445,2.445,0,0,0,280.7,145.033Z" transform="translate(-216.56 -81.326)" fill="#12263f"/>
          </g>
        </g>
      </g>
      <path id="Trazado_158124" data-name="Trazado 158124" d="M4439.255-1116h0a11.058,11.058,0,0,0-15.639,0l-45.449,45.449a11.057,11.057,0,0,0,0,15.638,11.059,11.059,0,0,0,15.639,0l45.449-45.449A11.06,11.06,0,0,0,4439.255-1116Z" transform="translate(-4374.928 1141.171)" fill="#fc4b52"/>
      <path id="Trazado_158125" data-name="Trazado 158125" d="M4476.83-1136.847a11.056,11.056,0,0,0-15.638,0l-60.088,60.087a11.059,11.059,0,0,0,0,15.638h0a11.057,11.057,0,0,0,15.638,0l60.088-60.087A11.057,11.057,0,0,0,4476.83-1136.847Z" transform="translate(-4373.733 1140.086)" fill="#feca2e"/>
      <g id="Grupo_108305" data-name="Grupo 108305" transform="translate(398.663 241.909)">
        <path id="Trazado_158126" data-name="Trazado 158126" d="M4757.1-824.256a11.055,11.055,0,0,0,15.637,0l60.09-60.087a11.06,11.06,0,0,0,0-15.638h0a11.059,11.059,0,0,0-15.64,0L4757.1-839.894A11.057,11.057,0,0,0,4757.1-824.256Z" transform="translate(-4753.857 910.513)" fill="#feca2e"/>
        <path id="Trazado_158127" data-name="Trazado 158127" d="M4793.947-845.826h0a11.058,11.058,0,0,0,15.639,0l45.448-45.449a11.056,11.056,0,0,0,0-15.638,11.059,11.059,0,0,0-15.64,0l-45.447,45.449A11.058,11.058,0,0,0,4793.947-845.826Z" transform="translate(-4751.938 910.152)" fill="#fc4b52"/>
      </g>
    </g>
  </g>
</svg>
