<svg xmlns="http://www.w3.org/2000/svg" xmlns:xlink="http://www.w3.org/1999/xlink" width="504.999" height="331.404" viewBox="0 0 504.999 331.404">
  <defs>
    <clipPath id="clip-path">
      <path id="Trazado_158123" data-name="Trazado 158123" d="M4461.649-1127.943h371.759a32.164,32.164,0,0,1,32.165,32.163v210.04l-72.445,63.651H4420.092a32.163,32.163,0,0,1-32.163-32.163v-204.262Z" transform="translate(-4387.607 1128.168)" fill="#79d2dc"/>
    </clipPath>
  </defs>
  <g id="Grupo_117464" data-name="Grupo 117464" transform="translate(4914 7824)">
    <g id="Grupo_116467" data-name="Grupo 116467" transform="translate(-4914 -7824)">
      <g id="Enmascarar_grupo_116" data-name="Enmascarar grupo 116" transform="translate(13.678 12.775)" clip-path="url(#clip-path)">
        <g id="Rectángulo_40687" data-name="Rectángulo 40687" transform="translate(-38.929 -23.46)" fill="#f3f9ff" stroke="#707070" stroke-width="1">
          <rect width="534.037" height="352.237" stroke="none"/>
          <rect x="0.5" y="0.5" width="533.037" height="351.237" fill="none"/>
        </g>
        <g id="Grupo_116485" data-name="Grupo 116485" transform="translate(32.572 -25.7)">
          <path id="Trazado_161219" data-name="Trazado 161219" d="M362.472,268.437q-155.424,0-310.849.038c-1.528,0-1.874-.344-1.873-1.872q.067-89.113.038-178.229,155.423,0,310.844-.047c1.875,0,2.3.49,2.292,2.316q-.126,63.751-.136,127.5-.02,21.08-.093,42.16C362.686,263.018,362.55,265.727,362.472,268.437ZM206.386,94.013q-74.4,0-148.79-.053c-2.1,0-2.521.554-2.519,2.567q.089,81.877,0,163.755c0,2.009.412,2.57,2.518,2.568q148.789-.09,297.579,0c2,0,2.418-.528,2.416-2.46q-.086-81.979,0-163.959c0-1.93-.409-2.466-2.414-2.463Q280.781,94.059,206.386,94.013Z" fill="#c71f1e"/>
          <path id="Trazado_161220" data-name="Trazado 161220" d="M362.472,268.437c.078-2.71.214-5.419.223-8.129q.075-21.08.093-42.16.057-63.753.136-127.5c0-1.826-.417-2.317-2.292-2.316q-155.421.076-310.844.047c.089-.125-.206-.424.2-.411.543.017,1.087,0,1.63,0q154.851,0,309.7-.042c1.6,0,2.013.24,2.012,1.949q-.088,88.467-.091,176.934C363.246,267.319,364.086,268.564,362.472,268.437Z" fill="#fdfdfd"/>
          <path id="Trazado_161221" data-name="Trazado 161221" d="M206.386,94.013q74.4,0,148.79-.049c2.005,0,2.416.533,2.414,2.463q-.086,81.979,0,163.959c0,1.932-.414,2.461-2.416,2.46q-148.79-.083-297.579,0c-2.106,0-2.52-.559-2.518-2.568q.089-81.878,0-163.755c0-2.013.417-2.57,2.519-2.567Q131.992,94.062,206.386,94.013Zm-.035,5.1q-71.836,0-143.675-.045c-1.944,0-2.48.446-2.474,2.437q.108,38.285,0,76.571c-.005,1.977.5,2.436,2.455,2.434q143.47-.078,286.942,0c1.987,0,2.607-.374,2.6-2.514q-.131-38.184-.006-76.368c.007-2.071-.513-2.564-2.572-2.561Q277.985,99.156,206.351,99.109Zm50.736,127c-1.7,0-3.4.027-5.094-.011-.881-.019-1.416.171-1.395,1.212a50.955,50.955,0,0,0,.4,7.508,9.535,9.535,0,0,0,5.626,7.233c5.254,2.624,10.721,2.744,16.269,1.366a10.4,10.4,0,0,0,8.152-8.66,33.728,33.728,0,0,0,.588-5.042c.266-5.808-1.625-10.523-7.033-13.372-1.379-.727-2.739-1.492-4.128-2.2a33.158,33.158,0,0,1-5.256-3.091,6.817,6.817,0,0,1-1.875-7.173,2.268,2.268,0,0,1,2.533-1.58c1.175.133,1.525.9,1.71,1.936a15.279,15.279,0,0,1,.212,4.055c-.133,1.482.475,1.849,1.854,1.785,2.169-.1,4.345-.027,6.519-.027,4.532,0,4.425,0,4.357-4.525-.109-7.265-4.647-10.488-9.927-11.517a28.936,28.936,0,0,0-8.725-.308c-8.076.892-11.128,4.015-11.795,12.069-.544,6.556,1.379,11.89,7.512,15.179,2.33,1.25,4.49,2.845,6.885,3.938,3.446,1.573,4.279,4.216,3.82,7.633-.213,1.586-.586,3.034-2.6,2.96-1.949-.073-2.137-1.621-2.275-3.045a21.579,21.579,0,0,1-.071-4.065c.159-1.723-.293-2.526-2.193-2.29A33.48,33.48,0,0,1,257.087,226.109Zm42.177-13.657-.407,0c0-6.3-.023-12.606.02-18.909.008-1.164-.221-1.712-1.552-1.673-3.12.089-6.246.06-9.368.011-1.06-.017-1.6.174-1.6,1.422q.05,24.729,0,49.459c0,1.164.4,1.53,1.538,1.507,2.986-.058,5.978-.11,8.96.017,1.629.068,2.066-.46,2.032-2.056-.1-4.787-.037-9.577-.037-14.367a5.093,5.093,0,0,1,.833,2.065c.935,4.235,1.924,8.459,2.755,12.714.25,1.278.75,1.669,2,1.633,2.781-.081,5.569-.1,8.349,0,1.7.062,2.246-.21,1.708-2.122-2.019-7.175-3.823-14.41-5.754-21.61a6.424,6.424,0,0,1,.051-3.752c1.393-4.462,2.6-8.983,4.052-13.426.58-1.773.06-2.091-1.574-2.017-2.236.1-4.483.1-6.719,0a1.926,1.926,0,0,0-2.3,1.639C301.35,206.166,300.275,209.3,299.264,212.452Zm-154.876,29c-.692,3.273,1.368,2.807,3.108,2.8,2.444-.015,4.893-.1,7.329.031,1.58.087,1.918-.482,1.9-1.963-.072-7.461.013-14.923-.054-22.384a69.881,69.881,0,0,0-.346-10.156,9.88,9.88,0,0,0-7.846-8.563,21.463,21.463,0,0,0-11.462.222c-4.457,1.321-7.458,4.135-8.081,8.926-.27,2.076-.193,4.2-.337,6.291-.08,1.153.356,1.55,1.51,1.526,2.85-.061,5.7-.088,8.551.009,1.4.048,1.694-.51,1.664-1.778-.051-2.1.071-4.2.139-6.3a1.5,1.5,0,0,1,1.65-1.64,1.6,1.6,0,0,1,1.786,1.555c.165,1.343.288,2.695.348,4.046a4.474,4.474,0,0,1-3.288,4.921,59.4,59.4,0,0,0-8.739,3.855,6.173,6.173,0,0,0-3.453,5.35,54.056,54.056,0,0,0,.116,10.153c.478,3.747,2.723,5.949,6.459,6.525C138.867,245.418,141.931,244.709,144.388,241.452ZM195.36,223c0,3.593-.194,7.2.047,10.777a10.886,10.886,0,0,0,7.486,10.165,21.881,21.881,0,0,0,12.034.583,10.238,10.238,0,0,0,5.209-3c4.17-4.077,3.882-9.293,3.779-14.465-.017-.831-.739-.637-1.235-.639-3.055-.017-6.111.038-9.164-.033-1.178-.027-1.489.387-1.487,1.519a43.468,43.468,0,0,1-.192,7.312c-.228,1.365-.813,2.35-2.367,2.2-1.465-.138-1.557-1.268-1.564-2.411-.02-3.12.043-6.245-.105-9.359-.076-1.608.538-1.92,1.99-1.891,4.207.084,8.418.021,12.627.036.877,0,1.591.022,1.55-1.232-.121-3.722.17-7.454-.5-11.162-1.013-5.642-4.682-9.359-10.326-10.278q-2.1-.342-4.221-.561a12.508,12.508,0,0,0-13.278,9.851C194.824,214.586,195.241,218.8,195.36,223Zm137.751,5.041-.31.056c-.16-.922-.347-1.841-.476-2.767-1-7.255-2.056-14.5-2.954-21.772-.225-1.825-.952-2.325-2.7-2.222-2.5.148-5.024.077-7.536.022-1.186-.026-1.495.284-1.25,1.532,1.4,7.119,2.692,14.257,4.027,21.388,1.011,5.4,2.044,10.791,3.035,16.192.241,1.309.439,2.6-1.56,2.807-2.86.3-2.853.368-2.854,3.285,0,.815.043,1.632-.009,2.443-.066,1,.236,1.492,1.357,1.449,3.458-.134,6.925.178,10.38-.222,5.817-.672,8.57-3.177,9.306-8.921,1.637-12.782,3.13-25.581,4.755-38.364.177-1.4-.291-1.615-1.484-1.591-2.715.057-5.436.1-8.148-.014-1.513-.065-1.916.423-2,1.928C334.24,211.533,333.652,219.787,333.111,228.043Zm-243.722-4.18c0-6.312.036-12.624-.027-18.936-.014-1.38.333-1.947,1.8-1.87,2.1.11,4.21,0,6.315.04.946.02,1.332-.284,1.316-1.278-.047-2.918-.056-5.838,0-8.755.022-1.071-.344-1.392-1.4-1.388q-14.773.047-29.546,0c-1.061,0-1.411.338-1.389,1.4.06,2.849.074,5.7-.005,8.551-.034,1.206.435,1.511,1.539,1.474,1.9-.064,3.815.115,5.7-.054,1.945-.174,2.519.419,2.5,2.431-.1,12.285-.023,24.57-.083,36.855-.008,1.524.407,2,1.94,1.942,3.12-.114,6.251-.131,9.37.005,1.688.074,2.009-.563,1.989-2.092C89.344,236.081,89.389,229.972,89.389,223.863Zm87.391,5.7-.494-.017c-.992-8.824-2.014-17.644-2.944-26.474-.135-1.283-.508-1.769-1.835-1.724-2.645.089-5.3.1-7.942,0-1.519-.063-1.821.457-1.6,1.875q3.048,19.7,5.966,39.413c.2,1.357.714,1.649,1.941,1.634,4.345-.055,8.691-.064,13.035.005,1.235.019,1.653-.441,1.783-1.6.3-2.694.714-5.376,1.084-8.063,1.45-10.544,2.877-21.091,4.381-31.628.189-1.323-.144-1.663-1.421-1.628q-4.071.112-8.146,0c-1.213-.035-1.615.327-1.7,1.58-.45,6.563-1.007,13.119-1.531,19.676C177.169,224.927,176.972,227.245,176.78,229.564Zm54.709-11.652c0,8.139.038,16.278-.034,24.417-.013,1.507.376,2.01,1.926,1.949,3.05-.12,6.109-.09,9.161-.011,1.34.035,1.751-.407,1.713-1.745-.092-3.185-.03-6.374-.03-9.562,0-13.023-.028-26.046.036-39.068.008-1.6-.417-2.1-2.035-2.031-2.981.13-5.974.111-8.957,0-1.449-.051-1.819.433-1.809,1.833C231.52,201.769,231.489,209.84,231.489,217.912Zm-128.39,4.9c0,6.517.052,13.036-.037,19.552-.022,1.56.452,1.975,1.956,1.914,2.78-.114,5.575-.14,8.352.007,1.71.09,2.138-.446,2.144-2.131.024-6.852-.338-13.712.245-20.558.355-4.157,1.4-5.314,5.613-5.717,1.488-.142,1.736-.769,1.713-2.06-.066-3.733-.017-7.468-.026-11.2,0-2.086-.257-2.268-2.2-1.621a9.337,9.337,0,0,0-4.45,3.419c-.272.356-.448,1-1.023.8-.69-.239-.27-.931-.345-1.419a1.169,1.169,0,0,1,.156-.575c.636-1.471.077-1.908-1.419-1.869-2.919.077-5.845.1-8.762-.01-1.5-.058-1.977.357-1.956,1.915C103.15,209.776,103.1,216.294,103.1,222.811Z" fill="#fcfcfc"/>
          <path id="Trazado_161222" data-name="Trazado 161222" d="M206.351,99.109q71.634,0,143.268-.048c2.059,0,2.579.49,2.572,2.561q-.115,38.184.006,76.368c.008,2.14-.612,2.515-2.6,2.514q-143.47-.075-286.942,0c-1.957,0-2.46-.457-2.455-2.434q.109-38.285,0-76.571c-.006-1.991.53-2.439,2.474-2.437Q134.514,99.151,206.351,99.109ZM124.1,141.121c0-5.837-.057-11.674.038-17.509.025-1.549-.43-1.929-1.937-1.9-5.364.092-10.731-.027-16.1.075-1.583.03-2.09-.492-1.879-1.967.057-.4-.037-.819.017-1.219.2-1.519-.252-2.282-1.966-2.073a30.446,30.446,0,0,1-3.664.028c-3.531,0-3.614,0-3.557,3.451.024,1.5-.523,1.8-1.882,1.769-4.073-.078-8.149-.039-12.224-.025-3.9.014-5.351,1.411-5.357,5.235-.017,10.452.028,20.9-.042,31.355-.011,1.557.455,1.941,1.955,1.916,5.3-.086,10.594-.034,15.891-.032.812,0,1.637-.147,1.648,1.156.011,1.185-.616,2.837.365,3.443.947.585,2.5.2,3.782.229.747.016,1.494.01,2.241,0,3.222-.038,2.847.373,2.763-2.823-.043-1.608.434-2.074,2.047-2.045,5.363.1,10.73-.015,16.094.071,1.456.024,1.813-.422,1.794-1.828C124.056,152.659,124.1,146.89,124.1,141.121Zm45.854,24.263c7.673,0,15.347-.03,23.02.029,1.319.011,1.7-.338,1.7-1.682q-.072-21.985,0-43.972c0-1.39-.319-1.845-1.784-1.84-13.853.056-27.706.021-41.559.041-4.469.007-6.018,1.565-6.023,6-.014,13.165.029,26.33-.048,39.494-.01,1.7.576,1.969,2.08,1.956C154.879,165.348,162.417,165.384,169.955,165.384Zm69.078-24.461c0-6.652-.036-13.3.03-19.953.013-1.327-.349-1.733-1.689-1.694-3.258.094-6.521-.028-9.779.058-1.375.036-1.749-.368-1.134-1.588.546-1.082.193-1.456-.96-1.406-1.22.053-2.445-.011-3.667.015-4.069.089-2.885-.643-4.59,3.117-.4.889-.347,2.314-1.477,2.51-1.721.3-1.394,1.284-1.121,2.331,1.056,4.05,1.9,8.122,1.474,12.345-.058.577.192,1.2-.374,1.7-.819.733-1.566,5.818-.756,6.217,1.748.863,1.068,2.256,1.1,3.447.088,2.848.04,5.7.018,8.551,0,.528-.016,1.447-.243,1.522-2.042.67-1.06,2.159-.906,3.3.57,4.235,1.083,4.572,5.357,3.908a4.251,4.251,0,0,0,3.926-4.423c.052-1.356,0-2.715.02-4.072.008-.5-.122-.966.68-1.208,3.912-1.18,4.537-2.083,4.454-6.207-.013-.7.471-1.81-.9-1.84-.985-.021-2.282-.48-2.238,1.369.017.7-.615.977-1.312.981-.9.006-.657-.663-.69-1.15-.258-3.819-.255-3.819,3.575-3.819.611,0,1.227.05,1.832-.009,1.012-.1,1.264.369,1.254,1.3q-.057,5.394,0,10.79c.014,1.178-.514,1.642-1.6,1.5-1.632-.215-1.928.411-1.632,1.954.958,4.981.9,4.991,6.013,4.906,3.806-.063,5.314-1.553,5.322-5.322C239.043,153.682,239.033,147.3,239.033,140.923Zm25.6,3.168c0-4.206-.055-8.413.031-12.617.028-1.363-.411-1.7-1.722-1.687-5.43.068-10.861.024-16.292.03-3.123,0-4.081.981-4.083,4.151,0,7.394.006,14.787-.012,22.181,0,.779.292,2.041-.58,2.174-2.4.365-1.337,1.9-1.16,3.008.653,4.087.7,4.08,4.85,4.053,4.4-.028,5.789-1.443,5.791-5.911,0-6.919.058-13.839-.029-20.757-.028-2.223,1.35-1.777,2.688-1.885,1.518-.122,1.959.358,1.941,1.9-.085,7.121-.043,14.245-.035,21.367.005,3.839,1.4,5.221,5.3,5.28,5.745.089,5.767.063,5.214-5.667-.045-.469.042-1.074-.575-1.137-1.552-.158-1.314-1.29-1.317-2.278C264.629,152.231,264.636,148.161,264.636,144.091Zm53.739,21.291c5.3,0,10.6-.029,15.892.023,1.129.011,1.519-.288,1.505-1.465-.059-5.022-.069-10.045.006-15.066.019-1.312-.449-1.567-1.645-1.561-9.3.042-18.609,0-27.914.034-3.567.012-4.934,1.419-4.952,4.949-.018,3.733.067,7.467-.039,11.2-.042,1.475.281,1.967,1.866,1.932C308.185,165.31,313.281,165.382,318.375,165.382Zm-28.966-13.9c0,4.14.034,8.281-.023,12.421-.016,1.112.244,1.568,1.448,1.512,2.034-.094,4.078-.094,6.111,0,1.235.057,1.463-.463,1.438-1.549-.061-2.713-.02-5.429-.02-8.144,0-6.788.012-13.576-.019-20.364,0-.637.437-1.729-.772-1.724-1.757.008-1.171-1.029-.972-1.89,1.066-4.625,2.111-9.255,3.26-13.859.3-1.188.112-1.594-1.151-1.547-1.9.071-3.808.1-5.7-.011-1.232-.072-1.636.447-1.871,1.551-.764,3.581-1.63,7.139-2.432,10.711-.217.969-.5,2.1-1.585,2.1-2.071,0-1.711,1.062-1.368,2.356.3,1.111.463,2.257.655,3.394.142.84.476,1.394,1.455,1.215,1.554-.284,1.573.683,1.563,1.814C289.387,143.467,289.409,147.472,289.409,151.477ZM318.567,125.5H331.39c5.079,0,5.03,0,4.952-5.145-.02-1.29-.451-1.6-1.649-1.575-3.526.063-7.055,0-10.583.037-1.044.013-1.755-.155-1.57-1.417.164-1.114-.4-1.378-1.412-1.347-1.966.06-3.935.046-5.9,0-.882-.019-1.492.139-1.332,1.2.2,1.3-.43,1.6-1.627,1.569-2.508-.075-5.019-.033-7.529-.02-2.972.015-3.814.885-3.829,3.915a8.394,8.394,0,0,1-.009,1.219c-.2,1.281.36,1.6,1.589,1.586C307.848,125.465,313.208,125.5,318.567,125.5Zm-.418,19.144h12.208c5.2,0,5.171,0,4.842-5.258-.06-.962-.345-1.281-1.306-1.279-9.834.026-19.668.011-29.5.021a2.687,2.687,0,0,0-2.909,2.736,8.826,8.826,0,0,0-.016,1.016c.031,3.223-.283,2.742,2.644,2.757C308.79,144.662,313.47,144.644,318.149,144.644Zm-64.481-18h7.744c5.354,0,5.354,0,5.125-5.395a1.388,1.388,0,0,1,0-.2c.106-.962-.3-1.322-1.284-1.288-1.764.061-3.54-.087-5.3.047-1.572.12-2.275-.35-1.993-1.978.253-1.461-.438-1.865-1.826-1.788-1.9.106-3.8.048-5.7.019-.814-.013-1.414.216-1.215,1.126.6,2.741-1.065,2.776-2.984,2.6a17.256,17.256,0,0,0-1.834-.007c-2.571.035-3.42.872-3.452,3.4-.009.678.061,1.364-.015,2.035-.139,1.212.423,1.469,1.527,1.452C246.2,126.608,249.932,126.643,253.668,126.643Zm64.656,8.6h12.607c4.28,0,4.209,0,4.278-4.373.024-1.52-.386-1.939-1.917-1.927-9.15.073-18.3.034-27.45.037-3.865,0-4.356.593-4.408,4.524-.019,1.469.466,1.791,1.844,1.769C308.292,135.193,313.308,135.24,318.324,135.24Z" fill="#c61e1d"/>
          <path id="Trazado_161223" data-name="Trazado 161223" d="M257.087,226.109a33.48,33.48,0,0,0,4.071-.033c1.9-.236,2.352.567,2.193,2.29a21.579,21.579,0,0,0,.071,4.065c.138,1.424.326,2.972,2.275,3.045,2.018.074,2.391-1.374,2.6-2.96.459-3.417-.374-6.06-3.82-7.633-2.395-1.093-4.555-2.688-6.885-3.938-6.133-3.289-8.056-8.623-7.512-15.179.667-8.054,3.719-11.177,11.795-12.069a28.936,28.936,0,0,1,8.725.308c5.28,1.029,9.818,4.252,9.927,11.517.068,4.527.175,4.525-4.357,4.525-2.174,0-4.35-.074-6.519.027-1.379.064-1.987-.3-1.854-1.785a15.279,15.279,0,0,0-.212-4.055c-.185-1.036-.535-1.8-1.71-1.936a2.268,2.268,0,0,0-2.533,1.58,6.817,6.817,0,0,0,1.875,7.173,33.158,33.158,0,0,0,5.256,3.091c1.389.709,2.749,1.474,4.128,2.2,5.408,2.849,7.3,7.564,7.033,13.372a33.728,33.728,0,0,1-.588,5.042,10.4,10.4,0,0,1-8.152,8.66c-5.548,1.378-11.015,1.258-16.269-1.366A9.535,9.535,0,0,1,251,234.818a50.955,50.955,0,0,1-.4-7.508c-.021-1.041.514-1.231,1.395-1.212C253.69,226.136,255.389,226.109,257.087,226.109Z" fill="#295696"/>
          <path id="Trazado_161224" data-name="Trazado 161224" d="M299.264,212.452c1.011-3.152,2.086-6.286,3-9.467a1.926,1.926,0,0,1,2.3-1.639c2.236.1,4.483.105,6.719,0,1.634-.074,2.154.244,1.574,2.017-1.451,4.443-2.659,8.964-4.052,13.426a6.424,6.424,0,0,0-.051,3.752c1.931,7.2,3.735,14.435,5.754,21.61.538,1.912-.011,2.184-1.708,2.122-2.78-.1-5.568-.084-8.349,0-1.254.036-1.754-.355-2-1.633-.831-4.255-1.82-8.479-2.755-12.714a5.093,5.093,0,0,0-.833-2.065c0,4.79-.065,9.58.037,14.367.034,1.6-.4,2.124-2.032,2.056-2.982-.127-5.974-.075-8.96-.017-1.137.023-1.54-.343-1.538-1.507q.042-24.729,0-49.459c0-1.248.536-1.439,1.6-1.422,3.122.049,6.248.078,9.368-.011,1.331-.039,1.56.509,1.552,1.673-.043,6.3-.02,12.606-.02,18.909Z" fill="#2a5796"/>
          <path id="Trazado_161225" data-name="Trazado 161225" d="M144.388,241.452c-2.457,3.257-5.521,3.966-9.042,3.422-3.736-.576-5.981-2.778-6.459-6.525a54.056,54.056,0,0,1-.116-10.153,6.173,6.173,0,0,1,3.453-5.35,59.4,59.4,0,0,1,8.739-3.855,4.474,4.474,0,0,0,3.288-4.921c-.06-1.351-.183-2.7-.348-4.046a1.6,1.6,0,0,0-1.786-1.555,1.5,1.5,0,0,0-1.65,1.64c-.068,2.1-.19,4.2-.139,6.3.03,1.268-.259,1.826-1.664,1.778-2.847-.1-5.7-.07-8.551-.009-1.154.024-1.59-.373-1.51-1.526.144-2.1.067-4.215.337-6.291.623-4.791,3.624-7.6,8.081-8.926a21.463,21.463,0,0,1,11.462-.222,9.88,9.88,0,0,1,7.846,8.563,69.881,69.881,0,0,1,.346,10.156c.067,7.461-.018,14.923.054,22.384.014,1.481-.324,2.05-1.9,1.963-2.436-.133-4.885-.046-7.329-.031C145.756,244.259,143.7,244.725,144.388,241.452Zm-.106-17.075c-3.678,2.211-5.4,8.993-3.361,12.212a1.711,1.711,0,0,0,1.912.815c.891-.165,1.113-.81,1.211-1.627C144.483,232.076,144.166,228.372,144.282,224.377Z" fill="#295696"/>
          <path id="Trazado_161226" data-name="Trazado 161226" d="M195.36,223c-.119-4.2-.536-8.416.287-12.583a12.508,12.508,0,0,1,13.278-9.851q2.118.216,4.221.561c5.644.919,9.313,4.636,10.326,10.278.666,3.708.375,7.44.5,11.162.041,1.254-.673,1.235-1.55,1.232-4.209-.015-8.42.048-12.627-.036-1.452-.029-2.066.283-1.99,1.891.148,3.114.085,6.239.105,9.359.007,1.143.1,2.273,1.564,2.411,1.554.147,2.139-.838,2.367-2.2a43.468,43.468,0,0,0,.192-7.312c0-1.132.309-1.546,1.487-1.519,3.053.071,6.109.016,9.164.033.5,0,1.218-.192,1.235.639.1,5.172.391,10.388-3.779,14.465a10.238,10.238,0,0,1-5.209,3,21.881,21.881,0,0,1-12.034-.583,10.886,10.886,0,0,1-7.486-10.165C195.166,230.2,195.36,226.6,195.36,223Zm12.594-9.966h-.1c0,.945-.032,1.892.008,2.836.053,1.236,1.042.821,1.677.809s1.686.466,1.71-.762c.039-2.024,0-4.052-.11-6.073-.051-.948-.736-1.38-1.686-1.38-1.033,0-1.455.6-1.487,1.534C207.927,211.012,207.954,212.025,207.954,213.036Z" fill="#285595"/>
          <path id="Trazado_161227" data-name="Trazado 161227" d="M333.111,228.043c.541-8.256,1.129-16.51,1.582-24.771.083-1.505.486-1.993,2-1.928,2.712.115,5.433.071,8.148.014,1.193-.024,1.661.193,1.484,1.591-1.625,12.783-3.118,25.582-4.755,38.364-.736,5.744-3.489,8.249-9.306,8.921-3.455.4-6.922.088-10.38.222-1.121.043-1.423-.444-1.357-1.449.052-.811.009-1.628.009-2.443,0-2.917-.006-2.985,2.854-3.285,2-.21,1.8-1.5,1.56-2.807-.991-5.4-2.024-10.795-3.035-16.192-1.335-7.131-2.631-14.269-4.027-21.388-.245-1.248.064-1.558,1.25-1.532,2.512.055,5.032.126,7.536-.022,1.746-.1,2.473.4,2.7,2.222.9,7.268,1.95,14.517,2.954,21.772.129.926.316,1.845.476,2.767Z" fill="#295696"/>
          <path id="Trazado_161228" data-name="Trazado 161228" d="M89.389,223.863c0,6.109-.045,12.218.032,18.326.02,1.529-.3,2.166-1.989,2.092-3.119-.136-6.25-.119-9.37-.005-1.533.056-1.948-.418-1.94-1.942.06-12.285-.016-24.57.083-36.855.016-2.012-.558-2.605-2.5-2.431-1.887.169-3.8-.01-5.7.054-1.1.037-1.573-.268-1.539-1.474.079-2.849.065-5.7.005-8.551-.022-1.062.328-1.4,1.389-1.4q14.773.045,29.546,0c1.054,0,1.42.317,1.4,1.388-.06,2.917-.051,5.837,0,8.755.016.994-.37,1.3-1.316,1.278-2.1-.044-4.215.07-6.315-.04-1.469-.077-1.816.49-1.8,1.87C89.425,211.239,89.389,217.551,89.389,223.863Z" fill="#275595"/>
          <path id="Trazado_161229" data-name="Trazado 161229" d="M176.78,229.564c.192-2.319.389-4.637.574-6.957.524-6.557,1.081-13.113,1.531-19.676.086-1.253.488-1.615,1.7-1.58q4.069.117,8.146,0c1.277-.035,1.61.3,1.421,1.628-1.5,10.537-2.931,21.084-4.381,31.628-.37,2.687-.781,5.369-1.084,8.063-.13,1.16-.548,1.62-1.783,1.6-4.344-.069-8.69-.06-13.035-.005-1.227.015-1.742-.277-1.941-1.634q-2.891-19.721-5.966-39.413c-.219-1.418.083-1.938,1.6-1.875,2.644.109,5.3.093,7.942,0,1.327-.045,1.7.441,1.835,1.724.93,8.83,1.952,17.65,2.944,26.474Z" fill="#295696"/>
          <path id="Trazado_161230" data-name="Trazado 161230" d="M231.489,217.912c0-8.072.031-16.143-.029-24.214-.01-1.4.36-1.884,1.809-1.833,2.983.107,5.976.126,8.957,0,1.618-.071,2.043.426,2.035,2.031-.064,13.022-.036,26.045-.036,39.068,0,3.188-.062,6.377.03,9.562.038,1.338-.373,1.78-1.713,1.745-3.052-.079-6.111-.109-9.161.011-1.55.061-1.939-.442-1.926-1.949C231.527,234.19,231.489,226.051,231.489,217.912Z" fill="#285595"/>
          <path id="Trazado_161231" data-name="Trazado 161231" d="M103.1,222.811c0-6.517.051-13.035-.038-19.552-.021-1.558.452-1.973,1.956-1.915,2.917.112,5.843.087,8.762.01,1.5-.039,2.055.4,1.419,1.869a1.169,1.169,0,0,0-.156.575c.075.488-.345,1.18.345,1.419.575.2.751-.447,1.023-.8a9.337,9.337,0,0,1,4.45-3.419c1.942-.647,2.194-.465,2.2,1.621.009,3.734-.04,7.469.026,11.2.023,1.291-.225,1.918-1.713,2.06-4.214.4-5.258,1.56-5.613,5.717-.583,6.846-.221,13.706-.245,20.558-.006,1.685-.434,2.221-2.144,2.131-2.777-.147-5.572-.121-8.352-.007-1.5.061-1.978-.354-1.956-1.914C103.151,235.847,103.1,229.328,103.1,222.811Z" fill="#295696"/>
          <path id="Trazado_161232" data-name="Trazado 161232" d="M124.1,141.121c0,5.769-.045,11.538.032,17.306.019,1.406-.338,1.852-1.794,1.828-5.364-.086-10.731.027-16.094-.071-1.613-.029-2.09.437-2.047,2.045.084,3.2.459,2.785-2.763,2.823-.747.008-1.494.014-2.241,0-1.285-.027-2.835.356-3.782-.229-.981-.606-.354-2.258-.365-3.443-.011-1.3-.836-1.156-1.648-1.156-5.3,0-10.6-.054-15.891.032-1.5.025-1.966-.359-1.955-1.916.07-10.451.025-20.9.042-31.355.006-3.824,1.456-5.221,5.357-5.235,4.075-.014,8.151-.053,12.224.025,1.359.026,1.906-.27,1.882-1.769-.057-3.449.026-3.451,3.557-3.451a30.446,30.446,0,0,0,3.664-.028c1.714-.209,2.168.554,1.966,2.073-.054.4.04.82-.017,1.219-.211,1.475.3,2,1.879,1.967,5.364-.1,10.731.017,16.1-.075,1.507-.026,1.962.354,1.937,1.9C124.044,129.447,124.1,135.284,124.1,141.121Zm-29.08.62c0-3.327-.029-6.653.017-9.979.014-1.006-.213-1.466-1.343-1.436-2.715.072-5.434.059-8.151.01-1.457-.026-1.852.679-1.845,2.014q.056,9.673,0,19.347c-.008,1.127.3,1.563,1.489,1.532q4.175-.108,8.355,0c1.158.029,1.526-.354,1.5-1.509C94.979,148.394,95.021,145.067,95.021,141.741Zm20.41.039c0-3.321-.044-6.643.024-9.963.024-1.149-.318-1.524-1.483-1.492-2.779.078-5.562.065-8.342.005-1.038-.022-1.418.274-1.412,1.359q.062,10.063,0,20.129c0,1.038.3,1.431,1.384,1.407,2.78-.062,5.563-.067,8.342,0,1.139.028,1.533-.313,1.508-1.485C115.385,148.423,115.431,145.1,115.431,141.78Z" fill="#fdfafa"/>
          <path id="Trazado_161233" data-name="Trazado 161233" d="M169.955,165.384c-7.538,0-15.076-.036-22.613.031-1.5.013-2.09-.255-2.08-1.956.077-13.164.034-26.329.048-39.494.005-4.44,1.554-6,6.023-6,13.853-.02,27.706.015,41.559-.041,1.465,0,1.788.45,1.784,1.84q-.072,21.985,0,43.972c0,1.344-.382,1.693-1.7,1.682C185.3,165.354,177.628,165.384,169.955,165.384ZM185.979,141.8c0-5.154-.031-10.307.022-15.46.013-1.194-.278-1.657-1.573-1.65q-14.351.073-28.7.006c-1.5-.006-2.006.538-2,2.034q.07,15.052,0,30.105c-.006,1.294.309,1.745,1.682,1.737q14.452-.086,28.9,0c1.35.008,1.712-.4,1.694-1.719C185.937,151.837,185.979,146.819,185.979,141.8Z" fill="#fdfbfb"/>
          <path id="Trazado_161234" data-name="Trazado 161234" d="M239.033,140.923c0,6.379.01,12.759,0,19.138-.008,3.769-1.516,5.259-5.322,5.322-5.111.085-5.055.075-6.013-4.906-.3-1.543,0-2.169,1.632-1.954,1.084.143,1.612-.321,1.6-1.5q-.064-5.394,0-10.79c.01-.934-.242-1.4-1.254-1.3-.6.059-1.221.009-1.832.009-3.83,0-3.833,0-3.575,3.819.033.487-.21,1.156.69,1.15.7,0,1.329-.281,1.312-.981-.044-1.849,1.253-1.39,2.238-1.369,1.369.03.885,1.143.9,1.84.083,4.124-.542,5.027-4.454,6.207-.8.242-.672.71-.68,1.208-.023,1.357.032,2.716-.02,4.072a4.251,4.251,0,0,1-3.926,4.423c-4.274.664-4.787.327-5.357-3.908-.154-1.143-1.136-2.632.906-3.3.227-.075.239-.994.243-1.522.022-2.851.07-5.7-.018-8.551-.037-1.191.643-2.584-1.1-3.447-.81-.4-.063-5.484.756-6.217.566-.506.316-1.127.374-1.7.422-4.223-.418-8.295-1.474-12.345-.273-1.047-.6-2.033,1.121-2.331,1.13-.2,1.074-1.621,1.477-2.51,1.705-3.76.521-3.028,4.59-3.117,1.222-.026,2.447.038,3.667-.015,1.153-.05,1.506.324.96,1.406-.615,1.22-.241,1.624,1.134,1.588,3.258-.086,6.521.036,9.779-.058,1.34-.039,1.7.367,1.689,1.694C239,127.62,239.033,134.271,239.033,140.923Zm-8.113-8.686v-2.849c0-3.253,0-3.253-3.352-3.253s-3.373,0-3.291,3.264c.014.577-.5,1.506.491,1.7.946.182,1.558-.377,1.574-1.39.025-1.566,1.208-.873,1.94-.988,1.125-.176,1.1.613,1.139,1.412.175,4.068-.556,5.235-4.4,6.62-.545.2-.782.36-.773.936.011.678.431.689.938.759,5.363.736,5.729.437,5.729-4.783Z" fill="#fdfafa"/>
          <path id="Trazado_161235" data-name="Trazado 161235" d="M264.636,144.091c0,4.07-.007,8.14.006,12.21,0,.988-.235,2.12,1.317,2.278.617.063.53.668.575,1.137.553,5.73.531,5.756-5.214,5.667-3.894-.059-5.291-1.441-5.3-5.28-.008-7.122-.05-14.246.035-21.367.018-1.547-.423-2.027-1.941-1.9-1.338.108-2.716-.338-2.688,1.885.087,6.918.032,13.838.029,20.757,0,4.468-1.391,5.883-5.791,5.911-4.153.027-4.2.034-4.85-4.053-.177-1.107-1.238-2.643,1.16-3.008.872-.133.578-1.4.58-2.174.018-7.394.008-14.787.012-22.181,0-3.17.96-4.147,4.083-4.151,5.431-.006,10.862.038,16.292-.03,1.311-.016,1.75.324,1.722,1.687C264.581,135.678,264.636,139.885,264.636,144.091Z" fill="#fdfbfb"/>
          <path id="Trazado_161236" data-name="Trazado 161236" d="M318.375,165.382c-5.094,0-10.19-.072-15.281.043-1.585.035-1.908-.457-1.866-1.932.106-3.73.021-7.464.039-11.2.018-3.53,1.385-4.937,4.952-4.949,9.3-.031,18.61.008,27.914-.034,1.2-.006,1.664.249,1.645,1.561-.075,5.021-.065,10.044-.006,15.066.014,1.177-.376,1.476-1.505,1.465C328.97,165.353,323.672,165.382,318.375,165.382Zm.07-6.538c2.508,0,5.017-.038,7.525.018,1.044.024,1.514-.3,1.4-1.386a7.744,7.744,0,0,1,0-1.826c.192-1.41-.478-1.679-1.746-1.659-4.2.068-8.406.025-12.61.026-3.162,0-3.23.129-3.19,3.343.014,1.139.33,1.546,1.5,1.508C313.7,158.791,316.072,158.845,318.445,158.844Z" fill="#fdfdfd"/>
          <path id="Trazado_161237" data-name="Trazado 161237" d="M289.409,151.477c0-4.005-.022-8.01.013-12.014.01-1.131-.009-2.1-1.563-1.814-.979.179-1.313-.375-1.455-1.215-.192-1.137-.359-2.283-.655-3.394-.343-1.294-.7-2.354,1.368-2.356,1.084,0,1.368-1.131,1.585-2.1.8-3.572,1.668-7.13,2.432-10.711.235-1.1.639-1.623,1.871-1.551,1.9.11,3.8.082,5.7.011,1.263-.047,1.448.359,1.151,1.547-1.149,4.6-2.194,9.234-3.26,13.859-.2.861-.785,1.9.972,1.89,1.209-.005.769,1.087.772,1.724.031,6.788.019,13.576.019,20.364,0,2.715-.041,5.431.02,8.144.025,1.086-.2,1.606-1.438,1.549-2.033-.094-4.077-.094-6.111,0-1.2.056-1.464-.4-1.448-1.512C289.443,159.758,289.409,155.617,289.409,151.477Z" fill="#fdfafa"/>
          <path id="Trazado_161238" data-name="Trazado 161238" d="M318.567,125.5c-5.359,0-10.719-.035-16.078.025-1.229.014-1.787-.305-1.589-1.586a8.394,8.394,0,0,0,.009-1.219c.015-3.03.857-3.9,3.829-3.915,2.51-.013,5.021-.055,7.529.02,1.2.035,1.823-.268,1.627-1.569-.16-1.059.45-1.217,1.332-1.2,1.967.041,3.936.055,5.9,0,1.015-.031,1.576.233,1.412,1.347-.185,1.262.526,1.43,1.57,1.417,3.528-.041,7.057.026,10.583-.037,1.2-.022,1.629.285,1.649,1.575.078,5.145.127,5.145-4.952,5.145Z" fill="#fcfcfc"/>
          <path id="Trazado_161239" data-name="Trazado 161239" d="M318.149,144.644c-4.679,0-9.359.018-14.039-.007-2.927-.015-2.613.466-2.644-2.757a8.826,8.826,0,0,1,.016-1.016,2.687,2.687,0,0,1,2.909-2.736c9.834-.01,19.668,0,29.5-.021.961,0,1.246.317,1.306,1.279.329,5.26.357,5.258-4.842,5.258Z" fill="#fcf9f9"/>
          <path id="Trazado_161240" data-name="Trazado 161240" d="M253.668,126.643c-3.736,0-7.473-.035-11.209.021-1.1.017-1.666-.24-1.527-1.452.076-.671.006-1.357.015-2.035.032-2.531.881-3.368,3.452-3.4a17.256,17.256,0,0,1,1.834.007c1.919.177,3.583.142,2.984-2.6-.2-.91.4-1.139,1.215-1.126,1.9.029,3.809.087,5.7-.019,1.388-.077,2.079.327,1.826,1.788-.282,1.628.421,2.1,1.993,1.978,1.756-.134,3.532.014,5.3-.047.98-.034,1.39.326,1.284,1.288a1.388,1.388,0,0,0,0,.2c.229,5.395.229,5.395-5.125,5.395Z" fill="#fcf7f7"/>
          <path id="Trazado_161241" data-name="Trazado 161241" d="M318.324,135.24c-5.016,0-10.032-.047-15.046.03-1.378.022-1.863-.3-1.844-1.769.052-3.931.543-4.522,4.408-4.524,9.15,0,18.3.036,27.45-.037,1.531-.012,1.941.407,1.917,1.927-.069,4.372,0,4.373-4.278,4.373Z" fill="#fdfdfd"/>
          <path id="Trazado_161242" data-name="Trazado 161242" d="M144.282,224.377c-.116,3.995.2,7.7-.238,11.4-.1.817-.32,1.462-1.211,1.627a1.711,1.711,0,0,1-1.912-.815C138.883,233.37,140.6,226.588,144.282,224.377Z" fill="#fcf7f7"/>
          <path id="Trazado_161243" data-name="Trazado 161243" d="M207.954,213.036c0-1.011-.027-2.024.007-3.035.032-.931.454-1.534,1.487-1.534.95,0,1.635.432,1.686,1.38.109,2.021.149,4.049.11,6.073-.024,1.228-1.08.751-1.71.762s-1.624.427-1.677-.809c-.04-.944-.008-1.891-.008-2.836Z" fill="#fcf9f9"/>
          <path id="Trazado_161244" data-name="Trazado 161244" d="M95.021,141.741c0,3.326-.042,6.653.023,9.978.022,1.155-.346,1.538-1.5,1.509q-4.176-.1-8.355,0c-1.185.031-1.5-.4-1.489-1.532q.063-9.674,0-19.347c-.007-1.335.388-2.04,1.845-2.014,2.717.049,5.436.062,8.151-.01,1.13-.03,1.357.43,1.343,1.436C94.992,135.088,95.021,138.414,95.021,141.741Z" fill="#c71f1e"/>
          <path id="Trazado_161245" data-name="Trazado 161245" d="M115.431,141.78c0,3.321-.046,6.643.024,9.962.025,1.172-.369,1.513-1.508,1.485-2.779-.069-5.562-.064-8.342,0-1.08.024-1.389-.369-1.384-1.407q.051-10.065,0-20.129c-.006-1.085.374-1.381,1.412-1.359,2.78.06,5.563.073,8.342-.005,1.165-.032,1.507.343,1.483,1.492C115.387,135.137,115.431,138.459,115.431,141.78Z" fill="#c61e1d"/>
          <path id="Trazado_161246" data-name="Trazado 161246" d="M185.979,141.8c0,5.017-.042,10.035.028,15.052.018,1.315-.344,1.727-1.694,1.719q-14.453-.081-28.9,0c-1.373.008-1.688-.443-1.682-1.737q.07-15.051,0-30.105c-.008-1.5.5-2.04,2-2.034q14.351.06,28.7-.006c1.3-.007,1.586.456,1.573,1.65C185.948,131.495,185.979,136.648,185.979,141.8ZM170,156.475h9.373c5.011,0,4.976,0,4.85-5.071-.028-1.128-.313-1.649-1.491-1.488-.951.131-1.443-.175-1.074-1.231.635-1.82-.057-2.252-1.9-2.261-1.918-.01-3.148.276-3.066,2.489.036.955-.574,1.011-1.338,1.026-.976.019-.884-.6-.884-1.211,0-.883.045-1.768-.011-2.647-.058-.9.314-1.189,1.184-1.16,1.492.05,2.994-.074,4.48.038,1.4.1,1.86-.319,1.852-1.781-.026-4.515.038-4.516-4.594-4.516-2.913,0-2.769-.011-2.96-2.874-.138-2.065.47-2.878,2.546-2.518a10.855,10.855,0,0,0,1.831.015c4.591,0,4.5,0,4.59-4.539.034-1.717-.6-2-2.109-1.981-6.791.068-13.584.027-20.376.03-3.874,0-4.878,1.112-4.818,5.028.017,1.159.351,1.526,1.5,1.484,2.171-.078,4.346-.027,6.52-.018.662,0,1.283-.119,1.438.931.576,3.906.2,4.419-3.648,4.442-.136,0-.272,0-.408,0-2.906.056-3.453.909-3.6,4.382-.122,2.921,1.933,1.6,3.18,1.876a5.908,5.908,0,0,0,1.22.013c3.3,0,3.246,0,3.261,3.391.006,1.212-.259,1.706-1.567,1.625a49.222,49.222,0,0,0-5.3,0c-2.13.1-2.865.942-2.877,3.08a10.4,10.4,0,0,1-.007,1.424c-.223,1.551.3,2.119,1.97,2.067C161.85,156.389,165.928,156.475,170,156.475Z" fill="#c82424"/>
          <path id="Trazado_161247" data-name="Trazado 161247" d="M230.92,132.237v1.425c0,5.22-.366,5.519-5.729,4.783-.507-.07-.927-.081-.938-.759-.009-.576.228-.739.773-.936,3.839-1.385,4.57-2.552,4.4-6.62-.035-.8-.014-1.588-1.139-1.412-.732.115-1.915-.578-1.94.988-.016,1.013-.628,1.572-1.574,1.39-.991-.191-.477-1.12-.491-1.7-.082-3.263-.056-3.264,3.291-3.264s3.352,0,3.352,3.253Z" fill="#c82424"/>
          <path id="Trazado_161248" data-name="Trazado 161248" d="M318.445,158.844c-2.373,0-4.748-.053-7.118.024-1.168.038-1.484-.369-1.5-1.508-.04-3.214.028-3.342,3.19-3.343,4.2,0,8.408.042,12.61-.026,1.268-.02,1.938.249,1.746,1.659a7.744,7.744,0,0,0,0,1.826c.112,1.085-.358,1.41-1.4,1.386C323.462,158.806,320.953,158.844,318.445,158.844Z" fill="#c82424"/>
          <path id="Trazado_161249" data-name="Trazado 161249" d="M170,156.475c-4.075,0-8.153-.086-12.224.042-1.674.052-2.193-.516-1.97-2.067a10.4,10.4,0,0,0,.007-1.424c.012-2.138.747-2.983,2.877-3.08a49.222,49.222,0,0,1,5.3,0c1.308.081,1.573-.413,1.567-1.625-.015-3.391.042-3.391-3.261-3.391a5.908,5.908,0,0,1-1.22-.013c-1.247-.272-3.3,1.045-3.18-1.876.146-3.473.693-4.326,3.6-4.382.136,0,.272,0,.408,0,3.845-.023,4.224-.536,3.648-4.442-.155-1.05-.776-.928-1.438-.931-2.174-.009-4.349-.06-6.52.018-1.15.042-1.484-.325-1.5-1.484-.06-3.916.944-5.026,4.818-5.028,6.792,0,13.585.038,20.376-.03,1.513-.016,2.143.264,2.109,1.981-.089,4.537,0,4.539-4.59,4.539a10.855,10.855,0,0,1-1.831-.015c-2.076-.36-2.684.453-2.546,2.518.191,2.863.047,2.873,2.96,2.874,4.632,0,4.568,0,4.594,4.516.008,1.462-.454,1.886-1.852,1.781-1.486-.112-2.988.012-4.48-.038-.87-.029-1.242.26-1.184,1.16.056.879.011,1.764.011,2.647,0,.614-.092,1.23.884,1.211.764-.015,1.374-.071,1.338-1.026-.082-2.213,1.148-2.5,3.066-2.489,1.841.009,2.533.441,1.9,2.261-.369,1.056.123,1.362,1.074,1.231,1.178-.161,1.463.36,1.491,1.488.126,5.072.161,5.071-4.85,5.071Z" fill="#fcf9f9"/>
        </g>
      </g>
      <path id="Trazado_158124" data-name="Trazado 158124" d="M4439.255-1116h0a11.058,11.058,0,0,0-15.639,0l-45.449,45.449a11.057,11.057,0,0,0,0,15.638,11.059,11.059,0,0,0,15.639,0l45.449-45.449A11.06,11.06,0,0,0,4439.255-1116Z" transform="translate(-4374.928 1141.171)" fill="#fc4b52"/>
      <path id="Trazado_158125" data-name="Trazado 158125" d="M4476.83-1136.847a11.056,11.056,0,0,0-15.638,0l-60.088,60.087a11.059,11.059,0,0,0,0,15.638h0a11.057,11.057,0,0,0,15.638,0l60.088-60.087A11.057,11.057,0,0,0,4476.83-1136.847Z" transform="translate(-4373.733 1140.086)" fill="#feca2e"/>
      <g id="Grupo_108305" data-name="Grupo 108305" transform="translate(398.663 241.909)">
        <path id="Trazado_158126" data-name="Trazado 158126" d="M4757.1-824.256a11.055,11.055,0,0,0,15.637,0l60.09-60.087a11.06,11.06,0,0,0,0-15.638h0a11.059,11.059,0,0,0-15.64,0L4757.1-839.894A11.057,11.057,0,0,0,4757.1-824.256Z" transform="translate(-4753.857 910.513)" fill="#feca2e"/>
        <path id="Trazado_158127" data-name="Trazado 158127" d="M4793.947-845.826h0a11.058,11.058,0,0,0,15.639,0l45.448-45.449a11.056,11.056,0,0,0,0-15.638,11.059,11.059,0,0,0-15.64,0l-45.447,45.449A11.058,11.058,0,0,0,4793.947-845.826Z" transform="translate(-4751.938 910.152)" fill="#fc4b52"/>
      </g>
    </g>
  </g>
</svg>
