<svg xmlns="http://www.w3.org/2000/svg" xmlns:xlink="http://www.w3.org/1999/xlink" width="504.999" height="331.404" viewBox="0 0 504.999 331.404">
  <defs>
    <clipPath id="clip-path">
      <path id="Trazado_158123" data-name="Trazado 158123" d="M4461.649-1127.943h371.759a32.164,32.164,0,0,1,32.165,32.163v210.04l-72.445,63.651H4420.092a32.163,32.163,0,0,1-32.163-32.163v-204.262Z" transform="translate(-4387.607 1128.168)" fill="#79d2dc"/>
    </clipPath>
  </defs>
  <g id="Grupo_117466" data-name="Grupo 117466" transform="translate(4914 7824)">
    <g id="Grupo_116467" data-name="Grupo 116467" transform="translate(-4914 -7824)">
      <g id="Enmascarar_grupo_116" data-name="Enmascarar grupo 116" transform="translate(13.678 12.775)" clip-path="url(#clip-path)">
        <g id="Rectángulo_40687" data-name="Rectángulo 40687" transform="translate(-38.929 -23.46)" fill="#f3f9ff" stroke="#707070" stroke-width="1">
          <rect width="534.037" height="352.237" stroke="none"/>
          <rect x="0.5" y="0.5" width="533.037" height="351.237" fill="none"/>
        </g>
        <g id="Grupo_116486" data-name="Grupo 116486" transform="translate(10.342 -29.085)">
          <path id="Trazado_161250" data-name="Trazado 161250" d="M247.268,274.9q2.522-16.061,5.036-32.123c.812-5.241,1.621-10.483,2.3-15.742.233-1.8.927-2.559,2.778-2.359a16.759,16.759,0,0,0,3.618-.048c2.824-.314,4.757.217,3.353,5,4.186-4.158,8.173-5.862,12.82-5.772,6.659.129,10.486,3.37,11.779,9.972,2.256,11.51-4.227,25.007-14.043,29.2a8.318,8.318,0,0,1-1.39.335c-4.357.165-8.671,1.243-13.08.472-1-.174-.751.947-.857,1.588a49.5,49.5,0,0,1-1.432,9.474Zm30.463-34.466c-.049-2.837.076-5.513-2.557-6.976-2.248-1.249-4.433-.551-6.435.8a11.471,11.471,0,0,0-3.158,3.411c-3.339,5.187-3.1,11.248-4.195,16.981-.269,1.411.911,1.4,1.845,1.611a10.339,10.339,0,0,0,11.862-5.385A24.631,24.631,0,0,0,277.731,240.429Z" transform="translate(9.112 7.048)" fill="#0873a5"/>
          <path id="Trazado_161251" data-name="Trazado 161251" d="M290.055,249.418c.351-16.631,12.822-27.744,28.319-25.187,5.615.928,9.617,3.9,10.974,9.613,3.181,13.391-5.036,31.61-23.938,31.441C295.028,265.192,289.837,259.737,290.055,249.418Zm28.586-7.22c.153-7.07-3.055-10.181-8.36-8.909a9.956,9.956,0,0,0-6.276,4.494c-2.1,3.278-2.57,6.928-2.512,10.7.045,2.89.588,5.673,3.611,6.865a7.96,7.96,0,0,0,8.74-1.567C317.513,250.461,318.439,246.063,318.641,242.2Z" transform="translate(11.227 7.048)" fill="#0873a5"/>
          <path id="Trazado_161252" data-name="Trazado 161252" d="M126.463,235.237c-.193-2.9.611-5.438.883-8.028.157-1.493,1.283-1.574,2.3-1.84a40.813,40.813,0,0,1,17.93-1.06c6.013,1.113,9.163,4.951,8.473,11.022-1.035,9.1-2.5,18.143-3.711,27.219-.2,1.5-.8,2.1-2.309,2.039-2.051-.08-4.106.006-6.159-.019-.686-.008-1.784.157-1.808-.723-.151-5.435-2.525-1.364-3.726-.791-3.693,1.763-7.434,2.823-11.547,1.93-5.157-1.121-7.747-4.83-7-10.081.846-5.945,4.444-9.705,9.718-12.117a33.353,33.353,0,0,1,11.93-2.722c1.579-.1,3.509.451,3.553-2.287.039-2.377-.285-4.307-2.965-5.047-3.539-.978-6.945-.27-10.327.709C129.995,233.937,128.332,234.59,126.463,235.237Zm7.726,21.536c3.817.024,8.73-4.307,9.066-7.973.07-.766.065-1.283-.934-1.522-2.662-.635-9.38,1.47-10.9,3.574a3.9,3.9,0,0,0-.783,4.02C131.305,256.418,132.657,256.786,134.189,256.772Z" transform="translate(2.803 7.042)" fill="#0973a5"/>
          <path id="Trazado_161253" data-name="Trazado 161253" d="M216.948,246.569c-3.261,0-6.525.12-9.778-.041-2.217-.108-2.636.917-2.567,2.806.152,4.157,2.252,6.56,6.672,7.143a26.557,26.557,0,0,0,12.105-1.547c1.66-.565,2.347-.658,2.114,1.573-.693,6.624-1.089,7.193-7.752,8.224-5.05.781-10.1,1.017-15.046-.622-4.919-1.629-7.938-5.008-8.653-10.129-1.26-9.045.6-17.317,7.058-24.074,5.6-5.86,12.625-7.237,20.309-5.388,4.895,1.177,8.243,5.4,8.834,10.754a26.82,26.82,0,0,1,.035,5.053c-.5,6.251-.533,6.247-6.812,6.247Zm-10.493-7.7c3.821,0,7.316-.113,10.8.037,2.787.12,3.033-1.2,2.355-3.36a4.708,4.708,0,0,0-4.49-3.548C211.176,231.673,208.321,233.783,206.454,238.874Z" transform="translate(6.462 7.043)" fill="#0973a5"/>
          <path id="Trazado_161254" data-name="Trazado 161254" d="M86.578,211.226c6.521,0,13.045.068,19.565-.039,2.2-.036,2.944.383,2.535,2.845-1.095,6.6-.96,6.625-7.8,6.625a54.6,54.6,0,0,1-6.516-.05c-2.89-.349-3.665,1-4.031,3.569-1.8,12.64-3.829,25.246-5.611,37.887-.338,2.395-1.135,3.206-3.6,3.2-7.767-.027-7.842.066-6.736-7.625,1.612-11.208,3.264-22.411,5.08-33.586.457-2.811-.28-3.612-3.069-3.448-3.731.219-7.488-.031-11.228.089-2.04.065-2.36-.677-2.117-2.564.891-6.891.822-6.9,7.948-6.9Z" transform="translate(0 6.421)" fill="#0973a5"/>
          <path id="Trazado_161255" data-name="Trazado 161255" d="M174.38,249.283c1.97-2.294,2.7-4.565,3.719-6.65,2.545-5.195,5.1-10.387,7.5-15.648.808-1.771,1.766-2.583,3.808-2.434,2.737.2,5.5.049,8.9.049-1.742,3.4-3.221,6.346-4.752,9.264-4.761,9.072-9.662,18.076-14.242,27.238-1.324,2.648-2.835,3.583-5.768,3.494-6.879-.21-6.855-.062-8.335-6.831-2.188-10-4.32-20.02-6.7-29.977-.652-2.724.006-3.254,2.628-3.243,8.574.036,8.56-.052,10.123,8.359C172.237,238.175,173.264,243.438,174.38,249.283Z" transform="translate(4.712 7.081)" fill="#0873a5"/>
          <path id="Trazado_161256" data-name="Trazado 161256" d="M365.891,265.749c-8.305.008-11.041-2.751-10.027-11.071,1.457-11.963,3.35-23.873,4.984-35.815a2.376,2.376,0,0,1,2.164-2.385c2.485-.487,4.95-1.085,7.4-1.71,1.813-.462,2.122.272,1.782,1.87-.3,1.41-.235,2.915-.653,4.28-1.005,3.28-.133,4.761,3.469,4.188.941-.15,1.938.078,2.894-.02,2.265-.232,2.8.79,2.175,2.775a2.951,2.951,0,0,0-.186,1.066c.315,4.077-1.778,5.316-5.468,4.6-3.87-.745-5.3.97-5.566,4.729-.3,4.318-1.188,8.594-1.739,12.9-.586,4.568.568,5.946,5.119,5.17,3.083-.526,3.616.142,3.156,3.08C374.467,265.349,374.058,265.742,365.891,265.749Z" transform="translate(14.471 6.592)" fill="#0873a5"/>
          <path id="Trazado_161257" data-name="Trazado 161257" d="M236.339,265.3c-5.378-.005-5.313.005-4.542-5.079q3.465-22.833,6.823-45.681c.8-5.49.717-5.5,6.159-5.506,5.408,0,5.487.007,4.72,5.234q-3.347,22.855-6.808,45.693C241.89,265.31,241.87,265.307,236.339,265.3Z" transform="translate(8.328 6.315)" fill="#0973a5"/>
          <path id="Trazado_161258" data-name="Trazado 161258" d="M359.037,123.175a2.212,2.212,0,0,0-.646-.253c-16.191-.883-31.972-4.195-47.669-8-6.371-1.543-12.726-3.147-19.088-4.724a.561.561,0,0,0-.526-.048l-1.006-.5c-3.87-1.3-7.762-2.534-11.6-3.91-8.244-2.95-16.464-5.972-24.694-8.965-2.343-1.735-5.3-2.067-7.9-3.22-3.456-1.529-6.448-4.1-10.277-4.785-3.965-2.165-7.969-4.26-11.872-6.526a6.3,6.3,0,0,0-5.142-.668Q183.247,90.79,147.856,99.9q-16.715,4.316-33.478,8.6c.378.958,1.035.928,1.61,1.015,15.872,2.4,31.715,5.013,47.626,7.118,14.7,1.946,29.4,4.1,44.251,4.739l1.164.1.158.109a7.5,7.5,0,0,1-.888-.88,7.527,7.527,0,0,0,.885.877,158,158,0,0,0,24.227,1.869q.364.052.727.1a5.176,5.176,0,0,0,3.061.164c2.1.687,4.279.348,6.424.439l2.132.219a45.39,45.39,0,0,0,8.821.3,7.279,7.279,0,0,1,6.516.172l5.661.09c1.02-.131,2.053-.385,2.994.289q1.489.033,2.979.069a3.069,3.069,0,0,0,.7.183c28.381.533,56.739-.182,85.083-1.59A.528.528,0,0,0,359.037,123.175Z" transform="translate(2.541 0)" fill="#7fd0f4"/>
          <path id="Trazado_161259" data-name="Trazado 161259" d="M111.459,228.741c3.225-2.08,5.68-4.418,9.229-4.86,1.732-.216,2.561-.048,2.206,1.944-.4,2.249-.708,4.518-.952,6.789-.125,1.168-.539,1.713-1.795,1.66-5.728-.236-8.094,3.666-9.516,8.23-1.867,5.991-2.325,12.283-3.135,18.474-.379,2.9-1.44,3.735-4.326,3.666-7.349-.176-7.258-.016-6.1-7.2,1.585-9.855,3.139-19.719,4.416-29.616.351-2.721,1.36-3.539,3.868-3.226a14.026,14.026,0,0,0,3.25.013C111.7,224.264,113,225.236,111.459,228.741Z" transform="translate(1.657 7.046)" fill="#0973a5"/>
          <path id="Trazado_161260" data-name="Trazado 161260" d="M345.1,229.111c3.245-2.426,5.582-4.7,8.965-5.173,1.938-.273,3.158-.351,2.475,2.2a20.194,20.194,0,0,0-.545,3.938c-.174,2.769-.866,4.251-4.352,4.5-4.573.323-6.363,4.429-7.451,8.35-1.679,6.05-2.34,12.31-3.1,18.524-.3,2.448-1.149,3.207-3.608,3.2-7.781-.04-7.792.058-6.662-7.529,1.473-9.9,3.03-19.779,4.4-29.689.285-2.071.891-3.1,3.109-2.814a18.164,18.164,0,0,0,3.259.014C344.26,224.48,346.973,224.242,345.1,229.111Z" transform="translate(13.216 7.046)" fill="#0973a5"/>
          <path id="Trazado_161261" data-name="Trazado 161261" d="M291.636,137.149l-7.714.249a7,7,0,0,0-.277.668A4.826,4.826,0,0,1,283.28,140a4.826,4.826,0,0,0,.365-1.938,229.22,229.22,0,0,0-26.232,5.371c-1.628,2.168-2.17,5.06-4.062,7.024,1.892-1.964,2.435-4.856,4.062-7.026l-2.845.173c-10.573,3.422-21.6,5.347-31.934,9.532-3.841,1.555-8,2.307-11.562,4.557l-1.33.621-.043.062c-.229.352-.389.907-.7,1.009-.533.175-.709-.37-.827-.816l-5.751-.9-5.85-1.52q-10.164-1.683-20.33-3.361c-.937-.153-1.887-.236-2.831-.352h0C169.837,151.058,166,151,162.3,150.263c-.7-.14-1.449-.046-1.932-.723l-1.516.071-.242.005a18.363,18.363,0,0,1-3.638,1.378c-8.941,2.711-17.846,5.536-27.025,10.028l29.405,10.333c8.064,3.466,16.381,6.244,24.679,9.077,9.094,3.572,18.237,7.005,27.558,9.951h0a46.385,46.385,0,0,0,9.345,3.458c.667-.226,1.512-.964,1.583.544l3.556,1.349c.136-.614-.692-1.7.344-1.769a4.151,4.151,0,0,1,2.9,1.018c.65.641-.755.971-.962,1.616l2.234.743c1.8,1.075,3.362,1.913,5.383-.054,11.254-10.957,24.069-19.85,37.463-27.992a306.153,306.153,0,0,1,35.408-18.622,238.352,238.352,0,0,1,34.95-12.75c.116-.031.144-.4.268-.774Zm-10.859,6c.187-.172.374-.346.557-.524C281.151,142.8,280.964,142.973,280.778,143.146Zm1.1-1.069c.178-.19.353-.383.514-.586C282.226,141.693,282.052,141.886,281.873,142.076Zm1.208-1.644c-.066.128-.138.254-.213.376C282.944,140.686,283.015,140.56,283.081,140.432Z" transform="translate(3.212 2.761)" fill="#016896"/>
          <path id="Trazado_161262" data-name="Trazado 161262" d="M259,263.559c.106-.641-.138-1.762.857-1.588,4.41.77,8.723-.307,13.08-.472-3.188,1.671-6.66,1.612-10.117,1.663C261.538,263.181,260.192,262.656,259,263.559Z" transform="translate(9.692 8.909)" fill="#0973a5"/>
          <path id="Trazado_161263" data-name="Trazado 161263" d="M219.549,193.057c.137-.614-.692-1.7.344-1.769a4.151,4.151,0,0,1,2.9,1.018c.65.641-.755.971-.963,1.616A3.287,3.287,0,0,1,219.549,193.057Z" transform="translate(7.732 5.437)" fill="#0490d3"/>
          <path id="Trazado_161264" data-name="Trazado 161264" d="M252.406,126.305c-2.226.914-4.435,1.407-6.551-.277C248.069,125.4,250.224,126.187,252.406,126.305Z" transform="translate(9.042 2.199)" fill="#86c45b"/>
          <path id="Trazado_161265" data-name="Trazado 161265" d="M247.971,122.661a7.279,7.279,0,0,1,6.516.172Z" transform="translate(9.147 2.011)" fill="#7fd0f4"/>
          <path id="Trazado_161266" data-name="Trazado 161266" d="M213.5,124.947c-.107.721-.34,1.332-1.245,1.224-.709-.084-.821-.657-.918-1.221Z" transform="translate(7.335 2.158)" fill="#6aba43"/>
          <path id="Trazado_161267" data-name="Trazado 161267" d="M199.073,124.893a2.7,2.7,0,0,1-3.623.09Z" transform="translate(6.55 2.155)" fill="#86c45b"/>
          <path id="Trazado_161268" data-name="Trazado 161268" d="M201.825,124.845l-2.88.06A3.013,3.013,0,0,1,201.825,124.845Z" transform="translate(6.723 2.136)" fill="#86c45b"/>
          <path id="Trazado_161269" data-name="Trazado 161269" d="M257.051,126.41a1.945,1.945,0,0,1-2.852-.071Z" transform="translate(9.454 2.226)" fill="#86c45b"/>
          <path id="Trazado_161270" data-name="Trazado 161270" d="M259.574,122.886c1.02-.131,2.053-.385,2.994.289A2.91,2.91,0,0,1,259.574,122.886Z" transform="translate(9.72 2.048)" fill="#7fd0f4"/>
          <path id="Trazado_161271" data-name="Trazado 161271" d="M239.748,125.692a1.268,1.268,0,0,1-2.144-.067Z" transform="translate(8.634 2.191)" fill="#86c45b"/>
          <path id="Trazado_161272" data-name="Trazado 161272" d="M214.644,191.188c.667-.226,1.512-.964,1.583.544A1.7,1.7,0,0,1,214.644,191.188Z" transform="translate(7.499 5.414)" fill="#0490d3"/>
          <path id="Trazado_161273" data-name="Trazado 161273" d="M237.534,122.131l2.132.219A1.629,1.629,0,0,1,237.534,122.131Z" transform="translate(8.631 2.018)" fill="#7fd0f4"/>
          <path id="Trazado_161274" data-name="Trazado 161274" d="M217.59,124.953c-.465.66-.93.664-1.394,0Z" transform="translate(7.576 2.158)" fill="#6aba43"/>
          <path id="Trazado_161275" data-name="Trazado 161275" d="M235.553,125.558c-.263.5-.5.459-.725-.03Z" transform="translate(8.497 2.186)" fill="#86c45b"/>
          <path id="Trazado_161276" data-name="Trazado 161276" d="M203.46,119.485l1.164.1C204.2,120,203.82,119.846,203.46,119.485Z" transform="translate(6.946 1.888)" fill="#33bff0"/>
          <path id="Trazado_161277" data-name="Trazado 161277" d="M227.8,121.462l.726.1C228.287,121.527,228.045,121.495,227.8,121.462Z" transform="translate(8.149 1.985)" fill="#56c6f1"/>
          <path id="Trazado_161278" data-name="Trazado 161278" d="M282.828,108.82l-1.006-.5Z" transform="translate(10.82 1.335)" fill="#7fd0f4"/>
          <path id="Trazado_161279" data-name="Trazado 161279" d="M277.068,240.007a24.631,24.631,0,0,1-2.638,10.446,10.339,10.339,0,0,1-11.862,5.385c-.934-.21-2.114-.2-1.845-1.611,1.094-5.733.855-11.794,4.195-16.981a11.471,11.471,0,0,1,3.158-3.411c2-1.355,4.187-2.053,6.435-.8C277.143,234.495,277.019,237.171,277.068,240.007Z" transform="translate(9.775 7.469)" fill="#fcfdfd"/>
          <path id="Trazado_161280" data-name="Trazado 161280" d="M204.393,157.572c.509-.064,1.017-.129,1.527-.192-.229.352-.389.907-.7,1.009C204.687,158.564,204.511,158.018,204.393,157.572Z" transform="translate(6.992 3.761)" fill="#0873a5"/>
          <path id="Trazado_161281" data-name="Trazado 161281" d="M205.889,157.353c.2-.726.746-.717,1.331-.623Z" transform="translate(7.066 3.727)" fill="#0873a5"/>
          <path id="Trazado_161282" data-name="Trazado 161282" d="M186.161,127.454c-1.658.806-1.658.806-3.637.4C183.69,126.366,184.953,127.007,186.161,127.454Z" transform="translate(5.911 2.255)" fill="#72bd48"/>
          <path id="Trazado_161283" data-name="Trazado 161283" d="M318.1,241.767c-.2,3.865-1.128,8.263-4.8,11.584a7.96,7.96,0,0,1-8.74,1.567c-3.023-1.192-3.566-3.975-3.611-6.865-.058-3.772.412-7.422,2.512-10.7a9.956,9.956,0,0,1,6.276-4.494C315.047,231.586,318.255,234.7,318.1,241.767Z" transform="translate(11.766 7.479)" fill="#fcfdfd"/>
          <path id="Trazado_161284" data-name="Trazado 161284" d="M133.686,255.67c-1.532.013-2.884-.356-3.553-1.9a3.9,3.9,0,0,1,.783-4.02c1.523-2.1,8.24-4.209,10.9-3.574,1,.238,1,.756.934,1.522C142.416,251.362,137.5,255.693,133.686,255.67Z" transform="translate(3.306 8.146)" fill="#fcfdfd"/>
          <path id="Trazado_161285" data-name="Trazado 161285" d="M205.852,238.486c1.867-5.091,4.721-7.2,8.665-6.872a4.708,4.708,0,0,1,4.49,3.548c.678,2.164.432,3.48-2.355,3.36C213.168,238.373,209.673,238.486,205.852,238.486Z" transform="translate(7.064 7.43)" fill="#fcfdfd"/>
          <path id="Trazado_161286" data-name="Trazado 161286" d="M354.529,128.269q-23.151-.438-46.3-.9-20.247-.4-40.495-.8l-2.888-.083a1.946,1.946,0,0,1-2.853-.071l-2.206-.061c-2.226.914-4.435,1.407-6.551-.277a22.039,22.039,0,0,0-6.515-.345,1.266,1.266,0,0,1-2.143-.066l-2.189-.071c-.263.5-.5.459-.725-.03a96.275,96.275,0,0,0-18.16-.6c-.465.66-.93.664-1.395,0l-2.937-.005c-.107.721-.34,1.332-1.245,1.224-.709-.085-.821-.657-.917-1.221l-2.148-.215-7.976.088-2.88.06-.045.007a2.7,2.7,0,0,1-3.623.09c-12.195.113-24.338,1.164-36.456,2.362-21.974,2.171-43.748,5.756-65.438,9.853-.665.126-1.781-.338-1.868,1.081q10.52,1.968,20.985,3.925,21.3,4,42.6,8.018l.24-.005h0l1.516-.072c5.6-1.838,11.273-3.37,16.99-4.727-5.717,1.357-11.395,2.889-16.99,4.727.483.677,1.234.583,1.932.723,3.7.737,7.539.8,11.114,2.178.945.115,1.894.2,2.831.352q10.168,1.669,20.33,3.361l5.85,1.52,5.751.9c.509-.064,1.017-.129,1.527-.192l.043-.062c.2-.725.746-.716,1.331-.622,3.562-2.249,7.72-3,11.561-4.556,10.335-4.185,21.36-6.11,31.934-9.532q1.421-.087,2.845-.171A229.22,229.22,0,0,1,285.2,138.68q.121-.342.276-.668l7.717-.249c.409-.784,1.2-.673,1.889-.794,13.647-2.407,27.385-4.159,41.156-5.662,7.9-.862,15.8-1.644,23.7-2.463A18.742,18.742,0,0,0,354.529,128.269Zm-164.118-.707c-1.658.806-1.658.806-3.637.4C187.939,126.473,189.2,127.115,190.411,127.562Zm51.475,8.421a76.089,76.089,0,0,0-8.928-.283h0a76.082,76.082,0,0,1,8.928.283c1.187.1,2.373.21,3.559.327C244.259,136.192,243.073,136.08,241.886,135.982Zm20.872,1.865c-.316-.15-.637-.406-.952-.518.315.111.636.367.953.518a94.959,94.959,0,0,1,14.2.013A94.972,94.972,0,0,0,262.758,137.847Z" transform="translate(1.661 2.148)" fill="#22853f"/>
        </g>
      </g>
      <path id="Trazado_158124" data-name="Trazado 158124" d="M4439.255-1116h0a11.058,11.058,0,0,0-15.639,0l-45.449,45.449a11.057,11.057,0,0,0,0,15.638,11.059,11.059,0,0,0,15.639,0l45.449-45.449A11.06,11.06,0,0,0,4439.255-1116Z" transform="translate(-4374.928 1141.171)" fill="#fc4b52"/>
      <path id="Trazado_158125" data-name="Trazado 158125" d="M4476.83-1136.847a11.056,11.056,0,0,0-15.638,0l-60.088,60.087a11.059,11.059,0,0,0,0,15.638h0a11.057,11.057,0,0,0,15.638,0l60.088-60.087A11.057,11.057,0,0,0,4476.83-1136.847Z" transform="translate(-4373.733 1140.086)" fill="#feca2e"/>
      <g id="Grupo_108305" data-name="Grupo 108305" transform="translate(398.663 241.909)">
        <path id="Trazado_158126" data-name="Trazado 158126" d="M4757.1-824.256a11.055,11.055,0,0,0,15.637,0l60.09-60.087a11.06,11.06,0,0,0,0-15.638h0a11.059,11.059,0,0,0-15.64,0L4757.1-839.894A11.057,11.057,0,0,0,4757.1-824.256Z" transform="translate(-4753.857 910.513)" fill="#feca2e"/>
        <path id="Trazado_158127" data-name="Trazado 158127" d="M4793.947-845.826h0a11.058,11.058,0,0,0,15.639,0l45.448-45.449a11.056,11.056,0,0,0,0-15.638,11.059,11.059,0,0,0-15.64,0l-45.447,45.449A11.058,11.058,0,0,0,4793.947-845.826Z" transform="translate(-4751.938 910.152)" fill="#fc4b52"/>
      </g>
    </g>
  </g>
</svg>
