<svg xmlns="http://www.w3.org/2000/svg" xmlns:xlink="http://www.w3.org/1999/xlink" width="504.999" height="331.404" viewBox="0 0 504.999 331.404">
  <defs>
    <clipPath id="clip-path">
      <path id="Trazado_158123" data-name="Trazado 158123" d="M4461.649-1127.943h371.759a32.164,32.164,0,0,1,32.165,32.163v210.04l-72.445,63.651H4420.092a32.163,32.163,0,0,1-32.163-32.163v-204.262Z" transform="translate(-4387.607 1127.87)" fill="#79d2dc"/>
    </clipPath>
  </defs>
  <g id="Grupo_117469" data-name="Grupo 117469" transform="translate(4914 7824)">
    <g id="Grupo_116467" data-name="Grupo 116467" transform="translate(-4914 -7824)">
      <g id="Enmascarar_grupo_116" data-name="Enmascarar grupo 116" transform="translate(13.678 12.775)" clip-path="url(#clip-path)">
        <g id="Rectángulo_40687" data-name="Rectángulo 40687" transform="translate(-38.929 -23.46)" fill="#f3f9ff" stroke="#707070" stroke-width="1">
          <rect width="534.037" height="352.237" stroke="none"/>
          <rect x="0.5" y="0.5" width="533.037" height="351.237" fill="none"/>
        </g>
        <g id="Grupo_116488" data-name="Grupo 116488" transform="translate(6.027 -16.012)">
          <path id="Trazado_161290" data-name="Trazado 161290" d="M74.462,135.228c10.5,0,21,.038,31.5-.041,1.737-.013,2.183.706,2.177,2.2q-.034,7.929-.012,15.859c.007,1.778-.737,2.408-2.555,2.372-5.285-.108-10.573-.054-15.859-.037-2.748.009-2.985.259-2.987,3.067q-.012,24.008-.009,48.019c0,3.642-.086,3.7-3.685,3.7-6.021-.007-12.042.007-18.063,0-2.867,0-3.116-.236-3.118-3.179q-.018-24.01,0-48.019c0-3.428-.155-3.592-3.584-3.593-5.066,0-10.134-.058-15.2.02-1.971.031-2.784-.675-2.754-2.692q.119-7.6,0-15.2c-.032-1.97.813-2.515,2.659-2.505C53.464,135.259,63.963,135.231,74.462,135.228Z" transform="translate(0 1.869)" fill="#cc2228"/>
          <path id="Trazado_161291" data-name="Trazado 161291" d="M336.767,149.191c.214,3.581-.331,7.189.445,10.754a3.147,3.147,0,0,1-.313,2.142,1.676,1.676,0,0,1-1.488,1.116c-.9.019-1.109-.682-1.206-1.314-.33-2.142-.993-1.944-2.4-.639-3.056,2.831-9.244,2.938-12.061-1.088-2.541-3.631-.635-10.709,3.422-12.436a18.753,18.753,0,0,1,7.7-1.47c2.808.033,3.558-1.025,2.881-3.729-.953-3.81-2.581-4.979-6.382-4.854-2.361.078-3.5,1.606-4.4,3.4-.565,1.122-1.175,1.672-2.371.912-1.046-.666-1.584-.108-2.083.773-1.356,2.391-1.548,5.139-2.373,7.694-1.163,3.6-1.966,7.316-3,10.962-.44,1.552-1.77,1.733-3.17,1.816-1.337.079-1.8-.66-2.094-1.762-1.344-5.07-2.905-10.082-3.989-15.223a30.558,30.558,0,0,0-1.221-3.525c-.145-.422-.264-.922-.785-.922-.686,0-.727.6-.8,1.11-.888,6.222-3.017,12.158-4.214,18.3-.376,1.933-1.435,1.993-2.958,2.025-1.651.034-2-.828-2.375-2.212-1.744-6.411-3.653-12.777-5.458-19.171a15.557,15.557,0,0,0-1.165-3.535c-.5-.879-1.5-1.9.085-2.452,1.267-.44,3.028-.689,3.552,1.1,1.082,3.7,1.9,7.485,2.849,11.228.612,2.408,1.238,4.813,1.934,7.2.166.568.369,1.459,1.259,1.218.676-.183.874-.882.988-1.584.973-5.976,2.64-11.8,3.986-17.688a1.828,1.828,0,0,1,2.139-1.684c1.25.086,2.6-.093,3.021,1.535,1.014,3.882,1.975,7.776,3.023,11.649a42.362,42.362,0,0,1,1.77,7,.906.906,0,0,0,.812.906c.751.069,1-.473,1.161-1.074.575-2.119,1.266-4.215,1.7-6.362.834-4.167,2.059-8.227,3.1-12.336a1.462,1.462,0,0,1,1.521-1.29c.8-.011,1.873-.206,2.067.776.372,1.887,1.14,1.174,2.01.486,2.84-2.244,9.443-2.483,12.432-.543a5.067,5.067,0,0,1,2.44,4.408C336.811,143.606,336.769,146.4,336.767,149.191Zm-6.468-.161c-3.131.1-6.859.936-7.866,3.969-.693,2.086.047,5.376,1.777,6.606,1.878,1.335,4.842.933,6.7-.666,1.939-1.669,2-3.993,2.46-6.177C333.985,149.85,333.237,148.994,330.3,149.03Z" transform="translate(44.464 1.852)" fill="#a6a7aa"/>
          <path id="Trazado_161292" data-name="Trazado 161292" d="M265.654,149.592c-.087,3.123.363,6.261-.891,9.334a6.982,6.982,0,0,1-3.937,4.182c-3.651,1.389-8.747,1.317-11.7-2.3a4.829,4.829,0,0,1-1.292-2.721c-.04-.517-.061-1.145-.673-1.239-.773-.121-.942.636-1.107,1.148-.75,2.322-1.833,4.337-4.342,5.153a11.48,11.48,0,0,1-9.725-.747c-2.246-1.327-2.47-3.862-2.654-6.206-.1-1.226,1.11-1.225,1.9-1.383.9-.177,1.292.455,1.433,1.286a6.581,6.581,0,0,0,2.187,4.2c1.918,1.594,4.663,1.247,6.706-.857a4.554,4.554,0,0,0-.008-5.814c-1.842-2.241-4.518-3.171-6.939-4.507-2.482-1.369-4.381-3.159-4.635-6.216-.31-3.713,1.124-6.743,4.674-7.325,3.182-.521,6.612-1.325,9.266,1.612a4.929,4.929,0,0,1,1.407,3.153c.036,1.059-.128,2.223-1.28,2.544-1.272.354-1.458-.874-1.861-1.716-.91-1.9-1.919-3.61-4.491-3.465a3.846,3.846,0,0,0-3.858,3.22,4.175,4.175,0,0,0,1.494,4.291c1.9,1.795,4.415,2.553,6.6,3.857,1.557.928,2.723,1.879,3.181,3.648.116.448.286,1.115.988.907.517-.153.4-.724.423-1.145.177-3-.05-5.99.364-9a9.754,9.754,0,0,1,15.222-6.858,8.657,8.657,0,0,1,3.5,6.8C265.785,145.469,265.654,147.536,265.654,149.592Zm-15.041-.271a34.18,34.18,0,0,0,.039,4.619c.32,2.316.722,4.812,3.034,6.025,3.541,1.857,7.371-.4,7.958-4.408a41.4,41.4,0,0,0-.008-12.03c-.452-3.1-2.313-5.323-4.784-5.461-2.676-.15-5.034,1.768-5.841,4.69C250.413,144.922,250.638,147.127,250.613,149.322Z" transform="translate(34.47 1.811)" fill="#a6a7aa"/>
          <path id="Trazado_161293" data-name="Trazado 161293" d="M269.243,187.993c0-3.3.018-6.606-.006-9.908-.009-1.186.144-2.433,1.523-2.5,1.568-.072,1.725,1.25,1.723,2.507-.007,5.578-.1,11.158.041,16.733.064,2.473.377,5.09,3.222,6.2,3.649,1.42,7.474-1.574,7.582-6.073.124-5.208.046-10.421.059-15.632.007-3.259.643-3.814,3.87-3.473a13.645,13.645,0,0,0,1.978-.009c2.563-.105,2.964-.455,2.9-3-.043-1.629.135-3.064,1.638-4.029,1.13-.727,1.865-.4,2.007.871a24.2,24.2,0,0,1,.048,3.739c-.069,1.5.555,2.207,2.075,2.06a1.7,1.7,0,0,1,.22,0c1.361.06,3.307-.208,3.319,1.584.014,1.954-2,1.2-3.164,1.219-1.792.035-2.485.776-2.466,2.547.057,5.209.006,10.421.034,15.632.015,2.861,1.038,3.935,3.882,4.126.947.063,1.839.16,1.849,1.363.009,1.135-.7,1.691-1.774,1.87-4.807.809-7.579-1.58-7.627-6.692-.052-5.357-.084-10.717.02-16.073.043-2.179-.9-2.721-2.9-2.807-2.223-.095-2.184,1.325-2.159,2.7.122,6.888-.391,13.786.265,20.666.082.855-.019,1.725-.843,2.092a1.841,1.841,0,0,1-2.479-.823c-.7-1.277-1.25-1.2-2.31-.283-2.589,2.248-5.681,2.321-8.673,1.133-2.9-1.152-4.033-3.567-3.883-6.716C269.353,194.015,269.241,191,269.243,187.993Z" transform="translate(41.74 7.93)" fill="#a6a7aa"/>
          <path id="Trazado_161294" data-name="Trazado 161294" d="M330.441,149.458c-.209-3.435.377-7.626-.394-11.785-.17-.919-.281-2.056,1.045-2.282,1.162-.2,2.41-.345,2.674,1.392.192,1.257.884,1.265,1.61.413a5.456,5.456,0,0,1,3.366-1.9c1.07-.18,2.145-.106,2.672,1,.676,1.424,1.457,1.052,2.419.363,4.325-3.1,11.438-1.817,13.819,2.73,1.486,2.838,1.367,6.108,1.026,9.245-.131,1.215-1.305,1.379-2.424,1.368-3.6-.033-7.2.032-10.795-.034-1.489-.028-2.205.481-2.125,2.024.122,2.31-.238,4.621,1.34,6.743,1.59,2.139,3.684,2.282,5.887,2.009,1.971-.244,3.612-1.171,4.086-3.4a3.758,3.758,0,0,1,.689-1.6,2.14,2.14,0,0,1,2.535-.759c.831.359.9,1.143.745,2.064-.9,5.472-5.475,7.21-9.9,6.793-2.781-.261-5.873-.644-7.308-3.665a14.828,14.828,0,0,1-1.6-5.214c-.319-5.065-1.34-10.224,1.044-15.125a1.273,1.273,0,0,0-.073-1.46c-.6-.582-1.373-.359-2.074-.137-2.886.912-4.914,4.135-4.959,8.076-.053,4.773,0,9.548-.024,14.321-.007,1.042.312,2.5-1.307,2.549-1.646.05-1.947-1.349-1.965-2.646C330.408,157.1,330.441,153.645,330.441,149.458Zm18.48-2.669c1.393,0,2.788-.031,4.181.009a1.685,1.685,0,0,0,1.917-1.694c.025-2.569-.608-4.932-2.978-6.449-1.656-1.059-4.053-.8-6.146.7-1.6,1.145-3.069,4.789-2.388,6.256.935,2.015,2.844.884,4.317,1.161A6.074,6.074,0,0,0,348.921,146.79Z" transform="translate(52.818 1.828)" fill="#a6a7aa"/>
          <path id="Trazado_161295" data-name="Trazado 161295" d="M321.606,188.765c0-4.107.013-8.216-.008-12.324-.006-1.01.057-2.054,1.171-2.338,1.088-.278,2.349-.612,3.094.791.553,1.045,1.21.824,1.908.125,3.178-3.173,8.292-2.185,10.881-.1a6.454,6.454,0,0,1,2.53,5.1q.007,10.785.015,21.569c0,1.263-.163,2.553-1.781,2.434-1.479-.109-2.881-.538-2.861-2.592.056-5.648.015-11.3.012-16.947,0-.733.02-1.467-.009-2.2-.1-2.627-1.214-4.007-3.235-4.183-3.771-.33-5.037.829-5.79,3.622-1.451,5.384-.748,10.92-.873,16.4-.025,1.1.008,2.2-.009,3.3-.022,1.522-.7,2.688-2.3,2.586-1.493-.095-2.8-.662-2.754-2.7.1-4.178.03-8.362.03-12.544Z" transform="translate(51.295 8.761)" fill="#a6a7aa"/>
          <path id="Trazado_161296" data-name="Trazado 161296" d="M349.223,173.093a7.71,7.71,0,0,1,6.58,2.589c1.764,1.758,1.6,4,1.792,6.126.1,1.1-.871,1.615-1.972,1.57-1.422-.059-2.6-.517-2.948-2.088-.65-2.967-2.631-4.1-5.485-3.1a1.923,1.923,0,0,0-1.385,1.8c-.076,1.388-.287,2.866,1.171,3.752,1.868,1.135,3.726,2.3,5.672,3.287a9.484,9.484,0,0,1,4.67,12.722c-1.564,3.606-6.424,5.551-11.29,4.452-4.227-.955-6.582-4.124-6.125-8.246.143-1.291.569-2.216,2.153-2.2,1.554.019,2.782.607,2.737,2.165-.073,2.5,1.376,3.383,3.384,3.851a4.485,4.485,0,0,0,4.934-2.336c.89-1.6.209-3.188-1.846-4.811-2.263-1.785-4.954-2.812-7.367-4.344-3.24-2.056-4.167-7.017-3.469-9.535C341.373,175.346,344.917,173.088,349.223,173.093Z" transform="translate(54.624 8.77)" fill="#a6a7aa"/>
          <path id="Trazado_161297" data-name="Trazado 161297" d="M237.426,204.147c-3.506.3-6.318-.688-8.109-3.975a7.374,7.374,0,0,1-.782-3.15c-.082-1.291-.206-2.98,1.777-3.209a2.418,2.418,0,0,1,3.019,2.544,3.4,3.4,0,0,0,2.769,3.488c1.951.362,3.928.275,5.3-1.7,1.2-1.725.719-3.145-.456-4.566-1.745-2.11-4.3-2.969-6.57-4.275a11.768,11.768,0,0,1-4.757-4.921c-2.509-4.759,1.669-10.726,6.049-11.183,2.4-.249,4.753-.291,7,1.052,2.617,1.564,3.256,4.045,3.442,6.705.066.948-.1,2.284-1.665,2.419-1.409.121-2.092-.529-2.559-1.836-1.246-3.494-1.99-3.91-4.956-3.521-1.253.164-2.4.333-2.552,1.848-.164,1.619-.3,3.264,1.467,4.253,2.4,1.343,4.875,2.572,7.151,4.1,5.143,3.447,5.321,12.646-1.036,15.452C240.449,204.336,238.929,204,237.426,204.147Z" transform="translate(34.318 8.776)" fill="#a6a7aa"/>
          <path id="Trazado_161298" data-name="Trazado 161298" d="M244.813,187.356c.056-2.449-.161-5.523,1.2-8.574,1.271-2.838,3.937-5.283,7.028-5.347,1.244-.026,2.482-.2,3.71-.26,3.1-.155,7.017,3.346,7.741,6.452,1.335,5.734,1.066,11.471.31,17.23-.484,3.68-4.327,7.8-8.518,7.285-1.73-.21-3.506.27-5.222-.38-4.856-1.836-5.75-6.05-6.223-10.452C244.657,191.57,244.813,189.792,244.813,187.356Zm4.313,1.887c-.012,2.485-.117,4.962.946,7.331,1.267,2.822,2.753,3.857,5.539,3.626a5.16,5.16,0,0,0,4.822-4.331,34.834,34.834,0,0,0-.136-14.556,5.181,5.181,0,0,0-4.686-3.977,4.807,4.807,0,0,0-5.147,2.907C248.956,183.092,249.143,186.18,249.127,189.243Z" transform="translate(37.282 8.795)" fill="#a6a7aa"/>
          <path id="Trazado_161299" data-name="Trazado 161299" d="M323.51,188.813a31.444,31.444,0,0,1-.822,8.476c-1.465,6.041-7.49,7.022-11.633,6.193-5.062-1.012-6.624-4.8-7.364-9.213a34.811,34.811,0,0,1,.629-13.894c1.252-5.332,6.024-7.078,10.386-6.614,6.063.644,8.256,4.6,8.788,11.1C323.6,186.167,323.51,187.494,323.51,188.813Zm-3.982.111c-.08-2.911.187-5.817-1.2-8.612a4.97,4.97,0,0,0-4.624-3.068,4.782,4.782,0,0,0-4.978,2.955,24.559,24.559,0,0,0,.009,17.19c.737,2.069,2.489,2.755,4.573,2.723s3.75-.607,4.895-2.635C319.742,194.738,319.467,191.831,319.528,188.925Z" transform="translate(47.952 8.89)" fill="#a6a7aa"/>
          <path id="Trazado_161300" data-name="Trazado 161300" d="M263.412,184.556c0-6.379.018-12.756-.012-19.134-.008-1.7.35-2.845,2.416-2.808,1.956.035,2.249,1.145,2.245,2.738q-.037,18.915-.014,37.828c0,1.534-.154,2.741-2.154,2.831-1.762.078-2.515-.445-2.491-2.322.077-6.376.028-12.755.028-19.133Z" transform="translate(40.683 6.87)" fill="#a6a7aa"/>
          <path id="Trazado_161301" data-name="Trazado 161301" d="M267.969,152.62c0,3.306-.007,6.611,0,9.916,0,1.108-.1,2.1-1.56,2.141-1.547.044-1.781-.922-1.778-2.167q.023-9.474.007-18.951c0-2.892-.057-2.975-2.913-3.178-.954-.067-1.269-.675-1.374-1.431a1.108,1.108,0,0,1,1.278-1.387c2.808.323,3.207-1.282,3.022-3.509-.085-1.022-.02-2.056-.012-3.085a6.216,6.216,0,0,1,7.729-5.821,1.145,1.145,0,0,1,.926,1.283c-.009.836-.359,1.506-1.233,1.539-1.444.056-2.963.09-3.507,1.671a13.486,13.486,0,0,0-.371,6.949c.143.756.786.979,1.532.946.659-.031,1.322-.009,1.983.008.936.024,1.569.42,1.541,1.447-.024.883-.575,1.221-1.406,1.389-1.206.242-2.762-.746-3.581.831-.6,1.149-.252,2.459-.271,3.7C267.943,147.478,267.971,150.05,267.969,152.62Z" transform="translate(40.124 0)" fill="#a6a7aa"/>
          <path id="Trazado_161302" data-name="Trazado 161302" d="M276.877,150.094c0-2.932-.012-5.865,0-8.8.009-1.413-.556-2.237-2.063-2.22-.947.009-1.886-.131-1.784-1.362.09-1.085,1.03-1.127,1.848-1.061,1.573.125,2.056-.637,2.028-2.1-.024-1.223-.283-2.51.458-3.646a1.969,1.969,0,0,1,1.984-1.113c.935.173.877,1.036.884,1.774.006.66-.008,1.32,0,1.979.037,2.7.352,3.021,3.015,3.091.943.025,2.171-.132,2.144,1.22-.025,1.285-1.2,1.211-2.177,1.223-2.534.028-2.961.423-2.975,2.906q-.043,7.257,0,14.516c.014,3.189.944,4.247,4.131,4.763.7.114,1.351.273,1.445,1.07a1.652,1.652,0,0,1-1.34,1.771,5.586,5.586,0,0,1-7.548-5.215c-.092-1.461-.03-2.932-.032-4.4s0-2.932,0-4.4Z" transform="translate(42.438 0.88)" fill="#a6a7aa"/>
          <path id="Trazado_161303" data-name="Trazado 161303" d="M361.823,134.129c3.687.017,6.079,2.466,6.062,6.21-.015,3.327-2.814,6.349-6.039,6.246-4.3-.137-6.5-2.6-6.757-6.535A6.109,6.109,0,0,1,361.823,134.129Zm1.017,9.779c-.37-.9-.683-1.986-1.894-2.054-.817-.045-.986.7-.974,1.408a1.667,1.667,0,0,0,1.664,1.869C362.394,145.179,362.857,144.778,362.84,143.908Zm3.2-3.438c-.045-1.182-.116-2.46-1.163-2.528-1.148-.074-.371,1.286-.727,1.914-.036.061-.034.143-.064.208a1.9,1.9,0,0,0,.3,2.229.581.581,0,0,0,.792.053A1.79,1.79,0,0,0,366.041,140.47Zm-9.241-.447c.145.793-.328,2.119.731,2.2s.926-1.215.927-2.038.179-2.075-.87-2.1C356.585,138.047,356.934,139.286,356.8,140.023Z" transform="translate(57.401 1.667)" fill="#a6a7aa"/>
          <path id="Trazado_161304" data-name="Trazado 161304" d="M298.313,188.044c0-3.671.028-7.342-.013-11.014-.017-1.459.292-2.375,2.053-2.368,1.789.008,1.756,1.083,1.752,2.338-.02,5.946-.013,11.893-.012,17.841a50.68,50.68,0,0,1,.061,5.892c-.158,1.386-.913,1.732-1.958,1.9-1.2.192-1.427-.733-1.666-1.616a18.307,18.307,0,0,1-.218-4.6c-.041-2.789-.012-5.58-.012-8.369Z" transform="translate(47.043 9.067)" fill="#a6a7aa"/>
          <path id="Trazado_161305" data-name="Trazado 161305" d="M302.418,170.976c.1,1.243-.423,1.949-1.855,1.967-1.341.018-2.289-.242-2.281-1.867,0-1.292.162-2.277,1.824-2.334C301.691,168.688,302.4,169.353,302.418,170.976Z" transform="translate(47.044 7.987)" fill="#a6a7aa"/>
          <path id="Trazado_161306" data-name="Trazado 161306" d="M160.808,163.759c-2.862,0-5.727-.061-8.589.024a2.679,2.679,0,0,1-2.946-1.985c-1.665-4.138-3.895-7.9-8.46-9.438a11.245,11.245,0,0,0-10.685,1.584c-4.94,3.565-6.833,8.626-7.363,14.486-.388,4.3-.862,8.587.516,12.766,1.675,5.077,4.006,9.74,9.218,12.17,3.779,1.761,7.3.981,10.516-1.341a17.2,17.2,0,0,0,5.912-8.249,2.677,2.677,0,0,1,2.909-2.049c6.166.056,12.336.095,18.5-.024,1.693-.033,2.127.774,2,2.066-.559,5.543-2.127,10.731-5.782,15.09a33.944,33.944,0,0,1-14.11,10.064c-9.778,3.656-20,4.4-29.845.463a37.251,37.251,0,0,1-19.174-17.122,35,35,0,0,1-4.352-16.447c-.089-5.07-.035-10.128,1.464-15.009,2.565-8.344,6.936-15.511,14.413-20.355,10.665-6.909,22.28-7.582,34.12-4.175a32.814,32.814,0,0,1,18.426,13.057,24.422,24.422,0,0,1,4.232,12.917c.064,1.376-.835,1.512-1.885,1.509C166.829,163.752,163.818,163.759,160.808,163.759Z" transform="translate(10.711 1.704)" fill="#cc2228"/>
          <path id="Trazado_161310" data-name="Trazado 161310" d="M196.984,135.724c3.3,0,6.611.053,9.914-.026a2.6,2.6,0,0,1,2.847,2.1c3.927,11.114,7.963,22.188,11.916,33.293,3.831,10.763,7.6,21.548,11.4,32.322.488,1.383,1.066,2.737,1.482,4.139.388,1.308-.013,2.126-1.582,2.12-6.608-.027-13.218-.019-19.827-.012-2.212,0-2.521-1.788-2.912-3.286a37.857,37.857,0,0,0-1.32-4.417,2.258,2.258,0,0,0-2.36-1.574c-6.463.037-12.926-.009-19.387.041-2.543.02-3.382.843-3.555,3.435-.111,1.656-.929,3.074-1.3,4.637-.222.933-.951,1.174-1.863,1.172q-9.8-.027-19.607,0c-1.577.006-1.939-.707-1.466-2.092,1.019-2.978,1.99-5.972,3.043-8.939,2.57-7.241,5.185-14.467,7.768-21.706q4.468-12.519,8.907-25.051c1.634-4.624,3.292-9.242,4.8-13.909a2.817,2.817,0,0,1,3.192-2.278C190.374,135.8,193.68,135.727,196.984,135.724Zm-.125,24.316a10.762,10.762,0,0,0-.7,1.357c-2.15,7.153-4.308,14.3-6.4,21.473-.4,1.359,0,2.248,1.722,2.207,3.3-.076,6.607-.093,9.906.026,2.011.073,2.488-.767,2.012-2.531-1.179-4.383-2.249-8.8-3.561-13.143C198.927,166.437,198.458,163.3,196.859,160.041Z" transform="translate(21.676 1.962)" fill="#cc2228"/>
          <path id="Trazado_161316" data-name="Trazado 161316" d="M192.164,156.286c1.6,3.255,2.068,6.4,2.971,9.389,1.312,4.343,2.382,8.76,3.561,13.143.475,1.764,0,2.6-2.012,2.531-3.3-.119-6.606-.1-9.906-.026-1.721.04-2.119-.849-1.721-2.207,2.1-7.169,4.255-14.32,6.4-21.473A10.76,10.76,0,0,1,192.164,156.286Z" transform="translate(26.371 5.716)" fill="#fefefe"/>
        </g>
      </g>
      <path id="Trazado_158124" data-name="Trazado 158124" d="M4439.255-1116h0a11.058,11.058,0,0,0-15.639,0l-45.449,45.449a11.057,11.057,0,0,0,0,15.638,11.059,11.059,0,0,0,15.639,0l45.449-45.449A11.06,11.06,0,0,0,4439.255-1116Z" transform="translate(-4374.928 1141.171)" fill="#fc4b52"/>
      <path id="Trazado_158125" data-name="Trazado 158125" d="M4476.83-1136.847a11.056,11.056,0,0,0-15.638,0l-60.088,60.087a11.059,11.059,0,0,0,0,15.638h0a11.057,11.057,0,0,0,15.638,0l60.088-60.087A11.057,11.057,0,0,0,4476.83-1136.847Z" transform="translate(-4373.733 1140.086)" fill="#feca2e"/>
      <g id="Grupo_108305" data-name="Grupo 108305" transform="translate(398.663 241.909)">
        <path id="Trazado_158126" data-name="Trazado 158126" d="M4757.1-824.256a11.055,11.055,0,0,0,15.637,0l60.09-60.087a11.06,11.06,0,0,0,0-15.638h0a11.059,11.059,0,0,0-15.64,0L4757.1-839.894A11.057,11.057,0,0,0,4757.1-824.256Z" transform="translate(-4753.857 910.513)" fill="#feca2e"/>
        <path id="Trazado_158127" data-name="Trazado 158127" d="M4793.947-845.826h0a11.058,11.058,0,0,0,15.639,0l45.448-45.449a11.056,11.056,0,0,0,0-15.638,11.059,11.059,0,0,0-15.64,0l-45.447,45.449A11.058,11.058,0,0,0,4793.947-845.826Z" transform="translate(-4751.938 910.152)" fill="#fc4b52"/>
      </g>
    </g>
  </g>
</svg>
