<svg xmlns="http://www.w3.org/2000/svg" xmlns:xlink="http://www.w3.org/1999/xlink" width="504.999" height="331.404" viewBox="0 0 504.999 331.404">
  <defs>
    <clipPath id="clip-path">
      <path id="Trazado_158123" data-name="Trazado 158123" d="M4461.649-1127.943h371.759a32.164,32.164,0,0,1,32.165,32.163v210.04l-72.445,63.651H4420.092a32.163,32.163,0,0,1-32.163-32.163v-204.262Z" transform="translate(-4387.607 1127.87)" fill="#79d2dc"/>
    </clipPath>
  </defs>
  <g id="Grupo_117470" data-name="Grupo 117470" transform="translate(4914 7824)">
    <g id="Grupo_116467" data-name="Grupo 116467" transform="translate(-4914 -7824)">
      <g id="Enmascarar_grupo_116" data-name="Enmascarar grupo 116" transform="translate(13.678 12.775)" clip-path="url(#clip-path)">
        <g id="Rectángulo_40687" data-name="Rectángulo 40687" transform="translate(-38.929 -23.46)" fill="#f3f9ff" stroke="#707070" stroke-width="1">
          <rect width="534.037" height="352.237" stroke="none"/>
          <rect x="0.5" y="0.5" width="533.037" height="351.237" fill="none"/>
        </g>
        <g id="Grupo_116489" data-name="Grupo 116489" transform="translate(1.257 -19.394)">
          <path id="Trazado_161317" data-name="Trazado 161317" d="M45.956,169.185c1.382-1.65,1.043-3.768,1.475-5.66,3.47-15.183,16.538-27.477,31.964-29.169a67.067,67.067,0,0,1,9.518-.2v1.314c-7.789-.373-15.308.6-22.123,4.692-13.582,8.148-19.491,20.285-18.615,35.9l-1.3.744c-.431-.708.22-1.851-.922-2.272Z" fill="#255167"/>
          <path id="Trazado_161318" data-name="Trazado 161318" d="M211,171.823c0-3.183-.19-6.38.042-9.548.419-5.733,3.42-9.879,8.83-11.819,5.039-1.807,9.887-1.2,13.643,3.045,1.192,1.348,1.687,1.163,2.792-.063,3.918-4.344,8.912-4.661,14.078-3.006,5.235,1.678,7.755,5.939,8.113,11.016.489,6.972.253,14,.3,21,.012,1.861-.921,2.835-2.856,2.732s-2.646-1.288-2.649-3.043c-.012-5.476-.033-10.952,0-16.428a15.95,15.95,0,0,0-1.017-6.362,7.433,7.433,0,0,0-13.705.062,14.757,14.757,0,0,0-.845,5.625c-.014,5.475-.007,10.952-.008,16.427,0,1.916-.254,3.665-2.759,3.716-2.526.051-2.842-1.677-2.844-3.609q-.015-8.785,0-17.573c0-2.2-.26-4.317-1.731-6.1a7.59,7.59,0,0,0-7.432-2.941,6.808,6.808,0,0,0-5.665,5.04,18.173,18.173,0,0,0-.863,6.016c.048,5.348,0,10.7.023,16.045.008,1.975-.718,3.191-2.893,3.124-2-.06-2.589-1.26-2.577-3.035.023-3.438.007-6.877.007-10.315Z" transform="translate(34.335 3.208)" fill="#093b53"/>
          <path id="Trazado_161319" data-name="Trazado 161319" d="M137.353,185.875a26.723,26.723,0,0,1-14.174-3.976c-1.6-.97-3.073-2.169-1.765-4.288,1.343-2.175,3.019-1.777,4.858-.487a18.831,18.831,0,0,0,17.129,2.512c2.93-.9,4.951-2.787,4.43-6.19-.5-3.263-3.308-3.2-5.643-3.361-3.688-.257-7.411-.03-11.1-.306-5.35-.4-8.457-3.075-9.235-7.545a9.644,9.644,0,0,1,5.839-10.553c7.041-3.24,14.109-2.717,21.077.452,1.81.823,2.675,2.169,1.757,3.954s-2.5,1.865-4.261.948a19.348,19.348,0,0,0-13.373-1.772c-2.915.628-5.528,1.848-5.3,5.408.23,3.674,3.153,3.756,5.91,3.9,4.069.22,8.157-.323,12.218.519,4.146.859,7.025,2.954,7.784,7.279a9.754,9.754,0,0,1-4.148,10.346C145.775,185.242,141.636,185.884,137.353,185.875Z" transform="translate(15.6 3.207)" fill="#0b3c54"/>
          <path id="Trazado_161320" data-name="Trazado 161320" d="M316.5,161.308c0-3.07-.047-5.724.017-8.376.042-1.8,1.058-2.971,2.872-2.854,1.633.105,2.367,1.346,2.349,2.955-.074,7,.172,14.014-.338,20.978-.453,6.188-5.126,10.43-11.506,11.524-6.884,1.18-13.657-1.83-16.341-7.265a14.312,14.312,0,0,1,2.48-16.259c4.184-4.09,11.6-5.19,17.118-2.52C314.153,159.975,315.107,160.548,316.5,161.308Zm-9.559,19.3c5.582-.033,9.394-3.63,9.367-8.839-.028-5.307-3.774-8.8-9.4-8.753-5.613.044-9.361,3.6-9.349,8.867C297.573,177.228,301.242,180.638,306.945,180.605Z" transform="translate(51.226 3.327)" fill="#0a3c54"/>
          <path id="Trazado_161321" data-name="Trazado 161321" d="M199.34,156.7a13.519,13.519,0,0,1,8.728,2.885,7.431,7.431,0,0,1,2.961,7.76,6.523,6.523,0,0,1-6.137,5.437c-4.055.4-8.159.306-12.241.445-.725.025-1.667-.266-2.071.517-.491.951.317,1.664.854,2.345,2.465,3.127,7.873,4.067,12.731,2.181,1.782-.691,3.794-1.964,4.828.664.979,2.485-1.189,3.305-2.988,4-6,2.314-11.859,2.1-17.054-1.869-4.489-3.426-5.663-8.279-4.578-13.7C185.678,160.862,191.309,156.711,199.34,156.7Zm-2.627,11.654v-.048c1.914,0,3.829.023,5.741-.007,1.51-.024,2.854-.527,3.274-2.1.43-1.6-.625-2.62-1.87-3.409-3.426-2.166-9.7-1.262-12.35,1.817-.812.944-2.014,2.074-1.4,3.287.538,1.06,2.073.344,3.159.436C194.411,168.429,195.566,168.354,196.714,168.354Z" transform="translate(28.731 4.706)" fill="#093b53"/>
          <path id="Trazado_161322" data-name="Trazado 161322" d="M334.814,156.705a14.351,14.351,0,0,1,9.311,2.843,7.58,7.58,0,0,1,2.81,8.5c-.806,3.077-3.292,4.543-6.251,4.793-3.929.332-7.893.245-11.84.4-.8.033-1.92-.487-2.3.689-.324.994.576,1.62,1.118,2.264,2.48,2.949,7.594,3.918,12.034,2.323.715-.257,1.372-.678,2.093-.918,1.325-.443,2.5-.343,3.262,1.068.89,1.642.018,2.582-1.242,3.454-4.668,3.232-13.6,2.854-18.463-.8a13.643,13.643,0,0,1-4.479-15.406C322.8,160.145,327.992,156.72,334.814,156.705Zm-1.869,11.65v-.092c2.028,0,4.063.082,6.085-.03,1.3-.072,2.518-.557,2.764-2.106a3.053,3.053,0,0,0-1.531-3.2c-3.5-2.386-10.308-1.42-12.9,1.912-.687.882-1.62,1.919-1.014,3.035.547,1.005,1.838.39,2.791.458C330.4,168.423,331.677,168.355,332.945,168.355Z" transform="translate(57.056 4.708)" fill="#093b53"/>
          <path id="Trazado_161323" data-name="Trazado 161323" d="M161.006,163.76c0-2.543.021-5.086-.01-7.629-.023-1.892.586-3.363,2.7-3.395,1.886-.029,2.764,1.2,2.578,3.008-.214,2.074.962,2.222,2.559,2.2,3.827-.059,7.657-.017,11.485-.017,2,0,4.179.08,4.135,2.729-.041,2.437-2.1,2.438-3.968,2.424-3.827-.029-7.662.118-11.482-.057-2.231-.1-2.9.666-2.739,2.8.216,2.9-.168,5.835.6,8.721.708,2.657,2.042,4.692,4.87,5.267,2.9.591,5.6.244,7.611-2.27a9.281,9.281,0,0,0,.692-.911c.939-1.536,2.305-2.217,3.845-1.183,1.825,1.225,1.153,2.833.144,4.319-2.864,4.222-6.937,5.822-11.9,5.309-4.713-.488-8.087-2.85-9.779-7.365S161.024,168.453,161.006,163.76Z" transform="translate(23.941 3.882)" fill="#0c3e55"/>
          <path id="Trazado_161324" data-name="Trazado 161324" d="M293.55,174.587c0,1.781-.011,3.562,0,5.342.014,1.9-.139,3.791-2.676,3.705-2.433-.081-2.649-1.972-2.66-3.849-.017-2.8.025-5.6-.016-8.394-.091-6.275-3.127-9.636-8.751-9.744-5.784-.111-9.095,3.362-9.2,9.715-.047,2.8.006,5.6-.016,8.394-.014,1.859-.173,3.778-2.622,3.878-2.527.1-2.718-1.748-2.7-3.667.031-3.435-.081-6.873.064-10.3.335-7.873,5.836-12.9,14.047-12.967,8.462-.072,14.046,4.9,14.475,12.929.088,1.648.013,3.305.013,4.958Z" transform="translate(45.569 4.707)" fill="#0b3c54"/>
          <path id="Trazado_161325" data-name="Trazado 161325" d="M346.593,174.96c0-1.783-.132-3.576.022-5.345.8-9.233,7.545-14.327,16.721-12.72,1.767.309,3.415.9,3.151,3.032-.295,2.373-2.072,2.44-4.062,2.175-6.732-.9-10.2,1.905-10.576,8.638-.186,3.3-.054,6.622-.059,9.933,0,1.747-.568,3.011-2.594,3.019s-2.624-1.307-2.678-3c-.06-1.908-.013-3.82-.013-5.73Z" transform="translate(62.55 4.687)" fill="#0b3c54"/>
          <path id="Trazado_161326" data-name="Trazado 161326" d="M261.083,170.443c0,3.295.014,6.59-.007,9.885-.011,1.632-.352,3.119-2.39,3.234-2.2.124-2.9-1.317-2.912-3.157-.042-6.716-.031-13.432,0-20.148.008-1.711.754-3.1,2.626-3.089,2.088.013,2.709,1.507,2.694,3.391C261.065,163.854,261.085,167.148,261.083,170.443Z" transform="translate(43.664 4.805)" fill="#114259"/>
          <path id="Trazado_161327" data-name="Trazado 161327" d="M81.512,135.461v-1.314c26.418,2.009,42.966,32.314,30.208,55.347a33,33,0,0,1-1.933,2.781c0,.006-.2-.273-.2-.271-.887-1.261.231-2.067.71-3a37.016,37.016,0,0,0,4.135-15.276C115.274,156.154,102.99,138.389,81.512,135.461Z" transform="translate(7.4 0.013)" fill="#224f65"/>
          <path id="Trazado_161328" data-name="Trazado 161328" d="M157.314,170.49c0,3.295.017,6.588-.008,9.883-.015,1.9-.789,3.263-2.915,3.15-1.962-.1-2.417-1.508-2.414-3.206.013-6.589.03-13.177-.011-19.766-.012-1.926.656-3.388,2.7-3.369s2.687,1.534,2.665,3.427C157.287,163.9,157.316,167.2,157.314,170.49Z" transform="translate(22.064 4.807)" fill="#073952"/>
          <path id="Trazado_161329" data-name="Trazado 161329" d="M110.55,188.568C95.057,205.038,67.639,203.408,53.2,185.16l1.031-.979a42.04,42.04,0,0,0,9.978,8.792c12.778,7.715,30.873,8.144,45.44-5.3Z" transform="translate(1.507 10.427)" fill="#285469"/>
          <path id="Trazado_161330" data-name="Trazado 161330" d="M46.719,169.576l1.3-.744A43.92,43.92,0,0,0,52.5,182.78L51.492,183.8A32.964,32.964,0,0,1,46.719,169.576Z" transform="translate(0.159 7.232)" fill="#285469"/>
          <path id="Trazado_161331" data-name="Trazado 161331" d="M258.386,154.911a2.532,2.532,0,0,1-2.523-2.856,2.562,2.562,0,1,1,5.11.367A2.47,2.47,0,0,1,258.386,154.911Z" transform="translate(43.687 3.236)" fill="#0b3c54"/>
          <path id="Trazado_161332" data-name="Trazado 161332" d="M154.6,154.955c-1.549-.283-2.651-1.009-2.61-2.74a2.637,2.637,0,0,1,5.273.048C157.269,153.927,156.173,154.729,154.6,154.955Z" transform="translate(22.07 3.232)" fill="#114259"/>
          <path id="Trazado_161333" data-name="Trazado 161333" d="M100.826,189.014l-.9-.9a15.514,15.514,0,0,1,5.836-6.079s.2.279.2.273C105.56,185.539,103,187.131,100.826,189.014Z" transform="translate(11.232 9.98)" fill="#fbfcfd"/>
          <path id="Trazado_161334" data-name="Trazado 161334" d="M53.724,185.951l-3.054-4.557,1.008-1.017,3.077,4.6Z" transform="translate(0.981 9.635)" fill="#285469"/>
          <path id="Trazado_161335" data-name="Trazado 161335" d="M55.368,194.381l-3.077-4.6a43.92,43.92,0,0,1-4.485-13.948c-.876-15.613,5.033-27.75,18.615-35.9,6.815-4.088,14.334-5.066,22.123-4.692,21.478,2.927,33.762,20.693,32.922,38.266a37.016,37.016,0,0,1-4.135,15.276c-.48.934-1.6,1.74-.71,3a15.5,15.5,0,0,0-5.834,6.077c-14.568,13.449-32.662,13.02-45.44,5.3A42.04,42.04,0,0,1,55.368,194.381Zm21.714-5.6c-1.571-2.462.151-5.476-1.29-7.411-2.552-3.425-1.163-5.526,1.354-7.806,1.887-1.71,3.624-3.583,5.479-5.329,1.887-1.776,3.883-1.8,5.766-.018q3.606,3.42,7.087,6.969c1.26,1.278,2.03,2.966.76,4.45-1.716,2-1.07,4.286-1.471,6.463-.587,3.192.773,2.988,3.037,2.245a18.226,18.226,0,0,0,.262-34.7,17.929,17.929,0,0,0-20.2,6.155c-1.682,2.343-3.205,3.226-6.139,3.094-5.316-.24-9.268,2.468-11.66,7.194a12.386,12.386,0,0,0,1.2,13.664C65.151,189.121,70.72,189.575,77.082,188.785Zm9.989-2.033c-.058-1.1.139-2.46-1.508-2.49-1.608-.029-1.618,1.276-1.618,2.417,0,1.075-.3,2.324,1.515,2.358S87.041,187.868,87.071,186.752Z" transform="translate(0.368 0.227)" fill="#fdfdfd"/>
          <path id="Trazado_161336" data-name="Trazado 161336" d="M306,178.376c-5.7.033-9.373-3.378-9.385-8.725-.012-5.269,3.736-8.823,9.349-8.867,5.629-.042,9.375,3.446,9.4,8.753C315.4,174.745,311.582,178.343,306,178.376Z" transform="translate(52.17 5.557)" fill="#f9fafb"/>
          <path id="Trazado_161337" data-name="Trazado 161337" d="M195.69,167.509c-1.148,0-2.3.075-3.443-.022-1.086-.092-2.622.623-3.159-.436-.616-1.213.586-2.344,1.4-3.287,2.649-3.08,8.923-3.983,12.35-1.817,1.246.789,2.3,1.8,1.87,3.409-.42,1.571-1.764,2.073-3.274,2.1-1.912.03-3.827.007-5.741.007Z" transform="translate(29.755 5.552)" fill="#f6f7f8"/>
          <path id="Trazado_161338" data-name="Trazado 161338" d="M331.9,167.511c-1.269,0-2.543.068-3.806-.022-.953-.068-2.243.547-2.791-.458-.606-1.116.326-2.153,1.014-3.035,2.594-3.332,9.405-4.3,12.9-1.912a3.053,3.053,0,0,1,1.531,3.2c-.246,1.549-1.459,2.033-2.764,2.106-2.022.112-4.057.03-6.085.03Z" transform="translate(58.101 5.553)" fill="#f4f6f7"/>
          <path id="Trazado_161339" data-name="Trazado 161339" d="M75.217,185.768c-6.362.79-11.932.336-15.819-5.027a12.386,12.386,0,0,1-1.2-13.664c2.392-4.726,6.344-7.435,11.66-7.194,2.933.132,4.457-.751,6.139-3.094a17.929,17.929,0,0,1,20.2-6.155,18.226,18.226,0,0,1-.262,34.7c-2.264.743-3.624.947-3.037-2.245.4-2.177-.244-4.459,1.472-6.463,1.27-1.484.5-3.171-.76-4.45q-3.487-3.539-7.087-6.969c-1.883-1.786-3.879-1.758-5.766.018-1.854,1.746-3.592,3.62-5.479,5.329-2.518,2.28-3.906,4.381-1.354,7.806C75.368,180.292,73.646,183.306,75.217,185.768Z" transform="translate(2.233 3.244)" fill="#058dce"/>
          <path id="Trazado_161340" data-name="Trazado 161340" d="M80.83,178.3c-.027,1.115.193,2.318-1.607,2.285s-1.516-1.283-1.515-2.358c0-1.142.01-2.446,1.618-2.417C80.973,175.835,80.776,177.193,80.83,178.3Z" transform="translate(6.605 8.683)" fill="#058dce"/>
        </g>
      </g>
      <path id="Trazado_158124" data-name="Trazado 158124" d="M4439.255-1116h0a11.058,11.058,0,0,0-15.639,0l-45.449,45.449a11.057,11.057,0,0,0,0,15.638,11.059,11.059,0,0,0,15.639,0l45.449-45.449A11.06,11.06,0,0,0,4439.255-1116Z" transform="translate(-4374.928 1141.171)" fill="#fc4b52"/>
      <path id="Trazado_158125" data-name="Trazado 158125" d="M4476.83-1136.847a11.056,11.056,0,0,0-15.638,0l-60.088,60.087a11.059,11.059,0,0,0,0,15.638h0a11.057,11.057,0,0,0,15.638,0l60.088-60.087A11.057,11.057,0,0,0,4476.83-1136.847Z" transform="translate(-4373.733 1140.086)" fill="#feca2e"/>
      <g id="Grupo_108305" data-name="Grupo 108305" transform="translate(398.663 241.909)">
        <path id="Trazado_158126" data-name="Trazado 158126" d="M4757.1-824.256a11.055,11.055,0,0,0,15.637,0l60.09-60.087a11.06,11.06,0,0,0,0-15.638h0a11.059,11.059,0,0,0-15.64,0L4757.1-839.894A11.057,11.057,0,0,0,4757.1-824.256Z" transform="translate(-4753.857 910.513)" fill="#feca2e"/>
        <path id="Trazado_158127" data-name="Trazado 158127" d="M4793.947-845.826h0a11.058,11.058,0,0,0,15.639,0l45.448-45.449a11.056,11.056,0,0,0,0-15.638,11.059,11.059,0,0,0-15.64,0l-45.447,45.449A11.058,11.058,0,0,0,4793.947-845.826Z" transform="translate(-4751.938 910.152)" fill="#fc4b52"/>
      </g>
    </g>
  </g>
</svg>
