<svg xmlns="http://www.w3.org/2000/svg" width="247.337" height="552.481" viewBox="0 0 247.337 552.481">
  <g id="Grupo_117488" data-name="Grupo 117488" transform="translate(-1067.663 -5494.444)">
    <g id="Grupo_116837" data-name="Grupo 116837" transform="translate(964.667 5509.303)">
      <g id="Grupo_116834" data-name="Grupo 116834" transform="translate(183.296 102.245)">
        <path id="Trazado_161786" data-name="Trazado 161786" d="M171.255,78.81c0-.616.026-1.264.066-1.948a10.241,10.241,0,0,1,10.014-9.608l63.607-1.325a10.207,10.207,0,0,1,10.388,9.009c.013.113.024.227.034.342a10.158,10.158,0,0,1-9.77,10.957l-63.645,2.777A10.214,10.214,0,0,1,171.255,78.81Z" transform="translate(-169.73 -60.406)" fill="#8bc24a"/>
        <path id="Trazado_161787" data-name="Trazado 161787" d="M189.224,69.843s-17.659,20-18.653,71.684,24.041,64.911,24.041,64.911h71.694V71.7Z" transform="translate(-170.541 -55.95)" fill="#feca2e"/>
        <path id="Trazado_161788" data-name="Trazado 161788" d="M281.865,219.229c-8.06,2.247-32.15,3.994-43.915,3.994-9.05,0-31.9.979-39.979-2.356-2.429-.992-3.515-2.379-2.523-4.293,0,0-4.066-5.486,2.5-7.316l8.8-37.05-8.237-38.127a104.333,104.333,0,0,0-13.067,2.356c-.6-1.627-2.14-5.931-3.814-11.262-2.929-9.266-6.253-21.629-5.678-28.359,1-11.692,34.576-26.972,34.576-26.972l-1,3.921s23.6,27.594,37.219,24.605S244.31,80.2,244.31,80.2L245.029,74l.716.323s17.732,8.25,21.163,13.176l.5.6,15.23,17.909,4.09,7.365a22.563,22.563,0,0,0-4.2,3.587q-2.421,2.492-4.759,5.092a11.321,11.321,0,0,1,2.26,6.444c.036,2.739-1.088,7.329-2.236,11.275-.286.992-.586,1.948-.859,2.822-.849,2.726-1.554,4.686-1.554,4.686l7.256,59.825s5.285,1.817,1.388,5.142C284.028,212.246,289.922,216.993,281.865,219.229Z" transform="translate(-164.463 -55.95)" fill="#a7e446"/>
        <path id="Trazado_161789" data-name="Trazado 161789" d="M239.3,67.254h14.358c-3.2,0-5.965,2.713-7.173,6.6a15.275,15.275,0,0,0,0,8.943c1.208,3.887,3.97,6.6,7.173,6.6H239.3c-4.34,0-7.855-4.949-7.855-11.07S234.96,67.254,239.3,67.254Z" transform="translate(-101.239 -58.896)" fill="#101019"/>
        <path id="Trazado_161790" data-name="Trazado 161790" d="M245.714,95.671H230.208c.359-2.247.19-4.973-.586-6.277l.071-.036V72.524c2.416-1.206,2.726-3.861-.071-4.637l.071-.252V65.1h28.466V70.17l-.024.06a5.69,5.69,0,0,0-2.4-.526H241.374c-4.34,0-7.855,4.949-7.855,11.07s3.515,11.07,7.855,11.07h14.358a5.9,5.9,0,0,0,2.905-.776v1.3c-.239.169-.479.348-.706.528a5.7,5.7,0,0,0-2.1,2.8l-.1-.024Z" transform="translate(-103.314 -61.346)" fill="#30303d"/>
        <path id="Trazado_161791" data-name="Trazado 161791" d="M253.684,80.68c-.549,3.622-2.367,6.587-4.77,7.938a5.9,5.9,0,0,1-2.905.776c-3.2,0-5.965-2.713-7.173-6.6a15.275,15.275,0,0,1,0-8.943c1.208-3.885,3.97-6.6,7.173-6.6a5.69,5.69,0,0,1,2.4.526,6.986,6.986,0,0,1,2.14,1.518,12.81,12.81,0,0,1,3.312,9.026A15.065,15.065,0,0,1,253.684,80.68Zm-3.059-2.356c0-4.363-2.07-7.9-4.616-7.9s-4.6,3.54-4.6,7.9,2.057,7.915,4.6,7.915S250.625,82.688,250.625,78.324Z" transform="translate(-93.59 -58.896)" fill="#c5c5d6"/>
        <rect id="Rect치ngulo_40791" data-name="Rect치ngulo 40791" width="5.99" height="2.678" transform="translate(147.816 1.076)" fill="#e71e62"/>
        <rect id="Rect치ngulo_40792" data-name="Rect치ngulo 40792" width="8.225" height="3.754" transform="translate(127.635)" fill="#e71e62"/>
        <path id="Trazado_161792" data-name="Trazado 161792" d="M275.015,77.42a3.054,3.054,0,0,1,1.255,2.249c.5,4.135-4.819,12.242-4.819,12.242-1.828,29.674-18.279,60.58-27.091,61.655s-21.208-18.8-21.208-18.8c.274-.874.573-1.83.859-2.822,5.2-4.483,11.5-7.628,16.763-12.075l3.252,4.124,13.58-30.3a32.814,32.814,0,0,1-4.53-11.25h10.018l.1.024a5.7,5.7,0,0,1,2.1-2.8c.227-.18.466-.359.706-.528C269.361,76.764,273.1,76.045,275.015,77.42Z" transform="translate(-110.676 -48.117)" fill="#ffaec3"/>
        <path id="Trazado_161793" data-name="Trazado 161793" d="M252.423,76.989a8.219,8.219,0,0,1-.214,4.064c-1.913-1.375-5.655-.656-9.016,1.721v-1.3c2.4-1.351,4.22-4.316,4.77-7.938a11.263,11.263,0,0,1,2.022.154,4.074,4.074,0,0,1,1.242.958A5.393,5.393,0,0,1,252.423,76.989Z" transform="translate(-87.87 -51.75)" fill="#ffaec3"/>
        <path id="Trazado_161794" data-name="Trazado 161794" d="M248.7,69.576a3.115,3.115,0,0,1,.286.25,9.1,9.1,0,0,1,1.877,3.431,9.329,9.329,0,0,1-.323,7.305l-.18.18a4.074,4.074,0,0,0-1.242-.958,11.263,11.263,0,0,0-2.022-.154,15.063,15.063,0,0,0,.18-2.356,12.81,12.81,0,0,0-3.312-9.026l.073-.073A10.04,10.04,0,0,1,248.7,69.576Z" transform="translate(-86.998 -57.847)" fill="#ffaec3"/>
        <path id="Trazado_161795" data-name="Trazado 161795" d="M242.983,65.712c0-.036.085-.107.145-.107a7.179,7.179,0,0,1,4.041,1.075,5.743,5.743,0,0,1,2.463,3.324,9.781,9.781,0,0,1,.2,2.5,10.039,10.039,0,0,0-4.663-1.4l-.073.073a6.986,6.986,0,0,0-2.14-1.518l.024-.06Z" transform="translate(-88.137 -60.775)" fill="#ffaec3"/>
        <path id="Trazado_161796" data-name="Trazado 161796" d="M244.285,68.735c2.546,0,4.616,3.54,4.616,7.9s-2.07,7.915-4.616,7.915-4.6-3.551-4.6-7.915S241.739,68.735,244.285,68.735Z" transform="translate(-91.866 -57.211)" fill="#12263f"/>
        <path id="Trazado_161797" data-name="Trazado 161797" d="M232.5,90.863a9.429,9.429,0,0,1,2.4-1.1,1.91,1.91,0,0,1,1.315-.036c.825.37.872,1.505.753,2.39a26.276,26.276,0,0,1-2.093,7.222,6.521,6.521,0,0,1,5.368-.06,3.388,3.388,0,0,1,2.117,2.32c.216,1.422-.932,2.666-2.031,3.587-5.261,4.447-11.562,7.592-16.763,12.075,1.148-3.947,2.273-8.537,2.236-11.275a11.321,11.321,0,0,0-2.26-6.444q2.331-2.6,4.759-5.092A22.564,22.564,0,0,1,232.5,90.863Z" transform="translate(-110.231 -33.44)" fill="#5aa537"/>
        <path id="Trazado_161798" data-name="Trazado 161798" d="M234.02,68.573V85.407l-.071.036a.043.043,0,0,0-.013-.036,2.552,2.552,0,0,0-2-1.015v-.036a11.648,11.648,0,0,0,.658-6.264c-.658-3.192-6.779-4.819-6.779-4.819a19.189,19.189,0,0,1,7.2-4.316A4.589,4.589,0,0,0,234.02,68.573Z" transform="translate(-107.641 -57.395)" fill="#181723"/>
        <path id="Trazado_161799" data-name="Trazado 161799" d="M233.485,65.1v2.533l-.071.252a6.928,6.928,0,0,0-2.01-.216,21.993,21.993,0,0,0-5.116.669V65.1Z" transform="translate(-107.106 -61.346)" fill="#181723"/>
        <path id="Trazado_161800" data-name="Trazado 161800" d="M211.491,113.888l-5.978,6.4-3.049-6.707L198.149,85.1Z" transform="translate(-139.127 -38.591)" fill="#181723"/>
        <path id="Trazado_161801" data-name="Trazado 161801" d="M181.576,103.92c9.11-2.692,42.358-5.5,42.358-5.5l3.049,6.707-2.94,3.158s-15.292,4.257-27.8,6.766c-8.537,1.71-15.782,2.606-15.962.765a7.03,7.03,0,0,1,3.538-6.647s-4.59-1-4.543-3.994C179.293,104.769,180.129,104.337,181.576,103.92Z" transform="translate(-160.598 -23.433)" fill="#5aa537"/>
        <path id="Trazado_161802" data-name="Trazado 161802" d="M187.593,77.467a1.818,1.818,0,0,0-2.454.644l-3.91,8.015a1.793,1.793,0,1,0,3.1,1.811l3.912-8.015A1.832,1.832,0,0,0,187.593,77.467Z" transform="translate(-158.626 -47.527)" fill="#5aa537"/>
        <path id="Trazado_161803" data-name="Trazado 161803" d="M197.733,80.364q-3.653-1.838-7.305-3.671a1.794,1.794,0,1,0-1.811,3.1l7.305,3.669a1.793,1.793,0,1,0,1.811-3.1Z" transform="translate(-150.959 -48.404)" fill="#5aa537"/>
        <path id="Trazado_161804" data-name="Trazado 161804" d="M189.284,82.712a1.833,1.833,0,0,0-1.794,1.794q-.131,3.325-.261,6.649a1.807,1.807,0,0,0,1.794,1.794,1.832,1.832,0,0,0,1.794-1.794q.128-3.325.261-6.649A1.807,1.807,0,0,0,189.284,82.712Z" transform="translate(-151.553 -41.308)" fill="#5aa537"/>
        <path id="Trazado_161805" data-name="Trazado 161805" d="M187.154,100.213,185.3,90.879a1.8,1.8,0,0,0-2.206-1.253,1.839,1.839,0,0,0-1.253,2.206l1.851,9.334a1.807,1.807,0,0,0,2.206,1.253A1.838,1.838,0,0,0,187.154,100.213Z" transform="translate(-157.731 -33.518)" fill="#5aa537"/>
        <path id="Trazado_161806" data-name="Trazado 161806" d="M200.58,93.1a1.829,1.829,0,0,0-2.454-.644q-3.672,2.136-7.342,4.274a1.793,1.793,0,0,0,1.811,3.1l7.341-4.272A1.816,1.816,0,0,0,200.58,93.1Z" transform="translate(-148.519 -30.495)" fill="#5aa537"/>
        <path id="Trazado_161807" data-name="Trazado 161807" d="M197.552,80.27a1.82,1.82,0,0,0-2.206,1.253l-1.757,8.289a1.794,1.794,0,1,0,3.459.954l1.757-8.289A1.828,1.828,0,0,0,197.552,80.27Z" transform="translate(-144.366 -44.139)" fill="#5aa537"/>
        <path id="Trazado_161808" data-name="Trazado 161808" d="M213.771,86.1l-9.642-1.3a1.984,1.984,0,0,0-1.381.18,1.837,1.837,0,0,0-.825,1.073,1.813,1.813,0,0,0,1.253,2.206l9.642,1.3a1.985,1.985,0,0,0,1.381-.182,1.833,1.833,0,0,0,.825-1.071A1.812,1.812,0,0,0,213.771,86.1Z" transform="translate(-134.882 -38.983)" fill="#5aa537"/>
        <path id="Trazado_161809" data-name="Trazado 161809" d="M209.926,90.594a1.793,1.793,0,0,0-3.277.428q-1.209,3.14-2.416,6.281a1.8,1.8,0,0,0,.182,1.381,1.825,1.825,0,0,0,1.071.825,1.844,1.844,0,0,0,2.206-1.253q1.206-3.14,2.414-6.281A1.805,1.805,0,0,0,209.926,90.594Z" transform="translate(-132.284 -33.338)" fill="#5aa537"/>
        <path id="Trazado_161810" data-name="Trazado 161810" d="M219.567,84.543a1.815,1.815,0,0,0-2.454-.643l-5.648,3.987a1.934,1.934,0,0,0-.825,1.073,1.834,1.834,0,0,0,.182,1.381,1.815,1.815,0,0,0,2.452.644L218.923,87a1.929,1.929,0,0,0,.825-1.071A1.832,1.832,0,0,0,219.567,84.543Z" transform="translate(-124.983 -40.251)" fill="#5aa537"/>
        <path id="Trazado_161811" data-name="Trazado 161811" d="M217.076,77.048a1.935,1.935,0,0,0-.526-1.268,1.794,1.794,0,0,0-3.061,1.268l.665,6.98a1.915,1.915,0,0,0,.526,1.268,1.793,1.793,0,0,0,3.061-1.268Z" transform="translate(-121.679 -49.791)" fill="#5aa537"/>
        <path id="Trazado_161812" data-name="Trazado 161812" d="M226.463,101.846,222.469,96.2a1.933,1.933,0,0,0-1.071-.823,1.793,1.793,0,0,0-2.027,2.634l3.994,5.646a1.936,1.936,0,0,0,1.071.825,1.838,1.838,0,0,0,1.383-.182A1.813,1.813,0,0,0,226.463,101.846Z" transform="translate(-115.274 -26.967)" fill="#5aa537"/>
        <path id="Trazado_161813" data-name="Trazado 161813" d="M220.9,100.959a1.827,1.827,0,0,0-2.206,1.253l-1.995,6.98a1.794,1.794,0,1,0,3.459.954l1.995-6.98A1.816,1.816,0,0,0,220.9,100.959Z" transform="translate(-118.084 -20.601)" fill="#5aa537"/>
        <path id="Trazado_161814" data-name="Trazado 161814" d="M217.972,114.5q-.744-3.64-1.49-7.28a1.807,1.807,0,0,0-2.206-1.253,1.837,1.837,0,0,0-1.251,2.206l1.488,7.28a1.8,1.8,0,0,0,2.206,1.253A1.84,1.84,0,0,0,217.972,114.5Z" transform="translate(-122.252 -14.928)" fill="#5aa537"/>
        <path id="Trazado_161815" data-name="Trazado 161815" d="M227,111.26a1.83,1.83,0,0,0-2.454-.644q-3.819,2.165-7.641,4.327a1.794,1.794,0,1,0,1.811,3.1q3.819-2.165,7.641-4.327A1.814,1.814,0,0,0,227,111.26Z" transform="translate(-118.798 -9.822)" fill="#5aa537"/>
        <path id="Trazado_161816" data-name="Trazado 161816" d="M214.1,114.27a1.823,1.823,0,0,0-1.792,1.792l-.115,6.651a1.81,1.81,0,0,0,1.794,1.794,1.829,1.829,0,0,0,1.794-1.794l.113-6.651A1.807,1.807,0,0,0,214.1,114.27Z" transform="translate(-123.142 -5.399)" fill="#5aa537"/>
        <path id="Trazado_161817" data-name="Trazado 161817" d="M212.243,125.99q-1-4.486-2-8.973a1.807,1.807,0,0,0-2.206-1.253,1.836,1.836,0,0,0-1.253,2.206q1,4.486,2,8.973a1.807,1.807,0,0,0,2.206,1.253A1.836,1.836,0,0,0,212.243,125.99Z" transform="translate(-129.357 -3.776)" fill="#5aa537"/>
        <path id="Trazado_161818" data-name="Trazado 161818" d="M225.9,117.415l-7.312.316a1.794,1.794,0,1,0,0,3.587L225.9,121a1.794,1.794,0,1,0,0-3.587Z" transform="translate(-117.908 -1.82)" fill="#5aa537"/>
        <path id="Trazado_161819" data-name="Trazado 161819" d="M219.98,130.056q-1-3.656-1.993-7.312a1.794,1.794,0,0,0-3.459.953l1.995,7.312a1.793,1.793,0,1,0,3.457-.953Z" transform="translate(-120.562 2.738)" fill="#5aa537"/>
        <path id="Trazado_161820" data-name="Trazado 161820" d="M226.944,129.487l-4.586-5.375a1.809,1.809,0,0,0-1.27-.524,1.83,1.83,0,0,0-1.268.524,1.811,1.811,0,0,0-.524,1.268,2,2,0,0,0,.524,1.27l4.586,5.375a1.795,1.795,0,0,0,3.064-1.27A2.013,2.013,0,0,0,226.944,129.487Z" transform="translate(-115.064 5.208)" fill="#5aa537"/>
        <path id="Trazado_161821" data-name="Trazado 161821" d="M216.9,128.3a1.825,1.825,0,0,0-2.206,1.253l-1.648,5.986a1.794,1.794,0,0,0,3.459.954l1.646-5.986A1.815,1.815,0,0,0,216.9,128.3Z" transform="translate(-122.243 10.507)" fill="#5aa537"/>
        <path id="Trazado_161822" data-name="Trazado 161822" d="M212.7,125.234a1.822,1.822,0,0,0-2.454.644q-2.235,4.281-4.473,8.562a1.794,1.794,0,0,0,3.1,1.811q2.235-4.281,4.472-8.562A1.827,1.827,0,0,0,212.7,125.234Z" transform="translate(-130.71 6.825)" fill="#5aa537"/>
        <path id="Trazado_161823" data-name="Trazado 161823" d="M210.97,123.323a2.072,2.072,0,0,0-1.268-.526l-6.965-.791a1.793,1.793,0,0,0-1.268.524,1.837,1.837,0,0,0-.526,1.27,1.811,1.811,0,0,0,.526,1.268,2.063,2.063,0,0,0,1.268.524l6.965.793a1.791,1.791,0,0,0,1.268-.526,1.791,1.791,0,0,0,0-2.536Z" transform="translate(-135.948 3.4)" fill="#5aa537"/>
        <path id="Trazado_161824" data-name="Trazado 161824" d="M199.872,121.479a1.821,1.821,0,0,0-2.452.644l-2.664,4.986a1.794,1.794,0,0,0,3.1,1.809l2.662-4.983A1.824,1.824,0,0,0,199.872,121.479Z" transform="translate(-143.242 2.552)" fill="#5aa537"/>
        <path id="Trazado_161825" data-name="Trazado 161825" d="M196.429,134.61l-2.991-7.977a1.836,1.836,0,0,0-2.206-1.253,1.814,1.814,0,0,0-1.253,2.206l2.991,7.976a1.834,1.834,0,0,0,2.206,1.253A1.813,1.813,0,0,0,196.429,134.61Z" transform="translate(-148.526 7.158)" fill="#5aa537"/>
        <path id="Trazado_161826" data-name="Trazado 161826" d="M206.271,128.079a1.824,1.824,0,0,0-2.454-.641q-3.316,2-6.636,4a1.794,1.794,0,0,0,1.811,3.1l6.636-4.006A1.817,1.817,0,0,0,206.271,128.079Z" transform="translate(-141.243 9.31)" fill="#5aa537"/>
        <path id="Trazado_161827" data-name="Trazado 161827" d="M205.242,138.651q-1.164-2.825-2.326-5.65a1.972,1.972,0,0,0-.825-1.071,1.835,1.835,0,0,0-1.381-.182,1.814,1.814,0,0,0-1.071.825,1.728,1.728,0,0,0-.182,1.381q1.164,2.825,2.326,5.65a1.973,1.973,0,0,0,.825,1.071,1.789,1.789,0,0,0,2.452-.644A1.728,1.728,0,0,0,205.242,138.651Z" transform="translate(-137.73 14.418)" fill="#5aa537"/>
        <path id="Trazado_161828" data-name="Trazado 161828" d="M196.93,133.783a1.82,1.82,0,0,0-2.206,1.253l-1.764,7.619a1.794,1.794,0,0,0,3.459.953q.882-3.81,1.762-7.619A1.822,1.822,0,0,0,196.93,133.783Z" transform="translate(-145.085 16.752)" fill="#5aa537"/>
        <path id="Trazado_161829" data-name="Trazado 161829" d="M194.214,142.7l-3.69-7.459a1.805,1.805,0,0,0-2.454-.644,1.837,1.837,0,0,0-.643,2.454l3.69,7.459a1.807,1.807,0,0,0,2.454.644A1.837,1.837,0,0,0,194.214,142.7Z" transform="translate(-151.583 17.463)" fill="#5aa537"/>
        <path id="Trazado_161830" data-name="Trazado 161830" d="M210.968,138.014l-9.321.8a1.793,1.793,0,1,0,0,3.585l9.321-.8a1.794,1.794,0,1,0,0-3.587Z" transform="translate(-137.19 21.616)" fill="#5aa537"/>
        <path id="Trazado_161831" data-name="Trazado 161831" d="M214.6,141.845q-1.328-3.489-2.66-6.978a1.93,1.93,0,0,0-.823-1.073,1.834,1.834,0,0,0-1.381-.18,1.812,1.812,0,0,0-1.253,2.206q1.328,3.489,2.657,6.978a1.943,1.943,0,0,0,.825,1.073,1.834,1.834,0,0,0,1.381.18A1.814,1.814,0,0,0,214.6,141.845Z" transform="translate(-127.475 16.541)" fill="#5aa537"/>
        <path id="Trazado_161832" data-name="Trazado 161832" d="M224.315,136.026a1.827,1.827,0,0,0-2.454-.644l-6.636,4.006a1.793,1.793,0,1,0,1.811,3.1q3.316-2,6.636-4A1.819,1.819,0,0,0,224.315,136.026Z" transform="translate(-120.711 18.351)" fill="#5aa537"/>
        <path id="Trazado_161833" data-name="Trazado 161833" d="M229.675,139.8l-5.6-6.687a1.8,1.8,0,0,0-2.536,0,1.839,1.839,0,0,0,0,2.536l5.6,6.689a1.8,1.8,0,0,0,2.536,0A1.842,1.842,0,0,0,229.675,139.8Z" transform="translate(-113.09 15.453)" fill="#5aa537"/>
        <path id="Trazado_161834" data-name="Trazado 161834" d="M251.195,76.736a14.242,14.242,0,0,0-8.021,2.516c-.629.436-.032,1.473.6,1.033a13.1,13.1,0,0,1,7.418-2.352A.6.6,0,0,0,251.195,76.736Z" transform="translate(-88.198 -48.106)" fill="#181723"/>
        <path id="Trazado_161835" data-name="Trazado 161835" d="M249.68,80.873l-3.207,2.649c-.881.727-1.849,1.785-3.006,2.042a1.581,1.581,0,0,1-1.242-.216,1.363,1.363,0,0,1-.334-1.362,11.61,11.61,0,0,1,1.131-3.624c.34-.688-.691-1.293-1.033-.6a12.057,12.057,0,0,0-1.323,4.507,2.3,2.3,0,0,0,2.251,2.525c1.426.1,2.572-.915,3.6-1.762l4.011-3.309C251.121,81.228,250.27,80.388,249.68,80.873Z" transform="translate(-90.752 -45.013)" fill="#181723"/>
        <path id="Trazado_161836" data-name="Trazado 161836" d="M248.259,74.163a.679.679,0,0,0-.421-.175l-1.744-.169a.593.593,0,0,0-.423.175.6.6,0,0,0,0,.844.673.673,0,0,0,.423.175l1.744.169a.592.592,0,0,0,.421-.175.6.6,0,0,0,0-.844Z" transform="translate(-85.253 -51.428)" fill="#181723"/>
        <path id="Trazado_161837" data-name="Trazado 161837" d="M247.372,68.8a2.489,2.489,0,0,0-2.324.5.6.6,0,0,0-.175.421.612.612,0,0,0,.175.423.6.6,0,0,0,.423.175.676.676,0,0,0,.413-.169l-.068.053a2,2,0,0,1,.353-.205,2.09,2.09,0,0,1,.321-.086,1.805,1.805,0,0,1,.372,0c.064.013.13.024.195.043a.6.6,0,1,0,.316-1.152Z" transform="translate(-85.959 -57.254)" fill="#181723"/>
        <path id="Trazado_161838" data-name="Trazado 161838" d="M184.493,77a16.715,16.715,0,0,1,14.85-7.923s25.17,19.709,31.925,58.51l-8.428,9.016S209.973,96.979,184.493,77Z" transform="translate(-154.666 -56.824)" fill="#dff7f9"/>
        <path id="Trazado_161839" data-name="Trazado 161839" d="M204.913,117.151s-9.721,15.106-17.886,17.306l-1.144,6.052A46.388,46.388,0,0,0,213.245,122.4S209.905,122.34,204.913,117.151Z" transform="translate(-153.083 -2.118)" fill="#181723"/>
        <path id="Trazado_161840" data-name="Trazado 161840" d="M209.065,74.012s6.692-5.1,16.907-2.621c0,0,18.339,29.811,16.436,69.146l-5.911,1.345S229.552,99.085,209.065,74.012Z" transform="translate(-126.705 -54.96)" fill="#dff7f9"/>
        <path id="Trazado_161841" data-name="Trazado 161841" d="M217.953,141.671l5.98-6.394,26.337-28.18s1.817-7.557,4.15-15.543a117.042,117.042,0,0,1,5.08-14.694c2.845-6.17,7.115-8.823,11.252-9.888a21.993,21.993,0,0,1,5.116-.669,6.927,6.927,0,0,1,2.01.216c2.8.776,2.486,3.431.071,4.637a4.59,4.59,0,0,1-1,.383,19.189,19.189,0,0,0-7.2,4.316s6.121,1.627,6.779,4.819a11.648,11.648,0,0,1-.658,6.264v.036a2.552,2.552,0,0,1,2,1.015.043.043,0,0,1,.013.036c.776,1.3.945,4.03.586,6.277-.3,1.9-.958,3.468-1.937,3.575a3.842,3.842,0,0,1,.419,1.83c-.036,3.908-5.894,5.486-5.894,5.486A13.42,13.42,0,0,1,269.673,110c-3.2,6.444-10.675,9.779-10.675,9.779s-34.35,57.172-44.883,60.27c-8.128,2.4-19.75-15.878-24.616-24.331-1.434-2.486-2.283-4.124-2.283-4.124,12.5-2.51,27.8-6.766,27.8-6.766Z" transform="translate(-151.567 -59.979)" fill="#ffaec3"/>
        <path id="Trazado_161842" data-name="Trazado 161842" d="M227.605,82.5a.6.6,0,0,0-.733-.417.613.613,0,0,0-.419.735,9.023,9.023,0,0,1-.391,4.348.6.6,0,0,0,.417.735.61.61,0,0,0,.735-.417A10.3,10.3,0,0,0,227.605,82.5Z" transform="translate(-107.394 -42.039)" fill="#181723"/>
        <path id="Trazado_161843" data-name="Trazado 161843" d="M230.781,80.735l-3.074.011a.6.6,0,0,0,0,1.2l3.074-.011a.6.6,0,0,0,.6-.6A.609.609,0,0,0,230.781,80.735Z" transform="translate(-106.172 -43.556)" fill="#181723"/>
        <path id="Trazado_161844" data-name="Trazado 161844" d="M230.828,75.624a6.654,6.654,0,0,0-3.81,1.672.6.6,0,0,0,0,.847.616.616,0,0,0,.847,0c.056-.051.111-.1.169-.15l.115-.094c.115-.086.231-.167.351-.246a7.055,7.055,0,0,1,.791-.428l.041-.017.075-.03c.071-.028.141-.053.212-.079.141-.049.284-.094.43-.133s.291-.071.438-.1c.062-.011.122-.021.184-.03.013,0,.141-.017.158-.019a.6.6,0,1,0,0-1.2Z" transform="translate(-106.474 -49.374)" fill="#181723"/>
        <path id="Trazado_161845" data-name="Trazado 161845" d="M224.846,126.665s3.887-7.153,2.653-23.292l-3.115.71-2.217.5Z" transform="translate(-111.797 -17.796)" fill="#181723"/>
        <path id="Trazado_161846" data-name="Trazado 161846" d="M182.955,108.191l-1.516,40.374-.43,11.414c-.032.879,1.332.877,1.366,0l1.516-40.374q.212-5.708.428-11.414C184.351,107.313,182.987,107.315,182.955,108.191Z" transform="translate(-158.631 -13.062)" fill="#673bb7"/>
        <path id="Trazado_161847" data-name="Trazado 161847" d="M189.892,111.79a.651.651,0,0,0-.165-.406.6.6,0,0,0-.569-.336l-16.5.235a.659.659,0,0,0-.643.793l0,.024a57.594,57.594,0,0,0,1.227,12.759,50.528,50.528,0,0,0,1.721,6.281A14.022,14.022,0,0,0,177.623,136c2.183,2.414,6.08,3.562,8.733,1.174a8.231,8.231,0,0,0,2.185-4.265,49.579,49.579,0,0,0,1.011-6.082A98.041,98.041,0,0,0,189.892,111.79Zm-1.415,11.78c-.128,1.95-.331,3.893-.643,5.821a20.919,20.919,0,0,1-1.2,5.007,4.144,4.144,0,0,1-3.542,2.726,5.583,5.583,0,0,1-4.325-1.9,12.511,12.511,0,0,1-2.591-4.733,51.74,51.74,0,0,1-1.484-5.364,55.74,55.74,0,0,1-1.311-12.487l15.168-.214A108.907,108.907,0,0,1,188.477,123.57Z" transform="translate(-168.88 -9.063)" fill="#673bb7"/>
      </g>
      <g id="Grupo_116835" data-name="Grupo 116835" transform="translate(159.333 265.523)">
        <path id="Trazado_161848" data-name="Trazado 161848" d="M255.967,254.7c27.833.083,23.923,19.617,23.923,19.617H205.944v-23.6H245Z" transform="translate(-106.294 -13.411)" fill="#181723"/>
        <path id="Trazado_161849" data-name="Trazado 161849" d="M297.831,139.718s-.049,1.458-.145,4.16l-20.133,4.483-29.745,85.926L203.1,363.4s6.48,8.31,0,8.979c0,0,2.523,6.587-2.223,6.241a8.465,8.465,0,0,1-1.435-.263l-36.883-9.635s-3-5.978,3.324-5.321c0,0-5.154-7.149,2.317-7.639l45.732-214.4c8.081,3.335,30.929,2.356,39.979,2.356C265.681,143.712,289.771,141.965,297.831,139.718Z" transform="translate(-156.466 -139.718)" fill="#12263f"/>
        <path id="Trazado_161850" data-name="Trazado 161850" d="M231.8,146.147l20.133-4.483c-.872,23.673-5.343,143.158-9.826,219.518,6.48.419,3.406,7.066,3.406,7.066,5.811.872,3.91,6.563,3.91,6.563H210.366c-4.483-3.322,0-7.974,0-7.974-3.814-2.666,0-5.655,0-5.655l-8.308-129.108Z" transform="translate(-110.716 -137.504)" fill="#12263f"/>
        <path id="Trazado_161851" data-name="Trazado 161851" d="M211.184,270.982c23.59-.443,21.52,18.95,21.52,18.95H198.989l-39.656-21.281,6.1-21.819,36.883,9.635a8.458,8.458,0,0,0,1.435.263Z" transform="translate(-159.333 -17.833)" fill="#181723"/>
        <path id="Trazado_161852" data-name="Trazado 161852" d="M219.345,143.536l-21.024,85.3q-10.515,42.648-21.026,85.3l-11.872,48.16c-.554,2.24,2.905,3.2,3.457.953q10.515-42.648,21.026-85.3t21.026-85.3L222.8,144.49C223.358,142.249,219.9,141.294,219.345,143.536Z" transform="translate(-152.471 -136.828)" fill="#dff7f9"/>
      </g>
      <g id="Grupo_116836" data-name="Grupo 116836" transform="translate(174.931 29.159)">
        <path id="Trazado_161853" data-name="Trazado 161853" d="M235.62,44.546a38.252,38.252,0,0,0-9.016,2.439,125.092,125.092,0,0,0-13.64,6.826c-1.783.968-3.694,1.937-5.715,1.807a10.161,10.161,0,0,1-4.6-1.854c-.145-.083-.3-.18-.443-.276a11.035,11.035,0,0,1-3.91-3.5c.263-.2.526-.406.778-.6,6.467-4.363,13.137-8.547,20.612-10.653a43.139,43.139,0,0,1,13.986-1.494,47.485,47.485,0,0,1,9.148,1.351c1.864.455,3.885,1.161,4.84,2.822a5.1,5.1,0,0,1,.143,4.3,13.3,13.3,0,0,1-2.4,3.707,27.644,27.644,0,0,1-6.993,6.313c-.073-.515-.156-1-.239-1.471,2.452-1.687,4.939-3.528,6.277-6.181a2.954,2.954,0,0,0,.4-1.64c-.192-1.4-1.913-1.96-3.324-2.08A26.371,26.371,0,0,0,235.62,44.546Z" transform="translate(-130.598 -20.037)" fill="#a7e446"/>
        <path id="Trazado_161854" data-name="Trazado 161854" d="M224.972,42.666a2.954,2.954,0,0,1-.4,1.64c-1.338,2.653-3.825,4.494-6.277,6.181a50.455,50.455,0,0,0-2.546-9.721,26.37,26.37,0,0,1,5.894-.18C223.058,40.706,224.779,41.268,224.972,42.666Z" transform="translate(-110.731 -16.257)" fill="#181723"/>
        <path id="Trazado_161855" data-name="Trazado 161855" d="M249.032,67.511a105.848,105.848,0,0,1-1.661,15.795c-2.057,11.536-9.253,13.928-16.834,12.9-10.185-1.4-21.054-9.016-21.054-9.016s6.206,13.856,19.776,20.062l-.718,6.193s16.058,15.171,2.429,18.172-37.219-24.605-37.219-24.605l1-3.921,5.236-20.372,1.8-7.006-.214-.06c-.167.31-6.326-2.583-8.466-4.652a10.061,10.061,0,0,1-3.335-7.938,6.769,6.769,0,0,1,.2-1.075,7.433,7.433,0,0,1,5.595-5.488,8.278,8.278,0,0,1,3.754-.073,9.463,9.463,0,0,1,5.8,4.053l.143-.1a23.683,23.683,0,0,0,7.1-10.544,10.161,10.161,0,0,0,4.6,1.854c2.02.13,3.932-.838,5.715-1.807a125.092,125.092,0,0,1,13.64-6.826,38.251,38.251,0,0,1,9.016-2.439,50.452,50.452,0,0,1,2.546,9.721c.083.466.167.956.239,1.471A85.692,85.692,0,0,1,249.032,67.511Z" transform="translate(-140.329 -16.114)" fill="#ffaec3"/>
        <path id="Trazado_161856" data-name="Trazado 161856" d="M221.356,58.48a2.75,2.75,0,0,1-1.614,2.94,6.025,6.025,0,0,1-6.73-1.088,9.343,9.343,0,0,1-2.739-6.527,12.835,12.835,0,0,1,1.135-5.822,10.63,10.63,0,0,0,3.085,4.973,29.871,29.871,0,0,0,5.045,3.681A3.688,3.688,0,0,1,221.356,58.48Z" transform="translate(-116.979 -7.739)" fill="#ef89a9"/>
        <path id="Trazado_161857" data-name="Trazado 161857" d="M200.624,58.51c-.372.252-.755.5-1.125.753-1.866-2.677-2.463-6.048-2.559-9.326a25,25,0,0,1,2.63-12.458,16.187,16.187,0,0,1,8.453-7.615c.49-.107.981-.19,1.484-.276,3.466-.549,7.136-.776,10.365.588,2.749,1.172,4.9,3.382,6.91,5.606,2.965,3.288,5.8,6.709,8.453,10.258l-.013.323a43.139,43.139,0,0,0-13.986,1.494C213.762,49.963,207.091,54.147,200.624,58.51Z" transform="translate(-132.15 -29.159)" fill="#8bc24a"/>
        <path id="Trazado_161858" data-name="Trazado 161858" d="M205.719,56.494l16.068,2.559s0,7.615-9.086,6.754C204.152,64.994,205.719,56.494,205.719,56.494Z" transform="translate(-122.277 1.946)" fill="#fff"/>
        <path id="Trazado_161859" data-name="Trazado 161859" d="M220.03,71.421l-1.278,11.047C205.182,76.261,198.976,62.4,198.976,62.4S209.845,70.02,220.03,71.421Z" transform="translate(-129.821 8.672)" fill="#181723"/>
        <circle id="Elipse_5524" data-name="Elipse 5524" cx="5.775" cy="5.775" r="5.775" transform="translate(68.545 46.341)" fill="#ef89a9"/>
        <path id="Trazado_161860" data-name="Trazado 161860" d="M212.618,58.887a.345.345,0,0,0,.06.086c-3.97,3.109-8.693,7.04-12.171,10.125l.011.073a7.433,7.433,0,0,0-5.595,5.488l-.07-.013c-1.614,1.315-3.168,2.689-4.686,4.113-.252.227-.5.466-.755.705-2.57-8.227-5.08-16.834-3.538-25.287a17.918,17.918,0,0,1,1.984-5.727,21.806,21.806,0,0,1,4.9-5.462,61.087,61.087,0,0,1,28.383-13.5,16.187,16.187,0,0,0-8.453,7.615,25,25,0,0,0-2.63,12.458C210.156,52.839,210.752,56.211,212.618,58.887Z" transform="translate(-145.268 -28.783)" fill="#a7e446"/>
        <path id="Trazado_161861" data-name="Trazado 161861" d="M204.638,43.407c.1-.086.19-.156.286-.239a11.035,11.035,0,0,0,3.91,3.5c.143.1.3.192.443.276a23.683,23.683,0,0,1-7.1,10.544l-.143.1a9.463,9.463,0,0,0-5.8-4.053,8.278,8.278,0,0,0-3.754.073l-.011-.073C195.945,50.448,200.668,46.516,204.638,43.407Z" transform="translate(-137.228 -13.218)" fill="#181723"/>
        <path id="Trazado_161862" data-name="Trazado 161862" d="M196.776,67.838a29.311,29.311,0,0,1-9.146-13.114c1.518-1.424,3.072-2.8,4.686-4.113l.07.013a6.771,6.771,0,0,0-.2,1.075,10.061,10.061,0,0,0,3.335,7.938c2.14,2.069,4.393,2.94,7.072,4.218a12.12,12.12,0,0,0,1.394.434l.214.06-1.8,7.006-.443-.109A28.014,28.014,0,0,1,196.776,67.838Z" transform="translate(-142.732 -4.748)" fill="#181723"/>
        <path id="Trazado_161863" data-name="Trazado 161863" d="M226.291,62.186l-5.236,20.372s-33.571,15.28-34.576,26.972c-.575,6.73,2.749,19.094,5.678,28.359a17.13,17.13,0,0,1-11.322.979A12.139,12.139,0,0,1,172.515,131c-.789-2.679-.466-5.608-1.422-8.239-1.054-2.869-3.54-5.116-4.257-8.092-.765-3.158.682-6.506,2.822-8.943s4.949-4.2,7.555-6.134,5.142-4.21,6.4-7.2c1.971-4.733.393-10.33,2.187-15.124a13.634,13.634,0,0,1,6.493-7.029,21.674,21.674,0,0,1,9.445-2.26c4.806-.156,10.005.742,14.142-1.7a10.087,10.087,0,0,0,4.8-7.617,28.013,28.013,0,0,0,5.176,3.408Z" transform="translate(-166.629 4.421)" fill="#181723"/>
        <ellipse id="Elipse_5525" data-name="Elipse 5525" cx="3.056" cy="4.206" rx="3.056" ry="4.206" transform="translate(80.033 40.087) rotate(-12.599)" fill="#181723"/>
        <ellipse id="Elipse_5526" data-name="Elipse 5526" cx="3.056" cy="4.206" rx="3.056" ry="4.206" transform="translate(99.186 38.327) rotate(-12.599)" fill="#181723"/>
        <path id="Trazado_161864" data-name="Trazado 161864" d="M221.033,45.09a16.992,16.992,0,0,0-6.69-1.152,1.813,1.813,0,0,0-1.685,1.9,1.832,1.832,0,0,0,1.9,1.683c.423-.013.847,0,1.27.021a14.931,14.931,0,0,1,3.446.7c.06.021.12.043.18.066a1.92,1.92,0,0,0,1.37.086,1.819,1.819,0,0,0,1.028-.906,1.789,1.789,0,0,0,.088-1.368A1.751,1.751,0,0,0,221.033,45.09Z" transform="translate(-114.26 -12.352)" fill="#181723"/>
        <path id="Trazado_161865" data-name="Trazado 161865" d="M209.419,45a13.012,13.012,0,0,0-5.755,2.057,1.794,1.794,0,0,0,2.02,2.965,10.621,10.621,0,0,1,.945-.545,11.161,11.161,0,0,1,2.337-.8c.222-.036.445-.075.667-.1A1.794,1.794,0,0,0,209.419,45Z" transform="translate(-125.378 -11.139)" fill="#181723"/>
        <path id="Trazado_161866" data-name="Trazado 161866" d="M181.284,66.815c-2.474,2.608-2.88,6.29-3.053,9.723-.175,3.51-.246,7.534-2.914,10.179a.6.6,0,0,0,.844.844c2.555-2.531,3.021-6.234,3.2-9.657.186-3.51.188-7.525,2.769-10.245C182.659,67.1,181.817,66.255,181.284,66.815Z" transform="translate(-156.944 13.481)" fill="#fff"/>
        <path id="Trazado_161867" data-name="Trazado 161867" d="M177.6,77.122a.612.612,0,0,0-.847,0q-2.3,1.956-4.607,3.912a.6.6,0,0,0,0,.844.612.612,0,0,0,.847,0l4.607-3.912A.6.6,0,0,0,177.6,77.122Z" transform="translate(-160.548 25.224)" fill="#fff"/>
        <path id="Trazado_161868" data-name="Trazado 161868" d="M179.576,76.779a.612.612,0,0,0-.844,0l-4.086,3.451a.6.6,0,0,0,0,.847.612.612,0,0,0,.844,0l4.086-3.451A.606.606,0,0,0,179.576,76.779Z" transform="translate(-157.705 24.836)" fill="#fff"/>
        <path id="Trazado_161869" data-name="Trazado 161869" d="M177.2,97.828a6.365,6.365,0,0,1-5.452-6.04c-.026-.768-1.223-.772-1.2,0a7.543,7.543,0,0,0,6.328,7.192.619.619,0,0,0,.735-.417A.6.6,0,0,0,177.2,97.828Z" transform="translate(-162.162 41.45)" fill="#fff"/>
        <path id="Trazado_161870" data-name="Trazado 161870" d="M176.172,94.366a3.973,3.973,0,0,1-.586-.145c-.053-.017-.1-.036-.158-.056l-.071-.03c-.075-.034-.152-.068-.224-.107a4.289,4.289,0,0,1-.494-.3l-.079-.056-.068-.056c-.081-.066-.158-.137-.235-.207a5.04,5.04,0,0,1-.393-.434l-.034-.045c-.028-.038-.056-.079-.083-.12-.053-.079-.1-.16-.152-.244s-.094-.169-.137-.257c-.021-.043-.041-.086-.06-.13l-.009-.015-.006-.019a4.84,4.84,0,0,1-.177-.6.6.6,0,0,0-.735-.417.613.613,0,0,0-.419.735,4.855,4.855,0,0,0,3.8,3.656.612.612,0,0,0,.735-.417A.6.6,0,0,0,176.172,94.366Z" transform="translate(-160.478 41.327)" fill="#fff"/>
        <path id="Trazado_161871" data-name="Trazado 161871" d="M200.718,58.288a12.052,12.052,0,0,0-2.193-5.537c-1.052-1.443-2.843-3.517-4.836-3.307a2.673,2.673,0,0,0-2.134,1.757,5.9,5.9,0,0,0,.137,3.739.6.6,0,0,0,1.152-.319,4.582,4.582,0,0,1-.133-3.1,1.433,1.433,0,0,1,2.076-.676A9.188,9.188,0,0,1,198.495,55a10.87,10.87,0,0,1,.9,2.58c.18.836.464,2.076-.162,2.788-.695.791-1.774-.128-2.181-.774a3.026,3.026,0,0,1-.344-2.433.6.6,0,0,0-1.154-.316,4.116,4.116,0,0,0,1.939,4.733,2.146,2.146,0,0,0,2.636-.419A3.549,3.549,0,0,0,200.718,58.288Z" transform="translate(-138.559 -6.093)" fill="#ef89a9"/>
      </g>
    </g>
    <g id="Grupo_116841" data-name="Grupo 116841" transform="translate(348.943 5554.125)">
      <path id="Trazado_161872" data-name="Trazado 161872" d="M700.658-44.007a25.83,25.83,0,0,1,25.8,25.8,25.832,25.832,0,0,1-25.8,25.8,25.829,25.829,0,0,1-25.79-25.8A25.828,25.828,0,0,1,700.658-44.007Z" transform="translate(72.238 11.799)" fill="#feca2e"/>
      <g id="Grupo_116838" data-name="Grupo 116838" transform="translate(718.721 -59.68)">
        <path id="Trazado_161873" data-name="Trazado 161873" d="M724.6-26.7a3.869,3.869,0,0,1,3.136,4.47,3.857,3.857,0,0,1-3.809,3.2,3.22,3.22,0,0,1-.671-.06l-13.325-2.345a3.864,3.864,0,0,1-3.138-4.47,3.872,3.872,0,0,1,4.47-3.138Zm.365,3.986a1.056,1.056,0,0,0-.861-1.227l-13.313-2.345a.868.868,0,0,0-.177-.012,1.063,1.063,0,0,0-1.05.873,1.047,1.047,0,0,0,.861,1.225l13.325,2.347A1.037,1.037,0,0,0,724.966-22.713Z" transform="translate(-622.49 82.701)"/>
        <path id="Trazado_161874" data-name="Trazado 161874" d="M727.374-34.323a3.877,3.877,0,0,1-3.138,4.48L710.911-27.5a3.4,3.4,0,0,1-.671.07,3.869,3.869,0,0,1-3.809-3.2,3.88,3.88,0,0,1,3.125-4.48l13.336-2.359A3.88,3.88,0,0,1,727.374-34.323Zm-3.62,1.709a1.047,1.047,0,0,0,.849-1.215,1.073,1.073,0,0,0-1.038-.885,1,1,0,0,0-.189.025l-13.325,2.358a1.059,1.059,0,0,0-.861,1.227,1.055,1.055,0,0,0,1.227.85Z" transform="translate(-622.764 76.363)"/>
        <path id="Trazado_161875" data-name="Trazado 161875" d="M722.178-15.059A3.872,3.872,0,0,1,723.6-9.778a3.92,3.92,0,0,1-3.36,1.935,3.823,3.823,0,0,1-1.923-.519L706.6-15.131a3.81,3.81,0,0,1-1.806-2.347,3.843,3.843,0,0,1,.379-2.924,3.9,3.9,0,0,1,3.36-1.933,3.8,3.8,0,0,1,1.921.517Zm-1,3.879a1.069,1.069,0,0,0-.389-1.439l-11.734-6.77a.988.988,0,0,0-.519-.14,1.062,1.062,0,0,0-.92.529,1.057,1.057,0,0,0-.105.8,1.053,1.053,0,0,0,.482.636l11.734,6.77A1.1,1.1,0,0,0,721.175-11.18Z" transform="translate(-624.053 87.795)"/>
        <path id="Trazado_161876" data-name="Trazado 161876" d="M722.54-44.609a3.87,3.87,0,0,1-1.4,5.271L709.4-32.569a3.9,3.9,0,0,1-1.933.519,3.883,3.883,0,0,1-3.337-1.933,3.869,3.869,0,0,1,1.414-5.283l11.711-6.757a3.811,3.811,0,0,1,1.933-.531A3.863,3.863,0,0,1,722.54-44.609Zm-2.819,2.843a1.049,1.049,0,0,0,.377-1.439,1.031,1.031,0,0,0-.908-.543,1.038,1.038,0,0,0-.519.142l-11.734,6.78a1.051,1.051,0,0,0-.377,1.439,1.085,1.085,0,0,0,1.427.389Z" transform="translate(-624.84 69.561)"/>
        <path id="Trazado_161877" data-name="Trazado 161877" d="M715.928-4.967a3.865,3.865,0,0,1,.885,2.829A3.8,3.8,0,0,1,715.445.481a3.84,3.84,0,0,1-2.475.908A3.91,3.91,0,0,1,710.009.022l-8.7-10.379a3.884,3.884,0,0,1-.9-2.819,3.9,3.9,0,0,1,1.367-2.629,3.981,3.981,0,0,1,5.448.484Zm-1.911,2.582a1.03,1.03,0,0,0-.247-.778L705.08-13.517a1.115,1.115,0,0,0-.826-.377,1,1,0,0,0-.673.247,1.042,1.042,0,0,0-.365.72,1.078,1.078,0,0,0,.235.766l8.7,10.366a1.073,1.073,0,0,0,.815.377.978.978,0,0,0,.659-.249A1,1,0,0,0,714.018-2.385Z" transform="translate(-627.262 92.066)"/>
        <path id="Trazado_161878" data-name="Trazado 161878" d="M713.831-52.9a3.853,3.853,0,0,1,.482,5.436l-8.691,10.379a3.9,3.9,0,0,1-2.971,1.379,3.9,3.9,0,0,1-2.477-.9,3.9,3.9,0,0,1-1.38-2.642,3.89,3.89,0,0,1,.9-2.819l8.692-10.366A3.982,3.982,0,0,1,713.831-52.9Zm-1.676,3.644a1.064,1.064,0,0,0-.13-1.5,1.034,1.034,0,0,0-.671-.247,1.082,1.082,0,0,0-.826.389l-8.678,10.366a1.01,1.01,0,0,0-.249.766,1.039,1.039,0,0,0,.377.719,1.012,1.012,0,0,0,.673.237,1.028,1.028,0,0,0,.813-.377Z" transform="translate(-628.478 64.136)"/>
        <path id="Trazado_161879" data-name="Trazado 161879" d="M706.588,2.4a3.842,3.842,0,0,1-.13,2.959,3.9,3.9,0,0,1-3.5,2.242,3.874,3.874,0,0,1-3.632-2.549L694.69-7.655A3.876,3.876,0,0,1,697-12.607a3.948,3.948,0,0,1,4.952,2.3Zm-2.677,1.781a1.085,1.085,0,0,0,.035-.815L699.312-9.341a1.07,1.07,0,0,0-.99-.7,1.25,1.25,0,0,0-.365.06,1.07,1.07,0,0,0-.626,1.367L701.966,4.1a1.058,1.058,0,0,0,1.946.084Z" transform="translate(-631.731 94.954)"/>
        <path id="Trazado_161880" data-name="Trazado 161880" d="M700.852-45.526a28.3,28.3,0,0,1,28.267,28.268,28.3,28.3,0,0,1-28.267,28.267,28.3,28.3,0,0,1-28.267-28.267A28.3,28.3,0,0,1,700.852-45.526Zm25.8,28.268a25.83,25.83,0,0,0-25.8-25.8,25.828,25.828,0,0,0-25.79,25.8,25.829,25.829,0,0,0,25.79,25.8A25.832,25.832,0,0,0,726.654-17.258Z" transform="translate(-648.2 70.336)"/>
        <path id="Trazado_161881" data-name="Trazado 161881" d="M702.3-58.12a3.875,3.875,0,0,1,2.3,4.954l-4.624,12.712a3.9,3.9,0,0,1-3.632,2.559,3.939,3.939,0,0,1-1.308-.235,3.863,3.863,0,0,1-2.324-4.954l4.635-12.724A3.942,3.942,0,0,1,702.3-58.12Zm-.342,4a1.04,1.04,0,0,0-.626-1.357.959.959,0,0,0-.366-.07,1.065,1.065,0,0,0-.99.708l-4.622,12.712a1.059,1.059,0,0,0,.626,1.357,1.1,1.1,0,0,0,1.367-.649Z" transform="translate(-633.223 60.69)"/>
        <path id="Trazado_161882" data-name="Trazado 161882" d="M695.3-7.381V6.146a3.868,3.868,0,1,1-7.735,0V-7.381a3.87,3.87,0,0,1,3.867-3.867A3.878,3.878,0,0,1,695.3-7.381ZM692.479,6.146V-7.381a1.054,1.054,0,0,0-1.05-1.06,1.056,1.056,0,0,0-1.06,1.06l.012,13.527a1.049,1.049,0,1,0,2.1,0Z" transform="translate(-636.926 96.142)"/>
        <path id="Trazado_161883" data-name="Trazado 161883" d="M693.191-55.813v13.539a3.87,3.87,0,0,1-3.867,3.867,3.87,3.87,0,0,1-3.869-3.867V-55.813a3.87,3.87,0,0,1,3.869-3.867A3.87,3.87,0,0,1,693.191-55.813Zm-2.819,13.539V-55.813a1.062,1.062,0,0,0-1.048-1.06,1.062,1.062,0,0,0-1.05,1.06v13.539a1.051,1.051,0,0,0,1.05,1.048A1.051,1.051,0,0,0,690.373-42.274Z" transform="translate(-638.511 59.68)"/>
        <path id="Trazado_161884" data-name="Trazado 161884" d="M687.7-11.888a3.862,3.862,0,0,1,2.312,4.954L685.391,5.777a3.884,3.884,0,0,1-3.632,2.547,3.957,3.957,0,0,1-1.309-.235,3.876,3.876,0,0,1-2.323-4.954L682.75-9.589A3.95,3.95,0,0,1,687.7-11.888ZM687.384-7.9a1.062,1.062,0,0,0-.636-1.344.966.966,0,0,0-.366-.07,1.068,1.068,0,0,0-.99.7L680.769,4.091a1.057,1.057,0,0,0,.624,1.357,1.046,1.046,0,0,0,1.357-.626Z" transform="translate(-644.201 95.496)"/>
        <path id="Trazado_161885" data-name="Trazado 161885" d="M688.05-42.374a3.845,3.845,0,0,1-.13,2.961,3.82,3.82,0,0,1-2.193,2,3.915,3.915,0,0,1-1.322.224,3.866,3.866,0,0,1-3.632-2.547l-4.622-12.712a3.852,3.852,0,0,1,2.3-4.941,3.7,3.7,0,0,1,1.332-.237,3.863,3.863,0,0,1,3.632,2.536Zm-2.677,1.769a1.048,1.048,0,0,0,.035-.8L680.774-54.12a1.043,1.043,0,0,0-.99-.7.992.992,0,0,0-.366.06,1.057,1.057,0,0,0-.624,1.357l4.622,12.712a1.047,1.047,0,0,0,1.367.626A1,1,0,0,0,685.373-40.605Z" transform="translate(-645.692 61.229)"/>
        <path id="Trazado_161886" data-name="Trazado 161886" d="M684.317-14.452A3.881,3.881,0,0,1,684.789-9L676.1,1.362a3.868,3.868,0,0,1-2.961,1.379,3.912,3.912,0,0,1-2.489-.9A3.836,3.836,0,0,1,669.281-.8a3.848,3.848,0,0,1,.9-2.806l8.692-10.366A3.981,3.981,0,0,1,684.317-14.452Zm-1.676,3.644a1.041,1.041,0,0,0-.14-1.486.977.977,0,0,0-.673-.247,1.026,1.026,0,0,0-.8.377L672.324-1.8a1.07,1.07,0,0,0-.247.766,1.1,1.1,0,0,0,.377.731,1.054,1.054,0,0,0,.684.237,1.049,1.049,0,0,0,.8-.365Z" transform="translate(-650.698 93.084)"/>
        <path id="Trazado_161887" data-name="Trazado 161887" d="M683.186-40.7a3.8,3.8,0,0,1,.885,2.819,3.849,3.849,0,0,1-1.369,2.617,3.834,3.834,0,0,1-2.477.908,3.88,3.88,0,0,1-2.959-1.379l-8.7-10.366a3.841,3.841,0,0,1-.9-2.829,3.849,3.849,0,0,1,1.369-2.619,3.969,3.969,0,0,1,5.448.484Zm-1.911,2.57a1.051,1.051,0,0,0-.235-.766l-8.715-10.365a1.023,1.023,0,0,0-.8-.379,1.008,1.008,0,0,0-.671.237,1.049,1.049,0,0,0-.377.719,1.088,1.088,0,0,0,.235.778l8.7,10.366a1.07,1.07,0,0,0,.813.377,1.041,1.041,0,0,0,.673-.247A1.081,1.081,0,0,0,681.276-38.127Z" transform="translate(-651.914 65.154)"/>
        <path id="Trazado_161888" data-name="Trazado 161888" d="M681.651-18.6a3.869,3.869,0,0,1-1.415,5.283L668.526-6.55a3.93,3.93,0,0,1-1.933.519,3.877,3.877,0,0,1-3.35-1.933,3.85,3.85,0,0,1,1.416-5.273l11.709-6.768A3.969,3.969,0,0,1,681.651-18.6Zm-2.819,2.854a1.06,1.06,0,0,0,.389-1.45,1.07,1.07,0,0,0-.918-.519.974.974,0,0,0-.519.142l-11.723,6.768a1.049,1.049,0,0,0-.389,1.439,1.088,1.088,0,0,0,1.462.377Z" transform="translate(-655.627 89.18)"/>
        <path id="Trazado_161889" data-name="Trazado 161889" d="M679.188-37.459a3.88,3.88,0,0,1,1.416,5.283,3.9,3.9,0,0,1-3.35,1.923,3.9,3.9,0,0,1-1.933-.508L663.6-37.53a3.875,3.875,0,0,1-1.415-5.273,3.979,3.979,0,0,1,5.283-1.427Zm-1.013,3.869a1.074,1.074,0,0,0-.389-1.439L666.063-41.8a1.047,1.047,0,0,0-.529-.142,1.042,1.042,0,0,0-.908.531A1.07,1.07,0,0,0,665-39.959L676.723-33.2A1.083,1.083,0,0,0,678.175-33.591Z" transform="translate(-656.418 70.949)"/>
        <path id="Trazado_161890" data-name="Trazado 161890" d="M680.045-23.835a3.87,3.87,0,0,1-3.136,4.47L663.572-17.02a2.983,2.983,0,0,1-.661.072,3.869,3.869,0,0,1-3.809-3.2,3.873,3.873,0,0,1,.636-2.89,3.864,3.864,0,0,1,2.5-1.592l13.325-2.347A3.871,3.871,0,0,1,680.045-23.835Zm-3.632,1.709a1.054,1.054,0,0,0,.861-1.225,1.06,1.06,0,0,0-1.038-.873.963.963,0,0,0-.187.012l-13.327,2.358a1.094,1.094,0,0,0-.684.424,1.071,1.071,0,0,0-.165.8,1.036,1.036,0,0,0,1.2.848Z" transform="translate(-658.396 84.259)"/>
        <path id="Trazado_161891" data-name="Trazado 161891" d="M676.55-33.034a3.862,3.862,0,0,1,3.125,4.468,3.846,3.846,0,0,1-3.8,3.208,4.183,4.183,0,0,1-.649-.058l-13.36-2.347a3.89,3.89,0,0,1-3.138-4.482,3.864,3.864,0,0,1,4.48-3.136Zm.366,3.986a1.053,1.053,0,0,0-.861-1.215L662.73-32.622a.867.867,0,0,0-.177-.012,1.054,1.054,0,0,0-1.05.885,1.045,1.045,0,0,0,.861,1.215l13.325,2.347a1.014,1.014,0,0,0,.189.011A1.06,1.06,0,0,0,676.916-29.048Z" transform="translate(-658.674 77.928)"/>
      </g>
      <g id="Grupo_116840" data-name="Grupo 116840" transform="translate(910.915 -52.44)">
        <path id="Trazado_161892" data-name="Trazado 161892" d="M633.93-32.5c-.176,1.941-6.369,10.505-9.584,13.151-3.436,2.913-5.448,4.553-8.662,7.133-1.137.941-2.992,2.4-2.992,2.4a1.776,1.776,0,0,0-.607,1.757l.163.66a1.346,1.346,0,0,0,1.4,1.039l.215.7a1.468,1.468,0,0,0-.849,1.62l.235,1.222a1.308,1.308,0,0,0,1.286,1.078,1.028,1.028,0,0,0,.216-.02l.208.679-.039.013A1.473,1.473,0,0,0,613.927.6l2.215,11.237a1.588,1.588,0,0,1-.072.679l-1.418,3.149-9.7-17.606a1.31,1.31,0,0,0-1.143-.686,1.3,1.3,0,0,0-.771.255L596.5,2.336c-.216.15-.908.705-.738,1.411.032.13.111.49.17.8l1.522,7.728a1.576,1.576,0,0,1-.072.679l-.255.562L592.3,4.446a4.074,4.074,0,0,0-.979-1.156l-8.76-6.748.555-.137a2.879,2.879,0,0,1,.719.045l7.741,2.8c.281.105.536.2.568.216l.17.071h.177c.274,0,.529-.1,1.038-.627l5.755-5.846a1.321,1.321,0,0,0,.392-1,1.322,1.322,0,0,0-.489-.967L583.765-21.62l3.351-.811a.859.859,0,0,1,.216-.019,1.466,1.466,0,0,1,.47.071l9.859,3.939a1.428,1.428,0,0,0,1.659-.444l.693.314a1.305,1.305,0,0,0,.071.647,1.447,1.447,0,0,0,.8.778l1.149.457a1.45,1.45,0,0,0,1.7-.51l.674.308a1.293,1.293,0,0,0,.052.738,1.417,1.417,0,0,0,.751.79l.934.425a1.78,1.78,0,0,0,1.849-.294s1.751-1.64,2.875-2.639c3.22-2.939,5.167-4.631,8.4-7.44C622.2-27.931,631.507-32.5,633.93-32.5Z" transform="translate(-579.496 34.167)" fill="#fc4b52"/>
        <g id="Grupo_116839" data-name="Grupo 116839">
          <path id="Trazado_161893" data-name="Trazado 161893" d="M633.695-34.071a1.428,1.428,0,0,1,.359,1.124c-.17,2.946-7.3,12.026-10.132,14.365-3.443,2.913-5.462,4.56-8.676,7.147-1.143.941-3.024,2.417-3.024,2.417a.318.318,0,0,0-.045.163l.118.477a1.378,1.378,0,0,1,1.378,1l.3.98a1.4,1.4,0,0,1-.843,1.712l.177.915a1.021,1.021,0,0,1,.144-.007,1.385,1.385,0,0,1,1.319.98l.3.993a1.392,1.392,0,0,1-.908,1.731l-.118.04,2.2,11.145a2.96,2.96,0,0,1-.182,1.614l-1.809,4.024a1.067,1.067,0,0,1-.974.686,1.086,1.086,0,0,1-.953-.615L602.3-1.374l-6.324,4.547c-.019.019-.045.039-.065.059.039.17.085.392.124.588l1.522,7.728a2.977,2.977,0,0,1-.182,1.62l-.653,1.457a1.073,1.073,0,0,1-.974.686,1.1,1.1,0,0,1-.96-.627l-5.279-9.93a2.832,2.832,0,0,0-.555-.66l-9.564-7.362a1.092,1.092,0,0,1-.451-1.085,1.086,1.086,0,0,1,.849-.8l1.548-.372a3.192,3.192,0,0,1,1.608.091l7.741,2.8c.085.032.17.065.248.091a.41.41,0,0,0,.059-.052l5.6-5.69L580.623-21.443a1.086,1.086,0,0,1-.425-1.091,1.1,1.1,0,0,1,.849-.8l4.279-1.033a2.989,2.989,0,0,1,1.626.118l9.754,3.9a1.407,1.407,0,0,1,1.7-.437l.948.425a1.483,1.483,0,0,1,.764.8,1.276,1.276,0,0,1,.066.6l.888.353a1.417,1.417,0,0,1,1.745-.5l.941.425a1.468,1.468,0,0,1,.751.8,1.3,1.3,0,0,1,.052.738l.8.366a.178.178,0,0,0,.144-.026s1.764-1.646,2.894-2.652c3.22-2.946,5.284-4.743,8.414-7.454,2.992-2.672,12.726-7.578,15.692-7.578A1.543,1.543,0,0,1,633.695-34.071ZM622.922-19.777c3.214-2.646,9.407-11.211,9.584-13.15-2.424.007-11.727,4.573-14.66,7.192-3.234,2.809-5.18,4.5-8.4,7.441-1.123,1-2.874,2.639-2.874,2.639a1.78,1.78,0,0,1-1.849.293l-.934-.425a1.411,1.411,0,0,1-.752-.79,1.3,1.3,0,0,1-.052-.738l-.673-.307a1.449,1.449,0,0,1-1.7.51l-1.15-.457a1.441,1.441,0,0,1-.8-.777,1.3,1.3,0,0,1-.072-.647l-.693-.313a1.43,1.43,0,0,1-1.659.444L586.378-22.8a1.469,1.469,0,0,0-.471-.072.83.83,0,0,0-.215.02l-3.351.81L597.764-9.325a1.326,1.326,0,0,1,.49.967,1.326,1.326,0,0,1-.392,1l-5.755,5.847c-.51.522-.764.627-1.039.627h-.177l-.169-.072c-.033-.013-.287-.111-.568-.215l-7.741-2.8a2.928,2.928,0,0,0-.719-.046l-.556.138L589.9,2.866a4.089,4.089,0,0,1,.979,1.156l4.821,9.067.255-.562a1.578,1.578,0,0,0,.072-.679L594.5,4.12c-.059-.307-.137-.666-.17-.8-.17-.705.523-1.26.738-1.411l6.539-4.71a1.3,1.3,0,0,1,.771-.255,1.312,1.312,0,0,1,1.143.686l9.7,17.606,1.418-3.149a1.6,1.6,0,0,0,.072-.679L612.5.174A1.473,1.473,0,0,1,613.5-1.5l.04-.013-.209-.679a1.088,1.088,0,0,1-.215.019,1.308,1.308,0,0,1-1.287-1.078l-.235-1.222a1.466,1.466,0,0,1,.849-1.62l-.216-.7a1.346,1.346,0,0,1-1.4-1.038l-.164-.66a1.778,1.778,0,0,1,.608-1.757s1.855-1.457,2.992-2.4C617.474-15.224,619.486-16.864,622.922-19.777Z" transform="translate(-578.915 34.482)"/>
        </g>
      </g>
    </g>
  </g>
</svg>
