<svg xmlns="http://www.w3.org/2000/svg" xmlns:xlink="http://www.w3.org/1999/xlink" width="120" height="120" viewBox="0 0 120 120">
  <defs>
    <clipPath id="clip-path">
      <rect width="120" height="120" fill="none"/>
    </clipPath>
  </defs>
  <g id="Grupo_117478" data-name="Grupo 117478" transform="translate(-270 -2980)">
    <g id="Grupo_117477" data-name="Grupo 117477">
      <g id="Cuadrícula_de_repetición_1" data-name="Cuadrícula de repetición 1" transform="translate(270 2980)" clip-path="url(#clip-path)">
        <g transform="translate(-270 -2980)">
          <g id="Elipse_5541" data-name="Elipse 5541" transform="translate(270 2980)" fill="#f5feff" stroke="#0082b2" stroke-width="2">
            <circle cx="60" cy="60" r="60" stroke="none"/>
            <circle cx="60" cy="60" r="59" fill="none"/>
          </g>
        </g>
      </g>
    </g>
    <path id="Trazado_162418" data-name="Trazado 162418" d="M218.657,114.6q-2.039-4.621-4.137-9.211a.64.64,0,0,0-1-.128c-5.991,5.852-11.982,11.293-15.223,19.186-1.571,3.825-3.414,8.44-3.885,12.572-.379,3.332,2.182,6.488,3.659,9.279a.58.58,0,0,0,.1.125c.005.062,0,.126.011.188a.2.2,0,0,0,.406,0v-.01a.645.645,0,0,0,.565-.937c-.147-.278-.312-.565-.482-.853.943-11.876,10.412-22.974,19.773-29.425A.6.6,0,0,0,218.657,114.6Z" transform="translate(103.888 2912.992)" fill="#fc4b52"/>
    <path id="Trazado_162419" data-name="Trazado 162419" d="M203.217,72.645a.6.6,0,0,0-.945-.122,96.869,96.869,0,0,0-12.614,19.432c-3.156,6.7-2.085,13.586-1.592,20.7-.073.917-.127,1.838-.14,2.763,0,.064.106.083.115.016.066-.441.138-.88.211-1.319a.39.39,0,0,0,.691-.247c-.047-.875-.1-1.753-.152-2.631A57.088,57.088,0,0,1,197.3,90.472a49.769,49.769,0,0,1,4.4-5.572c1.076-1.177,3.044-2.486,3.853-3.82C207.1,78.513,204.32,75.131,203.217,72.645Z" transform="translate(107.424 2927.462)" fill="#fc4b52"/>
    <g id="Grupo_117393" data-name="Grupo 117393" transform="translate(276 2991)">
      <path id="Trazado_162420" data-name="Trazado 162420" d="M220.121,138.332a13.291,13.291,0,0,0-3.65.119c-1.146.154-2,.3-2.753.377.962-2.032,1.735-4.192,2.474-6.268a1.083,1.083,0,0,0-.984-1.378q-15.588.475-31.175.964a.46.46,0,0,0,0-.418c-2.531-5.153,4.536-12.065,7.962-14.546,3.545-2.566,9.456-6.506,13.825-6.315a.592.592,0,0,0,.475-.882c-9.952-15.975-13.447-35.347-23.173-51.342a.229.229,0,0,0-.393-.019.38.38,0,0,0-.53.1c-7.415,9.536-10.709,24-10.759,36.247-.036.123-.073.248-.108.371a.062.062,0,0,0,.1.061c0,.148,0,.3,0,.447a68.528,68.528,0,0,0,3.284,20.364c1.788,5.551,4.185,11.627,8.053,15.97q-12.464.386-24.928.771a.883.883,0,0,0-.708,1.315c1.07,1.617,2.106,3.38,3.257,5.023-2.78,1.231-5.3,1.536-6.879-1.772-.147-.308-.625-.094-.525.236,1.358,4.472,6.141,3.68,9.265,1.932,1.892-1.059,3.807-2.818,6.014-2.931,2.783-.142,4.538,1.983,6.872,3.224.034.018.069.029.1.047a4.2,4.2,0,0,0-2.858,1.25c-.041.043,0,.123.057.1,2.734-.913,4.767.084,7.359.842,1.715.5,3.469.9,4.992-.277a.473.473,0,0,0-.218-.861,30.647,30.647,0,0,1-4.107-.459,9.727,9.727,0,0,0,1.686-.562c1.14-.5,2.155-1.349,3.306-1.8,4.633-1.832,4.391.236,7.332,1.663a5.222,5.222,0,0,0,.78.305,6.387,6.387,0,0,0-.665,0c-.705.043-2.644.233-2.13,1.425a.14.14,0,0,0,.262-.076c-.09-1.07,6.8.832,7.748.89a3.929,3.929,0,0,0,3.846-1.533.44.44,0,0,0-.469-.652,8.63,8.63,0,0,1-4.564.64c-.807-.12-1.626-.33-2.449-.49a8.944,8.944,0,0,0,3.657-1.078c3.067-1.511,5.234-3.151,8.506-1.14a12.253,12.253,0,0,0,2.729,1.72,6.754,6.754,0,0,0,.692.176c-.007.019-.017.038-.024.058.07-.01.138-.017.207-.026,2.99.528,6.257-.806,9.208-.816C220.739,139.33,220.7,138.405,220.121,138.332Zm-22.426-25.871a36.193,36.193,0,0,0-8.884,5.8c-2.625,2.472-6.572,7.668-6.09,11.988-.748-1.239-1.466-2.489-2.14-3.755,1.5-12.112,7.857-23.374,17.753-29.768a107.208,107.208,0,0,0,6.5,12.99C202.331,109.934,199.939,111.345,197.695,112.461Zm-3.3-25.57c1.226,3.216,2.482,6.418,3.827,9.571-.007,0-.013,0-.02,0a42.776,42.776,0,0,0-17.665,29.939,72.357,72.357,0,0,1-3.506-7.646c1.445-12.627,7.379-24.554,17.35-31.845C194.386,86.908,194.385,86.9,194.391,86.891ZM173.808,107.8c1.372-12.787,6.429-24.295,15.728-32.873.2-.184-.091-.493-.29-.309a49.233,49.233,0,0,0-15.621,32.214,64.419,64.419,0,0,1-1.064-10.978c-.015-1.384.022-2.767.093-4.147,3.038-9,6.7-17.38,13.561-24,.153-.148-.069-.373-.224-.239-6.731,5.844-10.523,14.594-13.285,23.3a66.592,66.592,0,0,1,2.362-13.772c1.824-6.446,4.929-11.75,7.868-17.592,4.129,8.76,7.716,17.653,11.171,26.745l.182.475c-.021,0-.042,0-.064.015a46.454,46.454,0,0,0-17.263,31.953A65.34,65.34,0,0,1,173.808,107.8ZM208.1,137.382c-1.819-.946-2.44-1.82-4.773-1.387-3.612.669-6.371,4.663-10.4,2.691-2.121-1.038-3.089-2.7-5.639-2.331-3.1.45-5.309,3.379-8.594,3.364-3.434-.015-5.054-3.436-8.136-4.176-2.476-.6-5.614,1.44-8.609,3-.8-1.327-1.683-2.607-2.544-3.872q27.138-.615,54.275-1.273c-.734,1.8-1.577,3.546-2.351,5.32A14.385,14.385,0,0,1,208.1,137.382Z" transform="translate(-152.969 -58.522)" fill="#333"/>
      <path id="Trazado_162421" data-name="Trazado 162421" d="M224.516,186.614a5.609,5.609,0,0,0,1.072,1.5.159.159,0,0,0,.263-.153,5.53,5.53,0,0,0-.951-1.575C224.737,186.16,224.364,186.364,224.516,186.614Z" transform="translate(-183.828 -108.951)" fill="#333"/>
      <path id="Trazado_162422" data-name="Trazado 162422" d="M227.833,185.43a.144.144,0,0,0-.2.2,4.019,4.019,0,0,0,.835.908c.154.1.346-.1.251-.251A3.993,3.993,0,0,0,227.833,185.43Z" transform="translate(-185.155 -108.625)" fill="#333"/>
    </g>
    <g id="Grupo_117396" data-name="Grupo 117396" transform="translate(39.659 2977.985)">
      <path id="Trazado_162423" data-name="Trazado 162423" d="M333.139,90.766a.982.982,0,0,1,.158.26,1.035,1.035,0,0,1-.38.055H304.991a1.075,1.075,0,0,1-.386-.055.95.95,0,0,1,.158-.26l7.405-4.819a4.688,4.688,0,0,0,2.526-3.069c.006-.049.245-1.222.456-2.781a37.128,37.128,0,0,0,.288-7.612,20.357,20.357,0,0,0-1.809-7.323,15.292,15.292,0,0,0-3-3.961,5.884,5.884,0,0,0-.5-.4l.837-.119c.087.076.174.135.234.179a16.935,16.935,0,0,1,3.569,3.628,22.236,22.236,0,0,1,3.042,7.639c.115.533.218,1.092.332,1.815l.054.326c.07.511.131,1.027.185,1.543l.1.847h.587c.646,0,.706-.488.912-2.1.006-.027.343-2.636.88-4.825a27.33,27.33,0,0,1,3.766-8.9,17.289,17.289,0,0,1,3.21-3.6l1.044.294a17.108,17.108,0,0,0-3.124,3.993,25.6,25.6,0,0,0-2.531,8.66,49.027,49.027,0,0,0-.218,9.1c.109,1.8.32,3.5.326,3.52a4.277,4.277,0,0,0,2.38,3.14Z" transform="translate(1.527 1.932)" fill="#feca2e"/>
      <g id="Grupo_117395" data-name="Grupo 117395" transform="translate(293.341 42.981)">
        <path id="Trazado_162424" data-name="Trazado 162424" d="M349.986,56.913c.332.679.467,1.037.25,1.385l-.191.3-.375.006c-.348,0-.576-.228-.923-.706l-4.878-1.51c2.205,3.206,2.461,8.829,2.472,9.079a1.7,1.7,0,0,1-.332,1.3.834.834,0,0,1-.6.261c-.566,0-.946-.527-1.184-.923a23.569,23.569,0,0,0-3.135-4.086c-.277-.261-.467-.441-.592-.56a9.418,9.418,0,0,1,.141,2.564c-.554,4.765-6.008,10.459-6.242,10.7a1.7,1.7,0,0,1-1.168.652.844.844,0,0,1-.673-.326,1.6,1.6,0,0,1-.109-1.423,33.086,33.086,0,0,0,1.038-6.656,35.513,35.513,0,0,0-1.146-7.112c-.044-.157-.169-.516-.451-.516a.825.825,0,0,0-.489.228,17.907,17.907,0,0,0-3.661,4.379,24.231,24.231,0,0,0-2.392,8.231,47.04,47.04,0,0,0-.211,8.861c.109,1.76.315,3.423.315,3.44a3.013,3.013,0,0,0,1.641,2.124l.109.054,7.688,5.026a1.42,1.42,0,0,1-1.141,2.526H305.816a1.561,1.561,0,0,1-1.586-.8,1.545,1.545,0,0,1,.445-1.722l.131-.115,7.649-4.966a3.382,3.382,0,0,0,1.793-2.145c.006-.017.244-1.184.445-2.695a36.108,36.108,0,0,0,.283-7.346,19.18,19.18,0,0,0-1.684-6.867,14.013,14.013,0,0,0-2.716-3.565,3.679,3.679,0,0,0-1.744-.939l-.255.25c-1.684,1.684-2.293,4.488-2.83,6.959a25.636,25.636,0,0,0-.321,5.379,1.689,1.689,0,0,1-.332,1.3.829.829,0,0,1-.613.267c-.56,0-.946-.517-1.19-.9-.141-.228-3.52-5.671-3.146-9.735a7.2,7.2,0,0,1,1.538-3.309c-.441.25-.913.527-1.358.8a17.6,17.6,0,0,0-3.075,2.586,1.672,1.672,0,0,1-1.168.679.836.836,0,0,1-.668-.32,1.619,1.619,0,0,1-.109-1.418c.049-.19,1.141-4.4,3.45-6.7l-3.841.24c-.441.4-.646.51-.9.51h-.4l-.2-.369c-.206-.424.055-.794.5-1.37.162-.2,3.933-4.976,7.909-5.536a8.188,8.188,0,0,1,3.624.609,1.268,1.268,0,0,0,1.652-.642l.06-.146.63-.537c2.091-1.783,5.585-1.4,5.628-1.391,1.044.109,1.358.57,1.434.94s-.022.912-.935,1.434a3.77,3.77,0,0,0-.38.25,5.022,5.022,0,0,1,2.113-.169c3.038.6,5.1,4.178,5.188,4.325a2.348,2.348,0,0,1,.283.717,1.142,1.142,0,0,1-.1.859c-.3.517-.972.652-1.825.31a11.32,11.32,0,0,0-3.1-.7l-.739-.043a9.3,9.3,0,0,1,2.2,4.346,1.659,1.659,0,0,1-.207,1.418.922.922,0,0,1-.734.343,1.762,1.762,0,0,1-1.179-.587,8.859,8.859,0,0,0-1.245-.9,15.027,15.027,0,0,1,2.494,2.815,23.529,23.529,0,0,1,3.227,8.073c.006.016.006.027.011.043.135-.782.315-1.651.516-2.477a28.627,28.627,0,0,1,3.945-9.317,18.849,18.849,0,0,1,3.454-3.863,11.579,11.579,0,0,1,1.582-1.173,1.635,1.635,0,0,0,.157-.1c-.049-.011-.108-.027-.184-.043a7.476,7.476,0,0,0-1.272-.1,8.566,8.566,0,0,0-1.846.2,11.834,11.834,0,0,0-3.048,1.228c-.837.505-1.538.439-1.875-.07a.891.891,0,0,1-.131-.283,1.915,1.915,0,0,1,.174-1.233c.066-.158,1.5-3.489,3.961-4.923-.011,0-.271-.053-1.179-.2a9.9,9.9,0,0,0-1.527-.109,17.131,17.131,0,0,0-2.619.218,2.938,2.938,0,0,1-.51.049,1.164,1.164,0,0,1-1.179-.636c-.148-.32-.179-.858.467-1.592.146-.162,3.563-3.977,7.155-3.977a6.77,6.77,0,0,1,3,1.049,11.816,11.816,0,0,0-1.1-1.163c-.76-.673-.765-1.217-.635-1.553.108-.288.451-.788,1.608-.669.184.022,4.541.494,6.459,2.977a3.16,3.16,0,0,1,.663,1.2,1.273,1.273,0,0,0,1.494,1.022,13.457,13.457,0,0,1,2.373-.218,6.781,6.781,0,0,1,2.261.326C346.514,49.9,349.844,56.631,349.986,56.913Zm-8.878-2.728,7.118,2.2c-1.108-1.928-3.646-5.8-6.58-6.861a5.571,5.571,0,0,0-1.82-.25,12.149,12.149,0,0,0-2.129.2,2.968,2.968,0,0,1-.489.043,2.558,2.558,0,0,1-2.521-2.1,4.064,4.064,0,0,0-.418-.646c-1.467-1.9-5-2.407-5.5-2.472a12.7,12.7,0,0,1,2.293,2.841l.24.418a.854.854,0,0,1,.011.876.742.742,0,0,1-.647.342c-.141,0-.521-.006-1.5-.718A7.544,7.544,0,0,0,326,46.628c-3.058,0-6.2,3.5-6.231,3.542-.017.022-.033.039-.049.06l.075-.016a18.747,18.747,0,0,1,2.847-.234,11.94,11.94,0,0,1,1.728.119,10.776,10.776,0,0,1,1.4.256c1.288.457,1.723.81,1.668,1.342a.729.729,0,0,1-.619.63l-.24.092c-2.26.843-3.776,4.069-3.982,4.531a12.721,12.721,0,0,1,3.391-1.358,10.106,10.106,0,0,1,2.124-.223,8.406,8.406,0,0,1,1.527.125c1.064.207,1.309.765,1.358,1.075s0,.919-.946,1.456a12.727,12.727,0,0,0-1.391,1.049,17.251,17.251,0,0,0-3.21,3.6,27.329,27.329,0,0,0-3.766,8.9c-.537,2.191-.874,4.8-.88,4.825-.206,1.614-.266,2.1-.912,2.1h-.587l-.1-.847c-.055-.516-.115-1.032-.185-1.543l-.055-.326c-.114-.722-.217-1.282-.332-1.815a22.24,22.24,0,0,0-3.042-7.638,16.923,16.923,0,0,0-3.569-3.629c-.06-.043-.147-.1-.234-.179a1.24,1.24,0,0,1-.564-1.26.93.93,0,0,1,1-.592,3.169,3.169,0,0,1,.56.053l.152.049.962.429a9.8,9.8,0,0,1,2.363,1.516c-.1-.424-.739-3.009-2.4-4.063l-.179-.115a.709.709,0,0,1-.441-.722c.055-.587.675-.777,1.8-.929l.06-.006,1.054.055a12.428,12.428,0,0,1,3.509.787c.027.011.05.017.076.027-.01-.022-.026-.043-.037-.07s-1.863-3.206-4.314-3.7a1.886,1.886,0,0,0-.363-.033,6.459,6.459,0,0,0-2.162.533,4.244,4.244,0,0,1-1.494.451.752.752,0,0,1-.718-.408.775.775,0,0,1,.12-.831l.293-.336a9.749,9.749,0,0,1,2.146-1.815c-.424-.033-3.086-.2-4.591,1.092l-.408.342a2.5,2.5,0,0,1-2.266,1.4,2.541,2.541,0,0,1-1.015-.207,6.76,6.76,0,0,0-2.94-.517c-2.488.347-5.031,2.776-6.275,4.135l5.64-.347a6.673,6.673,0,0,1,.83-.125h.593l.049.592c.039.424-.125.576-.576.69v.01a.716.716,0,0,0-.109.017c-.174.037-.385.07-.636.114a3.608,3.608,0,0,0-1.423.69c-1.836,1.456-2.966,4.617-3.368,5.911a17.671,17.671,0,0,1,2.923-2.379c1.461-.891,3.194-1.82,3.216-1.826a2.162,2.162,0,0,1,1.021-.359.734.734,0,0,1,.69.446c.207.505-.2.961-.63,1.385-.652.646-2.379,2.64-2.515,4.09-.277,3,1.9,7.106,2.683,8.47a24.723,24.723,0,0,1,.359-5.151c.554-2.543,1.239-5.671,3.189-7.622l.571-.57.184-.039a3.709,3.709,0,0,1,2.544.859,6.062,6.062,0,0,1,.494.4,15.291,15.291,0,0,1,3,3.961,20.364,20.364,0,0,1,1.809,7.323,37.13,37.13,0,0,1-.288,7.612c-.211,1.559-.451,2.732-.455,2.781a4.693,4.693,0,0,1-2.527,3.069l-7.405,4.819a.95.95,0,0,0-.158.261,1.1,1.1,0,0,0,.386.054h27.925a1.061,1.061,0,0,0,.38-.054.98.98,0,0,0-.158-.261l-7.421-4.824a4.281,4.281,0,0,1-2.38-3.141c-.006-.016-.217-1.716-.326-3.52a49.018,49.018,0,0,1,.218-9.1,25.6,25.6,0,0,1,2.531-8.661,17.108,17.108,0,0,1,3.124-3.993c.472-.462.81-.749.847-.782a2.059,2.059,0,0,1,1.326-.533,1.8,1.8,0,0,1,1.7,1.473,35.841,35.841,0,0,1,1.19,7.443,31.952,31.952,0,0,1-.946,6.465c1.217-1.347,5.1-5.894,5.52-9.556a8.375,8.375,0,0,0-.179-2.451,1.622,1.622,0,0,1,.142-1.417.87.87,0,0,1,.689-.332,1.732,1.732,0,0,1,1.18.646c.01.011.157.152.793.755a22.709,22.709,0,0,1,3.037,3.846c-.135-1.6-.662-5.981-2.515-8.209a5.434,5.434,0,0,0-1.858-1.314c-.255-.1-.456-.179-.619-.251l-.087-.032.006-.006c-.418-.2-.511-.359-.441-.728l.1-.527h.538C340.261,53.86,340.261,53.86,341.108,54.186Z" transform="translate(-293.341 -42.981)"/>
      </g>
      <path id="Trazado_162425" data-name="Trazado 162425" d="M303.542,59.59a.735.735,0,0,1,.69.445c.207.505-.2.962-.63,1.385-.652.647-2.38,2.64-2.515,4.091-.277,3,1.9,7.106,2.683,8.469a24.721,24.721,0,0,1,.359-5.15c.554-2.543,1.239-5.672,3.189-7.622l.571-.571.184-.037a3.7,3.7,0,0,1,2.543.858,5.829,5.829,0,0,1,.5.4c.026.025.259.245.589.6a4.5,4.5,0,0,1,.876-.223c-.514-.442-.879-.711-.889-.718-.06-.043-.146-.1-.234-.179-.32-.271-.739-.722-.564-1.26a.931.931,0,0,1,1-.592,3.083,3.083,0,0,1,.56.055l.152.049.962.429a9.759,9.759,0,0,1,2.363,1.516c-.1-.425-.739-3.01-2.4-4.064l-.179-.114a.711.711,0,0,1-.441-.723c.055-.586.675-.777,1.8-.929l.059-.006,1.055.055a12.41,12.41,0,0,1,3.509.788c.027.01.05.016.076.027-.01-.022-.026-.043-.037-.07s-1.863-3.206-4.314-3.7a1.816,1.816,0,0,0-.363-.033,6.478,6.478,0,0,0-2.163.533,4.233,4.233,0,0,1-1.493.451.754.754,0,0,1-.718-.408.777.777,0,0,1,.119-.831l.294-.337a9.818,9.818,0,0,1,2.146-1.815c-.425-.032-3.086-.2-4.591,1.092l-.408.342a2.551,2.551,0,0,1-3.281,1.19,6.766,6.766,0,0,0-2.94-.516c-2.488.347-5.031,2.775-6.275,4.135l5.64-.349a6.673,6.673,0,0,1,.83-.125h.593l.049.593c.037.424-.125.576-.576.689v.011a.828.828,0,0,0-.109.016c-.174.039-.385.072-.636.115a3.6,3.6,0,0,0-1.423.689c-1.836,1.457-2.966,4.618-3.368,5.912a17.559,17.559,0,0,1,2.923-2.38c1.461-.89,3.194-1.82,3.216-1.825A2.148,2.148,0,0,1,303.542,59.59Z" transform="translate(0.277 0.997)" fill="#a7e446"/>
      <path id="Trazado_162426" data-name="Trazado 162426" d="M337.426,55.085c-.255-.1-.456-.179-.619-.25l-.087-.033.006-.006c-.419-.2-.511-.358-.441-.728l.1-.527h.538c.131,0,.131,0,.978.326l7.118,2.2c-1.109-1.928-3.646-5.8-6.58-6.862a5.6,5.6,0,0,0-1.82-.25,12.083,12.083,0,0,0-2.129.2A2.97,2.97,0,0,1,334,49.2a2.557,2.557,0,0,1-2.521-2.1,4.191,4.191,0,0,0-.418-.646c-1.467-1.9-5-2.406-5.5-2.472a12.761,12.761,0,0,1,2.293,2.841l.24.419a.848.848,0,0,1,.01.874.739.739,0,0,1-.646.342c-.141,0-.521,0-1.5-.717a7.531,7.531,0,0,0-3.157-1.424c-3.059,0-6.2,3.5-6.232,3.543-.016.022-.032.037-.048.059l.075-.016a18.746,18.746,0,0,1,2.847-.234,11.93,11.93,0,0,1,1.728.12,10.19,10.19,0,0,1,1.4.256c1.288.455,1.723.809,1.668,1.341a.729.729,0,0,1-.62.63l-.238.092c-2.26.843-3.776,4.07-3.983,4.532a12.669,12.669,0,0,1,3.391-1.359,10.1,10.1,0,0,1,2.124-.223,8.562,8.562,0,0,1,1.527.125c1.064.207,1.308.767,1.358,1.077s0,.918-.946,1.456a12.585,12.585,0,0,0-1.391,1.048c-.109.091-.211.193-.319.287a5.025,5.025,0,0,1,.845.533c.184-.191.36-.371.518-.526.472-.462.81-.751.847-.782a2.053,2.053,0,0,1,1.326-.533,1.8,1.8,0,0,1,1.7,1.472,35.845,35.845,0,0,1,1.19,7.444,31.965,31.965,0,0,1-.946,6.465c1.217-1.348,5.1-5.895,5.52-9.557a8.357,8.357,0,0,0-.179-2.449,1.624,1.624,0,0,1,.142-1.418.874.874,0,0,1,.689-.332,1.734,1.734,0,0,1,1.18.647c.01.01.157.152.793.755a22.709,22.709,0,0,1,3.037,3.846c-.135-1.6-.662-5.982-2.515-8.209A5.445,5.445,0,0,0,337.426,55.085Z" transform="translate(3.142 0.135)" fill="#a7e446"/>
    </g>
  </g>
</svg>
