<svg xmlns="http://www.w3.org/2000/svg" xmlns:xlink="http://www.w3.org/1999/xlink" width="120" height="120" viewBox="0 0 120 120">
  <defs>
    <clipPath id="clip-path">
      <rect width="120" height="120" fill="none"/>
    </clipPath>
  </defs>
  <g id="Grupo_117480" data-name="Grupo 117480" transform="translate(-900 -2980)">
    <g id="Cuadrícula_de_repetición_3" data-name="Cuadrícula de repetición 3" transform="translate(900 2980)" clip-path="url(#clip-path)">
      <g transform="translate(-270 -2980)">
        <g id="Elipse_5541" data-name="Elipse 5541" transform="translate(270 2980)" fill="#f5feff" stroke="#0082b2" stroke-width="2">
          <circle cx="60" cy="60" r="60" stroke="none"/>
          <circle cx="60" cy="60" r="59" fill="none"/>
        </g>
      </g>
    </g>
    <g id="Grupo_117397" data-name="Grupo 117397" transform="translate(953.411 3016.814)">
      <path id="Trazado_162427" data-name="Trazado 162427" d="M607.684,304.883l-1.054-1.825-4.671,2.7.684,1.185a.007.007,0,0,0,.007,0,11.932,11.932,0,0,0,4.927-1.066.008.008,0,0,1,.009.012,7.331,7.331,0,0,1-4.687,1.494h-3.552a.007.007,0,0,1-.008-.008V306.9a.008.008,0,0,0-.013-.006l-2.788,3.092a.008.008,0,0,0,0,.011l2.788,3.091a.008.008,0,0,0,.013-.006v-.419a.008.008,0,0,1,.008-.008h3.847a1.811,1.811,0,0,0,1.567-.9l2.922-5.062A1.81,1.81,0,0,0,607.684,304.883Z" transform="translate(-588.184 -295.076)" fill="#feca2e" stroke="#070000" stroke-width="1"/>
      <path id="Trazado_162428" data-name="Trazado 162428" d="M592.231,288.435a.008.008,0,0,0,0-.008,11.931,11.931,0,0,0-3.293-3.838.008.008,0,0,1,.007-.013,7.326,7.326,0,0,1,3.546,3.409h0l2.25,3.9a.007.007,0,0,1,0,.01l-.329.19a.008.008,0,0,0,0,.014l4.154.9a.008.008,0,0,0,.01-.006l1.2-4a.007.007,0,0,0-.011-.008l-.339.2a.008.008,0,0,1-.01,0l-2.432-4.214a1.81,1.81,0,0,0-1.567-.905h-5.845a1.809,1.809,0,0,0-1.567.9l-1.061,1.838,4.673,2.7Z" transform="translate(-582.62 -284.064)" fill="#feca2e" stroke="#070000" stroke-width="1"/>
      <path id="Trazado_162429" data-name="Trazado 162429" d="M582.2,302.544a11.931,11.931,0,0,0-1.622,4.784.008.008,0,0,1-.015,0,7.33,7.33,0,0,1,1.126-4.788h0l2.325-4.021a.008.008,0,0,1,.01,0l.3.175a.007.007,0,0,0,.011-.008l-1.244-3.988-4.12.89a.008.008,0,0,0,0,.014l.364.21a.008.008,0,0,1,0,.011l-2.436,4.215a1.81,1.81,0,0,0,0,1.81l2.922,5.061a1.81,1.81,0,0,0,1.567.9H584.6V302.54H582.2A.008.008,0,0,0,582.2,302.544Z" transform="translate(-576.659 -290.228)" fill="#feca2e" stroke="#070000" stroke-width="1"/>
    </g>
    <path id="Trazado_162430" data-name="Trazado 162430" d="M541.379,246.727A38.876,38.876,0,1,0,580.255,285.6,38.92,38.92,0,0,0,541.379,246.727ZM505.426,285.6a35.864,35.864,0,0,1,1.347-9.761,4.586,4.586,0,0,0,.967-.3c.748-.326,1.307-1.065,2.01-1.349,1.817-.733,2.334,1.261,2.611,2.606,1.185.544,2.418-.012,3.18,1.333.706,1.247.189,3.208,1.744,3.978,1.523.755,2.935.224,3.147,2.472a25.281,25.281,0,0,1-.3,4.893c-.2,2.053.714,2.837,2.376,3.776,1.624.918,3.217,1.872,3.961,3.7.864,2.12.2,4.291.677,6.44.379,1.719,1.234,3.14,1.465,4.981.273,2.171.555,4.955,2.574,6.362a1.808,1.808,0,0,0,2.052.205c.552-.442.382-1.383.347-2.06-.089-1.731-.367-2.024,1.17-3.069a6.235,6.235,0,0,0,2.635-4.356,4.784,4.784,0,0,1,2.131-3.609A5.055,5.055,0,0,0,541.964,299c.514-1.383,1.853-2.173,2.821-3.3a6.458,6.458,0,0,0,1.374-4.284,4.044,4.044,0,0,0-3.132-4.176c-1.286-.332-2.57-.037-3.831-.319a3.492,3.492,0,0,1-2.258-2.133,4.8,4.8,0,0,0-2.574-2.707c-.605-.334-1.1-.442-1.672-.709-.784-.363-1.155-1.167-1.852-1.628-1.3-.863-3.021-.432-4.446-.252-1.286.162-2.458-.183-3.743-.118-.869.044-2.182.426-2.929-.188-.79-.651-.528-2.079-1.236-2.9-.924-1.068-3-.967-3.559-2.409a4.091,4.091,0,0,1,.925-3.725c1.238-1.42,2.6-1.035,4.364-1.35,2.132-.382,2.711-1.494,4.132-2.864,1.069-1.031,2.312-1.012,3.534-1.713,1.035-.594,1.493-1.391,2.682-1.619.434-.658,1.452-.348,2.121-.48,1.165-.23.8-.513,1.386-1.111,1-1.025,2.734-.269,3.93-1.238,1.472-1.191.092-2.109-1.352-2.141-1.572-.035-2.92.78-4.517.78a3.7,3.7,0,0,1-3.623-2.788,2.15,2.15,0,0,1,1.229-2.088c1.036-.6,1.407.018,2.189.667,1.463,1.214,2.694.511,3.949-.6a3.483,3.483,0,0,1,1.445-1.037c1.274-.327,3.107.484,3.38,1.757.231,1.075-.293,1.908.978,2.586a3.681,3.681,0,0,0,2.791.087c1.74-1.061,1.684-3.82,3.963-4.514,1.816-.553,3.855,1.011,5.484,1.578a6.46,6.46,0,0,1,2.594,1.134,6.651,6.651,0,0,1,1.335,3.183c.017,1.66-1.96,2.81-1.212,4.845.4,1.092,1.448,1.38,2.165.607.549-.591.848-1.6,1.436-2.242a6.456,6.456,0,0,1,1-.913c.757-.276.763.227,1.421.735,1.139.88,2.646,1.217,3.736,2.183,1.36,1.2,2.761,4.309.084,4.57-2.2.214-4.725-.63-6.839-.089a5.3,5.3,0,0,0-3.1,3.142c-.42,1.69.795,3.512.908,5.212.066,1-.3,2.532.382,3.359.757.915,2.371.864,3.374,1.344,1.128.539,2.229,2.158,3.72,1.62,1.189-.428,1.5-1.646,3.029-1.351a6.38,6.38,0,0,1,3.146,2.145c.323.733.073,2,.3,2.837.3,1.123-.005,2.361.27,3.5.13.538.586,1.515.3,2.057-.183.346-.833.554-1.127.867-.352.375-.523.933-.883,1.283-.53.516-1.464.817-2.071,1.317-1.737,1.43-.975,3.954-.393,5.837.617,2,.112,3.5-.082,5.459a21.346,21.346,0,0,1-.366,3.13,9.373,9.373,0,0,0-.218,1.153A35.936,35.936,0,0,1,505.426,285.6Z" transform="translate(419.745 2754.398)" fill="#a7e446" stroke="#010000" stroke-width="1"/>
  </g>
</svg>
